<?xml version="1.0" encoding="utf-8"?>
<!-- Generator: Adobe Illustrator 17.1.0, SVG Export Plug-In . SVG Version: 6.00 Build 0)  -->
<!DOCTYPE svg PUBLIC "-//W3C//DTD SVG 1.1//EN" "http://www.w3.org/Graphics/SVG/1.1/DTD/svg11.dtd">
<svg version="1.1" id="Layer_1" xmlns="http://www.w3.org/2000/svg" xmlns:xlink="http://www.w3.org/1999/xlink" x="0px" y="0px"
	 viewBox="0 0 800 800" enable-background="new 0 0 800 800" xml:space="preserve">
<g>
	<path fill="#EBE740" d="M339.4,143.1c0.1,2.9,0.1,5.9,0.2,8.8c0.3,1.8,0.3,3.6,0,5.4c-0.1,3.2-0.1,6.4-0.2,9.6
		c-0.8,1.6,0,3.3-0.5,4.9c-0.1,1.1-0.1,2.3-0.2,3.4c-0.7,1.1,0,2.4-0.5,3.5c-1.9,10.4-3.6,20.7-6.8,30.8
		c-5.1,16-11.9,31.2-20.6,45.5c-12.3,20.2-27.4,38.1-44.7,54.2c-11.7,11-24.1,21.2-37.1,30.7c-0.7,0.5-1.6,0.9-1.9,2.1
		c12.5,1.7,24.8,4.1,36.8,7.7c19.3,5.8,37,14.5,52.3,27.8c22.6,19.6,35.7,44.7,42.5,73.4c1.6,6.7,2.4,13.6,3.6,20.4
		c0.5,1.1-0.2,2.4,0.5,3.5c0.1,1.3,0.1,2.7,0.2,4c0.6,2-0.3,4.2,0.5,6.2c0,9.5,0,19.1,0,28.6c-0.8,2.5,0.1,5.1-0.5,7.6
		c-0.1,1.8-0.1,3.6-0.2,5.5c-0.8,1.5,0,3.3-0.5,4.8c-0.1,1.4-0.1,2.7-0.2,4.1c-0.7,1.1,0,2.4-0.5,3.5c-2.7,22.7-6.6,45.1-13.9,66.8
		c-9,26.8-21.5,51.9-39.1,74.1c-15,19-32.9,34.7-53.6,47.2c-19.8,12-41.1,20.2-63.6,25.6c-11,2.6-22.1,4.6-33.3,5.6
		c-1.1,0.5-2.4-0.2-3.5,0.5c-1.4,0.1-2.7,0.1-4.1,0.2c-1.8,0.6-3.7-0.3-5.5,0.5c-2.7,0.1-5.5,0.1-8.2,0.2c-6.4,0.3-12.8,0.3-19.1,0
		c-3.2-0.1-6.4-0.1-9.6-0.2c-1.8-0.8-3.7,0-5.5-0.5c-1.6-0.1-3.2-0.1-4.8-0.2c-1.1-0.7-2.4-0.1-3.5-0.5c-10.4-0.6-20.6-2.5-30.6-5.2
		c-14.6-3.9-28-10.4-38.4-21.8c-5-5.4-8.3-11.8-8.9-19.3c-0.3-4.3-0.3-8.6,0-13c0.1-2,0.1-4.1,0.2-6.1c0.6-1.1,0.1-2.4,0.5-3.5
		c0.4-11.9,4.7-22.8,7.9-34c0.6-2.3,1.6-4.5,1.9-6.9c0.3-2.9,1.5-2.3,2.9-1.1c5.7,4.8,11.8,8.9,18.3,12.5
		c12.5,6.9,25.9,11.4,39.9,14.3c7,1.5,14,2.9,21.2,2.8c1.3,0.7,2.8,0,4.2,0.5c2,0.1,4.1,0.1,6.1,0.2c6.5,0.5,13,0.5,19.5,0
		c1.8-0.1,3.6-0.1,5.5-0.2c1.1-0.4,2.4,0.2,3.4-0.5c15.1-1.1,29.4-5.3,43-11.8c14-6.8,26.1-16.1,36.5-27.6
		c7.8-8.6,14.2-18.4,19.9-28.6c6.6-11.8,11.5-24.2,15.4-37c3.2-10.4,5.6-21,6.9-31.9c0.4-3.1,0.6-6.2,1.2-9.3c0.7-1.1,0-2.4,0.5-3.5
		c0.1-1.3,0.1-2.7,0.2-4c0.7-1.3,0-2.8,0.5-4.2c0.1-2.3,0.2-4.5,0.2-6.8c0.5-7.4,0.5-14.8,0-22.2c-0.1-1.4-0.1-2.7-0.2-4.1
		c-0.5-1.1,0.2-2.4-0.5-3.5c-1.6-15.4-6.8-29.3-16.1-41.8c-9.9-13.2-22.6-23-37.2-30.1c-12.4-6-25.5-10.2-39.2-12.7
		c-9.6-1.7-19.3-3-29-4c-1.3-0.8-2.8,0-4.1-0.5c-1.4-0.1-2.8-0.1-4.1-0.2c-1.8-0.8-3.7,0.1-5.5-0.5c-2-0.1-4.1-0.1-6.1-0.2
		c-2.7-0.8-5.6,0.1-8.3-0.5c-4.8-0.1-9.6-0.1-14.4-0.2c-1.1-1.2,0.1-2.9-0.8-4.1c-0.1-3-0.1-6-0.2-9c-0.5-2.9,0.4-6-0.5-8.9
		c-0.1-3-0.1-6-0.2-9c-0.5-2.9,0.4-6-0.5-8.9c-0.1-3-0.1-6-0.2-9c0-2-0.7-4.1,0.3-6.1c13.2-6.4,26.3-13.1,38.9-20.8
		c11.1-6.8,21.7-14.3,32-22.3c10.5-8.1,20-17.3,28.8-27c12.8-14,23.4-29.7,30.4-47.5c3.6-9.2,6.2-18.7,7.1-28.7
		c0.7-1.1,0.1-2.3,0.5-3.4c0.4-5.3,0.4-10.6,0-15.9c-0.5-1.1,0.2-2.4-0.5-3.5c-1.4-15.8-6.4-30-19-40.5
		c-8.8-7.3-19.1-11.7-30.3-13.8c-3.4-0.6-6.9-0.9-10.3-1.3c-1.6-0.8-3.3,0.1-4.9-0.5c-7.8-0.3-15.6-0.4-23.5,0.1
		c-2.3,0.5-4.6-0.3-6.9,0.5c-1.6,0.1-3.2,0.1-4.8,0.2c-1.3,0.5-2.9-0.2-4.2,0.5c-7.9,0.3-15.7,1.6-23.5,2.8
		c-15,2.4-29.8,6.2-44.2,11.1c-16,5.5-31.5,12.4-46,21.4c-5.3-10.3-8.7-21.1-9.4-32.7c-0.5-1.3,0.3-2.8-0.5-4.1
		c-0.1-1.4-0.1-2.8-0.2-4.1c-0.6-1.8,0.3-3.7-0.5-5.5c0-2.1-0.1-4.1-0.1-6.2c-0.4-4.1-0.3-8.2,0-12.3c1.7-9.7,8.3-15.6,15.9-20.6
		c14.2-9.2,30-15.2,46.2-19.8c15.7-4.5,31.8-7.5,48.1-9.2c1.6-0.2,3.1-0.5,4.7-0.8c1.1-0.5,2.4,0.2,3.5-0.5c1.1-0.1,2.3-0.1,3.4-0.2
		c1.1-0.5,2.4,0.2,3.5-0.5c1.4-0.1,2.7-0.1,4.1-0.2c1.6-0.6,3.3,0.3,4.8-0.5c1.6,0,3.2-0.1,4.8-0.1c2-0.6,4.2,0.3,6.2-0.5
		c2.5-0.1,5-0.1,7.5-0.2c4.1-0.7,8.3,0.3,12.4-0.5c8.4,0,16.9,0,25.3,0c2.7,0.9,5.5-0.1,8.2,0.5c1.6,0.1,3.2,0.1,4.8,0.2
		c1.3,0.8,2.8,0,4.1,0.5c1.1,0.1,2.3,0.1,3.4,0.2c1.1,0.7,2.4,0,3.5,0.5c12.1,2,24.1,4,35.6,8.3c15.1,5.7,29.2,13,41.1,24.2
		c15.5,14.7,25,32.7,29.8,53.4c1.6,6.8,2.5,13.8,3.6,20.7C339.4,140.3,338.7,141.8,339.4,143.1z"/>
	<path fill="#FCFCFC" d="M402.4,770.2c1,1.3,2.5,0.8,3.8,0.8c11.1,0.1,22.3,0,33.4,0c-0.7,0.6-1.5,0.5-2.3,0.5
		c-10.9,0-21.8,0-32.7,0C403.8,771.5,402.1,772.4,402.4,770.2z"/>
	<path fill="#FCFCFC" d="M728.3,772.3c7.5,0,15.1,0,22.6,0c-5.5,1.2-11.1,0.3-16.6,0.5C732.3,772.9,730.2,773.5,728.3,772.3z"/>
	<path fill="#FCFCFC" d="M272.1,490.4c1,7.4,0.9,14.8,0,22.2C272.2,505.3,272.2,497.9,272.1,490.4z"/>
	<path fill="#FCFCFC" d="M139,678.1c-6.5,0.9-13,0.9-19.5,0C126,678.1,132.5,678.1,139,678.1z"/>
	<path fill="#FCFCFC" d="M117.6,760c6.4,0,12.8,0,19.1,0C130.4,760.9,124,760.9,117.6,760z"/>
	<path fill="#FCFCFC" d="M531.2,605.2c0-5.5,0-10.9,0-16.4C532.1,594.3,532.1,599.7,531.2,605.2z"/>
	<path fill="#FEFEFE" d="M750.1,39.8c-4.5,0-9.1,0-13.6,0C741.1,38.9,745.6,38.9,750.1,39.8z"/>
	<path fill="#FCFCFC" d="M399.7,614.2c0,4.3,0,8.6,0,12.9C398.8,622.9,398.8,618.6,399.7,614.2z"/>
	<path fill="#FCFCFC" d="M16.4,699.4c0,4.3,0,8.6,0,13C15.6,708,15.5,703.7,16.4,699.4z"/>
	<path fill="#FCFCFC" d="M179.4,30.3c-4.1,0.9-8.2,0.4-12.4,0.5C171.1,29.6,175.3,30.6,179.4,30.3z"/>
	<path fill="#FCFCFC" d="M14.4,83.9c0,4.1,0,8.2,0,12.3C13.5,92.1,13.5,88,14.4,83.9z"/>
	<path fill="#FCFCFC" d="M105.2,352.4c0.9,2.9,0.5,5.9,0.5,8.9C104.6,358.4,105.5,355.4,105.2,352.4z"/>
	<path fill="#FCFCFC" d="M105.9,370.3c0.9,2.9,0.5,5.9,0.5,8.9C105.3,376.3,106.1,373.3,105.9,370.3z"/>
	<path fill="#FCFCFC" d="M213,30.9c-2.8,0-5.5,0.3-8.2-0.5C207.5,30.6,210.3,29.7,213,30.9z"/>
	<path fill="#FCFCFC" d="M121.7,392.5c2.8,0,5.6-0.4,8.3,0.5C127.3,392.8,124.5,393.6,121.7,392.5z"/>
	<path fill="#FCFCFC" d="M362.9,521.4c0-2.6-0.3-5.1,0.5-7.6C363.2,516.3,364.1,518.9,362.9,521.4z"/>
	<path fill="#FCFCFC" d="M147.7,112.7c2.2-0.8,4.6-0.6,6.9-0.5C152.4,113.3,150,112.5,147.7,112.7z"/>
	<path fill="#FCFCFC" d="M711.8,771.7c2.3,0,4.7-0.3,6.9,0.5C716.4,772,714,772.7,711.8,771.7z"/>
	<path fill="#FCFCFC" d="M105.3,337.4c-0.1,2-0.2,4.1-0.3,6.1C104.4,341.4,103.8,339.3,105.3,337.4z"/>
	<path fill="#FCFCFC" d="M159.6,31c-2,0.8-4.2,0.5-6.2,0.5C155.3,30.4,157.5,31.2,159.6,31z"/>
	<path fill="#FCFCFC" d="M363.4,485.1c-0.8-2-0.5-4.1-0.5-6.2C364.1,480.9,363.2,483.1,363.4,485.1z"/>
	<path fill="#FCFCFC" d="M339.6,157.4c0-1.8,0-3.6,0-5.4C340.4,153.8,340.5,155.6,339.6,157.4z"/>
	<path fill="#FCFCFC" d="M136.1,393.1c1.8,0,3.7-0.3,5.5,0.5C139.8,393.5,137.9,394.3,136.1,393.1z"/>
	<path fill="#FCFCFC" d="M102.5,759.3c1.9,0,3.8-0.3,5.5,0.5C106.2,759.6,104.3,760.4,102.5,759.3z"/>
	<path fill="#FCFCFC" d="M145,759.8c1.8-0.8,3.7-0.5,5.5-0.5C148.7,760.4,146.8,759.6,145,759.8z"/>
	<path fill="#FCFCFC" d="M14.5,102.4c0.8,1.8,0.5,3.6,0.5,5.5C14,106.2,14.7,104.2,14.5,102.4z"/>
	<path fill="#FCFCFC" d="M700.8,770.9c1.8,0,3.7-0.3,5.5,0.5C704.5,771.3,702.5,772.1,700.8,770.9z"/>
	<path fill="#FCFCFC" d="M395.6,187.7c0,1.7,0.2,3.3-0.5,4.9C395.3,190.9,394.5,189.2,395.6,187.7z"/>
	<path fill="#FCFCFC" d="M532.6,189c0-1.6-0.3-3.3,0.5-4.8C532.9,185.7,533.7,187.4,532.6,189z"/>
	<path fill="#FCFCFC" d="M338.9,171.8c0-1.6-0.3-3.3,0.5-4.9C339.2,168.5,339.9,170.2,338.9,171.8z"/>
	<path fill="#FCFCFC" d="M362.2,531.7c0-1.6-0.3-3.3,0.5-4.8C362.6,528.5,363.3,530.2,362.2,531.7z"/>
	<path fill="#FCFCFC" d="M148.5,31.7c-1.5,0.8-3.2,0.5-4.8,0.5C145.2,31.2,146.9,31.9,148.5,31.7z"/>
	<path fill="#FCFCFC" d="M178,112.2c1.6,0,3.3-0.3,4.9,0.5C181.3,112.5,179.6,113.3,178,112.2z"/>
	<path fill="#FCFCFC" d="M499.4,33.6c-1.6,0-3.1,0-4.7,0C496.3,32.7,497.8,32.8,499.4,33.6z"/>
	<path fill="#FCFCFC" d="M533.1,172.6c-0.7-1.3-0.5-2.8-0.5-4.2C533.6,169.7,533,171.2,533.1,172.6z"/>
	<path fill="#FCFCFC" d="M145.8,393.9c1.4,0,2.8-0.3,4.1,0.5C148.5,394.2,147,394.8,145.8,393.9z"/>
	<path fill="#FCFCFC" d="M398.4,394.4c0,1.4,0.2,2.9-0.5,4.2C398,397.2,397.4,395.7,398.4,394.4z"/>
	<path fill="#FCFCFC" d="M106.6,388.2c0.9,1.3,0.1,2.8,0.8,4.1C105.9,391.1,106.8,389.5,106.6,388.2z"/>
	<path fill="#FCFCFC" d="M271.9,519.5c0.1,1.4,0.3,2.9-0.5,4.2C271.6,522.3,271,520.8,271.9,519.5z"/>
	<path fill="#FCFCFC" d="M221.9,31.5c-1.4,0-2.8,0.3-4.1-0.5C219.2,31.2,220.6,30.6,221.9,31.5z"/>
	<path fill="#FCFCFC" d="M508.4,34.3c-1.4,0-2.9,0.3-4.2-0.5C505.6,33.9,507.1,33.3,508.4,34.3z"/>
	<path fill="#FCFCFC" d="M516.6,34.9c-1.4,0.1-2.8,0.3-4.1-0.5C513.8,34.6,515.3,34,516.6,34.9z"/>
	<path fill="#FCFCFC" d="M525.5,35.7c-1.4,0-2.9,0.2-4.2-0.5C522.7,35.3,524.2,34.7,525.5,35.7z"/>
	<path fill="#FEFEFE" d="M729.7,40c-1.3,0.7-2.7,0.6-4.2,0.5C726.8,39.5,728.3,40.1,729.7,40z"/>
	<path fill="#FCFCFC" d="M780.5,57.8c0-1.3,0-2.7,0.1-4C781.4,55.1,781.4,56.4,780.5,57.8z"/>
	<path fill="#FCFCFC" d="M15.2,112c0.8,1.3,0.6,2.7,0.5,4.1C14.8,114.8,15.4,113.4,15.2,112z"/>
	<path fill="#FCFCFC" d="M113.4,677.9c-1.4,0.1-2.9,0.3-4.2-0.5C110.6,677.5,112.1,676.9,113.4,677.9z"/>
	<path fill="#FCFCFC" d="M138.7,113.4c1.3-0.8,2.8-0.5,4.2-0.5C141.6,113.9,140.1,113.3,138.7,113.4z"/>
	<path fill="#FCFCFC" d="M692.6,770.3c1.4-0.1,2.8-0.3,4.1,0.5C695.3,770.6,693.8,771.2,692.6,770.3z"/>
	<path fill="#FCFCFC" d="M339.4,143.1c-0.7-1.3-0.5-2.8-0.5-4.2C339.9,140.2,339.3,141.7,339.4,143.1z"/>
	<path fill="#FCFCFC" d="M395.1,211.6c0.8,1.3,0.5,2.7,0.5,4.1C394.6,214.5,395.2,213,395.1,211.6z"/>
	<path fill="#FCFCFC" d="M400.4,605.3c0.1,1.2,0.2,2.4-0.5,3.5C400,607.7,399.5,606.4,400.4,605.3z"/>
	<path fill="#FCFCFC" d="M530.5,613.5c-0.1-1.2-0.2-2.4,0.5-3.5C531,611.1,531.5,612.4,530.5,613.5z"/>
	<path fill="#FCFCFC" d="M242.6,168.3c0.7,1.1,0.6,2.3,0.5,3.5C242.2,170.7,242.7,169.5,242.6,168.3z"/>
	<path fill="#FCFCFC" d="M397.9,417.6c0.7,1.1,0.6,2.3,0.5,3.5C397.4,420.1,397.9,418.8,397.9,417.6z"/>
	<path fill="#FCFCFC" d="M147.9,677.4c-1.1,0.7-2.3,0.6-3.4,0.5C145.5,677,146.7,677.5,147.9,677.4z"/>
	<path fill="#FCFCFC" d="M362.7,474.9c-0.7-1.1-0.6-2.3-0.5-3.5C363.2,472.4,362.7,473.7,362.7,474.9z"/>
	<path fill="#FCFCFC" d="M17.1,689.8c0.1,1.2,0.2,2.4-0.5,3.5C16.7,692.1,16.2,690.9,17.1,689.8z"/>
	<path fill="#FEFEFE" d="M721.5,40.7c-1.1,0.7-2.3,0.6-3.5,0.5C719,40.2,720.3,40.8,721.5,40.7z"/>
	<path fill="#FCFCFC" d="M94.3,758.6c1.2-0.1,2.4-0.2,3.5,0.5C96.6,759,95.3,759.5,94.3,758.6z"/>
	<path fill="#FCFCFC" d="M154.5,759.1c1.1-0.7,2.3-0.6,3.5-0.5C157,759.5,155.7,759,154.5,759.1z"/>
	<path fill="#FCFCFC" d="M271.5,482.9c0.8,1.1,0.6,2.3,0.5,3.5C271,485.4,271.6,484.1,271.5,482.9z"/>
	<path fill="#FCFCFC" d="M243.1,187.7c0.1,1.2,0.3,2.4-0.5,3.4C242.7,190,242.2,188.7,243.1,187.7z"/>
	<path fill="#FEFEFE" d="M759.1,40.5c-1.2,0.1-2.4,0.2-3.5-0.5C756.8,40.1,758,39.5,759.1,40.5z"/>
	<path fill="#FCFCFC" d="M338.2,178.7c0-1.2-0.2-2.4,0.5-3.5C338.6,176.4,339.1,177.6,338.2,178.7z"/>
	<path fill="#FCFCFC" d="M500.8,768c1.1-0.7,2.3-0.6,3.4-0.5C503.2,768.4,502,767.9,500.8,768z"/>
	<path fill="#FCFCFC" d="M494.6,768.7c1.1-0.7,2.3-0.6,3.5-0.5C497,769.1,495.8,768.6,494.6,768.7z"/>
	<path fill="#FCFCFC" d="M132.7,33.1c-1.1,0.7-2.3,0.6-3.5,0.5C130.3,32.7,131.6,33.2,132.7,33.1z"/>
	<path fill="#FCFCFC" d="M685,769.6c1.2-0.1,2.4-0.2,3.5,0.5C687.3,770,686.1,770.5,685,769.6z"/>
	<path fill="#FCFCFC" d="M271.3,527.7c0.1,1.2,0.2,2.4-0.5,3.5C270.9,530,270.3,528.7,271.3,527.7z"/>
	<path fill="#FCFCFC" d="M139.6,32.4c-1.1,0.7-2.3,0.6-3.5,0.5C137.2,32,138.5,32.5,139.6,32.4z"/>
	<path fill="#FCFCFC" d="M361.6,539.3c-0.1-1.2-0.2-2.4,0.5-3.5C362,537,362.5,538.2,361.6,539.3z"/>
	<path fill="#FCFCFC" d="M228.8,32.3c-1.2,0-2.4,0.2-3.5-0.5C226.5,31.8,227.8,31.3,228.8,32.3z"/>
	<path fill="#FCFCFC" d="M755.6,772.2c1.1-0.7,2.3-0.6,3.5-0.5C758.1,772.6,756.8,772.1,755.6,772.2z"/>
	<path fill="#FCFCFC" d="M513.8,766.7c1.1-0.7,2.3-0.6,3.5-0.5C516.3,767.1,515,766.6,513.8,766.7z"/>
	<path fill="#EBE740" d="M662.2,265.5c14.7-25.6,29.4-51.2,44.1-76.7c10.2-17.7,20.5-35.4,30.8-53.1c9.8-16.9,19.8-33.7,29.3-50.8
		c5-8.9,11.3-17.1,14.2-27.1c0.4-1.3,0.3-2.7,0.1-4c-0.9-4.3-3.5-7.1-7.4-9.1c-4.5-2.4-9.4-3-14.2-4.1c-1.1-0.5-2.4,0.2-3.5-0.5
		c-1.8-0.1-3.6-0.1-5.5-0.2c-4.5-0.3-9.1-0.3-13.6,0c-2.3,0.1-4.6,0.1-6.8,0.2c-1.3,0.7-2.8,0-4.2,0.5c-1.4,0.1-2.7,0.1-4.1,0.2
		c-1.1,0.7-2.4,0-3.5,0.5c-7.9,1.2-15.7,2.5-23.6,3.6c-3.7,0.5-6.5,1.9-7.9,5.7c-0.9,2.5-2.5,4.8-3.8,7.2c-8,14.7-16,29.4-23.9,44.2
		c-8.6,16.2-17.2,32.4-26,48.5c-9.6,17.5-18.7,35.2-28.1,52.7c-9.7,18.1-19.4,36.1-29.1,54.1c-7.8,14.6-15.5,29.2-23.3,43.8
		c-6.8,12.7-13.6,25.3-20.4,38c-2.2,4-4.3,8.1-6.6,12.2c-1.6-1.2-1.8-2.8-2.6-4c-0.7-1.3-1.1-2.7-1.8-4c-9-16.8-20.3-32-32.3-46.8
		c-1.5-1.9-1.3-3-0.3-4.7c6.1-9.4,11.6-19.3,17.3-28.9c13.6-22.9,22.9-47.4,26.7-73.8c0.6-1.6-0.3-3.3,0.5-4.8c0-3.8,0-7.6,0-11.5
		c-0.7-1.3,0-2.9-0.5-4.2c-1.7-12.3-5.7-23.8-12.3-34.3c-10.1-16.2-21.7-31.4-33.7-46.2c-1.4-1.8-1.8-3.1-0.2-5
		c8.4-9.8,16.8-19.5,25.5-29c4.9-5.3,9.7-10.6,14.5-15.9c1.5-1.6,1.2-2.2-0.9-2.3c-1.4-0.5-2.9,0.2-4.2-0.5
		c-1.6-0.1-3.2-0.2-4.7-0.2c-1.3-0.5-2.8,0.3-4.1-0.5c-1.4-0.1-2.7-0.1-4.1-0.2c-1.4-0.5-2.9,0.2-4.2-0.5c-1.6-0.1-3.2-0.2-4.7-0.2
		c-1.6-0.2-3.1-0.3-4.7,0c-10.2,7.6-20,15.8-29.4,24.4c-1.5,1.4-2.4,1.4-3.8-0.3c-6-7-12.2-13.9-18.3-20.8c-0.9-1-1.9-1.8-3.5-1.8
		c-11.3,0.1-22.7,0-34,0.1c-0.6,0-1.5-0.3-1.9,0.4c-0.5,0.9,0.5,1.4,0.9,2c3.8,4.8,7.7,9.5,11.5,14.2c7.2,9.1,14.2,18.4,21.5,27.5
		c3.4,4.2,3.5,4.1,0.5,8.6c-0.9,1.3-1.7,2.6-2.6,3.9c-10.4,14.9-19,30.8-26.7,47.2c-2.2,4.7-4.4,9.4-6.2,14.3
		c-3.9,11.1-6.2,22.6-7,34.4c-0.6,1.6,0.2,3.3-0.5,4.9c0,6.3,0,12.7,0,19c0.8,1.3,0,2.8,0.5,4.1c0.3,7.6,2,15.1,5.1,21.9
		c5.3,11.7,11.9,22.6,19.4,33c6.5,9,13.1,17.9,19.8,26.7c1.6,2.1,2.1,3.5,0.2,6.1c-8.9,12.1-17.9,24.1-25.7,36.9
		c-3.4,5.5-6.9,11.1-8.8,17.2c-3.8,12-6,24.3-6.8,36.9c-0.5,1.3,0,2.9,0,4.2c0,6.3,0,12.7,0,19c0,1.1-0.4,2.4,0,3.5
		c0.1,1.6,0,3.2,0.2,4.7c2,12.3,7.7,22.9,14.4,33.2c10.2,15.6,21.8,30.2,32.3,45.6c1.3,1.9,1,3.2-0.2,4.6
		c-7.6,9.4-14.5,19.3-21.5,29.2c-5.9,8.3-11.7,16.8-15.1,26.5c-4.7,13.1-7.1,26.7-8.5,40.5c-0.4,1.1,0.2,2.4-0.5,3.5
		c-0.1,1.8-0.1,3.6-0.2,5.4c-0.3,4.3-0.3,8.6,0,12.9c0.5,3.3,0.3,6.5,0.9,9.8c1.3,6.9,2.9,13.8,6.7,19.8
		c12.6,20.2,25.3,40.3,38.1,60.3c1.2,1.9,1,3.3-0.2,4.7c-1.5,1.8-3.1,3.6-4.7,5.4c-5.5,6.2-11,12.4-16.4,18.6
		c-7.2,8.2-14.4,16.3-21.6,24.5c0.4,1.3,1.4,0.9,2.3,0.9c11.7,0,23.3,0.2,35-0.1c7.4-7.8,14.9-15.4,21.8-23.6
		c1.3-1.6,2.3-2.8,4.1-0.1c5,7.5,10.3,14.8,15.5,22.2c1.3,0,2.7,0.1,4,0.1c0,0,0,0,0,0c0,0,0,0,0,0c3.2-0.3,6.4-0.6,9.6-0.9
		c1.1-0.7,2.4,0,3.5-0.5c0.9-0.1,1.8-0.1,2.8-0.2c1.1-0.7,2.3,0,3.4-0.5c3.2-0.3,6.4-0.6,9.6-0.9c1.1-0.7,2.4,0,3.5-0.5
		c1.2-0.5,2.7,0.2,4-0.9c-0.3-0.4-0.5-0.8-0.7-1.2c-11.2-14.8-22.3-29.6-33.5-44.4c-1.1-1.4-1-2.1-0.1-3.5c5-7.2,9.6-14.6,14-22.2
		c7.1-12.5,14.2-25,19.4-38.3c5.3-13.5,8.2-27.8,10.2-42.2c0.5-1.1-0.2-2.4,0.5-3.5c0.1-1.6,0.1-3.2,0.2-4.8
		c0.3-5.5,0.3-10.9,0-16.4c-0.8-13.7-6.5-25.7-13.1-37.3c-8.9-15.5-19.6-29.8-30-44.4c-0.9-1.3-1.1-2.1-0.2-3.6
		c4.2-6.5,8.3-13,12.2-19.7c7.5-12.8,15-25.5,20.1-39.5c3.2-8.8,5.4-18,7.4-27.2c0.4-1.6,0.3-3.8,3.3-2.3
		c10.9,5.3,21.1,11.7,30.2,19.6c6.7,5.8,12.3,12.8,17.6,19.8c9.4,12.5,17.8,25.6,25.3,39.3c8.7,15.9,16,32.5,22.4,49.4
		c5.2,13.7,9.5,27.7,13.5,41.8c5.2,18.4,10.2,36.9,14.8,55.5c4.8,19.4,9.3,38.8,13.6,58.3c2.9,12.9,5.5,25.9,8.2,38.9
		c2,9.7,3.9,19.4,5.5,29.1c0.3,2.1,1,2.8,2.8,3c1.1,0.4,2.4-0.2,3.5,0.5c1.4,0.1,2.7,0.1,4.1,0.2c1.3,0.5,2.8-0.3,4.1,0.5
		c1.4,0,2.7,0.1,4.1,0.1c1.8,0.6,3.7-0.3,5.5,0.5c1.8,0.1,3.7,0.1,5.5,0.2c2.3,0.6,4.7-0.3,6.9,0.5c3.2,0.1,6.4,0.1,9.6,0.2
		c7.5,0.4,15.1,0.3,22.6,0c1.6-0.1,3.2-0.1,4.8-0.2c1.1-0.7,2.4,0,3.5-0.5c0.6-0.1,1.1-0.1,1.7-0.2c9.5-1.6,16.9-5.5,16.1-17.6
		c-0.9-13.4-3.5-26.5-5.7-39.7c-3.3-20.1-7.1-40.2-11.3-60.1c-5.7-26.9-12.3-53.7-20.1-80.1c-9.3-31.3-20.3-61.9-34.1-91.5
		c-7.8-16.9-16.6-33.4-26.5-49.2c-18-28.8-39.4-54.7-66.4-75.6c-2.1-1.6-2.2-2.7-0.9-5C628.8,323.6,645.5,294.5,662.2,265.5z
		 M433.7,226.6c-4.8-7.3-8.6-15.1-12.3-23c-2.6-5.5-1.5-11.9-0.6-17.9c3-19.4,12.7-35.8,23.9-51.4c5.5-7.7,11.4-15.2,18.1-22.4
		c6.1,8.5,11.9,16.8,17.9,25.1c8.4,11.6,16.8,23.1,24.6,35.1c3.1,4.8,3.2,9.5,2.8,14.7c-1.5,19.2-8.8,36.3-18.7,52.4
		c-6.1,10-13.2,19.2-20.6,28.2c-0.9,1.1-1.6,2.6-3.2,0.5C454.6,254.3,443.3,241.1,433.7,226.6z M503.6,590.7
		c6.3,9,6.8,18.2,3.6,28.5c-5,16.3-12.6,31.3-21.3,45.9c-5.1,8.5-10.6,16.8-16.4,24.9c-0.6,0.8-1,1.8-2.1,2.3
		c-6.5-9-12.4-18.3-17.9-28c-7.8-13.5-15.3-27-22.1-41c-2.5-5.2-2.9-10-1.8-15.5c2.8-13.6,8.6-26,15.4-37.9
		c6.7-11.7,14.4-22.8,22.5-33.6c0.9-1.2,1.4-2.4,2.8-0.3C478.7,554.2,491,572.6,503.6,590.7z M507.4,394.9
		c-1.8,18.9-9.1,35.7-18.4,51.9c-5.9,10.2-12.5,20-19.3,29.6c-1.3,1.9-1.9,2-3.3,0c-15.1-21.8-29.4-44.2-42.4-67.3
		c-1.6-2.8-0.8-5.8-0.3-8.7c1.6-10,5.3-19.4,9.8-28.4c7.9-16,18.3-30.3,29.3-44.8c14,17.9,28.4,34.9,41.7,52.8
		C507.9,384.7,507.9,389.6,507.4,394.9z"/>
</g>
</svg>
