<?xml version="1.0" encoding="utf-8"?>
<!-- Generator: Adobe Illustrator 17.1.0, SVG Export Plug-In . SVG Version: 6.00 Build 0)  -->
<!DOCTYPE svg PUBLIC "-//W3C//DTD SVG 1.1//EN" "http://www.w3.org/Graphics/SVG/1.1/DTD/svg11.dtd">
<svg version="1.1" id="Layer_1" xmlns="http://www.w3.org/2000/svg" xmlns:xlink="http://www.w3.org/1999/xlink" x="0px" y="0px"
	 viewBox="0 0 475.3 379.3" enable-background="new 0 0 475.3 379.3" xml:space="preserve">
<g>
	<g>
		<g>
			<g>
				<path fill="#007873" stroke="#007873" stroke-width="0.2615" stroke-miterlimit="10" d="M235.4,8.4c-0.4-0.2-1.2,0.6-2.2,1.8
					c-0.5,0.6-1.1,1.3-1.7,2c-0.6,0.7-1.3,1.5-2,2.3c-0.7,0.8-1.4,1.5-2,2.2c-0.7,0.7-1.3,1.3-1.8,1.8c-1.1,1-1.8,1.7-1.8,1.7
					c-2.2,2.1-3.5,4.3-2.7,5.4c0.7,1.1,3.6,0.3,6-2c0,0,0.7-0.8,1.9-2c0.5-0.6,1.1-1.4,1.7-2.2c0.6-0.8,1.2-1.8,1.8-2.7
					c0.6-0.9,1.1-1.9,1.6-2.8c0.4-0.9,0.8-1.8,1.1-2.6C235.7,9.7,235.8,8.6,235.4,8.4z"/>
			</g>
		</g>
	</g>
	<g>
		<g>
			<g>
				<path fill="#007873" stroke="#007873" stroke-width="0.2615" stroke-miterlimit="10" d="M264.4,34.8c-0.4-0.1-1.2,0.8-2,2.4
					c-0.5,0.7-1,1.6-1.5,2.5c-0.6,0.9-1.2,1.9-1.8,2.8c-0.7,0.9-1.3,1.8-2,2.7c-0.7,0.8-1.3,1.6-1.8,2.2c-1.1,1.2-1.9,2-1.9,2
					c-2.3,2.4-3.8,4.9-3,6c0.8,1,3.8,0,6.4-2.8c0,0,0.8-1,1.9-2.4c0.5-0.8,1.1-1.7,1.8-2.6c0.6-1,1.2-2.1,1.7-3.2
					c0.5-1.1,1-2.3,1.4-3.3c0.3-1.1,0.6-2.1,0.9-3C264.8,36.2,264.8,34.9,264.4,34.8z"/>
			</g>
		</g>
	</g>
	<g>
		<g>
			<g>
				<path fill="#007873" stroke="#007873" stroke-width="0.2615" stroke-miterlimit="10" d="M273.1,50.4c-0.4-0.2-1.3,0.4-2.4,1.5
					c-0.6,0.6-1.2,1.2-1.8,2c-0.7,0.7-1.4,1.5-2.1,2.2c-0.7,0.8-1.4,1.5-2,2.2c-0.7,0.7-1.3,1.3-1.8,1.8c-1.1,1.1-1.8,1.8-1.8,1.8
					c-2.1,2.1-3.2,4.6-2.4,5.6c0.8,1,3.5,0,5.8-2.3c0,0,0.7-0.8,1.7-2.1c0.5-0.6,1.1-1.4,1.7-2.2c0.6-0.8,1.2-1.7,1.7-2.6
					c0.6-0.9,1.2-1.8,1.6-2.7c0.5-0.9,0.9-1.7,1.2-2.5C273.2,51.8,273.5,50.7,273.1,50.4z"/>
			</g>
		</g>
	</g>
	<g>
		<g>
			<g>
				<path fill="#007873" stroke="#007873" stroke-width="0.2615" stroke-miterlimit="10" d="M158.7,9.3c-0.4-0.2-1.1,0.5-1.9,1.7
					c-0.4,0.6-0.7,1.4-1,2.2c-0.3,0.8-0.5,1.8-0.8,2.7c-0.2,0.9-0.3,1.9-0.4,2.8c0,0.9,0,1.8,0,2.5c0,0.7,0.2,1.4,0.2,1.8
					c0.1,0.4,0.1,0.7,0.1,0.7c0.1,0.7,0.5,1.4,0.8,2c0.2,0.3,0.3,0.6,0.5,0.8c0.2,0.2,0.4,0.4,0.6,0.6c0.8,0.7,1.6,0.9,2.1,0.6
					c0.6-0.3,0.9-1.1,0.9-1.9c0-0.2,0-0.5,0-0.7c0-0.2,0-0.5,0-0.8c0-0.5-0.2-1.1-0.3-1.6c0,0-0.2-0.8-0.4-1.9
					c-0.1-0.6-0.2-1.3-0.3-2c0-0.7-0.1-1.6-0.1-2.4c0.1-0.8,0-1.7,0.1-2.4c0.1-0.8,0.1-1.5,0.2-2.2C159.1,10.5,159.1,9.5,158.7,9.3z
					"/>
			</g>
		</g>
	</g>
	<g>
		<g>
			<g>
				<path fill="#007873" stroke="#007873" stroke-width="0.2615" stroke-miterlimit="10" d="M116.7,45.5c-0.9,0.2-0.7,3.5,0.8,6.7
					c0.7,1.6,1.8,3,2.7,4c1,1,1.8,1.5,1.8,1.5c1.2,0.8,2.6,1,3.6,0.8c0.5-0.1,0.9-0.3,1.2-0.6c0.3-0.3,0.4-0.6,0.4-0.9
					c0-0.7-0.4-1.2-0.8-1.8c-0.5-0.5-1.1-1-1.8-1.5c0,0-0.5-0.3-1.3-0.9c-0.8-0.6-1.7-1.5-2.6-2.6C118.9,48.1,117.6,45.3,116.7,45.5
					z"/>
			</g>
		</g>
	</g>
	<path fill="#00BA8C" d="M256.4,52.1c4.6,10.5,6.3,22.5,4.3,34.8c-4.1,25.3-12.4,74.5-12.4,100c0,4,0.2,8.7,0.5,13.8
		c0.1,1.2,0.2,2.5,0.3,3.7c1.9,25.2,6.8,58.9,10.9,77.4c6.3,28.6,1.5,56.9-17.4,75.5c-2.7,2.7-5.7,5.1-9,7.4
		c-3.4,2.3-7.2,4.4-11.2,6.2c-10.7,4.7-21.8,6.4-32.6,5.7c-7.1-0.5-14.1-2-20.7-4.4c-16.9-6.1-31.8-18-41.8-33.4
		c-12-18.4-28-59.6-34.1-115.4c-0.1-1.2-0.3-2.5-0.4-3.7c-1.1-10.4-1.7-21.4-2-32.7c-0.8-35.7,3.3-80.8,20.8-111
		c20.2-34.7,43.1-52,65.3-58.9c8.5-2.6,16.8-3.8,24.9-3.8C226.9,15.7,247.3,31.2,256.4,52.1z"/>
	<path fill="#00DD68" d="M233.6,90.4c-4.1,25.3-12.4,74.5-12.4,100c0,1.4,0,3,0.1,4.6c0.1,2.9,0.2,6,0.4,9.3
		c0.1,1.2,0.2,2.5,0.3,3.7c0.5,6.2,1.1,13,1.9,19.9c-0.6,0.5-1.2,1-1.8,1.6c0,0-1.2,4.5-3,11.7c-6,24.5-18,80.8-7.7,100.7
		c3,5.6,5.9,10.1,8.9,13.6c-1.5,1.9-3.2,3.7-4.9,5.5c-2.7,2.7-5.7,5.1-9,7.4c-3.4,2.3-7.1,4.4-11.2,6.2c-1.8,0.8-3.7,1.5-5.5,2.1
		c-7.1-0.5-14.1-2-20.7-4.4c-16.9-6.1-31.8-18-41.8-33.4c-8.3-12.8-18.6-36.6-26.1-68.8c-3.1-13.1-5.7-27.6-7.6-43.3
		c-0.1-1.1-0.3-2.3-0.4-3.4c-0.1-1.2-0.3-2.5-0.4-3.7c-1.1-10.4-1.7-21.4-2-32.7c-0.8-35.7,3.3-80.8,20.8-111
		c20.2-34.7,43.1-52,65.3-58.9c24.2,3.2,43.7,18.4,52.5,38.6C233.9,66.2,235.7,78.1,233.6,90.4z"/>
	<g>
		<path fill="#67A7D5" d="M265.9,106.5c0,0,3,14.5,0.6,28.5c-4,22.9-13.8,46.4-34.9,38.2c-3.9-1.5-7.3-6.2-10.7-7.2
			c-2.7,0.6-9.3,5.8-14.7,9.7c-30.9,19.5-51.5-0.7-71.5-21.2l-0.3-0.6c-13.2,0.5-35.5,0.7-43.1-0.5c0,0-0.1-12.3,2-25.9
			c2.2-14.7,6.4-26.8,6.4-26.8C159.2,98,208,87.6,265.9,106.5z"/>
	</g>
	<g>
		<path fill="#4A87A5" d="M266.2,109.9c0,0,2.8,11,0.3,25c-4,22.9-12.2,44.5-33.2,36.3c-3.9-1.5-7.3-6.2-10.7-7.2
			c-2.7,0.6-10.9,7.8-16.4,11.6c-30.9,19.5-49.1-2.4-69.1-22.9l9.6-51.9C206.2,98.2,212.3,96.1,266.2,109.9z"/>
	</g>
	<g>
		<path fill="#95D2F8" d="M256,119.3c2.3,17.3-4.4,45.8-22.3,39.9c-3.3-1.1-8.4-3.7-11.2-4.4c-1.5,0.4-5.5,2-9.4,3.9
			c-2.1,1.1-4.2,2.2-5.9,3.4c-0.6,0.4-1.2,0.7-1.8,1.1c-1,0.6-2.1,1.2-3,1.7c-7.5,3.9-13.9,5.4-19.4,5.1
			c-12.1-0.7-19.7-10.5-23.8-24.7c-3.2-11.2,4-29.8,4-29.8c15.1-2.2,29.2-2.8,41.6-2.6c6.3,0.1,12.2,0.5,17.6,0.9
			c0.8,0.1,1.5,0.1,2.3,0.2c2,0.2,3.9,0.4,5.7,0.6C246.4,116.6,256,119.3,256,119.3z"/>
	</g>
	<g>
		<path fill="#FFFFFF" d="M248.8,200.7c0.1,1.2,0.2,2.5,0.3,3.7c1.9,25.2,6.8,58.9,10.9,77.4c6.3,28.6,1.5,56.9-17.4,75.5
			c-2.7,2.7-5.7,5.1-9,7.4c-7.2-2-14.7-8.9-22-22.8c-13.3-25.7,10.6-112.4,10.6-112.4c7.9-6.7,9.9-11.5,12.2-21.9
			C234.3,207.5,246.4,201.9,248.8,200.7z"/>
	</g>
	<g>
		<g>
			<path fill="#93B7CD" d="M234.9,208.1c9.7,3,13.8,13.7,15.9,22.7c0.1,0.5,0.9,0.3,0.8-0.2c-2.1-9.3-6.5-20.2-16.4-23.3
				C234.6,207.2,234.4,207.9,234.9,208.1L234.9,208.1z"/>
		</g>
	</g>
	<g>
		<path fill="#FFFFFF" d="M242.1,230.5c0.8,36,23.1,87,3,122.6c-0.8,1.4-1.6,2.8-2.5,4.1c-5.5,5.4-21.6-137.3-15.8-133.8
			C231.4,226.2,236.5,228.6,242.1,230.5z"/>
		<g>
			<path fill="#94B8CE" d="M240.9,230.5c0.7,24.9,8.5,49,10.8,73.8c1.2,12.7,0.8,25.7-3.1,37.9c-0.6,1.9-6.7,13.4-6,14.1
				c-0.6-0.6-0.9-1.9-1.1-2.7c-3.2-10.1-4.4-21.1-5.9-31.5c-2.3-15.7-4.2-31.5-5.8-47.3c-1.3-12.6-2.5-25.2-3-37.9
				c-0.1-3.6-0.3-7.2,0-10.7c0-0.5,0.2-1.9,0.3-2c-0.3,0-0.7,0.1-1,0.1c0.9,0.6,1.9,1.1,2.8,1.6c1.5,0.8,3,1.5,4.5,2.2
				c2.7,1.3,5.5,2.3,8.3,3.3c1.4,0.5,2-1.8,0.6-2.3c-3.7-1.3-7.3-2.8-10.8-4.6c-1.5-0.8-3.1-2.1-4.7-2.6c-0.8-0.2-1.5,0.3-1.8,1
				c-1,2.3-0.7,5.3-0.7,7.8c0,12.2,1.3,24.4,2.4,36.5c2.6,27.5,5.1,55.8,11.4,82.8c0.5,2.1,1.1,7.5,3.7,8.3c2.8,0.9,5.4-7,6.3-8.7
				c3.3-6.7,4.9-14.1,5.9-21.4c4.2-33.1-9.7-65.1-10.7-97.9C243.2,229,240.9,229,240.9,230.5z"/>
		</g>
	</g>
	<g>
		<path fill="#FFFFFF" d="M242.1,230.5c0.8,36,23.1,87,3,122.6c-0.8,1.4-1.6,2.8-2.5,4.1c-5.5,5.4-12.2,10-20.3,13.5
			c-17.7,7.7-36.5,7.4-53.3,1.3c-16.9-6.1-31.8-18-41.8-33.4c-12-18.4-28-59.6-34.1-115.4c54.6-1,118.7-11.9,118.7-11.9
			C219.3,219.4,229.4,226.2,242.1,230.5z"/>
	</g>
	<g>
		<g>
			<path fill="#93B7CD" d="M93.1,225c28.7,11.6,57.8,23,88.5,27.8c0.2,0,0.4,0,0.4-0.2c7.2-15.1,17.9-29.1,30.2-40.4
				c0.4-0.3-0.2-0.9-0.6-0.6c-8.6,7.9-16,17-22.4,26.8c-2.2,3.3-4.2,6.7-6.1,10.2c-0.5,0.9-1,1.9-1.5,2.8c-0.7,1.4-2.2,0.3-3.6,0
				c-29.4-4.8-57.3-16.1-84.9-27.2C92.8,224,92.6,224.8,93.1,225L93.1,225z"/>
		</g>
	</g>
	<g>
		<g>
			<g>
				<path fill="#007873" stroke="#007873" stroke-width="0.2615" stroke-miterlimit="10" d="M106.4,50.2c-0.4,0.2-0.3,1.5,0.2,3.5
					c0.3,1,0.7,2.1,1.1,3.3c0.5,1.2,1.1,2.4,1.6,3.6c0.6,1.2,1.3,2.4,1.9,3.5c0.6,1.1,1.3,2.1,1.9,2.9c0.5,0.9,1.1,1.5,1.4,2
					c0.4,0.5,0.6,0.7,0.6,0.7c0.3,0.4,0.7,0.8,1,1.1c0.4,0.3,0.7,0.7,1.1,0.9c0.7,0.6,1.4,1.1,2,1.4c1.4,0.6,2.3,0.7,2.7,0.2
					c0.4-0.5,0.2-1.5-0.5-2.6c-0.3-0.5-0.7-1.2-1.1-1.9c-0.2-0.3-0.5-0.7-0.8-1c-0.3-0.4-0.5-0.7-0.8-1.1c0,0-0.2-0.2-0.6-0.7
					c-0.4-0.4-0.9-1-1.5-1.8c-0.6-0.8-1.3-1.6-2-2.6c-0.7-1-1.5-2-2.2-3.1c-0.7-1.1-1.4-2.1-2.1-3.1c-0.6-1-1.3-2-1.8-2.8
					C107.6,51.1,106.8,50,106.4,50.2z"/>
			</g>
		</g>
	</g>
	<g>
		<g>
			<g>
				<path fill="#007873" stroke="#007873" stroke-width="0.2615" stroke-miterlimit="10" d="M137.2,24.2c-0.5,0-0.9,1.2-1.2,3
					c-0.1,0.9-0.2,2-0.3,3.2c-0.1,1.2,0,2.4,0,3.6c0,1.2,0.2,2.5,0.3,3.6c0.1,1.2,0.3,2.2,0.5,3.2c0.1,0.9,0.3,1.7,0.5,2.2
					c0.1,0.5,0.2,0.8,0.2,0.8c0.2,0.9,0.6,1.8,1,2.5c0.4,0.7,0.8,1.4,1.2,1.9c0.9,1,1.8,1.4,2.3,1.1c0.6-0.3,0.8-1.2,0.7-2.4
					c-0.1-0.6-0.1-1.3-0.2-2c-0.1-0.7-0.4-1.5-0.5-2.4c0,0-0.1-0.3-0.2-0.8c-0.1-0.5-0.4-1.2-0.6-2c-0.2-0.8-0.5-1.8-0.7-2.9
					c-0.2-1.1-0.4-2.2-0.7-3.4c-0.2-1.1-0.4-2.3-0.6-3.4c-0.1-1.1-0.3-2.1-0.5-3C138,25.5,137.7,24.2,137.2,24.2z"/>
			</g>
		</g>
	</g>
	<g>
		<g>
			<g>
				<path fill="#007873" stroke="#007873" stroke-width="0.2615" stroke-miterlimit="10" d="M136.6,65.2c-0.4,0.2-0.4,1,0,2
					c0.2,0.5,0.4,1,0.7,1.6c0.3,0.6,0.7,1.1,1.1,1.7c0.4,0.5,0.8,1.1,1.3,1.6c0.4,0.5,0.9,0.9,1.2,1.3c0.4,0.4,0.7,0.6,1,0.8
					c0.2,0.2,0.4,0.3,0.4,0.3c0.4,0.3,0.9,0.5,1.4,0.6c0.5,0.1,0.9,0.2,1.3,0.1c0.8-0.1,1.4-0.5,1.6-1.1c0.2-0.6,0.1-1.3-0.2-1.9
					c-0.2-0.3-0.3-0.6-0.6-0.9c-0.2-0.3-0.6-0.5-0.9-0.8c0,0-0.5-0.3-1.2-0.7c-0.4-0.2-0.8-0.5-1.2-0.8c-0.4-0.3-0.9-0.7-1.4-1
					c-0.5-0.4-0.9-0.7-1.4-1.1c-0.4-0.4-0.9-0.7-1.3-1C137.7,65.2,137,64.9,136.6,65.2z"/>
			</g>
		</g>
	</g>
	<g>
		<g>
			<g>
				<path fill="#007873" stroke="#007873" stroke-width="0.2615" stroke-miterlimit="10" d="M160.2,34.2c-0.4-0.1-1.1,0.7-1.7,2.2
					c-0.3,0.7-0.6,1.6-0.9,2.5c-0.2,0.9-0.5,1.9-0.7,3c-0.1,1-0.3,2-0.4,3c0,1-0.1,1.9-0.1,2.6c0,1.6,0.1,2.6,0.1,2.6
					c0.3,3.2,1.9,5.4,3.2,5.1c1.3-0.3,1.8-2.8,1.5-5.5c0,0-0.1-0.9-0.3-2.3c-0.1-0.7-0.1-1.5-0.2-2.4c0-0.9-0.1-1.8-0.1-2.8
					c0-0.9,0-1.9,0-2.8c0-0.9,0.1-1.7,0-2.5C160.8,35.4,160.6,34.3,160.2,34.2z"/>
			</g>
		</g>
	</g>
	<g>
		<g>
			<g>
				<path fill="#007873" stroke="#007873" stroke-width="0.2615" stroke-miterlimit="10" d="M181.7,3.5c-0.5,0-0.8,1.1-1,2.6
					c-0.1,0.7-0.2,1.6-0.3,2.5c-0.1,0.9-0.3,1.9-0.4,2.9c-0.1,1-0.2,1.9-0.3,2.8c-0.2,0.9-0.3,1.7-0.4,2.5c-0.2,1.4-0.4,2.4-0.4,2.4
					c-0.5,2.8,0,5.4,1.3,5.7c1.3,0.3,2.8-1.9,3.4-5c0,0,0.1-1,0.2-2.6c0-0.8,0.1-1.7,0.2-2.7c0-1-0.1-2-0.1-3.1
					c-0.1-1-0.1-2.1-0.2-3c-0.2-1-0.4-1.9-0.6-2.6C182.6,4.4,182.2,3.5,181.7,3.5z"/>
			</g>
		</g>
	</g>
	<g>
		<g>
			<g>
				<path fill="#007873" stroke="#007873" stroke-width="0.2615" stroke-miterlimit="10" d="M217.3,4.3c-0.3-0.4-1.4,0.1-3,1
					c-0.7,0.5-1.6,1.2-2.4,1.9c-0.8,0.8-1.6,1.7-2.5,2.6c-0.8,0.9-1.5,1.9-2.2,2.9c-0.6,1-1.1,1.9-1.6,2.7c-0.4,0.8-0.7,1.5-0.9,2
					c-0.2,0.5-0.3,0.8-0.3,0.8c-0.4,0.9-0.5,1.8-0.6,2.6c-0.1,0.4-0.1,0.8-0.1,1.2c0,0.4,0.1,0.7,0.1,1c0.2,1.3,0.7,2,1.3,2.1
					c0.6,0.1,1.3-0.5,1.9-1.5c0.1-0.2,0.3-0.5,0.4-0.8c0.2-0.3,0.3-0.6,0.5-0.9c0.3-0.6,0.5-1.4,0.8-2.1c0,0,0.4-1,0.9-2.5
					c0.3-0.7,0.7-1.6,1.1-2.5c0.5-0.9,1-1.8,1.6-2.8c0.6-0.9,1.2-1.9,1.8-2.7c0.6-0.8,1.2-1.6,1.7-2.3C217,5.7,217.6,4.7,217.3,4.3z
					"/>
			</g>
		</g>
	</g>
	<g>
		<g>
			<g>
				<path fill="#007873" stroke="#007873" stroke-width="0.2615" stroke-miterlimit="10" d="M205.7,34.3c-0.8-0.4-2.6,2.4-4.2,5.2
					c-0.8,1.4-1.5,2.9-2,4c-0.5,1.1-0.8,1.9-0.8,1.9c-0.9,2.3-0.6,4.5,0.7,4.9c1.2,0.4,2.9-1,3.7-3.3c0,0,0.2-0.7,0.6-1.9
					c0.3-1.1,0.8-2.6,1.2-4.2C205.9,37.9,206.6,34.7,205.7,34.3z"/>
			</g>
		</g>
	</g>
	<g>
		<g>
			<g>
				<path fill="#007873" stroke="#007873" stroke-width="0.2615" stroke-miterlimit="10" d="M179.4,51.2c-0.4-0.2-1.2,0.3-2.1,1.5
					c-0.9,1.2-1.8,3-2.2,5c-0.5,2-0.4,4.2-0.1,5.7c0.2,0.8,0.3,1.4,0.5,1.9c0.2,0.4,0.2,0.7,0.2,0.7c0.7,1.5,1.7,2.5,2.6,3
					c0.9,0.5,1.8,0.6,2.2,0.1c0.5-0.4,0.6-1.2,0.4-2.1c-0.1-0.9-0.5-1.9-1-3c0,0-0.1-0.2-0.2-0.5c-0.2-0.3-0.3-0.7-0.5-1.3
					c-0.4-1.1-0.7-2.6-0.6-4.2c0-1.6,0.4-3.2,0.6-4.5C179.6,52.3,179.8,51.4,179.4,51.2z"/>
			</g>
		</g>
	</g>
	<g>
		<g>
			<g>
				<path fill="#007873" stroke="#007873" stroke-width="0.2615" stroke-miterlimit="10" d="M251.1,28.7c-0.4-0.2-1.2,0.5-2.1,1.5
					c-0.5,0.5-1.1,1.1-1.7,1.7c-0.6,0.6-1.3,1.2-1.9,1.8c-0.7,0.6-1.4,1.2-2,1.7c-0.7,0.5-1.3,1-1.8,1.4c-1.1,0.7-1.8,1.2-1.8,1.2
					c-0.5,0.4-1.1,0.7-1.5,1.2c-0.2,0.2-0.4,0.4-0.6,0.6c-0.2,0.2-0.4,0.4-0.5,0.6c-0.6,0.8-0.9,1.6-0.6,2.2c0.3,0.6,1,0.9,2.1,0.8
					c0.3,0,0.6-0.1,0.9-0.1c0.3-0.1,0.6-0.2,0.9-0.3c0.6-0.3,1.3-0.6,1.9-1c0,0,0.8-0.6,2-1.6c0.5-0.5,1.2-1.2,1.9-1.8
					c0.6-0.7,1.3-1.5,1.9-2.3c0.6-0.8,1.1-1.7,1.6-2.5c0.4-0.8,0.8-1.6,1.1-2.3C251.4,29.9,251.5,28.9,251.1,28.7z"/>
			</g>
		</g>
	</g>
	<g>
		<g>
			<g>
				<path fill="#007873" stroke="#007873" stroke-width="0.2615" stroke-miterlimit="10" d="M255.1,67.7c-0.4-0.3-1.2,0.2-2.3,1
					c-0.6,0.4-1.2,0.8-1.8,1.3c-0.7,0.4-1.4,0.9-2.1,1.4c-0.8,0.4-1.5,0.8-2.2,1.2c-0.7,0.3-1.4,0.7-1.9,0.9
					c-1.2,0.4-1.9,0.7-1.9,0.7c-2.3,0.9-4.1,2.2-3.9,3.5c0.2,1.3,2.8,1.9,5.6,0.8c0,0,0.9-0.4,2.2-1.1c0.6-0.4,1.4-0.8,2.1-1.3
					c0.8-0.5,1.5-1.2,2.3-1.8c0.7-0.7,1.4-1.4,2-2.1c0.6-0.7,1-1.4,1.4-2C255.2,68.9,255.5,68,255.1,67.7z"/>
			</g>
		</g>
	</g>
	<g>
		<g>
			<g>
				<path fill="#007873" stroke="#007873" stroke-width="0.2615" stroke-miterlimit="10" d="M220.8,53.1c-0.8-0.5-2.4,1.2-3.8,2.8
					c-0.8,0.9-1.4,1.7-1.9,2.2c-0.5,0.6-0.8,1-0.8,1c-1,1.2-0.9,2.9,0,3.8c1,0.9,2.7,0.4,3.8-1c0,0,0.3-0.5,0.7-1.2
					c0.4-0.7,1-1.8,1.4-2.8C221.1,55.8,221.6,53.5,220.8,53.1z"/>
			</g>
		</g>
	</g>
	<path fill="#D0E9F4" d="M222.3,113.8l-19.9,51c-7.5,3.9-13.9,5.4-19.4,5.1c0-0.9,0.2-1.8,0.6-2.7l21.2-54.3
		C211,113,216.9,113.4,222.3,113.8z"/>
	<path fill="#D0E9F4" d="M230.3,114.6l-17.2,44.1c-2.1,1.1-4.2,2.2-5.9,3.4c-0.6,0.4-1.2,0.7-1.8,1.1l19.2-49.2
		C226.6,114.2,228.5,114.4,230.3,114.6z"/>
	<path fill="#94B8CE" stroke="#94B8CE" stroke-width="0.3323" stroke-miterlimit="10" d="M239.8,235.5c-0.9-2-3.3-2.9-5.5-2
		c-2.1,0.9-3.2,3.3-2.3,5.4c0.9,2,3.3,2.9,5.5,2C239.6,239.9,240.7,237.5,239.8,235.5z"/>
	<path fill="#94B8CE" stroke="#94B8CE" stroke-width="0.3323" stroke-miterlimit="10" d="M242.4,255.7c-0.9-2-3.3-2.9-5.5-2
		c-2.1,0.9-3.2,3.3-2.3,5.4c0.9,2,3.3,2.9,5.5,2C242.2,260.1,243.3,257.7,242.4,255.7z"/>
	<path fill="#94B8CE" stroke="#94B8CE" stroke-width="0.3323" stroke-miterlimit="10" d="M246.4,276.4c-0.9-2-3.3-2.9-5.5-2
		c-2.1,0.9-3.2,3.3-2.3,5.4c0.9,2,3.3,2.9,5.5,2C246.3,280.8,247.3,278.4,246.4,276.4z"/>
	<path fill="#94B8CE" stroke="#94B8CE" stroke-width="0.3323" stroke-miterlimit="10" d="M250.1,296.1c-0.9-2-3.3-2.9-5.5-2
		c-2.1,0.9-3.2,3.3-2.3,5.4c0.9,2,3.3,2.9,5.5,2C250,300.5,251,298.1,250.1,296.1z"/>
	
		<ellipse transform="matrix(0.9162 -0.4008 0.4008 0.9162 -67.2948 74.336)" fill="#008039" cx="144.1" cy="198" rx="3.7" ry="3.5"/>
	<path fill="#008039" d="M177.2,204.8c1,2.3-0.1,5.1-2.6,6.2c-2.5,1.1-5.3,0.1-6.3-2.3c-1-2.3,0.1-5.1,2.6-6.2
		C173.4,201.5,176.2,202.5,177.2,204.8z"/>
	
		<ellipse transform="matrix(0.9161 -0.4009 0.4009 0.9161 -55.1767 62.281)" fill="#008039" cx="121.3" cy="163" rx="1.9" ry="1.8"/>
	
		<ellipse transform="matrix(0.9162 -0.4007 0.4007 0.9162 -69.5303 60.4381)" fill="#008039" cx="109.7" cy="196.5" rx="6.8" ry="6.5"/>
	<path fill="#008039" d="M178.7,87c0.9,2.1-0.1,4.6-2.4,5.6c-2.2,1-4.8,0-5.7-2.1c-0.9-2.1,0.1-4.6,2.4-5.6
		C175.3,83.9,177.8,84.9,178.7,87z"/>
	<path fill="#008039" d="M226.7,203.3c1.1,2.5-0.2,5.4-2.8,6.5c-2.6,1.1-5.6,0.1-6.7-2.4c-1.1-2.5,0.2-5.4,2.7-6.5
		C222.6,199.8,225.6,200.9,226.7,203.3z"/>
	
		<ellipse transform="matrix(0.9162 -0.4007 0.4007 0.9162 -8.1984 99.9074)" fill="#008039" cx="234.8" cy="69.6" rx="8.6" ry="8.1"/>
	<path fill="#008039" d="M195,52.6c0.5,1.1-0.1,2.4-1.2,2.9c-1.2,0.5-2.5,0-3-1.1c-0.5-1.1,0.1-2.4,1.2-2.9
		C193.2,51,194.6,51.5,195,52.6z"/>
	<path fill="#008039" d="M231.8,182.2c0.5,1.1-0.1,2.4-1.2,2.9c-1.2,0.5-2.5,0-3-1.1c-0.5-1.1,0.1-2.4,1.2-2.9
		C230,180.6,231.3,181.1,231.8,182.2z"/>
	
		<ellipse transform="matrix(0.9162 -0.4006 0.4006 0.9162 -56.5415 94.7494)" fill="#008039" cx="198.3" cy="182.6" rx="2.3" ry="2.2"/>
	<path fill="#008039" d="M147.7,60.3c1,2.3-0.1,5.1-2.6,6.2c-2.5,1.1-5.3,0.1-6.3-2.3c-1-2.3,0.1-5.1,2.6-6.2
		C143.8,57,146.6,58,147.7,60.3z"/>
	<g opacity="0.4">
		<path fill="#8A8A8A" d="M248.8,200.7c0.1,1.2,0.2,2.5,0.3,3.7c1.9,25.2,6.8,58.9,10.9,77.4c6.3,28.6,1.5,56.9-17.4,75.5
			c-2.7,2.7-9.2,8.8-20.3,13.5c-4.3-1.2-5.3-7.7-1.9-15.4c14.8-18.4,18.2-44.1,12.5-70c-3.1-13.9-6.6-36.5-9-57.5
			c0.1-1.5-0.7-6.7-0.7-6.7l4.4,2.8c3.6-4.4,5.1-9,6.7-16.4C234.3,207.5,246.4,201.9,248.8,200.7z"/>
	</g>
</g>
<g>
	<path fill="#00AB9E" d="M9.4,223.4c0,0,3.8-12.1,18.5-8.4s36.3-15.8,65.3,24l-10.5,10.3l-0.5,5.8l-5,22c0,0,11.5,2.6,13.4,20.8
		c1.9,18.2,11.4,21.5-16.4,34.2c0,0-0.3,20.8-11.5,21.3s-14.8-0.8-15.5-3.8s-14.3,2.5-18-4.3s-8.3,1.3-13.5-6.8s-14.5-0.8-12.8-26.3
		s14-39.3,14-39.3L9.4,223.4z"/>
	<path fill-rule="evenodd" clip-rule="evenodd" fill="#008276" d="M79.9,329.2c0.4-2.8-5.7-23-5.7-23c1.1,10.1,0,25.8,0,25.8
		C76.3,331,78.2,330.1,79.9,329.2z"/>
</g>
<g>
	<path fill-rule="evenodd" clip-rule="evenodd" fill="#00AB9E" d="M313.2,226.5c0,0,14.2,18.8,37.2,22.8c23,4,24.3,21,24.3,21
		s4.5,29.8-20.3,41.5s-11.8-7-62.8-3.5c0,0-20.3-3.3-20.3-30.2C271.4,257.4,271.7,230,313.2,226.5z"/>
	<path fill-rule="evenodd" clip-rule="evenodd" fill="#008276" d="M374.7,270.3c0,0-0.2-2.1-1.4-5c-0.7-0.3-1.5-0.6-2.3-1
		c-2.7-1-5.9-1.6-9.6-1.9c-2.7-6.3-11.3-17.6-36-10.6c0,0-16.3-1.7-19-4.6c-2.3-2.5-17.6,11.4-0.7,25.9c-2.4,6.4,5.8,15,5.8,15
		c-6.9,4.9-4.3,14.2-1.7,20c29.7,1.5,23.3,13.8,44.4,3.8C379.2,300,374.7,270.3,374.7,270.3z"/>
	<path fill-rule="evenodd" clip-rule="evenodd" fill="#00AB9E" d="M369.7,265.3c0,0-5.8-21.5-39.5-10.8c0,0-17-0.5-20-3
		c-3-2.5-22.4,16.3,12.6,29.3L369.7,265.3z"/>
	<g>
		<path fill-rule="evenodd" clip-rule="evenodd" fill="#D0394A" d="M352.7,25c1.4,1,2.8,2.2,4.3,3.1c5.7,3.8,7.3,11.3,3.8,17.6
			c-3.1,5.5-10.4,7.9-15.9,5.3c-6.5-3.1-10.1-10.4-6.8-16.5c2.1-3.8,6.3-6.4,9.6-9.6C349.3,25,351,25,352.7,25z"/>
		<path fill-rule="evenodd" clip-rule="evenodd" fill="#D0394A" d="M345.7,361c0-14.1-3.2-113.9-3.2-128.8c2.6,1,9.7,0,12.2,1
			c0,13.4,2.3,114.8,2.3,128.2C355.2,366,349,367.5,345.7,361z"/>
		<path fill-rule="evenodd" clip-rule="evenodd" fill="#D0394A" d="M471.7,62c-10.5,4.9-20.8,1.7-30.9-1.4c-0.8-0.2-1.1-1.8-1.7-2.8
			c0.9-0.4,1.8-1.3,2.7-1.3c8.1,0.5,16.2,0.9,24.3,1.7c1.9,0.2,3.7,1.8,5.6,2.7C471.7,61.3,471.7,61.7,471.7,62z"/>
		<path fill-rule="evenodd" clip-rule="evenodd" fill="#D0394A" d="M359.7,163.1c1.7-2.2,3.1-3.9,4.2-5.7c4.2-7.3,1.3-12.2-6.9-13.7
			c-13.4-2.5-26.6-5.4-39.9-8.6c-7.3-1.7-11.8-7.3-15.4-13.4c-3-5.2-2-10.3,1.4-15c6.7-9.2,25.2-10.8,33.1-2.5
			c1.8,1.9,3.4,5.8,2.5,7.7c-0.8,2-4.7,3.8-7.2,3.7c-3.4-0.1-6.7-2.1-10-3.1c-2.4-0.7-5.1-1.9-7.4-1.5c-1.2,0.2-3,3.5-2.6,5
			c0.5,2.3,2.2,5.5,4.1,6c9.1,2.5,18.3,4.5,27.6,6.2c8.7,1.6,18.4-0.6,26,5.2c4.5,3.4,9,7.5,11.9,12.2c4.6,7.8,1.4,17.2-6.5,22
			c-1.1,0.7-2.9,1.2-4,0.8C366.9,166.9,363.4,164.9,359.7,163.1z"/>
		<path fill-rule="evenodd" clip-rule="evenodd" fill="#D0394A" d="M358.9,198.4c5.6-8.2,3.8-13.6-4.9-17.1
			c-9.1-3.7-18.4-7-27.1-11.4c-10.3-5.2-13.4-13.8-9.7-23.2c1.2-3.1,2.8-4.6,6.4-3.5c3.6,1.1,7.4,1.7,11,2.5
			c0.3,0.5,0.6,0.9,0.5,1.1c-3.3,11.2-0.2,13.6,10.2,18.6c3.6,1.7,7.5,2.7,11.3,3.9c7,2.2,12.9,5.7,17.5,11.6
			c3.6,4.6,3.9,9.3,2,14.5c-2.2,6-5.5,7.5-11.3,5.3C362.9,199.9,361.1,199.2,358.9,198.4z"/>
		<path fill-rule="evenodd" clip-rule="evenodd" fill="#D0394A" d="M341.1,182.4c-8.1,10.5-4.5,12.5,5.4,17.2
			c5.3,2.5,11.4,3.7,16.5,6.7c7.8,4.7,9.8,12.7,5.8,19.1c-0.8,1.3-3.4,3-3.9,2.6c-2.5-1.5-6.7-4.2-6.4-5.7c1.3-6.4-2.7-7.9-6.9-9.6
			c-6.8-2.6-13.8-4.7-20.4-7.8c-9.6-4.5-11.1-18.7-3.1-25.5c0.8-0.7,2.5-1,3.5-0.7C334.6,179.8,337.8,181.2,341.1,182.4z"/>
		<path fill-rule="evenodd" clip-rule="evenodd" fill="#D0394A" d="M381.5,136c-4.3-3.4-8-6.4-12.3-9.7c3-1,5.7-1.8,8.4-2.8
			c2.6-1.1,5.3-2.1,7.5-3.7c3.2-2.3,4-6.9,2-9.2c-1.8-2.2-6.9-2.2-9.5,0.6c-3.9,4.4-8.9,4.1-13.8,3.7c-3.5-0.3-6-4.4-4.1-7.3
			c2-3.1,4.8-6.7,8-7.6c7.7-2.2,15.6-2.5,23.3,1.3c10,4.9,12,19.2,3.2,26.2C390.3,130.4,385.9,133,381.5,136z"/>
		<path fill-rule="evenodd" clip-rule="evenodd" fill="#D0394A" d="M331.6,211.5c3.7,1.4,6.9,2.6,10.4,3.9c-1.7,5.8,1.3,7.9,6.2,9.8
			c5,1.9,9.9,4.8,14,8.2c2,1.6,3.6,5.5,3.2,8c-0.7,4.4-3.9,7.5-8.5,8.4c-0.4-0.5-0.8-0.8-0.8-1c2.2-11.4-0.2-10.8-8.6-12.3
			C335.2,234.4,329.1,224.6,331.6,211.5z"/>
		<path fill-rule="evenodd" clip-rule="evenodd" fill="#D0394A" d="M347.1,60.4c2,0,3.8,0,6,0c0.1,1.5,0.3,2.9,0.3,4.3
			c0,17.9-0.1,35.9,0.1,53.8c0.1,4.7-1.7,6-6.4,4.7C347.1,102.6,347.1,81.6,347.1,60.4z"/>
		<path fill-rule="evenodd" clip-rule="evenodd" fill="#D0394A" d="M400,40.5c-9.8,6.8-19.7,13.7-29.6,20.6
			C370.1,36.1,380.2,30.9,400,40.5z"/>
		<path fill-rule="evenodd" clip-rule="evenodd" fill="#D0394A" d="M298.4,40.3c7.1-2.5,13.8-6.8,21.3-2.8c9.5,5.1,7.2,15,8.6,23.9
			C318.2,54.2,308.6,47.4,298.4,40.3z"/>
		<path fill-rule="evenodd" clip-rule="evenodd" fill="#D0394A" d="M333,237.3c4.3,1.9,9.4,1.2,10,7.5c0.1,1.3,2.2,2.8,3.8,3.6
			c4.1,2.1,8.6,3.5,12.6,5.7c3.2,1.8,6,4.3,8.5,7.1c-8.9-0.1-16.5-3.6-24.1-7.2c-5.7-2.7-10.2-6.3-10.8-13.1
			C332.9,240,333,239,333,237.3z"/>
		<path fill-rule="evenodd" clip-rule="evenodd" fill="#D0394A" d="M433,53.7c-5,4.9-19.8,2.2-30.2-5c3.5-3,7.1-4.2,11.7-2.1
			C420.3,49.1,426.4,51.2,433,53.7z"/>
		<path fill-rule="evenodd" clip-rule="evenodd" fill="#D0394A" d="M296.4,48.3c-12.2,7.7-25.7,10.2-31.1,5.4
			c8-2.9,15.4-6.1,23.1-8.3C290.4,44.9,293.2,47.1,296.4,48.3z"/>
		<path fill-rule="evenodd" clip-rule="evenodd" fill="#D0394A" d="M239.5,58.7c5.3-0.6,10.5-1.3,15.8-1.8c1.3-0.1,2.7,0.7,4.1,1
			c-0.9,1-1.7,2.8-2.8,3c-8,1.2-15.9,2.3-24,3c-1.5,0.1-3.1-2.1-4.6-3.2c1.8-0.8,3.5-1.9,5.4-2.3c1.9-0.4,4-0.1,6-0.1
			C239.5,58.4,239.5,58.5,239.5,58.7z"/>
		<path fill-rule="evenodd" clip-rule="evenodd" fill="#D0394A" d="M278.1,61.1c8.5-3.2,16.7-6.3,24.9-9.4
			C299,60.4,283.3,65.8,278.1,61.1z"/>
		<path fill-rule="evenodd" clip-rule="evenodd" fill="#D0394A" d="M421.3,61c-6.7,4.5-19.4,0.2-26.2-8.2
			C404,53.8,411.7,58.8,421.3,61z"/>
		<path fill-rule="evenodd" clip-rule="evenodd" fill="#D0394A" d="M453,71.7c-7.1,5.3-19.7,2.9-26.6-4.2c3.2-3,5.7,0.3,8.3,0.9
			c2.9,0.6,5.7,1.5,8.7,2C446.3,70.9,449.2,71.2,453,71.7z"/>
		<path fill-rule="evenodd" clip-rule="evenodd" fill="#D0394A" d="M245.6,72.2c9.2-2,17.7-3.9,26.2-5.8
			C265.5,74.5,253.2,76.9,245.6,72.2z"/>
		<path fill-rule="evenodd" clip-rule="evenodd" fill="#D0394A" d="M411.4,71.7c7.4,2.8,14.9,5.5,22.6,8.4c-5.2,3-16.9-0.7-23-7
			C411.1,72.7,411.3,72.2,411.4,71.7z"/>
		<path fill-rule="evenodd" clip-rule="evenodd" fill="#D0394A" d="M264.1,80.3c7.9-3,15.3-5.8,22.8-8.6
			C282.4,79,270.2,83.1,264.1,80.3z"/>
		<path fill-rule="evenodd" clip-rule="evenodd" fill="#D0394A" d="M299.6,77.6c-4.1,8.5-11.1,11.9-20.5,10.8
			C286.3,84.6,293,81.1,299.6,77.6z"/>
		<path fill-rule="evenodd" clip-rule="evenodd" fill="#D0394A" d="M352.5,160.6c-7.1-1.5-7.3-2.1-6-13c3.8-0.8,6.4-0.3,6.1,4.6
			C352.3,154.8,352.5,157.5,352.5,160.6z"/>
		<path fill-rule="evenodd" clip-rule="evenodd" fill="#D0394A" d="M418.9,88.1C410,88.9,403,86,398.7,77.6
			C405.4,81.1,412.1,84.6,418.9,88.1z"/>
		<path fill-rule="evenodd" clip-rule="evenodd" fill="#D0394A" d="M295,93.1c5.9-3.9,11.3-7.5,16.9-11.3
			C311.9,89.7,303.6,95.3,295,93.1z"/>
		<path fill-rule="evenodd" clip-rule="evenodd" fill="#D0394A" d="M403,93.4c-7.4,1.2-14.7-2.7-16.7-8.9c-0.2-0.7-0.2-1.6,0.2-2.2
			c0.2-0.3,1.4-0.6,1.7-0.3C393.1,85.6,397.9,89.4,403,93.4z"/>
		<path fill-rule="evenodd" clip-rule="evenodd" fill="#D0394A" d="M310,56.7c-3.7,7.6-12.5,12-19,10.2
			C297.1,63.7,303.1,60.4,310,56.7z"/>
		<path fill-rule="evenodd" clip-rule="evenodd" fill="#D0394A" d="M407.5,66.9c-6.7,1.7-15.2-2.5-18.7-9.8
			C395.5,60.6,401.5,63.7,407.5,66.9z"/>
		<path fill-rule="evenodd" clip-rule="evenodd" fill="#D0394A" d="M346.7,185.5c6.3,0.7,6.5,1,5.4,9.5
			C345.9,193.5,345.2,192.3,346.7,185.5z"/>
		<path fill-rule="evenodd" clip-rule="evenodd" fill="#D0394A" d="M342.5,258.6c-4.5,1.5-7.9,2.6-12.4,4
			C334.7,255.5,336.9,254.7,342.5,258.6z"/>
		<path fill-rule="evenodd" clip-rule="evenodd" fill="#D0394A" d="M384.4,75.1c-6,0.6-8.8-1.8-9.1-8.1
			C378.4,69.8,381.1,72.2,384.4,75.1z"/>
		<path fill-rule="evenodd" clip-rule="evenodd" fill="#D0394A" d="M316.2,62.1c-3.4,7.6-5.1,8.9-11.6,9.4
			C308.6,68.3,311.8,65.7,316.2,62.1z"/>
		<path fill-rule="evenodd" clip-rule="evenodd" fill="#D0394A" d="M323.4,66.9c-1,6.7-3.4,8.7-9.3,8.3
			C317.2,72.4,319.9,70,323.4,66.9z"/>
		<path fill-rule="evenodd" clip-rule="evenodd" fill="#D0394A" d="M394,71.4c-6.9,0.6-8.7-4-10.8-8.3
			C386.5,65.6,389.7,68.1,394,71.4z"/>
		<path fill-rule="evenodd" clip-rule="evenodd" fill="#D0394A" d="M371.1,80.3c-1.9-1.6-3.8-3.2-5.7-4.8c4.9-2.5,5.7,0.8,7,3.3
			C372,79.3,371.5,79.8,371.1,80.3z"/>
		<path fill-rule="evenodd" clip-rule="evenodd" fill="#D0394A" d="M333,75.7c-2,1.5-4,3-6,4.6c-0.3-0.5-0.7-0.9-1-1.4
			c1.8-1.8,1.9-6,5.7-4.9C332.2,74.5,332.6,75.1,333,75.7z"/>
	</g>
	<path fill-rule="evenodd" clip-rule="evenodd" fill="#008276" d="M322.7,280.8l46.9-15.5c0,0-56.5-10.3-61.4,7.7
		C311.5,275.6,316.1,278.3,322.7,280.8z"/>
	<path fill-rule="evenodd" clip-rule="evenodd" fill="#00AB9E" d="M318.9,267.8c0,0,41.4-10,58.3-3.5s8.8,14.1,7.4,24.6
		c-1,7.4,22.7,11.6-0.8,26.8c0,0,12.1,19.8-8.9,22.6c0,0,7.3,13.3-18.1,12c-25.4-1.3-38.9-3.3-33.7-13.3c0,0-11.8-12.3-4.3-24
		c0,0-11.5-17.5-1-25C317.9,288,303.2,272.5,318.9,267.8z"/>
</g>
</svg>
