<?xml version="1.0" encoding="utf-8"?>
<!-- Generator: Adobe Illustrator 17.1.0, SVG Export Plug-In . SVG Version: 6.00 Build 0)  -->
<!DOCTYPE svg PUBLIC "-//W3C//DTD SVG 1.1//EN" "http://www.w3.org/Graphics/SVG/1.1/DTD/svg11.dtd">
<svg version="1.1" xmlns="http://www.w3.org/2000/svg" xmlns:xlink="http://www.w3.org/1999/xlink" x="0px" y="0px"
	 viewBox="0 0 554.1 439.6" enable-background="new 0 0 554.1 439.6" xml:space="preserve">
<g id="Layer_2">
	<circle fill="#F4FF3B" cx="238.3" cy="219.8" r="219.8"/>
</g>
<g id="Layer_1">
	<g>
		<g>
			<g>
				<g>
					<path fill="#007873" stroke="#007873" stroke-width="0.5005" stroke-miterlimit="10" d="M307.4,18.8c-0.7,0.5-0.7,1.8-0.2,3.5
						c0.3,0.8,0.7,1.7,1.2,2.7c0.5,0.9,1.1,1.9,1.8,2.9c0.7,0.9,1.4,1.8,2.1,2.6c0.7,0.8,1.4,1.5,2,2.1c1.3,1.2,2.1,1.9,2.1,1.9
						c0.7,0.5,1.5,0.9,2.2,1.1c0.7,0.2,1.5,0.3,2.2,0.2c1.4-0.1,2.5-0.8,3.1-1.9c0.6-1.1,0.6-2.4,0.2-3.6c-0.2-0.6-0.5-1.2-0.9-1.7
						c-0.4-0.5-0.9-1-1.5-1.4c0,0-0.8-0.5-2-1.3c-0.6-0.4-1.3-0.9-2-1.4c-0.7-0.5-1.5-1.1-2.3-1.7c-0.8-0.6-1.6-1.2-2.4-1.7
						c-0.8-0.6-1.5-1.1-2.2-1.5C309.3,18.8,308.1,18.4,307.4,18.8z"/>
				</g>
			</g>
		</g>
		<g>
			<g>
				<g>
					<path fill="#007873" stroke="#007873" stroke-width="0.5005" stroke-miterlimit="10" d="M282,48.8c-0.8,0.4-0.9,1.7-0.6,3.7
						c0.2,0.9,0.6,2,1,3.1c0.5,1.1,1,2.2,1.6,3.4c0.7,1.1,1.3,2.2,2.1,3.2c0.7,1,1.4,1.8,2.1,2.6c1.3,1.4,2.3,2.3,2.3,2.3
						c0.8,0.6,1.6,1.1,2.4,1.4c0.8,0.3,1.6,0.5,2.4,0.5c1.5,0,2.7-0.6,3.3-1.6c0.6-1.1,0.6-2.4,0.2-3.7c-0.2-0.6-0.6-1.2-1-1.9
						c-0.4-0.6-0.9-1.1-1.5-1.6c0,0-0.8-0.7-2.1-1.6c-0.6-0.5-1.3-1.1-2.1-1.8c-0.8-0.7-1.5-1.4-2.3-2.2c-0.8-0.8-1.6-1.6-2.3-2.3
						c-0.7-0.8-1.4-1.5-2.1-2C284,49.1,282.8,48.4,282,48.8z"/>
				</g>
			</g>
		</g>
		<g>
			<g>
				<g>
					<path fill="#007873" stroke="#007873" stroke-width="0.5005" stroke-miterlimit="10" d="M275.4,65.4c-0.7,0.6-0.5,1.8,0.1,3.4
						c0.3,0.8,0.7,1.7,1.2,2.6c0.5,0.9,1.2,1.8,1.8,2.7c0.6,0.9,1.3,1.8,2,2.6c0.7,0.8,1.4,1.5,1.9,2.1c1.2,1.2,1.9,2,1.9,2
						c1.3,1.1,2.9,1.5,4.2,1.5c1.3,0,2.5-0.6,3.2-1.6c0.7-1,0.8-2.3,0.5-3.6c-0.3-1.3-1.1-2.4-2.2-3.3c0,0-0.8-0.6-2-1.5
						c-0.6-0.4-1.3-0.9-2.1-1.4c-0.7-0.6-1.5-1.2-2.4-1.8c-0.8-0.6-1.7-1.1-2.5-1.7c-0.8-0.6-1.6-1.1-2.3-1.4
						C277.3,65.2,276.1,64.9,275.4,65.4z"/>
				</g>
			</g>
		</g>
		<g>
			<g>
				<g>
					<path fill="#007873" stroke="#007873" stroke-width="0.5005" stroke-miterlimit="10" d="M383.6,10c-0.8,0.4-1,1.6-0.9,2.9
						c0,0.7,0,1.4,0.1,2.2c0.1,0.8,0,1.6,0.1,2.3c0,0.8,0,1.5,0,2.2c-0.1,0.7-0.1,1.3-0.2,1.8c-0.1,0.5-0.2,0.9-0.2,1.2
						c0,0.3-0.1,0.5-0.1,0.5c0,0.5,0,1,0.1,1.5c0.1,0.2,0.2,0.5,0.3,0.7c0.1,0.2,0.2,0.5,0.3,0.7c0.6,0.9,1.5,1.8,2.6,2.2
						c1.2,0.4,2.4,0.3,3.5-0.5c0.3-0.2,0.5-0.4,0.8-0.7c0.2-0.3,0.4-0.6,0.6-0.9c0.3-0.7,0.7-1.4,0.7-2.2c0,0,0-0.3,0-0.8
						c0-0.5,0-1.2-0.1-2c-0.1-0.8-0.3-1.7-0.5-2.7c-0.3-0.9-0.6-2-1-2.9c-0.5-0.9-0.9-1.9-1.5-2.6c-0.6-0.8-1.1-1.5-1.7-2
						C385.4,10,384.3,9.6,383.6,10z"/>
				</g>
			</g>
		</g>
		<g>
			<g>
				<g>
					<path fill="#007873" stroke="#007873" stroke-width="0.5005" stroke-miterlimit="10" d="M429.8,40.5c-0.9-0.1-1.7,0.6-2.4,1.5
						c-0.8,0.9-1.6,2.1-2.4,3.1c-0.8,1-1.6,1.8-2.2,2.3c-0.6,0.5-1,0.7-1,0.7c-0.5,0.4-0.6,1.1-0.8,2c-0.1,0.9-0.3,2.1-0.1,3.3
						c0.1,0.6,0.3,1.2,0.7,1.6c0.4,0.5,0.9,0.8,1.6,1c0.7,0.2,1.4,0.2,2.2,0c0.7-0.2,1.5-0.6,2.2-1.1c0,0,0.2-0.2,0.5-0.5
						c0.3-0.4,0.8-0.9,1.2-1.5c0.9-1.3,1.8-3.1,2.2-5c0.4-1.8,0.5-3.7,0.2-5.1C431.3,41.5,430.7,40.6,429.8,40.5z"/>
				</g>
			</g>
		</g>
		<path fill="#00BA8C" d="M292.1,64.9c-3.2,11-3.4,23.1,0.2,35.1c7.3,24.5,21.9,72.3,25.1,97.6c0.5,4,0.9,8.7,1.3,13.8
			c0.1,1.2,0.2,2.5,0.2,3.7c1.4,25.2,0.8,59.3-0.9,78.2c-2.6,29.2,5.8,56.7,26.9,72.6c3,2.3,6.3,4.4,9.9,6.1
			c3.7,1.9,7.7,3.4,11.9,4.7c11.2,3.3,22.4,3.6,33.1,1.5c7-1.4,13.7-3.8,20-7c15.9-8.2,29.3-21.9,37.2-38.4
			c9.5-19.7,20.1-62.7,19-118.8c0-1.2,0-2.5-0.1-3.7c-0.3-10.5-1-21.4-2.2-32.7c-3.8-35.5-13.6-79.8-34.9-107.4
			c-24.5-31.8-49.4-46-72.3-50.1c-8.7-1.5-17.2-1.6-25.2-0.6C316.8,25.1,298.5,43,292.1,64.9z"/>
		<path fill="#00DD68" d="M319.6,100c7.3,24.5,21.9,72.3,25.1,97.6c0.2,1.4,0.3,3,0.5,4.5c0.3,2.9,0.5,6,0.8,9.2
			c0.1,1.2,0.2,2.5,0.2,3.7c0.3,6.2,0.6,13,0.7,20c0.6,0.4,1.3,0.9,2,1.3c0,0,1.8,4.3,4.4,11.2c9.1,23.6,28.2,77.8,20.5,98.9
			c-2.2,6-4.6,10.8-7.1,14.6c1.8,1.7,3.6,3.3,5.6,4.8c3,2.3,6.3,4.4,9.9,6.1c3.7,1.9,7.6,3.4,11.9,4.7c1.9,0.6,3.8,1,5.8,1.4
			c7-1.4,13.7-3.7,20-7c15.9-8.2,29.2-21.9,37.2-38.4c6.6-13.7,13.8-38.7,17.1-71.5c1.4-13.4,2.1-28.1,2-43.9c0-1.1,0-2.3-0.1-3.4
			c0-1.2-0.1-2.5-0.1-3.7c-0.3-10.5-1-21.4-2.2-32.7c-3.8-35.5-13.6-79.7-34.8-107.4c-24.5-31.8-49.4-46-72.3-50
			c-23.6,6.3-41,23.9-47.2,45.1C316.2,76,316,88,319.6,100z"/>
		<g>
			<path fill="#67A7D5" d="M289.7,120.1c0,0-1.1,14.7,3.1,28.3c6.9,22.2,19.6,44.3,39.5,33.5c3.7-2,6.5-7.1,9.6-8.5
				c2.7,0.2,10,4.6,15.8,7.7c33.1,15.4,51-7.3,68.2-30.1l0.2-0.7c13.1-1.2,35.3-3.9,42.7-6c0,0-1.5-12.2-5.3-25.4
				c-4.1-14.3-9.8-25.7-9.8-25.7C394.4,98,344.7,93.9,289.7,120.1z"/>
		</g>
		<g>
			<path fill="#4A87A5" d="M289.9,123.5c0,0-1.3,11.3,2.9,24.9c6.9,22.2,17.7,42.6,37.6,31.8c3.7-2,6.5-7.1,9.6-8.5
				c2.7,0.3,11.8,6.3,17.7,9.4c33.1,15.4,48.4-8.7,65.6-31.5l-16.2-50.2C347.8,104.2,341.5,102.9,289.9,123.5z"/>
		</g>
		<g>
			<path fill="#95D2F8" d="M301.1,131.5c-0.1,17.5,10.3,44.9,27.2,36.7c3.1-1.5,7.9-4.7,10.6-5.8c1.5,0.2,5.7,1.2,9.8,2.7
				c2.2,0.8,4.5,1.7,6.3,2.6c0.7,0.3,1.3,0.6,1.9,0.8c1.1,0.5,2.2,0.9,3.2,1.3c7.9,2.9,14.5,3.6,19.9,2.5c12-2.3,18.2-13,20.5-27.5
				c1.8-11.5-7.8-29-7.8-29c-15.2-0.2-29.3,0.9-41.5,2.7c-6.3,0.9-12.1,2-17.3,3.2c-0.8,0.2-1.5,0.3-2.3,0.5
				c-1.9,0.4-3.8,0.9-5.6,1.3C310.3,127.6,301.1,131.5,301.1,131.5z"/>
		</g>
		<g>
			<path fill="#FFFFFF" d="M318.6,211.3c0.1,1.2,0.2,2.5,0.2,3.7c1.4,25.2,0.8,59.3-0.9,78.2c-2.6,29.2,5.8,56.7,26.9,72.6
				c3,2.3,6.3,4.4,9.9,6.1c6.9-2.9,13.5-10.7,18.9-25.5c9.9-27.2-24.9-110.1-24.9-110.1c-8.7-5.6-11.3-10.1-14.9-20.2
				C333.9,216.2,321.2,212.2,318.6,211.3z"/>
		</g>
		<g>
			<g>
				<path fill="#93B7CD" d="M332.5,215.2c-9.9,4.5-12.8,16.3-13.8,26.2c-0.2,1.9,2.8,1.9,3,0c0.9-8.9,3.5-19.6,12.3-23.6
					C335.8,217,334.2,214.4,332.5,215.2L332.5,215.2z"/>
			</g>
		</g>
		<g>
			<path fill="#FFFFFF" d="M329.1,240c3.8,35.8-11.8,89.2,12.7,122c1,1.3,2,2.6,3,3.8c6.2,4.7,3.8-139-1.5-134.8
				C339.2,234.4,334.5,237.4,329.1,240z"/>
			<g>
				<path fill="#94B8CE" d="M327.6,240c2.3,23.3-1.7,46.9-1.4,70.2c0.2,11.5,1.4,23,4.9,34c1.6,4.9,3.7,9.6,6.3,14
					c1.3,2.2,4.5,8.5,7.3,9.1c4.6,1,4.3-13.7,4.5-15.9c0.9-13.7,0.9-27.6,0.8-41.3c-0.1-20.4-0.5-40.9-2-61.3
					c-0.4-5.4-0.6-11.1-2-16.4c-0.3-1.1-0.7-2.5-1.9-3c-0.7-0.2-1.3,0-1.8,0.4c-4.4,3.4-9.1,6.3-14,8.8c-1.7,0.9-0.2,3.5,1.5,2.6
					c3.1-1.6,6.1-3.3,9-5.1c1.4-0.9,2.7-1.9,4-2.9c1.5-1.1,0.9-0.3,0-1.2c0,0,0.5,1.6,0.6,2.3c0.9,4.1,1.1,8.3,1.5,12.4
					c1.1,14,1.5,28,1.8,42.1c0.3,15.5,0.4,30.9,0.1,46.4c-0.2,9.2,0.4,19.6-2.1,28.5c-0.1,0.4-0.2,0.6-0.3,0.9
					c0.2-0.4,1-0.4,1.3-0.2c-1.3-0.6-2.5-3.2-3.4-4.4c-3.4-4.7-5.9-10-7.9-15.4c-4.1-11.5-5.1-23.9-5.3-36
					c-0.3-22.9,3.7-45.9,1.4-68.8C330.4,238.1,327.4,238.1,327.6,240z"/>
			</g>
		</g>
		<g>
			<path fill="#FFFFFF" d="M329.1,240c3.8,35.8-11.8,89.2,12.7,122c1,1.3,2,2.6,3,3.8c6.2,4.7,13.4,8.4,21.8,10.8
				c18.5,5.4,37.1,2.7,53.1-5.5c15.9-8.2,29.3-21.9,37.2-38.4c9.5-19.7,20.1-62.7,19-118.8c-54.3,6-119.3,3.4-119.3,3.4
				C350.3,226.1,341.2,234.1,329.1,240z"/>
		</g>
		<g>
			<g>
				<path fill="#93B7CD" d="M475.3,213.8c-26.9,15.1-54.1,30.1-83.9,38.7c0.6,0.2,1.1,0.5,1.7,0.7c-9.3-14.3-21.8-27-35.7-36.8
					c-1.6-1.1-3.1,1.5-1.5,2.6c13.4,9.4,25.7,21.9,34.6,35.7c0.4,0.6,1,0.9,1.7,0.7c30-8.7,57.5-23.8,84.6-39
					C478.5,215.5,477,212.9,475.3,213.8L475.3,213.8z"/>
			</g>
		</g>
		<g>
			<g>
				<g>
					<path fill="#007873" stroke="#007873" stroke-width="0.5005" stroke-miterlimit="10" d="M440.7,43.8c-0.9-0.2-1.9,0.9-2.9,2.5
						c-0.6,0.8-1.2,1.8-1.8,2.8c-0.6,1-1.3,2.1-1.9,3.2c-0.7,1.1-1.3,2.1-1.9,3.1c-0.6,1-1.2,1.9-1.7,2.7c-0.5,0.8-0.9,1.4-1.2,1.8
						c-0.3,0.4-0.5,0.7-0.5,0.7c-0.2,0.4-0.4,0.8-0.6,1.2c-0.2,0.4-0.4,0.7-0.5,1.1c-0.3,0.7-0.4,1.5-0.4,2.2
						c-0.1,1.3,0.2,2.7,1.1,3.6c0.9,0.9,2.2,1.1,3.9,0.5c0.8-0.3,1.5-0.8,2.3-1.4c0.4-0.3,0.7-0.7,1.1-1.1c0.3-0.4,0.6-0.8,0.9-1.3
						c0,0,0.2-0.3,0.5-0.9c0.3-0.5,0.7-1.3,1.1-2.3c0.4-1,0.9-2.1,1.4-3.3c0.4-1.2,0.9-2.5,1.3-3.9c0.3-1.3,0.7-2.7,0.9-4
						c0.2-1.3,0.3-2.5,0.4-3.6C441.9,45.5,441.5,44,440.7,43.8z"/>
				</g>
			</g>
		</g>
		<g>
			<g>
				<g>
					<path fill="#007873" stroke="#007873" stroke-width="0.5005" stroke-miterlimit="10" d="M406.8,22c-0.9,0.2-1.4,1.5-1.7,3.3
						c-0.2,0.9-0.4,1.9-0.5,3c-0.1,1.1-0.3,2.2-0.4,3.4c-0.2,1.1-0.3,2.3-0.5,3.3c-0.2,1-0.3,2-0.5,2.8c-0.1,0.8-0.3,1.5-0.4,2
						c-0.1,0.5-0.1,0.7-0.1,0.7c-0.1,0.8-0.1,1.6-0.1,2.3c0.1,0.7,0.3,1.4,0.5,2c0.5,1.2,1.3,2.3,2.5,2.7c1.2,0.4,2.5,0.1,3.6-1
						c0.6-0.5,1.1-1.2,1.5-2c0.4-0.8,0.7-1.7,0.8-2.7c0,0,0-0.3,0.1-0.9c0-0.6,0.1-1.4,0.1-2.4c0-1,0-2.1-0.1-3.3
						c-0.1-1.2-0.2-2.5-0.4-3.7c-0.2-1.3-0.5-2.5-0.8-3.7c-0.3-1.2-0.7-2.2-1.1-3.1C408.6,22.9,407.6,21.8,406.8,22z"/>
				</g>
			</g>
		</g>
		<g>
			<g>
				<g>
					<path fill="#007873" stroke="#007873" stroke-width="0.5005" stroke-miterlimit="10" d="M412.6,62.5c-0.8-0.4-1.7-0.1-2.6,0.4
						c-0.5,0.2-1,0.5-1.4,0.9c-0.5,0.3-1,0.7-1.4,1c-0.5,0.3-0.9,0.7-1.3,1c-0.4,0.3-0.8,0.6-1.1,0.8c-0.6,0.4-1.1,0.7-1.1,0.7
						c-0.3,0.3-0.4,0.5-0.6,0.9c-0.1,0.4-0.1,0.8-0.1,1.3c0.1,0.9,0.3,2.1,0.9,3.2c0.6,1.1,1.5,1.9,2.6,2.1c0.6,0.1,1.1,0.1,1.7,0
						c0.5-0.1,1.1-0.4,1.5-0.8c0,0,0.1-0.1,0.4-0.4c0.2-0.3,0.6-0.6,0.9-1.1c0.3-0.5,0.7-1,1.1-1.6c0.3-0.6,0.7-1.3,1-1.9
						c0.3-0.7,0.5-1.4,0.7-2.1c0.1-0.7,0.2-1.4,0.2-1.9C413.8,63.8,413.4,62.9,412.6,62.5z"/>
				</g>
			</g>
		</g>
		<g>
			<g>
				<g>
					<path fill="#007873" stroke="#007873" stroke-width="0.5005" stroke-miterlimit="10" d="M385.2,34.8c-0.8,0.4-1.1,1.5-1.1,3
						c-0.1,0.8-0.1,1.6,0,2.5c0,0.9,0,1.8,0.1,2.8c0,0.9,0,1.8,0,2.7c0,0.9,0,1.6,0,2.3c0,1.3-0.1,2.2-0.1,2.2
						c0.1,0.7,0.1,1.3,0.4,1.9c0.2,0.6,0.6,1.1,0.9,1.6c0.7,0.9,1.8,1.6,3.1,1.8c1.2,0.1,2.4-0.4,3.3-1.4c0.5-0.5,0.8-1.1,1-1.8
						c0.2-0.7,0.4-1.5,0.3-2.3c0,0-0.1-1.1-0.4-2.7c-0.2-0.8-0.4-1.7-0.6-2.7c-0.3-1-0.6-2-1-3c-0.4-1-0.9-2-1.3-2.9
						c-0.5-0.9-1-1.7-1.6-2.3C387.1,35.1,386,34.5,385.2,34.8z"/>
				</g>
			</g>
		</g>
		<g>
			<g>
				<g>
					<path fill="#007873" stroke="#007873" stroke-width="0.5005" stroke-miterlimit="10" d="M360,7.2c-0.9,0-1.5,1.1-2,2.7
						c-0.2,0.8-0.4,1.7-0.6,2.7c-0.1,1-0.1,2.1-0.1,3.1c0,1.1,0,2.2,0.1,3.2c0.1,1,0.3,1.9,0.4,2.7c0.2,1.6,0.4,2.7,0.4,2.7
						c1,3.1,3.8,4.9,6.1,3.9c2.3-0.9,3.5-3.8,2.6-6.4c0,0-0.3-0.9-0.8-2.2c-0.2-0.7-0.5-1.4-0.9-2.3c-0.3-0.8-0.6-1.7-0.9-2.7
						c-0.3-0.9-0.7-1.8-1-2.7c-0.3-0.9-0.6-1.7-1-2.4C361.6,8.1,360.8,7.1,360,7.2z"/>
				</g>
			</g>
		</g>
		<g>
			<g>
				<g>
					<path fill="#007873" stroke="#007873" stroke-width="0.5005" stroke-miterlimit="10" d="M324.8,12.5c-0.4,0.7,0.1,2,1.1,3.3
						c0.5,0.7,1,1.5,1.6,2.3c0.6,0.8,1.2,1.7,1.8,2.5c0.6,0.9,1.1,1.8,1.6,2.6c0.4,0.9,0.9,1.6,1.2,2.3c0.6,1.4,1,2.3,1,2.3
						c0.4,0.6,0.7,1.3,1.2,1.8c0.2,0.3,0.5,0.5,0.8,0.7c0.2,0.2,0.5,0.4,0.8,0.6c1.1,0.7,2.3,1.1,3.6,0.8c1.2-0.3,2.1-1.3,2.5-2.7
						c0.1-0.4,0.2-0.8,0.2-1.2c0-0.4,0-0.8-0.1-1.3c-0.1-0.9-0.3-1.8-0.8-2.7c0,0-0.2-0.3-0.5-0.8c-0.3-0.5-0.7-1.2-1.3-2
						c-0.6-0.8-1.3-1.7-2.1-2.6c-0.9-0.8-1.8-1.8-2.8-2.6c-1-0.8-2.1-1.5-3.1-2.1c-1.1-0.6-2.1-1-3-1.4
						C326.6,11.8,325.2,11.8,324.8,12.5z"/>
				</g>
			</g>
		</g>
		<g>
			<g>
				<g>
					<path fill="#007873" stroke="#007873" stroke-width="0.5005" stroke-miterlimit="10" d="M340.1,40.8c-1.5,0.9-0.9,4.2,0.1,7.3
						c0.5,1.5,1,3,1.5,4.2c0.4,1.1,0.7,1.8,0.7,1.8c1.1,2.1,3.8,2.9,6,1.8c2.2-1.1,3.1-3.8,1.9-6c0,0-0.4-0.7-1.2-1.7
						c-0.7-1-1.7-2.4-2.8-3.6C344.2,42.1,341.6,39.9,340.1,40.8z"/>
				</g>
			</g>
		</g>
		<g>
			<g>
				<g>
					<path fill="#007873" stroke="#007873" stroke-width="0.5005" stroke-miterlimit="10" d="M368.4,54.1c-0.7,0.6-0.7,1.7-0.5,3
						c0.2,1.3,0.4,2.9,0.4,4.3c0,1.4-0.2,2.6-0.5,3.5c-0.2,0.4-0.2,0.8-0.4,1.1c-0.1,0.3-0.1,0.4-0.1,0.4c-0.3,0.9-0.2,1.9,0.2,2.9
						c0.4,1,1,2.1,2,2.8c1,0.7,2.3,0.8,3.5,0.3c1.2-0.5,2.4-1.8,2.9-3.5c0,0,0.1-0.3,0.2-0.8c0.1-0.5,0.2-1.3,0.2-2.2
						c0.1-1.8-0.2-4.3-1.2-6.4c-0.9-2.1-2.3-3.8-3.6-4.8C370.2,53.8,369,53.6,368.4,54.1z"/>
				</g>
			</g>
		</g>
		<g>
			<g>
				<g>
					<path fill="#007873" stroke="#007873" stroke-width="0.5005" stroke-miterlimit="10" d="M294.4,41c-0.7,0.5-0.8,1.7-0.3,3.3
						c0.3,0.8,0.7,1.6,1.2,2.5c0.5,0.8,1.2,1.7,1.8,2.6c0.7,0.8,1.4,1.6,2.2,2.3c0.8,0.7,1.5,1.3,2.1,1.8c1.3,0.9,2.3,1.5,2.3,1.5
						c0.7,0.4,1.5,0.6,2.2,0.7c0.4,0,0.7,0,1.1,0c0.4,0,0.7-0.1,1-0.2c1.3-0.4,2.2-1.3,2.5-2.5c0.4-1.2,0.2-2.5-0.3-3.5
						c-0.1-0.3-0.3-0.5-0.4-0.7c-0.2-0.2-0.3-0.5-0.5-0.7c-0.4-0.4-0.9-0.8-1.4-1c0,0-0.7-0.3-1.9-0.8c-0.6-0.3-1.2-0.6-1.9-0.9
						c-0.7-0.4-1.4-0.8-2.2-1.2c-0.7-0.4-1.5-0.9-2.2-1.3c-0.7-0.4-1.4-0.8-2.1-1.1C296.2,40.9,295.1,40.5,294.4,41z"/>
				</g>
			</g>
		</g>
		<g>
			<g>
				<g>
					<path fill="#007873" stroke="#007873" stroke-width="0.5005" stroke-miterlimit="10" d="M295.4,80.2c-0.6,0.6-0.5,1.8,0.2,3.2
						c0.4,0.7,0.9,1.4,1.5,2.2c0.7,0.7,1.4,1.4,2.2,2.1c0.8,0.6,1.7,1.3,2.5,1.8c0.9,0.5,1.7,0.9,2.4,1.3c1.5,0.6,2.5,0.9,2.5,0.9
						c1.6,0.3,3.1,0.1,4.2-0.6c1.1-0.7,1.7-1.8,1.8-3c0.1-1.2-0.4-2.4-1.1-3.3c-0.7-0.8-1.6-1.6-2.7-1.8c0,0-0.7-0.2-1.9-0.3
						c-0.6-0.1-1.2-0.3-1.9-0.4c-0.7-0.2-1.4-0.4-2.2-0.6c-0.8-0.3-1.5-0.5-2.3-0.7c-0.7-0.3-1.5-0.5-2.1-0.7
						C297.2,79.7,296,79.6,295.4,80.2z"/>
				</g>
			</g>
		</g>
		<g>
			<g>
				<g>
					<path fill="#007873" stroke="#007873" stroke-width="0.5005" stroke-miterlimit="10" d="M327.5,61.3c-1.4,1-1,3.5,0,5.7
						c0.5,1.1,1.1,2.1,1.6,2.9c0.5,0.8,0.8,1.2,0.8,1.2c1.3,1.3,3.8,0.9,5.4-1c1.6-1.9,2.1-4.2,1.1-5.2c0,0-0.4-0.3-1-0.8
						c-0.6-0.5-1.5-1.1-2.4-1.7C331.1,61.4,329,60.3,327.5,61.3z"/>
				</g>
			</g>
		</g>
		<path fill="#D0E9F4" d="M333.9,121.8l26.3,48.1c7.9,2.9,14.5,3.6,19.9,2.5c-0.1-0.9-0.4-1.8-0.9-2.6l-28-51.1
			C344.9,119.5,339.1,120.6,333.9,121.8z"/>
		<path fill="#D0E9F4" d="M326,123.6l22.7,41.5c2.2,0.8,4.5,1.7,6.3,2.6c0.7,0.3,1.3,0.6,1.9,0.8l-25.3-46.3
			C329.7,122.7,327.8,123.2,326,123.6z"/>
		<path fill="#94B8CE" stroke="#94B8CE" stroke-width="0.3323" stroke-miterlimit="10" d="M332.1,244.7c0.6-2.1,2.9-3.3,5.2-2.7
			c2.2,0.7,3.6,2.9,2.9,5c-0.6,2.1-2.9,3.3-5.2,2.7C332.8,249.1,331.5,246.8,332.1,244.7z"/>
		<path fill="#94B8CE" stroke="#94B8CE" stroke-width="0.3323" stroke-miterlimit="10" d="M332.1,265c0.6-2.1,2.9-3.3,5.2-2.7
			c2.2,0.7,3.6,2.9,2.9,5c-0.6,2.1-2.9,3.3-5.2,2.7C332.8,269.4,331.5,267.1,332.1,265z"/>
		<path fill="#94B8CE" stroke="#94B8CE" stroke-width="0.3323" stroke-miterlimit="10" d="M330.7,286.1c0.6-2.1,2.9-3.3,5.2-2.7
			c2.2,0.7,3.6,2.9,2.9,5c-0.6,2.1-2.9,3.3-5.2,2.7C331.4,290.5,330.1,288.2,330.7,286.1z"/>
		<path fill="#94B8CE" stroke="#94B8CE" stroke-width="0.3323" stroke-miterlimit="10" d="M329.6,306.1c0.6-2.1,2.9-3.3,5.2-2.7
			c2.2,0.7,3.6,2.9,2.9,5c-0.6,2.1-2.9,3.3-5.2,2.7C330.3,310.5,329,308.2,329.6,306.1z"/>
		<g>
			
				<ellipse transform="matrix(-0.9599 -0.2802 0.2802 -0.9599 772.8392 501.0357)" fill="#008039" cx="422.2" cy="195.3" rx="3.7" ry="3.5"/>
			<path fill="#008039" d="M390.2,206.3c-0.7,2.4,0.8,5,3.4,5.8c2.6,0.7,5.2-0.6,5.9-3.1c0.7-2.4-0.8-5-3.4-5.8
				C393.6,202.4,390.9,203.8,390.2,206.3z"/>
			
				<ellipse transform="matrix(-0.9599 -0.2802 0.2802 -0.9599 818.8934 432.3245)" fill="#008039" cx="440.4" cy="157.6" rx="1.9" ry="1.8"/>
			
				<ellipse transform="matrix(-0.96 -0.2801 0.2801 -0.96 840.8376 498.8137)" fill="#008039" cx="456.1" cy="189.3" rx="6.8" ry="6.5"/>
			<path fill="#008039" d="M373.6,89.6c-0.6,2.2,0.7,4.6,3,5.2c2.3,0.7,4.7-0.6,5.4-2.8c0.6-2.2-0.7-4.6-3-5.2
				C376.7,86.1,374.3,87.4,373.6,89.6z"/>
			<path fill="#008039" d="M341,211.1c-0.8,2.6,0.8,5.3,3.6,6.1c2.7,0.8,5.5-0.7,6.3-3.2c0.8-2.6-0.8-5.3-3.6-6.1
				C344.5,207.1,341.7,208.5,341,211.1z"/>
			
				<ellipse transform="matrix(-0.96 -0.2801 0.2801 -0.96 596.6423 244.2108)" fill="#008039" cx="315.8" cy="79.5" rx="8.6" ry="8.1"/>
			
				<ellipse transform="matrix(-0.9599 -0.2804 0.2804 -0.9599 679.9263 213.7237)" fill="#008039" cx="355.3" cy="58.2" rx="2.3" ry="2.2"/>
			<path fill="#008039" d="M333.2,190.8c-0.3,1.1,0.4,2.4,1.6,2.7c1.2,0.4,2.5-0.3,2.8-1.4c0.3-1.2-0.4-2.4-1.6-2.7
				C334.8,189,333.6,189.6,333.2,190.8z"/>
			
				<ellipse transform="matrix(-0.96 -0.2801 0.2801 -0.96 665.8586 468.9601)" fill="#008039" cx="366.4" cy="186.9" rx="2.3" ry="2.2"/>
			<path fill="#008039" d="M401,59.2c-0.7,2.4,0.8,5,3.4,5.8c2.6,0.8,5.2-0.6,5.9-3.1c0.7-2.4-0.8-5-3.4-5.8
				C404.4,55.3,401.8,56.7,401,59.2z"/>
		</g>
		<g opacity="0.4">
			<path fill="#8A8A8A" d="M318.6,211.3c0.1,1.2,0.2,2.5,0.2,3.7c1.4,25.2,0.8,59.3-0.9,78.2c-2.6,29.2,5.8,56.7,26.9,72.6
				c3,2.3,10.3,7.6,21.8,10.8c4.1-1.7,4.2-8.4-0.1-15.5c-17-16.3-23.7-41.4-21.3-67.8c1.3-14.2,1.9-37,1.5-58.2
				c-0.3-1.5-0.2-6.7-0.2-6.7l-4,3.3c-4.1-3.9-6.2-8.3-8.8-15.4C333.9,216.2,321.2,212.2,318.6,211.3z"/>
		</g>
	</g>
	<g>
		<path fill="#00AB9E" d="M488.1,294.1c0,0-10.7,1.6-13.6,18.2c-2.9,16.6-11.8,19,12.8,32.5c0,0-1.1,19.1,9.2,20.3
			c10.3,1.2,13.6,0.3,14.5-2.4c0.9-2.7,12.9,3.2,16.8-2.7c3.9-6,7.5,1.7,12.8-5.3c5.3-7,13.4,0.2,13.4-23.3c0-23.5-10.3-37-10.3-37
			l10.1-45.1c0,0-48.8-25.7-78,9C475.8,258.1,486.2,272.9,488.1,294.1z"/>
		<path fill-rule="evenodd" clip-rule="evenodd" fill="#008276" d="M482.2,341.9c-0.2-2.6,6.8-20.7,6.8-20.7
			c-1.7,9.2-1.7,23.7-1.7,23.7C485.4,343.7,483.7,342.8,482.2,341.9z"/>
	</g>
	<path fill="#00AB9E" d="M282.5,191.5c0,0,34.6,14.5,17.7,54.6c0,0-19.7-3.2-25.7,2c0,0-4,8.7-23.9,22.4
		c-19.9,13.8-20.8,21.6-28,19.3c-7.3-2.3-6.6-7,8.1-27.1c0,0-13.6,9.3-22.4,22.5c-8.8,13.3-15,4.4-15,4.4s-10.6-9.4,19.7-31.7
		c0,0-9,0.9-21.6,14.4c-12.6,13.5-21.2,16.6-23.8,8.8c-2.7-7.8,17.8-29.7,36.2-37.7c0,0-16.8,7.1-30.1,19.4
		c-13.3,12.3-25.2,1.2-16.9-8.1c8.2-9.3,30.9-21.8,42.9-27c12-5.2,17.9-10.9,17.9-10.9s-5.2-3.8-11.5-3.3c-6.3,0.5-13.6-1-16-5.7
		c-2.4-4.7-4.9-19.2,7.1-11.7c12,7.5,26.7-9.6,49.8,8.6C247,204.9,271.5,202.3,282.5,191.5z"/>
	<ellipse fill="#008276" cx="233.8" cy="240" rx="27.2" ry="9.7"/>
	<g>
		<path fill="#DE055E" d="M237.4,166.8c0,0-36.9-6.9-37.8,26.5s14.8,49,22.5,49.5s8.1-9.5,21.4,1.3c13.2,10.8,32.1-29.8,31.2-47
			C273.1,163.8,237.4,166.8,237.4,166.8z"/>
		<path fill="#BA095A" d="M222.1,242.8c2.2,0.1,3.8-0.6,5.3-1.4c-8.4-9.2-12-31.2-11.6-47.9c0.3-12.9,8.8-22.2,15-27.3
			c-10.6-0.2-30.5,2.7-31.2,27.1C198.7,226.7,214.4,242.3,222.1,242.8z"/>
		<path fill="#00A808" d="M234.4,174.6c0,0,3.6-11-1.5-19.3s-16-14-18.9-18C214,137.4,205.9,171.6,234.4,174.6z"/>
		<path fill="#9B8675" d="M229.5,176.4c0,0,5-17.1,9.1-21.6s1.1-7.5,1.1-7.5s5.2-2.3,7.6,0c4.6,4.4-13.6,21.9-11.6,30.1L229.5,176.4
			z"/>
	</g>
	<g>
		<g>
			<g>
				<path fill="#007873" stroke="#007873" stroke-width="0.5005" stroke-miterlimit="10" d="M108.6,184.3c-0.7-0.5-1.9-0.1-3.2,0.8
					c-0.7,0.4-1.4,0.9-2.1,1.5c-0.7,0.5-1.5,1.1-2.3,1.7c-0.8,0.6-1.5,1.1-2.2,1.7c-0.7,0.5-1.4,1-1.9,1.4c-1.2,0.8-1.9,1.3-1.9,1.3
					c-1.1,0.8-1.8,2-2.1,3.2c-0.3,1.2-0.2,2.5,0.4,3.5c0.7,1.1,1.8,1.7,3.1,1.7c1.4,0.1,2.8-0.4,4.2-1.4c0,0,0.8-0.8,2-1.9
					c0.6-0.6,1.2-1.3,1.9-2.1c0.6-0.8,1.3-1.7,1.9-2.6c0.6-0.9,1.1-1.9,1.6-2.8c0.4-0.9,0.8-1.8,1-2.6
					C109.4,186,109.4,184.8,108.6,184.3z"/>
			</g>
		</g>
	</g>
	<g>
		<g>
			<g>
				<path fill="#007873" stroke="#007873" stroke-width="0.5005" stroke-miterlimit="10" d="M111.2,200.1c-0.7-0.5-1.9-0.1-3.2,0.8
					c-0.7,0.4-1.4,0.9-2.1,1.5c-0.7,0.5-1.5,1.1-2.3,1.7c-0.8,0.6-1.5,1.1-2.2,1.7c-0.7,0.5-1.4,1-1.9,1.4c-1.2,0.8-1.9,1.3-1.9,1.3
					c-1.1,0.8-1.8,2-2.1,3.2c-0.3,1.2-0.2,2.5,0.4,3.5c0.7,1.1,1.8,1.7,3.1,1.7c1.4,0.1,2.8-0.4,4.2-1.4c0,0,0.8-0.8,2-1.9
					c0.6-0.6,1.2-1.3,1.9-2.1c0.6-0.8,1.3-1.7,1.9-2.6c0.6-0.9,1.1-1.9,1.6-2.8c0.4-0.9,0.8-1.8,1-2.6
					C111.9,201.8,111.9,200.6,111.2,200.1z"/>
			</g>
		</g>
	</g>
	<path fill="#00BA8C" d="M56.3,369c-26.5,0-55.5-8.5-53.9-109.1C2.8,232,2,168.6,63.3,166.2c57-2.2,44,102.3,44,102.3
		S130.3,368.9,56.3,369z"/>
	<g>
		
			<ellipse transform="matrix(-0.96 -0.2801 0.2801 -0.96 104.5988 405.4929)" fill="#008039" cx="81.3" cy="195.3" rx="8.6" ry="8.1"/>
		
			<ellipse transform="matrix(-0.96 -0.2802 0.2802 -0.96 67.2401 584.1364)" fill="#008039" cx="75.4" cy="287.3" rx="8.6" ry="8.1"/>
		<ellipse transform="matrix(-0.96 -0.2801 0.2801 -0.96 -46.502 479.2333)" fill="#008039" cx="11" cy="242.9" rx="4.6" ry="4.4"/>
		
			<ellipse transform="matrix(-0.96 -0.2801 0.2801 -0.96 19.7363 432.9272)" fill="#008039" cx="40.8" cy="215.1" rx="4.9" ry="4.6"/>
		
			<ellipse transform="matrix(-0.96 -0.2802 0.2802 -0.96 18.0713 376.3836)" fill="#008039" cx="35.9" cy="186.9" rx="4.9" ry="4.6"/>
		
			<ellipse transform="matrix(-0.9599 -0.2802 0.2802 -0.9599 -6.5932 548.8565)" fill="#008039" cx="35.9" cy="274.9" rx="4.9" ry="4.6"/>
		
			<ellipse transform="matrix(-0.9599 -0.2802 0.2802 -0.9599 -53.845 530.5075)" fill="#008039" cx="11" cy="269.1" rx="4.9" ry="4.6"/>
		
			<ellipse transform="matrix(-0.9599 -0.2803 0.2803 -0.9599 82.3156 478.4875)" fill="#008039" cx="75.4" cy="233.4" rx="3" ry="2.9"/>
		
			<ellipse transform="matrix(-0.96 -0.2801 0.2801 -0.96 106.8035 547.6614)" fill="#008039" cx="92.5" cy="266.2" rx="3" ry="2.9"/>
		<ellipse transform="matrix(-0.96 -0.2801 0.2801 -0.96 5.2222 508.7505)" fill="#008039" cx="39" cy="254" rx="3" ry="2.9"/>
	</g>
	<path fill="#00DD68" d="M92.3,272.5c2.3-50.2-10.6-86.4-19.9-105.6c-2.8-0.5-5.8-0.8-9.1-0.7C2,168.6,2.8,232,2.4,259.9
		C0.8,360.5,29.8,369,56.3,369c12.6,0,22.4-2.9,29.9-7.8C88.1,341.2,90.5,311.4,92.3,272.5z"/>
	<g>
		<path fill="#327EEE" d="M3.3,295.3c5.1,67.3,30,73.8,53,73.7c49.9-0.1,55.7-45.7,54.2-75.4C71.1,281.3,24.5,290,3.3,295.3z"/>
		<path fill="#327EEE" d="M35.9,308.1c-6.2-42.9-23.7-53.6-33.4-56.2c-0.1,2.9-0.1,5.6-0.1,8c-0.1,4.7-0.1,9.2,0,13.5
			c19.3,14.2,16.4,29.9,16.4,29.9L35.9,308.1z"/>
	</g>
	<g>
		<rect x="59.3" y="145.4" fill="#444444" width="2" height="31.9"/>
		<path fill="#DE055E" d="M103.2,200.8c-5.8-19.5-17.4-35.4-39.9-34.6c-30,1.1-45.1,16.9-52.7,36C23.7,195.6,52.8,186.9,103.2,200.8
			z"/>
		<g>
			<g>
				<g>
					<path fill="#007873" stroke="#007873" stroke-width="0.5005" stroke-miterlimit="10" d="M0.2,215.3c1,1.4,3.7,0.9,5.6,0.9
						c1,0,1.7,0.1,2.2,0.3c0.4,0.1,0.7,0.3,0.7,0.3c0.4,0.1,0.8-0.3,1.6-0.8c0.7-0.5,1.7-1.2,2.4-2.2c0.7-1,1.1-2.2,0.7-3.3
						c-0.3-1.1-1.4-2.2-2.9-2.5c0,0-0.2-0.1-0.7-0.1c-0.4,0-1.1,0-1.8,0c-1.5,0.1-3.2,0.7-4.6,1.6C0.5,211.3-0.9,213.9,0.2,215.3z"
						/>
				</g>
			</g>
		</g>
		<g>
			<g>
				<g>
					<path fill="#007873" stroke="#007873" stroke-width="0.5005" stroke-miterlimit="10" d="M13.7,174.2c-0.9,0-1.5,1.1-2,2.7
						c-0.2,0.8-0.4,1.7-0.6,2.7c-0.1,1-0.1,2.1-0.1,3.1c0,1.1,0,2.2,0.1,3.2c0.1,1,0.3,1.9,0.4,2.7c0.2,1.6,0.4,2.7,0.4,2.7
						c1,3.1,3.8,4.9,6.1,3.9c2.3-0.9,3.5-3.8,2.6-6.4c0,0-0.3-0.9-0.8-2.2c-0.2-0.7-0.5-1.4-0.9-2.3c-0.3-0.8-0.6-1.7-0.9-2.7
						c-0.3-0.9-0.7-1.8-1-2.7c-0.3-0.9-0.6-1.7-1-2.4C15.4,175.2,14.6,174.2,13.7,174.2z"/>
				</g>
			</g>
		</g>
		<g>
			<g>
				<g>
					<path fill="#007873" stroke="#007873" stroke-width="0.5005" stroke-miterlimit="10" d="M2.3,200.7c-0.6,0.6-0.5,1.8,0.2,3.2
						c0.4,0.7,0.9,1.4,1.5,2.2c0.7,0.7,1.4,1.4,2.2,2.1c0.8,0.6,1.7,1.3,2.5,1.8c0.9,0.5,1.7,0.9,2.4,1.3c1.5,0.6,2.5,0.9,2.5,0.9
						c1.6,0.3,3.1,0.1,4.2-0.6c1.1-0.7,1.7-1.8,1.8-3c0.1-1.2-0.4-2.4-1.1-3.3c-0.7-0.8-1.6-1.6-2.7-1.8c0,0-0.7-0.2-1.9-0.3
						c-0.6-0.1-1.2-0.3-1.9-0.4c-0.7-0.2-1.4-0.4-2.2-0.6c-0.8-0.3-1.5-0.5-2.3-0.7c-0.7-0.3-1.5-0.5-2.1-0.7
						C4,200.2,2.9,200.1,2.3,200.7z"/>
				</g>
			</g>
		</g>
		<path fill="#327EEE" d="M60.6,145.2c0,3.6-38.8,5.9-44.1,5.9c-5.3,0-9.6-2.9-9.6-6.5c0-3.6,4.3-6.5,9.6-6.5
			C21.8,138.2,60.6,141.6,60.6,145.2z"/>
		<path fill="#327EEE" d="M57.5,145.4c-0.7-3.5,36.7-13.9,41.9-15c5.2-1.1,10,0.8,10.7,4.3c0.7,3.5-2.9,7.2-8,8.3
			C96.9,144.2,58.3,148.9,57.5,145.4z"/>
	</g>
</g>
</svg>
