<?xml version="1.0" encoding="utf-8"?>
<!-- Generator: Adobe Illustrator 17.1.0, SVG Export Plug-In . SVG Version: 6.00 Build 0)  -->
<!DOCTYPE svg PUBLIC "-//W3C//DTD SVG 1.1//EN" "http://www.w3.org/Graphics/SVG/1.1/DTD/svg11.dtd">
<svg version="1.1" xmlns="http://www.w3.org/2000/svg" xmlns:xlink="http://www.w3.org/1999/xlink" x="0px" y="0px"
	 viewBox="0 0 576 549" enable-background="new 0 0 576 549" xml:space="preserve">
<g id="Capa_7">
	<circle fill="#9F45ED" cx="264" cy="233" r="234"/>
</g>
<g id="Capa_5">
	<g>
		<path fill="#FCDF51" d="M489.2,298.9c9.8,25.6,17.9,46.3-10.1,57c-27.8,10.6-35.7-10.1-45.5-35.7c-0.5-1.4-1-2.8-1.5-4.3
			c-0.1-0.3-0.2-0.6-0.3-1c0.7-2.9,11.8-9.2,26.1-14.7c14.3-5.5,26.8-8.2,29.2-6.4c0.1,0.3,0.3,0.6,0.4,0.9
			C488.1,296.1,488.7,297.5,489.2,298.9z"/>
		<path fill="#FCDF51" d="M496.2,372.9c9.8,25.6,18.8,21.1,0.2,28.3c-18.5,7.1-8.9,4.4-18.7-21.2c-0.5-1.4-18.6-20.9-19.1-22.3
			c-0.1-0.3-0.2-0.6-0.3-1c0.1-2.7,7.3-7.5,16.9-11.2c9.5-3.6,18.1-4.8,20-2.9c0.1,0.3,0.3,0.6,0.4,0.9
			C496.1,344.9,495.7,371.5,496.2,372.9z"/>
		<path fill="#FCDF51" d="M497.2,153c29.3,76.8,15.7,153.3-30.4,170.9c-46.1,17.6-107.2-30.4-136.5-107.2c-1.6-4.3-3.1-8.5-4.5-12.8
			c-0.3-1-0.6-1.9-0.9-2.9c2-8.7,35.2-27.6,78.2-44c43-16.4,80.4-24.5,87.6-19.3c0.4,0.9,0.8,1.8,1.2,2.7
			C493.9,144.6,495.6,148.8,497.2,153z"/>
		<path fill="#D8BE50" d="M491.5,138.1c0.2,0.4,0.2,0.9,0.1,1.4c-1.1,8.5-34.7,27.7-78.3,44.4c-43.5,16.6-81.4,24.7-87.9,19.1
			c-0.4-0.3-0.7-0.7-0.8-1.1c-0.2-0.5-0.2-1.1-0.1-1.7c2-8.7,35.2-27.6,78.2-44c43-16.4,80.4-24.5,87.6-19.3
			C491,137.1,491.3,137.6,491.5,138.1z"/>
		<path fill="#FCDF51" d="M524.4,391.1c0.1,0.1,0.1,0.3,0,0.5c-0.4,2.8-11.6,9.2-26.1,14.8c-14.5,5.5-27.1,8.2-29.3,6.4
			c-0.1-0.1-0.2-0.2-0.3-0.4c-0.1-0.2-0.1-0.4,0-0.6c0.7-2.9,11.7-9.2,26.1-14.7c14.3-5.5,26.8-8.2,29.2-6.4
			C524.2,390.7,524.3,390.9,524.4,391.1z"/>
		<path fill="#FCDF51" d="M536.3,391.3c0.1,0.2,0.1,0.4,0.1,0.6c-0.5,3.8-15.4,12.3-34.8,19.7c-19.3,7.4-36.2,11-39.1,8.5
			c-0.2-0.1-0.3-0.3-0.4-0.5c-0.1-0.2-0.1-0.5,0-0.8c0.9-3.9,15.7-12.3,34.8-19.6c19.1-7.3,35.7-10.9,38.9-8.6
			C536,390.8,536.2,391,536.3,391.3z"/>
		<path fill="#FCDF51" d="M547.9,393.9c0.1,0.2,0.1,0.5,0.1,0.8c-0.6,4.7-19.3,15.4-43.5,24.6c-24.2,9.2-45.2,13.7-48.8,10.6
			c-0.2-0.2-0.4-0.4-0.5-0.6c-0.1-0.3-0.1-0.6,0-1c1.1-4.8,19.6-15.3,43.4-24.4c23.9-9.1,44.7-13.6,48.7-10.7
			C547.6,393.4,547.8,393.6,547.9,393.9z"/>
		<path fill="#FCDF51" d="M559.3,399c0.1,0.3,0.1,0.6,0.1,0.9c-0.8,5.7-23.2,18.5-52.2,29.6c-29,11.1-54.2,16.5-58.6,12.7
			c-0.3-0.2-0.4-0.5-0.6-0.8c-0.1-0.3-0.1-0.7,0-1.2c1.3-5.8,23.5-18.4,52.1-29.3c28.6-10.9,53.6-16.3,58.4-12.9
			C558.9,398.3,559.1,398.6,559.3,399z"/>
		<g>
			<g>
				<path fill="#FCDF51" d="M336.3,223c-5.5-13.8-16.9-24.8-32.3-25.4c-14.5-0.5-25.7,10.7-27.5,24.6c-1.2,9.4,2.7,19.1,6.7,27.4
					c4,8.3,9,16.2,13.9,23.9c6.5,10.2,14.2,19.7,21.6,29.2c0.7,0.9,2.2,1.2,3.2,0.9c12.8-3.9,25.2-9.3,38.7-10.1
					c6.5-0.4,13.2,0.7,18,5.4c3.4,3.2,6.5,8.8,6.4,13.6c-0.1,5.9-8.5,6.7-12.7,6.3c-2-0.2-4.5-1.2-5.1-2.1c0.2,0.4-0.2,0.4,0.5-0.5
					c1.2-1.5,2.9-2.5,4.6-3.5c3.7-2.1,0.4-7.8-3.3-5.7c-3.8,2.2-8,5.2-8.3,9.9c-0.2,3.9,3.4,6.2,6.5,7.5c7.4,3,18.5,1,22.9-6.2
					c2.8-4.6,1.4-10.1-0.6-14.7c-3.4-7.8-9.6-13.5-17.8-15.6c-17.1-4.5-35.5,4.5-51.5,9.4c1.1,0.3,2.1,0.6,3.2,0.9
					c-5.9-7.6-11.8-15.3-17.3-23.1c-8.4-11.9-17.1-25.4-21.5-39.3c-4.3-13.5,0.5-28.3,15.5-31.2c13.6-2.6,25.2,8.7,29.9,20.3
					C331.5,228.7,337.9,227,336.3,223L336.3,223z"/>
			</g>
		</g>
		<g>
			<g>
				<path fill="#FCDF51" d="M504.4,162.4c-5-13.9-2.5-32.3,13.2-37.9c15.5-5.4,25.9,9,30.2,21.7c7.1,21,8.7,44.1,10.1,66.1
					c0.5-1,1.1-1.9,1.6-2.9c-14.2,6.5-29.7,11.5-40.9,22.9c-5.1,5.2-8.3,12-8,19.3c0.3,6.4,2.3,14.1,7.6,18.2c8,6,18.5-0.5,23.4-7.3
					c2.2-3,3.6-7.3,1.5-10.7c-2.8-4.4-9.3-3.5-13.6-2.6c-4.2,0.9-2.4,7.2,1.8,6.4c1.7-0.4,3.6-0.7,5.3-0.4c1.1,0.2,0.9,0.3,1,0.5
					c0.3,1.1-2,4.1-3.3,5.4c-4.6,4.8-11.4,6.7-14.9-0.1c-13.3-25.8,26.9-38.2,43.4-45.8c1-0.5,1.7-1.8,1.6-2.9
					c-0.7-11.5-1.6-23.1-3.2-34.5c-2.1-15.2-4.8-32.2-12.6-45.6c-7.8-13.4-23.6-19.3-37.7-12c-15.8,8.2-18.5,28.6-13,43.9
					C499.5,168.2,505.9,166.4,504.4,162.4L504.4,162.4z"/>
			</g>
		</g>
		
			<rect x="411.4" y="206.3" transform="matrix(0.9343 -0.3566 0.3566 0.9343 -58.5433 184.4358)" fill="none" width="119.1" height="89.3"/>
		
			<text transform="matrix(0.9342 -0.3566 0.3566 0.9342 419.6591 283.5305)" fill="#D8BE50" font-family="'Arial-Black'" font-size="79.3801">1</text>
	</g>
</g>
<g id="Capa_3">
	<g>
		<g>
			<g>
				<g>
					<path fill="#007873" stroke="#007873" stroke-width="0.3132" stroke-miterlimit="10" d="M298.1,24.3c-0.5-0.2-1.4,0.6-2.5,1.9
						c-0.6,0.6-1.2,1.4-1.9,2.3c-0.7,0.8-1.4,1.7-2.2,2.5c-0.8,0.8-1.5,1.7-2.2,2.4c-0.7,0.7-1.4,1.4-2,2c-1.2,1.1-2,1.9-2,1.9
						c-2.4,2.3-3.8,4.8-2.9,6.1c0.9,1.3,4.1,0.5,6.8-2.1c0,0,0.8-0.9,2.1-2.3c0.6-0.7,1.2-1.6,1.9-2.5c0.7-0.9,1.3-2,2-3
						c0.6-1.1,1.2-2.1,1.7-3.2c0.5-1.1,0.8-2,1.1-2.9C298.5,25.8,298.6,24.5,298.1,24.3z"/>
				</g>
			</g>
		</g>
		<g>
			<g>
				<g>
					<path fill="#007873" stroke="#007873" stroke-width="0.3132" stroke-miterlimit="10" d="M325,54.9c-0.5-0.2-1.4,0.9-2.3,2.6
						c-0.5,0.8-1.1,1.8-1.7,2.8c-0.6,1-1.3,2.1-2,3.1c-0.7,1-1.5,2-2.1,3c-0.7,0.9-1.4,1.8-2,2.5c-1.3,1.4-2.1,2.3-2.1,2.3
						c-0.6,0.7-1.2,1.3-1.7,2c-0.2,0.3-0.4,0.7-0.6,1c-0.2,0.3-0.4,0.6-0.5,0.9c-0.6,1.2-0.8,2.2-0.3,2.9c0.5,0.6,1.5,0.6,2.9,0.1
						c0.3-0.1,0.7-0.3,1.1-0.5c0.4-0.2,0.7-0.4,1.1-0.7c0.7-0.5,1.5-1.2,2.2-2c0,0,0.9-1.1,2.1-2.7c0.6-0.9,1.2-1.9,1.9-3
						c0.6-1.1,1.3-2.4,1.9-3.6c0.5-1.3,1.1-2.5,1.5-3.8c0.4-1.2,0.7-2.4,0.9-3.4C325.6,56.5,325.6,55.1,325,54.9z"/>
				</g>
			</g>
		</g>
		<g>
			<g>
				<g>
					<path fill="#007873" stroke="#007873" stroke-width="0.3132" stroke-miterlimit="10" d="M335.5,75.4c-0.5-0.3-1.5,0.5-2.7,1.7
						c-0.6,0.6-1.3,1.4-2,2.2c-0.8,0.8-1.5,1.6-2.3,2.4c-0.8,0.8-1.5,1.7-2.2,2.5c-0.8,0.8-1.4,1.5-2,2c-1.2,1.2-1.9,2-1.9,2
						c-2.3,2.4-3.5,5.2-2.5,6.4c1,1.2,4,0.1,6.6-2.5c0,0,0.7-0.9,1.9-2.3c0.5-0.7,1.2-1.5,1.9-2.4c0.6-0.9,1.3-1.9,1.9-3
						c0.6-1,1.3-2,1.8-3c0.5-1,0.9-2,1.2-2.8C335.7,76.9,336,75.7,335.5,75.4z"/>
				</g>
			</g>
		</g>
		<g>
			<g>
				<g>
					<path fill="#007873" stroke="#007873" stroke-width="0.3132" stroke-miterlimit="10" d="M226.2,23.3c-0.5-0.2-1.3,0.6-2.2,2
						c-0.4,0.7-0.8,1.6-1.2,2.5c-0.4,0.9-0.6,2-0.9,3.1c-0.2,1.1-0.3,2.2-0.5,3.2c0,1,0,2,0,2.9c0.2,1.7,0.4,2.8,0.4,2.8
						c0.2,0.8,0.5,1.6,0.9,2.3c0.2,0.3,0.4,0.6,0.6,0.9c0.2,0.3,0.5,0.5,0.7,0.7c0.9,0.8,1.8,1.1,2.5,0.7c0.7-0.4,1.1-1.2,1.2-2.2
						c0-0.3,0-0.5,0-0.8c0-0.3,0-0.6,0-0.9c0-0.6-0.2-1.2-0.3-1.9c0,0-0.2-0.9-0.5-2.2c-0.1-0.7-0.2-1.5-0.3-2.3
						c0-0.9-0.1-1.8-0.1-2.7c0.1-0.9,0-1.9,0.1-2.8c0.1-0.9,0.1-1.8,0.2-2.5C226.8,24.6,226.7,23.5,226.2,23.3z"/>
				</g>
			</g>
		</g>
		<g>
			<g>
				<g>
					<path fill="#007873" stroke="#007873" stroke-width="0.3132" stroke-miterlimit="10" d="M173,50.3c-1.1,0.2-0.9,4.1,0.7,7.7
						c0.8,1.8,1.9,3.5,3,4.7c0.5,0.6,1,1.1,1.4,1.4c0.3,0.3,0.6,0.5,0.6,0.5c1.3,1,3,1.3,4.2,1.1c0.6-0.1,1.1-0.3,1.4-0.6
						c0.3-0.3,0.5-0.6,0.5-1c0.1-0.8-0.4-1.5-0.9-2.2c-0.5-0.7-1.1-1.3-2-1.9c0,0-0.1-0.1-0.4-0.3c-0.3-0.2-0.6-0.4-1-0.8
						c-0.8-0.7-1.9-1.8-2.9-3.1C175.5,53.3,174,50.1,173,50.3z"/>
				</g>
			</g>
		</g>
		<path fill="#00BA8C" d="M186.3,386.8c11.2,18,27.8,32.1,46.5,39.7c7.4,3,15.1,5,23,5.7c12,1.2,24.2-0.4,36-5.4
			c4.5-1.9,8.6-4.1,12.4-6.6c3.7-2.4,7-5.1,10-8.1c20.8-20.6,26-52.9,18.8-85.9c-4.7-21.3-10.3-60.2-12.5-89.1
			c-0.1-1.5-0.2-2.9-0.3-4.3c-0.4-5.9-0.6-11.3-0.6-15.9c-0.2-29.1,4.9-60.3,9.3-89.1c2.2-14.1-4.3-39.7-9.4-51.9
			c-8.9-21.1-27.2-37.7-50.2-44.3c-3.4-1-7-1.7-10.6-2.2c-2-0.1-4.1-0.1-6.1,0c-7,0.3-14.2,1.3-21.4,3.5
			c-21.4,6.3-37.1,11.5-55.4,38.6c-0.8,1.2-1.6,2.4-2.4,3.7c-0.6,1-1.3,2.1-1.9,3.1c-1.3,2.2-2.7,4.4-4,6.8
			c-19.2,33.9-23.5,85.5-22.3,126.5c0.4,13,1.2,25.6,2.4,37.6c0.1,1.4,0.3,2.9,0.5,4.3c2.8,25.1,7.2,47.7,12.4,67.3
			C168.3,350.9,178.2,373.8,186.3,386.8z"/>
		<path fill="#00DD68" d="M160.3,320.6c15.3,21.7,31.1,38.3,37.6,48.8c11.2,18,27.8,32.1,46.5,39.7c7.4,3,15.1,5,23,5.7
			c2-0.7,4.1-1.4,6.1-2.3c4.5-1.9,8.6-4.1,12.4-6.6c3.7-2.4,7-5.1,10-8.1c1.9-1.9,3.8-3.9,5.4-6.1c-3.3-4.1-6.7-9.3-10-15.9
			c-14.9-29.9,11.1-128.4,11.1-128.4c0.7-0.6,1.3-1.2,2-1.7c-0.9-8-1.7-15.7-2.2-22.8c-0.1-1.4-0.2-2.9-0.3-4.3
			c-0.4-5.9-0.6-11.3-0.7-15.9c0-6.2,0.4-13.7,1-21.9c1.6-20.2,3.6-45,8.1-65.5c7.9-36.4-26.2-69.6-26.2-69.6
			c-8.3-8.1-19.4-13.4-31.6-16.3c-7,0.3-14.2,1.3-21.4,3.5c-21.4,6.3-37.1,11.5-55.4,38.6c-0.8,1.2-1.6,2.4-2.4,3.7
			c-0.6,1-1.3,2.1-1.9,3.1c-1.3,2.2-2.7,4.4-4,6.8c-19.2,33.9-23.5,85.5-22.3,126.5c0.4,13,1.2,25.6,2.4,37.6
			c0.1,1.4,0.3,2.9,0.5,4.3C150.7,278.4,155.1,301.1,160.3,320.6z"/>
		<g>
			<path fill="#67A7D5" d="M147.1,156.1c3.3,3,8.8,6.8,16,10.9c7.9,4.5,17.9,9.3,29.3,13.4c15.7,28.1,42,52,79.5,24.6
				c6-4.2,12.1-7.1,15-7.7c1,0.3,2.3,0.6,3.6,0.9c3.3,0.7,7.2,1.2,10.3,2.6c23.4,10.1,34.1-16.5,38.4-42.6c2.6-16-0.8-32.7-0.8-32.7
				c-10.9,2.9-24.6,5.4-39.9,7.2c-49.3,5.9-113.7,4.1-143.2-18.9C151.5,127.1,148.8,141.5,147.1,156.1z"/>
		</g>
		<g>
			<path fill="#4A87A5" d="M338.8,129.4c0,0,3.1,12.7,0.5,28.7c-4.3,26.1-13.2,50.6-36.6,40.5c-4.4-1.9-10.4-3.8-14.1-5
				c-2.9,0.6-9.8,4.9-15.8,9.1c-46.7,26.5-64.1-2.9-73.5-22.5l6.2-40.8C269.7,147.8,308.8,137.7,338.8,129.4z"/>
		</g>
		<g>
			<path fill="#95D2F8" d="M238.1,206.1c1.8,0.2,3.5,0.3,5.3,0.3c8-0.2,15.6-2.9,21.9-5.8c1.2-0.5,2.2-1.1,3.3-1.6l0,0
				c1.9-1,3.6-1.9,5.1-2.8c1.3-0.7,2.4-1.4,3.3-2l0,0c8.1-5.1,5.5-5.4,12.1-7.7c3.1,0.9,9.4,5.1,13.3,5.6
				c33.7,4.4,34-32.4,31.3-52.2c0,0-16.4,3.3-38.5,6c-2.3,0.3-4.6,0.6-7,0.8c-0.9,0.1-1.8,0.2-2.8,0.3c-6.7,0.7-13.7,1.3-20.8,1.7
				c-16.3,1-33.3,1-47.8-1c0,0-1.4,8.6-1.3,20.9C215.8,185.4,221.4,203.9,238.1,206.1z"/>
		</g>
		<g>
			<path fill="#FFFFFF" d="M320.2,232.9c0.1,1.4,0.2,2.8,0.3,4.3c2.2,28.9,7.9,67.8,12.5,89.1c7.2,33,2,65.3-18.8,85.9
				c-3,3-6.3,5.7-9.9,8.1c-8-2.5-16.4-10.7-24.5-27c-14.9-30,11.1-128.4,11.1-128.4c8.7-7.4,10.9-12.8,13.4-24.7
				C304.1,240.2,317.5,234.2,320.2,232.9z"/>
		</g>
		<g>
			<g>
				<path fill="#93B7CD" d="M304.8,240.9c10.9,3.7,15.4,16.4,17.7,26.6c0.1,0.6,1,0.3,0.9-0.3c-2.4-10.6-7.1-23.4-18.4-27.3
					C304.5,239.8,304.2,240.7,304.8,240.9L304.8,240.9z"/>
			</g>
		</g>
		<g>
			<path fill="#FFFFFF" d="M312.9,266.8c1.1,41.3,26.1,100.5,4.1,140.6c-0.9,1.6-1.8,3.2-2.8,4.7c-6.1,6-24.7-158.2-18.3-154
				C301,261.5,306.7,264.4,312.9,266.8z"/>
			<g>
				<path fill="#94B8CE" d="M311.5,266.8c0.8,24.2,7.4,48,10.9,71.9c1.9,12.9,2.9,25.9,1.8,38.9c-0.5,6.1-1.7,12-3.5,17.8
					c-0.9,3-2.2,5.9-3.5,8.8c-0.8,1.7-4.1,5.9-2.8,6.7c-0.8-0.5-1.7-4.9-2.1-6.3c-1.2-4.7-2-9.5-2.9-14.3c-2.5-14.3-4.4-28.6-6.2-43
					c-2.6-21-4.9-42-6.4-63.1c-0.5-6.8-0.9-13.6-0.8-20.4c0-1.5,0-3.1,0.4-4.6c0-0.1,0.1-0.2,0,0c-0.4,0.3-0.8,0.4-1.2,0.2
					c1.5,0.8,2.9,1.8,4.3,2.6c4.2,2.4,8.6,4.4,13.1,6.2c1.7,0.7,2.4-2.1,0.7-2.7c-3.7-1.5-7.3-3.2-10.9-5c-2-1.1-4.1-2.9-6.2-3.7
					c-0.9-0.3-1.6,0.2-2.1,0.9c-1.1,1.7-0.9,4.7-0.9,6.6c-0.2,10.9,0.9,21.9,1.8,32.8c2.6,30,6,60.1,10.9,89.8
					c1.3,7.7,2.4,15.8,5,23.3c4,11.5,11.2-10.2,12.5-13.8c6.7-20.1,4.3-42.4,1.1-62.9c-3.4-22.1-9.3-44.1-10.1-66.5
					C314.3,265,311.4,265,311.5,266.8z"/>
			</g>
		</g>
		<g>
			<path fill="#FFFFFF" d="M312.9,266.8c1.1,41.3,26.1,100.5,4.1,140.6c-0.9,1.6-1.8,3.2-2.8,4.7c-6.1,6-13.5,11-22.3,14.8
				c-19.5,8.2-40.3,7.2-59-0.4c-18.7-7.6-35.3-21.7-46.5-39.7c-13.3-21.5-31.3-69.3-38.4-133.5c60.4,0.7,131.3-9.4,131.3-9.4
				C287.6,253.3,298.8,261.4,312.9,266.8z"/>
		</g>
		<g>
			<g>
				<path fill="#93B7CD" d="M147.8,255.2c31.8,14.2,63.9,28.4,98.3,35c0.2,0,0.4,0,0.5-0.2c7.8-16.9,19.5-32.7,33.2-45.2
					c0.4-0.4-0.2-1.1-0.7-0.7c-9.4,8.7-17.4,18.7-24.3,29.4c-2.4,3.7-4.6,7.6-6.7,11.5c-0.6,1.2-1.2,2.3-1.8,3.5
					c-0.8,1.7-1.7,0.5-3.6,0.1c-32.9-6.6-63.9-20.5-94.4-34.2C147.7,254.2,147.2,255,147.8,255.2L147.8,255.2z"/>
			</g>
		</g>
		<g>
			<g>
				<g>
					<path fill="#007873" stroke="#007873" stroke-width="0.3132" stroke-miterlimit="10" d="M161.5,55.4c-0.5,0.2-0.4,1.8,0.1,4.1
						c0.3,1.1,0.8,2.4,1.2,3.8c0.5,1.4,1.2,2.8,1.8,4.2c0.7,1.4,1.4,2.8,2.1,4.1c0.7,1.3,1.4,2.4,2.1,3.4c0.6,1,1.2,1.8,1.6,2.4
						c0.4,0.6,0.6,0.9,0.6,0.9c0.4,0.5,0.7,0.9,1.1,1.3c0.4,0.4,0.8,0.8,1.2,1.1c0.8,0.7,1.5,1.3,2.3,1.6c1.5,0.7,2.7,0.8,3.2,0.2
						c0.5-0.6,0.3-1.8-0.4-3c-0.3-0.6-0.7-1.5-1.2-2.2c-0.3-0.4-0.5-0.8-0.8-1.2c-0.3-0.4-0.6-0.9-0.9-1.3c0,0-0.2-0.3-0.6-0.8
						c-0.4-0.5-1-1.2-1.6-2.1c-0.6-0.9-1.5-1.9-2.2-3c-0.8-1.1-1.6-2.3-2.4-3.6c-0.8-1.2-1.6-2.5-2.4-3.7c-0.7-1.2-1.4-2.3-2.1-3.2
						C163,56.4,162.1,55.2,161.5,55.4z"/>
				</g>
			</g>
		</g>
		<g>
			<g>
				<g>
					<path fill="#007873" stroke="#007873" stroke-width="0.3132" stroke-miterlimit="10" d="M197.1,31.3c-0.5,0-1,1.3-1.5,3.5
						c-0.2,1.1-0.3,2.3-0.4,3.6c-0.1,1.3,0,2.8,0,4.2c0.1,1.4,0.2,2.9,0.3,4.2c0.1,1.3,0.4,2.6,0.5,3.6c0.1,1.1,0.4,1.9,0.5,2.6
						c0.1,0.6,0.2,1,0.2,1c0.2,1.1,0.7,2,1.1,2.9c0.5,0.9,0.9,1.6,1.4,2.2c1.1,1.1,2,1.6,2.7,1.3c0.7-0.4,1-1.4,0.9-2.8
						c-0.1-0.7-0.1-1.5-0.2-2.3c-0.1-0.9-0.4-1.7-0.6-2.7c0,0-0.1-0.3-0.3-0.9c-0.1-0.6-0.4-1.3-0.7-2.3c-0.2-1-0.5-2.1-0.8-3.3
						c-0.3-1.2-0.5-2.5-0.8-3.9c-0.2-1.3-0.5-2.6-0.7-3.9c-0.2-1.3-0.4-2.4-0.6-3.5C198,32.7,197.6,31.3,197.1,31.3z"/>
				</g>
			</g>
		</g>
		<g>
			<g>
				<g>
					<path fill="#007873" stroke="#007873" stroke-width="0.3132" stroke-miterlimit="10" d="M195.1,73.6c-0.5,0.3-0.5,1.1-0.2,2.3
						c0.2,0.6,0.4,1.2,0.8,1.9c0.3,0.6,0.7,1.3,1.2,2c0.4,0.6,0.9,1.3,1.4,1.8c0.5,0.6,1,1.1,1.4,1.5c0.4,0.4,0.8,0.7,1.1,1
						c0.3,0.2,0.4,0.4,0.4,0.4c0.5,0.4,1,0.6,1.6,0.8c0.5,0.2,1,0.3,1.5,0.2c1-0.1,1.7-0.5,2-1.3c0.3-0.7,0.2-1.6-0.1-2.3
						c-0.2-0.3-0.4-0.7-0.6-1.1c-0.3-0.3-0.6-0.6-1-0.9c0,0-0.1-0.1-0.4-0.2c-0.2-0.2-0.6-0.3-1-0.7c-0.4-0.3-0.9-0.6-1.4-1
						c-0.5-0.4-1-0.8-1.6-1.2c-0.5-0.4-1.1-0.9-1.6-1.3c-0.5-0.4-1-0.8-1.4-1.1C196.3,73.7,195.6,73.3,195.1,73.6z"/>
				</g>
			</g>
		</g>
		<g>
			<g>
				<g>
					<path fill="#007873" stroke="#007873" stroke-width="0.3132" stroke-miterlimit="10" d="M221,38.9c-0.5-0.1-1.2,0.8-2,2.5
						c-0.3,0.8-0.7,1.8-1,2.9c-0.3,1.1-0.5,2.2-0.7,3.4c-0.2,1.2-0.3,2.3-0.4,3.4c-0.1,1.1-0.1,2.1-0.1,3c0,1.8,0.1,3,0.1,3
						c0.1,0.9,0.3,1.7,0.5,2.5c0.2,0.8,0.5,1.4,0.9,1.9c0.7,1.1,1.6,1.6,2.3,1.4c0.8-0.2,1.3-1,1.6-2.1c0.1-0.6,0.2-1.2,0.3-1.9
						c0.1-0.7,0-1.5-0.1-2.3c0,0-0.1-1.1-0.3-2.7c-0.1-0.8-0.1-1.7-0.2-2.8c0-1-0.1-2.1-0.1-3.2c0-1.1,0-2.2,0-3.2c0-1,0-2,0-2.8
						C221.7,40.3,221.5,39.1,221,38.9z"/>
				</g>
			</g>
		</g>
		<g>
			<g>
				<g>
					<path fill="#007873" stroke="#007873" stroke-width="0.3132" stroke-miterlimit="10" d="M245.6,14.5c-0.5,0.1-0.9,1.2-1.2,2.9
						c-0.1,0.9-0.2,1.8-0.3,2.9c-0.1,1.1-0.3,2.2-0.4,3.3c-0.1,1.1-0.2,2.2-0.4,3.3c-0.2,1-0.3,2-0.5,2.8c-0.3,1.6-0.4,2.7-0.4,2.7
						c-0.6,3.3,0.1,6.2,1.6,6.6c1.5,0.4,3.3-2.2,3.9-5.7c0,0,0.1-1.2,0.2-3c0-0.9,0.1-1.9,0.1-3c0-1.1-0.1-2.3-0.2-3.5
						c-0.1-1.2-0.2-2.4-0.3-3.5c-0.2-1.1-0.4-2.1-0.7-3C246.6,15.5,246.1,14.4,245.6,14.5z"/>
				</g>
			</g>
		</g>
		<g>
			<g>
				<g>
					<path fill="#007873" stroke="#007873" stroke-width="0.3132" stroke-miterlimit="10" d="M278.1,19c-0.3-0.4-1.6,0.1-3.4,1.1
						c-0.8,0.6-1.8,1.3-2.7,2.2c-0.9,0.9-1.8,1.9-2.8,2.9c-0.8,1.1-1.6,2.2-2.4,3.3c-0.6,1.1-1.2,2.2-1.8,3.1
						c-0.9,1.9-1.4,3.2-1.4,3.2c-0.4,1-0.5,2-0.6,2.9c0,0.5-0.1,0.9-0.1,1.3c0,0.4,0.1,0.8,0.2,1.2c0.3,1.4,0.9,2.3,1.7,2.4
						c0.8,0.1,1.6-0.6,2.3-1.7c0.2-0.3,0.3-0.6,0.5-0.9c0.2-0.3,0.4-0.7,0.5-1c0.4-0.7,0.6-1.5,0.9-2.4c0,0,0.4-1.1,0.9-2.8
						c0.4-0.8,0.8-1.8,1.2-2.8c0.5-1,1.1-2.1,1.7-3.1c0.7-1,1.3-2.1,1.9-3c0.7-0.9,1.3-1.8,1.8-2.6C277.8,20.6,278.5,19.5,278.1,19z
						"/>
				</g>
			</g>
		</g>
		<g>
			<g>
				<g>
					<path fill="#007873" stroke="#007873" stroke-width="0.3132" stroke-miterlimit="10" d="M271.4,40.7c-1-0.4-3,2.7-4.8,5.9
						c-0.9,1.6-1.7,3.3-2.2,4.5c-0.5,1.3-0.9,2.1-0.9,2.1c-0.9,2.6-0.5,5.1,1,5.6c1.5,0.5,3.4-1.2,4.3-3.7c0,0,0.3-0.8,0.6-2.1
						c0.4-1.3,0.8-3,1.3-4.8C271.7,44.7,272.4,41.1,271.4,40.7z"/>
				</g>
			</g>
		</g>
		<g>
			<g>
				<g>
					<path fill="#007873" stroke="#007873" stroke-width="0.3132" stroke-miterlimit="10" d="M242.4,59.1c-0.5-0.3-1.4,0.4-2.4,1.7
						c-1,1.3-2,3.4-2.5,5.8c-0.5,2.3-0.4,4.8,0,6.6c0.2,0.9,0.4,1.6,0.6,2.1c0.2,0.5,0.3,0.8,0.3,0.8c0.7,1.7,1.9,2.9,2.9,3.5
						c1.1,0.6,2,0.7,2.6,0.2c0.6-0.5,0.7-1.4,0.6-2.5c-0.1-1.1-0.5-2.2-1-3.4c0,0-0.1-0.2-0.2-0.5c-0.2-0.3-0.4-0.8-0.6-1.5
						c-0.4-1.2-0.8-2.9-0.8-4.7c0-1.8,0.3-3.7,0.6-5.2C242.7,60.4,242.9,59.3,242.4,59.1z"/>
				</g>
			</g>
		</g>
		<g>
			<g>
				<g>
					<path fill="#007873" stroke="#007873" stroke-width="0.3132" stroke-miterlimit="10" d="M318.7,42c-0.5-0.2-1.4,0.5-2.4,1.6
						c-0.6,0.5-1.2,1.2-1.8,1.9c-0.7,0.6-1.4,1.3-2.1,2c-0.8,0.6-1.5,1.3-2.2,1.9c-0.7,0.6-1.4,1.1-2,1.5c-1.2,0.8-2,1.3-2,1.3
						c-0.6,0.4-1.2,0.8-1.6,1.3c-0.2,0.2-0.4,0.5-0.6,0.7c-0.2,0.2-0.4,0.4-0.5,0.6c-0.6,0.9-0.9,1.8-0.6,2.5c0.3,0.7,1.2,1.1,2.4,1
						c0.3,0,0.6,0,1-0.1c0.3-0.1,0.7-0.2,1-0.3c0.7-0.3,1.5-0.6,2.2-1.1c0,0,0.9-0.7,2.2-1.8c0.6-0.6,1.3-1.3,2.1-2.1
						c0.7-0.8,1.4-1.7,2.1-2.6c0.6-0.9,1.2-1.9,1.8-2.8c0.5-1,0.9-1.9,1.2-2.6C319.1,43.4,319.2,42.2,318.7,42z"/>
				</g>
			</g>
		</g>
		<g>
			<g>
				<g>
					<path fill="#007873" stroke="#007873" stroke-width="0.3132" stroke-miterlimit="10" d="M326.3,80.7c-0.4-0.3-1.4,0.2-2.6,1
						c-0.6,0.4-1.3,0.9-2,1.4c-0.8,0.5-1.6,1-2.3,1.5c-0.8,0.4-1.6,0.9-2.4,1.3c-0.8,0.3-1.5,0.7-2.1,0.9c-1.3,0.4-2.1,0.8-2.1,0.8
						c-1.3,0.4-2.4,1.1-3.2,1.8c-0.8,0.7-1.3,1.5-1.1,2.3c0.1,0.8,0.9,1.3,2,1.6c1.2,0.3,2.7,0.1,4.3-0.4c0,0,1-0.5,2.5-1.2
						c0.7-0.4,1.5-0.9,2.4-1.5c0.8-0.6,1.7-1.3,2.5-2c0.8-0.8,1.5-1.6,2.2-2.3c0.6-0.8,1.1-1.6,1.6-2.3
						C326.5,82.1,326.7,81,326.3,80.7z"/>
				</g>
			</g>
		</g>
		<g>
			<g>
				<g>
					<path fill="#007873" stroke="#007873" stroke-width="0.3132" stroke-miterlimit="10" d="M288.2,62.7c-1-0.5-2.7,1.3-4.4,3.1
						c-0.8,1-1.6,1.8-2.2,2.5c-0.6,0.7-0.9,1.1-0.9,1.1c-1,1.4-0.9,3.3,0.2,4.3c1.2,1,3.1,0.6,4.3-1c0,0,0.3-0.5,0.8-1.4
						c0.5-0.8,1.1-2,1.5-3.2C288.7,65.8,289.2,63.2,288.2,62.7z"/>
				</g>
			</g>
		</g>
		<path fill="#D0E9F4" d="M243.4,206.3c8-0.2,15.6-2.9,21.9-5.8l20.2-53.7c-6.7,0.7-13.7,1.3-20.8,1.7L244,203.7
			C243.7,204.6,243.5,205.4,243.4,206.3z"/>
		<path fill="#D0E9F4" d="M268.6,198.9c1.9-1,3.6-1.9,5.1-2.8c1.3-0.7,2.4-1.4,3.3-2l0,0l18.2-48.4c-2.3,0.3-4.6,0.6-7,0.8
			L268.6,198.9z"/>
		<path fill="#94B8CE" stroke="#94B8CE" stroke-width="0.398" stroke-miterlimit="10" d="M310.3,272.4c-1-2.4-3.7-3.5-6.1-2.5
			c-2.4,1-3.5,3.7-2.5,6.1c1,2.4,3.7,3.5,6.1,2.5C310.2,277.5,311.3,274.8,310.3,272.4z"/>
		<path fill="#94B8CE" stroke="#94B8CE" stroke-width="0.398" stroke-miterlimit="10" d="M313.3,295.7c-1-2.4-3.7-3.5-6.1-2.5
			c-2.4,1-3.5,3.7-2.5,6.1c1,2.4,3.7,3.5,6.1,2.5C313.2,300.8,314.3,298,313.3,295.7z"/>
		<path fill="#008039" d="M207.9,224.6c0.9,2-0.1,4.4-2.1,5.3c-2,0.9-4.4-0.1-5.3-2.1c-0.9-2,0.1-4.4,2.1-5.3
			C204.6,221.6,207,222.5,207.9,224.6z"/>
		<path fill="#008039" d="M240.9,235.1c1.1,2.7-0.1,5.8-2.8,7c-2.7,1.1-5.8-0.1-7-2.8c-1.1-2.7,0.1-5.8,2.8-7
			C236.7,231.1,239.8,232.4,240.9,235.1z"/>
		<path fill="#008039" d="M180.7,184.4c0.4,1.1-0.1,2.3-1.1,2.7c-1.1,0.4-2.3-0.1-2.7-1.1c-0.4-1.1,0.1-2.3,1.1-2.7
			C179,182.8,180.2,183.3,180.7,184.4z"/>
		<path fill="#008039" d="M173.1,220.2c1.6,3.8-0.2,8.2-4,9.8c-3.8,1.6-8.2-0.2-9.9-4c-1.6-3.8,0.2-8.2,4-9.8
			C167.1,214.6,171.5,216.4,173.1,220.2z"/>
		<path fill="#008039" d="M241.9,100.1c1,2.5-0.1,5.3-2.6,6.3c-2.5,1-5.3-0.1-6.3-2.6c-1-2.4,0.1-5.3,2.6-6.3
			C238,96.5,240.8,97.6,241.9,100.1z"/>
		<path fill="#008039" d="M295.7,235.1c1.2,2.9-0.1,6.2-3,7.4c-2.9,1.2-6.2-0.1-7.4-3c-1.2-2.9,0.1-6.2,3-7.4
			C291.1,230.9,294.5,232.3,295.7,235.1z"/>
		<path fill="#008039" d="M312.5,78.4c2,4.8-0.2,10.3-5,12.3c-4.8,2-10.3-0.2-12.3-5c-2-4.8,0.2-10.3,5-12.3
			C305,71.4,310.5,73.7,312.5,78.4z"/>
		<path fill="#008039" d="M259.7,61.3c0.5,1.3-0.1,2.7-1.3,3.3c-1.3,0.5-2.7-0.1-3.3-1.3c-0.5-1.3,0.1-2.7,1.3-3.3
			C257.7,59.4,259.2,60,259.7,61.3z"/>
		<path fill="#008039" d="M301.1,211.1c0.5,1.3-0.1,2.7-1.3,3.3c-1.3,0.5-2.7-0.1-3.3-1.3c-0.5-1.3,0.1-2.7,1.3-3.3
			C299.1,209.2,300.6,209.8,301.1,211.1z"/>
		<path fill="#008039" d="M266.4,209.4c0.5,1.3-0.1,2.7-1.3,3.3c-1.3,0.5-2.7-0.1-3.3-1.3c-0.5-1.3,0.1-2.7,1.3-3.3
			C264.4,207.5,265.9,208.1,266.4,209.4z"/>
		<path fill="#008039" d="M207.3,68.4c1.1,2.7-0.1,5.8-2.8,7c-2.7,1.1-5.8-0.1-7-2.8c-1.1-2.7,0.1-5.8,2.8-7
			C203,64.5,206.2,65.7,207.3,68.4z"/>
		<g opacity="0.4">
			<path fill="#898989" d="M320.2,232.9c0.1,1.4,0.2,2.8,0.3,4.3c2.2,28.9,7.9,67.8,12.5,89.1c7.2,33,2,65.3-18.8,85.9
				c-3,3-10.2,9.8-22.3,14.8c43.8-38.5,10-175.8,12.3-186.7C304.1,240.2,317.5,234.2,320.2,232.9z"/>
		</g>
	</g>
</g>
<g id="Capa_4">
	<g>
		<g>
			<g>
				<path fill="#62B6EF" d="M143,447.4c-2.8,17.8,5.3,34.7,11.1,50.1c-22.6-10.3-34.8-36.8-40.4-65.9c-0.3-1.4-0.5-2.8-0.8-4.2
					c-2.4-14.1-3.3-28.7-3-42.2c0.1-7.2,0.6-14.1,1.3-20.5c0.5-4.9,1.2-9.4,2.1-13.6c0.1-0.7,0.3-1.4,0.4-2.1
					c1.5-5.7,3-11.9,5.4-17.8c0.9-2.3,1.9-4.5,3.1-6.6c0.2-0.4,0.4-0.7,0.6-1.1c0.1-0.2,0.2-0.3,0.3-0.5c0.3-0.5,0.6-0.9,0.9-1.4
					c0.8-1.2,1.6-2.4,2.6-3.5l0,0c1-1.2,2-2.3,3.2-3.3l1.3,0.7l4.3,2.2l6.4,3.2l2.9,1.5l8.1,4.1c-0.7,3.6-1.4,7.3-1.9,11.1
					c-0.1,0.4-0.1,0.7-0.2,1.1c-0.4,3.2-0.8,6.5-1.1,9.8l0,0c0,0.1,0,0.2,0,0.3c0,0.2,0,0.5-0.1,0.7c-0.9,10.8-1,22.1-0.3,33.4
					c0,0.1,0,0.1,0,0.2c2.4,40,14.7,81.2,36.9,109.9C167,485.9,154.9,462.6,143,447.4z"/>
			</g>
			<g>
				<path fill="#4C97C1" d="M143.9,360.1c-1.4,7.1-3.8,15.3-6.9,24.2c-5.5,15.2-13.4,32-23.3,47.3c-0.3-1.4-0.5-2.8-0.8-4.2
					c-15.8,24-36.4,44-59.9,47.2c10.2-10.2,20.9-21.3,24.7-36c-0.8,0.4-1.6,0.9-2.4,1.3c0.9-2.1,1.6-4.2,2.2-6.4
					c-14.3,7.7-30.8,20.6-47.7,23.9c30.8-20.4,57-55,73.2-91c4.7-10.5,8.6-21.1,11.5-31.5c1-3.7,1.9-7.3,2.7-10.9l5.5-0.3l3.9-0.2
					l8.8-0.5l7.5-0.4c0.8,1.7,1.3,3.4,1.8,5.1c0.6,2.3,1,4.8,1.2,7.2c0.3,3.4,0.2,6.9,0,10.3c-0.1,1.5-0.3,2.9-0.4,4.3
					c-0.2,1.6-0.4,3.2-0.6,4.8C144.5,356.2,144.2,358.2,143.9,360.1z"/>
			</g>
			<g>
				<path fill="#62B6EF" d="M143.7,355c-1.4,7.1-3.8,15.3-6.9,24.2c-5.6,15.5-13.7,32.7-23.8,48.2c-15.8,24-36.4,44-59.9,47.2
					c-1.9,0.3-3.8,0.4-5.7,0.4c10-10.3,22.1-21,28-35.1c0.9-2.1,1.6-4.2,2.2-6.4c-14.3,7.7-30.8,20.6-47.7,23.9
					c-3.3,0.7-6.6,1-9.9,0.8C55,439,85,401,102.9,361.2c4.7-10.5,8.6-21.1,11.5-31.5c1-3.7,1.9-7.3,2.7-10.9l9.4-0.5l0,0l8.8-0.5
					l7.5-0.4c0.8,1.7,1.3,3.4,1.8,5.1c1,4,1.4,8.1,1.4,12.3c0,1.7-0.1,3.5-0.2,5.2c-0.1,1.5-0.2,2.9-0.4,4.3
					c-0.2,1.6-0.4,3.2-0.6,4.8C144.3,351.1,144,353.1,143.7,355z"/>
			</g>
			<g>
				<g>
					<g>
						<path fill="#4C97C1" d="M147.8,340.7c-0.9,1.2-1.8,2.4-2.6,3.6c-1.1,1.5-2.1,3.1-3.2,4.6c-0.1,0.2-0.2,0.3-0.3,0.5l0,0
							c-3.2,4.7-6.3,9.4-9.6,14.6c-5.4,9.3-3.7,14.8-15.3,8.6c-2.8-1.1-3.8-5-5.8-7.8c-0.6-0.8-1.2-1.6-2-2.1
							c-1.8-1.2-4-1.3-6.3-1.4c4.7-10.5,8.6-21.1,11.5-31.5l4.7,1.5l26.7,8.8L147.8,340.7z"/>
					</g>
				</g>
				<g>
					<g>
						<path fill="#4C97C1" d="M149,383c0,0.1,0,0.1,0,0.2c-5.4,2.9-8.9,6.4-12.3-3.9c-0.1-0.4-0.2-0.7-0.3-1.1
							c-2.7-7.6,4.4-20.2,5.3-28.7l0,0c0-0.2,0-0.3,0-0.5l0,0l0.3,0l2.5,0.2l4.7,0.4C148.4,360.4,148.3,371.6,149,383z"/>
					</g>
				</g>
			</g>
			<g>
				<g>
					<g>
						<path fill="#62B6EF" d="M130.2,225.6c-7.2-7-20.3-24.8-30.8-16.5c-5.8,4.5-2.4,12.1-9.6,16.9c-5.7,3.6-13.3,0.3-18.7,5.3
							c6,13.1,21.7,16.9,32.8,23.4"/>
					</g>
					<g>
						<path fill="#62B6EF" d="M100.9,255.3c-14.6-4.6-31.8-23.3-36.7-2.5c-0.3,2.8,3.9,7.1,2.9,11.3c-1,4.2-7.3,5.8-8.2,9
							c-3.6,10.5-1.1,12.7,10.5,15.5c10.7,1.8,19.2-1.5,29.5,3.1"/>
					</g>
					<g>
						<path fill="#62B6EF" d="M100.4,291.3c-12.1-2.4-43.5-9.1-35.9,10.4c1,3.4,8,4.8,9.8,9.3c1.8,4.5-0.5,8,0.4,12.4
							c2.1,10.2,1.4,15.8,15.1,12.7c9.4-3.1,16.3-12.8,26.2-16.3"/>
					</g>
					<g>
						<path fill="#62B6EF" d="M112.8,322.2c-12.9,8.4-34.7,19.5-16.5,30.8c3.1,1.8,8.5,0.1,12.1,2.4c3.5,2.3,4.2,8.6,7.8,10
							c11.6,6.2,9.9,0.7,15.3-8.6c5.3-8.4,9.9-15.4,15.6-23.3"/>
					</g>
					<g>
						<path fill="#62B6EF" d="M128.3,225.3c-3.6-5.7-14-25.9-10.2-33.1c4.9-8.9,11.4-1.7,19.7-4c9.3-2.2,19.5-11.9,25.3,3.1
							c3.4,7.5,2.6,23.8,2.5,32.4"/>
					</g>
				</g>
				<g>
					<g>
						<path fill="#62B6EF" d="M159.6,336.2c6.6,7.6,27.5,34,38.6,26.6c6.1-4.1,3.3-11.8,10.9-16.1c5.9-3.1,13.3,0.8,19.1-3.9
							c-5-13.5-20.3-18.5-30.8-25.9"/>
					</g>
					<g>
						<path fill="#62B6EF" d="M200.4,316.6c14.2,5.8,29.9,25.7,36.4,5.4c0.6-2.8-3.3-7.4-2-11.5c1.3-4.1,7.8-5.2,8.9-8.3
							c4.5-10.2,2.1-12.6-9.2-16.3c-10.5-2.6-19.2,0-29.2-5.4"/>
					</g>
					<g>
						<path fill="#62B6EF" d="M203.7,280.7c11.8,3.3,42.7,12.4,36.6-7.5c-0.7-3.5-7.6-5.4-9-10c-1.5-4.6,1.1-8,0.6-12.4
							c-1.3-10.4-0.2-15.9-14-13.9c-9.6,2.4-17.2,11.4-27.4,14.2"/>
					</g>
					<g>
						<path fill="#62B6EF" d="M197.8,250.8c13.5-7.4,35.5-26.2,18.3-38.8c-3-2-9.3,1.1-12.6-1.5c-3.3-2.6-7.6-12.5-11.1-14.2
							c-11.1-7-13.6-4.8-19.7,4c-5.9,7.9-7.9,21.5-14.2,28.9"/>
					</g>
					<g>
						<path fill="#62B6EF" d="M170.7,344.3c3.1,5.9,9.2,18.7,5,25.5c-5.6,8.5-12.9,2.2-21.5,3.9c-9.4,1.5-14.1,12.6-18.7-2.8
							c-2.8-7.8,4.6-20.7,5.4-29.2"/>
					</g>
				</g>
			</g>
			<circle fill="#3B81F2" cx="153.4" cy="281.5" r="63"/>
		</g>
		
			<rect x="95.1" y="256.6" transform="matrix(0.9869 0.1611 -0.1611 0.9869 58.0177 -22.3881)" fill="none" width="144" height="180"/>
		<text transform="matrix(0.9869 0.1611 -0.1611 0.9869 102.2435 297.0269)"><tspan x="0" y="0" fill="#FFFFFF" font-family="'Arial-Black'" font-size="48">#</tspan><tspan x="31.7" y="0" fill="#FFFFFF" font-family="'Arial-Black'" font-size="72">1</tspan></text>
	</g>
</g>
<g id="Capa_6">
	<g>
		<polygon fill="#FCDF51" points="305.7,390.6 250.8,355.9 268.4,261.8 		"/>
		<polygon fill="#D8BE50" points="332.4,333 305.7,390.6 268.4,261.8 		"/>
		<polygon fill="#FCDF51" points="427.3,320.6 379.3,403.5 305.7,390.6 		"/>
		<polygon fill="#D8BE50" points="326.8,469.9 257.3,535.7 305.7,390.6 		"/>
		<polygon fill="#FCDF51" points="420.4,489.9 326.8,469.9 305.7,390.6 		"/>
		<polygon fill="#FCDF51" points="305.7,390.6 257.3,535.7 247.4,440.5 246.4,440 		"/>
		<polygon fill="#FCDF51" points="305.7,390.6 246.4,440 163.3,394.8 		"/>
		<polygon fill="#D8BE50" points="305.7,390.6 163.3,394.8 250.8,355.9 		"/>
		<polygon fill="#D8BE50" points="427.3,320.6 305.7,390.6 332.4,333 		"/>
		<polygon fill="#D8BE50" points="420.4,489.9 305.7,390.6 379.3,403.5 		"/>
	</g>
	<g display="none">
		<g display="inline">
			<path fill="#DD4747" d="M486.8,444.4c37.6-15.9,73.7-34.2,108-54.7c-6.4,22-13.7,43.9-21.8,65.8c23.1,4.3,46.8,7.7,70.9,10.2
				c-37.5,22.6-76.9,42.8-118,60.4C512.1,499.1,499.1,471.9,486.8,444.4z"/>
			<path fill="#DD4747" d="M176.2,444.4c-37.6-15.9-73.7-34.2-108-54.7c6.4,22,13.7,43.9,21.8,65.8c-23.1,4.3-46.8,7.7-70.9,10.2
				c37.5,22.6,76.9,42.8,118,60.4C150.9,499.1,163.9,471.9,176.2,444.4z"/>
			<path fill="#C1272D" d="M556.9,449.9c-23.9-0.9-47.5-2.7-70.7-5.4c5.1,29.6,10.3,59.1,15.4,88.7c25.4,2.4,51.2,3.7,77.2,4
				C571.5,508.1,564.2,479,556.9,449.9z"/>
			<path fill="#C1272D" d="M101.1,447.6c25.5,0,50.8-1,75.7-3.1c-5.1,29.6-10.3,59.1-15.4,88.7c-27.2,1.7-54.8,2.3-82.7,1.6
				C86.2,505.7,93.7,476.6,101.1,447.6z"/>
			<path fill="#DD4747" d="M558.9,448.9C408.6,487,251.1,486.7,101,448.1c-7.5,29.1-15,58.1-22.5,87.2
				c164.8,42.5,337.6,42.7,502.4,0.9C573.6,507,566.2,477.9,558.9,448.9z"/>
		</g>
	</g>
	<g>
		<g>
			<path fill="#DD3A51" d="M392.6,416.8c17.8-11.2,34.5-23.4,50-36.5c-1.3,11.5-2.9,23.1-4.9,34.6c12.2,0.1,24.5-0.2,36.9-1.1
				c-16.6,14.4-34.4,27.8-53.5,40.2C411,441.9,401.5,429.5,392.6,416.8z"/>
			<path fill="#DD3A51" d="M228.4,442.7c-22.1-5.1-43.8-11.8-65-20c6,10.8,12.6,21.5,19.7,32.1c-12,3.9-24.3,7.4-36.9,10.4
				c23.2,9,46.9,16.3,71,22C221,472.4,224.7,457.6,228.4,442.7z"/>
			<path fill="#A3192D" d="M429.2,413.4c-12.4,1.7-24.8,2.9-37.2,3.6c5.4,14.3,11.1,28.6,17.1,42.7c13.5-1.2,27.1-2.9,40.7-5.2
				C442.6,440.9,435.8,427.2,429.2,413.4z"/>
			<path fill="#A3192D" d="M188.3,450c13.9-1.9,27.5-4.3,40.7-7.3c0.5,15.3,1.2,30.7,2.3,46.1c-14.3,3.1-28.9,5.6-43.9,7.4
				C187.4,480.8,187.7,465.4,188.3,450z"/>
			<path fill="#D82738" d="M430,412.3c-72.6,32-155.7,46.2-241.7,37.5c-0.6,15.4-0.9,30.8-0.9,46.3c93.3,8.7,183.9-7.2,263.2-42.6
				C443.5,439.9,436.6,426.2,430,412.3z"/>
		</g>
	</g>
</g>
</svg>
