<?xml version="1.0" encoding="utf-8"?>
<!-- Generator: Adobe Illustrator 17.1.0, SVG Export Plug-In . SVG Version: 6.00 Build 0)  -->
<!DOCTYPE svg PUBLIC "-//W3C//DTD SVG 1.1//EN" "http://www.w3.org/Graphics/SVG/1.1/DTD/svg11.dtd">
<svg version="1.1" xmlns="http://www.w3.org/2000/svg" xmlns:xlink="http://www.w3.org/1999/xlink" x="0px" y="0px"
	 viewBox="0 0 545.2 455.7" enable-background="new 0 0 545.2 455.7" xml:space="preserve">
<g id="Fondo" display="none">
	<circle display="inline" fill="#8A4CCC" cx="293" cy="253" r="252.3"/>
</g>
<g id="Monos">
	<g>
		<path fill="#9E8D7B" d="M393.8,313.1c-30.4,24.1-183,33.9-191-19.6c-2.3-13.7,15.6-32.6,32.9-47.2c18.8-11.7,37.3-14,45.4-11.7
			c23.7,6.4,77,23.3,87.6,4.7C387.5,262.7,429.4,285.4,393.8,313.1z"/>
	</g>
	<g>
		<polygon fill="#998675" points="264.5,258.5 275.4,264 273.6,276.1 261.5,278.1 255.9,267.2 		"/>
		<polygon fill="#662D91" points="262.6,247 278.5,244.5 287,259.3 275.5,264 264.6,258.6 		"/>
		<polygon fill="#361F4F" points="261.4,278 273.5,276 282.8,286.3 270.5,295.6 255.9,290.7 		"/>
		<polygon fill="#4D296D" points="243.4,266.4 255.9,267.3 261.5,278.1 255.9,290.7 241.9,281.3 		"/>
		<polygon fill="#7B44AA" points="246.8,249.7 262.6,247 264.5,258.6 255.9,267.2 243.4,266.4 		"/>
		<polygon fill="#4D296D" points="275.5,264.1 287,259.3 293.2,272.9 282.8,286.4 273.6,276.1 		"/>
		<polygon fill="#662D91" points="263.2,250.6 283.4,260.8 280,283.2 257.6,286.8 247.3,266.7 		"/>
		<polygon fill="#CC17CC" points="264.5,258.4 275.7,264.1 273.8,276.5 261.4,278.5 255.6,267.3 		"/>
	</g>
	<g>
		<path fill="#038E81" d="M235.1,228.6c0,0,19,8.1,32,23.4c-17,13.4,19.4,26.9-3.4,40.3c-11.2,6.7-6.5-17.4-16.3-16.1
			c-12.5,1.8-2.4,23.2,3,25.4c21.4,9.8,39.4,11.5,49.3-3.7c5.8-8.5,8.9-29.9,6.2-40.6c-2.7-10.7-11.6-14.3-18.3-21.9
			c-9.8-10.7-10.3-34.8-10.3-34.8C247.4,200.6,235.1,228.6,235.1,228.6z"/>
	</g>
	<path display="none" fill="#4EDD70" d="M-27,343.9c0,33.8-27.7,61.2-61.5,61.2l0,0c-33.8,0-61.5-27.4-61.5-61.2V170.4
		c0-33.8,27.7-61.2,61.5-61.2l0,0c33.8,0,61.5,27.4,61.5,61.2V343.9z"/>
	<g display="none">
		<path display="inline" fill="#FFFFFF" d="M272.5,285.5c-7.3,22-15.3,52.3-18.5,69.4c-6.4,34.3-27.7,61.2-61.5,61.2
			c-16.9,0-31.9-7.2-43.3-18.6c-11.4-11.4-19.2-26.9-21.9-43.6c-3.2-20.4-1.4-62.5,14.2-113.4C173.3,268.2,223.3,279.7,272.5,285.5z
			"/>
		<g display="inline">
			<path fill="#FFFFFF" d="M271,285.1c-7.9,23.7-14,47.8-19,72.2c-4.5,21.9-16.5,43.4-37.6,52.9c-25.7,11.7-54.9-0.3-71.1-21.7
				c-14-18.5-16.5-41-15.7-63.4c1.1-28.5,7-56.9,15.3-84.2c-0.8,0.2-1.7,0.4-2.5,0.7c35.9,30.9,86.4,39.9,132,45.4
				c1.9,0.2,1.9-2.8,0-3c-44.7-5.4-94.7-14.2-129.9-44.5c-0.9-0.7-2.2-0.5-2.5,0.7c-8,26.3-13.6,53.5-15.2,81.1
				c-1.2,20.6,0.2,40.9,9.9,59.4c11.6,22,33.9,37.3,59.1,37c20.7-0.2,38.1-12,49-29c8.9-13.9,11.5-29.7,15.1-45.5
				c4.4-19.3,9.7-38.4,15.9-57.2C274.5,284.1,271.6,283.3,271,285.1z"/>
		</g>
	</g>
	<g display="none">
		<g display="inline">
			<path d="M137.9,251.7c21.8,23.9,51.2,38.5,77.3,57.1c0.3,0.2,0.7,0.1,0.9-0.1c7.5-9.3,16-17.6,24.7-25.8
				c1.6-1.5,8.3,11.6,9.1,13.1c2.6,5.5,4.4,11.4,5.5,17.3c0.1,0.5,0.7,0.7,1.1,0.4c3.4-2,6.6-4,9.9-6.3c0.8-0.5,0-1.8-0.8-1.3
				c-0.9,0.6-8.9,6-9.1,5.1c-0.7-3.8-1.9-7.6-3.3-11.2c-2.6-7-6.5-13.4-11-19.3c-0.3-0.4-0.8-0.5-1.2-0.2
				c-8.2,7.8-16.4,15.6-23.7,24.2c-2.5,2.9-3.7,1.1-6.3-0.7c-2.1-1.5-4.2-2.9-6.4-4.3c-4.4-2.9-8.9-5.8-13.4-8.6
				c-18.6-11.9-37.4-24.1-52.3-40.5C138.3,250,137.2,251,137.9,251.7L137.9,251.7z"/>
		</g>
	</g>
	<g display="none">
		<g display="inline">
			<path d="M200.9,416.2c15.3-14.1,22.5-33.5,27.8-53.1c6.2-23.2,10.3-47.1,20.5-69c0.4-0.9-0.9-1.6-1.3-0.8
				c-9.4,20.2-13.8,42.1-19.2,63.6c-5.3,21.3-12.3,42.9-28.9,58.2C199.1,415.8,200.2,416.8,200.9,416.2L200.9,416.2z"/>
		</g>
	</g>
	<g display="none">
		<path display="inline" fill="#00A99D" d="M382.7,50.8c-0.1,0.1-0.2,0.3-0.3,0.4c-0.6,0.7-1.4,1.6-2.4,2.7
			c-0.2,0.2-0.4,0.4-0.6,0.7c-0.2,0.2-0.4,0.4-0.5,0.6c-0.1,0.1-0.3,0.3-0.4,0.5c-0.4,0.5-0.9,1-1.4,1.5c-0.3,0.3-0.5,0.6-0.8,0.8
			c-0.3,0.4-0.7,0.7-1,1.1c-0.3,0.3-0.6,0.7-1,1c-0.7,0.7-1.4,1.4-2.1,2.2c-0.7,0.7-1.5,1.5-2.3,2.2c-0.3,0.3-0.7,0.6-1,1
			c-0.4,0.3-0.8,0.7-1.2,1c0,0-0.1,0.1-0.1,0.1c-0.3,0.3-0.7,0.7-1,1c0,0,0,0.1,0,0.1H366v-0.2c0,0,0.2,0.1,0.1,0.1
			c-0.3,0.3-0.5,0.6-0.9,0.8c-0.5,0.4-0.9,0.8-1.4,1.2c-0.1,0.1-0.2,0.2-0.3,0.3c-0.2,0.1-0.4,0.3-0.6,0.5c-0.1,0.1-0.2,0.1-0.3,0.2
			c-0.6,0.5-1.2,0.9-1.8,1.3c-0.1,0.1-0.2,0.1-0.3,0.2c-0.2,0.1-0.4,0.3-0.6,0.4c-0.3,0.2-0.6,0.4-0.9,0.6c-0.6,0.4-1.2,0.7-1.7,1
			c-0.6,0.3-1.1,0.6-1.7,0.9c-0.3,0.1-0.5,0.2-0.8,0.3c0,0,0,0-0.1,0c-0.5,0.2-1.1,0.4-1.6,0.6c-0.2,0.1-0.4,0.1-0.6,0.2
			c-0.4,0.1-0.7,0.2-1,0.2c-1.2,0.2-2.4,0.2-3.4-0.1c-0.2-0.1-0.4-0.1-0.6-0.2c-0.2-0.1-0.3-0.1-0.5-0.2c-0.2-0.1-0.3-0.1-0.5-0.2
			c-0.2-0.1-0.3-0.2-0.4-0.3c-1-0.7-1.9-1.9-2.7-3.4c-3.3-7.7,3.3-16.9,9.8-20.8l0.4-1.2l7.9-25.2C376.3,22.3,394.5,37.4,382.7,50.8
			z"/>
		<g display="inline">
			<path fill="#087773" d="M381.7,49.8c-2.1,2.4-4.2,4.8-6.4,7.2c-1.7,1.8-3.5,3.6-5.2,5.3c-1.1,1.1-2.2,2.1-3.3,3.1
				c-1.5,1.3-1.6,0.6-0.2,0.6c-0.8,0-1.5,0.7-1.5,1.5c0.6-1.3,0.4-1.3-0.7-0.1c-0.7,0.6-1.4,1.1-2.1,1.7c-1,0.7-2,1.4-3,2.1
				c-3.1,2.1-8,5-11.8,3c-6.9-3.7-1.8-13.5,1.5-17.5c2-2.5,5.3-3.5,6.3-6.5c2.6-8.4,5.3-16.7,7.9-25.1c-0.5,0.4-1,0.7-1.4,1.1
				C374.1,24.5,392.4,36.6,381.7,49.8c-1.2,1.5,0.9,3.6,2.1,2.1c12.3-15.1-6.6-30.7-22.1-28.8c-0.7,0.1-1.2,0.4-1.4,1.1
				c-1.8,5.7-3.6,11.5-5.4,17.2c-0.8,2.6-1.6,5.2-2.4,7.8c-0.4,1.2-1.4,1.5-2.3,2.3c-2.4,2.1-4.4,4.4-6.1,7
				c-4.7,7.4-2.9,19.9,7.7,19.2c3.6-0.3,7.1-2.6,10-4.5c1.6-1.1,6.3-3.7,6.3-5.7c-0.5,0.5-1,1-1.5,1.5c2.5,0,6.3-5.2,7.8-6.8
				c3.3-3.3,6.4-6.8,9.4-10.3C385,50.4,382.9,48.3,381.7,49.8z"/>
		</g>
	</g>
	<path id="Tubo" display="none" fill="#7DA6D3" stroke="#7DA6D3" stroke-miterlimit="10" d="M547.5,199.3l-39.7-7.7
		c-1.2-0.2-2.6-0.4-2.8,0.7l8.3,11.6l-20.9,107.6c-1.2,6.2,3.6,13.3,9.8,14.5l0.2,0c6.2,1.2,11.3-4,12.5-10.2l20.9-107.6l13-7.5
		C549.1,199.8,548.7,199.6,547.5,199.3z"/>
	<g>
		<g>
			<g>
				<g>
					<path fill="#087773" stroke="#087773" stroke-width="0.25" stroke-miterlimit="10" d="M237.3,73c-0.4-0.2-1.2,0.3-2.3,1.3
						c-0.6,0.5-1.2,1-1.9,1.6c-0.7,0.6-1.4,1.2-2.1,1.8c-0.8,0.6-1.5,1.2-2.2,1.7c-0.7,0.5-1.4,1-1.9,1.4c-1.2,0.8-2,1.3-2,1.3
						c-2.3,1.6-3.9,3.5-3.3,4.7c0.5,1.1,3.3,0.8,5.9-1c0,0,0.8-0.6,2-1.6c0.6-0.5,1.2-1.1,1.9-1.8c0.7-0.7,1.4-1.5,2.1-2.2
						c0.6-0.8,1.3-1.6,1.8-2.4c0.5-0.8,1-1.6,1.4-2.3C237.4,74.3,237.7,73.3,237.3,73z"/>
				</g>
			</g>
		</g>
		<g>
			<g>
				<g>
					<path fill="#087773" stroke="#087773" stroke-width="0.25" stroke-miterlimit="10" d="M260.5,101.7c-0.4-0.2-1.2,0.6-2.3,1.9
						c-0.6,0.6-1.2,1.3-1.8,2.1c-0.7,0.8-1.4,1.6-2.1,2.3c-0.8,0.7-1.5,1.5-2.2,2.2c-0.7,0.7-1.4,1.3-2,1.8c-1.2,1-2,1.6-2,1.6
						c-2.4,1.9-4.2,4-3.6,5.1c0.6,1.1,3.6,0.6,6.4-1.6c0,0,0.9-0.8,2.1-2c0.6-0.6,1.3-1.4,2-2.2c0.7-0.8,1.4-1.8,2.1-2.7
						c0.6-1,1.2-2,1.8-2.9c0.5-1,0.9-1.9,1.2-2.7C260.7,103.1,260.9,101.9,260.5,101.7z"/>
				</g>
			</g>
		</g>
		<g>
			<g>
				<g>
					<path fill="#087773" stroke="#087773" stroke-width="0.25" stroke-miterlimit="10" d="M266.4,117.5c-0.3-0.3-1.3,0.2-2.5,1.1
						c-0.6,0.4-1.3,1-2,1.6c-0.7,0.6-1.5,1.2-2.2,1.7c-0.8,0.6-1.5,1.2-2.2,1.8c-0.7,0.5-1.4,1-2,1.4c-1.1,0.9-1.9,1.4-1.9,1.4
						c-2.3,1.7-3.6,3.8-3,4.9c0.6,1,3.3,0.5,5.7-1.3c0,0,0.7-0.7,1.9-1.7c0.6-0.5,1.2-1.1,1.9-1.8c0.6-0.7,1.3-1.4,2-2.2
						c0.7-0.8,1.3-1.5,1.9-2.3c0.6-0.8,1-1.5,1.4-2.2C266.3,118.8,266.7,117.8,266.4,117.5z"/>
				</g>
			</g>
		</g>
		<g>
			<g>
				<g>
					<path fill="#087773" stroke="#087773" stroke-width="0.25" stroke-miterlimit="10" d="M165.9,63.1c-0.4-0.2-1.1,0.3-2,1.3
						c-0.4,0.5-0.8,1.2-1.3,1.9c-0.4,0.7-0.8,1.6-1.1,2.4c-0.3,0.8-0.6,1.7-0.8,2.6c-0.2,0.8-0.3,1.7-0.4,2.3
						c-0.1,0.7,0,1.3-0.1,1.7c0,0.4,0,0.6,0,0.6c0,0.7,0.2,1.4,0.4,1.9c0.1,0.3,0.2,0.6,0.3,0.8c0.2,0.2,0.3,0.5,0.5,0.6
						c0.6,0.8,1.3,1.1,1.9,0.9c0.6-0.2,1-0.9,1.2-1.7c0-0.2,0.1-0.4,0.1-0.6c0-0.2,0.1-0.5,0.1-0.7c0.1-0.5,0-1,0-1.6
						c0,0-0.1-0.7-0.1-1.8c0-0.6,0-1.2,0-1.9c0.1-0.7,0.2-1.5,0.3-2.2c0.2-0.7,0.3-1.5,0.5-2.2c0.2-0.7,0.3-1.4,0.5-2
						C166.1,64.2,166.2,63.3,165.9,63.1z"/>
				</g>
			</g>
		</g>
		<g>
			<g>
				<g>
					<path fill="#087773" stroke="#087773" stroke-width="0.25" stroke-miterlimit="10" d="M121.8,90.7c-0.9,0-1.2,3.2-0.3,6.3
						c0.4,1.6,1.2,3.1,2,4.1c0.7,1.1,1.4,1.7,1.4,1.7c1,0.9,2.3,1.4,3.3,1.3c1,0,1.6-0.6,1.7-1.1c0.1-0.6-0.2-1.2-0.5-1.8
						c-0.4-0.6-0.9-1.1-1.5-1.7c0,0-0.5-0.3-1.1-1c-0.6-0.6-1.4-1.7-2-2.8C123.4,93.4,122.6,90.6,121.8,90.7z"/>
				</g>
			</g>
		</g>
		<path fill="#4FBA8E" d="M250.6,116.6c2.8,10.5,2.7,21.8-0.9,33c-7.4,22.9-22.2,67.5-25.7,91.2c-0.6,3.7-1.1,8.1-1.5,12.9
			c-0.1,1.1-0.2,2.3-0.3,3.5c-1.8,23.7-2.1,55.7-0.9,73.5c1.8,27.5-6.7,53.1-26.9,67.7c-2.9,2.1-6,4-9.4,5.6
			c-3.5,1.7-7.3,3-11.3,4.1c-10.6,2.8-21.1,2.9-31.1,0.7c-6.5-1.4-12.8-3.8-18.7-7c-14.8-8.1-27-21.2-34.1-36.9
			c-8.5-18.8-17.5-59.4-15.3-112.1c0-1.2,0.1-2.3,0.2-3.5c0.5-9.8,1.4-20.1,2.8-30.7c4.3-33.3,14.5-74.7,35.1-100.2
			C136.2,88.8,160,76,181.6,72.7c8.2-1.3,16.2-1.1,23.7,0C228.3,78.7,245.1,96,250.6,116.6z"/>
		<path fill="#4EDD70" d="M224,149.1c-7.4,22.9-22.2,67.5-25.7,91.2c-0.2,1.3-0.4,2.8-0.6,4.2c-0.3,2.7-0.6,5.6-0.9,8.7
			c-0.1,1.1-0.2,2.3-0.3,3.5c-0.5,5.9-0.8,12.2-1.1,18.7c-0.6,0.4-1.2,0.8-1.9,1.2c0,0-1.8,4-4.4,10.4c-9.1,22-28.2,72.6-21.4,92.5
			c1.9,5.6,4.1,10.2,6.4,13.9c-1.7,1.6-3.5,3-5.4,4.4c-2.9,2.1-6.1,4-9.4,5.6c-3.5,1.7-7.3,3.1-11.3,4.1c-1.8,0.5-3.6,0.9-5.4,1.2
			c-6.5-1.4-12.8-3.8-18.7-7c-14.8-8.1-27-21.2-34.1-36.9c-5.9-13-12.1-36.7-14.5-67.6c-1-12.6-1.4-26.5-0.9-41.3
			c0-1.1,0.1-2.1,0.1-3.2c0.1-1.2,0.1-2.3,0.2-3.5c0.5-9.8,1.4-20.1,2.8-30.7c4.3-33.3,14.5-74.7,35.1-100.2
			C136.2,88.8,160,76,181.6,72.7c22,6.4,38,23.3,43.3,43.4C227.7,126.6,227.7,137.9,224,149.1z"/>
		<g>
			<path fill="#7DA6D3" d="M251.7,168.6c0,0,0.7,13.9-3.5,26.6c-7,20.7-19.4,41.2-37.9,30.6c-3.4-2-5.9-6.8-8.9-8.2
				c-2.6,0.2-9.5,4.1-15,6.9c-31.5,13.7-47.8-8-63.5-29.8l-0.2-0.6c-12.3-1.4-33.1-4.4-40-6.6c0,0,1.7-11.4,5.5-23.8
				c4.2-13.3,9.8-24,9.8-24C153.7,145.5,200.6,142.8,251.7,168.6z"/>
		</g>
		<g>
			<path fill="#6187A3" d="M251.5,171.8c0,0,1,10.6-3.3,23.3c-7,20.7-17.6,39.7-36.1,29c-3.4-2-5.9-6.8-8.9-8.2
				c-2.6,0.2-11.3,5.7-16.8,8.5c-31.5,13.7-45.3-9.2-61-31.1l16.3-46.8C197.4,152.4,203.4,151.3,251.5,171.8z"/>
		</g>
		<g>
			<path fill="#A9D2F7" d="M240.7,179.1c-0.3,16.4-10.6,42-26.4,33.9c-2.9-1.5-7.3-4.6-9.8-5.7c-1.4,0.1-5.4,1-9.3,2.3
				c-2.1,0.7-4.2,1.5-6,2.3c-0.6,0.3-1.2,0.5-1.8,0.7c-1,0.4-2.1,0.8-3.1,1.1c-7.5,2.5-13.7,3-18.8,2c-11.2-2.4-16.8-12.6-18.6-26.3
				c-1.4-10.9,7.9-27.1,7.9-27.1c14.3,0.1,27.5,1.5,39,3.5c5.9,1,11.3,2.2,16.2,3.3c0.7,0.2,1.4,0.4,2.1,0.5
				c1.8,0.5,3.6,0.9,5.2,1.4C232.2,175.2,240.7,179.1,240.7,179.1z"/>
		</g>
		<g>
			<path fill="#FFFFFF" d="M222.5,253.7c-0.1,1.1-0.2,2.3-0.3,3.5c-1.8,23.7-2.1,55.7-0.9,73.5c1.8,27.5-6.7,53.1-26.9,67.7
				c-2.9,2.1-6,4-9.4,5.6c-6.4-2.9-12.4-10.4-17.2-24.4c-8.7-25.8,25.8-102.9,25.8-102.9c8.3-5.1,10.9-9.2,14.5-18.6
				C208,258,220.1,254.5,222.5,253.7z"/>
		</g>
		<g>
			<g>
				<path fill="#9EB7CC" d="M208.5,258.6c8.6,4.2,10.9,14.7,11.6,23.3c0,0.5,0.8,0.5,0.8,0c-0.7-9-3.1-19.7-11.9-24
					C208.4,257.7,208,258.4,208.5,258.6L208.5,258.6z"/>
			</g>
		</g>
		<g>
			<path fill="#FFFFFF" d="M212,280.5c-4.4,33.5,9.1,84.1-14.6,114.4c-1,1.2-1.9,2.4-2.9,3.5c-5.9,4.3-0.6-130.7,4.3-126.6
				C202.6,275,207.1,277.9,212,280.5z"/>
			<g>
				<path fill="#9EB7CC" d="M210.8,280.5c-2.9,23.2,1,46.8-0.4,70.1c-0.7,12.3-3.1,24.7-8.8,35.7c-1.3,2.4-2.8,4.7-4.4,6.9
					c-0.3,0.3-2.5,3.8-3.2,4.1c0.5-0.2,0.9,0.4,0.7,0.1c-0.5-0.9-0.6-2.3-0.7-3.3c-1.5-11.2-1-22.8-0.8-34
					c0.2-15.8,0.8-31.5,1.7-47.3c0.6-10,1.2-20.1,2.4-30c0.3-2.9,0.7-5.9,1.4-8.8c0.4-1.4,0.9-1.1-0.3-1.3c1.4,0.2,4.2,3.3,5.4,4.1
					c2.5,1.7,5.1,3.2,7.8,4.6c1.3,0.7,2.5-1.3,1.2-2c-3.2-1.7-6.2-3.6-9.2-5.6c-1.5-1.1-2.8-2.6-4.5-3.3c-0.8-0.3-1.6,0.4-1.9,1
					c-1.4,2.3-1.5,5.7-1.8,8.3c-1.7,12.5-2.4,25.1-3,37.7c-0.8,15.7-1.3,31.4-1.5,47.1c-0.1,10.3-0.6,21.1,1.1,31.3
					c0.2,1.1,1.5,5.6,3.5,3.4c9-10.1,13.7-22.2,16-35.4c4.8-27.6-1.5-55.6,1.9-83.3C213.4,279,211,279,210.8,280.5z"/>
			</g>
		</g>
		<g>
			<path fill="#FFFFFF" d="M212,280.5c-4.4,33.5,9.1,84.1-14.6,114.4c-1,1.2-1.9,2.4-2.9,3.5c-5.9,4.3-12.8,7.6-20.7,9.7
				c-17.5,4.7-35,1.7-49.8-6.3c-14.8-8.1-27-21.2-34.1-36.9c-8.5-18.8-17.5-59.4-15.3-112.1c50.9,6.8,112,5.8,112,5.8
				C192.4,266.9,200.8,274.7,212,280.5z"/>
		</g>
		<g>
			<g>
				<path fill="#9EB7CC" d="M74.2,254.2c25.1,14.9,50.5,29.6,78.4,38.4c0.2,0.1,0.3,0,0.4-0.2c8.8-12.9,20.7-24.5,33.7-33.2
					c0.4-0.3,0-1-0.4-0.7c-9,6-17,13.2-24.2,21.3c-2.4,2.6-4.6,5.3-6.8,8.1c-0.8,1-1.5,2-2.2,3c-1,1.3-0.3,0.9-2.1,0.4
					c-27.2-8.6-52.1-23.3-76.5-37.8C74.2,253.3,73.8,253.9,74.2,254.2L74.2,254.2z"/>
			</g>
		</g>
		<g>
			<g>
				<g>
					<path fill="#087773" stroke="#087773" stroke-width="0.25" stroke-miterlimit="10" d="M111.4,93.6c-0.4,0.1-0.5,1.4-0.3,3.3
						c0.1,0.9,0.3,2,0.6,3.2c0.3,1.2,0.6,2.4,1,3.6c0.4,1.2,0.9,2.4,1.3,3.5c0.4,1.1,0.9,2.1,1.3,3c0.4,0.9,0.8,1.6,1,2.1
						c0.3,0.5,0.4,0.8,0.4,0.8c0.2,0.4,0.5,0.8,0.8,1.2c0.3,0.4,0.6,0.7,0.9,1c0.6,0.6,1.1,1.2,1.7,1.6c1.2,0.7,2.1,0.9,2.5,0.5
						c0.4-0.4,0.4-1.4,0-2.5c-0.2-0.5-0.4-1.3-0.8-1.9c-0.2-0.3-0.4-0.7-0.6-1c-0.2-0.4-0.4-0.8-0.6-1.1c0,0-0.2-0.3-0.4-0.7
						c-0.3-0.4-0.7-1.1-1.1-1.8c-0.4-0.8-1-1.7-1.5-2.7c-0.5-1-1.1-2.1-1.6-3.2c-0.5-1.1-1-2.2-1.5-3.2c-0.4-1-0.9-2-1.3-2.8
						C112.5,94.6,111.9,93.5,111.4,93.6z"/>
				</g>
			</g>
		</g>
		<g>
			<g>
				<g>
					<path fill="#087773" stroke="#087773" stroke-width="0.25" stroke-miterlimit="10" d="M143.8,73.8c-0.4-0.1-1,0.9-1.6,2.6
						c-0.3,0.8-0.5,1.8-0.8,2.9c-0.2,1.1-0.4,2.2-0.6,3.4c-0.1,1.2-0.2,2.3-0.3,3.4c0,1.1,0,2.1,0,3c0,0.9,0.1,1.6,0.1,2.1
						c0,0.5,0.1,0.8,0.1,0.8c0.1,0.9,0.3,1.7,0.6,2.5c0.3,0.7,0.5,1.4,0.9,1.9c0.7,1,1.5,1.5,2,1.3c0.6-0.2,0.9-1,1-2.1
						c0-0.5,0.1-1.2,0.1-1.9c0-0.7-0.1-1.4-0.2-2.3c0,0,0-0.3-0.1-0.7c-0.1-0.5-0.2-1.1-0.3-1.9c-0.1-0.8-0.2-1.8-0.3-2.8
						c0-1-0.1-2.1-0.2-3.2c0-1.1,0-2.2-0.1-3.2c0-1,0-2,0-2.9C144.3,75.1,144.2,73.9,143.8,73.8z"/>
				</g>
			</g>
		</g>
		<g>
			<g>
				<g>
					<path fill="#087773" stroke="#087773" stroke-width="0.25" stroke-miterlimit="10" d="M137.4,111.8c-0.4,0.2-0.5,0.9-0.3,1.8
						c0.1,0.5,0.3,1,0.4,1.6c0.2,0.6,0.5,1.1,0.8,1.7c0.3,0.6,0.6,1.1,0.9,1.6c0.3,0.5,0.7,1,1,1.3c0.3,0.4,0.6,0.7,0.8,0.9
						c0.2,0.2,0.3,0.3,0.3,0.3c0.3,0.4,0.8,0.6,1.2,0.8c0.4,0.2,0.8,0.3,1.2,0.3c0.8,0,1.4-0.3,1.7-0.8c0.3-0.5,0.3-1.2,0.1-1.8
						c-0.1-0.3-0.2-0.6-0.4-0.9c-0.2-0.3-0.4-0.6-0.7-0.8c0,0-0.4-0.3-1-0.9c-0.3-0.3-0.6-0.6-1-1c-0.4-0.4-0.7-0.8-1.1-1.2
						c-0.4-0.4-0.8-0.8-1.1-1.2c-0.4-0.4-0.7-0.8-1-1.1C138.4,112,137.8,111.6,137.4,111.8z"/>
				</g>
			</g>
		</g>
		<g>
			<g>
				<g>
					<path fill="#087773" stroke="#087773" stroke-width="0.25" stroke-miterlimit="10" d="M163.8,86.4c-0.4-0.2-1.1,0.5-1.9,1.8
						c-0.4,0.6-0.8,1.4-1.2,2.2c-0.4,0.8-0.7,1.7-1,2.7c-0.3,0.9-0.5,1.9-0.8,2.7c-0.2,0.9-0.4,1.7-0.5,2.4
						c-0.2,1.4-0.3,2.4-0.3,2.4c-0.2,3,1,5.3,2.3,5.2c1.2-0.1,2.1-2.3,2.2-4.9c0,0,0-0.9,0.1-2.2c0.1-0.7,0.1-1.4,0.2-2.3
						c0.1-0.8,0.2-1.7,0.3-2.6c0.2-0.9,0.3-1.8,0.4-2.6c0.2-0.8,0.3-1.6,0.4-2.3C164.1,87.5,164.1,86.6,163.8,86.4z"/>
				</g>
			</g>
		</g>
		<g>
			<g>
				<g>
					<path fill="#087773" stroke="#087773" stroke-width="0.25" stroke-miterlimit="10" d="M188.1,60.9c-0.4,0-0.9,0.9-1.3,2.2
						c-0.2,0.7-0.4,1.5-0.6,2.3c-0.3,0.9-0.5,1.7-0.8,2.6c-0.3,0.9-0.5,1.8-0.7,2.6c-0.3,0.8-0.5,1.6-0.8,2.2
						c-0.4,1.3-0.7,2.2-0.7,2.2c-0.9,2.6-0.8,5,0.4,5.5c1.1,0.5,2.9-1.4,3.9-4.2c0,0,0.2-0.9,0.5-2.4c0.1-0.7,0.3-1.5,0.5-2.5
						c0.1-0.9,0.2-1.9,0.3-2.9c0.1-1,0.2-1.9,0.2-2.9c0-0.9-0.1-1.8-0.2-2.5C188.8,61.9,188.6,60.9,188.1,60.9z"/>
				</g>
			</g>
		</g>
		<g>
			<g>
				<g>
					<path fill="#087773" stroke="#087773" stroke-width="0.25" stroke-miterlimit="10" d="M221.1,66.7c-0.2-0.4-1.3-0.1-2.9,0.5
						c-0.8,0.4-1.6,0.9-2.5,1.4c-0.9,0.6-1.8,1.3-2.7,2c-0.9,0.8-1.7,1.6-2.4,2.4c-0.7,0.8-1.3,1.6-1.9,2.3
						c-0.5,0.7-0.9,1.3-1.2,1.8c-0.3,0.4-0.4,0.7-0.4,0.7c-0.5,0.8-0.7,1.6-0.9,2.3c-0.1,0.4-0.2,0.7-0.2,1.1c0,0.3,0,0.7,0,1
						c0,1.2,0.4,2,1,2.2c0.6,0.2,1.3-0.3,2-1.1c0.2-0.2,0.3-0.4,0.5-0.7c0.2-0.2,0.4-0.5,0.6-0.8c0.4-0.5,0.7-1.2,1.1-1.8
						c0,0,0.5-0.9,1.2-2.2c0.4-0.6,0.9-1.4,1.4-2.2c0.6-0.7,1.2-1.6,1.8-2.4c0.7-0.7,1.4-1.6,2-2.3c0.7-0.7,1.3-1.3,1.9-1.9
						C220.6,68,221.3,67.1,221.1,66.7z"/>
				</g>
			</g>
		</g>
		<g>
			<g>
				<g>
					<path fill="#087773" stroke="#087773" stroke-width="0.25" stroke-miterlimit="10" d="M206,93c-0.7-0.5-2.8,1.8-4.7,4.3
						c-0.9,1.2-1.8,2.5-2.4,3.4c-0.6,1-1,1.6-1,1.6c-1.1,2-1.2,4.1,0,4.7c1.1,0.6,2.9-0.5,4-2.5c0,0,0.3-0.7,0.8-1.7
						c0.5-1,1.1-2.3,1.8-3.7C205.7,96.3,206.8,93.4,206,93z"/>
				</g>
			</g>
		</g>
		<g>
			<g>
				<g>
					<path fill="#087773" stroke="#087773" stroke-width="0.25" stroke-miterlimit="10" d="M179.2,104.9c-0.3-0.3-1.2,0.1-2.2,1.1
						c-1,1-2.1,2.5-2.8,4.3c-0.7,1.8-1,3.8-0.9,5.3c0.1,0.7,0.1,1.4,0.2,1.8c0.1,0.4,0.1,0.7,0.1,0.7c0.4,1.4,1.2,2.6,2,3.2
						c0.8,0.6,1.6,0.8,2.1,0.4c0.5-0.3,0.7-1.1,0.7-1.9c0-0.9-0.2-1.9-0.5-2.9c0,0,0-0.2-0.1-0.5c-0.1-0.3-0.2-0.7-0.3-1.2
						c-0.2-1-0.2-2.5,0-3.9c0.2-1.5,0.8-2.9,1.2-4.1C179.3,106,179.5,105.2,179.2,104.9z"/>
				</g>
			</g>
		</g>
		<g>
			<g>
				<g>
					<path fill="#087773" stroke="#087773" stroke-width="0.25" stroke-miterlimit="10" d="M249.1,94.2c-0.4-0.3-1.2,0.2-2.2,1.1
						c-0.6,0.4-1.2,0.8-1.8,1.3c-0.7,0.5-1.4,1-2.1,1.4c-0.7,0.4-1.4,0.9-2.1,1.3c-0.7,0.4-1.3,0.7-1.9,1c-1.1,0.5-1.9,0.9-1.9,0.9
						c-0.6,0.3-1.1,0.5-1.5,0.9c-0.2,0.2-0.4,0.3-0.6,0.5c-0.2,0.1-0.4,0.3-0.6,0.5c-0.7,0.6-1,1.3-0.9,1.9c0.2,0.6,0.8,1,1.9,1.1
						c0.3,0,0.5,0,0.8,0c0.3,0,0.6-0.1,0.9-0.2c0.6-0.1,1.3-0.3,1.9-0.7c0,0,0.8-0.5,2.1-1.2c0.6-0.4,1.3-0.9,2-1.4
						c0.7-0.6,1.4-1.2,2.1-1.9c0.7-0.7,1.3-1.4,1.9-2.1c0.5-0.7,1-1.4,1.4-2C249.2,95.4,249.4,94.4,249.1,94.2z"/>
				</g>
			</g>
		</g>
		<g>
			<g>
				<g>
					<path fill="#087773" stroke="#087773" stroke-width="0.25" stroke-miterlimit="10" d="M247.2,131c-0.3-0.3-1.2,0-2.3,0.6
						c-0.6,0.3-1.2,0.6-1.9,0.9c-0.7,0.3-1.4,0.6-2.2,0.9c-0.8,0.3-1.5,0.6-2.2,0.8c-0.7,0.2-1.4,0.4-1.9,0.6
						c-1.2,0.2-1.9,0.4-1.9,0.4c-2.3,0.5-4.1,1.5-4.1,2.8c0,1.2,2.3,2.2,5.1,1.6c0,0,0.9-0.3,2.2-0.7c0.7-0.2,1.4-0.6,2.2-0.9
						c0.8-0.4,1.6-0.9,2.4-1.3c0.8-0.5,1.5-1.1,2.1-1.6c0.6-0.6,1.2-1.2,1.6-1.7C247.1,132.2,247.5,131.3,247.2,131z"/>
				</g>
			</g>
		</g>
		<g>
			<g>
				<g>
					<path fill="#087773" stroke="#087773" stroke-width="0.25" stroke-miterlimit="10" d="M217.4,112.6c-0.7-0.5-2.4,0.8-4,2
						c-0.8,0.7-1.6,1.3-2.1,1.8c-0.6,0.5-0.9,0.8-0.9,0.8c-1.1,1-1.3,2.6-0.5,3.5c0.8,1,2.5,0.8,3.7-0.3c0,0,0.3-0.4,0.9-1
						c0.5-0.6,1.2-1.5,1.7-2.4C217.3,115.1,218.1,113.1,217.4,112.6z"/>
				</g>
			</g>
		</g>
		<path fill="#D7E9F4" d="M210.2,169.2l-25.8,44.6c-7.5,2.5-13.7,3-18.8,2c0.2-0.8,0.5-1.7,0.9-2.5l27.4-47.5
			C199.8,166.9,205.2,168,210.2,169.2z"/>
		<path fill="#D7E9F4" d="M217.5,171.1l-22.3,38.6c-2.1,0.7-4.2,1.5-6,2.3c-0.6,0.3-1.2,0.5-1.8,0.7l24.8-43
			C214.1,170.2,215.8,170.7,217.5,171.1z"/>
		<path fill="#9EB7CC" stroke="#9EB7CC" stroke-width="0.3323" stroke-miterlimit="10" d="M209.1,284.8c-0.5-2-2.7-3.2-4.8-2.6
			c-2.1,0.6-3.4,2.7-2.9,4.7c0.5,2,2.7,3.2,4.8,2.6C208.4,288.9,209.7,286.8,209.1,284.8z"/>
		<path fill="#9EB7CC" stroke="#9EB7CC" stroke-width="0.3323" stroke-miterlimit="10" d="M208.7,303.9c-0.5-2-2.7-3.2-4.8-2.6
			c-2.1,0.6-3.4,2.7-2.9,4.7c0.5,2,2.7,3.2,4.8,2.6C207.9,308,209.2,305.9,208.7,303.9z"/>
		
			<ellipse transform="matrix(0.9662 -0.2579 0.2579 0.9662 -76.8004 64.0335)" fill="#9EB7CC" stroke="#9EB7CC" stroke-width="0.3323" stroke-miterlimit="10" cx="205.7" cy="324.8" rx="4" ry="3.8"/>
		
			<ellipse transform="matrix(0.9662 -0.2579 0.2579 0.9662 -81.6234 64.8042)" fill="#9EB7CC" stroke="#9EB7CC" stroke-width="0.3323" stroke-miterlimit="10" cx="206.3" cy="343.6" rx="4" ry="3.8"/>
		
			<ellipse transform="matrix(0.9662 -0.2578 0.2578 0.9662 -56.6954 40.3364)" fill="#2F7F40" cx="125.5" cy="236.4" rx="3.4" ry="3.3"/>
		
			<ellipse transform="matrix(0.9662 -0.2578 0.2578 0.9662 -58.9785 47.3097)" fill="#2F7F40" cx="150.9" cy="248.6" rx="4.6" ry="4.3"/>
		
			<ellipse transform="matrix(0.9662 -0.2579 0.2579 0.9662 -48.0293 34.9597)" fill="#2F7F40" cx="109.3" cy="200.6" rx="1.8" ry="1.7"/>
		
			<ellipse transform="matrix(0.9662 -0.2577 0.2577 0.9662 -56.1194 31.9481)" fill="#2F7F40" cx="93.8" cy="230" rx="6.4" ry="6.1"/>
		
			<ellipse transform="matrix(0.9662 -0.2577 0.2577 0.9662 -30.1339 48.3819)" fill="#2F7F40" cx="169.5" cy="139.1" rx="4.1" ry="3.9"/>
		<path fill="#2F7F40" d="M201.5,253c0.7,2.4-0.9,5-3.5,5.7c-2.6,0.7-5.2-0.7-5.8-3.2c-0.7-2.4,0.9-5,3.5-5.7
			C198.3,249.2,200.9,250.6,201.5,253z"/>
		
			<ellipse transform="matrix(0.9662 -0.2577 0.2577 0.9662 -25.759 63.165)" fill="#2F7F40" cx="228.1" cy="129.8" rx="8" ry="7.6"/>
		
			<ellipse transform="matrix(0.9662 -0.2579 0.2579 0.9662 -21.6412 53.0694)" fill="#2F7F40" cx="191.4" cy="109" rx="2.1" ry="2"/>
		
			<ellipse transform="matrix(0.9662 -0.2576 0.2576 0.9662 -53.4552 61.2933)" fill="#2F7F40" cx="207.2" cy="234.6" rx="2.1" ry="2"/>
		
			<ellipse transform="matrix(0.9662 -0.2576 0.2576 0.9662 -53.1744 53.6439)" fill="#2F7F40" cx="178.1" cy="229.7" rx="2.1" ry="2"/>
		
			<ellipse transform="matrix(0.9662 -0.2577 0.2577 0.9662 -23.5017 40.8219)" fill="#2F7F40" cx="144" cy="110.1" rx="4.6" ry="4.3"/>
		<g opacity="0.4">
			<path fill="#898989" d="M222.5,253.7c-0.1,1.1-0.2,2.3-0.3,3.5c-1.8,23.7-2.1,55.7-0.9,73.5c1.8,27.5-6.7,53.1-26.9,67.7
				c-2.9,2.1-9.8,6.9-20.7,9.7c-3.8-1.7-3.8-7.9,0.4-14.6c16.3-15,23.2-38.4,21.5-63.3c-0.9-13.4-1-34.9-0.2-54.8
				c0.3-1.4,0.3-6.3,0.3-6.3l3.7,3.2c4-3.6,6-7.6,8.6-14.3C208,258,220.1,254.5,222.5,253.7z"/>
		</g>
	</g>
	<g>
		<g>
			<g>
				<g>
					<path fill="#087773" stroke="#087773" stroke-width="0.25" stroke-miterlimit="10" d="M289.1,20.3c-0.4,0.2-0.1,1.2,0.5,2.6
						c0.3,0.7,0.8,1.4,1.3,2.3c0.5,0.8,1.1,1.6,1.7,2.4c0.6,0.8,1.3,1.6,1.9,2.3c0.7,0.7,1.3,1.3,1.8,1.9c1.2,1,1.9,1.7,1.9,1.7
						c2.5,1.9,5.2,2.2,5.8,1.1c0.6-1.1-0.8-3.1-3-4.7c0,0-0.7-0.5-1.9-1.4c-0.5-0.4-1.2-0.9-1.9-1.5c-0.7-0.6-1.4-1.2-2.1-1.8
						c-0.7-0.6-1.4-1.3-2-1.9c-0.6-0.6-1.2-1.2-1.8-1.7C290.3,20.7,289.5,20.1,289.1,20.3z"/>
				</g>
			</g>
		</g>
		<g>
			<g>
				<g>
					<path fill="#087773" stroke="#087773" stroke-width="0.25" stroke-miterlimit="10" d="M246,62.9c-0.3,0.3,0,1.2,0.7,2.5
						c0.4,0.7,0.8,1.4,1.3,2.2c0.5,0.8,1.2,1.5,1.8,2.3c0.6,0.8,1.3,1.5,1.9,2.2c0.7,0.7,1.3,1.3,1.8,1.8c1.1,1,1.8,1.7,1.8,1.7
						c2.4,1.9,4.9,2.5,5.6,1.5c0.7-1-0.5-3.2-2.7-4.9c0,0-0.7-0.6-1.8-1.5c-0.5-0.4-1.2-0.9-1.9-1.5c-0.7-0.6-1.4-1.2-2.1-1.8
						c-0.7-0.6-1.4-1.2-2.1-1.8c-0.7-0.6-1.3-1.1-1.9-1.6C247.2,63.1,246.3,62.6,246,62.9z"/>
				</g>
			</g>
		</g>
		<g>
			<g>
				<g>
					<path fill="#087773" stroke="#087773" stroke-width="0.25" stroke-miterlimit="10" d="M346.7,13.9c-0.4,0.2-0.3,1.1-0.1,2.3
						c0.1,0.6,0.2,1.3,0.4,2c0.2,0.7,0.2,1.5,0.4,2.2c0.1,0.7,0.1,1.5,0.2,2.2c0,0.7,0,1.3,0,1.9c-0.1,1.1-0.2,1.8-0.2,1.8
						c0,0.5-0.1,1-0.1,1.5c0,0.2,0,0.5,0.1,0.7c0,0.2,0,0.4,0.1,0.6c0.2,0.8,0.5,1.5,1.1,1.7c0.6,0.2,1.3,0,1.9-0.8
						c0.2-0.2,0.3-0.4,0.5-0.6c0.1-0.2,0.3-0.5,0.4-0.8c0.2-0.6,0.5-1.2,0.5-1.9c0,0,0-0.2,0-0.6c0-0.4,0-1,0-1.7
						c-0.1-0.7-0.2-1.5-0.3-2.3c-0.2-0.8-0.4-1.7-0.7-2.5c-0.3-0.8-0.6-1.7-1-2.4c-0.4-0.7-0.8-1.4-1.2-1.9
						C347.7,14.3,347,13.7,346.7,13.9z"/>
				</g>
			</g>
		</g>
		<g>
			<g>
				<g>
					<path fill="#087773" stroke="#087773" stroke-width="0.25" stroke-miterlimit="10" d="M388.9,42.7c-0.9-0.1-1.8,2.6-3.2,4.7
						c-0.7,1.1-1.5,2-2.1,2.6c-0.6,0.6-1.1,0.9-1.1,0.9c-0.6,0.5-1.1,1-1.5,1.6c-0.4,0.6-0.7,1.2-0.6,1.8c0.1,0.6,0.7,1.1,1.6,1.2
						c0.9,0.1,2.2-0.2,3.3-1.1c0,0,0.7-0.6,1.5-1.6c0.8-1,1.6-2.5,2.1-4C390,45.9,389.7,42.8,388.9,42.7z"/>
				</g>
			</g>
		</g>
		<path fill="#4FBA8E" d="M429.1,202.6c0.2,51.5-10.2,90.8-19.2,108.8c-7.6,15.1-20.1,27.4-34.9,34.6c-5.9,2.9-12.1,4.9-18.6,6.1
			c-7.8,1.4-15.8,1.4-23.9-0.3c-2.2-0.4-4.4-1-6.6-1.7c-3.9-1.2-7.6-2.7-10.9-4.5c-3.3-1.7-6.3-3.6-9.1-5.8
			c-4.4-3.4-8.2-7.4-11.4-11.8c-10.7-14.9-14.7-34.7-12.5-55.3c0.6-5.8,1.1-13.1,1.5-21.2c0.8-16.1,1-35.1,0.4-50.6
			c0-1.2-0.1-2.3-0.1-3.4c-0.2-4.7-0.6-9-1-12.7c-2.6-23.2-15.4-67.4-21.8-90c-3.1-11.1-2.8-22.1,0.3-32.2
			c4.9-15.7,16.5-29,32.3-36.4c4.3-2,9-3.6,13.9-4.6c7.4-0.8,15.2-0.6,23.2,1c21.1,4.1,43.9,17.6,66.1,47.2
			c19.2,25.8,27.7,66.5,30.6,99.2c0.9,10.4,1.4,20.5,1.6,30.1C429.1,200.3,429.1,201.5,429.1,202.6z"/>
		<path fill="#4EDD70" d="M391,204.7v1.5c0,51.5-9.9,90.8-19,108.8c-7.6,15.1-19.9,27.4-34.8,34.6c-1.6,0.8-3.2,1.5-4.9,2.2
			c-0.7-0.1-1.3-0.3-2-0.4c-0.7-0.1-1.3-0.3-2-0.5c-0.9-0.2-1.7-0.5-2.5-0.7c-3.1-1-6.1-2.1-8.8-3.4c-0.7-0.3-1.4-0.7-2.1-1.1
			c-0.8-0.4-1.5-0.8-2.3-1.3c-2.4-1.4-4.7-2.9-6.8-4.6c-4.4-3.4-8.2-7.4-11.4-11.8c0.2-0.6,0.5-1.2,0.8-1.9c0.4-0.9,0.6-1.9,0.9-2.9
			c2.6-10.9-0.4-28.9-5-46.5c-2.3-8.8-5-17.5-7.5-25.3c0.8-16.1,1-35.1,0.4-50.6c0-1.2-0.1-2.3-0.1-3.4c-0.2-4.7-0.6-9-1-12.7
			c-0.4-3.6-1.1-7.7-1.9-12.2c-2.2-12.1-5.8-26.6-9.6-40.6c-3.7-14.1-7.6-27.6-10.3-37.2c-3.1-11.1-2.8-22.1,0.3-32.2
			c4.9-15.7,16.5-29,32.3-36.4c21,4.2,43.7,17.7,65.7,47.2c3.1,4.2,6,8.8,8.6,13.8c2.4,4.7,4.7,9.6,6.6,14.7
			c2.6,6.7,4.9,13.7,6.8,20.9c1.8,6.6,3.3,13.3,4.5,20c1.9,10.3,3.2,20.4,4.1,29.9c0.9,10.4,1.1,20.5,1.3,30.1
			C391.3,203.4,391,204,391,204.7z"/>
		<g>
			<path fill="#6A8BAA" d="M418.9,119.2c-5.2,4.9-21,15.9-33,23.6c-1.3-6.7-2.7-13.4-4.5-20c-1.9-7.1-4.2-14.2-6.8-20.9
				c10.3-5.7,20.5-11.8,30.9-18.3C411.2,94.4,415.6,106.6,418.9,119.2z"/>
		</g>
		<g>
			<path fill="#7DA6D3" d="M385.9,142.8c-3.7,2.4-7.1,4.4-9.6,5.8c0,0-4.7,47.4-42.7,37.2c-1.5-0.4-3.6-1.3-6-2.3c0,0-0.1,0-0.1,0
				c-6.9-3.1-15.7-7.9-17.7-8.2c0,0,0,0-0.1,0c-0.8,0.3-1.8,0.9-2.9,1.7c-3.2,2.1-7.5,5.3-10.3,5.4c-2.9,0.1-5.7-0.9-8.3-2.7
				c0,0-0.1,0-0.1-0.1c-2.5-1.7-4.9-4.1-7.1-7c-8.9-11.3-15.2-29.6-17.6-37.3c-0.7-2.3-1.1-3.7-1.1-3.7c3.1,0.2,6.1,0.4,9.2,0.4
				c8.4,0.2,16.6-0.4,24.7-1.5c27.5-3.9,53.2-14.7,78.6-28.6c2.6,6.7,4.9,13.7,6.8,20.9C383.2,129.4,384.7,136.1,385.9,142.8z"/>
		</g>
		<g>
			<path fill="#7DA6D3" d="M419.8,118.4c0,0,0.1,0.3,0.2,0.8C419.9,118.9,419.9,118.6,419.8,118.4L419.8,118.4z"/>
		</g>
		<g>
			<path fill="#7DA6D3" d="M420,119.1c0.1,0.3,0.2,0.7,0.3,1.1C420.2,120,420.1,119.6,420,119.1z"/>
		</g>
		<g>
			<path fill="#6187A3" d="M372.8,146c-1.2,6-5.7,53-45.1,37.5c0,0-0.1,0-0.1,0c-0.4-0.2-0.8-0.3-1.2-0.5c-4.7-2-12.5-6.2-16.4-7.7
				c0,0,0,0-0.1,0c-0.8-0.3-1.4-0.5-1.8-0.5c-2.9,1.2-9.9,6.6-13.9,6.7c-2,0.1-4-0.6-5.9-1.7c0,0-0.1,0-0.1-0.1
				c-12.6-8.5-21.7-34.6-24.7-44.3c23.6,1.3,47.1,2.6,95.4-20.2L372.8,146z"/>
		</g>
		<g>
			<path fill="#A9D2F7" d="M344.2,177.3c-4.8,1.6-11.9,1.3-19.2-1.5c-1-0.4-1.9-0.8-3-1.2c-0.6-0.3-1.8-0.8-1.9-0.9
				c0,0-0.1-0.1-0.1-0.1c-1.9-1-10.9-4.9-14.5-5c-0.5,0.2-2.2,1.4-4.1,2.6c-0.6,0.4-1.2,0.7-1.8,1.1c-0.2,0.1-0.4,0-0.6,0.2
				c-1.5,0.8-2.9,1.1-4,1.1h-0.1c0,0-0.1,0-0.1,0h0c-8.7,0-15.1-11.6-21-27.9c0,0,10.3,0,12.9-0.1c0,0,1.8-0.1,2.8-0.1
				c4.7-0.4,10.2-1,16.4-2c13.7-2.3,30.4-6.5,47.3-14.5c0,0,8.3,12.9,9,18.8C363.8,161.2,357.5,172.8,344.2,177.3z"/>
		</g>
		<g>
			<path fill="#FFFFFF" d="M283.8,197.5c0.1,1.1,0.1,2.3,0.2,3.4c0.9,23.2-0.1,54.5-1.9,71.8c-2.8,26.7,4.6,52.1,23.8,67.1
				c2.8,2.2,5.8,4.1,9,5.8c6.4-2.5,12.6-9.6,17.8-23.1c9.6-24.8-21.4-101.5-21.4-101.5c-7.9-5.3-10.3-9.5-13.5-18.8
				C297.9,202.3,286.2,198.4,283.8,197.5z"/>
		</g>
		<g>
			<g>
				<path fill="#9EB7CC" d="M297.1,202.3c-8.8,3.8-11.6,14.2-12.6,22.9c-0.1,0.5,0.7,0.5,0.8,0c1-8.5,3.7-18.6,12.2-22.3
					C297.9,202.7,297.5,202.1,297.1,202.3L297.1,202.3z"/>
			</g>
		</g>
		<g>
			<path fill="#FFFFFF" d="M293.1,224.1c3,32.9-12.1,81.7,10,112.2c0.9,1.2,1.8,2.4,2.8,3.5c5.6,4.4,5.5-127.5,0.6-123.7
				C302.5,219.1,298.1,221.8,293.1,224.1z"/>
			<g>
				<path fill="#9EB7CC" d="M292,224.1c2,23.7-3.1,47.4-2.1,71.1c0.4,11,2.3,22,6.8,32.2c0.9,2.1,7.2,16.1,10.7,13.3
					c1.6-1.3,1.6-5,1.9-6.7c0.7-5,1-10.1,1.2-15.2c0.8-14.9,0.9-29.9,0.9-44.9c0-15.5-0.2-31-1.3-46.4c-0.3-3.5-0.3-7.5-1.5-10.9
					c-0.3-0.7-0.8-1.7-1.7-1.7c-1.3,0.1-2.5,1.5-3.5,2.2c-3.3,2.4-7,4.3-10.6,6.1c-1.3,0.6-0.2,2.6,1.2,2c3.2-1.5,6.3-3.2,9.2-5.1
					c1.4-0.9,2.8-1.9,4.1-2.9c-0.5,0.3-1-0.3-0.9-0.1c0.5,0.9,0.6,2.2,0.8,3.1c0.7,4.6,0.9,9.2,1.2,13.8c0.8,14.6,0.9,29.2,0.9,43.8
					c0,14.6-0.2,29.3-1.1,43.9c-0.3,4.7-0.6,9.4-1.3,14c-0.2,1-0.3,2.2-0.8,3.1c0,0-0.3,0.3-0.1,0.2c0.3,0,0.6-0.1,0.9-0.1
					c-0.8-1.1-1.6-2.1-2.4-3.2c-1.9-2.6-3.5-5.4-4.9-8.3c-8-16.2-7.7-35.5-6.8-53c0.9-16.7,3.3-33.5,1.9-50.3
					C294.1,222.7,291.8,222.6,292,224.1z"/>
			</g>
		</g>
		<g>
			<path fill="#F9F9F9" d="M429.3,202.6c0.2,51.5-10.3,90.8-19.4,108.8c-7.6,15.1-20.1,27.4-35,34.6c-12.9,6.3-27.7,8.8-42.5,5.8
				c1.7-0.7,3.4-1.4,5-2.2c14.8-7.2,27.5-19.6,35.1-34.6c9.1-18,19.5-57.2,19.5-108.8v-1.5C404,204.4,417,203.7,429.3,202.6z"/>
		</g>
		<g opacity="0.4">
			<path fill="#898989" d="M429.3,202.6c0.2,51.5-10.3,90.8-19.4,108.8c-7.6,15.1-20.1,27.4-35,34.6c-12.9,6.3-27.7,8.8-42.5,5.8
				c1.7-0.7,3.4-1.4,5-2.2c14.8-7.2,27.5-19.6,35.1-34.6c9.1-18,19.5-57.2,19.5-108.8v-1.5C404,204.4,417,203.7,429.3,202.6z"/>
		</g>
		<g>
			<path fill="#FFFFFF" d="M392,204.7v1.5c0,51.5-10.4,90.8-19.5,108.8c-7.6,15.1-20.2,27.4-35,34.6c-1.6,0.8-3.4,1.5-5.1,2.2
				c-0.7-0.1-1.4-0.3-2-0.4c-0.7-0.1-1.4-0.3-2-0.5c-0.9-0.2-1.7-0.5-2.6-0.7c-3.1-1-6.1-2.1-8.8-3.4c-0.7-0.3-1.4-0.7-2.1-1.1
				c-0.8-0.4-1.5-0.8-2.3-1.3c-2.4-1.4-4.7-2.9-6.8-4.6c-0.9-1.1-1.9-2.3-2.7-3.5c-2.9-4.1-5.2-8.4-7-13c-5.3-14-5.8-30.2-5-46.5
				c0.9-18.7,3.4-37.4,2-52.7c11.2-5.2,20-12.4,26.1-20.4C319.2,203.7,353,205.7,392,204.7z"/>
		</g>
		<g>
			<g>
				<path fill="#9EB7CC" d="M428.9,203.5c-24.1,12.9-48.4,25.6-74.7,33.2c-3.8,1.1-3.1,1.1-5.2-1.9c-1.9-2.7-3.9-5.3-5.9-7.8
					c-7-8.7-15.1-16.6-24.1-23.2c-0.4-0.3-0.8,0.4-0.4,0.6c12.4,9,23.6,20.8,31.8,33.8c0.1,0.1,0.3,0.2,0.4,0.2
					c27.8-7.4,53.2-20.8,78.4-34.3C429.7,203.9,429.3,203.3,428.9,203.5L428.9,203.5z"/>
			</g>
		</g>
		<g>
			<g>
				<g>
					<path fill="#087773" stroke="#087773" stroke-width="0.25" stroke-miterlimit="10" d="M398.9,46c-0.4-0.1-1.1,1-1.9,2.6
						c-0.4,0.8-0.9,1.7-1.4,2.7c-0.5,1-1.1,2-1.6,3.1c-0.5,1-1.2,2-1.7,3c-0.5,1-1.1,1.8-1.6,2.6c-0.4,0.8-0.9,1.3-1.1,1.8
						c-0.3,0.4-0.4,0.7-0.4,0.7c-0.2,0.4-0.4,0.7-0.6,1.1c-0.2,0.3-0.4,0.7-0.6,1c-0.4,0.6-0.6,1.3-0.8,1.8c-0.4,1.1-0.5,2-0.1,2.4
						c0.4,0.5,1.3,0.3,2.5-0.4c0.6-0.3,1.1-0.8,1.7-1.4c0.3-0.3,0.6-0.6,0.9-1c0.3-0.4,0.5-0.7,0.8-1.1c0,0,0.2-0.3,0.4-0.7
						c0.3-0.5,0.7-1.1,1.1-2c0.4-0.8,0.9-1.8,1.4-2.9c0.4-1.1,1-2.2,1.4-3.4c0.4-1.2,0.8-2.3,1.1-3.5c0.3-1.1,0.5-2.2,0.7-3.1
						C399.3,47.3,399.3,46.1,398.9,46z"/>
				</g>
			</g>
		</g>
		<g>
			<g>
				<g>
					<path fill="#087773" stroke="#087773" stroke-width="0.25" stroke-miterlimit="10" d="M368.9,30.8c-0.4,0.1-0.6,1.2-0.7,2.9
						c-0.1,0.8-0.1,1.8-0.1,2.8c-0.1,1-0.1,2.1-0.2,3.2c-0.1,1.1-0.2,2.1-0.3,3.1c-0.1,1-0.3,1.9-0.4,2.7c-0.1,0.8-0.2,1.4-0.3,1.9
						c-0.1,0.5-0.1,0.7-0.1,0.7c-0.1,0.8-0.2,1.5-0.3,2.2c-0.1,0.7,0,1.3,0,1.9c0.1,1.1,0.4,1.9,1,2.1c0.6,0.2,1.3-0.2,2.1-1.2
						c0.4-0.5,0.7-1.1,1-1.8c0.3-0.7,0.5-1.5,0.7-2.4c0,0,0-0.3,0.1-0.8c0-0.5,0.2-1.2,0.2-2.1c0-0.9,0.1-1.9,0.1-2.9
						c0-1.1-0.1-2.2-0.2-3.4c-0.1-1.1-0.2-2.3-0.4-3.3c-0.2-1.1-0.4-2-0.6-2.9C369.8,31.7,369.3,30.7,368.9,30.8z"/>
				</g>
			</g>
		</g>
		<g>
			<g>
				<g>
					<path fill="#087773" stroke="#087773" stroke-width="0.25" stroke-miterlimit="10" d="M372.7,62.6c-0.4-0.2-1,0.2-1.6,0.7
						c-0.3,0.3-0.7,0.6-1.1,1c-0.4,0.4-0.8,0.7-1.2,1.1c-0.4,0.4-0.8,0.7-1.2,1.1c-0.4,0.3-0.7,0.6-1,0.9c-0.6,0.5-1,0.8-1,0.8
						c-0.3,0.3-0.5,0.5-0.7,0.8c-0.2,0.3-0.3,0.6-0.4,0.9c-0.2,0.6-0.2,1.3,0,1.8c0.3,0.6,0.9,0.9,1.6,0.9c0.4,0,0.8-0.1,1.2-0.2
						c0.4-0.2,0.9-0.4,1.2-0.7c0,0,1.9-1.8,3.1-4c0.3-0.6,0.6-1.1,0.8-1.7c0.2-0.6,0.4-1.1,0.5-1.5
						C373.1,63.5,373.1,62.8,372.7,62.6z"/>
				</g>
			</g>
		</g>
		<g>
			<g>
				<g>
					<path fill="#087773" stroke="#087773" stroke-width="0.25" stroke-miterlimit="10" d="M352.8,21.4c-0.4,0.2-0.4,1.1-0.2,2.5
						c0.1,0.7,0.1,1.5,0.3,2.3c0.1,0.8,0.2,1.7,0.3,2.6c0.1,0.9,0.1,1.7,0.2,2.5c0,0.8,0.1,1.6,0.1,2.2c0,1.3,0,2.1,0,2.1
						c0.1,2.5,0.8,4.7,2,4.9c1.2,0.2,2.5-2.1,2.5-5c0,0-0.1-1-0.2-2.4c-0.1-0.7-0.3-1.5-0.4-2.4c-0.2-0.9-0.4-1.8-0.7-2.7
						c-0.3-0.9-0.6-1.8-0.9-2.6c-0.4-0.8-0.7-1.6-1.1-2.2C353.9,21.9,353.2,21.2,352.8,21.4z"/>
				</g>
			</g>
		</g>
		<g>
			<g>
				<g>
					<path fill="#087773" stroke="#087773" stroke-width="0.25" stroke-miterlimit="10" d="M330,23.6c-0.4,0-0.7,0.9-1,2.4
						c-0.1,0.7-0.2,1.5-0.3,2.4c0,0.9,0,1.8,0.1,2.8c0.1,1,0.1,1.9,0.2,2.8c0.2,0.9,0.3,1.7,0.4,2.4c0.3,1.4,0.4,2.4,0.4,2.4
						c0.9,2.8,2.6,4.6,3.7,4.2c1.2-0.4,1.4-2.9,0.6-5.4c0,0-0.2-0.8-0.6-2.1c-0.2-0.6-0.4-1.4-0.7-2.2c-0.2-0.8-0.4-1.7-0.6-2.6
						c-0.2-0.9-0.4-1.7-0.7-2.6c-0.2-0.8-0.3-1.6-0.5-2.3C330.8,24.5,330.4,23.6,330,23.6z"/>
				</g>
			</g>
		</g>
		<g>
			<g>
				<g>
					<path fill="#087773" stroke="#087773" stroke-width="0.25" stroke-miterlimit="10" d="M303.6,11.5c-0.2,0.4,0.4,1.3,1.5,2.4
						c0.5,0.6,1.1,1.3,1.8,2c0.6,0.7,1.2,1.5,1.9,2.3c0.6,0.8,1.2,1.6,1.7,2.4c0.5,0.8,0.9,1.5,1.3,2.2c0.6,1.3,1.1,2.2,1.1,2.2
						c0.4,0.6,0.6,1.3,1,1.8c0.2,0.3,0.4,0.5,0.5,0.8c0.2,0.2,0.3,0.5,0.5,0.7c0.7,0.8,1.4,1.3,2,1.2c0.6-0.1,1-0.9,1.1-2.1
						c0-0.3,0-0.6,0-1c0-0.3-0.1-0.7-0.2-1.1c-0.2-0.7-0.4-1.5-0.8-2.3c0,0-0.1-0.2-0.4-0.7c-0.3-0.4-0.6-1.1-1.1-1.8
						c-0.5-0.7-1.1-1.5-1.7-2.3c-0.7-0.8-1.5-1.6-2.3-2.4c-0.9-0.7-1.7-1.5-2.6-2.1c-0.9-0.6-1.7-1.1-2.4-1.5
						C304.9,11.4,303.8,11.1,303.6,11.5z"/>
				</g>
			</g>
		</g>
		<g>
			<g>
				<g>
					<path fill="#087773" stroke="#087773" stroke-width="0.25" stroke-miterlimit="10" d="M294,33.6c-0.8,0.4,0.2,3.3,1.3,6
						c0.6,1.4,1.2,2.7,1.6,3.7c0.4,1,0.7,1.7,0.7,1.7c1,1.9,2.7,3.1,3.8,2.6c1.1-0.5,1.2-2.6,0.2-4.6c0,0-0.4-0.6-0.9-1.6
						c-0.6-1-1.4-2.2-2.2-3.4C296.7,35.5,294.8,33.2,294,33.6z"/>
				</g>
			</g>
		</g>
		<g>
			<g>
				<g>
					<path fill="#087773" stroke="#087773" stroke-width="0.25" stroke-miterlimit="10" d="M332,54.1c-0.4,0.3-0.1,1.1,0.3,2.3
						c0.4,1.2,0.8,2.6,1,4.1c0.2,1.4,0.1,2.8-0.1,3.8c-0.1,0.5-0.2,0.9-0.3,1.2c-0.1,0.3-0.1,0.4-0.1,0.4c-0.3,1-0.5,2-0.5,2.8
						c0,0.8,0.1,1.6,0.7,1.9c0.5,0.3,1.3,0.3,2.1-0.3c0.8-0.6,1.6-1.6,2.1-3c0,0,0.1-0.2,0.2-0.7c0.1-0.4,0.2-1,0.3-1.8
						c0.1-1.5,0-3.5-0.7-5.3c-0.6-1.8-1.7-3.4-2.6-4.3C333.1,54.3,332.3,53.9,332,54.1z"/>
				</g>
			</g>
		</g>
		<g>
			<g>
				<g>
					<path fill="#087773" stroke="#087773" stroke-width="0.25" stroke-miterlimit="10" d="M268.3,35.2c-0.4,0.2-0.2,1.2,0.4,2.5
						c0.3,0.6,0.8,1.3,1.2,2c0.5,0.7,1.1,1.4,1.8,2.1c0.7,0.7,1.3,1.3,2,1.9c0.7,0.6,1.3,1.1,1.9,1.5c1.2,0.8,2,1.3,2,1.3
						c0.6,0.3,1.3,0.6,1.9,0.7c0.3,0.1,0.6,0.1,0.9,0.2c0.3,0,0.6,0,0.8,0c1-0.1,1.7-0.4,1.9-1c0.2-0.6-0.1-1.3-0.8-2
						c-0.2-0.2-0.3-0.3-0.5-0.5c-0.2-0.2-0.4-0.3-0.6-0.5c-0.4-0.3-0.9-0.6-1.5-0.9c0,0-0.7-0.4-1.8-0.9c-0.5-0.3-1.1-0.7-1.8-1.1
						c-0.7-0.4-1.3-0.9-2-1.4c-0.7-0.5-1.3-1-2-1.5c-0.6-0.5-1.2-1-1.7-1.4C269.5,35.5,268.7,35,268.3,35.2z"/>
				</g>
			</g>
		</g>
		<g>
			<g>
				<g>
					<path fill="#087773" stroke="#087773" stroke-width="0.25" stroke-miterlimit="10" d="M304.5,60.8c-0.7,0.5,0,2.5,1.1,4.3
						c0.5,0.9,1.1,1.8,1.6,2.4c0.5,0.6,0.8,1.1,0.8,1.1c1.1,1.2,2.8,1.4,3.6,0.4c0.8-0.9,0.7-2.5-0.3-3.5c0,0-0.3-0.3-0.9-0.8
						c-0.5-0.5-1.2-1.1-2-1.8C306.8,61.6,305.2,60.3,304.5,60.8z"/>
				</g>
			</g>
		</g>
		<path fill="#D7E9F4" d="M320.1,173.7c-1.9-1-10.9-4.9-14.5-5c-0.5,0.2-2.2,1.4-4.1,2.6l-11.9-25.8c4.7-0.4,10.2-1,16.4-2
			L320.1,173.7z"/>
		<path fill="#D7E9F4" d="M299.7,172.4c-0.2,0.1-0.4,0-0.6,0.2c-1.5,0.8-2.9,1.1-4,1.1h-0.1h-0.1h0l-14.3-26.8l-0.5-0.9l0,0
			c1.9,0,4.1-0.1,6.7-0.3l0,0L299.7,172.4z"/>
		
			<ellipse transform="matrix(-0.9549 -0.2968 0.2968 -0.9549 517.3615 537.7319)" fill="#9EB7CC" stroke="#9EB7CC" stroke-width="0.3254" stroke-miterlimit="10" cx="299.5" cy="229.6" rx="3.9" ry="3.7"/>
		
			<ellipse transform="matrix(-0.9549 -0.2968 0.2968 -0.9549 511.2541 574.1547)" fill="#9EB7CC" stroke="#9EB7CC" stroke-width="0.3254" stroke-miterlimit="10" cx="299.2" cy="248.3" rx="3.9" ry="3.7"/>
		<path fill="#9EB7CC" stroke="#9EB7CC" stroke-width="0.3254" stroke-miterlimit="10" d="M293.9,266.4c0.6-1.9,2.8-3,4.8-2.4
			c2.1,0.6,3.2,2.7,2.6,4.7c-0.6,1.9-2.8,3-4.8,2.4C294.5,270.5,293.3,268.4,293.9,266.4z"/>
		<path fill="#9EB7CC" stroke="#9EB7CC" stroke-width="0.3254" stroke-miterlimit="10" d="M292.6,284.8c0.6-1.9,2.8-3,4.8-2.4
			c2.1,0.6,3.2,2.7,2.6,4.7c-0.6,1.9-2.8,3-4.8,2.4C293.2,288.8,292,286.7,292.6,284.8z"/>
		<g>
			<path fill="#00A99D" d="M254,167.5c-17.3-2.9-29.1-5.8-41.2-9.6"/>
		</g>
		
			<ellipse transform="matrix(-0.9549 -0.297 0.297 -0.9549 687.4031 473.7603)" fill="#2F7F40" cx="379.7" cy="184.7" rx="3.4" ry="3.2"/>
		
			<ellipse transform="matrix(-0.9549 -0.2969 0.2969 -0.9549 634.4605 487.3984)" fill="#2F7F40" cx="354.2" cy="195.5" rx="4.5" ry="4.2"/>
		
			<ellipse transform="matrix(-0.955 -0.2967 0.2967 -0.955 731.393 411.8558)" fill="#2F7F40" cx="396.9" cy="150.4" rx="1.8" ry="1.7"/>
		<ellipse transform="matrix(-0.9549 -0.2968 0.2968 -0.9549 750.1 473.506)" fill="#2F7F40" cx="411" cy="179.8" rx="6.3" ry="6"/>
		
			<ellipse transform="matrix(-0.955 -0.2967 0.2967 -0.955 530.6996 233.4932)" fill="#2F7F40" cx="283.1" cy="76.5" rx="7.9" ry="7.5"/>
		
			<ellipse transform="matrix(-0.955 -0.2966 0.2966 -0.955 638.9918 272.9053)" fill="#2F7F40" cx="340.2" cy="88" rx="4.1" ry="3.8"/>
		
			<ellipse transform="matrix(-0.955 -0.2966 0.2966 -0.955 544.9338 481.0185)" fill="#2F7F40" cx="309" cy="199.2" rx="4.7" ry="4.5"/>
		<path fill="#2F7F40" d="M317.8,57c-0.3,1,0.3,2.2,1.4,2.5c1.1,0.3,2.3-0.2,2.6-1.3c0.3-1-0.3-2.2-1.4-2.5
			C319.3,55.4,318.1,56,317.8,57z"/>
		<path fill="#2F7F40" d="M362.1,59.3c-0.7,2.2,0.7,4.6,3,5.4c2.4,0.7,4.8-0.5,5.5-2.7c0.7-2.2-0.7-4.6-3-5.4
			C365.2,55.9,362.8,57.1,362.1,59.3z"/>
		<g>
			<g>
				<g>
					<path fill="#087773" stroke="#087773" stroke-width="0.25" stroke-miterlimit="10" d="M270.6,73.1c-0.1,0.4,0.4,0.9,1.1,1.3
						c0.3,0.2,0.7,0.4,1.2,0.6c0.4,0.2,0.9,0.4,1.3,0.6c1,0.4,1.8,0.8,2.5,1c0.7,0.3,1.1,0.4,1.1,0.4c1.4,0.5,2.8-0.1,3.3-1.2
						c0.5-1.2-0.4-2.5-1.9-3.1c0,0-0.5-0.1-1.3-0.3c-0.8-0.2-1.8-0.3-2.9-0.4c-0.5,0-1.1-0.1-1.6-0.1c-0.5,0-1,0.1-1.4,0.2
						C271.2,72.4,270.6,72.7,270.6,73.1z"/>
				</g>
			</g>
		</g>
		<g>
			<g>
				<g>
					<path fill="#087773" stroke="#087773" stroke-width="0.25" stroke-miterlimit="10" d="M255.8,43.4c-0.4,0.2-0.2,1.3,0.2,2.9
						c0.3,0.8,0.7,1.7,1.1,2.7c0.5,0.9,1,1.9,1.6,2.9c0.6,0.9,1.3,1.9,1.9,2.7c0.7,0.8,1.3,1.6,1.9,2.2c1.2,1.2,2,2,2,2
						c2.7,2.3,5.6,2.9,6.2,1.8c0.6-1.1-1-3.2-3.3-5.2c0,0-0.8-0.7-1.9-1.7c-0.6-0.5-1.2-1.2-1.9-1.8c-0.7-0.7-1.4-1.5-2.1-2.2
						c-0.7-0.8-1.3-1.6-2-2.4c-0.6-0.8-1.2-1.5-1.7-2.1C257,44.1,256.2,43.3,255.8,43.4z"/>
				</g>
			</g>
		</g>
	</g>
	<g>
		<g>
			<path fill="#038E81" d="M402.9,62.5c-2.2,6-9.2,10.2-17.5,14.1c0,0-2.4,0-6.3-0.4c-3.8-0.4-9.1-1.3-14.7-3.1
				c-7.6-2.3-12.9-11.7-14.7-19.3c-0.4-1.9-0.7-3.8-0.7-5.8c-0.3-10.3,4.5-21.9,14.9-26.3c0.5-0.2,1.1-0.4,1.6-0.6
				c1.4-0.4,2.8-0.8,4.3-1L402.9,62.5z"/>
		</g>
		<g>
			<path fill="#038E81" d="M451.9,52.9c-1,42.6-32.9,52.5-32.9,52.5s-25.6-24.2-26.1-33.5l-26.7-45.3c-5.8,0.5-11.1,6.7-16.1,11.9
				c-2.7,2.7-5.3,5.1-7.9,6.2c-1.5,0.6-3,0.8-4.5,0.3c-10.3-4-4.2-15.5,0.9-21.5c5.1-6.1,18.7-17.7,25.4-19.1
				c11.2-2.2,22.7,3.6,28.9,11.6c4.5,6.2,8.7,17.1,12.3,22.9L451.9,52.9z"/>
		</g>
		<g>
			<path fill="#037A6C" d="M365.4,21.1c-0.6,0.2-1.1,0.4-1.6,0.6c-7.3,3-11.8,9.6-13.8,16.7c-2.7,2.7-5.3,5.1-7.9,6.2
				C343.9,33.4,352.2,21.6,365.4,21.1z"/>
		</g>
	</g>
	<g>
		<g>
			<g>
				<g>
					<path fill="#087773" stroke="#087773" stroke-width="0.25" stroke-miterlimit="10" d="M366.5,129.1c-0.4,0.2-0.1,1.2,0.5,2.6
						c0.3,0.7,0.8,1.4,1.3,2.3c0.5,0.8,1.1,1.6,1.7,2.4c0.6,0.8,1.3,1.6,1.9,2.3c0.7,0.7,1.3,1.3,1.8,1.9c1.2,1,1.9,1.7,1.9,1.7
						c2.5,1.9,5.2,2.2,5.8,1.1c0.6-1.1-0.8-3.1-3-4.7c0,0-0.7-0.5-1.9-1.4c-0.5-0.4-1.2-0.9-1.9-1.5c-0.7-0.6-1.4-1.2-2.1-1.8
						c-0.7-0.6-1.4-1.3-2-1.9c-0.6-0.6-1.2-1.2-1.8-1.7C367.7,129.5,366.9,128.9,366.5,129.1z"/>
				</g>
			</g>
		</g>
		<g>
			<g>
				<g>
					<path fill="#087773" stroke="#087773" stroke-width="0.25" stroke-miterlimit="10" d="M381.4,99.7c-0.4,0.2-0.2,1.3,0.2,2.9
						c0.3,0.8,0.7,1.7,1.1,2.7c0.5,0.9,1,1.9,1.6,2.9c0.6,0.9,1.3,1.9,1.9,2.7c0.7,0.8,1.3,1.6,1.9,2.2c1.2,1.2,2,2,2,2
						c2.7,2.3,5.6,2.9,6.2,1.8c0.6-1.1-1-3.2-3.3-5.2c0,0-0.8-0.7-1.9-1.7c-0.6-0.5-1.2-1.2-1.9-1.8c-0.7-0.7-1.3-1.5-2.1-2.2
						c-0.7-0.8-1.3-1.6-2-2.4c-0.6-0.8-1.2-1.5-1.7-2.1C382.6,100.4,381.8,99.5,381.4,99.7z"/>
				</g>
			</g>
		</g>
		<g>
			<g>
				<g>
					<path fill="#087773" stroke="#087773" stroke-width="0.25" stroke-miterlimit="10" d="M464.1,88.4c-0.4,0.2-0.3,1.1-0.1,2.3
						c0.1,0.6,0.2,1.3,0.4,2c0.2,0.7,0.2,1.5,0.4,2.2c0.1,0.7,0.1,1.5,0.2,2.2c0,0.7,0,1.3,0,1.9c-0.1,1.1-0.2,1.8-0.2,1.8
						c0,0.5-0.1,1-0.1,1.5c0,0.2,0,0.5,0.1,0.7c0,0.2,0,0.4,0.1,0.6c0.2,0.8,0.5,1.5,1.1,1.7c0.6,0.2,1.3,0,1.9-0.8
						c0.2-0.2,0.3-0.4,0.5-0.6c0.1-0.2,0.3-0.5,0.4-0.8c0.2-0.6,0.5-1.2,0.5-1.9c0,0,0-0.2,0-0.6c0-0.4,0-1,0-1.7
						c-0.1-0.7-0.2-1.5-0.3-2.3c-0.2-0.8-0.4-1.7-0.7-2.5c-0.3-0.8-0.6-1.7-1-2.4c-0.4-0.7-0.8-1.4-1.2-1.9
						C465.2,88.7,464.5,88.2,464.1,88.4z"/>
				</g>
			</g>
		</g>
		<g>
			<g>
				<g>
					<path fill="#087773" stroke="#087773" stroke-width="0.25" stroke-miterlimit="10" d="M505.1,114c-0.9-0.1-1.8,2.6-3.2,4.7
						c-0.7,1.1-1.5,2-2.1,2.6c-0.6,0.6-1.1,0.9-1.1,0.9c-0.6,0.5-1.1,1-1.5,1.6c-0.4,0.6-0.7,1.2-0.6,1.8c0.1,0.6,0.7,1.1,1.6,1.2
						c0.9,0.1,2.2-0.2,3.3-1.1c0,0,0.7-0.6,1.5-1.6c0.8-1,1.6-2.5,2.1-4C506.2,117.2,506,114.1,505.1,114z"/>
				</g>
			</g>
		</g>
		<path fill="#4FBA8E" d="M545.2,273.9c0.2,51.5-10.2,90.8-19.3,108.8c-7.6,15-20.1,27.4-34.9,34.6c-3.1,1.5-6.3,2.8-9.6,3.9
			c-0.6,0.2-1.2,0.4-1.8,0.6c-0.8,0.2-1.6,0.4-2.4,0.6c-0.4,0.1-0.8,0.2-1.3,0.3c-0.4,0.1-0.9,0.2-1.3,0.3c-1.4,0.3-2.7,0.5-4.1,0.7
			c-0.5,0.1-0.9,0.1-1.4,0.2c-0.2,0-0.5,0.1-0.7,0.1c-1.1,0.1-2.2,0.2-3.4,0.3c-0.7,0.1-1.3,0.1-2,0.1c-6.2,0.2-12.4-0.5-18.7-2.2
			c-0.1,0-0.2-0.1-0.3-0.1c-0.7-0.2-1.4-0.4-2.1-0.6c-3.9-1.2-7.6-2.7-10.9-4.5c-3.3-1.7-6.3-3.6-9-5.8c-4.5-3.6-8.4-7.7-11.6-12.3
			c-10.5-14.8-14.3-34.4-12.1-54.8c0.7-6.8,1.3-15.9,1.7-25.7c0.4-9.6,0.6-20,0.6-29.9c0-5.6-0.1-11.1-0.3-16.1
			c-0.1-1.2-0.1-2.3-0.2-3.4c-0.2-4.7-0.5-9-0.9-12.7c-2.6-23.2-15.3-67.3-21.7-90c-3.1-11.1-2.8-22.1,0.4-32.2
			c5.3-17.2,18.8-31.6,37-38.3c2.9-1.1,5.9-2,9.1-2.7c7.4-0.8,15.2-0.6,23.2,1c21.1,4.1,43.9,17.6,65.9,47.2
			c19.2,25.7,27.6,66.5,30.5,99.2c0.9,10.4,1.4,20.4,1.6,30.1C545.1,271.6,545.2,272.7,545.2,273.9z"/>
		<path fill="#4EDD70" d="M509,274.6v1.2c0,51-10.6,89.8-19.6,107.6c-7.6,15-20.2,27.4-35,34.6c-3.3,1.6-6.8,3-10.3,4.1
			c-0.7-0.2-1.4-0.4-2.1-0.6c-3.9-1.2-7.6-2.7-10.9-4.5c-3.3-1.7-6.3-3.6-9.1-5.8c-1.3-1-2.5-2-3.6-3.1c-0.4-0.4-0.8-0.8-1.2-1.1
			c-0.5-0.5-1-1-1.5-1.5c-1.5-1.6-2.9-3.2-4.1-4.9c-0.4-0.5-0.8-1.1-1.2-1.6c0.6-1.4,1.2-2.8,1.8-4.3c6-15.6-3.9-51.6-12.2-76.3
			c0-0.6,0.1-1.2,0.1-1.8c0.1-1.8,0.1-3.7,0.2-5.6c0.1-1.9,0.1-3.8,0.1-5.7c0.1-2.4,0.1-4.9,0.1-7.4c0-3.2,0.1-6.4,0-9.5
			c0-5.6-0.1-11.1-0.3-16.1c-0.1-1.2-0.1-2.3-0.2-3.4c-0.2-4.7-0.5-9-0.9-12.7c-0.8-7-2.5-15.8-4.6-25.4
			c-3.6-16.1-8.6-34.3-12.7-49.2c-1.6-5.7-3.1-11-4.3-15.4c-3.1-11.1-2.8-22.1,0.4-32.2c5.3-17.2,18.8-31.6,37-38.3
			c19.8,5.1,41,18.6,61.5,46.2c4.9,6.6,9.1,14.2,12.7,22.4c6.8,15.5,11.4,33.1,14.3,50.2c1.6,9.1,2.7,18.1,3.5,26.6
			c0.9,10.4,1.7,20.4,1.8,30.1C508.7,272.3,509,273.4,509,274.6z"/>
		<g>
			<path fill="#6C8EAD" d="M539.6,209.9c-2.8,0.8-17.7,2.4-36.1,4.6c-3-17.1-7.5-34.7-14.3-50.2c12.1-0.4,24.4-0.8,37.3-1.6
				c0,0,5.1,10.6,8.6,23.8C538.4,198.7,539.6,209.9,539.6,209.9z"/>
		</g>
		<g>
			<path fill="#7DA6D3" d="M503.4,214.5c-26.2,3.2-59.5,7.6-74.8,12.6c-6.6,11.7-13.9,14.2-15.5,14.9c-2.9,1.4-5.8,1.1-8.6-0.6
				c-3.4-2-6.8-5.9-9.9-10.7c-9.1-13.9-16.4-35.6-18.9-43.3c-0.6-1.8-0.9-2.9-0.9-2.9c2.4-1.1,4.7-2.1,7-3
				c36.4-14.8,70.4-16.2,107.3-17.4C495.9,179.7,500.5,197.4,503.4,214.5z"/>
		</g>
		<g>
			<path fill="#6187A3" d="M426.4,220c0,0-3.4,13.3-15,20.5c-2.4,1.5-4.6,1.8-6.9,1c-5.5-3.3-10.9-11.4-15.5-20.5
				c-4.4-8.8-8.1-18.5-10.7-25.7c-1.1-3.2-2-5.9-2.6-7.8c19.8-7.7,29.1-9.9,37.8-10.9C413.5,176.6,426.4,190.2,426.4,220z"/>
		</g>
		<g>
			<path fill="#A9D2F7" d="M409.7,229.5c-14.3,6.9-18.6-9.6-20.7-8.6c-4.4-8.8-8.1-18.5-10.7-25.7c0,0,6.8-3.5,12-4.9
				c9.9-2.7,18.3-2.5,18.3-2.5C410.3,187.5,420.5,224.3,409.7,229.5z"/>
		</g>
		<g>
			<path fill="#FFFFFF" d="M545.2,273.9c0.2,51.5-10.2,90.8-19.3,108.8c-7.6,15-20.1,27.4-34.9,34.6c-3.1,1.5-6.3,2.8-9.6,3.9
				c-0.6,0.2-1.2,0.4-1.8,0.6c-0.8,0.2-1.6,0.4-2.4,0.6c-0.4,0.1-0.8,0.2-1.3,0.3c-0.4,0.1-0.9,0.2-1.3,0.3
				c-1.4,0.3-2.7,0.5-4.1,0.7c-0.5,0.1-0.9,0.1-1.4,0.2c-0.2,0-0.5,0.1-0.7,0.1c-1.1,0.1-2.2,0.2-3.4,0.3c-0.7,0.1-1.3,0.1-2,0.1
				c-6.1,0.2-12.4-0.5-18.7-2.2c-0.1,0-0.2-0.1-0.3-0.1c3.5-1.1,6.9-2.4,10.2-4.1c14.8-7.3,27.3-19.6,34.9-34.6
				c9-17.8,19.3-56.6,19.3-107.6C521.6,275.5,534.3,274.9,545.2,273.9z"/>
		</g>
		<g opacity="0.4">
			<path fill="#898989" d="M545.2,273.9c0.2,51.5-10.2,90.8-19.3,108.8c-7.6,15-20.1,27.4-34.9,34.6c-3.1,1.5-6.3,2.8-9.6,3.9
				c-0.6,0.2-1.2,0.4-1.8,0.6c-0.8,0.2-1.6,0.4-2.4,0.6c-0.4,0.1-0.8,0.2-1.3,0.3c-0.4,0.1-0.9,0.2-1.3,0.3
				c-1.4,0.3-2.7,0.5-4.1,0.7c-0.5,0.1-0.9,0.1-1.4,0.2c-0.2,0-0.5,0.1-0.7,0.1c-1.1,0.1-2.2,0.2-3.4,0.3c-0.7,0.1-1.3,0.1-2,0.1
				c-6.1,0.2-12.4-0.5-18.7-2.2c-0.1,0-0.2-0.1-0.3-0.1c3.5-1.1,6.9-2.4,10.2-4.1c14.8-7.3,27.3-19.6,34.9-34.6
				c9-17.8,19.3-56.6,19.3-107.6C521.6,275.5,534.3,274.9,545.2,273.9z"/>
		</g>
		<g>
			<path fill="#FFFFFF" d="M508.5,275.8c0,51-10.3,89.8-19.3,107.6c-7.6,15-20.1,27.4-34.9,34.6c-3.3,1.6-6.7,3-10.2,4.1
				c-0.7-0.2-1.4-0.4-2.1-0.6c-3.9-1.2-7.6-2.7-10.9-4.5c-3.3-1.7-6.3-3.6-9-5.8c-1.3-1-2.5-2-3.6-3.1c-0.4-0.4-0.8-0.8-1.2-1.1
				c-0.5-0.5-1-1-1.5-1.5c-1.5-1.6-2.9-3.2-4.1-4.9c-0.4-0.5-0.8-1.1-1.2-1.6c0,0,0,0,0,0c-7.4-10.5-11.5-23.4-12.5-37.3
				c-0.2-2.4-0.2-4.8-0.2-7.3c0-3.4,0.2-6.8,0.6-10.2c0-0.3,0.1-0.5,0.1-0.8c0.2-2.2,0.4-4.7,0.6-7.3c0.3-3.7,0.5-7.7,0.7-12
				c0.1-1.8,0.2-3.7,0.3-5.6c0-0.6,0.1-1.2,0.1-1.8c0.1-1.8,0.1-3.7,0.2-5.6c0.1-1.9,0.1-3.8,0.1-5.7c0.1-2.4,0.1-4.9,0.1-7.4
				c0-3.2,0.1-6.4,0-9.5c0,0,4.1-4.3,6.7-13.9C407.3,274.5,461.1,276.9,508.5,275.8z"/>
		</g>
		<g>
			<g>
				<path fill="#9EB7CC" d="M545,274.7c-12,6.3-25.4,10.1-38.5,13.6c-14.9,4-30,7.1-45.2,9.9c-11.4,2.1-22.8,4-34.3,5.6
					c-0.6,0.1-4.4,0.6-4.3,0.7c-0.6-1.8-1.3-3.5-2-5.3c-3.5-8.8-8-17.1-13-25.1c-0.3-0.4-0.9,0-0.7,0.4c6,9.5,11.5,19.7,15,30.3
					c0,0.1,0.2,0.3,0.4,0.3c18.9-2.3,37.8-5.8,56.4-9.7c22.3-4.7,46.2-9.5,66.6-20.2C545.8,275.2,545.4,274.5,545,274.7L545,274.7z"
					/>
			</g>
		</g>
		<g>
			<g>
				<g>
					<path fill="#087773" stroke="#087773" stroke-width="0.25" stroke-miterlimit="10" d="M493,106.4c-0.4-0.1-1.1,1-1.9,2.6
						c-0.4,0.8-0.9,1.7-1.4,2.7c-0.5,1-1.1,2-1.6,3.1c-0.5,1-1.2,2-1.7,3c-0.5,1-1.1,1.8-1.6,2.6c-0.4,0.8-0.9,1.3-1.1,1.8
						c-0.3,0.4-0.4,0.7-0.4,0.7c-0.2,0.4-0.4,0.7-0.6,1.1c-0.2,0.3-0.4,0.7-0.6,1c-0.4,0.6-0.6,1.3-0.8,1.8c-0.4,1.1-0.5,2-0.1,2.4
						c0.4,0.5,1.3,0.3,2.5-0.4c0.6-0.3,1.1-0.9,1.7-1.4c0.3-0.3,0.6-0.6,0.9-1c0.3-0.4,0.5-0.7,0.8-1.1c0,0,0.2-0.3,0.4-0.7
						c0.3-0.5,0.7-1.1,1.1-2c0.4-0.8,0.9-1.8,1.4-2.9c0.4-1.1,1-2.2,1.4-3.4c0.4-1.2,0.8-2.3,1.1-3.5c0.3-1.1,0.5-2.2,0.7-3.1
						C493.5,107.7,493.5,106.5,493,106.4z"/>
				</g>
			</g>
		</g>
		<g>
			<g>
				<g>
					<path fill="#087773" stroke="#087773" stroke-width="0.25" stroke-miterlimit="10" d="M476.6,89.6c-0.4,0.1-0.6,1.2-0.7,2.9
						c-0.1,0.8-0.1,1.8-0.1,2.8c-0.1,1-0.1,2.1-0.2,3.2c-0.1,1.1-0.2,2.1-0.3,3.1c-0.1,1-0.3,1.9-0.4,2.7c-0.1,0.8-0.2,1.4-0.3,1.9
						c-0.1,0.5-0.1,0.7-0.1,0.7c-0.1,0.8-0.2,1.5-0.3,2.2c-0.1,0.7,0,1.3,0,1.9c0.1,1.1,0.4,1.9,1,2.1c0.6,0.2,1.3-0.2,2.1-1.2
						c0.4-0.5,0.7-1.1,1-1.8c0.3-0.7,0.5-1.5,0.7-2.4c0,0,0-0.3,0.1-0.8c0-0.5,0.2-1.2,0.2-2.1c0-0.9,0.1-1.9,0.1-2.9
						c0-1.1-0.1-2.2-0.2-3.4c-0.1-1.1-0.2-2.3-0.4-3.3c-0.2-1.1-0.4-2-0.6-2.9C477.5,90.5,477,89.5,476.6,89.6z"/>
				</g>
			</g>
		</g>
		<g>
			<g>
				<g>
					<path fill="#087773" stroke="#087773" stroke-width="0.25" stroke-miterlimit="10" d="M479,144.2c-0.4-0.2-1,0.2-1.6,0.7
						c-0.3,0.3-0.7,0.6-1.1,1c-0.4,0.4-0.8,0.7-1.2,1.1c-0.4,0.4-0.8,0.7-1.2,1.1c-0.4,0.3-0.7,0.6-1,0.9c-0.6,0.5-1,0.8-1,0.8
						c-0.3,0.3-0.5,0.5-0.7,0.8c-0.2,0.3-0.3,0.6-0.4,0.9c-0.2,0.6-0.2,1.3,0,1.8s0.9,0.9,1.6,0.9c0.4,0,0.8-0.1,1.2-0.2
						c0.4-0.2,0.9-0.4,1.2-0.7c0,0,1.9-1.8,3.1-4c0.3-0.6,0.6-1.1,0.8-1.7c0.2-0.6,0.4-1.1,0.5-1.5
						C479.5,145.1,479.4,144.4,479,144.2z"/>
				</g>
			</g>
		</g>
		<g>
			<g>
				<g>
					<path fill="#087773" stroke="#087773" stroke-width="0.25" stroke-miterlimit="10" d="M464.1,108c-0.4,0.2-0.4,1.1-0.2,2.5
						c0,0.7,0.1,1.5,0.3,2.3c0.1,0.8,0.2,1.7,0.3,2.6c0.1,0.9,0.1,1.7,0.2,2.5c0,0.8,0.1,1.6,0.1,2.2c0,1.3,0,2.1,0,2.1
						c0.1,2.5,0.8,4.7,2,4.9c1.2,0.2,2.5-2.1,2.5-5c0,0-0.1-1-0.2-2.4c-0.1-0.7-0.3-1.5-0.4-2.4c-0.2-0.9-0.4-1.8-0.7-2.7
						c-0.3-0.9-0.6-1.8-0.9-2.6c-0.4-0.8-0.7-1.6-1.1-2.2C465.2,108.6,464.5,107.9,464.1,108z"/>
				</g>
			</g>
		</g>
		<g>
			<g>
				<g>
					<path fill="#087773" stroke="#087773" stroke-width="0.25" stroke-miterlimit="10" d="M441.2,82.2c-0.4,0-0.7,0.9-1,2.4
						c-0.1,0.7-0.2,1.5-0.3,2.4c0,0.9,0,1.8,0.1,2.8c0.1,1,0.1,1.9,0.2,2.8c0.2,0.9,0.3,1.7,0.4,2.4c0.3,1.4,0.4,2.4,0.4,2.4
						c0.9,2.8,2.5,4.6,3.7,4.2c1.2-0.4,1.4-2.9,0.6-5.4c0,0-0.2-0.8-0.6-2.1c-0.2-0.6-0.4-1.4-0.7-2.2c-0.2-0.8-0.4-1.7-0.6-2.6
						c-0.2-0.9-0.4-1.7-0.7-2.6c-0.2-0.8-0.3-1.6-0.5-2.3C442.1,83.1,441.7,82.2,441.2,82.2z"/>
				</g>
			</g>
		</g>
		<g>
			<g>
				<g>
					<path fill="#087773" stroke="#087773" stroke-width="0.25" stroke-miterlimit="10" d="M408.7,86.5c-0.2,0.4,0.4,1.3,1.5,2.4
						c0.5,0.6,1.1,1.3,1.8,2c0.6,0.7,1.2,1.5,1.9,2.3c0.6,0.8,1.2,1.6,1.7,2.4c0.5,0.8,0.9,1.5,1.3,2.2c0.6,1.3,1.1,2.2,1.1,2.2
						c0.4,0.6,0.6,1.3,1,1.8c0.2,0.3,0.4,0.5,0.5,0.8c0.2,0.2,0.3,0.5,0.5,0.7c0.7,0.8,1.4,1.3,2,1.2c0.6-0.1,1-0.9,1.1-2.1
						c0-0.3,0-0.6,0-1c0-0.3-0.1-0.7-0.2-1.1c-0.2-0.7-0.4-1.5-0.8-2.3c0,0-0.1-0.2-0.4-0.7c-0.3-0.4-0.6-1.1-1.1-1.8
						c-0.5-0.7-1.1-1.5-1.7-2.3c-0.7-0.8-1.5-1.6-2.3-2.4c-0.9-0.7-1.7-1.5-2.5-2.1c-0.9-0.6-1.7-1.1-2.4-1.5
						C410,86.4,408.9,86.1,408.7,86.5z"/>
				</g>
			</g>
		</g>
		<g>
			<g>
				<g>
					<path fill="#087773" stroke="#087773" stroke-width="0.25" stroke-miterlimit="10" d="M413.6,136.1c-0.8,0.4,0.2,3.3,1.3,6
						c0.6,1.4,1.2,2.7,1.6,3.7c0.4,1,0.7,1.7,0.7,1.7c1,1.9,2.7,3.1,3.8,2.6c1.1-0.5,1.2-2.6,0.2-4.6c0,0-0.4-0.6-0.9-1.6
						c-0.6-1-1.4-2.2-2.2-3.4C416.3,138,414.3,135.7,413.6,136.1z"/>
				</g>
			</g>
		</g>
		<g>
			<g>
				<g>
					<path fill="#087773" stroke="#087773" stroke-width="0.25" stroke-miterlimit="10" d="M426.2,112.1c-0.8,0.4,0.2,3.3,1.3,6
						c0.6,1.4,1.2,2.7,1.6,3.7c0.4,1,0.7,1.7,0.7,1.7c1,1.9,2.7,3.1,3.8,2.6c1.1-0.5,1.2-2.6,0.2-4.6c0,0-0.4-0.6-0.9-1.6
						c-0.6-1-1.4-2.2-2.2-3.4C428.9,114,427,111.7,426.2,112.1z"/>
				</g>
			</g>
		</g>
		<g>
			<g>
				<g>
					<path fill="#087773" stroke="#087773" stroke-width="0.25" stroke-miterlimit="10" d="M517,135.7c-0.4,0.1-0.6,1-0.7,2.2
						c-0.1,1.2-0.3,2.7-0.7,4.1c-0.4,1.4-1.1,2.6-1.7,3.4c-0.3,0.4-0.6,0.7-0.8,1c-0.2,0.2-0.3,0.4-0.3,0.4
						c-0.7,0.8-1.3,1.6-1.6,2.3c-0.4,0.8-0.5,1.5-0.2,2c0.3,0.5,1.1,0.8,2,0.6c1-0.2,2.2-0.8,3.1-1.9c0,0,0.1-0.2,0.4-0.5
						c0.3-0.3,0.6-0.9,1-1.5c0.7-1.3,1.4-3.2,1.5-5.1c0.2-1.9-0.2-3.7-0.6-5C518,136.3,517.4,135.6,517,135.7z"/>
				</g>
			</g>
		</g>
		<g>
			<g>
				<g>
					<path fill="#087773" stroke="#087773" stroke-width="0.25" stroke-miterlimit="10" d="M385,149.8c-0.4,0.2-0.2,1.2,0.4,2.5
						c0.3,0.6,0.8,1.3,1.2,2c0.5,0.7,1.1,1.4,1.7,2.1c0.7,0.7,1.3,1.3,2,1.9c0.7,0.6,1.3,1.1,1.9,1.5c1.2,0.8,2,1.3,2,1.3
						c0.6,0.3,1.3,0.6,1.9,0.7c0.3,0.1,0.6,0.1,0.9,0.2c0.3,0,0.6,0,0.8,0c1-0.1,1.7-0.4,1.9-1c0.2-0.6-0.1-1.3-0.7-2
						c-0.2-0.2-0.3-0.3-0.5-0.5c-0.2-0.2-0.4-0.3-0.6-0.5c-0.4-0.3-0.9-0.6-1.5-0.9c0,0-0.7-0.4-1.8-0.9c-0.5-0.3-1.1-0.7-1.8-1.1
						c-0.7-0.4-1.3-0.9-2-1.4c-0.7-0.5-1.3-1-2-1.5c-0.6-0.5-1.2-1-1.7-1.4C386.2,150.1,385.4,149.5,385,149.8z"/>
				</g>
			</g>
		</g>
		<g>
			<g>
				<g>
					<path fill="#087773" stroke="#087773" stroke-width="0.25" stroke-miterlimit="10" d="M396.9,118c-0.4,0-0.7,1-0.7,2.4
						c0,0.7,0.1,1.5,0.2,2.4c0.2,0.9,0.4,1.8,0.6,2.7c0.3,0.9,0.6,1.8,0.9,2.6c0.4,0.8,0.7,1.6,1,2.2c0.7,1.2,1.2,2,1.2,2
						c0.4,0.6,0.9,1.1,1.4,1.5c0.2,0.2,0.5,0.4,0.7,0.6c0.2,0.1,0.5,0.3,0.7,0.4c0.9,0.4,1.7,0.4,2.1,0c0.4-0.4,0.5-1.2,0.2-2.1
						c-0.1-0.2-0.1-0.4-0.2-0.7c-0.1-0.2-0.2-0.5-0.3-0.7c-0.2-0.5-0.6-1-0.9-1.5c0,0-0.5-0.7-1.2-1.6c-0.3-0.5-0.7-1.1-1.1-1.8
						c-0.4-0.7-0.8-1.4-1.2-2.1c-0.4-0.7-0.7-1.5-1.1-2.2c-0.3-0.7-0.6-1.4-0.9-2C397.8,118.8,397.3,118,396.9,118z"/>
				</g>
			</g>
		</g>
		<g>
			<g>
				<g>
					<path fill="#087773" stroke="#087773" stroke-width="0.25" stroke-miterlimit="10" d="M364.8,156.1c-0.3,0.3,0,1.1,0.8,2.3
						c0.4,0.5,0.9,1.1,1.5,1.7c0.6,0.6,1.3,1.1,2,1.7c0.8,0.5,1.5,1,2.3,1.4c0.8,0.4,1.5,0.8,2.1,1c1.3,0.5,2.1,0.8,2.1,0.8
						c2.7,0.7,5-0.2,5.1-1.4c0.1-1.3-1.7-2.4-3.9-2.9c0,0-0.7-0.2-1.9-0.5c-0.6-0.2-1.2-0.4-1.9-0.6c-0.7-0.2-1.4-0.6-2.1-0.9
						c-0.7-0.3-1.4-0.7-2.1-1c-0.6-0.4-1.3-0.7-1.8-1C365.9,156.1,365.1,155.8,364.8,156.1z"/>
				</g>
			</g>
		</g>
		<g>
			<g>
				<g>
					<path fill="#087773" stroke="#087773" stroke-width="0.25" stroke-miterlimit="10" d="M437.7,144.6c-0.7,0.5,0,2.5,1.1,4.3
						c0.5,0.9,1.1,1.8,1.6,2.4c0.5,0.6,0.8,1.1,0.8,1.1c1.1,1.2,2.8,1.4,3.6,0.4c0.8-0.9,0.7-2.5-0.3-3.5c0,0-0.3-0.3-0.9-0.8
						c-0.5-0.5-1.2-1.1-2-1.8C440,145.4,438.4,144.1,437.7,144.6z"/>
				</g>
			</g>
		</g>
		<path fill="#9EB7CC" stroke="#9EB7CC" stroke-width="0.325" stroke-miterlimit="10" d="M404.1,302.7c-0.5,1.6-2,2.6-3.6,2.6
			c0.1-2.4,0.1-4.9,0.1-7.4c0.3,0,0.6,0.1,0.9,0.2C403.5,298.7,404.7,300.8,404.1,302.7z"/>
		<path fill="#9EB7CC" stroke="#9EB7CC" stroke-width="0.325" stroke-miterlimit="10" d="M403.8,321.4c-0.5,1.7-2.2,2.7-4,2.5
			c0.1-2.4,0.2-4.9,0.3-7.4c0.4,0,0.7,0.1,1.1,0.2C403.2,317.4,404.4,319.4,403.8,321.4z"/>
		<path fill="#9EB7CC" stroke="#9EB7CC" stroke-width="0.325" stroke-miterlimit="10" d="M402.2,340.7c-0.5,1.6-2.1,2.6-3.8,2.5
			c0.2-2.2,0.4-4.7,0.6-7.3c0.2,0,0.3,0.1,0.5,0.1C401.6,336.7,402.8,338.8,402.2,340.7z"/>
		<path fill="#9EB7CC" stroke="#9EB7CC" stroke-width="0.325" stroke-miterlimit="10" d="M400.9,359.1c-0.4,1.3-1.6,2.3-2.9,2.5
			c-0.2-2.4-0.2-4.8-0.2-7.3c0.2,0,0.4,0.1,0.5,0.1C400.3,355,401.5,357.1,400.9,359.1z"/>
		
			<ellipse transform="matrix(-0.9549 -0.297 0.297 -0.9549 893.2883 647.5848)" fill="#2F7F40" cx="495.8" cy="255.9" rx="3.4" ry="3.2"/>
		
			<ellipse transform="matrix(-0.955 -0.2967 0.2967 -0.955 840.5056 661.1698)" fill="#2F7F40" cx="470.4" cy="266.8" rx="4.5" ry="4.2"/>
		
			<ellipse transform="matrix(-0.955 -0.2966 0.2966 -0.955 937.3226 585.5991)" fill="#2F7F40" cx="513.1" cy="221.7" rx="1.8" ry="1.7"/>
		
			<ellipse transform="matrix(-0.9549 -0.2968 0.2968 -0.9549 955.9255 647.2468)" fill="#2F7F40" cx="527.1" cy="251.1" rx="6.3" ry="6"/>
		
			<ellipse transform="matrix(-0.9549 -0.2968 0.2968 -0.9549 845.0962 446.8586)" fill="#2F7F40" cx="456.5" cy="159.3" rx="4" ry="3.8"/>
		
			<ellipse transform="matrix(-0.955 -0.2967 0.2967 -0.955 751.0533 654.924)" fill="#2F7F40" cx="425.2" cy="270.5" rx="4.7" ry="4.5"/>
		
			<ellipse transform="matrix(-0.955 -0.2968 0.2968 -0.955 737.029 407.498)" fill="#2F7F40" cx="399.4" cy="147.8" rx="7.9" ry="7.5"/>
		<path fill="#2F7F40" d="M434.1,128.4c-0.3,1,0.3,2.2,1.4,2.5c1.1,0.3,2.3-0.2,2.6-1.3c0.3-1-0.3-2.2-1.4-2.5
			C435.6,126.7,434.5,127.3,434.1,128.4z"/>
		
			<ellipse transform="matrix(-0.9549 -0.2969 0.2969 -0.9549 738.504 613.9647)" fill="#2F7F40" cx="415.9" cy="250.9" rx="2.1" ry="2"/>
		
			<ellipse transform="matrix(-0.955 -0.2966 0.2966 -0.955 795.7427 615.2991)" fill="#2F7F40" cx="444.5" cy="247.3" rx="2.1" ry="2"/>
		<path fill="#2F7F40" d="M478.3,130.6c-0.7,2.2,0.7,4.6,3,5.4c2.4,0.7,4.8-0.5,5.5-2.7c0.7-2.2-0.7-4.6-3-5.4
			C481.5,127.2,479,128.4,478.3,130.6z"/>
	</g>
</g>
<g id="Sacos">
	<g>
		<path fill="#998675" d="M223.5,244.4c-4.9,18.8-13.8,35.5-27.8,50C168.4,322,111.3,360,70.2,351c-21.4-4.9-36.6-25.4-35.7-47.3
			c0.9-25.4,20.7-40.3,39.9-53.2c0,0,0,3.3-0.1,5.3c-0.5,14.8-0.1,28.7,0.9,41.3c2.6,4,7.8,7.9,12.2,8.2c21.9,0.9,51.3-2.2,76-8.8
			c10.6-2.8,19-6,25.8-9.4C216,273.5,219.1,256.7,223.5,244.4L223.5,244.4z"/>
	</g>
	<g>
		<polygon fill="#998675" points="51.2,348.8 34.1,343.9 33.5,326.1 50.2,320 61.2,334.1 		"/>
		<polygon fill="#662D91" points="57,364.6 35,372.5 18.9,353.7 34,343.9 51.1,348.7 		"/>
		<polygon fill="#361F4F" points="50.3,320.2 33.6,326.2 17.5,314.1 32.6,297.5 54.7,300.6 		"/>
		<polygon fill="#4D296D" points="79.1,331.8 61.1,334 50.2,320 54.7,300.5 77.2,310.2 		"/>
		<polygon fill="#7B44AA" points="78.8,356.6 57,364.6 51.2,348.7 61.1,334 79.1,331.8 		"/>
		<polygon fill="#4D296D" points="34,343.8 18.9,353.7 6.4,336 17.5,314 33.4,326.1 		"/>
		<polygon fill="#662D91" points="55.2,359.7 23.6,350.7 22.5,317.8 53.3,306.5 73.5,332.5 		"/>
		<polygon fill="#CC17CC" points="51.2,348.9 33.7,343.9 33.1,325.6 50.2,319.4 61.4,333.8 		"/>
	</g>
	<g>
		<polygon fill="#998675" points="135.7,314.4 146.2,328.8 135.8,343.2 118.8,337.8 118.8,320 		"/>
		<polygon fill="#662D91" points="140.9,298.4 163.1,305.7 164.2,330.5 146.3,328.9 135.8,314.6 		"/>
		<polygon fill="#361F4F" points="118.8,337.6 135.7,343.1 141,362.5 118.9,366.4 103.3,350.3 		"/>
		<polygon fill="#4D296D" points="103.2,310.7 118.8,320.1 118.9,337.8 103.3,350.4 91.5,328.9 		"/>
		<polygon fill="#7B44AA" points="118.7,291.4 140.9,298.4 135.7,314.6 118.8,320 103.2,310.7 		"/>
		<polygon fill="#4D296D" points="146.2,328.9 164.2,330.5 163.2,352.1 141,362.6 135.8,343.3 		"/>
		<polygon fill="#662D91" points="139.3,303.4 158.6,329.9 139.3,356.6 108.1,346.5 108.1,313.6 		"/>
		<polygon fill="#CC17CC" points="135.8,314.3 146.5,329.1 135.8,343.9 118.4,338.2 118.4,320 		"/>
	</g>
	<g>
		<polygon fill="#998675" points="98.2,335.4 100.5,353 84.5,360.7 72.2,347.9 80.7,332.2 		"/>
		<polygon fill="#662D91" points="110.4,323.8 126.4,340.8 115.6,363.1 100.6,353.2 98.2,335.6 		"/>
		<polygon fill="#361F4F" points="72.3,347.7 84.6,360.6 79.9,380.2 58.6,373 52.6,351.5 		"/>
		<polygon fill="#4D296D" points="71.4,316.6 80.6,332.3 72.2,347.9 52.5,351.6 52.4,327 		"/>
		<polygon fill="#7B44AA" points="94.2,307 110.4,323.8 98.1,335.5 80.7,332.3 71.4,316.6 		"/>
		<polygon fill="#4D296D" points="100.5,353.2 115.6,363.1 104.4,381.6 79.8,380.2 84.5,360.8 		"/>
		<polygon fill="#662D91" points="106.6,327.4 110.9,360 81.3,374.2 58.6,350.4 74.3,321.5 		"/>
		<polygon fill="#CC17CC" points="98.3,335.3 100.7,353.4 84.2,361.3 71.7,348.1 80.4,332 		"/>
	</g>
	<g>
		<path fill="#C7B299" d="M225.6,244.4c0.9,28.6-13.2,50-28.9,72.2c-20.7,29.1-46.2,53.6-73.8,76.5c-26.2,21.7-58.5,22.3-86.6,10.7
			c-38.4-16.1-44.6-50.9-26.8-83.5c14.3-25.9,36.2-50.4,59.8-68.3c2.2-1.8,3.1-3.1,5.3-4.5l-0.3,3c-19.2,12.9-39,27.8-39.9,53.2
			c-0.9,21.9,14.3,42.4,35.7,47.3c41.1,8.9,98.2-29,125.4-56.7c14.1-14.5,22.9-31.2,27.8-50L225.6,244.4z"/>
	</g>
	<g>
		<path fill="#998675" d="M499,362.5l1.8,28.9l-134.7-22c9.7-8.2,19.3-15,25.1-18.9c31.2-20.5,80.3-16.1,106.2,9.8
			C497.9,361.1,498.5,361.8,499,362.5z"/>
	</g>
	<g>
		<polygon fill="#998675" points="449.9,375.1 459.5,362.9 474.1,368.3 473.5,383.9 458.5,388.1 		"/>
		<polygon fill="#662D91" points="435.2,374.5 436.1,354.1 456.7,347.3 459.6,362.8 450,375 		"/>
		<polygon fill="#361F4F" points="473.3,383.9 474,368.4 489.2,359.4 497.6,377.1 487.7,394 		"/>
		<polygon fill="#4D296D" points="454.4,403.4 458.6,388.1 473.5,383.8 487.8,394 472.5,409 		"/>
		<polygon fill="#7B44AA" points="434.4,394.9 435.2,374.5 450,375.1 458.5,388.1 454.4,403.4 		"/>
		<polygon fill="#4D296D" points="459.6,362.9 456.7,347.3 475.2,343.1 489.2,359.4 474.1,368.3 		"/>
		<polygon fill="#662D91" points="439.7,374.7 457.5,352.2 484.5,362.2 483.4,390.9 455.6,398.6 		"/>
		<polygon fill="#CC17CC" points="449.8,375.1 459.7,362.6 474.6,368.2 474,384.1 458.6,388.4 		"/>
	</g>
	<g>
		<polygon fill="#998675" points="386,372.8 393.9,356.9 411.6,359.6 414.5,377.1 398.6,385.3 		"/>
		<polygon fill="#662D91" points="369.4,375.5 365.7,352.5 387.1,340.1 394,356.8 386.1,372.7 		"/>
		<polygon fill="#361F4F" points="414.3,377.2 411.4,359.7 426.3,346.1 439.8,364 432.7,385.2 		"/>
		<polygon fill="#4D296D" points="397.6,403.4 398.7,385.3 414.4,377.1 432.8,385.2 419.1,405.5 		"/>
		<polygon fill="#7B44AA" points="373.3,398.5 369.4,375.5 386.1,372.8 398.7,385.3 397.6,403.4 		"/>
		<polygon fill="#4D296D" points="394,356.8 387.1,340.1 406.9,331.1 426.4,346.1 411.5,359.5 		"/>
		<polygon fill="#662D91" points="374.5,374.7 389.2,345.3 421.8,350.3 427.1,382.7 397.9,397.8 		"/>
		<polygon fill="#CC17CC" points="385.9,372.8 394,356.5 412.1,359.3 415.1,377.2 398.8,385.6 		"/>
	</g>
	<g>
		<path fill="#C7B299" d="M524.2,436.3c-30.4,24.1-183,33.9-191-19.6c-2.3-13.7,15.6-32.6,32.9-47.2c15.6,1.4,36.7,1.1,44.7,3.4
			c23.7,6.4,77.7,8.2,88.2-10.4C517.8,385.9,559.7,408.6,524.2,436.3z"/>
	</g>
</g>
<g id="Intercambio">
	<g>
		<path fill="#00A99D" d="M268.9,345.3C268.9,345.3,268.8,345.3,268.9,345.3V345l1.4-5.3h0.1l0.1-7.3c5.1,1.6,10.2,3.1,15.4,4.4
			c-3.8,0.6-6.5,1.3-6.5,1.3C275.5,339.1,272.2,342.6,268.9,345.3z"/>
	</g>
	<g>
		<path fill="#00A99D" d="M301.3,357.3c-8.5,12.1-21.6,24.1-36.2,28.1c-9.2,2.5-20.8,2.1-28.1-4.9c-0.4-0.6-1.1-1-1.5-1.6l-26.3-6.7
			c-21.9,5.5-40.9,28.8-40.9,28.8c-18.3-17.5-22.6-37-16.1-67.2c0,0,28.4,4.1,37.2,3c2.4-0.3,7-1.5,7-1.5c0.3-0.6,1-1.4,1.8-2.2
			c5.7-5.3,21.5-12.7,34.4-10.6c10,1.7,20,4.6,30,7.7c-5.8,4.1-10,9-7.1,16.3c1.4,1.1,2.7,1.8,4,2.1c3,2.2,5.6,2.4,8.1,1.5
			c0,0,0,0,0,0c5.3-1.9,9.7-8.6,15.3-10.2c0,0,3.9-1,9.1-1.6c4.7,1.1,10,2.7,12.5,6.1C307.4,348.7,303.8,353.9,301.3,357.3z"/>
	</g>
	<g>
		<path fill="#00A99D" d="M202.8,351.9c-2.5,3-2.2,8.9-2.2,12.6c0,8.5,4.9,11.6,12.6,14.7c3.6,1.3,7,3.9,10.1,6
			c2.8,2.1,6.3,8,9.5,9.7c6,2.8,12.8,1.6,12.9-6.8c0-6.8-5.5-10.3-7.9-13.2c-2.7-3.4-5-6.8-5-6.8"/>
	</g>
	<g>
		<path fill="#07877A" d="M291.9,338.3c-5.2,0.6-9.1,1.6-9.1,1.6c-8.2,2.3-14,15.7-23.4,8.7c7.4,1.9,12.7-8.5,19.8-10.5
			c0,0,2.7-0.3,6.5-1.3h0c0.3,0,0.5,0.2,0.8,0.3C288.1,337.4,290,337.8,291.9,338.3z"/>
	</g>
	<path opacity="0.4" fill="#514151" d="M232.6,322.5c10,1.7,20,4.6,30,7.7c-5.8,4.1-10,9-7.1,16.3c1.4,1.1,2.7,1.8,4,2.1
		c3.4,0.9,6.4-0.9,9.4-3.2l-1.3,4.6l0,0.1l-3.3,11.7l-21.1,7.1l0,0.1l-24.5,1.4l-11.3-18.5l-9.1-18.8
		C203.9,327.8,219.7,320.4,232.6,322.5z"/>
	<path fill="#00A99D" d="M382,288.9c-0.2-0.6-0.4-1.2-0.6-1.8c-13.8,0.3-39.1,1.1-39.1,1.1c-10.6-4.4-35.8-19.3-58.5-15.4l-5.7,36.2
		c-1.2,1.2,1.1,10.1-0.7,11.3c-1.8,1.7-4.3,3.3-6.9,4.9c-0.1,0.1-0.2,0.1-0.3,0.2l0-0.2c-2.6,1.6-5.4,3.2-7.9,5c0.1,0,0.2,0,0.2,0.1
		c-5.7,4.1-9.9,8.9-7,16.2c1.4,1.1,2.7,1.8,4,2.1c3.4,0.9,6.4-0.9,9.4-3.2c0,0,0.1,0,0.1-0.1c3.3-2.7,6.6-6.2,10.4-7.3
		c0,0,2.7-0.3,6.5-1.3h0c4.4,0,10.3-1.1,15.5-0.5c7.7,1,18.6-11.1,25.7-12.3c0,0,0.4,0.8,1.6,2.3c3.2,3.9,11.6,12.3,31.8,22.9
		c0,0,0.1,0,0.1-0.1C384.7,330.5,388.3,310.6,382,288.9z"/>
	<path opacity="0.5" fill="#514151" d="M270.4,332.4l-0.1,7.3h-0.1l-1.4,5.3l-0.1,0.3c-2.9,2.3-5.9,4.1-9.4,3.2
		c-1.3-0.3-2.6-1-4-2.1c-2.9-7.3,1.3-12.2,7.1-16.3c1.4,0.4,2.9,0.8,4.3,1.2C268,331.7,269.2,332,270.4,332.4z"/>
	<g>
		<polygon fill="#998675" points="221.1,318.9 238.6,315.6 247.1,331.3 234.8,344.2 218.8,336.5 		"/>
		<polygon fill="#662D91" points="208.9,307.3 225.1,290.4 247.9,300.1 238.7,315.6 221.2,318.9 		"/>
		<polygon fill="#361F4F" points="234.7,344.1 246.9,331.2 266.7,334.9 260.6,356.5 239.4,363.6 		"/>
		<polygon fill="#4D296D" points="203.7,346.6 218.9,336.6 234.9,344.2 239.5,363.7 215,365 		"/>
		<polygon fill="#7B44AA" points="192.9,324.3 208.9,307.3 221.2,318.9 218.8,336.5 203.7,346.6 		"/>
		<polygon fill="#4D296D" points="238.7,315.7 247.9,300.1 267,310.4 266.8,335 247.1,331.3 		"/>
		<polygon fill="#662D91" points="212.7,310.9 245,304.9 260.7,333.8 238.1,357.6 208.4,343.4 		"/>
		<polygon fill="#CC17CC" points="221,318.8 238.9,315.5 247.6,331.5 235.1,344.8 218.6,336.9 		"/>
	</g>
	<g>
		<path fill="#00A99D" d="M283.8,272.7c0,0-9.2,5.6-20.5,9.7c-6.5,3-30.5,5.7-28.1,17c1.8,10.7,19.7,4,26.2,1.6
			c10.7-3.6,22.6-8.7,30.9-15.9"/>
	</g>
	<g>
		<path fill="#00A99D" d="M324.5,305.3c0,0.7-0.1,1.4-0.3,2c-2.6,8.1-20.3,14.6-28.6,11.6c-16.3-5.9-27.8-3.7-32.3-8.3
			c-1.8-1.8-2.4-4.7-1.8-9.6c0.7-5.7,14.4-26.2,23.4-24.8L324.5,305.3z"/>
	</g>
	<g>
		<path fill="#048276" d="M278,314.7c5.2,0.7,11.9,5.1,19.4,7.8c9,3.2,28.9-1.7,28.9-10.6l-2.1-4.5c-2.6,8.1-20.3,14.6-28.6,11.6
			C288.8,316.5,282.9,315.4,278,314.7L278,314.7z"/>
	</g>
</g>
</svg>
