<?xml version="1.0" encoding="utf-8"?>
<!-- Generator: Adobe Illustrator 17.1.0, SVG Export Plug-In . SVG Version: 6.00 Build 0)  -->
<!DOCTYPE svg PUBLIC "-//W3C//DTD SVG 1.1//EN" "http://www.w3.org/Graphics/SVG/1.1/DTD/svg11.dtd">
<svg version="1.1" xmlns="http://www.w3.org/2000/svg" xmlns:xlink="http://www.w3.org/1999/xlink" x="0px" y="0px"
	 viewBox="0 0 586 386" enable-background="new 0 0 586 386" xml:space="preserve">
<g id="Fondo">
	<path display="none" fill="#BA6CFF" d="M436.5,187.5c0,16.5-2.8,32.3-8.1,47c-0.4,1.2-0.9,2.5-1.4,3.7c-0.9,2.3-1.8,4.5-2.8,6.7
		c-1.4,3.2-3,6.3-4.6,9.4C395.8,298.2,349.4,328,296,328c-59.9,0-111.1-37.5-131.3-90.3c-1.9-4.8-3.4-9.8-4.8-14.9
		c-2.9-11.3-4.5-23.1-4.5-35.3c0-47.1,23.2-88.7,58.7-114.2c3.1-2.2,6.3-4.4,9.6-6.3c0.5-0.3,1-0.6,1.6-0.9c5.2-3,10.7-5.8,16.3-8.1
		c16.7-7,35.1-10.9,54.3-10.9c53.8,0,100.5,30.2,124.1,74.6c6.4,12.1,11.1,25.2,13.8,39C435.6,169.2,436.5,178.3,436.5,187.5z"/>
	<ellipse opacity="0.4" fill="#BFB8A9" cx="293.9" cy="279.6" rx="79.5" ry="5.3"/>
</g>
<g id="Figuritas">
	<g id="FONDO">
		<g>
			<circle fill="#1C1C1C" cx="113.9" cy="246.5" r="7.4"/>
			<path fill="#307EEF" d="M74.4,252.6c-5.3,2.1-7.9,8-5.8,13.3c2,5.3,8,7.9,13.3,5.8c5.3-2,7.9-8,5.8-13.3
				C85.7,253.2,79.7,250.5,74.4,252.6z"/>
			<circle fill="#1C1C1C" cx="113.9" cy="128.9" r="7.4"/>
			<path fill="#307EEF" d="M74.4,122.8c-5.3-2.1-7.9-8-5.8-13.3c2-5.3,8-7.9,13.3-5.8c5.3,2,7.9,8,5.8,13.3
				C85.7,122.2,79.7,124.9,74.4,122.8z"/>
			<g>
				<g>
					<circle fill="#1C1C1C" cx="481.3" cy="246.5" r="7.4"/>
					<path fill="#307EEF" d="M520.8,252.6c5.3,2.1,7.9,8,5.8,13.3c-2,5.3-8,7.9-13.3,5.8c-5.3-2-7.9-8-5.8-13.3
						C509.6,253.2,515.5,250.5,520.8,252.6z"/>
					<circle fill="#1C1C1C" cx="481.3" cy="128.9" r="7.4"/>
					<path fill="#307EEF" d="M520.8,122.8c5.3-2.1,7.9-8,5.8-13.3c-2-5.3-8-7.9-13.3-5.8c-5.3,2-7.9,8-5.8,13.3
						C509.6,122.2,515.5,124.9,520.8,122.8z"/>
					<g>
						<circle fill="#1C1C1C" cx="381" cy="224.2" r="7.4"/>
						<path fill="#307EEF" d="M420.4,230.3c5.3,2.1,7.9,8,5.8,13.3c-2,5.3-8,7.9-13.3,5.8c-5.3-2-7.9-8-5.8-13.3
							C409.2,230.9,415.2,228.3,420.4,230.3z"/>
					</g>
					<g>
						<circle fill="#1C1C1C" cx="381" cy="153.8" r="7.4"/>
						<path fill="#307EEF" d="M420.4,147.7c5.3-2.1,7.9-8,5.8-13.3c-2-5.3-8-7.9-13.3-5.8c-5.3,2-7.9,8-5.8,13.3
							C409.2,147.1,415.2,149.7,420.4,147.7z"/>
					</g>
				</g>
				<g>
					<circle fill="#1C1C1C" cx="113.9" cy="246.5" r="7.4"/>
					<path fill="#307EEF" d="M74.4,252.6c-5.3,2.1-7.9,8-5.8,13.3c2,5.3,8,7.9,13.3,5.8c5.3-2,7.9-8,5.8-13.3
						C85.7,253.2,79.7,250.5,74.4,252.6z"/>
					<circle fill="#1C1C1C" cx="113.9" cy="128.9" r="7.4"/>
					<path fill="#307EEF" d="M74.4,122.8c-5.3-2.1-7.9-8-5.8-13.3c2-5.3,8-7.9,13.3-5.8c5.3,2,7.9,8,5.8,13.3
						C85.7,122.2,79.7,124.9,74.4,122.8z"/>
					<g>
						<circle fill="#1C1C1C" cx="214.2" cy="224.2" r="7.4"/>
						<path fill="#307EEF" d="M174.8,230.3c-5.3,2.1-7.9,8-5.8,13.3c2,5.3,8,7.9,13.3,5.8c5.3-2,7.9-8,5.8-13.3
							C186,230.9,180,228.3,174.8,230.3z"/>
					</g>
					<g>
						<circle fill="#1C1C1C" cx="214.2" cy="153.8" r="7.4"/>
						<path fill="#307EEF" d="M174.8,147.7c-5.3-2.1-7.9-8-5.8-13.3c2-5.3,8-7.9,13.3-5.8c5.3,2,7.9,8,5.8,13.3
							C186,147.1,180,149.7,174.8,147.7z"/>
					</g>
				</g>
			</g>
			<g>
				<g>
					<g>
						<path fill="#1C1C1C" d="M327.2,101.8c1.4-3.8,5.6-5.8,9.5-4.5c3.9,1.4,5.8,5.6,4.5,9.5c-1.4,3.9-5.6,5.8-9.5,4.5
							C327.8,109.9,325.8,105.7,327.2,101.8z"/>
						<path fill="#307EEF" d="M340.2,64.9c2.1-5.3,8-7.9,13.3-5.8c5.3,2,7.9,8,5.8,13.3c-2,5.3-8,7.9-13.3,5.8
							C340.8,76.1,338.2,70.1,340.2,64.9z"/>
					</g>
					<g>
						<circle fill="#1C1C1C" cx="263.7" cy="104.3" r="7.4"/>
						<path fill="#307EEF" d="M257.6,64.9c-2.1-5.3-8-7.9-13.3-5.8c-5.3,2-7.9,8-5.8,13.3c2,5.3,8,7.9,13.3,5.8
							C257,76.1,259.6,70.1,257.6,64.9z"/>
					</g>
				</g>
				<g>
					<g>
						<path fill="#1C1C1C" d="M327.2,273.6c1.4,3.8,5.6,5.8,9.5,4.5c3.9-1.4,5.8-5.6,4.5-9.5c-1.4-3.9-5.6-5.8-9.5-4.5
							C327.8,265.5,325.8,269.7,327.2,273.6z"/>
						<path fill="#307EEF" d="M340.2,310.5c2.1,5.3,8,7.9,13.3,5.8c5.3-2,7.9-8,5.8-13.3c-2-5.3-8-7.9-13.3-5.8
							C340.8,299.3,338.2,305.3,340.2,310.5z"/>
					</g>
					<g>
						<circle fill="#1C1C1C" cx="263.7" cy="271.1" r="7.4"/>
						<path fill="#307EEF" d="M257.6,310.5c-2.1,5.3-8,7.9-13.3,5.8c-5.3-2-7.9-8-5.8-13.3c2-5.3,8-7.9,13.3-5.8
							C257,299.3,259.6,305.3,257.6,310.5z"/>
					</g>
				</g>
			</g>
		</g>
	</g>
	<g id="Capa_4">
		<polygon fill="#FFD243" points="316.7,4.7 296,79.7 275.4,4.7 		"/>
		<polygon fill="#FFD243" points="578.5,212.2 503.5,191.6 578.5,170.9 		"/>
		<polygon fill="#FFD243" points="316.7,6.3 296,81.3 275.4,6.3 		"/>
		<polygon fill="#FFD243" points="275.4,374.4 296,299.4 316.7,374.4 		"/>
		<polygon fill="#FFD243" points="578.5,213.8 503.5,193.1 578.5,172.5 		"/>
		<polygon fill="#FFD243" points="492.1,61.2 424.5,99.7 462.9,32 		"/>
		<polygon fill="#FFD243" points="140.5,32 178.9,99.7 111.3,61.2 		"/>
		<polygon fill="#FFD243" points="5.9,172.5 80.9,193.1 5.9,213.8 		"/>
		<polygon fill="#FFD243" points="492.1,323.5 424.5,285.1 462.9,352.7 		"/>
		<polygon fill="#FFD243" points="140.5,352.7 178.9,285.1 111.3,323.5 		"/>
		<ellipse display="none" fill="none" stroke="#FFD243" stroke-miterlimit="10" cx="292.2" cy="189.6" rx="248.8" ry="147.3"/>
	</g>
</g>
<g id="KO">
	<g>
		<ellipse opacity="0.4" fill="#BFB8A9" cx="298.6" cy="304.6" rx="79.5" ry="5.3"/>
		<g id="KO_1_">
			<path fill="#DD055E" d="M280.6,239.1l-8.9-13.4l-0.3-0.5l-2.8-4.1l-32.1-48.4l40.4-38.7l20.8-19.9h-68.9l-24.3,26.3l-30,32.4V114
				h-51.8v155.2h51.8v-37.9l9.5-9.2l17.3-16.8l4.4,7.9l6.8,12.3l20.5,36.9l3.7,6.7h63.8L280.6,239.1z"/>
			<path fill="#DD055E" d="M463.6,133.1c-14.7-13.7-35.8-20.5-63.1-20.5c-26.6,0-47.4,7-62.3,20.9c-1,0.9-1.9,1.9-2.8,2.8
				c-13,13.7-19.6,32.2-19.6,55.5c0,10.9,1.4,20.7,4.2,29.4c1.1,3.4,2.4,6.6,3.9,9.6c1,2,2,3.8,3.2,5.6
				c7.5,11.9,17.4,20.6,29.5,26.1c1.1,0.5,2.2,1,3.3,1.4c11.5,4.6,25.7,6.8,42.6,6.8c18.2,0,33.4-3.2,45.6-9.5
				c12.2-6.4,21.5-15.3,28-26.7c6.4-11.4,9.7-26.1,9.7-44C485.7,165.9,478.3,146.7,463.6,133.1z M426.1,225.5
				c-6,6.6-14.4,9.9-25.3,9.9c-10.3,0-18.5-3.2-24.6-9.6c-0.2-0.2-0.4-0.4-0.5-0.5c-6.2-6.8-9.2-17.8-9.2-33.3
				c0-15.6,3.1-26.7,9.3-33.5c6.2-6.8,14.4-10.1,24.6-10.1c10.7,0,19.1,3.3,25.3,10c6.2,6.7,9.3,17.2,9.3,31.6
				c0,17-2.9,28.7-8.8,35.4C426.2,225.4,426.2,225.4,426.1,225.5z"/>
		</g>
		<g>
			<path fill="#DFE1E5" d="M220.9,283.7c-4-9-11.5,0-17,2c-16.5,7-26.5-0.5-38-11c2.5,5,2,14,5,16.5c1.5,1.5,16.5,4,19,4
				c9.5,1,10-4,17.5-7.5c5.5-3,13.5-0.5,17.5-5.5c-2-2-4.5-2.5-6.5-2"/>
		</g>
		<g>
			<path fill="#DFE1E5" d="M228.9,285.7c-8-7-12,5.5-16,10c-8,9.5-33,12.5-27.5,30c1-5.5,5.5-7,10.5-6c-0.5-7.5,4-7.5,8.5-11
				c5.5-3.5,6-3.5,10-8.5c2.5-4,15-14.5,14.5-15.5"/>
		</g>
		<path fill="#4FBA8E" d="M382.1,287.3c-0.8,1.9-1.7,3.7-2.8,5.3c-1,1.6-2.1,3-3.4,4.2c-8.6,8.9-22.2,11.3-36.2,8.4
			c-9-1.9-25.5-4.1-37.7-4.9c-0.6,0-1.2-0.1-1.8-0.1c-2.5-0.1-4.8-0.2-6.7-0.2c-12.3,0.1-25.5,2.4-37.6,4.4c-2,0.3-4.5,0.3-7.3-0.1
			c-4.8-0.6-10-1.9-13.5-3.2c-0.4-0.2-0.8-0.3-1.2-0.5c-8.9-3.7-16.1-11.3-18.9-21c-0.4-1.4-0.8-2.9-1-4.5
			c-0.2-3.8,0.2-7.7,1.3-11.7c2.5-9.1,4.7-15.7,16-23.6c0.2-0.2,0.5-0.3,0.7-0.5c0.3-0.2,0.5-0.4,0.8-0.5c0.4-0.3,0.9-0.6,1.3-0.8
			c0.9-0.6,1.9-1.2,2.8-1.7c0.5-0.3,1.1-0.6,1.6-0.9c14.3-7.5,35-9.4,51.7-9.2c5.5,0.1,10.8,0.4,15.9,0.8c0.6,0,1.2,0.1,1.8,0.2
			c27.2,2.7,47.5,10.1,56.6,15.6c7.7,4.6,13.7,11.6,17,19.5c1.3,3.1,2.2,6.4,2.5,9.7C384.8,277.1,384.2,282.3,382.1,287.3z"/>
		<path fill="#4EDD70" d="M364.7,242.9c7.7,4.6,13.7,11.6,17,19.5c1.3,3.1,2.2,6.4,2.5,9.7c-0.3,0.9-0.6,1.7-0.9,2.6
			c-0.8,1.9-1.7,3.7-2.7,5.3c-1,1.6-2.1,3-3.4,4.2c-0.8,0.8-1.7,1.6-2.5,2.3c-1.7-1.4-4-2.8-6.8-4.1c-12.7-6.2-54.2,5.3-54.2,5.3
			c-0.2,0.3-0.5,0.6-0.7,0.8c-3.4-0.3-6.6-0.6-9.7-0.8c-0.6,0-1.2-0.1-1.8-0.1c-2.5-0.1-4.8-0.2-6.7-0.2c-2.6,0-5.8,0.2-9.3,0.5
			c-8.5,0.8-18.9,2.3-27.6,3.7c-4.3,0.7-8.2,1.3-11.3,1.8c-5.9,1-11.7,0.2-16.9-1.9c-5.9-2.4-11-6.6-14.6-11.9
			c-0.4-1.4-0.8-2.9-1-4.5c-0.2-3.8,0.2-7.7,1.3-11.7c2.5-9.1,4.7-15.7,16-23.6c0.5-0.3,1-0.7,1.5-1c0.4-0.3,0.9-0.6,1.3-0.8
			c0.9-0.6,1.9-1.2,2.8-1.7c3.6-2.1,7.7-3.8,12.1-5.2c5.6-1.7,11.7-2.9,17.8-3.7c8-1,16.1-1.3,23.4-1.2c5.5,0.1,10.8,0.4,15.9,0.8
			c0.6,0,1.2,0.1,1.8,0.2C335.2,230,355.6,237.4,364.7,242.9z"/>
		<g>
			<path fill="#FFFFFF" d="M300.3,300.2c0.6,0,1.2,0.1,1.8,0.1c12.2,0.8,28.7,3,37.7,4.9c14,2.9,27.6,0.5,36.2-8.4
				c1.2-1.3,2.4-2.7,3.4-4.2c-1.1-3.4-4.6-6.9-11.5-10.2c-12.7-6.2-54.2,5.3-54.2,5.3c-3.1,3.7-5.3,4.7-10.4,5.8
				C303.3,293.4,300.8,299.1,300.3,300.2z"/>
		</g>
		<g>
			<g>
				<path fill="#9EB7CC" d="M303.2,293.8c1.7,4.7,7.1,6.7,11.6,7.6c0.2,0.1,0.4-0.3,0.1-0.4c-4.4-0.9-9.7-2.8-11.3-7.3
					C303.5,293.4,303.1,293.5,303.2,293.8L303.2,293.8z"/>
			</g>
		</g>
		<g>
			<path fill="#FFFFFF" d="M314.6,297c17.4,0.3,42.6,10.5,59.5,1c0.7-0.4,1.3-0.8,2-1.2c2.5-2.6-67-9.7-65.2-7
				C312.3,292,313.6,294.4,314.6,297z"/>
			<g>
				<path fill="#9EB7CC" d="M314.6,297.6c19.4,0.6,41.2,10.8,59.8,1c2.1-1.1,3.3-2.2,0.7-3.1c-4-1.4-8.5-1.8-12.6-2.4
					c-12.7-1.8-25.5-3.1-38.3-4c-4-0.3-8.1-0.6-12.1-0.3c-0.6,0-1.4,0.1-1.8,0.6c-0.7,1.1,3.3,6.9,3.7,7.8c0.3,0.7,1.4,0.4,1.2-0.3
					c-0.7-1.6-1.4-3.1-2.2-4.6c-0.5-0.9-1.1-1.8-1.6-2.7c-0.3,0.5-0.3,0.6,0,0.5c0.9-0.3,2.1-0.2,3.1-0.2c3.8,0,7.6,0.3,11.3,0.5
					c10.8,0.8,21.6,1.9,32.3,3.3c4.3,0.6,8.6,1.2,12.9,2c1.3,0.2,2.5,0.5,3.7,0.9c1,0.3,0.5,0,0,0.4c-2.3,1.5-4.8,2.4-7.4,3.2
					c-17.1,5.1-35.5-3.2-52.8-3.7C313.8,296.4,313.8,297.6,314.6,297.6z"/>
			</g>
		</g>
		<g>
			<path fill="#FFFFFF" d="M314.6,297c17.4,0.3,42.6,10.5,59.5,1c0.7-0.4,1.3-0.8,2-1.2c2.5-2.6,4.6-5.8,6.1-9.5
				c3.4-8.3,2.9-17.1-0.4-25c-3.3-7.9-9.4-14.8-17-19.5c-9.1-5.5-29.5-12.9-56.6-15.6c0.6,25.5-3.3,55.6-3.3,55.6
				C308.7,286.3,312.2,291.1,314.6,297z"/>
		</g>
		<g>
			<g>
				<path fill="#9EB7CC" d="M308.5,227.5c5.9,12.8,11.7,25.7,14.9,39.5c0.5,2,0.5,1.6-1.1,2.4c-1.7,0.9-3.3,1.9-5,3
					c-4.6,3-8.8,6.5-12.5,10.6c-0.2,0.2,0.1,0.5,0.3,0.3c5.3-5.8,11.8-10.8,19-14.2c0.1,0,0.1-0.1,0.1-0.2c-3-14.5-9.1-28-15.3-41.4
					C308.8,227,308.4,227.2,308.5,227.5L308.5,227.5z"/>
			</g>
		</g>
		<g>
			<g>
				<g>
					<g>
						<path fill="#087773" stroke="#087773" stroke-width="0.1324" stroke-miterlimit="10" d="M201.1,305.4c0.1,0.2,0.6,0.1,1.4-0.1
							c0.4-0.1,0.8-0.3,1.2-0.5c0.4-0.2,0.9-0.5,1.3-0.8c0.4-0.3,0.9-0.5,1.3-0.8c0.4-0.3,0.7-0.6,1-0.9c0.6-0.5,1-0.9,1-0.9
							c1-1.2,1.4-2.5,0.9-2.9c-0.6-0.4-1.7,0.2-2.6,1.3c0,0-0.3,0.3-0.8,0.8c-0.2,0.3-0.5,0.6-0.8,0.9c-0.3,0.3-0.7,0.6-1,0.9
							c-0.3,0.3-0.7,0.6-1,1c-0.4,0.3-0.7,0.5-1,0.8C201.4,304.7,201,305.2,201.1,305.4z"/>
					</g>
				</g>
			</g>
			<g>
				<g>
					<g>
						<path fill="#087773" stroke="#087773" stroke-width="0.1324" stroke-miterlimit="10" d="M179.3,301.9
							c-0.1,0.2,0.3,0.6,1.1,1.1c0.4,0.2,0.8,0.5,1.3,0.7c0.5,0.2,1,0.4,1.6,0.6c0.6,0.2,1.1,0.3,1.7,0.4c0.6,0.1,1.1,0.2,1.5,0.3
							c0.9,0.1,1.5,0.1,1.5,0.1c1.8,0,3.1-0.8,3-1.4c-0.1-0.7-1.5-1-3-1c0,0-0.5,0-1.3,0c-0.4,0-0.8-0.1-1.3-0.1
							c-0.5-0.1-1-0.1-1.5-0.2c-0.5-0.1-1-0.2-1.5-0.3c-0.5-0.1-1-0.2-1.4-0.3C180,301.8,179.4,301.7,179.3,301.9z"/>
					</g>
				</g>
			</g>
			<g>
				<g>
					<g>
						<path fill="#087773" stroke="#087773" stroke-width="0.1324" stroke-miterlimit="10" d="M278.3,316.4c0.1,0.2,0.6,0.1,1.3-0.2
							c0.4-0.1,0.8-0.3,1.2-0.5c0.4-0.2,0.8-0.5,1.3-0.8c0.4-0.3,0.9-0.6,1.2-0.8c0.4-0.3,0.7-0.6,1-0.8c0.6-0.5,1-0.8,1-0.8
							c1.1-1.1,1.5-2.4,1-2.8c-0.5-0.4-1.7,0.1-2.7,1.1c0,0-0.3,0.3-0.8,0.8c-0.2,0.3-0.5,0.5-0.9,0.9c-0.3,0.3-0.7,0.6-1,1
							c-0.3,0.3-0.7,0.6-1,1c-0.3,0.3-0.7,0.6-0.9,0.9C278.5,315.7,278.2,316.2,278.3,316.4z"/>
					</g>
				</g>
			</g>
			<g>
				<g>
					<g>
						<path fill="#087773" stroke="#087773" stroke-width="0.1324" stroke-miterlimit="10" d="M206.3,277.1c0.1,0.2,0.6,0.2,1.2,0.2
							c0.3,0,0.7,0,1.1-0.1c0.4,0,0.8,0,1.2-0.1c0.4,0,0.8,0,1.1,0c0.4,0,0.7,0.1,1,0.1c0.6,0.1,0.9,0.2,0.9,0.2
							c1.1,0.2,2.1,0.2,2.4-0.4c0.3-0.6-0.5-1.6-1.9-1.9c0,0-0.5-0.1-1.2-0.1c-0.3,0-0.8,0-1.2,0c-0.4,0.1-0.9,0.1-1.4,0.2
							c-0.4,0.1-0.9,0.2-1.3,0.4c-0.4,0.2-0.8,0.3-1.1,0.5C206.5,276.6,206.2,276.9,206.3,277.1z"/>
					</g>
				</g>
			</g>
			<g>
				<g>
					<g>
						<path fill="#087773" stroke="#087773" stroke-width="0.1324" stroke-miterlimit="10" d="M206.4,316.8
							c-0.1,0.2,0.3,0.5,0.7,0.8c0.5,0.3,1.1,0.7,1.6,1.1c0.5,0.4,1,0.8,1.3,1.2c0.2,0.2,0.3,0.3,0.3,0.4c0.1,0.1,0.1,0.2,0.1,0.2
							c0.1,0.1,0.1,0.2,0.2,0.2c0.1,0.1,0.1,0.2,0.2,0.2c0.1,0.1,0.3,0.2,0.4,0.4c0.3,0.2,0.6,0.4,0.9,0.4c0.3,0,0.6-0.3,0.7-0.8
							c0.1-0.3,0-0.5-0.1-0.8c0-0.2-0.1-0.3-0.2-0.5c-0.1-0.2-0.2-0.3-0.3-0.4c0,0-0.1-0.1-0.2-0.2c-0.1-0.2-0.3-0.4-0.6-0.6
							c-0.5-0.4-1.2-0.9-2-1.2C208.1,316.4,206.5,316.4,206.4,316.8z"/>
					</g>
				</g>
			</g>
			<g>
				<g>
					<g>
						<path fill="#087773" stroke="#087773" stroke-width="0.1324" stroke-miterlimit="10" d="M184.3,318.2
							c-0.1,0.2,0.5,0.6,1.3,1.1c0.4,0.3,0.9,0.6,1.4,0.9c0.5,0.3,1.1,0.7,1.6,1c1,0.7,2.1,1.4,2.8,1.9c0.4,0.3,0.7,0.5,0.9,0.7
							c0.2,0.2,0.3,0.3,0.3,0.3c0.4,0.3,0.7,0.5,1.1,0.7c0.3,0.2,0.7,0.4,1,0.5c0.5,0.3,1,0.4,1.3,0.1c0.3-0.2,0.2-0.7-0.1-1.3
							c-0.2-0.3-0.4-0.6-0.7-1c-0.3-0.3-0.6-0.7-1.1-1c0,0-0.1-0.1-0.4-0.3c-0.2-0.2-0.6-0.4-1-0.7c-0.8-0.5-2-1.2-3.2-1.7
							c-0.6-0.3-1.2-0.5-1.8-0.7c-0.6-0.2-1.1-0.4-1.6-0.5C185,318,184.3,318,184.3,318.2z"/>
					</g>
				</g>
			</g>
			<g>
				<g>
					<g>
						<path fill="#087773" stroke="#087773" stroke-width="0.1324" stroke-miterlimit="10" d="M219.7,327.2c0,0.2,0.6,0.4,1.5,0.5
							c0.4,0.1,0.9,0.2,1.5,0.2c0.6,0.1,1.1,0.2,1.7,0.3c2.3,0.4,4.4,1,4.4,1c0.4,0.1,0.8,0.2,1.2,0.2c0.4,0.1,0.7,0.1,1,0.1
							c0.6,0,1-0.1,1.2-0.4c0.1-0.3-0.1-0.7-0.5-1.2c-0.5-0.4-1.3-0.8-2.2-1.1c0,0-2.4-0.6-4.8-0.6c-0.6,0-1.2,0-1.8,0
							c-0.6,0-1.1,0.1-1.5,0.2C220.2,326.7,219.7,326.9,219.7,327.2z"/>
					</g>
				</g>
			</g>
			<g>
				<g>
					<g>
						<path fill="#087773" stroke="#087773" stroke-width="0.1324" stroke-miterlimit="10" d="M225,281.8c-0.2,0.4,0.6,1.2,1.4,2.1
							c0.8,0.9,1.3,1.8,1.3,1.8c0.5,0.6,1.2,0.9,1.8,0.7c0.6-0.2,0.7-1.3,0.1-2.1c0,0-0.9-1.1-2-1.8
							C226.5,281.8,225.2,281.4,225,281.8z"/>
					</g>
				</g>
			</g>
			<g>
				<g>
					<g>
						<path fill="#087773" stroke="#087773" stroke-width="0.1324" stroke-miterlimit="10" d="M182.6,298.7c0.2,0.1,0.6-0.3,0.9-0.9
							c0.2-0.3,0.4-0.7,0.6-1c0.3-0.4,0.5-0.8,0.7-1.1c0.3-0.4,0.5-0.8,0.7-1.1c0.3-0.3,0.5-0.7,0.7-0.9c0.4-0.6,0.7-0.9,0.7-0.9
							c0.8-1,1.2-2.2,0.7-2.7c-0.5-0.5-1.7,0.1-2.6,1.3c0,0-0.2,0.4-0.6,1.1c-0.2,0.3-0.4,0.7-0.6,1.1c-0.2,0.4-0.4,0.9-0.6,1.4
							c-0.2,0.5-0.4,0.9-0.5,1.4c-0.1,0.5-0.2,0.9-0.2,1.3C182.3,298.1,182.4,298.6,182.6,298.7z"/>
					</g>
				</g>
			</g>
			<g>
				<g>
					<g>
						<path fill="#087773" stroke="#087773" stroke-width="0.1324" stroke-miterlimit="10" d="M210.9,294.1c0,0.2,0.5,0.4,1.2,0.6
							c0.4,0.1,0.8,0.2,1.3,0.3c0.5,0.1,1,0.1,1.5,0.1c0.5,0,1,0.1,1.5,0.1c0.5,0,0.9-0.1,1.3-0.1c0.8-0.1,1.3-0.1,1.3-0.1
							c1.5-0.3,2.6-1.1,2.4-1.7c-0.2-0.6-1.4-0.9-2.8-0.7c0,0-0.4,0.1-1.2,0.2c-0.3,0.1-0.7,0.1-1.2,0.2c-0.4,0.1-0.9,0.1-1.4,0.2
							c-0.4,0.1-0.9,0.1-1.4,0.2c-0.4,0-0.9,0.1-1.2,0.1C211.4,293.8,210.9,293.9,210.9,294.1z"/>
					</g>
				</g>
			</g>
			<g>
				<g>
					<g>
						<path fill="#087773" stroke="#087773" stroke-width="0.1324" stroke-miterlimit="10" d="M208.4,312.3c0.1,0.2,0.7,0.1,1.4-0.2
							c0.4-0.1,0.8-0.2,1.3-0.4c0.5-0.1,1-0.3,1.5-0.4c0.5-0.1,1-0.2,1.5-0.3c0.5-0.1,0.9-0.1,1.3-0.1c0.8,0,1.3,0,1.3,0
							c1.5,0,2.8-0.3,2.9-0.9c0.2-0.6-1.2-1.5-3-1.4c0,0-0.6,0-1.5,0.2c-0.4,0.1-0.9,0.2-1.5,0.3c-0.5,0.2-1.1,0.4-1.6,0.6
							c-0.5,0.3-1.1,0.5-1.5,0.8c-0.5,0.3-0.9,0.6-1.2,0.8C208.6,311.7,208.2,312.1,208.4,312.3z"/>
					</g>
				</g>
			</g>
			<g>
				<g>
					<g>
						<path fill="#087773" stroke="#087773" stroke-width="0.1324" stroke-miterlimit="10" d="M198.2,295.6c0.4,0.8,6.1-1.1,6.1-1.1
							c1.1-0.4,1.7-1.3,1.5-1.9c-0.2-0.6-1.3-0.8-2.3-0.4C203.5,292.2,197.8,294.7,198.2,295.6z"/>
					</g>
				</g>
			</g>
			<g>
				<g>
					<g>
						<path fill="#087773" stroke="#087773" stroke-width="0.1324" stroke-miterlimit="10" d="M218.9,312.4c0.1,0.2,0.6,0.2,1.2,0
							c0.3-0.1,0.7-0.1,1-0.2c0.4-0.1,0.8,0,1.1-0.1c0.4,0,0.8,0,1.1,0.1c0.3,0.1,0.6,0.1,0.9,0.2c0.5,0.2,0.8,0.3,0.8,0.3
							c1,0.4,2,0.6,2.5,0.1c0.4-0.5-0.1-1.7-1.6-2.3c0,0-0.5-0.2-1.2-0.3c-0.4-0.1-0.8-0.1-1.3-0.1c-0.5,0-1,0.1-1.5,0.2
							c-0.5,0.2-1,0.3-1.4,0.5c-0.4,0.2-0.8,0.4-1.1,0.6C219.1,311.8,218.8,312.2,218.9,312.4z"/>
					</g>
				</g>
			</g>
			<g>
				<g>
					<g>
						<path fill="#087773" stroke="#087773" stroke-width="0.1324" stroke-miterlimit="10" d="M288,320c0,0.2,0.5,0.4,1.2,0.4
							c0.4,0,0.8,0,1.2-0.1c0.4-0.1,0.9-0.2,1.4-0.3c0.5-0.1,0.9-0.3,1.3-0.4c0.4-0.2,0.8-0.4,1.1-0.5c0.6-0.4,1-0.6,1-0.6
							c1.2-0.9,1.7-2.1,1.2-2.5c-0.5-0.4-1.5-0.1-2.5,0.6c0,0-0.3,0.2-0.8,0.6c-0.3,0.2-0.6,0.3-0.9,0.6c-0.3,0.2-0.7,0.4-1.1,0.6
							c-0.4,0.2-0.7,0.3-1.1,0.5c-0.4,0.1-0.7,0.3-1,0.4C288.4,319.5,288,319.8,288,320z"/>
					</g>
				</g>
			</g>
			<g>
				<g>
					<g>
						<path fill="#087773" stroke="#087773" stroke-width="0.1324" stroke-miterlimit="10" d="M296.1,307c0.1-0.2-0.1-0.6-0.5-1.2
							c-0.2-0.3-0.6-0.5-0.9-0.8c-0.4-0.3-0.8-0.5-1.2-0.8c-0.4-0.2-0.8-0.5-1.3-0.6c-0.4-0.2-0.8-0.3-1.1-0.4
							c-0.7-0.2-1.2-0.3-1.2-0.3c-1.5-0.3-2.7,0.3-2.6,0.9c0,0.7,1,1.2,2.2,1.4c0,0,0.4,0.1,1,0.2c0.3,0.1,0.6,0.2,1,0.3
							c0.4,0.1,0.8,0.2,1.2,0.4c0.4,0.1,0.8,0.3,1.2,0.4c0.4,0.2,0.7,0.3,1,0.4C295.5,307.1,295.9,307.2,296.1,307z"/>
					</g>
				</g>
			</g>
			<g>
				<g>
					<g>
						<path fill="#087773" stroke="#087773" stroke-width="0.1324" stroke-miterlimit="10" d="M274.5,317.9c0.1,0.2,0.6,0.1,1.2-0.3
							c0.3-0.2,0.6-0.4,1-0.7c0.3-0.3,0.7-0.6,1-0.9c0.3-0.4,0.6-0.7,0.8-1.1c0.2-0.4,0.5-0.7,0.6-1c0.3-0.6,0.5-1.1,0.5-1.1
							c0.5-1.4,0.1-2.6-0.6-2.6c-0.7-0.1-1.3,0.8-1.7,1.8c0,0-0.1,0.3-0.3,0.9c-0.1,0.3-0.2,0.6-0.4,0.9c-0.1,0.3-0.3,0.7-0.5,1
							c-0.2,0.3-0.4,0.6-0.6,1c-0.2,0.3-0.4,0.6-0.6,0.9C274.6,317.3,274.4,317.7,274.5,317.9z"/>
					</g>
				</g>
			</g>
			<g>
				<g>
					<g>
						<path fill="#087773" stroke="#087773" stroke-width="0.1324" stroke-miterlimit="10" d="M220.4,321.4c0.2,0.4,1.3,0.1,2.3-0.3
							c0.5-0.2,1-0.5,1.3-0.7c0.4-0.2,0.6-0.4,0.6-0.4c0.7-0.5,0.9-1.3,0.4-1.8c-0.4-0.5-1.3-0.5-1.9-0.1c0,0-0.2,0.2-0.5,0.4
							c-0.3,0.3-0.6,0.6-1,0.9C220.9,320.2,220.2,321,220.4,321.4z"/>
					</g>
				</g>
			</g>
		</g>
		<path fill="#9EB7CC" stroke="#9EB7CC" stroke-width="0.1682" stroke-miterlimit="10" d="M317,295.9c-1-0.4-1.5-1.6-1.1-2.6
			c0.4-1,1.6-1.5,2.6-1.1c1,0.4,1.5,1.6,1.1,2.6C319.1,295.8,318,296.3,317,295.9z"/>
		<circle fill="#9EB7CC" stroke="#9EB7CC" stroke-width="0.1682" stroke-miterlimit="10" cx="327.5" cy="295.2" r="2"/>
		<path fill="#2F7F40" d="M296.2,252.8c0.9,0.4,1.9-0.1,2.2-0.9c0.4-0.9-0.1-1.9-0.9-2.2c-0.9-0.4-1.9,0.1-2.2,0.9
			C294.9,251.4,295.4,252.4,296.2,252.8z"/>
		<circle fill="#2F7F40" cx="301.7" cy="264.6" r="2.3"/>
		<path fill="#2F7F40" d="M279.1,241.5c0.5,0.2,1,0,1.2-0.5c0.2-0.5,0-1-0.5-1.2c-0.4-0.2-1,0-1.2,0.5
			C278.4,240.8,278.7,241.3,279.1,241.5z"/>
		<path fill="#2F7F40" d="M294.2,238.1c1.6,0.7,3.5-0.1,4.1-1.7c0.7-1.6-0.1-3.5-1.7-4.1c-1.6-0.7-3.5,0.1-4.1,1.7
			C291.8,235.6,292.6,237.5,294.2,238.1z"/>
		<circle fill="#2F7F40" cx="244.5" cy="265.9" r="2"/>
		<path fill="#2F7F40" d="M301.1,289.9c1.2,0.5,2.6-0.1,3.1-1.3c0.5-1.2-0.1-2.6-1.3-3.1c-1.2-0.5-2.6,0.1-3.1,1.3
			C299.3,288,299.9,289.4,301.1,289.9z"/>
		<circle fill="#2F7F40" cx="236.5" cy="294" r="4"/>
		<circle fill="#2F7F40" cx="227.9" cy="274.5" r="1.1"/>
		<path fill="#2F7F40" d="M291,292.3c0.5,0.2,1.2,0,1.4-0.6c0.2-0.5,0-1.2-0.6-1.4c-0.5-0.2-1.2,0-1.4,0.6
			C290.2,291.4,290.4,292.1,291,292.3z"/>
		<path fill="#2F7F40" d="M290.1,277.6c0.5,0.2,1.2,0,1.4-0.6c0.2-0.5,0-1.2-0.6-1.4c-0.5-0.2-1.2,0-1.4,0.6
			C289.3,276.8,289.5,277.4,290.1,277.6z"/>
		<circle fill="#2F7F40" cx="231.1" cy="251.2" r="2.3"/>
		<g opacity="0.4">
			<path fill="#898989" d="M300.3,300.2c0.6,0,1.2,0.1,1.8,0.1c12.2,0.8,28.7,3,37.7,4.9c14,2.9,27.6,0.5,36.2-8.4
				c1.2-1.3,4.1-4.3,6.1-9.5c-0.7-2-3.9-2.4-7.5-0.8c-8.6,7-21,8.6-33.7,6c-6.8-1.4-17.8-3-28.1-4l-3.3-0.3l1.4,2.1
				c-2.1,1.7-4.2,2.4-7.8,3.2C303.3,293.4,300.8,299.1,300.3,300.2z"/>
		</g>
		<g>
			<g>
				<g>
					<path fill="#42665A" stroke="#42665A" stroke-width="6.415400e-002" stroke-miterlimit="10" d="M267.9,297.7c0,0,0.3,0,0.9,0.1
						c0.6,0,1.5,0,2.4,0.5c0.4,0.3,0.8,0.7,0.9,1.3c0.1,0.6,0,1.3-0.2,1.9c-0.6,1.3-2.1,2.3-3.8,2.8c-0.9,0.2-1.8,0.3-2.8,0.1
						c-0.9-0.2-1.9-0.6-2.7-1.2c-0.8-0.6-1.5-1.5-1.8-2.5c-0.4-1-0.4-2.1-0.1-3.1c0.6-2.2,2.7-3.6,4.9-4.3c2.3-0.6,4.8-0.6,7,0.3
						c2.2,0.8,4.3,2.3,5.4,4.3c0.6,1,0.9,2.1,0.8,3.2c-0.1,1.1-0.5,2.1-1.2,3c-0.7,0.9-1.5,1.6-2.4,2.1c-0.9,0.6-1.9,0.9-2.9,1.2
						c-2,0.5-4,0.6-5.8,0.5c-3.6-0.2-6.5-1.4-8.2-2.6c-0.9-0.6-1.4-1.2-1.7-1.6c-0.2-0.2-0.3-0.4-0.4-0.5c-0.1-0.1-0.1-0.2-0.1-0.2
						c-0.9-1.5-1.1-3.2-0.7-4.8l0.1-0.6l0.2-0.6c0.1-0.4,0.3-0.8,0.5-1.1c0.2-0.3,0.3-0.7,0.6-1c0.2-0.3,0.5-0.6,0.7-1
						c2-2.4,4.5-3.9,6.7-4.9c2.2-0.9,4.1-1.5,5.4-1.6c0.7,0,1.2,0,1.5,0.1c0.4,0,0.5,0.1,0.5,0.1c0,0-0.1-0.2-0.5-0.3
						c-0.3-0.2-0.9-0.3-1.6-0.3c-1.4-0.1-3.4,0.4-5.8,1.3c-0.3,0.1-0.6,0.2-0.9,0.4c-0.3,0.1-0.6,0.3-0.9,0.4
						c-0.6,0.3-1.2,0.7-1.8,1.1c-0.6,0.4-1.2,0.9-1.8,1.4c-0.3,0.2-0.6,0.6-0.9,0.8c-0.3,0.3-0.6,0.6-0.8,0.9
						c-0.3,0.3-0.5,0.7-0.8,1c-0.3,0.3-0.4,0.8-0.7,1.1c-0.2,0.4-0.4,0.8-0.6,1.2l-0.2,0.6l-0.2,0.7c-0.5,1.8-0.3,4,0.8,5.7
						c0,0,0,0.1,0.1,0.2c0.1,0.1,0.2,0.3,0.4,0.6c0.4,0.5,1,1.2,2,1.8c1.9,1.3,5,2.5,8.8,2.7c1.9,0.1,4,0,6.1-0.6
						c1.1-0.3,2.1-0.7,3.2-1.3c1-0.6,1.9-1.4,2.7-2.4c0.8-1,1.3-2.2,1.4-3.5c0.1-1.3-0.3-2.6-1-3.8c-1.3-2.3-3.6-3.8-6-4.7
						c-2.4-0.9-5.1-1-7.6-0.3c-1.2,0.4-2.4,0.9-3.4,1.7c-1,0.8-1.7,1.9-2,3.1c-0.4,1.2-0.3,2.5,0.1,3.6c0.4,1.1,1.2,2,2.1,2.7
						c0.9,0.7,1.9,1.1,3,1.3c1.1,0.2,2.1,0.1,3-0.2c1.8-0.5,3.4-1.6,4.1-3.1c0.3-0.7,0.4-1.5,0.2-2.2c-0.1-0.7-0.6-1.2-1.2-1.5
						c-1-0.5-1.9-0.4-2.5-0.4C268.2,297.7,267.9,297.7,267.9,297.7z"/>
				</g>
			</g>
		</g>
		<g>
			<g>
				<g>
					<path fill="#42665A" stroke="#42665A" stroke-width="6.415400e-002" stroke-miterlimit="10" d="M260.4,267c0,0,0.3-0.2,0.9-0.3
						c0.6-0.1,1.5-0.2,2.6,0c0.5,0.1,1.1,0.4,1.7,0.8c0.5,0.4,0.9,1,0.8,1.8c-0.1,0.8-0.3,1.6-0.8,2.3c-0.5,0.7-1.2,1.3-2.1,1.7
						c-1.8,0.7-4,0.7-6.1,0.1c-1-0.3-1.8-1.1-2.2-2.2c-0.4-1-0.6-2.2-0.5-3.4c0-0.6,0.2-1.2,0.3-1.8c0.2-0.6,0.4-1.1,0.8-1.5
						c0.8-0.9,1.9-1.5,3.1-2c1.2-0.5,2.5-0.7,3.7-0.9c1.3-0.2,2.6-0.2,3.8,0c1.3,0.2,2.4,0.8,3.4,1.5c1,0.7,1.9,1.7,2.5,2.7
						c0.7,1.1,1,2.3,1.1,3.5c0.1,1.2-0.2,2.4-0.6,3.4c-1.1,2.1-3,3.6-5,4.5c-2,1-4.1,1.4-6,1.4c-1.9,0-3.7-0.3-5.1-1
						c-1.4-0.7-2.5-1.5-3.2-2.3c-0.8-0.8-1.2-1.6-1.5-2.1c-0.3-0.5-0.4-0.8-0.4-0.8c-0.8-1.7-1-3.7-1.2-5.5
						c-0.1-1.7,0.6-3.4,1.6-4.7c1-1.3,2.2-2.4,3.5-3.2c1.3-0.8,2.5-1.4,3.8-1.7c1.2-0.3,2.4-0.4,3.4-0.4c1,0,1.9,0,2.7,0
						c1.5,0.1,2.3,0.2,2.3,0.1c0-0.1-0.8-0.4-2.2-0.6c-0.7-0.1-1.6-0.2-2.7-0.2c-1.1,0-2.3,0-3.6,0.3c-1.3,0.3-2.7,0.9-4.1,1.7
						c-1.4,0.8-2.7,1.9-3.8,3.4c-1.1,1.4-1.9,3.3-1.9,5.4c0.2,1.9,0.4,4,1.3,5.9c0,0,0,0.1,0.1,0.2c0.1,0.2,0.1,0.4,0.3,0.7
						c0.4,0.6,0.8,1.4,1.6,2.3c0.8,0.9,2,1.9,3.6,2.6c1.5,0.8,3.5,1.1,5.5,1.1c2.1,0,4.3-0.5,6.4-1.5c2.1-1,4.2-2.7,5.4-5.1
						c0.5-1.2,0.8-2.6,0.7-4c-0.1-1.4-0.6-2.7-1.3-3.9c-0.7-1.2-1.7-2.2-2.8-3c-1.2-0.8-2.4-1.4-3.8-1.6c-1.4-0.2-2.8-0.2-4.1,0
						c-1.3,0.2-2.7,0.5-3.9,1c-1.2,0.5-2.5,1.2-3.4,2.3c-0.5,0.5-0.8,1.2-1,1.8c-0.2,0.6-0.3,1.3-0.3,1.9c-0.1,1.3,0.1,2.6,0.6,3.8
						c0.3,0.6,0.6,1.1,1.1,1.6c0.5,0.5,1,0.8,1.6,0.9c1.2,0.3,2.3,0.4,3.4,0.4c1.1,0,2.2-0.2,3.1-0.6c1-0.4,1.8-1.1,2.3-1.9
						c0.5-0.8,0.7-1.7,0.8-2.6c0.1-0.9-0.4-1.7-1-2.1c-0.6-0.4-1.3-0.6-1.8-0.8c-1.2-0.2-2.1-0.1-2.7,0.1c-0.3,0.1-0.5,0.2-0.7,0.3
						C260.5,266.9,260.4,267,260.4,267z"/>
				</g>
			</g>
		</g>
		<g>
			<path fill="#CCBEC4" d="M222.7,227l0.2,0.2C222.5,227.1,222.5,227,222.7,227z"/>
		</g>
		<g>
			<path fill="#DFE1E5" d="M248.7,304.3c-4.8-0.6-10-1.9-13.5-3.2c1-4.7,2.4-9.4,2.7-14.4c0.3-12.2,0.2-32.6-5.8-47.2
				c0.3-0.2,0.5-0.4,0.8-0.5c0.4-0.3,0.9-0.6,1.3-0.8c0.9-0.6,1.9-1.2,2.8-1.7c0.5-0.3,1.1-0.6,1.6-0.9
				C245.4,250.6,255.4,288.5,248.7,304.3z"/>
		</g>
		<g>
			<g>
				<g>
					<path fill="#C6C6C6" stroke="#C6C6C6" stroke-width="0.1" stroke-miterlimit="10" d="M244.8,282.8c0.2,0,0.2-2.3,0-5.8
						c0-1.7-0.2-3.8-0.4-5.9c-0.1-1.1-0.2-2.2-0.3-3.3c-0.2-1.1-0.3-2.3-0.5-3.4c-0.2-1.1-0.3-2.3-0.6-3.4c-0.2-1.1-0.5-2.2-0.7-3.3
						c-0.4-2.1-1-4.1-1.4-5.8c-0.4-1.7-0.8-3.1-1.1-4.1c-0.3-1-0.4-1.5-0.4-1.5c-2-6.7-3.8-12-4.3-11.9c-0.5,0.1,0.6,5.7,2.6,12.4
						c0,0,0.2,0.6,0.5,1.5c0.3,1,0.7,2.3,1.2,4c0.4,1.7,1,3.6,1.5,5.7c0.2,1,0.5,2.1,0.8,3.2c0.2,1.1,0.4,2.2,0.6,3.4
						C243.8,273.6,244.3,282.9,244.8,282.8z"/>
				</g>
			</g>
		</g>
		<g>
			<g>
				<g>
					<path fill="#C6C6C6" stroke="#C6C6C6" stroke-width="0.1" stroke-miterlimit="10" d="M242.3,302.8c0.2,0,0.4-1.2,0.6-3.1
						c0.1-0.9,0.1-2,0.1-3.2c0-1.2,0-2.4,0-3.7c-0.1-2.5-0.2-5-0.4-6.8c-0.1-1.9-0.2-3.1-0.2-3.1c-0.3-3.7-0.8-6.7-1.3-6.7
						c-0.5,0-0.8,3.1-0.5,6.8c0,0,0.5,4.8,0.9,9.9c0.1,1.2,0.2,2.4,0.3,3.6c0.1,1.2,0.1,2.2,0.2,3.2
						C242,301.5,242.1,302.8,242.3,302.8z"/>
				</g>
			</g>
		</g>
		<radialGradient id="SVGID_1_" cx="268.6404" cy="243.3135" r="15.3331" gradientUnits="userSpaceOnUse">
			<stop  offset="0.3367" style="stop-color:#CE0F45"/>
			<stop  offset="1" style="stop-color:#FFFFFF;stop-opacity:0"/>
		</radialGradient>
		<circle opacity="0.3" fill="url(#SVGID_1_)" cx="268.6" cy="243.3" r="15.3"/>
		<g id="bb_1_">
			<path fill="#E8D9BC" d="M281.6,244.6c-2.1,0.2-4.2,0.5-6.2,1.1c-3.1,0.9-6.1,2.2-8.8,4c-2,1.3-3.8,2.9-5.4,4.6
				c-1.9-2.6-3.9-5.2-5.8-7.9c1.8-2,3.8-3.7,6-5.1c2.8-1.9,5.7-3.4,8.9-4.4c2.8-1,5.8-1.5,8.9-1.8
				C279.9,238.3,280.8,241.5,281.6,244.6z"/>
			<path fill="#BFB299" d="M276.4,245.1c-3.2,0.9-6.1,2.2-8.8,4c-1.3-3-3.1-5.8-5.3-8.4c2.8-1.9,5.7-3.4,8.9-4.4
				C273.3,239,275.1,241.9,276.4,245.1z"/>
			<path fill="#E8D9BC" d="M270.4,255.8c-1.7-8.1-6.1-15.1-12.5-20.2c2.3-2.2,4.6-4.4,6.9-6.6c7.5,6,12.6,14.1,14.6,23.5
				C276.4,253.6,273.4,254.7,270.4,255.8z"/>
		</g>
		<circle fill="#087773" cx="220.3" cy="269.9" r="1.2"/>
		<circle fill="#087773" cx="231.1" cy="269.9" r="1.2"/>
		<circle fill="#087773" cx="225.1" cy="256.6" r="1.2"/>
		<circle fill="#087773" cx="217.6" cy="275.6" r="1.2"/>
		<circle fill="#087773" cx="222.5" cy="286.5" r="1.2"/>
		<circle fill="#087773" cx="231.8" cy="290.1" r="1.2"/>
		<circle fill="#087773" cx="233.3" cy="257.8" r="1.2"/>
		<circle fill="#087773" cx="218.3" cy="262.4" r="1.2"/>
		<circle fill="#087773" cx="228.8" cy="245" r="1.2"/>
	</g>
	<g id="Guantes">
		<g>
			<g>
				<path fill="#A5134B" d="M263.4,330.3c0.4-7.2-2.6-15.1-10.8-14.4c-7.2,0.3-20.9,5.5-20.9,13.7c0,4.7,2.9,10.5,7,12.9"/>
			</g>
			<g>
				<path fill="#CE0F45" d="M238.2,351.4c5.3,7.1,18.3,11.6,25.2,7.6c6.9-3.9,17-17.9,11.6-26.7c-10.8-17.9-49.8-4.8-45.6,17.4
					c2.3,12.2,14.6,18.1,22.4,9.8"/>
			</g>
			<g>
				<path fill="#AF0E44" d="M239.4,352.3c5.3,7.1,18.3,11.6,25.2,7.6c6.9-3.9,15.7-18.8,10.3-27.6"/>
			</g>
			<g>
				<path fill="#CE0F45" d="M238.2,351.4c5.3,7.1,17.2,7.9,23.2,2.8c4.3-3.6,16.2-11.9,13.5-21.9"/>
			</g>
		</g>
		<g>
			<g>
				<path fill="#A5134B" d="M291.5,343.3c3.7-6.8,12.7-10.8,17-10.3c3.6,0.4,22,8.8,23.6,18.3c0.8,4.7-10,11.6-14.6,12.9"/>
			</g>
			<g>
				<path fill="#CE0F45" d="M311.8,362.8c-2.7,8.5-13.6,16.9-21.4,15.4c-7.8-1.5-24.5-11.4-22.3-21.6c2-8.9,13.5-18.5,19.7-18.5
					c8.7,0,30,7.6,31.7,20.3c1.7,12.3-8,21.9-18,16.5"/>
			</g>
			<g>
				<path fill="#AF0E44" d="M310.9,364.1c-2.7,8.5-15.7,18-23.8,17c-16.8-2.1-21.2-14.3-19-24.5"/>
			</g>
			<g>
				<path fill="#CE0F45" d="M311.8,362.8c-2.7,8.5-16,13.5-23.5,10.9c-5.8-2-19.4-6.8-20.2-17.1"/>
			</g>
		</g>
		<g opacity="0.1">
			<radialGradient id="SVGID_2_" cx="280.5867" cy="348.6049" r="43.1416" gradientUnits="userSpaceOnUse">
				<stop  offset="0.3673" style="stop-color:#FFFFFF"/>
				<stop  offset="0.7551" style="stop-color:#7F7F7F"/>
				<stop  offset="1" style="stop-color:#000000"/>
			</radialGradient>
			<path fill="url(#SVGID_2_)" d="M332.1,351.4c-1.6-9.5-19.9-17.9-23.6-18.3c-3.3-0.4-9.4,1.9-13.8,6.1c-2.7-0.7-5.1-1-6.9-1
				c-3.3,0-8.2,2.8-12.3,6.7c1.4-4.4,1.5-8.9-0.6-12.5c-2.7-4.4-7-6.9-12-7.9c-1.2-5-4.3-9-10.3-8.5c-7.2,0.3-20.9,5.5-20.9,13.7
				c0,1.8,0.4,3.9,1.2,5.8c-3.1,4-4.6,8.9-3.5,14.3c2.3,11.8,14,17.8,21.7,10.4c4.9,1.6,10,1.8,13.5-0.2c1.1-0.6,2.3-1.5,3.4-2.7
				c-1.9,10,2.7,21.8,19.1,23.8c4.4,0.5,10.3-2,15.2-5.9c8.3,4,16.3-2.4,17.4-11.8C324.8,361.2,332.8,355.5,332.1,351.4z"/>
		</g>
	</g>
</g>
<g id="E.Coli2">
</g>
</svg>
