<?xml version="1.0" encoding="utf-8"?>
<!-- Generator: Adobe Illustrator 17.1.0, SVG Export Plug-In . SVG Version: 6.00 Build 0)  -->
<!DOCTYPE svg PUBLIC "-//W3C//DTD SVG 1.1//EN" "http://www.w3.org/Graphics/SVG/1.1/DTD/svg11.dtd">
<svg version="1.1" xmlns="http://www.w3.org/2000/svg" xmlns:xlink="http://www.w3.org/1999/xlink" x="0px" y="0px"
	 viewBox="0 0 800 600" enable-background="new 0 0 800 600" xml:space="preserve">
<g id="Capa_6" display="none">
	<circle display="inline" fill="#52DDC2" cx="438.5" cy="260.7" r="279.4"/>
</g>
<g id="pergamino">
	
		<line fill="none" stroke="#A67C52" stroke-width="1.000000e-002" stroke-miterlimit="10" x1="249.5" y1="257" x2="249.5" y2="257"/>
	
		<line fill="none" stroke="#A67C52" stroke-width="1.000000e-002" stroke-miterlimit="10" x1="628.5" y1="258" x2="628.5" y2="258"/>
	
		<line fill="none" stroke="#A67C52" stroke-width="1.000000e-002" stroke-miterlimit="10" x1="250.5" y1="255" x2="249.5" y2="256.8"/>
	<path fill="#FFFFFF" d="M695,372.2c-17.3,0.7-34.8,1.8-51.3,1.3c-100-2-196.7,12.6-295.7,8.7c-46.2-1.5-113.5-0.8-164-8.6
		L249.1,258H628L695,372.2z"/>
	<polygon fill="#FFFEFD" points="628,24 628,258 249.1,258 249,256.8 249,24 	"/>
	<path opacity="0.72" fill="#EDDD80" d="M695,372.2c-17.3,0.7-34.8,1.8-51.3,1.3c-100-2-196.7,12.6-295.7,8.7
		c-46.2-1.5-113.5-0.8-164-8.6L249.1,258H628L695,372.2z"/>
	
		<line fill="none" stroke="#A67C52" stroke-width="1.000000e-002" stroke-miterlimit="10" x1="628" y1="257.5" x2="626.5" y2="255"/>
	<polygon opacity="0.75" fill="#F9EDA5" points="628,24 628,258 249.1,258 249,256.8 249,24 	"/>
	<path fill="#FFFFFF" stroke="#29ABE2" stroke-width="0.25" stroke-miterlimit="10" d="M158.1,366.1c-0.5-0.2-1-0.3-1.5-0.5"/>
	<path fill="#FFFFFF" stroke="#29ABE2" stroke-width="0.25" stroke-miterlimit="10" d="M147,356.7c-0.3,0.3-0.5,0.8-0.7,1.2"/>
	<path fill="#CEBC72" d="M753,398c0,0-556-13-556,0v47.8c0,13.2,10.9,24.2,24.4,24.2l523,1.3C758,471.3,753,398,753,398z"/>
	<g id="Bacteria_Enrollada">
		<g id="Bacteria_3_" display="none">
			<g display="inline">
				<g>
					<g>
						<g>
							<g>
								<path fill="#087773" stroke="#087773" stroke-width="0.1848" stroke-miterlimit="10" d="M645.3,371.7
									c-0.3-0.2-0.9,0.3-1.7,1c-0.4,0.4-0.9,0.8-1.3,1.3c-0.5,0.5-1,1-1.5,1.5c-0.5,0.5-1,1-1.5,1.4c-0.5,0.4-1,0.8-1.4,1.2
									c-0.8,0.6-1.4,1.1-1.4,1.1c-1.6,1.3-2.6,2.9-2.2,3.7c0.4,0.8,2.4,0.5,4.2-0.9c0,0,0.5-0.5,1.4-1.3c0.4-0.4,0.8-0.9,1.3-1.5
									c0.5-0.5,0.9-1.2,1.4-1.8c0.4-0.6,0.9-1.3,1.3-1.9c0.4-0.6,0.7-1.2,0.9-1.7C645.4,372.6,645.6,371.8,645.3,371.7z"/>
							</g>
						</g>
					</g>
					<g>
						<g>
							<g>
								<path fill="#087773" stroke="#087773" stroke-width="0.1848" stroke-miterlimit="10" d="M664.5,400.2
									c-0.3-0.1-0.9,0.5-1.5,1.5c-0.4,0.5-0.8,1-1.2,1.6c-0.5,0.6-0.9,1.2-1.4,1.8c-0.5,0.6-1,1.2-1.4,1.7c-0.5,0.5-0.9,1-1.3,1.4
									c-0.8,0.8-1.4,1.3-1.4,1.3c-1.6,1.6-2.7,3.2-2.2,4c0.5,0.8,2.6,0.2,4.5-1.6c0,0,0.6-0.6,1.4-1.6c0.4-0.5,0.8-1.1,1.3-1.7
									c0.4-0.7,0.9-1.4,1.3-2.1c0.4-0.7,0.8-1.5,1.1-2.2c0.3-0.7,0.5-1.4,0.7-2C664.7,401.2,664.8,400.4,664.5,400.2z"/>
							</g>
						</g>
					</g>
					<g>
						<g>
							<g>
								<path fill="#087773" stroke="#087773" stroke-width="0.1848" stroke-miterlimit="10" d="M649.4,381.9
									c-0.3-0.2-0.9,0.2-1.7,0.9c-0.4,0.3-0.9,0.8-1.4,1.2c-0.5,0.5-1,0.9-1.6,1.4c-0.5,0.5-1,1-1.5,1.4c-0.5,0.4-1,0.8-1.4,1.2
									c-0.8,0.7-1.3,1.2-1.3,1.2c-1.6,1.4-2.4,3.1-1.9,3.9c0.5,0.8,2.4,0.3,4.1-1.2c0,0,0.5-0.5,1.3-1.4c0.4-0.4,0.8-0.9,1.3-1.4
									c0.4-0.5,0.9-1.1,1.3-1.7c0.4-0.6,0.9-1.2,1.3-1.8c0.4-0.6,0.7-1.2,1-1.7C649.4,382.8,649.7,382.1,649.4,381.9z"/>
							</g>
						</g>
					</g>
					<g>
						<g>
							<g>
								<path fill="#087773" stroke="#087773" stroke-width="0.1848" stroke-miterlimit="10" d="M594.5,366.7
									c-0.3-0.2-0.8,0.3-1.4,1.2c-0.3,0.4-0.6,1-0.9,1.6c-0.3,0.6-0.5,1.3-0.8,2c-0.2,0.7-0.4,1.4-0.5,2.1
									c-0.1,0.7-0.2,1.4-0.2,1.9c0,1.1,0,1.9,0,1.9c0,0.6,0.2,1.1,0.4,1.6c0.1,0.2,0.2,0.4,0.3,0.6c0.1,0.2,0.2,0.3,0.4,0.5
									c0.5,0.6,1,0.8,1.4,0.6c0.9-0.5,1.1-2.1,0.9-3.8c0,0-0.1-0.6-0.1-1.5c0-0.4,0-1,0-1.5c0.1-0.6,0.1-1.2,0.2-1.8
									c0.1-0.6,0.2-1.2,0.3-1.8c0.1-0.6,0.2-1.2,0.3-1.6C594.8,367.6,594.8,366.9,594.5,366.7z"/>
							</g>
						</g>
					</g>
					<g>
						<g>
							<g>
								<path fill="#087773" stroke="#087773" stroke-width="0.1848" stroke-miterlimit="10" d="M563.8,392.4
									c-0.6,0.1-0.8,2.8,0,5.3c0.4,1.3,1,2.5,1.6,3.3c0.6,0.8,1.1,1.3,1.1,1.3c0.8,0.7,1.7,0.9,2.4,0.7c0.7-0.1,1.1-0.6,1.2-1.2
									c0.1-0.6-0.2-1-0.4-1.5c-0.3-0.5-0.6-0.9-1.1-1.3c0,0-0.3-0.2-0.8-0.7c-0.5-0.5-1-1.2-1.6-2.1
									C565.1,394.5,564.4,392.3,563.8,392.4z"/>
							</g>
						</g>
					</g>
					<path fill="#4FBA8E" d="M656,403.4c2.5,7.5,3.1,15.6,1.4,24c-3.7,17.1-8.8,51-7.3,68.5c0.2,2.7,0.5,5.9,1.1,9.4
						c0.1,0.8,0.2,1.7,0.4,2.5c2.6,17.1,9.1,39.3,14,51c7.4,18.2,8.5,36.9-0.4,52.4c-1.3,2.2-2.8,4.4-4.5,6.4
						c-1.8,2.1-3.8,4.2-6.1,6.1c-6,5.1-12.7,8.4-19.7,10c-4.6,1-9.3,1.3-14.1,0.9c-11.9-1.1-23.9-6.9-33.1-16.7
						c-10.9-11.5-28.7-40.5-37.8-84.2c-0.2-1-0.4-1.9-0.6-2.9c-1.6-8.2-2.8-16.8-3.6-25.8c-2.8-28.4-0.1-65.1,13-88.7
						c14.9-27.1,32-38.8,47.2-42.6c5.8-1.4,11.5-1.7,16.8-1.1C639,376.3,651.1,388.7,656,403.4z"/>
					<path fill="#4EDD70" d="M639.3,429.2c-3.7,17.6-8.6,52.5-7,70.5c0.1,1,0.2,2.1,0.3,3.2c0.2,2,0.5,4.2,0.8,6.5
						c0.1,0.8,0.3,1.7,0.4,2.6c0.7,4.3,1.6,9,2.7,13.7c-0.3,0.4-0.7,0.8-1.1,1.3c0,0-0.5,3.2-1,8.4c-2.2,17.5-2.4,58.7,7.9,70.6
						c2.8,3.4,5.5,5.9,8.1,7.8c-0.6,1.6-1.4,3.1-2.2,4.6c-1.3,2.3-2.7,4.5-4.4,6.6c-1.7,2.2-3.7,4.3-6,6.3c-1,0.9-2,1.7-3.1,2.5
						c-4.6,1-9.4,1.3-14.1,0.9c-11.9-1.1-23.9-6.9-33.1-16.7c-7.6-8.1-18.5-24.4-27.5-48.5c-3.7-9.8-7-20.9-9.7-33.1
						c-0.2-0.9-0.4-1.8-0.6-2.6c-0.2-1-0.4-1.9-0.6-2.9c-1.6-8.2-2.8-16.8-3.6-25.8c-2.8-28.4-0.1-65.1,13-88.7
						c14.9-27.1,32-38.8,47.2-42.6c15.7,4.1,27.3,16.3,32.1,30.9C640.4,412.2,641,420.6,639.3,429.2z"/>
					<g>
						<path fill="#7DA6D3" d="M667.1,437.7c0,0,0.8,14.5-1,26.3c-2.5,15.2-12.3,30.6-27.4,26.9c-2.7-0.7-9-8.5-11-9.6
							c-1.8,0.1-6.8,2.9-10.8,4.9c-22.5,10.1-33.8-7-43.7-25.8c0-0.2-0.1-0.3-0.1-0.5c-8.6-1.7-23.1-5.3-27.8-7.5
							c0,0,1.9-9.6,5.6-19.8c4.1-11,9.2-19.3,9.2-19.3C597.3,427.2,628,431.1,667.1,437.7z"/>
					</g>
					<g>
						<path fill="#6187A3" d="M664.5,439.3c-0.1,0,3,19-0.1,27.9c-6.9,19.5-16.5,27-29.4,18.7c-2.4-1.5-4-5.3-6.1-6.4
							c-1.8,0-8.1,4-12.1,6c-22.5,10.1-32-8-41.8-26.8c4.3-11.4,8.8-22.6,13.6-33.6C627.2,434.4,630.8,434.8,664.5,439.3z"/>
					</g>
					<g>
						<path fill="#A9D2F7" d="M641.8,480.5c-6.1,0.1-6.4-5.6-11.6-6.9c-1.4-0.1-2.8,0.2-4.3,0.6c-2.1,0.6-4.3,1.5-6.8,2.4
							c-0.9,0.3-1.7,0.6-2.7,0.9c-3.8,1.2-8.3,2-14,1.4c-0.9-0.1-1.8-0.3-2.6-0.6c-6.2-2.4-9-11.1-9.4-20.9
							c-0.4-8.8,7.4-21.1,7.4-21c8.3,2.3,16.3,4.2,23.5,5.7c5.4,1.1,10.4,2.1,14.9,2.8c0.7,0.1,1.3,0.2,2,0.3c0,0,0,0,0,0
							c1.7,0.3,3.4,0.5,4.9,0.8c0,0,0.1,0,0.1,0c0,0,0,0,0,0c9.9,1.5,16,2.1,16,2.1C661.6,460.2,654.2,480.2,641.8,480.5z"/>
					</g>
					<g>
						<path fill="#FFFFFF" d="M651.2,505.3c0.1,0.8,0.2,1.7,0.4,2.5c2.6,17.1,9.1,39.3,14,51c7.4,18.2,8.5,36.9-0.4,52.4
							c-1.3,2.2-2.8,4.4-4.5,6.4c-5,0-11.1-3.3-18.1-11.7c-14-15.7-7.8-79.4-7-79c4.7-5.3,5.7-8.7,6.5-16.1
							C642,510.8,649.6,506.2,651.2,505.3z"/>
					</g>
					<g>
						<g>
							<path fill="#9EB7CC" d="M642.4,511.2c6.6,1.4,10,8.5,12.1,14.4c0.1,0.3,0.7,0.2,0.5-0.2c-2.2-6.1-5.7-13.3-12.5-14.7
								C642.1,510.6,642,511.1,642.4,511.2L642.4,511.2z"/>
						</g>
					</g>
					<g>
						<path fill="#FFFFFF" d="M648.7,526.1c3.3,25,24,55.6,17.2,82c-0.3,1.1-0.6,2.1-0.9,3.2c-1.2,2.3-10.9-19.5-17.7-42.6
							c-7.1-23-11.3-47.2-9.3-46.2C641.3,524,644.9,525.2,648.7,526.1z"/>
						<g>
							<path fill="#9EB7CC" d="M647.9,526.1c3.7,24.8,18.8,46.7,18.6,71.7c0,3.4-0.5,6.7-1.3,10c-0.2,0.7,0.2,3.4-0.6,2.3
								c-1-1.2-1.7-2.7-2.4-4.1c-2.6-5.1-4.7-10.5-6.7-15.9c-5.4-14.3-9.9-29.1-13.3-44.2c-1.3-5.8-2.6-11.7-3.4-17.6
								c-0.2-1.5-0.4-3.1-0.3-4.7c0-1.3,1.3,0.5,2.2,0.9c2.6,1.1,5.3,1.8,8,2.5c1,0.2,1.4-1.4,0.4-1.7c-3.6-0.9-7.1-2-10.5-3.6
								c-0.3-0.1-0.6-0.2-0.9-0.1c-0.8,0.3-0.8,1.3-0.9,2.1c-0.2,4.1,0.9,8.4,1.6,12.4c2.9,15.4,7.1,30.5,12.1,45.1
								c2.3,6.8,4.8,13.4,7.6,19.9c1.5,3.4,3,7.4,5.4,10.3c3.3,4,4.2-7.7,4.4-9c1.6-11.7-1.9-23.6-5.5-34.6
								c-4.5-13.7-10.7-27.1-12.8-41.7C649.4,525,647.8,525,647.9,526.1z"/>
						</g>
					</g>
					<g>
						<path fill="#FFFFFF" d="M648.7,526.1c3.3,25,24,55.6,17.2,82c-0.3,1.1-0.6,2.1-0.9,3.2c-2.6,4.5-6.1,8.8-10.5,12.6
							c-9.8,8.4-21.8,12-33.8,10.8c-11.9-1.1-23.9-6.9-33.1-16.7c-10.9-11.5-28.7-40.5-37.8-84.2c35.8-6.2,77.4-18.7,77.4-18.6
							C632.8,520.2,640,524.2,648.7,526.1z"/>
					</g>
					<g>
						<g>
							<path fill="#9EB7CC" d="M550,535c20,6.5,40.2,12,61,12.3c0.1,0,0.2-0.1,0.3-0.2c3.2-11.6,9.1-22.6,16.4-31.4
								c0.2-0.3-0.2-0.7-0.4-0.4c-7.4,8.9-13.2,19.9-16.5,31.6c-0.2,0.9-14.9-1.2-16.5-1.4c-5-0.7-9.9-1.6-14.8-2.7
								c-9.8-2.2-19.6-5.2-29.3-8.4C549.8,534.3,549.7,534.9,550,535L550,535z"/>
						</g>
					</g>
					<g>
						<g>
							<g>
								<path fill="#087773" stroke="#087773" stroke-width="0.1848" stroke-miterlimit="10" d="M559.8,397
									c-0.3,0.1-0.4,1.1-0.3,2.6c0.1,0.7,0.2,1.6,0.4,2.5c0.2,0.9,0.4,1.8,0.7,2.7c0.3,0.9,0.6,1.8,0.9,2.6
									c0.3,0.8,0.7,1.6,0.9,2.2c0.3,0.7,0.6,1.2,0.7,1.5c0.2,0.4,0.3,0.6,0.3,0.6c0.3,0.6,0.8,1.1,1.2,1.6c0.4,0.4,0.8,0.8,1.2,1
									c0.8,0.5,1.4,0.5,1.8,0.1c0.3-0.4,0.3-1.2,0-2c-0.1-0.4-0.3-0.9-0.5-1.4c-0.2-0.5-0.5-1-0.8-1.6c0,0-0.1-0.2-0.3-0.5
									c-0.2-0.3-0.5-0.7-0.8-1.3c-0.3-0.6-0.7-1.2-1-1.9c-0.4-0.7-0.7-1.5-1.1-2.3c-0.3-0.8-0.7-1.6-1.1-2.4
									c-0.3-0.8-0.6-1.5-0.9-2.1C560.5,397.7,560.1,396.9,559.8,397z"/>
							</g>
						</g>
					</g>
					<g>
						<g>
							<g>
								<path fill="#087773" stroke="#087773" stroke-width="0.1848" stroke-miterlimit="10" d="M575.8,408.4
									c-0.3,0.2-0.3,0.8-0.2,1.6c0.1,0.4,0.2,0.8,0.4,1.3c0.2,0.4,0.4,0.9,0.6,1.3c0.9,1.8,2.4,3.2,2.4,3.2
									c0.6,0.5,1.2,0.7,1.8,0.6c0.6-0.1,1-0.4,1.2-0.9c0.2-0.5,0.1-1.1,0-1.5c-0.2-0.5-0.5-1-0.9-1.3c0,0-1.2-0.9-2.4-2.1
									C577.5,409.4,576.4,408,575.8,408.4z"/>
							</g>
						</g>
					</g>
					<g>
						<g>
							<g>
								<path fill="#087773" stroke="#087773" stroke-width="0.1848" stroke-miterlimit="10" d="M593.4,385.6
									c-0.3-0.1-0.8,0.5-1.3,1.5c-0.2,0.5-0.5,1.2-0.8,1.9c-0.2,0.7-0.4,1.5-0.7,2.2c-0.2,0.8-0.3,1.5-0.5,2.3
									c-0.1,0.7-0.2,1.4-0.3,2c-0.1,1.2-0.1,2-0.1,2c0,2.4,1,4.2,1.9,4c0.9-0.2,1.4-2,1.4-4.1c0,0,0-0.7,0-1.8c0-0.5,0-1.1,0-1.8
									c0-0.7,0.1-1.4,0.1-2.1c0.1-0.7,0.1-1.4,0.2-2.1c0.1-0.7,0.1-1.3,0.2-1.9C593.7,386.5,593.7,385.7,593.4,385.6z"/>
							</g>
						</g>
					</g>
					<g>
						<g>
							<g>
								<path fill="#087773" stroke="#087773" stroke-width="0.1848" stroke-miterlimit="10" d="M610.3,364c-0.3,0-0.7,0.7-1,1.8
									c-0.2,0.5-0.3,1.2-0.4,1.9c-0.2,0.7-0.4,1.4-0.5,2.1c-0.2,0.7-0.3,1.4-0.5,2.1c-0.2,0.7-0.4,1.3-0.5,1.8
									c-0.3,1.1-0.5,1.7-0.5,1.7c-0.6,2.1-0.4,4,0.4,4.4c0.9,0.3,2.1-1.2,2.8-3.5c0,0,0.1-0.8,0.3-1.9c0.1-0.6,0.2-1.2,0.3-2
									c0.1-0.7,0.1-1.5,0.2-2.3c0-0.8,0.1-1.5,0.1-2.3c0-0.7-0.1-1.4-0.1-2C610.9,364.8,610.7,364,610.3,364z"/>
							</g>
						</g>
					</g>
					<g>
						<g>
							<g>
								<path fill="#087773" stroke="#087773" stroke-width="0.1848" stroke-miterlimit="10" d="M625.4,371.1
									c-0.2-0.3-1-0.1-2.1,0.5c-0.5,0.3-1.1,0.7-1.8,1.2c-0.6,0.5-1.2,1.1-1.9,1.7c-0.6,0.6-1.2,1.3-1.7,2
									c-0.5,0.7-0.9,1.3-1.3,1.9c-0.7,1.2-1.1,2-1.1,2c-0.3,0.6-0.4,1.3-0.6,1.9c-0.1,0.6-0.2,1.1-0.1,1.6c0.1,1,0.3,1.6,0.8,1.7
									c0.9,0.2,2-1.5,2.9-3.6c0,0,0.3-0.7,0.8-1.8c0.3-0.5,0.6-1.1,0.9-1.8c0.4-0.6,0.8-1.3,1.3-1.9c0.5-0.6,0.9-1.3,1.4-1.8
									c0.5-0.6,0.9-1.1,1.3-1.6C625.1,372.2,625.6,371.4,625.4,371.1z"/>
							</g>
						</g>
					</g>
					<g>
						<g>
							<g>
								<path fill="#087773" stroke="#087773" stroke-width="0.1848" stroke-miterlimit="10" d="M635.1,368.9
									c-0.6-0.3-2,1.5-3.3,3.4c-0.7,0.9-1.3,2-1.7,2.7c-0.4,0.8-0.7,1.3-0.7,1.3c-0.8,1.6-0.7,3.2,0.1,3.6c0.8,0.4,2.1-0.5,2.8-2
									c0,0,0.2-0.5,0.5-1.3c0.3-0.8,0.7-1.8,1.2-2.9C634.9,371.5,635.7,369.2,635.1,368.9z"/>
							</g>
						</g>
					</g>
					<g>
						<g>
							<g>
								<path fill="#087773" stroke="#087773" stroke-width="0.1848" stroke-miterlimit="10" d="M579.7,381
									c-0.3-0.1-0.7,0.6-1.1,1.6c-0.2,0.5-0.3,1.2-0.4,1.9c-0.1,0.7-0.1,1.5-0.1,2.3c0.1,0.8,0.2,1.6,0.3,2.3
									c0.2,0.7,0.5,1.4,0.7,1.9c0.6,1,1,1.7,1,1.7c1.5,1.8,3.3,1.9,3.8,1c0.5-1-0.3-2.4-1.2-3.6c0,0-0.3-0.4-0.8-1.1
									c-0.2-0.4-0.4-0.8-0.6-1.2c-0.2-0.5-0.4-1-0.5-1.6c-0.1-0.6-0.3-1.2-0.3-1.8c0-0.6-0.1-1.2-0.2-1.7
									C580.1,381.9,580,381.1,579.7,381z"/>
							</g>
						</g>
					</g>
					<g>
						<g>
							<g>
								<path fill="#087773" stroke="#087773" stroke-width="0.1848" stroke-miterlimit="10" d="M654,387c-0.3-0.2-0.8,0.2-1.6,0.9
									c-0.4,0.3-0.8,0.7-1.2,1.1c-0.5,0.4-1,0.8-1.4,1.1c-0.5,0.4-1,0.7-1.4,1.1c-0.5,0.3-0.9,0.6-1.3,0.9
									c-0.8,0.4-1.3,0.7-1.3,0.7c-1.5,0.9-2.6,2.1-2.4,3.1c0.3,0.9,2.1,1.1,4,0c0,0,0.6-0.4,1.4-1c0.4-0.3,0.9-0.7,1.4-1.2
									c0.5-0.5,0.9-1,1.4-1.5c0.4-0.5,0.9-1.1,1.2-1.6c0.3-0.6,0.6-1.1,0.9-1.6C654.2,387.8,654.3,387.1,654,387z"/>
							</g>
						</g>
					</g>
					<g>
						<g>
							<g>
								<path fill="#087773" stroke="#087773" stroke-width="0.1848" stroke-miterlimit="10" d="M649.8,405.9
									c-0.2-0.2-0.8,0.1-1.6,0.5c-0.4,0.2-0.8,0.5-1.3,0.8c-0.5,0.3-1,0.6-1.5,0.8c-0.5,0.2-1,0.5-1.5,0.7
									c-0.5,0.2-0.9,0.4-1.3,0.5c-0.8,0.3-1.3,0.4-1.3,0.4c-1.6,0.5-2.8,1.5-2.7,2.4c0.1,1,1.8,1.5,3.7,0.9c0,0,0.6-0.3,1.5-0.7
									c0.4-0.2,0.9-0.5,1.5-0.9c0.5-0.3,1.1-0.8,1.6-1.2c0.5-0.4,1-0.9,1.4-1.4c0.4-0.5,0.8-1,1-1.4
									C649.9,406.8,650.1,406.2,649.8,405.9z"/>
							</g>
						</g>
					</g>
					<g>
						<g>
							<g>
								<path fill="#087773" stroke="#087773" stroke-width="0.147" stroke-miterlimit="10" d="M617.6,399.4
									c-0.4-0.4-1.5,0.6-2.5,1.7c-0.5,0.5-1,1.1-1.3,1.6c-0.3,0.5-0.5,0.8-0.5,0.8c-0.6,1-0.5,2.1,0.1,2.5c0.6,0.4,1.6,0,2.1-0.9
									c0,0,0.1-0.3,0.4-0.8c0.2-0.5,0.5-1.1,0.9-1.8C617.5,401.1,618,399.7,617.6,399.4z"/>
							</g>
						</g>
					</g>
					<path fill="#D7E9F4" d="M636.3,444.8c-6.9,10.6-13.5,21.5-19.8,32.7c-3.8,1.2-8.3,2-14,1.4c-0.9-0.1-1.8-0.3-2.6-0.6
						c6.8-12.5,14-24.5,21.5-36.2C626.8,443.1,631.8,444.1,636.3,444.8z"/>
					<path fill="#D7E9F4" d="M643.2,445.8c-6,9.2-11.8,18.6-17.3,28.2c-2.1,0.6-4.3,1.5-6.8,2.3c6.1-10.8,12.5-21.3,19.2-31.5
						c0,0,0,0,0,0C640.1,445.1,641.7,445.6,643.2,445.8z"/>
					<path fill="#9EB7CC" stroke="#9EB7CC" stroke-width="0.2347" stroke-miterlimit="10" d="M647.6,529.7c-0.8-1.3-2.4-1.7-3.8-0.9
						c-1.3,0.8-1.8,2.6-1,3.9c0.8,1.3,2.5,1.7,3.8,0.9C647.9,532.7,648.4,531,647.6,529.7z"/>
					<path fill="#9EB7CC" stroke="#9EB7CC" stroke-width="0.2347" stroke-miterlimit="10" d="M651.2,543.2c-0.8-1.3-2.5-1.7-3.8-0.8
						c-1.3,0.8-1.7,2.6-1,3.9c0.8,1.3,2.5,1.6,3.8,0.8C651.5,546.2,651.9,544.5,651.2,543.2z"/>
					<path fill="#9EB7CC" stroke="#9EB7CC" stroke-width="0.2347" stroke-miterlimit="10" d="M656,556.7c-0.8-1.3-2.5-1.6-3.8-0.7
						c-1.3,0.9-1.7,2.6-0.9,3.9c0.8,1.3,2.5,1.6,3.8,0.7C656.4,559.7,656.8,558,656,556.7z"/>
					<path fill="#9EB7CC" stroke="#9EB7CC" stroke-width="0.2347" stroke-miterlimit="10" d="M660.8,569.5c-0.8-1.2-2.6-1.5-3.8-0.6
						c-1.3,0.9-1.6,2.6-0.8,3.9c0.8,1.2,2.6,1.5,3.8,0.6C661.3,572.5,661.6,570.7,660.8,569.5z"/>
					<path fill="#2F7F40" d="M583.9,491c0.6,1.3,0.1,2.9-1.1,3.6c-1.2,0.7-2.6,0.2-3.2-1.1c-0.6-1.3-0.1-2.9,1.1-3.6
						C581.8,489.2,583.3,489.7,583.9,491z"/>
					<path fill="#2F7F40" d="M595.8,513.5c0.8,1.7,0.3,3.8-1.3,4.8c-1.5,1-3.5,0.4-4.3-1.2c-0.8-1.7-0.2-3.8,1.3-4.8
						C593,511.2,595,511.8,595.8,513.5z"/>
					<path fill="#2F7F40" d="M571.1,515.9c0.3,0.7,0.1,1.5-0.5,1.9c-0.6,0.4-1.4,0.2-1.7-0.5c-0.3-0.7-0.1-1.5,0.5-1.9
						C570,515,570.8,515.2,571.1,515.9z"/>
					<path fill="#2F7F40" d="M561.5,479.6c1.1,2.5,0.1,5.6-2.1,7c-2.2,1.4-4.9,0.4-6-2.1c-1.1-2.5-0.1-5.7,2.2-7
						C557.7,476.2,560.4,477.1,561.5,479.6z"/>
					<path fill="#2F7F40" d="M556.5,462.8c0.6,1.6,0,3.6-1.5,4.5c-1.5,0.8-3.2,0.2-3.8-1.5c-0.6-1.6,0-3.7,1.5-4.5
						C554.2,460.5,555.9,461.2,556.5,462.8z"/>
					<path fill="#2F7F40" d="M622.8,507.6c0.9,1.7,0.2,3.8-1.4,4.8c-1.6,1-3.7,0.4-4.6-1.3c-0.9-1.7-0.2-3.9,1.4-4.9
						C619.9,505.4,622,505.9,622.8,507.6z"/>
					<path fill="#2F7F40" d="M645.9,418.6c1,2.9-0.5,6.2-3.4,7.5c-2.9,1.2-6.2-0.1-7.2-3.1c-1.1-3,0.5-6.4,3.5-7.5
						C641.6,414.2,644.9,415.7,645.9,418.6z"/>
					<path fill="#2F7F40" d="M616.4,392.3c0.2,0.8-0.2,1.7-1,2.1c-0.8,0.3-1.6-0.1-1.9-0.9c-0.2-0.8,0.2-1.8,1-2.1
						C615.3,391,616.1,391.4,616.4,392.3z"/>
					<path fill="#2F7F40" d="M639.9,505c0.4,0.7,0.1,1.7-0.6,2.1c-0.7,0.4-1.6,0.2-2-0.6c-0.4-0.7-0.1-1.7,0.6-2.1
						C638.6,504,639.5,504.2,639.9,505z"/>
					<path fill="#2F7F40" d="M632.2,493.8c0.4,0.8,0.1,1.7-0.7,2.1c-0.7,0.4-1.6,0.1-2-0.6c-0.4-0.8-0.1-1.7,0.7-2.1
						C630.9,492.8,631.8,493.1,632.2,493.8z"/>
					<path fill="#2F7F40" d="M583.4,405c0.6,1.8-0.4,3.9-2,4.6c-1.7,0.8-3.5-0.1-4.1-1.9c-0.6-1.8,0.4-3.9,2.1-4.7
						C581,402.3,582.9,403.2,583.4,405z"/>
					<g opacity="0.4">
						<path fill="#898989" d="M651.2,505.3c0.1,0.8,0.2,1.7,0.4,2.5c2.6,17.1,9.1,39.3,14,51c7.4,18.2,8.5,36.9-0.4,52.4
							c-1.3,2.2-4.4,7.4-10.5,12.6c-3,0-4.8-4.3-4-10c6.2-15,4.6-32.4-2.3-49.3c-3.7-9.1-8.5-24.2-11.7-38.7c-0.1-1.1-1-4.6-1-4.6
							c1,0.5,2.1,1.1,3.1,1.6c2-3.3,2.7-6.6,3.3-11.9C642,510.8,649.6,506.2,651.2,505.3z"/>
					</g>
				</g>
			</g>
		</g>
		<g id="Bacteria_1_">
			<g>
				<path fill="#087773" stroke="#087773" stroke-width="0.1848" stroke-miterlimit="10" d="M63,261.2c-0.3,0-0.5,0.8-0.5,1.9
					c-0.1,0.5-0.1,1.2-0.1,1.8c-0.1,0.7-0.1,1.4-0.1,2.1c-0.1,0.7-0.1,1.4-0.2,2.1c-0.1,0.7-0.2,1.3-0.2,1.8c-0.2,1-0.3,1.7-0.3,1.7
					c-0.3,2,0,3.9,0.9,4.2c0.9,0.3,2.1-1.2,2.5-3.5c0,0,0.1-0.8,0.2-1.9c0-0.6,0-1.2,0-2c0-0.7-0.1-1.5-0.1-2.3
					c-0.1-0.8-0.2-1.5-0.3-2.2c-0.2-0.7-0.3-1.4-0.5-1.9C63.7,261.9,63.3,261.2,63,261.2z"/>
			</g>
			<g>
				<path fill="#087773" stroke="#087773" stroke-width="0.1848" stroke-miterlimit="10" d="M96.4,269.7c-0.3,0.1-0.3,0.9-0.2,2.1
					c0,0.6,0.1,1.3,0.2,2c0.1,0.7,0.1,1.5,0.2,2.3c0,0.8,0.1,1.5,0.1,2.2c0,0.7,0,1.4,0,1.9c-0.1,1.1-0.1,1.9-0.1,1.9
					c-0.2,2.2,0.2,4.2,1.1,4.5c0.9,0.3,2.1-1.6,2.3-4.1c0,0,0-0.8,0-2.1c0-0.6-0.1-1.4-0.2-2.2c-0.1-0.8-0.3-1.6-0.4-2.4
					c-0.2-0.8-0.4-1.6-0.7-2.4c-0.3-0.7-0.5-1.4-0.8-2C97.2,270.3,96.7,269.6,96.4,269.7z"/>
			</g>
			<g>
				<path fill="#087773" stroke="#087773" stroke-width="0.1848" stroke-miterlimit="10" d="M72.9,266.1c-0.3,0-0.6,0.7-0.7,1.8
					c-0.1,0.5-0.1,1.2-0.2,1.8c-0.1,0.7-0.2,1.4-0.2,2.1c-0.1,0.7-0.1,1.4-0.2,2.1c-0.1,0.7-0.2,1.3-0.2,1.8
					c-0.1,1.1-0.2,1.7-0.2,1.7c-0.2,2.1,0.2,3.9,1.2,4.2c0.9,0.2,1.9-1.4,2.2-3.6c0,0,0-0.7,0-1.9c0-0.6,0-1.2,0-1.9
					c0-0.7-0.1-1.4-0.2-2.2c-0.1-0.7-0.1-1.5-0.2-2.2c-0.1-0.7-0.3-1.3-0.4-1.9C73.5,266.8,73.2,266.1,72.9,266.1z"/>
			</g>
			<g>
				<path fill="#087773" stroke="#087773" stroke-width="0.1848" stroke-miterlimit="10" d="M21.9,291.4c-0.3,0.1-0.4,0.8-0.3,1.8
					c0.1,0.5,0.2,1.1,0.4,1.8c0.2,0.7,0.5,1.3,0.7,2c0.3,0.7,0.7,1.3,1,1.9c0.4,0.6,0.8,1.1,1.1,1.6c0.7,0.9,1.3,1.4,1.3,1.4
					c0.4,0.4,0.9,0.7,1.3,0.9c0.2,0.1,0.4,0.2,0.6,0.3c0.2,0.1,0.4,0.1,0.6,0.1c0.7,0.1,1.3-0.1,1.4-0.5c0.2-0.4,0-1.1-0.3-1.6
					c-0.1-0.1-0.2-0.3-0.3-0.4c-0.1-0.2-0.2-0.3-0.3-0.5c-0.2-0.3-0.6-0.6-0.9-0.9c0,0-0.4-0.4-1.1-1c-0.3-0.3-0.6-0.7-1-1.1
					c-0.3-0.5-0.7-0.9-1.1-1.4c-0.3-0.5-0.7-1-1-1.6c-0.3-0.5-0.6-1-0.9-1.4C22.6,291.9,22.2,291.3,21.9,291.4z"/>
			</g>
			<g>
				<path fill="#087773" stroke="#087773" stroke-width="0.1848" stroke-miterlimit="10" d="M16.1,331c-0.4,0.5,1.3,2.6,3.6,4
					c1.1,0.7,2.4,1.2,3.4,1.4c1,0.2,1.7,0.2,1.7,0.2c1,0,1.9-0.5,2.3-1.1c0.4-0.6,0.4-1.2,0.1-1.6c-0.3-0.5-0.8-0.7-1.3-0.8
					c-0.5-0.2-1-0.2-1.7-0.2c0,0-0.4,0.1-1.1,0c-0.7,0-1.6-0.2-2.6-0.5C18.4,331.7,16.4,330.5,16.1,331z"/>
			</g>
			<path fill="#4FBA8E" d="M92.1,277.7c6.8,3.9,12.7,9.6,17,16.9c8.6,15.2,27.4,43.9,40.2,55.9c2,1.9,4.4,4.1,7.1,6.3
				c0.6,0.5,1.3,1.1,2,1.6c13.4,11,33,23.3,44.4,28.7c17.7,8.6,30.9,21.9,34.6,39.3c0.5,2.5,0.9,5.1,0.9,7.8c0.1,2.8,0,5.6-0.4,8.6
				c-1,7.8-3.8,14.7-8,20.6c-2.7,3.8-6.1,7.2-9.9,10c-9.6,7.1-22.4,10.8-35.8,9.6c-15.8-1.3-48.4-11-84.3-37.6
				c-0.8-0.6-1.6-1.2-2.4-1.8c-6.6-5-13.3-10.6-19.9-16.8c-21-19.3-43.5-48.5-49.5-74.8C21.2,322.1,26,302,34.9,289
				c3.4-4.9,7.4-8.9,11.8-12C61.4,268.9,78.7,270,92.1,277.7z"/>
			<path fill="#4EDD70" d="M96.9,308.1c9,15.6,28.6,44.9,41.8,57.2c0.7,0.7,1.5,1.4,2.4,2.2c1.5,1.4,3.1,2.8,4.9,4.3
				c0.7,0.6,1.3,1.1,2,1.7c3.4,2.8,7.2,5.6,11.2,8.5c0,0.5,0,1.1,0,1.6c0,0,1.8,2.7,4.9,6.9c10.1,14.5,37.3,45.3,53,47.3
				c4.4,0.6,8.1,0.7,11.2,0.4c0.6,1.6,1,3.2,1.4,4.9c0.6,2.5,1,5.2,1.1,7.9c0.2,2.8,0.1,5.7-0.3,8.7c-0.2,1.3-0.4,2.7-0.6,3.9
				c-2.7,3.8-6.1,7.2-9.9,10c-9.6,7.1-22.4,10.7-35.8,9.6c-11.1-0.9-30.1-5.9-52.8-17.8c-9.3-4.9-19.1-10.9-29.3-18.2
				c-0.7-0.5-1.5-1.1-2.2-1.6c-0.8-0.6-1.6-1.2-2.4-1.8c-6.6-5-13.3-10.6-19.9-16.8c-21-19.3-43.5-48.5-49.5-74.8
				C21.2,322.1,26,302,34.9,289c14.4-7.4,31.2-6,44.5,1.7C86.4,294.7,92.4,300.6,96.9,308.1z"/>
			<g>
				<path fill="#7DA6D3" d="M123.2,295.9c0,0,10.2,10.2,16.8,20.3c8.3,13,11.2,31-2.5,38.3c-2.5,1.3-12.4-0.3-14.7,0.2
					c-1.3,1.3-3.2,6.7-4.8,10.9c-10,22.5-29.9,17.3-49.8,9.9c-0.1-0.1-0.3-0.2-0.4-0.3c-7.6,4.5-20.7,11.5-25.7,13c0,0-5-8.4-9-18.5
					c-4.3-10.9-6.1-20.5-6.1-20.5C64.3,334.6,89.8,317.1,123.2,295.9z"/>
			</g>
			<g>
				<path fill="#6187A3" d="M122.4,298.8c0,0.1,14.9,12.1,18.5,20.9c7.8,19.1,5.7,31.1-9.4,33.5c-2.8,0.4-6.5-1.2-8.8-0.7
					c-1.3,1.2-3.4,8.4-5,12.6c-10,22.5-29.2,15.4-49,7.9c-4.4-11.3-8.5-22.7-12.2-34.1C91.4,320.1,94.3,318,122.4,298.8z"/>
			</g>
			<g>
				<path fill="#A9D2F7" d="M132.9,344.7c-4.5,4.1-8.5,0.1-13.2,2.6c-1.1,0.9-2,2-2.8,3.3c-1.2,1.8-2.2,4-3.5,6.3
					c-0.4,0.8-0.9,1.6-1.4,2.4c-2.1,3.4-4.9,7-9.6,10.4c-0.8,0.5-1.5,0.9-2.3,1.2c-6.3,2.3-14.1-2.3-21-9.3
					c-6.2-6.3-8.5-20.7-8.5-20.6c7.8-3.8,14.9-7.7,21.3-11.4c4.8-2.8,9.2-5.4,13-7.8c0.6-0.4,1.1-0.7,1.7-1.1c0,0,0,0,0,0
					c1.5-0.9,2.9-1.8,4.2-2.7c0,0,0.1,0,0.1-0.1c0,0,0,0,0,0c8.4-5.5,13.3-9.1,13.3-9.1C134.2,316.3,142,336.1,132.9,344.7z"/>
			</g>
			<g>
				<path fill="#FFFFFF" d="M156.4,356.9c0.6,0.5,1.3,1.1,2,1.6c13.4,11,33,23.3,44.4,28.7c17.7,8.6,30.9,21.9,34.6,39.3
					c0.5,2.5,0.9,5.1,0.9,7.8c-3.7,3.3-10.5,4.9-21.3,3.4c-20.9-2.4-58.8-54-57.9-54.3c-0.1-7.1-1.6-10.3-5.9-16.3
					C153.3,367.2,155.9,358.6,156.4,356.9z"/>
			</g>
			<g>
				<path fill="#9EB7CC" d="M153.8,367.2c5.8-3.3,13.1-0.4,18.6,2.6c0.3,0.2,0.6-0.3,0.3-0.5c-5.7-3.1-13.1-6.1-19.2-2.7
					C153.3,366.9,153.5,367.4,153.8,367.2L153.8,367.2z"/>
			</g>
			<g>
				<path fill="#FFFFFF" d="M168.5,374c19.1,16.4,55,25.4,67.5,49.6c0.5,1,1,2,1.4,3c0.6,2.6-21.2-7.2-41.6-20
					c-20.6-12.4-39.9-27.7-37.7-28.2C161.6,377.4,165.1,376,168.5,374z"/>
				<g>
					<path fill="#9EB7CC" d="M167.9,374.6c19.1,15.9,44.5,22.1,61.1,40.4c1.9,2.1,3.5,4.3,5,6.7c0.2,0.3,2,4.6,3,4.5
						c-0.2,0-0.3,0-0.5,0c-1.6-0.2-3.1-0.9-4.6-1.5c-5.3-2.1-10.4-4.6-15.4-7.2c-13.5-7-26.6-15-39.2-23.9c-4.9-3.4-9.8-7-14.4-10.9
						c-1.2-1-2.4-2.1-3.5-3.2c-1-1-0.4-0.3,0.4-0.6c3.2-1,6.2-2.4,9.1-4c0.9-0.5,0.1-2-0.8-1.5c-3.3,1.8-6.6,3.2-10.2,4.3
						c-0.3,0.1-0.5,0.2-0.7,0.5c-0.4,0.7,0.2,1.5,0.6,2c2.3,2.9,5.7,5.3,8.6,7.5c11.7,9.1,24.1,17.1,36.7,24.4
						c10,5.8,20.5,12.1,31.5,15.4c0.8,0.2,4.5,1,3.5-1.1c-4.8-10.5-12.7-18-22.1-24.4c-15-10.3-32.7-16.6-47-28.5
						C168.3,372.7,167.1,373.9,167.9,374.6z"/>
				</g>
			</g>
			<g>
				<path fill="#FFFFFF" d="M168.5,374c19.1,16.4,55,25.4,67.5,49.6c0.5,1,1,2,1.4,3c1.1,5.1,1.3,10.6,0.5,16.4
					c-1.7,12.8-8.3,23.5-18,30.6c-9.6,7.1-22.4,10.8-35.8,9.6c-15.8-1.3-48.4-11-84.3-37.6c22.6-28.5,45.2-65.6,45.3-65.5
					C152.7,380.3,160.8,378.4,168.5,374z"/>
			</g>
			<g>
				<path fill="#9EB7CC" d="M100.9,446.5c19.2-8.5,38-17.9,53.6-31.5c0.1-0.1,0.1-0.2,0-0.3c-5.4-10.8-8.3-22.9-8.7-34.3
					c0-0.4-0.6-0.4-0.6,0c0.4,11.6,3.4,23.7,8.8,34.6c0.4,0.8-11.6,8.8-12.9,9.7c-4,2.8-8.2,5.3-12.4,7.7c-9,5.1-18.6,9.5-28.2,13.7
					C100.2,446.1,100.6,446.6,100.9,446.5L100.9,446.5z"/>
			</g>
			<g>
				<path fill="#087773" stroke="#087773" stroke-width="0.1848" stroke-miterlimit="10" d="M16.1,337.1c-0.2,0.3,0.5,1.1,1.5,2.1
					c0.5,0.5,1.2,1,1.9,1.6c0.7,0.5,1.5,1,2.3,1.6c0.8,0.5,1.6,0.9,2.4,1.4c0.8,0.4,1.5,0.7,2.2,1c0.6,0.3,1.2,0.5,1.6,0.6
					c0.4,0.1,0.6,0.2,0.6,0.2c0.7,0.2,1.3,0.3,1.9,0.4c0.6,0,1.1,0.1,1.6,0c0.9-0.2,1.4-0.6,1.4-1.1c0-0.5-0.6-1.1-1.3-1.5
					c-0.4-0.2-0.8-0.5-1.4-0.7c-0.5-0.2-1.1-0.4-1.7-0.6c0,0-0.2-0.1-0.5-0.2c-0.3-0.1-0.9-0.2-1.4-0.5c-0.6-0.2-1.3-0.5-2.1-0.7
					c-0.7-0.3-1.5-0.6-2.4-1c-0.8-0.3-1.6-0.7-2.4-1.1c-0.7-0.4-1.4-0.7-2.1-0.9C17.2,337.1,16.3,336.8,16.1,337.1z"/>
			</g>
			<g>
				<path fill="#087773" stroke="#087773" stroke-width="0.1848" stroke-miterlimit="10" d="M35.7,334.9c-0.1,0.3,0.3,0.8,0.9,1.3
					c0.3,0.2,0.7,0.5,1.1,0.7c0.4,0.2,0.9,0.4,1.4,0.6c1.9,0.7,3.9,0.8,3.9,0.8c0.7,0,1.4-0.3,1.8-0.7c0.4-0.4,0.5-0.9,0.3-1.4
					c-0.2-0.5-0.6-0.9-1-1.1c-0.4-0.3-1-0.4-1.6-0.4c0,0-1.5,0.2-3.2,0.1c-0.4,0-0.8,0-1.2-0.1c-0.4,0-0.8,0-1.1,0
					C36.3,334.5,35.8,334.6,35.7,334.9z"/>
			</g>
			<g>
				<path fill="#087773" stroke="#087773" stroke-width="0.1848" stroke-miterlimit="10" d="M33.6,306.2c-0.3,0.1-0.3,0.9,0,2
					c0.2,0.6,0.4,1.2,0.7,1.9c0.3,0.7,0.6,1.4,1,2.1c0.4,0.7,0.8,1.4,1.2,2c0.4,0.6,0.8,1.2,1.1,1.7c0.7,1,1.2,1.6,1.2,1.6
					c1.6,1.8,3.6,2.5,4.1,1.7c0.5-0.8-0.3-2.5-1.7-4c0,0-0.5-0.5-1.2-1.3c-0.3-0.4-0.7-0.9-1.2-1.4c-0.4-0.5-0.9-1.1-1.3-1.6
					c-0.4-0.6-0.8-1.1-1.3-1.7c-0.4-0.6-0.8-1.1-1.1-1.5C34.5,306.7,33.9,306.1,33.6,306.2z"/>
			</g>
			<g>
				<path fill="#087773" stroke="#087773" stroke-width="0.1848" stroke-miterlimit="10" d="M31.9,278.8c-0.2,0.2,0,1,0.5,2
					c0.3,0.5,0.6,1.1,0.9,1.7c0.3,0.6,0.7,1.3,1,1.9c0.3,0.6,0.7,1.3,1,1.9c0.3,0.6,0.6,1.2,0.8,1.7c0.5,1,0.8,1.6,0.8,1.6
					c0.9,2,2.4,3.3,3.2,3c0.9-0.3,0.8-2.3-0.3-4.4c0,0-0.4-0.7-1-1.7c-0.3-0.5-0.7-1.1-1.1-1.7c-0.4-0.6-0.9-1.2-1.4-1.8
					c-0.5-0.6-1-1.2-1.4-1.8c-0.5-0.5-1-1-1.4-1.4C32.8,279,32.1,278.6,31.9,278.8z"/>
			</g>
			<g>
				<path fill="#087773" stroke="#087773" stroke-width="0.1848" stroke-miterlimit="10" d="M47.9,274.1c-0.3-0.1-0.8,0.6-1.2,1.8
					c-0.2,0.6-0.4,1.3-0.5,2.1c-0.1,0.8-0.2,1.6-0.3,2.5c0,0.9,0,1.8,0,2.6c0.1,0.8,0.2,1.6,0.3,2.3c0.3,1.3,0.5,2.2,0.5,2.2
					c0.2,0.7,0.5,1.3,0.8,1.8c0.1,0.3,0.3,0.5,0.5,0.7c0.2,0.2,0.3,0.4,0.5,0.6c0.7,0.7,1.3,0.9,1.7,0.7c0.4-0.2,0.5-0.9,0.4-1.7
					c0-0.2-0.1-0.4-0.1-0.6c0-0.2-0.1-0.5-0.1-0.7c-0.1-0.5-0.3-1-0.4-1.6c0,0-0.2-0.7-0.6-1.8c-0.1-0.6-0.3-1.2-0.5-1.9
					c-0.1-0.7-0.2-1.5-0.4-2.3c0-0.8-0.2-1.6-0.2-2.3c0-0.7,0-1.4-0.1-2C48.3,275,48.2,274.2,47.9,274.1z"/>
			</g>
			<g>
				<path fill="#087773" stroke="#087773" stroke-width="0.1848" stroke-miterlimit="10" d="M53.6,266c-0.6,0.1-0.5,2.4-0.2,4.7
					c0.1,1.1,0.4,2.3,0.6,3.1c0.2,0.9,0.3,1.4,0.3,1.4c0.5,1.7,1.6,2.9,2.5,2.6c0.9-0.3,1.2-1.8,0.8-3.4c0,0-0.2-0.5-0.5-1.3
					c-0.3-0.8-0.7-1.8-1.1-3C55.2,268,54.2,265.8,53.6,266z"/>
			</g>
			<g>
				<path fill="#087773" stroke="#087773" stroke-width="0.1848" stroke-miterlimit="10" d="M20.4,311.9c-0.3,0.1-0.2,0.9,0.2,2
					c0.2,0.5,0.6,1.1,1,1.7c0.4,0.6,0.9,1.2,1.5,1.8c0.6,0.6,1.2,1.1,1.8,1.5c0.6,0.4,1.3,0.7,1.8,1c1.1,0.4,1.8,0.6,1.8,0.6
					c1.1,0.1,2.1,0,2.7-0.4c0.6-0.4,0.9-0.9,0.8-1.4c-0.3-1-1.8-1.6-3.3-1.9c0,0-0.5-0.1-1.3-0.3c-0.4-0.1-0.8-0.3-1.3-0.5
					c-0.5-0.3-1-0.5-1.4-0.8c-0.5-0.4-1-0.7-1.4-1.1c-0.4-0.4-0.9-0.8-1.2-1.1C21.2,312.3,20.6,311.8,20.4,311.9z"/>
			</g>
			<g>
				<path fill="#087773" stroke="#087773" stroke-width="0.1848" stroke-miterlimit="10" d="M79.7,266.8c-0.3,0-0.5,0.7-0.6,1.7
					c-0.1,0.5-0.2,1-0.2,1.6c-0.1,0.6-0.2,1.2-0.3,1.8c-0.1,0.6-0.3,1.2-0.4,1.8c-0.1,0.6-0.3,1.1-0.4,1.5c-0.3,0.9-0.5,1.4-0.5,1.4
					c-0.5,1.7-0.5,3.3,0.3,3.9c0.8,0.5,2.3-0.6,2.9-2.7c0,0,0.1-0.7,0.4-1.7c0.1-0.5,0.1-1.1,0.2-1.8c0.1-0.7,0.1-1.4,0.1-2.1
					c0-0.7-0.1-1.4-0.2-2c-0.1-0.7-0.2-1.3-0.4-1.8C80.4,267.4,80,266.7,79.7,266.8z"/>
			</g>
			<g>
				<path fill="#087773" stroke="#087773" stroke-width="0.1848" stroke-miterlimit="10" d="M89.2,283.7c-0.3,0-0.6,0.6-0.8,1.5
					c-0.2,0.4-0.3,0.9-0.4,1.5c-0.2,0.5-0.4,1.1-0.5,1.6c-0.2,0.5-0.4,1.1-0.6,1.5c-0.2,0.5-0.4,0.9-0.6,1.3
					c-0.4,0.7-0.7,1.2-0.7,1.2c-0.8,1.4-1.1,3-0.4,3.6c0.7,0.7,2.3,0,3.4-1.8c0,0,0.3-0.6,0.7-1.5c0.2-0.5,0.3-1,0.5-1.6
					c0.2-0.6,0.3-1.3,0.4-1.9c0.1-0.7,0.1-1.3,0.1-2c0-0.6-0.1-1.2-0.1-1.7C89.8,284.4,89.6,283.7,89.2,283.7z"/>
			</g>
			<g>
				<path fill="#087773" stroke="#087773" stroke-width="0.147" stroke-miterlimit="10" d="M60.8,300.3c-0.5,0-0.7,1.4-0.7,2.9
					c0,0.7,0,1.5,0.1,2c0.1,0.6,0.1,0.9,0.1,0.9c0.2,1.1,1,1.9,1.7,1.8c0.7-0.1,1.2-1.1,1-2.1c0,0-0.1-0.3-0.2-0.9
					c-0.2-0.5-0.4-1.2-0.5-1.9C61.9,301.7,61.4,300.3,60.8,300.3z"/>
			</g>
			<path fill="#D7E9F4" d="M105.1,321.8c1.9,12.5,4.2,25,7,37.6c-2.1,3.4-4.9,7-9.6,10.4c-0.8,0.5-1.5,0.9-2.3,1.2
				c-3.2-13.8-5.9-27.6-8.1-41.3C96.8,326.8,101.2,324.2,105.1,321.8z"/>
			<path fill="#D7E9F4" d="M110.9,317.9c1.6,10.8,3.6,21.7,5.9,32.6c-1.2,1.8-2.2,4-3.5,6.3c-2.6-12.1-4.8-24.2-6.7-36.2
				c0,0,0,0,0,0C108,319.4,109.6,318.7,110.9,317.9z"/>
			<path fill="#9EB7CC" stroke="#9EB7CC" stroke-width="0.2347" stroke-miterlimit="10" d="M170.1,377.4c-1.4-0.5-3,0.3-3.4,1.8
				c-0.4,1.5,0.4,3.1,1.8,3.6c1.5,0.5,3-0.4,3.4-1.9C172.3,379.5,171.5,377.9,170.1,377.4z"/>
			<path fill="#9EB7CC" stroke="#9EB7CC" stroke-width="0.2347" stroke-miterlimit="10" d="M181.7,385.1c-1.4-0.4-3,0.4-3.4,1.9
				c-0.4,1.5,0.4,3.1,1.9,3.5c1.5,0.4,3-0.4,3.4-1.9C184,387.2,183.2,385.6,181.7,385.1z"/>
			<path fill="#9EB7CC" stroke="#9EB7CC" stroke-width="0.2347" stroke-miterlimit="10" d="M194.4,392c-1.4-0.4-2.9,0.5-3.3,2
				c-0.4,1.5,0.5,3.1,2,3.5c1.5,0.4,2.9-0.5,3.3-2C196.7,394,195.8,392.4,194.4,392z"/>
			<path fill="#9EB7CC" stroke="#9EB7CC" stroke-width="0.2347" stroke-miterlimit="10" d="M206.4,398.4c-1.5-0.4-2.9,0.6-3.3,2.1
				c-0.4,1.5,0.5,3.1,2,3.4c1.5,0.4,2.9-0.6,3.3-2.1C208.8,400.3,207.9,398.7,206.4,398.4z"/>
			<path fill="#2F7F40" d="M96.7,391.1c1.3,0.6,2,2.1,1.6,3.4c-0.4,1.3-1.8,1.9-3.1,1.4c-1.3-0.6-2-2.1-1.6-3.4
				C94,391.1,95.4,390.5,96.7,391.1z"/>
			<path fill="#2F7F40" d="M120.6,399.9c1.7,0.7,2.7,2.6,2.2,4.4c-0.5,1.8-2.3,2.6-4,2c-1.7-0.7-2.7-2.7-2.2-4.4
				C117.1,400.1,118.9,399.2,120.6,399.9z"/>
			<path fill="#2F7F40" d="M103.9,418.2c0.7,0.3,1.1,1.1,0.9,1.8c-0.2,0.7-0.9,1-1.6,0.8c-0.7-0.3-1.1-1.1-0.9-1.8
				C102.4,418.2,103.2,417.9,103.9,418.2z"/>
			<path fill="#2F7F40" d="M72.5,397.6c2.5,1.2,3.8,4.1,3.1,6.6c-0.8,2.5-3.4,3.6-5.9,2.4c-2.5-1.2-3.9-4.2-3.1-6.7
				C67.4,397.5,70.1,396.4,72.5,397.6z"/>
			<path fill="#2F7F40" d="M57.6,388.3c1.6,0.8,2.4,2.7,1.9,4.3c-0.5,1.6-2.2,2.3-3.8,1.5c-1.6-0.8-2.4-2.8-1.9-4.4
				C54.3,388.2,56.1,387.6,57.6,388.3z"/>
			<path fill="#2F7F40" d="M136.9,377.6c1.8,0.7,2.7,2.7,2.2,4.5c-0.6,1.8-2.5,2.8-4.3,2.1c-1.8-0.7-2.8-2.7-2.2-4.6
				C133.2,377.8,135.1,376.9,136.9,377.6z"/>
			<path fill="#2F7F40" d="M94.7,295.8c2.7,1.5,3.8,5,2.4,7.8c-1.4,2.9-4.7,4-7.5,2.5c-2.8-1.5-3.9-5.1-2.5-7.9
				C88.7,295.4,92,294.3,94.7,295.8z"/>
			<path fill="#2F7F40" d="M55.2,295.9c0.7,0.5,1,1.4,0.6,2.2c-0.4,0.8-1.3,1-2,0.6c-0.7-0.5-1-1.4-0.6-2.2
				C53.5,295.7,54.4,295.4,55.2,295.9z"/>
			<path fill="#2F7F40" d="M147.9,364.2c0.8,0.3,1.2,1.2,0.9,2c-0.3,0.8-1.1,1.2-1.9,0.9c-0.8-0.3-1.2-1.2-0.9-2
				C146.2,364.3,147.1,363.9,147.9,364.2z"/>
			<path fill="#2F7F40" d="M134.7,361c0.8,0.3,1.2,1.2,0.9,2c-0.3,0.8-1.1,1.2-1.9,0.9c-0.8-0.3-1.2-1.2-0.9-2
				C133,361.1,133.9,360.7,134.7,361z"/>
			<path fill="#2F7F40" d="M39.1,327.3c1.6,1,2.3,3.1,1.6,4.8c-0.7,1.7-2.7,2.3-4.3,1.3c-1.6-1-2.3-3.2-1.6-4.9
				C35.5,326.9,37.5,326.3,39.1,327.3z"/>
			<g opacity="0.4">
				<path fill="#898989" d="M156.4,356.9c0.6,0.5,1.3,1.1,2,1.6c13.4,11,33,23.3,44.4,28.7c17.7,8.6,30.9,21.9,34.6,39.3
					c0.5,2.5,1.7,8.5,0.5,16.4c-2.2,2-6.4,0-9.7-4.8c-5.3-15.3-18.2-27.2-34.6-35.2c-8.8-4.3-22.5-12.4-34.5-21.1
					c-0.8-0.7-3.8-2.8-3.8-2.8c1.1-0.3,2.3-0.6,3.4-0.9c-0.7-3.8-2.4-6.7-5.5-11C153.3,367.2,155.9,358.6,156.4,356.9z"/>
			</g>
		</g>
		<g id="Bacteria_2_" display="none">
			<g display="inline">
				<path fill="#087773" stroke="#087773" stroke-width="0.1663" stroke-miterlimit="10" d="M73.3,274.6c-0.3,0-0.5,0.7-0.6,1.8
					c-0.1,0.5-0.1,1.2-0.2,1.8c-0.1,0.7-0.1,1.4-0.2,2.1c-0.1,0.7-0.2,1.4-0.2,2c-0.1,0.6-0.2,1.2-0.3,1.7c-0.2,1-0.3,1.7-0.3,1.7
					c-0.3,2-0.1,3.9,0.7,4.4c0.8,0.4,1.9-1,2.3-3.2c0,0,0.1-0.7,0.2-1.9c0-0.6,0-1.2,0.1-2c0-0.7,0-1.5,0-2.3
					c-0.1-0.8-0.1-1.5-0.2-2.3c-0.1-0.7-0.2-1.4-0.3-2C73.9,275.3,73.6,274.6,73.3,274.6z"/>
			</g>
			<g display="inline">
				<path fill="#087773" stroke="#087773" stroke-width="0.1663" stroke-miterlimit="10" d="M102.9,286c-0.3,0.1-0.3,0.9-0.2,2
					c0,0.6,0.1,1.2,0.2,1.9c0,0.7,0.1,1.5,0.2,2.2c0,0.7,0.1,1.5,0.1,2.2c0,0.7,0,1.3,0,1.9c-0.1,1.1-0.1,1.8-0.1,1.8
					c-0.1,2.1,0.2,4.1,1,4.3c0.8,0.3,1.8-1.4,2-3.9c0,0,0-0.8,0-2c0-0.6-0.1-1.3-0.2-2.1c-0.1-0.8-0.2-1.6-0.4-2.3
					c-0.2-0.8-0.4-1.6-0.6-2.3c-0.2-0.7-0.5-1.4-0.7-1.9C103.6,286.6,103.2,285.9,102.9,286z"/>
			</g>
			<g display="inline">
				<path fill="#087773" stroke="#087773" stroke-width="0.1663" stroke-miterlimit="10" d="M82,280.5c-0.3,0-0.5,0.7-0.7,1.7
					c-0.1,0.5-0.2,1.1-0.2,1.8c-0.1,0.7-0.2,1.4-0.3,2c-0.1,0.7-0.1,1.4-0.2,2c-0.1,0.6-0.2,1.2-0.2,1.7c-0.1,1-0.2,1.7-0.2,1.7
					c-0.2,2,0.2,3.9,1,4.2c0.8,0.3,1.7-1.2,2-3.4c0,0,0-0.7,0.1-1.8c0-0.5,0-1.2,0-1.9c0-0.7-0.1-1.4-0.1-2.2c0-0.7-0.1-1.5-0.2-2.2
					c-0.1-0.7-0.2-1.3-0.3-1.9C82.6,281.3,82.3,280.6,82,280.5z"/>
			</g>
			<g display="inline">
				<path fill="#087773" stroke="#087773" stroke-width="0.1663" stroke-miterlimit="10" d="M35.4,299.8c-0.3,0-0.4,0.7-0.3,1.9
					c0.1,0.6,0.2,1.2,0.3,1.9c0.2,0.7,0.4,1.5,0.7,2.2c0.3,0.8,0.6,1.5,0.9,2.2c0.4,0.7,0.7,1.3,1,1.8c0.7,1,1.2,1.7,1.2,1.7
					c0.4,0.5,0.8,0.8,1.2,1.1c0.2,0.1,0.4,0.3,0.6,0.4c0.2,0.1,0.4,0.2,0.5,0.2c0.7,0.2,1.2,0.1,1.3-0.4c0.2-0.4,0-1.1-0.3-1.8
					c-0.1-0.2-0.2-0.3-0.3-0.5c-0.1-0.2-0.2-0.4-0.3-0.5c-0.2-0.4-0.5-0.7-0.8-1.1c0,0-0.4-0.5-1-1.2c-0.3-0.4-0.6-0.8-0.9-1.3
					c-0.3-0.5-0.7-1.1-1-1.7c-0.3-0.6-0.6-1.2-0.9-1.8c-0.3-0.6-0.5-1.1-0.8-1.6C36.1,300.4,35.7,299.8,35.4,299.8z"/>
			</g>
			<g display="inline">
				<path fill="#087773" stroke="#087773" stroke-width="0.1663" stroke-miterlimit="10" d="M31.1,341c-0.3,0.5,1.4,2.9,3.6,4.6
					c1.1,0.9,2.3,1.5,3.2,1.8c0.9,0.3,1.6,0.4,1.6,0.4c1,0.1,1.7-0.3,2.1-0.9c0.4-0.5,0.3-1.2,0-1.7c-0.3-0.5-0.8-0.8-1.3-1
					c-0.5-0.2-1-0.3-1.6-0.4c0,0-0.4,0-1-0.1c-0.6-0.1-1.5-0.4-2.4-0.9C33.4,342,31.5,340.5,31.1,341z"/>
			</g>
			<path display="inline" fill="#4FBA8E" d="M99,293.4c6.1,4.2,11.4,9.8,15.5,16.8c8,14.8,27.8,41.1,41.3,50.6
				c2.1,1.6,4.6,3.3,7.3,5c0.7,0.4,1.3,0.8,2,1.2c13.8,8.4,33.9,15.7,45.2,17.7c17.5,3.5,32.4,10.9,41.8,24.8c1.4,2,2.6,4.1,3.6,6.4
				c1.1,2.4,2.1,4.9,2.9,7.6c2.1,7,2.5,14,1.2,20.5c-0.8,4.3-2.4,8.3-4.7,12.1c-5.7,9.5-16,16.9-29.1,19.7
				c-15.3,3.4-51.2,3.7-94.1-17.9c-0.9-0.5-1.9-1-2.8-1.5c-7.9-4.2-16-9.1-24-14.8c-25.5-17.6-52.7-48.7-60.9-77
				c-9.6-32.4-5-53.3,3.1-65.4c3.1-4.7,6.9-8.2,10.9-10.8C71.7,282.1,87.1,285.3,99,293.4z"/>
			<path display="inline" fill="#4EDD70" d="M104.2,323.1c8.7,15.5,30.2,42.9,44.6,52.9c0.8,0.6,1.6,1.2,2.5,1.8
				c1.6,1.1,3.4,2.3,5.3,3.4c0.7,0.4,1.4,0.9,2.2,1.3c3.6,2.1,7.7,4.3,11.8,6.3c0.1,0.5,0.3,1,0.4,1.5c0,0,2.2,2.2,6,5.6
				c12.1,12.1,46.6,33.5,61.5,30c4.1-0.8,7.4-1.9,10-3.2c1.1,1.2,2.1,2.5,3.1,3.8c1.5,2,2.8,4.2,4,6.5c1.3,2.4,2.4,4.9,3.3,7.6
				c0.4,1.2,0.8,2.4,1.1,3.6c-0.8,4.3-2.4,8.3-4.7,12.1c-5.7,9.5-16,16.9-29.1,19.7c-10.8,2.4-31.1,3.2-57.3-3.7
				c-10.7-2.8-22.2-7-34.3-12.9c-0.9-0.4-1.7-0.9-2.6-1.3c-0.9-0.5-1.9-1-2.8-1.5c-7.9-4.2-16-9.1-24-14.8
				c-25.5-17.6-52.7-48.6-60.9-77c-9.6-32.4-5-53.3,3.1-65.4c13.2-5.7,28.3-2.2,40.4,6.2C94.1,309.8,99.7,315.7,104.2,323.1z"/>
			<g display="inline">
				<path fill="#7DA6D3" d="M134.4,332.1c0,0.1,6,11.9,9.6,22.4c4.3,13.5,4.1,30.7-9,35.1c-2.4,0.8-10.9-2.8-13-2.8
					c-1.4,0.9-3.8,5.7-5.9,9.4c-12,19.8-29.5,10.6-46.2-2.9c-0.1-0.2-0.2-0.3-0.3-0.5c-7.5,2.3-20.5,5.5-25.3,5.4
					c0,0-3.2-10.4-4.7-22.3c-1.6-12.8-0.8-23.4-0.8-23.4C74.4,351.6,100.6,342.3,134.4,332.1z"/>
			</g>
			<g display="inline">
				<path fill="#6187A3" d="M133,334.6c-0.1,0.2,9.7,14.8,11.1,23.4c2.9,19-0.4,30-14.3,29.3c-2.6-0.1-5.6-2.5-7.7-2.5
					c-1.4,0.9-4.4,7.3-6.4,11c-12,19.8-28.6,8.8-45.2-4.7c-2.1-12.8-3.4-25.5-4-38.2C101.2,345.8,104.3,344.5,133,334.6z"/>
			</g>
			<g display="inline">
				<path fill="#A9D2F7" d="M132.4,379.5c-4.6,3-7.5-1.7-12.1-0.4c-1.1,0.6-2.1,1.5-3,2.5c-1.4,1.5-2.6,3.3-4.1,5.3
					c-0.5,0.7-1,1.4-1.6,2c-2.4,2.8-5.4,5.7-10.1,7.9c-0.8,0.3-1.5,0.6-2.3,0.6c-6,0.8-12.4-5.8-17.2-14.8
					c-4.5-8.1-3.4-23.1-3.4-23.1c7.6-1.3,14.7-3,21.1-4.7c4.8-1.3,9.1-2.6,13-3.8c0.6-0.2,1.2-0.4,1.7-0.5c0,0,0,0,0,0
					c1.5-0.5,2.9-0.9,4.2-1.4c0,0,0.1,0,0.1,0c0,0,0,0,0,0c8.5-2.9,13.5-5,13.5-5C138.7,353.5,141.7,373.2,132.4,379.5z"/>
			</g>
			<g display="inline">
				<path fill="#FFFFFF" d="M163.2,365.8c0.7,0.4,1.3,0.8,2,1.2c13.8,8.4,33.9,15.7,45.2,17.7c17.5,3.5,32.4,10.9,41.8,24.8
					c1.4,2,2.6,4.1,3.6,6.4c-2,4.1-7.2,7.8-17.3,9.8c-9.3,2-27.7-5.7-42.1-15.2c-14.7-9.3-25.4-20.5-25.4-20.4
					c-1.6-6.6-3.7-9.3-8.7-14.3C162.3,375.9,163.1,367.5,163.2,365.8z"/>
			</g>
			<g display="inline">
				<path fill="#9EB7CC" d="M162.8,375.8c4.6-3.9,11.6-2.3,17.1-0.5c0.3,0.1,0.5-0.4,0.1-0.5c-5.6-1.8-12.8-3.5-17.6,0.5
					C162.2,375.6,162.6,376,162.8,375.8L162.8,375.8z"/>
			</g>
			<g display="inline">
				<path fill="#FFFFFF" d="M177.3,379.8c20.8,12.3,53.8,11.1,72.6,27.6c0.8,0.7,1.5,1.4,2.3,2.1c1.6,2-20.9,1-42.6-5.7
					c-21.8-5.9-42.7-17.4-40.7-18.3C171.8,384.1,174.6,382.2,177.3,379.8z"/>
				<g>
					<path fill="#9EB7CC" d="M176.9,380.5c20.5,11.5,44.2,10.8,64.1,21.7c2.3,1.2,4.4,2.7,6.5,4.3c0.2,0.2,3.3,3.4,4.1,2.9
						c-0.1,0.1-0.3,0.1-0.4,0.1c-1.4,0.3-3,0.2-4.4,0.2c-5.2-0.1-10.5-0.8-15.8-1.7c-14-2.3-27.9-6.3-41.4-11.9
						c-5.3-2.2-10.5-4.6-15.5-7.4c-1.3-0.7-2.6-1.5-3.8-2.5c-1.1-0.8-0.4-0.2,0.3-0.6c2.7-1.4,5-3.3,7.3-5.2
						c0.7-0.6-0.3-1.9-1.1-1.2c-2.5,2.2-5.2,4.1-8.2,5.7c-0.2,0.1-0.4,0.3-0.5,0.6c-0.2,0.7,0.5,1.3,1,1.8c2.7,2.4,6.3,4,9.4,5.6
						c12.6,6.3,25.9,10.9,39.2,14.1c10.5,2.6,21.8,5.1,32.4,4.3c0.7,0,4.2-0.6,2.6-2.1c-7.8-7.5-16.9-11.6-26.8-14.6
						c-15.8-4.9-32.9-6.7-48.2-15.2C176.8,378.7,176,380,176.9,380.5z"/>
				</g>
			</g>
			<g display="inline">
				<path fill="#FFFFFF" d="M177.3,379.8c20.8,12.3,53.8,11.1,72.6,27.6c0.8,0.7,1.5,1.4,2.3,2.1c2.7,4.1,5,8.7,6.5,14
					c3.5,11.6,2.2,23.1-3.5,32.6c-5.7,9.5-16,16.9-29.1,19.7c-15.3,3.4-51.2,3.7-94.1-17.9c13.1-30.7,25.4-68.9,25.7-68.8
					C164.5,388.2,171.3,385.2,177.3,379.8z"/>
			</g>
			<g display="inline">
				<path fill="#9EB7CC" d="M133.2,458.7c16.1-10.7,31-22.7,41.5-38.3c0.1-0.1,0-0.2-0.1-0.3c-8-9.1-13.6-20.1-16.4-30.9
					c-0.1-0.3-0.6-0.3-0.5,0c2.8,10.9,8.5,21.9,16.5,31.1c0.6,0.7-8.2,10.3-9.2,11.3c-2.9,3.3-6.2,6.3-9.5,9.3
					c-7.1,6.3-14.9,11.9-22.9,17.2C132.4,458.4,132.9,458.9,133.2,458.7L133.2,458.7z"/>
			</g>
			<g display="inline">
				<path fill="#087773" stroke="#087773" stroke-width="0.1663" stroke-miterlimit="10" d="M31.6,347.5c-0.1,0.3,0.5,1.2,1.6,2.4
					c0.6,0.6,1.2,1.2,1.9,1.9c0.7,0.6,1.5,1.3,2.3,1.9c0.8,0.6,1.6,1.2,2.4,1.7c0.8,0.5,1.5,0.9,2.1,1.3c0.6,0.4,1.2,0.6,1.5,0.8
					c0.4,0.2,0.6,0.3,0.6,0.3c0.6,0.3,1.3,0.5,1.8,0.6c0.6,0.1,1.1,0.2,1.5,0.1c0.8-0.1,1.3-0.5,1.2-1c-0.1-0.5-0.6-1.1-1.4-1.7
					c-0.4-0.2-0.8-0.6-1.3-0.9c-0.5-0.3-1-0.5-1.6-0.8c0,0-0.2-0.1-0.5-0.2c-0.3-0.2-0.8-0.3-1.4-0.6c-0.6-0.3-1.3-0.6-2-1
					c-0.7-0.4-1.5-0.8-2.3-1.2c-0.8-0.4-1.5-0.9-2.3-1.4c-0.7-0.5-1.4-0.9-2-1.2C32.6,347.6,31.8,347.2,31.6,347.5z"/>
			</g>
			<g display="inline">
				<path fill="#087773" stroke="#087773" stroke-width="0.1663" stroke-miterlimit="10" d="M49.8,347.1c-0.1,0.3,0.3,0.8,1,1.4
					c0.3,0.3,0.7,0.5,1.1,0.8c0.4,0.2,0.9,0.5,1.3,0.7c1.8,0.9,3.7,1.1,3.7,1.1c0.7,0,1.3-0.2,1.6-0.6c0.3-0.4,0.4-0.9,0.1-1.5
					c-0.2-0.5-0.6-1-1.1-1.2c-0.4-0.3-1-0.5-1.5-0.5c0,0-1.4,0-3-0.2c-0.4-0.1-0.8-0.1-1.2-0.2c-0.4-0.1-0.7-0.1-1-0.1
					C50.3,346.7,49.8,346.7,49.8,347.1z"/>
			</g>
			<g display="inline">
				<path fill="#087773" stroke="#087773" stroke-width="0.1663" stroke-miterlimit="10" d="M46.3,316.9c-0.3,0.1-0.2,0.9,0.1,2.1
					c0.2,0.6,0.4,1.3,0.7,2.1c0.3,0.7,0.6,1.5,1,2.3c0.4,0.8,0.8,1.5,1.2,2.2c0.4,0.7,0.8,1.3,1.1,1.9c0.7,1.1,1.2,1.7,1.2,1.7
					c1.6,2,3.4,2.9,3.9,2.1c0.5-0.8-0.4-2.6-1.8-4.3c0,0-0.5-0.6-1.2-1.5c-0.3-0.4-0.7-1-1.2-1.6c-0.4-0.6-0.8-1.2-1.3-1.8
					c-0.4-0.6-0.8-1.3-1.2-1.9c-0.4-0.6-0.7-1.2-1.1-1.7C47.1,317.5,46.6,316.8,46.3,316.9z"/>
			</g>
			<g display="inline">
				<path fill="#087773" stroke="#087773" stroke-width="0.1663" stroke-miterlimit="10" d="M44.7,288.1c-0.2,0.2,0,1,0.4,2.2
					c0.2,0.6,0.5,1.2,0.8,1.9c0.3,0.7,0.6,1.4,0.9,2.1c0.3,0.7,0.6,1.4,0.9,2.1c0.3,0.7,0.5,1.3,0.7,1.9c0.4,1.1,0.7,1.8,0.7,1.8
					c0.8,2.1,2.2,3.7,3,3.5c0.8-0.2,0.7-2.3-0.2-4.6c0,0-0.4-0.7-0.9-1.8c-0.3-0.5-0.6-1.2-0.9-1.9c-0.4-0.7-0.8-1.4-1.2-2.1
					c-0.4-0.7-0.8-1.4-1.3-2c-0.4-0.6-0.9-1.2-1.3-1.6C45.5,288.5,44.9,288,44.7,288.1z"/>
			</g>
			<g display="inline">
				<path fill="#087773" stroke="#087773" stroke-width="0.1663" stroke-miterlimit="10" d="M59.3,285.5c-0.3-0.2-0.7,0.5-1.1,1.6
					c-0.2,0.6-0.4,1.3-0.5,2.1c-0.1,0.8-0.2,1.7-0.3,2.5c0,0.9,0,1.8,0,2.6c0.1,0.9,0.2,1.7,0.3,2.4c0.2,1.4,0.5,2.3,0.5,2.3
					c0.2,0.7,0.5,1.3,0.7,1.9c0.1,0.3,0.3,0.6,0.4,0.8c0.2,0.2,0.3,0.5,0.5,0.6c0.6,0.8,1.2,1.1,1.5,0.9c0.4-0.2,0.5-0.8,0.4-1.7
					c0-0.2-0.1-0.4-0.1-0.7c0-0.2-0.1-0.5-0.1-0.8c-0.1-0.5-0.3-1.1-0.4-1.7c0,0-0.2-0.8-0.5-1.9c-0.1-0.6-0.3-1.3-0.4-2
					c-0.1-0.7-0.2-1.5-0.3-2.4c0-0.8-0.1-1.6-0.1-2.4c0-0.7,0-1.5,0-2.1C59.6,286.6,59.6,285.7,59.3,285.5z"/>
			</g>
			<g display="inline">
				<path fill="#087773" stroke="#087773" stroke-width="0.1663" stroke-miterlimit="10" d="M64.7,278.1c-0.6,0-0.6,2.4-0.4,4.7
					c0.1,1.2,0.3,2.4,0.4,3.3c0.2,0.9,0.3,1.5,0.3,1.5c0.4,1.8,1.4,3.1,2.2,3c0.8-0.2,1.1-1.7,0.7-3.4c0,0-0.2-0.6-0.4-1.4
					c-0.2-0.8-0.6-1.9-0.9-3.1C66,280.4,65.3,278.1,64.7,278.1z"/>
			</g>
			<g display="inline">
				<path fill="#087773" stroke="#087773" stroke-width="0.1663" stroke-miterlimit="10" d="M34.2,321.3c-0.3,0.1-0.1,0.9,0.3,2.1
					c0.2,0.6,0.6,1.2,0.9,2c0.4,0.7,0.9,1.4,1.4,2.1c0.5,0.7,1.2,1.3,1.7,1.8c0.6,0.5,1.2,0.9,1.7,1.2c1,0.5,1.7,0.8,1.7,0.8
					c1,0.2,2,0.3,2.5-0.1c0.6-0.3,0.8-0.8,0.6-1.4c-0.3-1.1-1.7-1.9-3.2-2.3c0,0-0.5-0.2-1.2-0.4c-0.4-0.2-0.8-0.4-1.2-0.7
					c-0.4-0.3-0.9-0.7-1.4-1.1c-0.4-0.5-0.9-0.9-1.3-1.4c-0.4-0.5-0.8-0.9-1.2-1.4C35.1,321.7,34.5,321.2,34.2,321.3z"/>
			</g>
			<g display="inline">
				<path fill="#087773" stroke="#087773" stroke-width="0.1663" stroke-miterlimit="10" d="M88.1,281.9c-0.3,0-0.5,0.7-0.6,1.6
					c-0.1,0.5-0.2,1-0.2,1.5c-0.1,0.6-0.2,1.2-0.3,1.7c-0.1,0.6-0.3,1.2-0.4,1.7c-0.1,0.5-0.3,1-0.4,1.4c-0.3,0.8-0.4,1.4-0.4,1.4
					c-0.5,1.6-0.5,3.2,0.2,3.8c0.7,0.6,2.1-0.4,2.7-2.4c0,0,0.1-0.6,0.4-1.6c0.1-0.5,0.1-1.1,0.2-1.7c0.1-0.6,0.1-1.3,0.1-2
					c0-0.7-0.1-1.4-0.1-2c-0.1-0.6-0.2-1.2-0.3-1.7C88.7,282.5,88.4,281.9,88.1,281.9z"/>
			</g>
			<g display="inline">
				<path fill="#087773" stroke="#087773" stroke-width="0.1663" stroke-miterlimit="10" d="M96.5,299.1c-0.3,0-0.5,0.6-0.7,1.4
					c-0.1,0.4-0.3,0.9-0.4,1.4c-0.2,0.5-0.3,1-0.5,1.5c-0.2,0.5-0.4,1-0.5,1.5c-0.2,0.4-0.4,0.9-0.5,1.2c-0.4,0.7-0.6,1.1-0.6,1.1
					c-0.7,1.3-0.9,2.9-0.3,3.6c0.6,0.7,2.1,0.1,3-1.6c0,0,0.2-0.6,0.6-1.5c0.2-0.5,0.3-1,0.4-1.6c0.1-0.6,0.2-1.2,0.3-1.9
					c0.1-0.6,0.1-1.3,0.1-1.9c0-0.6-0.1-1.2-0.1-1.7C97,299.8,96.8,299.1,96.5,299.1z"/>
			</g>
			<g display="inline">
				<path fill="#087773" stroke="#087773" stroke-width="0.1323" stroke-miterlimit="10" d="M71.1,313.6c-0.5,0-0.6,1.4-0.6,2.9
					c0,0.7,0.1,1.5,0.2,2.1c0.1,0.6,0.1,0.9,0.1,0.9c0.2,1.1,1,2,1.6,1.9c0.7-0.1,1-1,0.8-2.1c0,0-0.1-0.3-0.2-0.9
					c-0.2-0.5-0.4-1.2-0.6-2C72.1,315.1,71.6,313.6,71.1,313.6z"/>
			</g>
			<path display="inline" fill="#D7E9F4" d="M115,348.1c2.8,12.1,6.4,24.2,11,36.2c-1.4,3.4-3.3,7.1-7.1,10.7c-0.6,0.6-1.3,1-2,1.3
				c-5.4-13.4-9.7-27-13-40.5C107.9,353.2,111.7,350.5,115,348.1z"/>
			<path display="inline" fill="#D7E9F4" d="M120.8,346.5c2.4,10.4,5.3,20.8,9,31.1c-0.8,1.8-1.5,4-2.3,6.3
				c-4.3-11.6-7.7-23.2-10.4-34.8c0,0,0,0,0,0C118.4,348.1,119.7,347.4,120.8,346.5z"/>
			<path display="inline" fill="#9EB7CC" stroke="#9EB7CC" stroke-width="0.2113" stroke-miterlimit="10" d="M179.4,382.7
				c-1.4-0.2-2.6,0.8-2.6,2.3c-0.1,1.5,1,2.8,2.4,3c1.4,0.2,2.6-0.9,2.6-2.3C181.9,384.2,180.8,382.9,179.4,382.7z"/>
			<path display="inline" fill="#9EB7CC" stroke="#9EB7CC" stroke-width="0.2113" stroke-miterlimit="10" d="M191.5,387.6
				c-1.4-0.1-2.5,1-2.5,2.4c0,1.5,1.1,2.8,2.5,2.9c1.4,0.1,2.5-1,2.5-2.5C194,389,192.9,387.7,191.5,387.6z"/>
			<path display="inline" fill="#9EB7CC" stroke="#9EB7CC" stroke-width="0.2113" stroke-miterlimit="10" d="M204.3,391.1
				c-1.4,0-2.4,1.1-2.4,2.6c0.1,1.5,1.3,2.7,2.6,2.7c1.4,0,2.4-1.1,2.4-2.6C206.9,392.3,205.7,391.1,204.3,391.1z"/>
			<path display="inline" fill="#9EB7CC" stroke="#9EB7CC" stroke-width="0.2113" stroke-miterlimit="10" d="M216.5,393.8
				c-1.4,0-2.4,1.2-2.3,2.7c0.1,1.5,1.4,2.6,2.7,2.6c1.4,0,2.4-1.3,2.2-2.7C219.1,394.9,217.9,393.8,216.5,393.8z"/>
			<path display="inline" fill="#2F7F40" d="M115.1,404.6c1.3,0.5,2.3,1.9,2.2,3.3c-0.1,1.3-1.3,2-2.6,1.6c-1.4-0.5-2.4-2-2.2-3.3
				C112.5,404.8,113.7,404.2,115.1,404.6z"/>
			<path display="inline" fill="#2F7F40" d="M139.4,411.1c1.8,0.5,3.2,2.2,3.1,4c0,1.8-1.5,2.8-3.3,2.4c-1.8-0.5-3.2-2.3-3.2-4
				C136.2,411.6,137.7,410.6,139.4,411.1z"/>
			<path display="inline" fill="#2F7F40" d="M128.1,430.7c0.7,0.2,1.3,0.9,1.3,1.6c0,0.7-0.6,1.1-1.3,0.9c-0.7-0.2-1.3-0.9-1.3-1.7
				C126.8,430.8,127.4,430.4,128.1,430.7z"/>
			<path display="inline" fill="#2F7F40" d="M93.5,412.4c2.6,1.1,4.5,4,4.3,6.6c-0.2,2.6-2.4,3.8-5.1,2.7c-2.6-1.1-4.6-4.1-4.4-6.7
				C88.6,412.4,90.9,411.3,93.5,412.4z"/>
			<path display="inline" fill="#2F7F40" d="M77.5,403.2c1.6,0.8,2.8,2.8,2.6,4.4c-0.2,1.6-1.7,2.3-3.4,1.5
				c-1.7-0.8-2.8-2.8-2.6-4.5C74.3,403.1,75.8,402.4,77.5,403.2z"/>
			<path display="inline" fill="#2F7F40" d="M149.5,387.8c1.8,0.4,3.1,2.2,2.9,4c-0.1,1.8-1.7,3-3.4,2.5c-1.8-0.4-3.1-2.3-3-4.1
				C146.2,388.4,147.8,387.3,149.5,387.8z"/>
			<path display="inline" fill="#2F7F40" d="M101.7,311.1c2.5,1.5,3.6,4.9,2.5,7.7c-1.1,2.8-4,3.8-6.6,2.3c-2.6-1.5-3.7-5.1-2.6-7.9
				C96.2,310.5,99.2,309.6,101.7,311.1z"/>
			<path display="inline" fill="#2F7F40" d="M65.8,308.6c0.7,0.5,0.9,1.6,0.6,2.3c-0.3,0.7-1.2,0.9-1.8,0.4c-0.7-0.5-1-1.6-0.6-2.3
				C64.3,308.2,65.1,308,65.8,308.6z"/>
			<path display="inline" fill="#2F7F40" d="M156.9,373.8c0.7,0.2,1.3,1,1.2,1.7c-0.1,0.8-0.8,1.3-1.5,1.1c-0.8-0.2-1.3-1-1.2-1.8
				C155.5,374.1,156.1,373.6,156.9,373.8z"/>
			<path display="inline" fill="#2F7F40" d="M144.4,372.3c0.8,0.2,1.3,1,1.2,1.8c-0.1,0.8-0.8,1.3-1.6,1c-0.8-0.2-1.3-1-1.2-1.8
				C142.9,372.5,143.7,372.1,144.4,372.3z"/>
			<path display="inline" fill="#2F7F40" d="M52.3,339.4c1.6,1.2,2.4,3.5,1.8,5.1c-0.6,1.7-2.3,2.1-3.9,1c-1.6-1.2-2.4-3.5-1.8-5.2
				C49,338.7,50.8,338.3,52.3,339.4z"/>
			<g display="inline" opacity="0.4">
				<path fill="#898989" d="M163.2,365.8c0.7,0.4,1.3,0.8,2,1.2c13.8,8.4,33.9,15.7,45.2,17.7c17.5,3.5,32.4,10.9,41.8,24.8
					c1.4,2,4.5,6.7,6.5,14c-1.1,2.5-5.6,2.2-10.2-0.9c-10.4-11.6-25.1-18.1-41.8-21.5c-9-1.7-23.3-6.2-36-12.4c-0.9-0.6-4-2-4-2
					c1-0.4,1.9-0.9,2.9-1.4c-1.5-3.5-3.6-5.9-7.1-9.5C162.3,375.9,163.1,367.5,163.2,365.8z"/>
			</g>
		</g>
	</g>
	<path fill="#DDCD7A" d="M742,374.1c-1-5.8-8.3-8.1-23-8.1c0,0-353.1,13.8-470,2.2c-23.1-2.3-90.9-18.8-90.9-18.8
		c-14.7,0-21.1,29.1-21.1,44.7v55.9c0,15.5,5.4,35.5,20.1,35.5l563.2-0.1c14.7,0,22.7-9,25.7-23.6
		C750.3,440.2,745.6,395.7,742,374.1z"/>
</g>
<g id="escrito_pergamino">
	<path fill="none" stroke="#A67C52" stroke-miterlimit="10" d="M269,50c7-6.1,19.1-5.3,28-5.1c4.6,0.1,8.6,2,13,2.1
		c2.3,0,5.2-2.4,6.9-2.1c3.6,0.6,5.8,3.8,9.3,4.2c8.5,0.9,17.4-3.9,26.8-3.1c9,0.8,17.7,1.8,27,2.2c16.7,0.7,34.6,1.5,52-0.2
		c4.2-0.4,8.8-1.3,13-1c1.9,0.1,4.4,1.9,6,1.8c3.7-0.3,5.8-2.6,9-3.1c6.7-1,6.8,1.6,12.9,2.1c5,0.5,8.1-2.4,13-2.8
		c4.7-0.4,12.3,1.1,17,2.1c2.3,0.5,5.9,2.7,8,2.8c4.1,0.1,5-1.4,8.8-1.8c11.4-1.4,23.2-1.4,35.2-0.9c5.5,0.2,9.1-1.8,15-1
		c5.3,0.7,9.9,3.6,15,3.8c2.3,0.1,9-2.6,13-2.5c4.8,0.1,13.6,2.1,17.8,1c0.4,0.9,0.4,1.8,0.2,2.7"/>
	<path fill="none" stroke="#A67C52" stroke-miterlimit="10" d="M273,66c1.5-2.1,5.6,3.7,8.8,5.9c0.7-11.8,8.2-5.4,14.5-4.3
		c1.2,0.2,1.9-3.5,2.9-3.4c0.8,0.1,4.6,1.8,4.5,1.8c4.2-0.5,5.3,6.7,8.5-0.9c1.8,0.5,5,3.5,6.8,3.6c1.2,0.1,5.8,0.2,5.7,0.2
		c4,0.4,11.3,0,15.3,0.1c0.7,0,2.5-2.9,3.2-2.9c1.3,0.1,3.7,1.6,4.8,1.5c2.1-0.1,9.1,0.2,11,0.2c5.3,0.1,11.2,0.5,17,0.8
		c10.3,0.5,23.4,2.3,34.8,1.2c7.9-0.8,21.7-7.9,31.2-3"/>
	<path fill="none" stroke="#A67C52" stroke-miterlimit="10" d="M461,67c2.4-0.2,6.4-2.9,8-2.8c3.3,0.1,5.3,3.4,9,3.9
		c1.9,0.3,2.5-3,3.9-3c1.6,0.1,4.9,2.3,5.8,2.2c2.7-0.3,3.7,0.6,5.5-3.1c4.5,4.6,22.8,6.9,29.8,7.1c9.8,0.4,17.6-4.3,28.2-2.1
		c18.7,3.8,36.1,3.4,54.8,1.8"/>
	<path fill="none" stroke="#A67C52" stroke-miterlimit="10" d="M278,90c-0.4,1.7,0,4.2,0.2,5.8c5.3,0.1,13,2.5,17.9,1
		c2.1-0.7,3.4-5.8,6.2-6.6c3.6-1.1,5.8,2.1,8.8,1.9c2.3-0.2,6.8-2.1,8.3-2.1c0.9,0,2.4-2,3.9-1.9c2.3,0.1,3.9,3.7,6.1,4
		c6.8,1,10.9,0.5,17.7,0c11.8-0.9,22.1,0.9,34-0.1c11.4-0.9,18.6,2.5,29,4"/>
	<path fill="none" stroke="#A67C52" stroke-miterlimit="10" d="M463,96c2.5,0.6,6.2,1.8,9,1.8c5.9,0,7-2.6,12.1-3.6
		c6.3-1.2,13-0.3,19.7,0c13.1,0.6,26.8,3.6,40.2,1.8c7.3-1,11.7-3.2,18.2-2.8c5.9,0.3,10.9,2.2,16.6,3c12.3,1.8,25.1-3.3,37.2-0.2"
		/>
	<path fill="none" stroke="#A67C52" stroke-miterlimit="10" d="M278,121c4.4-1.8,9,3.9,13.7,5.9c3.8-7.2,6.2-2.6,11.3-2.9
		c0,0,6.2-0.2,5.9-0.3c1.4,0.4,7.9,3.6,9.1,3.4c2.9-0.4,7.3-3.6,10-4.4c-0.8,0.2,9.9-0.2,8.2-0.6c4.5,0.9,8.6,2.5,12,2.6
		c0.7,0,3.2-3.6,4.8-3.9c0.6-0.1,4.6,1.9,6,2.1c7.4,1.2,17.5,3.2,23.8,5.9c0.4-1.5,1.7-2.6,2.2-3.9"/>
	<path fill="none" stroke="#A67C52" stroke-miterlimit="10" d="M461,120c7.3,6,12.3,0.8,18.1,0.2c6-0.6,13.5,0.8,19.9,0.8"/>
	<path fill="none" stroke="#A67C52" stroke-miterlimit="10" d="M563,127c4.7-2.6,7.8-3.6,13-3.9c1.2-0.1,2.6,3.4,4.2,3.6
		c3.1,0.4,3-2.7,5.8-2.9c8.4-0.4,15.6,2.4,25,0.1"/>
	<path fill="none" stroke="#A67C52" stroke-miterlimit="10" d="M274,172c-0.3,1-0.8,1.7-1.7,2c4-10.2,9-3.1,15.7-1.7
		c9.4,1.9,7.5-4.8,16-6.3c3-0.5,12.5,2.5,15.8,2.8c4.1,0.4,9.7,1.5,15.2,2.3c2.4,0.3,3.5-3.2,6-2.9c3.5,0.4,6.4,4.3,10,4.9
		c3.2,0.6,12.7,0.2,16.2-0.3c3.2-0.4,5.6-3.7,8.9-3.9c1.9-0.1,5.5,2.8,7.9,3.1c5,0.7,13.7,0.5,18.8-1c-0.8,1.1-1.7,2.1-2.8,2.9"/>
	<path fill="none" stroke="#A67C52" stroke-miterlimit="10" d="M277,198c6.4-2.1,13.5,2.5,20,2.8c7.1,0.3,13.7-3.7,20.2-3.7
		c5.2,0,12.6,5.3,17.8,4.9c6-0.4,12.2-4.8,19.1-4.1c7.8,0.8,10.9,1.2,18,0.7c1.3-0.1,2.3,3.2,4,3.5c1.6,0.2,2.7-2.3,3.9-2
		c2.6,0.6,5.3,3.2,8,2.9c3.4-0.3,4.8-3.9,9-4.1c2.3-0.1,4.2,3.8,7,4.2c1.7,0.2,1.9-3.8,3.7-3.7c2.6,0.1,3.1,2.2,5.2,2.5
		c4.8,0.6,7.5-2.1,10,4.1"/>
	<path fill="none" stroke="#A67C52" stroke-miterlimit="10" d="M564,198c3.9,0,16.4,0.4,19-1"/>
	<path fill="none" stroke="#A67C52" stroke-miterlimit="10" d="M278,230c-1.2,1.9-2.6,2.3-1.8,4.8c6.6-0.6,9.4-5.7,16.6-4.9
		c2.4,0.3,4.1,3.9,7.2,4.1c4,0.3,6.5-4.5,10.6-4.9c5.8-0.5,9.4,3.6,14.4,4.2c-1.8-0.2,8.8-3.2,7.8-2.9c1.8-0.5,5.7,1.4,8.4,0.7
		c3.7-1,4.2-4.7,8.8-5.2c2.4-0.2,4.6,3.1,7,3.1c2.3,0,5.6-1.9,7-1.8c3.4,0.2,5.5,1.2,9.3,1.6c2.8,0.3,4.7,1.5,7.7,1.2
		c2.8-0.3,4.7-4.4,7-4.1c8.4,1,9.5,12.4,18,1.1c6.9,5,10.3,8.1,17,0.9c3.7,5.3,23.6,7,29,5.2c1,0,1.3,0.7,0.9,1.9"/>
	<path fill="none" stroke="#A67C52" stroke-miterlimit="10" d="M261,276c2.9,0.8,7,4.3,9.9,4.1c2.6-0.2,4.6-4.8,7-5
		c4.5-0.3,7.1,4.1,11.1,3.9c4.9-0.3,4.8-4.2,8.9-5.1c5.5-1.2,9.1,1.9,14.1,2.9c4.2,0.8,7.9,1.5,12.5,1.2c6.2-0.5,8.9-3.5,14.7-4.8
		c7.4-1.6,19.8,1.3,27.8,1.8c9.6,0.6,16.2,0.8,26,0c10-0.8,19.5,1.9,28.9,2c9.1,0.1,15.6-0.6,24,1c10.3,2,17-0.1,27-1
		c1.4-0.1,6.9,0,6,0"/>
	<path fill="none" stroke="#A67C52" stroke-miterlimit="10" d="M257,296c17.9-6.8,42.9,1.4,61,4c20.3,3,45,5.1,63.8-1
		c6.6-2.2,17.2-2.6,24.2-2c5.7,0.5,10.4,3.8,16.3,4.1c5,0.3,10.8-1,15.8-0.7c16.5,1,34.3-1.8,51.7,1.5c22.6,4.3,48.5,0.2,71.2,1.2
		c6.3,0.3,9.9,1.2,16,0.9c8-0.4,13.5-1.5,21.1-3.3c7.9-1.8,34.2-1.5,38.9,1.3"/>
	<path fill="none" stroke="#A67C52" stroke-miterlimit="10" d="M231,329c3.3-2.8,7.3-1,12-2c6.1-1.3,10.7-3.6,16.7-4.2
		c4.5-0.5,10.2-1.2,14.2-1.6c7.3-0.7,10.4,2.6,17.1,2.8c5.4,0.2,7.6-3.8,12.7-3.4c3.2,0.3,5.3,4.5,8.3,5.2c2.3,0.5,5.1-0.9,6.9-0.6
		c9.9,1.5,18.5,0,28,0.1c17.3,0,35.9,0.3,52.9,2.7c5,0.7,10.6,3.1,15.8,1.9c7.6-1.8,8.6-5.4,17.2-4.8c3.9,0.3,7.9,1,12,1.1
		c7.8,0.1,9.8,3.1,17,4.8c6.3,1.5,12-2.2,18-2.8c6.3-0.7,13.2,0.5,19.2,2.2c3.7,1.1,6.8,4.3,10.8,3.8c4.7-0.5,8.8-5.9,13.8-6.9
		c6.1-1.2,12,0.9,18.2,0.8c13.3-0.3,26.5-3,40-4c11.7-0.9,27.3,1,37,1"/>
	<path fill="none" stroke="#A67C52" stroke-miterlimit="10" d="M243,354c9.7,1.3,23.8-4.6,34.9-5c13.1-0.5,27.3,1.2,40.1,3
		c7.3,1,14.9,0,23,0c6.9,0,10.7-0.7,17.4-2.1c8.5-1.7,10.7,1.8,18.5,2.8c17.2,2.4,32.3-1.5,49.1,0c20.2,1.8,41.1,2.4,60.9,4.3
		c15.8,1.5,30.1-1.7,46-1"/>
	<path fill="none" stroke="#A67C52" stroke-miterlimit="10" d="M587,354c6.2-1.7,12,1.3,18,0c4.4-0.9,5.8-4.7,9.8-6.1
		c3.5-1.2,5.1,0.5,8.2,0.2c13.1-1.3,23.9-0.1,37-0.1"/>
	<g>
		<path fill="#EFD9B4" d="M566,18c19,22,45,46,71,60c0-1-1-4-1-5c1,0,3,0,3,1c0-1-1-3-1-4c1,0,3,0,3,0c0-1-2-3-3-4c2-1,4,1,5,0
			s-2-4-3-5c3,0,5,0,8,1c-22-14-54.3-52-61-60c-2,5-2,2-4,4c-1,0,1,4,1,5c-2,0-5-2-7-3l3,3c-4,2-4,0-7-1c0,2,1,5,1,7c-1,0-7-1-8-1"
			/>
	</g>
	<g>
		<path fill="#EFD9B4" d="M305,21c-19,22-45,46-71,60c0-1,1-4,1-5c-1,0-3,0-3,1c0-1,1-3,1-4c-1,0-3,0-3,0c0-1,2-3,3-4c-2-1-4,1-5,0
			s2-4,3-5c-3,0-5,0-8,1c22-14,54.3-52,61-60c2,5,2,2,4,4c1,0-1,4-1,5c2,0,5-2,7-3l-3,3c4,2,4,0,7-1c0,2-1,5-1,7c1,0,7-1,8-1"/>
	</g>
</g>
<g id="Capa_5">
	<g>
		<g>
			<path fill="#00A99D" d="M627.5,260c-1.3,11.6-10.3,10.9-8.5-1.7c0.1-3.4-0.4-5.6-1.2-7.1c0,0,0,0,0,0c-2.2-4.5-6.7-3.5-4.2-15.3
				c0.2,0.2,0.4,0.3,0.6,0.5c-0.8,11.5,4.6,11.1,13.3,18.1C627.7,256.6,627.7,258.4,627.5,260z"/>
		</g>
		<g>
			<path fill="#068E7D" d="M627.5,260c-4-0.9-6.7-5.3-9.3-8.3c-0.1-0.2-0.3-0.3-0.4-0.5c0,0,0,0,0,0c-2.2-4.5-6.7-3.5-4.2-15.3
				c-0.1-0.8,1.2-2.8,1.4-2.6c-0.8,11.5,3.9,14.2,12.5,21.2C627.7,256.6,627.7,258.4,627.5,260z"/>
		</g>
		<g>
			<path fill="#00A99D" d="M656,280.3L656,280.3c0,0-0.2,0-0.3,0c-3,1.2-5.7-0.8-7.4-2.5c-0.7-0.7-1.2-1.3-1.5-1.8
				c0.1-1.5,0-2.8-0.1-4c-0.5-4.3-2-7-3.9-11.1c-0.3-5.8,0.4-11-2.2-15.9c0.1,0.2,0.2,0.4,0.3,0.6c0,0,0,0,0,0.1
				c2,3.7,5,9.2,6.5,15.2C649.4,269,658,277,656,280.3z"/>
		</g>
		<g>
			<path fill="#068E7D" d="M655.6,280.3c-3,1.2-5.6-0.8-7.3-2.5c-0.4,0.3-0.9,0.6-1.5,0.7c-1.5,0.4-3.7-2.5-5.8-5.8
				c1-2.8,3.3-3,5.5-0.9c0,0,0.1,0.1,0.1,0.1c1.1,1,1.8,2.1,2.7,3.2c0.8,1,1.6,1.9,2.7,2.7C653.3,278.7,654.5,279.5,655.6,280.3z"/>
		</g>
		<g>
			<path fill="#00A99D" d="M649.3,275.2c0,1.1-0.3,1.9-1.1,2.5c-0.4,0.3-0.9,0.6-1.5,0.7c-1.5,0.4-3.7-2.5-5.8-5.8
				c-2.4-3.9-4.7-8.5-5.5-9c-2.3-1.6-3.7-2.5-5.3-3.8c-0.2-0.1-0.3-0.3-0.5-0.4c-0.4-0.3-0.7-0.6-1.1-0.9c-0.3-0.2-0.6-0.5-0.9-0.7
				c-0.2-0.1-0.4-0.3-0.6-0.4c-0.4-0.4-0.9-0.7-1.3-1.1c-6.6-5.4-12.1-11-11.5-20c0-0.6,0.1-1.2,0.2-1.8c-0.3,0.4-0.6,0.9-0.8,1.3
				c-0.3-0.2-16.1-4.9-21.6-6.4c5-10.2,11.7-19.4,23.1-29.3c10.1,16.8,15.1,24.3,23.8,41.3c0.2,0.5,0.6,1.3,1.2,2.3
				c0.2,0.3,0.3,0.6,0.5,1c0.1,0.2,0.2,0.5,0.3,0.7c0,0,0,0,0,0.1c2.2,4.7,2.4,9.6,3.8,15C645.7,264.7,649.5,271.2,649.3,275.2z"/>
		</g>
		<g display="none">
			<g display="inline">
				<path fill="#068E7D" d="M614.3,234.6c-1.3,10.3,5.2,17,12.7,23c0.1,0.1,0.2,0,0.1-0.1c-7.4-6-13.9-12.6-12.6-22.9
					C614.6,234.5,614.4,234.5,614.3,234.6L614.3,234.6z"/>
			</g>
		</g>
		<g>
			<path fill="#00A99D" d="M646.8,278.5"/>
			<g>
				<path fill="#00776B" d="M646.7,278.6c0.1,0,0.1-0.2,0-0.2C646.6,278.4,646.6,278.6,646.7,278.6L646.7,278.6z"/>
			</g>
		</g>
		<g>
			<path fill="#00A99D" d="M644.7,260.7"/>
			<g>
				<path fill="#00776B" d="M644.7,260.8c0.1,0,0.1-0.2,0-0.2C644.6,260.6,644.6,260.8,644.7,260.8L644.7,260.8z"/>
			</g>
		</g>
		<g>
			<path fill="#00A99D" d="M640.6,244.9"/>
			<g>
				<path fill="#00776B" d="M640.5,245c0.1,0,0.1-0.2,0-0.2C640.4,244.9,640.4,245,640.5,245L640.5,245z"/>
			</g>
		</g>
		<g>
			<path fill="#00A99D" d="M638.8,241.6"/>
			<g>
				<path fill="#00776B" d="M638.8,241.7c0.1,0,0.1-0.2,0-0.2C638.7,241.5,638.7,241.7,638.8,241.7L638.8,241.7z"/>
			</g>
		</g>
	</g>
	<g>
		<g>
			<path fill="#6990B2" d="M408.7,155.9c-0.1,1.2,1.1,2.4,4.6,3.6l0.3-1.2c-0.5-0.1-0.9-0.3-1.3-0.4c-0.6-0.2-1-0.4-1.5-0.6
				c-0.8-0.4-1.4-0.8-1.9-1.2c0,0,0,0,0,0C408.8,156,408.7,155.9,408.7,155.9z"/>
		</g>
		<g>
			<g>
				<g>
					<path fill="#087773" stroke="#087773" stroke-width="0.1593" stroke-miterlimit="10" d="M542.5,95c-0.3-0.1-0.7,0.4-1.2,1.1
						c-0.3,0.4-0.6,0.8-0.9,1.2c-0.3,0.5-0.7,0.9-1,1.4c-0.4,0.5-0.7,0.9-1,1.3c-0.3,0.4-0.7,0.8-0.9,1.1c-0.6,0.6-0.9,1.1-0.9,1.1
						c-1.1,1.3-1.7,2.6-1.2,3.2c0.5,0.6,2.1,0.1,3.3-1.4c0,0,0.4-0.5,0.9-1.3c0.2-0.4,0.5-0.9,0.8-1.4c0.3-0.5,0.6-1.1,0.9-1.6
						c0.2-0.6,0.5-1.1,0.7-1.7c0.2-0.6,0.3-1.1,0.4-1.5C542.7,95.8,542.7,95.1,542.5,95z"/>
				</g>
			</g>
		</g>
		<g>
			<g>
				<g>
					<path fill="#087773" stroke="#087773" stroke-width="0.1593" stroke-miterlimit="10" d="M557.6,109.2c-0.3-0.1-0.6,0.5-1.1,1.4
						c-0.2,0.4-0.5,1-0.7,1.5c-0.3,0.6-0.6,1.1-0.9,1.7c-0.3,0.6-0.6,1.1-0.9,1.6c-0.3,0.5-0.6,1-0.9,1.3c-0.6,0.8-0.9,1.2-0.9,1.2
						c-1.1,1.5-1.8,3-1.3,3.6c0.5,0.6,2.3-0.1,3.6-1.9c0,0,0.4-0.6,1-1.5c0.2-0.5,0.5-1,0.8-1.6c0.3-0.6,0.5-1.3,0.8-1.9
						c0.2-0.7,0.4-1.3,0.6-2c0.1-0.6,0.2-1.2,0.3-1.8C557.9,110,557.8,109.3,557.6,109.2z"/>
				</g>
			</g>
		</g>
		<g>
			<g>
				<g>
					<path fill="#087773" stroke="#087773" stroke-width="0.1593" stroke-miterlimit="10" d="M563.9,119.1c-0.3-0.1-0.7,0.3-1.3,1
						c-0.3,0.3-0.6,0.8-0.9,1.2c-0.4,0.5-0.7,0.9-1,1.4c-0.4,0.5-0.7,0.9-1,1.4c-0.3,0.4-0.7,0.8-0.9,1.1c-0.5,0.7-0.9,1.1-0.9,1.1
						c-1.1,1.3-1.5,2.8-0.9,3.3c0.6,0.5,2-0.1,3.2-1.6c0,0,0.3-0.5,0.8-1.3c0.2-0.4,0.5-0.8,0.8-1.3c0.3-0.5,0.5-1,0.8-1.6
						c0.3-0.5,0.5-1.1,0.8-1.6c0.2-0.5,0.4-1,0.5-1.5C564.1,119.9,564.1,119.2,563.9,119.1z"/>
				</g>
			</g>
		</g>
		<g>
			<g>
				<g>
					<path fill="#087773" stroke="#087773" stroke-width="0.1593" stroke-miterlimit="10" d="M506,98c-0.3-0.1-0.6,0.4-1,1.1
						c-0.2,0.4-0.3,0.8-0.5,1.3c-0.1,0.5-0.2,1.1-0.3,1.6c-0.1,0.6-0.1,1.1-0.1,1.7c0.1,0.5,0.1,1,0.1,1.5c0.2,0.8,0.3,1.4,0.3,1.4
						c0.6,1.7,1.9,2.5,2.6,2.1c0.7-0.5,0.6-1.7,0.2-3c0,0-0.1-0.4-0.4-1.1c-0.1-0.3-0.2-0.7-0.3-1.1c-0.1-0.4-0.1-0.9-0.2-1.4
						c0-0.5-0.1-1-0.1-1.4c0-0.5,0-0.9,0-1.3C506.4,98.7,506.3,98.1,506,98z"/>
				</g>
			</g>
		</g>
		<g>
			<g>
				<g>
					<path fill="#087773" stroke="#087773" stroke-width="0.1593" stroke-miterlimit="10" d="M480.4,114.3c-0.5,0.2-0.3,2.1,0.7,3.9
						c0.5,0.9,1.1,1.7,1.7,2.2c0.6,0.5,1.1,0.8,1.1,0.8c0.7,0.4,1.6,0.5,2.2,0.4c0.6-0.1,0.9-0.6,0.9-0.9c0-0.4-0.3-0.7-0.5-1.1
						c-0.3-0.3-0.6-0.6-1.1-0.8c0,0-0.3-0.1-0.8-0.5c-0.5-0.3-1.1-0.8-1.6-1.4C481.8,115.7,480.9,114.1,480.4,114.3z"/>
				</g>
			</g>
		</g>
		<path fill="#4FBA8E" d="M498.5,275.8c0.2,0.4,0.3,0.9,0.5,1.3c0.5,0.8,0.8,1.5,1.3,2.3c0.4,0.7,0.8,1.4,1.3,2
			c0.6,1,1.3,1.8,1.9,2.7c6.5,8.6,15.6,14.9,25.5,17.8c1.2,0.4,2.5,0.7,3.7,0.9c0.4,0.1,0.8,0.2,1.2,0.2c0.1,0,0.3,0.1,0.4,0.1
			c0.5,0.1,1,0.1,1.4,0.2c0.1,0,0.1,0,0.1,0c0.4,0.1,0.8,0.1,1.3,0.1c0.4,0,0.7,0.1,1.1,0.1c0.8,0.1,1.7,0.1,2.5,0.1
			c0.7,0,1.4,0,2.1,0c0.6,0,1.1-0.1,1.7-0.1c0.5,0,0.9-0.1,1.4-0.2c0.3,0,0.5-0.1,0.8-0.1c0.5-0.1,0.9-0.1,1.4-0.2
			c0.6-0.1,1.2-0.2,1.7-0.4c0.5-0.1,1.1-0.3,1.6-0.4c0,0,0.1,0,0.2,0c0.5-0.2,1.1-0.3,1.7-0.5c0.6-0.2,1.1-0.4,1.7-0.6
			c0.6-0.2,1.1-0.5,1.7-0.7c0.7-0.3,1.5-0.7,2.2-1.1c2.2-1.2,4.2-2.5,5.9-4c1.7-1.4,3.3-2.9,4.7-4.6c9.5-11.4,10.6-28,5.3-44.4
			c-3.3-10.3-7.9-29-10.5-43.4c-0.1-0.4-0.1-0.8-0.2-1.2c-0.1-0.7-0.2-1.5-0.4-2.2c-0.5-3-0.9-5.7-1.1-8
			c-1.5-14.7-0.4-30.8,0.4-45.6c0.4-7.2-4.1-19.9-7.3-25.8c-5.5-10.2-15.6-17.8-27.6-20c-1.8-0.3-3.6-0.5-5.5-0.6
			c-4.5,0.3-9.2,1.3-13.8,3.1c-10.5,4.2-18.2,7.6-26.2,22.2c-0.4,0.6-0.7,1.3-1,2c-0.3,0.6-0.6,1.1-0.8,1.7
			c-0.6,1.2-1.1,2.4-1.7,3.6c-8.1,18.1-7.7,44.4-5.2,65.1c0.8,6.6,1.8,12.9,3.1,18.9c0.1,0.7,0.3,1.4,0.4,2.1
			c0.2,1.2,0.8,2.2,1.1,3.3c1.3,5.7,2.4,11.4,4.6,16.2l0,0C487.4,254.2,493.4,267,498.5,275.8z"/>
		<path fill="#4EDD70" d="M556.9,290.3c-0.7,1.2-1.6,2.3-2.5,3.3c-1.4,1.6-2.9,3.2-4.6,4.6c-1.8,1.5-3.8,2.8-6,4c-1,0.5-2,1-3,1.4
			c-4,0-8-0.6-11.9-1.8c-9.8-2.9-18.9-9.3-25.5-17.8c-7.8-10.2-19.2-33.6-26-65.7c-0.2-0.7-0.3-1.4-0.4-2.1
			c-1.2-6-2.2-12.3-3.1-18.9c-0.8-6.4-1.4-13.4-1.6-20.5c-0.1-2.5-0.1-5.1,0-7.6c0.2-7.5,0.8-14.9,2.1-21.8
			c0.8-4.2,1.9-8.1,3.3-11.8c0.4-1.1,0.9-2.3,1.4-3.4c0.5-1.2,1.1-2.5,1.7-3.6c0.3-0.6,0.6-1.1,0.8-1.7c0.3-0.7,0.7-1.3,1-2
			c8-14.6,15.6-18,26.2-22.2c4.6-1.8,9.2-2.8,13.8-3.1c1.9,0.1,3.7,0.3,5.5,0.6c6.8,3.6,12.5,9.2,16.1,16c3.2,5.9,4.9,12.8,4.5,20
			c0,0,0,0.1,0,0.1c-0.2,3.8-0.5,8.5-0.7,13.6c-0.1,2.5-0.3,5.1-0.4,7.8c-0.4,8.7-0.6,17.9-0.5,25.7c0.1,4.2,0.2,8,0.6,11.1
			c0.3,2.3,0.6,5.1,1.1,8c0.1,0.7,0.3,1.4,0.4,2.1c0.6,3.6,1.4,7.5,2.2,11.5c-0.3,0.3-0.6,0.6-0.9,1c0,0-8.4,51.1,0.7,65.6
			C553.1,285.9,555,288.4,556.9,290.3z"/>
		<g>
			<path fill="#6E95B7" d="M563,161c-4.3-2-9.6-3-15.4-3.3c0.1-2.7,0.2-5.3,0.4-7.8c0.3-5.2,0.5-9.8,0.7-13.6
				c6.3,1.1,12.3,2.3,13.2,2.8C562.9,146.5,563.3,153.9,563,161z"/>
		</g>
		<g>
			<path fill="#7DA6D3" d="M548.7,136.3c-0.2,3.8-0.5,8.5-0.7,13.6c-0.1,2.5-0.3,5.1-0.4,7.8c-17.5-1-39.9,4.6-57.7,11.3
				c-6.7,2.5-12.7,5.2-17.5,7.7c-0.5,0.2-0.9,0.5-1.3,0.7c0,0-3.7-7.8-4.4-16c-1-12.4,0.7-25.6,11-25.9c0.8,0,1.8,0,2.8,0.2
				c1.7,0.3,3.7,0.1,5.4,0c0.7,0,1.3,0,1.9,0c1.4-0.7,26.1-2.8,45-2C534.2,133.8,541.7,135,548.7,136.3z"/>
		</g>
		<g>
			<path fill="#6187A3" d="M471.9,178.4c0,0-3.2-5.8-4.1-14c-1.4-13.4-0.3-26.6,12.5-24.8C482.7,139.9,485.5,170.3,471.9,178.4z"/>
		</g>
		<g>
			<g>
				<path fill="#9EB7CC" d="M566.9,217.1c0.3,0,0.3-0.5,0-0.5C566.6,216.7,566.6,217.1,566.9,217.1L566.9,217.1z"/>
			</g>
		</g>
		<g>
			<g>
				<path fill="#9EB7CC" d="M556.4,204.4c0.3,0,0.3-0.5,0-0.5S556.1,204.4,556.4,204.4L556.4,204.4z"/>
			</g>
		</g>
		<g>
			<path fill="#FFFFFF" d="M492.3,264.3c2,4.4,4,8.3,5.9,11.6c0.2,0.4,0.5,0.8,0.7,1.2c0.5,0.8,0.9,1.5,1.4,2.2
				c0.4,0.7,0.9,1.4,1.3,2c0.6,1,1.3,1.8,1.9,2.6c6.5,8.6,15.6,14.9,25.5,17.8c1.2,0.4,2.5,0.7,3.7,0.9c0.4,0.1,0.8,0.2,1.2,0.2
				c0.1,0,0.3,0.1,0.4,0.1c0.5,0.1,1,0.1,1.4,0.2c0.1,0,0.1,0,0.1,0c0.4,0.1,0.8,0.1,1.3,0.1c0.4,0,0.7,0.1,1.1,0.1
				c0.8,0.1,1.7,0.1,2.5,0.1c0.7,0,1.4,0,2.1,0c0.6,0,1.1-0.1,1.7-0.1c0.5,0,0.9-0.1,1.4-0.2c0.3,0,0.5-0.1,0.8-0.1
				c0.5-0.1,0.9-0.1,1.4-0.2c0.6-0.1,1.2-0.2,1.7-0.4c0.5-0.1,1.1-0.3,1.6-0.4c0,0,0.1,0,0.2,0c0.5-0.2,1.1-0.3,1.7-0.5
				c0.6-0.2,1.1-0.4,1.7-0.6c0.6-0.2,1.1-0.5,1.7-0.7c0.7-0.3,1.5-0.7,2.2-1.1c2.2-1.2,4.2-2.5,5.9-4c1.7-1.4,3.3-2.9,4.7-4.6
				c9.5-11.4,10.6-28,5.3-44.4c-3.3-10.3-7.9-29-10.5-43.4c-14.8,3.3-61.3,13.3-86.8,15.4c0.2,1.2,0.5,2.3,0.8,3.5
				c1.3,5.7,2.7,11.2,4.3,16.3c0,0,0,0,0,0C485.5,248.2,488.9,257,492.3,264.3z"/>
		</g>
		<g>
			<g>
				<path fill="#9EB7CC" d="M565.1,206.9c-13.3,5.1-27.4,8.5-41.3,11.8c-14.5,3.5-29.4,7.1-44.3,8.1c-0.3,0-0.3,0.5,0,0.5
					c14.5-1,29-4.5,43.1-7.8c14.3-3.4,28.8-6.9,42.6-12.1C565.5,207.3,565.4,206.8,565.1,206.9L565.1,206.9z"/>
			</g>
		</g>
		<g>
			<g>
				<g>
					<path fill="#087773" stroke="#087773" stroke-width="0.1593" stroke-miterlimit="10" d="M474.8,117.4c-0.3,0.1-0.1,0.9,0.3,2
						c0.2,0.6,0.5,1.2,0.8,1.9c0.3,0.7,0.7,1.3,1.1,2c0.8,1.4,1.7,2.7,2.5,3.6c0.4,0.5,0.7,0.9,0.9,1.1c0.2,0.3,0.4,0.4,0.4,0.4
						c0.4,0.4,0.8,0.8,1.3,1.1c0.4,0.3,0.8,0.6,1.2,0.7c0.8,0.3,1.4,0.3,1.6,0c0.2-0.3,0.1-0.9-0.3-1.5c-0.2-0.3-0.4-0.7-0.7-1.1
						c-0.3-0.4-0.6-0.8-1-1.2c0,0-0.1-0.1-0.4-0.4c-0.2-0.2-0.6-0.5-0.9-1c-0.8-0.8-1.7-2-2.7-3.1c-0.5-0.6-0.9-1.2-1.4-1.7
						c-0.4-0.6-0.8-1.1-1.2-1.5C475.6,117.9,475.1,117.3,474.8,117.4z"/>
				</g>
			</g>
		</g>
		<g>
			<g>
				<g>
					<path fill="#087773" stroke="#087773" stroke-width="0.1593" stroke-miterlimit="10" d="M491.6,103.5c-0.3,0-0.5,0.7-0.6,1.8
						c0,0.5,0,1.2,0,1.9c0,0.7,0.1,1.4,0.2,2.1c0.3,2.9,1.3,5.7,1.3,5.7c0.2,0.5,0.4,1,0.7,1.4c0.3,0.4,0.5,0.8,0.8,1
						c0.6,0.5,1.1,0.7,1.5,0.5c0.3-0.2,0.4-0.8,0.3-1.5c-0.1-0.3-0.1-0.8-0.2-1.2c-0.1-0.4-0.3-0.9-0.4-1.3c0,0-1-2.5-1.8-5.1
						c-0.2-0.6-0.4-1.3-0.5-1.9c-0.2-0.6-0.3-1.2-0.5-1.7C492.2,104.2,491.9,103.5,491.6,103.5z"/>
				</g>
			</g>
		</g>
		<g>
			<g>
				<g>
					<path fill="#087773" stroke="#087773" stroke-width="0.1593" stroke-miterlimit="10" d="M492.7,125c-0.5,0.3,0.2,1.8,1.2,3
						c1,1.2,2.4,2.2,2.4,2.2c1.1,0.7,2.4,0.4,2.5-0.4c0.2-0.8-0.3-1.6-1.1-2.1c0,0-1.2-0.6-2.3-1.4
						C494.3,125.6,493.2,124.7,492.7,125z"/>
				</g>
			</g>
		</g>
		<g>
			<g>
				<g>
					<path fill="#087773" stroke="#087773" stroke-width="0.1593" stroke-miterlimit="10" d="M504.1,106.2c-0.3,0-0.6,0.5-0.9,1.4
						c-0.1,0.4-0.2,0.9-0.4,1.5c-0.1,0.6-0.1,1.2-0.2,1.8c0,0.6,0,1.2,0,1.8c0,0.6,0.1,1.1,0.1,1.5c0.1,0.9,0.2,1.5,0.2,1.5
						c0.3,1.8,1.4,3,2.2,2.8c0.8-0.3,0.9-1.7,0.6-3.3c0,0-0.1-0.5-0.3-1.3c-0.1-0.4-0.2-0.9-0.2-1.4c-0.1-0.5-0.1-1-0.2-1.6
						c-0.1-0.5-0.1-1.1-0.2-1.6c0-0.5-0.1-1-0.1-1.4C504.5,106.8,504.4,106.2,504.1,106.2z"/>
				</g>
			</g>
		</g>
		<g>
			<g>
				<g>
					<path fill="#087773" stroke="#087773" stroke-width="0.1593" stroke-miterlimit="10" d="M515.4,92.6c-0.3,0.1-0.4,0.7-0.5,1.5
						c0,0.4,0,0.9,0,1.5c0,0.6,0,1.1-0.1,1.7c0,0.6,0,1.1,0,1.7c0,0.5-0.1,1-0.1,1.4c0,0.9-0.1,1.4-0.1,1.4
						c-0.1,1.7,0.4,3.1,1.1,3.2c0.8,0.1,1.6-1.3,1.7-3.1c0,0,0-0.6-0.1-1.5c0-0.4,0-1-0.1-1.5c-0.1-0.6-0.2-1.2-0.3-1.8
						c-0.1-0.6-0.2-1.2-0.3-1.7c-0.2-0.5-0.3-1-0.5-1.5C516,93.1,515.6,92.5,515.4,92.6z"/>
				</g>
			</g>
		</g>
		<g>
			<g>
				<g>
					<path fill="#087773" stroke="#087773" stroke-width="0.1593" stroke-miterlimit="10" d="M532.1,93.3c-0.2-0.2-0.8,0.1-1.7,0.7
						c-0.4,0.3-0.8,0.8-1.3,1.2c-0.4,0.5-0.8,1-1.3,1.6c-0.4,0.6-0.7,1.2-1.1,1.8c-0.3,0.6-0.5,1.2-0.7,1.6c-0.3,1-0.5,1.7-0.5,1.7
						c-0.5,2.1,0.2,3.9,1,3.9c0.8,0,1.4-1.5,1.8-3.2c0,0,0.1-0.6,0.3-1.5c0.1-0.4,0.3-0.9,0.5-1.5c0.2-0.5,0.4-1.1,0.7-1.7
						c0.3-0.5,0.5-1.1,0.8-1.6c0.3-0.5,0.6-1,0.8-1.4C532,94.2,532.3,93.5,532.1,93.3z"/>
				</g>
			</g>
		</g>
		<g>
			<g>
				<g>
					<path fill="#087773" stroke="#087773" stroke-width="0.1593" stroke-miterlimit="10" d="M529.7,104.6c-1.1-0.3-3.3,6.8-3.3,6.8
						c-0.4,1.4,0,2.6,0.7,2.8c0.8,0.2,1.7-0.8,2.1-2.1C529.2,112.1,530.8,105,529.7,104.6z"/>
				</g>
			</g>
		</g>
		<g>
			<g>
				<g>
					<path fill="#087773" stroke="#087773" stroke-width="0.1593" stroke-miterlimit="10" d="M515.9,115.3c-0.3-0.1-0.7,0.3-1.2,1
						c-0.2,0.4-0.4,0.8-0.6,1.3c-0.2,0.5-0.3,1.1-0.4,1.7c0,0.6,0,1.2,0,1.8c0.1,0.6,0.2,1.1,0.3,1.5c0.3,0.9,0.6,1.4,0.6,1.4
						c1,1.6,2.5,2.1,3,1.6c0.6-0.6,0.2-1.8-0.5-3c0,0-0.2-0.4-0.5-1c-0.1-0.3-0.2-0.7-0.4-1.1c-0.1-0.4-0.2-0.8-0.2-1.3
						c0-0.5-0.1-0.9,0-1.4c0-0.4,0-0.9,0.1-1.3C516.2,116,516.2,115.5,515.9,115.3z"/>
				</g>
			</g>
		</g>
		<g>
			<g>
				<g>
					<path fill="#087773" stroke="#087773" stroke-width="0.1593" stroke-miterlimit="10" d="M553.7,103c-0.3-0.1-0.7,0.3-1.1,0.9
						c-0.3,0.3-0.6,0.7-0.8,1c-0.3,0.4-0.7,0.8-1,1.1c-0.4,0.4-0.7,0.7-1,1.1c-0.3,0.3-0.7,0.6-0.9,0.9c-0.6,0.5-1,0.8-1,0.8
						c-1.1,0.9-1.8,2-1.5,2.8c0.4,0.7,1.9,0.6,3.3-0.6c0,0,0.4-0.4,1-1c0.3-0.3,0.6-0.7,0.9-1.1c0.3-0.4,0.6-0.9,0.9-1.4
						c0.3-0.5,0.5-1,0.8-1.5c0.2-0.5,0.3-1,0.5-1.4C554,103.7,554,103.1,553.7,103z"/>
				</g>
			</g>
		</g>
		<g>
			<g>
				<g>
					<path fill="#087773" stroke="#087773" stroke-width="0.1593" stroke-miterlimit="10" d="M559.5,122.2c-0.2-0.1-0.7,0.2-1.3,0.6
						c-0.3,0.2-0.6,0.5-1,0.8c-0.4,0.3-0.8,0.6-1.1,0.9c-0.4,0.3-0.8,0.5-1.1,0.8c-0.4,0.2-0.7,0.4-1,0.6c-0.6,0.3-1,0.5-1,0.5
						c-1.2,0.6-2.2,1.5-2,2.3c0.2,0.8,1.7,1.1,3.2,0.3c0,0,0.5-0.3,1.2-0.7c0.3-0.2,0.7-0.5,1.1-0.9c0.4-0.3,0.8-0.7,1.2-1.1
						c0.4-0.4,0.7-0.9,1-1.3c0.3-0.4,0.5-0.9,0.7-1.2C559.6,122.9,559.7,122.4,559.5,122.2z"/>
				</g>
			</g>
		</g>
		<g>
			<g>
				<g>
					<path fill="#087773" stroke="#087773" stroke-width="0.1593" stroke-miterlimit="10" d="M539.3,115c-0.5-0.2-1.3,0.8-2.1,1.8
						c-0.4,0.6-0.7,1-1,1.4c-0.3,0.4-0.4,0.6-0.4,0.6c-0.5,0.7-0.3,1.7,0.3,2.2c0.6,0.5,1.6,0.1,2.2-0.7c0,0,0.1-0.3,0.3-0.7
						c0.2-0.4,0.4-1.1,0.6-1.7C539.7,116.5,539.8,115.2,539.3,115z"/>
				</g>
			</g>
		</g>
		<g>
			<path fill="#00A99D" d="M455.4,167.5c-9-2.4-15.1-4.6-21.3-7.3"/>
		</g>
		<g>
			<path fill="#00A99D" d="M433,159.1c1.5-8.8-1.7-26.3-13.3-15.5"/>
		</g>
		<path fill="#2F7F40" d="M506.5,200.8c0.5,1,0.2,2.2-0.8,2.8c-1,0.5-2.2,0.2-2.8-0.8c-0.5-1-0.2-2.2,0.8-2.8
			C504.7,199.5,506,199.8,506.5,200.8z"/>
		<circle fill="#2F7F40" cx="521.4" cy="205.8" r="2.7"/>
		<path fill="#2F7F40" d="M490.8,181.8c0.3,0.5,0.1,1.2-0.4,1.4c-0.5,0.3-1.2,0.1-1.4-0.4c-0.3-0.5-0.1-1.2,0.4-1.4
			C489.9,181.1,490.5,181.3,490.8,181.8z"/>
		<path fill="#2F7F40" d="M488.7,200.3c1,1.9,0.3,4.2-1.5,5.2c-1.9,1-4.2,0.3-5.2-1.5c-1-1.9-0.3-4.2,1.5-5.2
			C485.4,197.8,487.7,198.5,488.7,200.3z"/>
		<path fill="#2F7F40" d="M517.7,136.1c0.6,1.2,0.2,2.7-1,3.3c-1.2,0.6-2.7,0.2-3.3-1c-0.6-1.2-0.2-2.7,1-3.3
			C515.5,134.5,517,135,517.7,136.1z"/>
		<path fill="#2F7F40" d="M551.5,201.9c0.8,1.4,0.2,3.1-1.2,3.9c-1.4,0.8-3.1,0.2-3.9-1.2c-0.8-1.4-0.2-3.1,1.2-3.9
			C549,200,550.7,200.5,551.5,201.9z"/>
		<circle fill="#2F7F40" cx="548.2" cy="124" r="4.8"/>
		<path fill="#2F7F40" d="M524.8,115.6c0.3,0.6,0.1,1.4-0.5,1.7c-0.6,0.3-1.4,0.1-1.7-0.5c-0.3-0.6-0.1-1.4,0.5-1.7
			C523.7,114.8,524.5,115,524.8,115.6z"/>
		<path fill="#2F7F40" d="M553.1,189.4c0.3,0.6,0.1,1.4-0.5,1.7c-0.6,0.3-1.4,0.1-1.7-0.5c-0.3-0.6-0.1-1.4,0.5-1.7
			C552,188.6,552.8,188.8,553.1,189.4z"/>
		<path fill="#2F7F40" d="M535.4,190.3c0.3,0.6,0.1,1.4-0.5,1.7c-0.6,0.3-1.4,0.1-1.7-0.5c-0.3-0.6-0.1-1.4,0.5-1.7
			C534.3,189.4,535.1,189.7,535.4,190.3z"/>
		<path fill="#2F7F40" d="M498.6,121.8c0.7,1.3,0.2,3-1.1,3.7c-1.3,0.7-3,0.2-3.7-1.1c-0.7-1.3-0.2-3,1.1-3.7
			C496.3,120,497.9,120.5,498.6,121.8z"/>
		<g>
			<path fill="#00A99D" d="M408.7,155.9c0.8,0.8,2.3,1.6,4.8,2.4c0.4,0.1,0.9,0.3,1.4,0.4c3,0.8,6.4-0.3,8.9-2.3c0,0,0,0,0,0
				l-4.4-10.4c-0.6,0.7-2.1,1.6-3.9,2.5C411.6,150.7,406.3,153.3,408.7,155.9z"/>
		</g>
		<g>
			<path fill="#00A99D" d="M401.5,141.3c-4.8,2.8-17.3,6.8-18.1,12.8c-0.9,5.6,4.5,8.2,8.6,10.4c3.4,1.8,4.3-2.6,8.1-3.1"/>
		</g>
		<g>
			<path fill="#00A99D" d="M406,134.6c-4.8,2.8-17.3,6.8-18.1,12.8c-0.9,5.6,4.5,8.2,8.6,10.4c3.4,1.8,4.3-2.6,8.1-3.1"/>
		</g>
		<g>
			<path fill="#00A99D" d="M411.1,133.5"/>
		</g>
		<g>
			<path fill="#00A99D" d="M455.6,167.9c-0.3,9.2-2.7,17.1-7.8,23.8c-0.8,1.1-1.7,2.1-2.7,3.1c-1.6,1.6-3.4,3.2-5.3,4.7
				c0,0-14.5-9.2-20-22.3c0,0-3.3,2.1-5.9,2.2c-8.5,0.1-19.5-7.6-21-16.5c0,0-2.1-10.3-1.7-10.2l0.1,0c0,0,0.4-0.9,1-2.4
				c1.9-4.6,7.1-14.3,12.6-15.8c5.2-1.4,17.4,8.7,17.4,8.7l11.9,17.1L455.6,167.9z"/>
		</g>
		<g>
			<path fill="#068E7D" d="M445.1,194.8c-1.6,1.6-3.4,3.2-5.3,4.7c0,0-14.5-9.2-20-22.3c0,0-3.3,2.1-5.9,2.2
				c-8.5,0.1-19.5-7.6-21-16.5c0,0,0.6,0.1-2.2-3.7l2,1.3c0,0,0.1-2.1,0.7-3.5c5.5,27.7,30.4,16.9,30.4,16.9
				C431.4,190.3,446.1,193.8,445.1,194.8z"/>
		</g>
		<g>
			<path fill="#00A99D" d="M420.7,142c-2.8-2.5-24.5-24.6-28.2-20.6c-0.7,0.8-1.3,2.2-0.3,3.8c2.3,3.8,8.5,8.9,9.3,11.3"/>
		</g>
	</g>
	<g id="Mano_enr">
		<g>
			<path fill="#00A99D" d="M148.8,421.5c8.9-9.1,31.7-19.9,28.9,2.5"/>
		</g>
		<g>
			<path fill="#00A99D" d="M190.6,448.5c0.9,7.9,16,20.1,9.7,26c-5.7,5.7-12.5,5.7-18.4,2.9c-3.6-1.8-0.8-7.2,9.4-7.7
				c0,0-5.2-4-5.2-7.5"/>
		</g>
		<g>
			<path fill="#00A99D" d="M119.9,402.8c-10.3,8-17.4,17.3-20.9,28.8c-0.5,1.8-1,3.7-1.3,5.6c-0.6,3.2-0.9,6.5-0.9,10
				c0,0,22.7,9,42.3,4.4c0,0,0.4,5.6,2.3,8.6c6.9,9.9,50.1,4.3,49.6,3.9l-0.1-0.1c0,0,0.8-1.2,1.9-3.1c3.7-6.1,10.6-20.1,7.7-27.6
				c-2.7-7.1-24.5-12.8-24.5-12.8l-29.5,0.6L119.9,402.8z"/>
		</g>
		<g>
			<path fill="#00A99D" d="M178.8,421.3c5.2,1.1,48.8,7.8,47.2,15.3c-0.3,1.4-1.4,3.3-4.1,3.6c-6.2,0.5-17.3-2.4-20.7-1.3"/>
		</g>
		<g>
			<path fill="#00A99D" d="M186.1,432.3c5.1,1.4,48.2,10.6,46.2,18c-0.4,1.4-1.6,3.2-4.3,3.3c-6.3,0.2-18.7-7.8-41.9-5.1"/>
		</g>
		<g>
			<path fill="#00A99D" d="M175.6,442.9c5.1,1.4,48.2,10.6,46.2,18c-0.4,1.4-1.6,3.2-4.3,3.3c-6.3,0.2-16.2-10.7-39.5-4.1"/>
		</g>
	</g>
	<g>
		<g>
			<g>
				<path fill="#00A99D" d="M649.7,437.1c-2,7.8-8.4,19.9-15.1,25.9h1.3c18,10,37,17.7,62.3,9.6c-6.2-8.5-11.8-20.8-15.2-30.8
					c-0.3-0.9,2.8-2.5,2.4-3.4"/>
			</g>
			<g>
				<path fill="#00A99D" d="M652.3,442.7c-0.2-8.3-11-6.3-14.7-13.9c-4.6-9.4-25.1-14.1-18-20.3c5.8-5.1,17.8,4.5,25.4,4.4
					c3.8-0.1,6.2-2.5,9.2-5.7c7.2-7.4,3.1-36.3,14.6-29.8c8.1,4.6-1.5,20.5,3.3,27.7c10.5-5.6,9.4-27.1,20.7-24.5
					c9.5,2.2-5.8,22-6.9,30.5c8.6-3.2,24-17.3,32.7-11.7c9.5,6.1-22.1,14.4-26.5,23c6.7-0.1,23.7-4,27.8,1.1
					c3.4,4.3-15.2,7.5-27,9.6c-3.1,0.6-5.8,4.9-7.5,5.3"/>
			</g>
		</g>
		<g>
			<g>
				<path fill="#00A99D" d="M472.9,433.3c2,7.8,8.4,20.7,15.1,25.7h-1.3c-18,10-37,17.9-62.3,9.8c6.2-8.5,11.8-20.7,15.2-30.7
					c0.3-0.9-2.8-2.6-2.4-3.4"/>
			</g>
			<g>
				<path fill="#00A99D" d="M470.3,439.1c0.2-8.3,11-6.3,14.7-13.9c4.6-9.4,25.1-14.1,18-20.3c-5.8-5.1-17.8,4.5-25.4,4.4
					c-3.8-0.1-6.2-2.5-9.2-5.7c-7.2-7.4-3.1-36.3-14.6-29.8c-8.1,4.6,1.5,20.5-3.3,27.7c-10.5-5.6-9.4-27.1-20.7-24.5
					c-9.5,2.2,5.8,22,6.9,30.5c-8.6-3.2-24-17.3-32.7-11.7c-9.5,6.1,22.1,14.4,26.5,23c-6.7-0.1-23.7-4-27.8,1.1
					c-3.4,4.3,15.2,7.5,27,9.6c3.1,0.6,5.8,4.9,7.5,5.3"/>
			</g>
		</g>
		<g>
			<path fill="#6990B2" d="M440.8,429.8c-0.1,1.3,1.3,2.6,5.3,3.8l0.3-1.3c-0.5-0.1-1-0.3-1.5-0.4c-0.6-0.2-1.2-0.4-1.7-0.6
				c-1-0.4-1.7-0.8-2.2-1.2c0,0,0,0,0,0C440.9,430,440.8,429.9,440.8,429.8z"/>
		</g>
		<g>
			<g>
				<g>
					<path fill="#087773" stroke="#087773" stroke-width="0.1982" stroke-miterlimit="10" d="M500.8,365.6c-0.2,0.3,0.1,1,0.9,1.9
						c0.4,0.4,0.9,0.9,1.4,1.5c0.6,0.5,1.2,1,1.8,1.5c0.6,0.5,1.3,0.9,1.9,1.3c0.6,0.4,1.2,0.7,1.7,1c1.1,0.5,1.8,0.9,1.8,0.9
						c2.2,0.9,4.3,0.7,4.6-0.3c0.2-1-1.2-2.2-3.2-3c0,0-0.7-0.3-1.7-0.7c-0.5-0.2-1.1-0.5-1.7-0.8c-0.6-0.3-1.3-0.6-1.9-0.9
						c-0.6-0.3-1.3-0.7-1.9-1c-0.6-0.3-1.2-0.7-1.7-0.9C501.8,365.6,501,365.3,500.8,365.6z"/>
				</g>
			</g>
		</g>
		<g>
			<g>
				<g>
					<path fill="#087773" stroke="#087773" stroke-width="0.1982" stroke-miterlimit="10" d="M490.6,388.3c-0.3,0.2,0.1,1,0.8,2.2
						c0.4,0.5,0.8,1.2,1.4,1.8c0.6,0.6,1.2,1.2,1.8,1.9c0.7,0.6,1.3,1.2,2,1.7c0.7,0.5,1.3,0.9,1.9,1.3c1.2,0.7,1.9,1.1,1.9,1.1
						c2.5,1.2,4.8,1,5.1,0.1c0.3-1-1.3-2.3-3.5-3.3c0,0-0.7-0.3-1.8-0.9c-0.5-0.3-1.1-0.6-1.8-1c-0.7-0.4-1.3-0.8-2-1.3
						c-0.6-0.5-1.3-0.9-2-1.4c-0.6-0.5-1.2-0.9-1.7-1.3C491.6,388.6,490.8,388.1,490.6,388.3z"/>
				</g>
			</g>
		</g>
		<g>
			<g>
				<g>
					<path fill="#087773" stroke="#087773" stroke-width="0.1982" stroke-miterlimit="10" d="M488.4,402.1c-0.2,0.3,0.2,0.9,1,1.8
						c0.4,0.4,0.9,0.9,1.4,1.4c0.6,0.5,1.2,0.9,1.8,1.4c0.6,0.5,1.3,0.9,1.9,1.3c0.6,0.4,1.2,0.7,1.7,1c1,0.6,1.7,1,1.7,1
						c2.2,1,4.2,0.9,4.5,0c0.3-0.9-1-2.3-3-3.2c0,0-0.7-0.3-1.7-0.8c-0.5-0.2-1.1-0.5-1.7-0.8c-0.6-0.3-1.3-0.6-1.9-1
						c-0.6-0.3-1.3-0.6-2-0.9c-0.6-0.3-1.2-0.6-1.7-0.8C489.4,402,488.7,401.8,488.4,402.1z"/>
				</g>
			</g>
		</g>
		<g>
			<g>
				<g>
					<path fill="#087773" stroke="#087773" stroke-width="0.1982" stroke-miterlimit="10" d="M545.8,350.8c-0.2,0.2,0,0.9,0.4,1.7
						c0.2,0.4,0.4,0.9,0.7,1.4c0.3,0.5,0.4,1,0.7,1.6c0.2,0.5,0.4,1.1,0.5,1.6c0.1,0.5,0.2,1,0.3,1.4c0.1,0.8,0.2,1.3,0.2,1.3
						c0.1,0.4,0.1,0.8,0.2,1.1c0.1,0.2,0.1,0.3,0.2,0.5c0,0.2,0.1,0.3,0.2,0.5c0.3,0.6,0.7,1,1.2,1.1c0.5,0.1,1-0.2,1.4-0.9
						c0.1-0.2,0.2-0.3,0.3-0.5c0.1-0.2,0.1-0.4,0.1-0.6c0.1-0.5,0.1-1,0-1.5c0,0,0-0.2-0.1-0.5c-0.1-0.3-0.1-0.7-0.3-1.2
						c-0.2-0.5-0.4-1.1-0.7-1.7c-0.3-0.6-0.6-1.2-1-1.7c-0.4-0.5-0.8-1.1-1.2-1.5c-0.4-0.4-0.9-0.9-1.3-1.2
						C546.6,350.8,546,350.6,545.8,350.8z"/>
				</g>
			</g>
		</g>
		<g>
			<g>
				<g>
					<path fill="#087773" stroke="#087773" stroke-width="0.1982" stroke-miterlimit="10" d="M585.2,355.6c-0.7,0.1-0.9,2.2-1.6,4.1
						c-0.3,0.9-0.8,1.7-1.1,2.3c-0.4,0.5-0.7,0.8-0.7,0.8c-0.4,0.5-0.6,1-0.8,1.4c-0.2,0.5-0.3,1-0.1,1.5c0.2,0.4,0.7,0.8,1.4,0.7
						c0.7,0,1.6-0.5,2.3-1.3c0,0,0.4-0.5,0.9-1.4c0.4-0.9,0.8-2.1,0.9-3.3C586.6,357.8,585.8,355.5,585.2,355.6z"/>
				</g>
			</g>
		</g>
		<path fill="#4FBA8E" d="M651.7,538.2c0,0.5,0.3,1.1,0.2,1.6c-0.1,1.1-0.1,2.1-0.3,3.1c-0.1,1-0.2,1.9-0.4,2.8
			c-0.2,1.3-0.5,2.6-0.8,3.8c-3.1,12.4-10.5,23.8-20.5,31.8c-1.3,1-2.6,1.9-3.9,2.8c-0.4,0.3-0.9,0.6-1.3,0.9
			c-0.2,0.1-0.3,0.2-0.5,0.3c-0.5,0.3-1.1,0.6-1.6,0.9c-0.1,0-0.1,0.1-0.2,0.1c-0.5,0.3-0.9,0.5-1.4,0.8c-0.4,0.2-0.8,0.4-1.2,0.6
			c-1,0.5-2,0.9-2.9,1.3c-0.8,0.4-1.7,0.7-2.5,1c-0.7,0.3-1.4,0.5-2.1,0.7c-0.6,0.2-1.2,0.4-1.8,0.5c-0.3,0.1-0.7,0.2-1,0.3
			c-0.6,0.2-1.2,0.3-1.8,0.4c-0.7,0.2-1.5,0.3-2.3,0.5c-0.7,0.1-1.4,0.2-2.2,0.3c-0.1,0-0.1,0-0.2,0c-0.7,0.1-1.5,0.2-2.3,0.3
			c-0.8,0.1-1.6,0.1-2.4,0.2c-0.8,0-1.6,0.1-2.4,0.1c-1,0-2.1,0-3.2-0.1c-3.3-0.2-6.3-0.7-9.3-1.3c-2.8-0.7-5.5-1.5-8-2.6
			c-1.2-0.5-2.4-1.1-3.6-1.8c-1.8-1-3.6-2.1-5.3-3.3c-12.2-8.9-19.5-23.5-21.7-40c-1.2-9-3.9-22.8-7.1-36.1
			c-1.3-5.5-2.7-10.8-4.1-15.7c-0.1-0.5-0.3-0.9-0.4-1.4c-0.3-0.9-0.5-1.7-0.7-2.5c-1.1-3.4-2.1-6.5-3.1-9.2
			c-3-8.1-7-16.2-11.3-24.2c-4.5-8.4-9.4-16.7-14.1-24.6c0,0,0,0,0,0c-4.4-7.6-6-23.4-5.4-31.4c1-13.7,8.9-26.8,21.9-35.1
			c1.9-1.2,4-2.4,6.2-3.4c1.8-0.6,3.6-1.1,5.4-1.6c4-1,8.2-1.7,12.7-1.9c14.8-0.7,25.8-0.8,43.3,11c0.8,0.5,1.5,1,2.3,1.6
			c0.6,0.5,1.3,0.9,1.9,1.4c1.3,1,2.7,2,4,3.1c5,3.9,9.6,8.7,13.8,14c0.5,0.7,1.1,1.3,1.6,2c0.2,0.2,0.3,0.5,0.5,0.7
			c0.1,0.1,0.2,0.3,0.3,0.4c0.2,0.3,0.4,0.5,0.6,0.8c3.5,4.7,6.7,9.8,9.6,15c0.6,1.1,1.3,2.3,1.9,3.4c5.5,10.3,10,21.1,13.5,31
			c2.6,7.5,4.9,14.8,6.7,21.8c0.2,0.8,0.4,1.7,0.6,2.5c0.4,1.4,0,2.8,0.4,4.1c1.6,6.8,3.2,13.4,3.2,19.6v0
			C653,509.4,652.9,526.2,651.7,538.2z"/>
		<path fill="#4EDD70" d="M626.5,551.5c-3.1,12.4-10.5,23.8-20.6,31.8c-4,3.2-8.4,5.8-13.2,7.8c-1.4,0-2.9,0-4.3-0.1
			c-3.3-0.2-6.3-0.6-9.3-1.3c-2.5-0.6-4.9-1.3-7.2-2.3c0,0,0,0-0.1,0l-0.1-0.1l-5-3.2c0,0-0.1,0-0.1-0.1c1.1-2.9,1.9-6.3,2.5-10.4
			c2.3-16.1-22-52.3-31.4-65.7c-1.3-5.5-2.7-10.8-4.1-15.7c-0.1-0.5-0.3-0.9-0.4-1.3c-0.3-0.9-0.5-1.7-0.7-2.5
			c-1.1-3.4-2.1-6.5-3.1-9.2c-3-8.1-7-16.2-11.3-24.2c-4.5-8.4-9.4-16.7-14.1-24.6c0,0,0,0,0,0c-4.4-7.6-6-23.4-5.4-31.4
			c1-13.7,8.9-26.8,21.9-35.1c1.9-1.2,4-2.4,6.2-3.4c1.8-0.6,3.6-1.1,5.4-1.6c9.9,0.3,19.3,2.6,32,11.2c0.8,0.5,1.5,1,2.3,1.6
			c0.6,0.5,1.3,0.9,1.9,1.4c1.3,1,2.7,2,4,3.1c5,3.9,9.6,8.7,13.8,14c2.9,3.7,5.7,7.6,8.3,11.8c2.2,3.4,4.2,7,6.1,10.6
			c2.4,4.4,4.5,8.9,6.5,13.4c2.7,6,5,12,7,17.7c2.6,7.5,4.8,14.8,6.7,21.8c0.2,0.8,0.4,1.7,0.6,2.5c0.4,1.5,0.8,3,1.1,4.5
			C631,508.4,630.1,537.3,626.5,551.5z"/>
		<g>
			<path fill="#6E95B7" d="M624.5,410.6C624.5,410.6,624.5,410.6,624.5,410.6c-0.9,1.5-9.8,9.1-17.4,15.5c-2-4.5-4.1-9-6.5-13.4
				c-1.9-3.6-4-7.1-6.1-10.6c6.6-4.2,12-8.9,15.6-13.9c0.5,0.7,1.1,1.3,1.6,2c0.2,0.2,0.3,0.5,0.5,0.7c0.1,0.1,0.2,0.3,0.3,0.4
				c0.2,0.3,0.4,0.5,0.6,0.8c3.5,4.7,6.7,9.8,9.6,15C623.3,408.3,623.9,409.5,624.5,410.6z"/>
		</g>
		<g>
			<path fill="#7DA6D3" d="M607.1,426.1c-5.1,4.3-9.6,7.9-10.7,8.6c-15.4,9.9-56.1,21.6-78.2,20.4c-4.5-8.4-9.4-16.7-14.1-24.6
				c0,0,0,0,0,0c6-0.7,12.9-1.7,20.1-3.2c23.8-4.7,51.8-13.4,70.3-25.2c2.2,3.4,4.2,7,6.1,10.6C603,417.1,605.2,421.6,607.1,426.1z"
				/>
		</g>
		<g>
			<g>
				<path fill="#9EB7CC" d="M538.4,508.9c0.4,0,0.4-0.6,0-0.6S538,508.9,538.4,508.9L538.4,508.9z"/>
			</g>
		</g>
		<g>
			<g>
				<path fill="#9EB7CC" d="M543.8,490c0.4,0,0.4-0.6,0-0.6S543.4,490,543.8,490L543.8,490z"/>
			</g>
		</g>
		<g>
			<path fill="#FFFFFF" d="M653,522.8c0,5.7-0.2,10.9-0.7,15.4c0,0.5-0.1,1.1-0.2,1.6c-0.1,1.1-0.3,2.1-0.4,3.1
				c-0.1,1-0.3,1.9-0.5,2.8c-0.2,1.4-0.5,2.6-0.8,3.8c-3.1,12.4-10.5,23.8-20.6,31.8c-1.3,1-2.6,2-3.9,2.8c-0.4,0.3-0.9,0.6-1.4,0.9
				c-0.2,0.1-0.3,0.2-0.5,0.3c-0.5,0.3-1.1,0.6-1.6,0.9c-0.1,0-0.1,0.1-0.2,0.1c-0.5,0.3-0.9,0.5-1.4,0.8c-0.4,0.2-0.8,0.4-1.2,0.6
				c-1,0.5-2,0.9-2.9,1.3c-0.8,0.4-1.7,0.7-2.5,1c-0.7,0.3-1.4,0.5-2.1,0.7c-0.6,0.2-1.2,0.4-1.8,0.5c-0.3,0.1-0.7,0.2-1,0.3
				c-0.6,0.2-1.2,0.3-1.7,0.4c-0.7,0.2-1.5,0.3-2.3,0.5c-0.7,0.1-1.4,0.2-2.2,0.3c-0.1,0-0.1,0-0.2,0c-0.7,0.1-1.5,0.2-2.3,0.3
				c-0.8,0.1-1.6,0.1-2.4,0.2c-0.8,0-1.6,0.1-2.4,0.1c-1.1,0-2.1,0-3.2-0.1c-3.3-0.2-6.3-0.7-9.2-1.3c-2.8-0.7-5.5-1.5-8-2.6
				c-17.6-7.6-27.9-24.9-30.6-45.1c-1.7-12.7-6.4-35-11.2-51.8c19.4-3.8,80.2-16,111.7-26.3c0.3,1.4,0.7,2.7,1,4.1
				c1.6,6.8,2.9,13.4,3.9,19.6c0,0,0,0,0,0C652.2,502.1,653,513.2,653,522.8z"/>
		</g>
		<g opacity="0.4">
			<path fill="#898989" d="M652.9,522.8c0,5.7-0.2,10.9-0.7,15.5c0,0.5-0.1,1.1-0.1,1.6c-0.1,1.1-0.2,2.1-0.4,3.1
				c-0.1,1-0.3,1.9-0.5,2.8c-0.2,1.3-0.5,2.6-0.8,3.8c-3.1,12.4-10.5,23.8-20.6,31.8c-1.3,1-2.6,1.9-3.9,2.8
				c-0.4,0.3-0.9,0.6-1.4,0.9c-0.2,0.1-0.3,0.2-0.5,0.3c-0.5,0.3-1.1,0.6-1.6,0.9c-0.1,0-0.1,0.1-0.2,0.1c-0.5,0.3-0.9,0.5-1.4,0.8
				c-0.4,0.2-0.8,0.4-1.2,0.6c-1,0.5-2,0.9-2.9,1.3c-0.8,0.4-1.7,0.7-2.5,1c-0.7,0.3-1.4,0.5-2.1,0.7c-0.6,0.2-1.2,0.4-1.8,0.5
				c-0.3,0.1-0.7,0.2-1,0.3c-0.6,0.2-1.2,0.3-1.8,0.4c-0.7,0.2-1.5,0.3-2.3,0.5c-0.7,0.1-1.4,0.2-2.2,0.3c-0.1,0-0.1,0-0.2,0
				c-0.7,0.1-1.5,0.2-2.3,0.3c-0.8,0.1-1.6,0.1-2.4,0.2c-0.8,0-1.6,0.1-2.4,0.1c-1,0-2.1,0-3.2-0.1c-3.3-0.2-6.3-0.7-9.3-1.3
				c-2.8-0.7-5.5-1.5-8-2.7c-1.2-0.5-2.4-1.1-3.5-1.7c2.3,1,4.7,1.7,7.2,2.3c2.9,0.7,6,1.1,9.3,1.3c1.5,0.1,2.9,0.1,4.3,0.1
				c4.8-2,9.2-4.6,13.2-7.8c10.1-8,17.5-19.3,20.6-31.8c3.5-14.2,4.4-43.2-4-79c8.4-2.2,16.3-4.4,22.8-6.6c0.4,1.4,0.6,2.8,0.9,4.1
				c1.6,6.8,2.7,13.4,3.7,19.6v0C652,502.1,652.9,513.2,652.9,522.8z"/>
		</g>
		<g>
			<path fill="#FFFFFF" d="M626.5,551.5c-3.1,12.4-10.5,23.8-20.6,31.8c-4,3.2-8.4,5.8-13.2,7.8c-1.4,0-2.9,0-4.3-0.1
				c-3.3-0.2-6.3-0.6-9.3-1.3c-2.5-0.6-4.9-1.3-7.2-2.3c-0.1,0-0.1-0.1-0.2-0.1c-1.8-1-3.5-2-5-3.2c0,0-0.1,0-0.1-0.1
				c-12.2-8.9-19.5-23.5-21.7-40c-1.2-9-3.9-22.8-7.1-36.1c-1.3-5.5-2.7-10.8-4.1-15.7c15.3-3,56.7-11.3,88.9-19.7
				C631,508.4,630.1,537.3,626.5,551.5z"/>
		</g>
		<g>
			<g>
				<path fill="#9EB7CC" d="M538.5,505.3c34.6-17.1,71.9-25.4,110.5-25.5c0.4,0,0.4-0.6,0-0.6c-38.7,0.1-76.1,8.4-110.8,25.6
					C537.9,505,538.2,505.5,538.5,505.3L538.5,505.3z"/>
			</g>
		</g>
		<g>
			<g>
				<g>
					<path fill="#087773" stroke="#087773" stroke-width="0.1982" stroke-miterlimit="10" d="M593.5,356.2c-0.3,0-0.7,0.9-1,2.2
						c-0.2,0.7-0.4,1.4-0.6,2.2c-0.2,0.8-0.5,1.7-0.7,2.5c-0.5,1.7-1,3.4-1.5,4.7c-0.2,0.6-0.4,1.1-0.6,1.5
						c-0.1,0.4-0.2,0.6-0.2,0.6c-0.1,0.3-0.2,0.6-0.3,0.9c-0.1,0.3-0.2,0.6-0.3,0.8c-0.2,0.5-0.2,1.1-0.3,1.5
						c-0.1,0.9,0,1.6,0.4,1.9c0.4,0.3,1.1,0,1.9-0.7c0.4-0.3,0.7-0.8,1.1-1.4c0.2-0.3,0.3-0.6,0.5-0.9c0.1-0.3,0.3-0.6,0.4-1
						c0,0,0.1-0.2,0.2-0.6c0.1-0.4,0.3-1,0.5-1.7c0.4-1.4,0.8-3.2,1-5.1c0.1-0.9,0.2-1.9,0.2-2.8c0-0.9,0-1.7,0-2.4
						C594,357.2,593.8,356.3,593.5,356.2z"/>
				</g>
			</g>
		</g>
		<g>
			<g>
				<g>
					<path fill="#087773" stroke="#087773" stroke-width="0.1982" stroke-miterlimit="10" d="M565.8,349.6c-0.3,0.1-0.2,1,0,2.2
						c0.1,0.6,0.2,1.3,0.4,2.1c0.1,0.8,0.3,1.6,0.4,2.4c0.1,0.8,0.2,1.6,0.4,2.3c0.1,0.7,0.1,1.4,0.2,2c0.1,0.6,0.1,1.1,0.1,1.4
						c0,0.3,0,0.5,0,0.5c0.1,0.6,0.1,1.1,0.2,1.7c0.1,0.5,0.3,1,0.4,1.4c0.3,0.8,0.6,1.3,1.1,1.4c0.5,0.1,1-0.4,1.4-1.3
						c0.2-0.4,0.3-1,0.4-1.5c0.1-0.6,0.1-1.2,0.1-1.9c0,0,0-0.2-0.1-0.6c-0.1-0.4-0.1-0.9-0.2-1.6c-0.1-0.6-0.3-1.4-0.5-2.2
						c-0.2-0.8-0.5-1.6-0.7-2.4c-0.3-0.8-0.6-1.6-0.9-2.4c-0.4-0.7-0.7-1.4-1-2C566.7,350.1,566.1,349.4,565.8,349.6z"/>
				</g>
			</g>
		</g>
		<g>
			<g>
				<g>
					<path fill="#087773" stroke="#087773" stroke-width="0.1982" stroke-miterlimit="10" d="M576.3,373.2c-0.3-0.1-0.7,0.3-1.1,0.8
						c-0.2,0.3-0.4,0.6-0.6,0.9c-0.2,0.3-0.5,0.7-0.7,1c-0.2,0.3-0.5,0.7-0.7,1c-0.2,0.3-0.5,0.6-0.6,0.8c-0.4,0.5-0.6,0.8-0.6,0.8
						c-0.4,0.5-0.5,1-0.6,1.5c-0.1,0.5,0,1,0.4,1.4s0.8,0.5,1.4,0.4c0.6-0.1,1.2-0.5,1.7-1.1c0,0,1.2-1.7,1.7-3.5
						c0.1-0.5,0.2-0.9,0.3-1.4c0.1-0.5,0.1-0.9,0.1-1.2C576.8,373.8,576.7,373.3,576.3,373.2z"/>
				</g>
			</g>
		</g>
		<g>
			<g>
				<g>
					<path fill="#087773" stroke="#087773" stroke-width="0.1982" stroke-miterlimit="10" d="M552.5,358.7c-0.3,0.2-0.1,0.9,0.3,1.9
						c0.2,0.5,0.4,1,0.6,1.6c0.2,0.6,0.5,1.2,0.7,1.8c0.2,0.6,0.4,1.3,0.6,1.8c0.2,0.6,0.3,1.1,0.5,1.6c0.2,1,0.4,1.6,0.4,1.6
						c0.5,1.9,1.5,3.3,2.5,3.2c1-0.1,1.6-2,1-4.2c0,0-0.2-0.7-0.6-1.7c-0.2-0.5-0.5-1.1-0.8-1.7c-0.3-0.6-0.7-1.2-1-1.9
						c-0.4-0.6-0.8-1.2-1.2-1.8c-0.4-0.5-0.8-1-1.2-1.4C553.4,358.8,552.7,358.4,552.5,358.7z"/>
				</g>
			</g>
		</g>
		<g>
			<g>
				<g>
					<path fill="#087773" stroke="#087773" stroke-width="0.1982" stroke-miterlimit="10" d="M531.7,349.6c-0.3,0.1-0.4,0.8-0.3,1.9
						c0,0.5,0.1,1.2,0.3,1.9c0.2,0.7,0.4,1.4,0.6,2.1c0.2,0.7,0.4,1.4,0.7,2c0.3,0.6,0.5,1.2,0.8,1.7c0.5,1,0.8,1.7,0.8,1.7
						c1.2,1.9,2.8,2.9,3.6,2.3c0.8-0.6,0.6-2.4-0.5-4.1c0,0-0.3-0.6-0.9-1.5c-0.3-0.4-0.6-0.9-0.9-1.5c-0.3-0.6-0.6-1.2-0.9-1.8
						c-0.3-0.6-0.7-1.2-1-1.8c-0.3-0.6-0.6-1.1-0.8-1.6C532.5,350.1,532,349.5,531.7,349.6z"/>
				</g>
			</g>
		</g>
		<g>
			<g>
				<g>
					<path fill="#087773" stroke="#087773" stroke-width="0.1982" stroke-miterlimit="10" d="M512.2,358.6c-0.1,0.3,0.6,0.9,1.6,1.5
						c0.5,0.3,1.1,0.7,1.7,1.1c0.6,0.4,1.2,0.9,1.9,1.3c0.6,0.5,1.2,1,1.8,1.4c0.5,0.5,1,1,1.4,1.4c0.4,0.4,0.7,0.8,0.9,1
						c0.2,0.3,0.3,0.4,0.3,0.4c0.4,0.4,0.7,0.8,1.1,1.2c0.4,0.3,0.7,0.6,1.1,0.9c0.7,0.5,1.3,0.7,1.7,0.5c0.4-0.2,0.6-0.9,0.4-1.8
						c-0.1-0.5-0.3-1-0.5-1.5c-0.3-0.5-0.6-1.1-1.1-1.6c0,0-0.2-0.2-0.4-0.4c-0.3-0.3-0.7-0.7-1.2-1.1c-0.5-0.4-1.1-0.9-1.8-1.4
						c-0.7-0.4-1.4-0.9-2.2-1.3c-0.8-0.4-1.6-0.8-2.3-1c-0.8-0.3-1.5-0.5-2.1-0.6C513.2,358.3,512.3,358.3,512.2,358.6z"/>
				</g>
			</g>
		</g>
		<g>
			<g>
				<g>
					<path fill="#087773" stroke="#087773" stroke-width="0.1982" stroke-miterlimit="10" d="M521.2,369.6c-0.5,0.5,0.8,2.4,2.1,4.3
						c0.7,1,1.4,1.8,1.9,2.5c0.5,0.7,0.9,1.1,0.9,1.1c1.1,1.3,2.7,1.8,3.4,1.1c0.8-0.6,0.4-2.2-0.7-3.5c0,0-0.4-0.4-1-1
						c-0.6-0.6-1.5-1.4-2.4-2.1C523.5,370.5,521.6,369.1,521.2,369.6z"/>
				</g>
			</g>
		</g>
		<g>
			<g>
				<g>
					<path fill="#087773" stroke="#087773" stroke-width="0.1982" stroke-miterlimit="10" d="M543.4,374.3c-0.2,0.3,0.1,0.9,0.6,1.7
						c0.3,0.4,0.5,0.9,0.8,1.3c0.3,0.4,0.5,1,0.7,1.5c0.2,0.5,0.3,1,0.5,1.5c0,0.5,0.1,0.9,0.2,1.3c-0.1,0.8-0.1,1.3-0.1,1.3
						c-0.1,1.5,0,3.1,1,3.5c0.5,0.2,1,0,1.5-0.6c0.6-0.5,0.9-1.5,1.1-2.6c0,0,0-0.8-0.1-1.9c-0.1-0.6-0.3-1.2-0.5-1.9
						c-0.3-0.6-0.6-1.3-1-1.9c-0.5-0.6-0.9-1.2-1.4-1.6c-0.5-0.4-1-0.8-1.4-1.1C544.3,374.2,543.6,374,543.4,374.3z"/>
				</g>
			</g>
		</g>
		<g>
			<g>
				<g>
					<path fill="#087773" stroke="#087773" stroke-width="0.1982" stroke-miterlimit="10" d="M491.7,379.7c-0.2,0.3,0.1,0.9,0.8,1.8
						c0.4,0.4,0.8,0.8,1.4,1.3c0.5,0.4,1.1,0.9,1.8,1.2c0.6,0.4,1.3,0.7,1.9,1c0.6,0.3,1.2,0.5,1.7,0.8c1.1,0.4,1.8,0.6,1.8,0.6
						c2.2,0.5,4.1-0.2,4.1-1.2c0-1-1.4-1.9-3.3-2.3c0,0-0.6-0.1-1.6-0.4c-0.5-0.1-1-0.3-1.6-0.5c-0.6-0.2-1.2-0.4-1.8-0.6
						c-0.6-0.2-1.2-0.5-1.8-0.7c-0.6-0.3-1.1-0.5-1.6-0.7C492.7,379.7,492,379.4,491.7,379.7z"/>
				</g>
			</g>
		</g>
		<g>
			<g>
				<g>
					<path fill="#087773" stroke="#087773" stroke-width="0.1982" stroke-miterlimit="10" d="M495.4,403.2c-0.2,0.3,0.3,0.9,1.1,1.6
						c0.4,0.3,0.9,0.7,1.5,1c0.6,0.3,1.2,0.6,1.9,0.9c0.7,0.2,1.3,0.5,2,0.6c0.7,0.1,1.3,0.3,1.8,0.4c1.1,0.1,1.8,0.2,1.8,0.2
						c2.2,0,3.8-1.1,3.6-2c-0.2-1-1.8-1.5-3.6-1.5c0,0-0.6,0-1.5,0c-0.5,0-1-0.1-1.6-0.1c-0.6,0-1.2-0.2-1.8-0.2
						c-0.6-0.1-1.2-0.2-1.8-0.4c-0.6-0.2-1.1-0.3-1.6-0.4C496.3,403,495.6,402.9,495.4,403.2z"/>
				</g>
			</g>
		</g>
		<g>
			<g>
				<g>
					<path fill="#087773" stroke="#087773" stroke-width="0.1982" stroke-miterlimit="10" d="M515.4,385.5c-0.4,0.5,0.5,1.9,1.7,3.1
						c0.6,0.6,1.2,1.1,1.7,1.5c0.5,0.4,0.8,0.6,0.8,0.6c1.1,0.7,2.4,0.5,2.8-0.4c0.5-0.9,0-2-0.9-2.6c0,0-0.3-0.2-0.8-0.5
						c-0.5-0.2-1.1-0.6-1.9-1C517.3,385.6,515.8,384.9,515.4,385.5z"/>
				</g>
			</g>
		</g>
		<g>
			<path fill="#00A99D" d="M469.2,433.3c1.7-9.4-2-27.8-15.6-16.4"/>
		</g>
		<path fill="#2F7F40" d="M601.4,461.6c-0.1,1.3,1,2.5,2.5,2.6c1.5,0.1,2.7-0.9,2.8-2.3c0.1-1.3-1-2.5-2.5-2.6
			C602.7,459.2,601.5,460.2,601.4,461.6z"/>
		<path fill="#2F7F40" d="M582.9,474.1c-0.1,1.8,1.4,3.3,3.3,3.4c2,0.1,3.6-1.2,3.8-3c0.1-1.8-1.4-3.3-3.3-3.4
			C584.7,471,583,472.3,582.9,474.1z"/>
		<path fill="#2F7F40" d="M609.7,433.3c0,0.7,0.5,1.3,1.3,1.3c0.8,0,1.4-0.5,1.5-1.2c0.1-0.7-0.5-1.3-1.3-1.3
			C610.4,432.1,609.7,432.6,609.7,433.3z"/>
		<path fill="#2F7F40" d="M622.3,452.2c-0.2,2.5,1.9,4.6,4.7,4.8c2.8,0.2,5.1-1.7,5.3-4.2c0.2-2.5-1.9-4.6-4.7-4.8
			C624.8,447.8,622.4,449.7,622.3,452.2z"/>
		<path fill="#2F7F40" d="M552.7,397.5c-0.1,1.6,1.2,3,3,3.1c1.8,0.1,3.3-1.1,3.4-2.7c0.1-1.6-1.2-3-3-3.1
			C554.4,394.7,552.8,395.9,552.7,397.5z"/>
		<path fill="#2F7F40" d="M548.5,484.9c-0.1,1.9,1.4,3.5,3.5,3.6c2.1,0.1,3.9-1.3,4-3.2c0.1-1.9-1.4-3.5-3.5-3.6
			C550.4,481.6,548.6,483,548.5,484.9z"/>
		<path fill="#2F7F40" d="M503.6,399.2c-0.2,3.1,2.4,5.8,5.8,6c3.4,0.2,6.4-2.2,6.6-5.3c0.2-3.1-2.4-5.8-5.8-6
			C506.8,393.7,503.8,396.1,503.6,399.2z"/>
		<path fill="#2F7F40" d="M533,379c-0.1,0.8,0.6,1.5,1.6,1.6c0.9,0.1,1.7-0.6,1.8-1.4c0.1-0.8-0.6-1.5-1.6-1.6
			C533.9,377.5,533.1,378.2,533,379z"/>
		<path fill="#2F7F40" d="M539.7,472.3c-0.1,0.8,0.6,1.6,1.6,1.6c0.9,0.1,1.7-0.6,1.8-1.4c0.1-0.8-0.6-1.5-1.6-1.6
			C540.6,470.9,539.8,471.5,539.7,472.3z"/>
		<path fill="#2F7F40" d="M561.2,464.5c-0.1,0.8,0.6,1.5,1.6,1.6c0.9,0.1,1.7-0.6,1.8-1.4c0.1-0.8-0.6-1.5-1.6-1.6
			C562,463,561.3,463.7,561.2,464.5z"/>
		<path fill="#2F7F40" d="M567.5,372.7c-0.1,1.8,1.4,3.3,3.3,3.4c2,0.1,3.6-1.2,3.8-3c0.1-1.8-1.4-3.3-3.3-3.4
			C569.4,369.6,567.7,370.9,567.5,372.7z"/>
		<g>
			<path fill="#00A99D" d="M440.8,429.8c0.9,0.9,2.7,1.7,5.7,2.5c0.5,0.1,1.1,0.3,1.7,0.4c3.5,0.9,7.5-0.3,10.4-2.4c0,0,0,0,0,0
				l-5.1-11c-0.7,0.8-2.5,1.7-4.5,2.6C444.1,424.3,438,427.1,440.8,429.8z"/>
		</g>
		<g>
			<path fill="#00A99D" d="M443.6,406.2"/>
		</g>
	</g>
</g>
</svg>
