<?xml version="1.0" encoding="utf-8"?>
<!-- Generator: Adobe Illustrator 17.1.0, SVG Export Plug-In . SVG Version: 6.00 Build 0)  -->
<!DOCTYPE svg PUBLIC "-//W3C//DTD SVG 1.1//EN" "http://www.w3.org/Graphics/SVG/1.1/DTD/svg11.dtd">
<svg version="1.1" xmlns="http://www.w3.org/2000/svg" xmlns:xlink="http://www.w3.org/1999/xlink" x="0px" y="0px"
	 viewBox="0 0 960 560" enable-background="new 0 0 960 560" xml:space="preserve">
<g id="Capa_2" display="none">
	
		<path display="inline" opacity="0.7" fill="#31A7DB" stroke="#5C6D89" stroke-width="14" stroke-linecap="round" stroke-linejoin="round" stroke-miterlimit="10" d="
		M383.1,271c4.7,4.7,4.7,12.3,0,17L258,413.1c-4.7,4.7-12.3,4.7-17,0L115.9,288c-4.7-4.7-4.7-12.3,0-17L241,145.9
		c4.7-4.7,12.3-4.7,17,0L383.1,271z"/>
	
		<path display="inline" opacity="0.7" fill="#F9C85D" stroke="#5C6D89" stroke-width="14" stroke-linecap="round" stroke-linejoin="round" stroke-miterlimit="10" d="
		M748,153.9c0-8.8-7.2-15.9-15.5-15.9H456.1c-8.3,0-15.1,7.1-15.1,15.9v203.1c0,8.8,6.8,15.9,15.1,15.9h276.4
		c8.3,0,15.5-7.1,15.5-15.9V153.9z"/>
</g>
<g id="Capa_2_copia">
	<path opacity="0.5" fill="#7AB8F4" d="M383.1,271c4.7,4.7,4.7,12.3,0,17L258,413.1c-4.7,4.7-12.3,4.7-17,0L115.9,288
		c-4.7-4.7-4.7-12.3,0-17L241,145.9c4.7-4.7,12.3-4.7,17,0L383.1,271z"/>
	<path opacity="0.5" fill="#7AB8F4" d="M345.3,273.4c3.4,3.4,3.4,8.8,0,12.2l-89.8,89.8c-3.4,3.4-8.8,3.4-12.2,0l-89.8-89.8
		c-3.4-3.4-3.4-8.8,0-12.2l89.8-89.8c3.4-3.4,8.8-3.4,12.2,0L345.3,273.4z"/>
	<path opacity="0.5" fill="#BFF47A" d="M715,175.7c0-6.9-5.5-12.7-12.1-12.7H485.7c-6.5,0-11.7,5.8-11.7,12.7v159.6
		c0,6.9,5.2,12.7,11.7,12.7h217.2c6.5,0,12.1-5.8,12.1-12.7V175.7z"/>
	<path opacity="0.5" fill="#BFF47A" d="M748,153.9c0-8.8-7.2-15.9-15.5-15.9H456.1c-8.3,0-15.1,7.1-15.1,15.9v203.1
		c0,8.8,6.8,15.9,15.1,15.9h276.4c8.3,0,15.5-7.1,15.5-15.9V153.9z"/>
</g>
<g id="Capa_1">
	
		<polyline fill="none" stroke="#5C6D89" stroke-width="14" stroke-linecap="round" stroke-linejoin="round" stroke-miterlimit="10" points="
		522,399 413,399 413,399 413,262 413,262 359,263 359,263 359.2,400 359.2,400 277,400 277,400 	"/>
	
		<line fill="none" stroke="#5C6D89" stroke-width="14" stroke-linecap="round" stroke-linejoin="round" stroke-miterlimit="10" x1="279" y1="400" x2="279" y2="400"/>
	<circle opacity="0.5" fill="#F6E278" cx="817.8" cy="399.3" r="70.2"/>
	<circle opacity="0.5" fill="#F6E278" cx="817.8" cy="399.3" r="50.2"/>
	<circle opacity="0.5" fill="#733BF3" cx="154.8" cy="120.3" r="70.2"/>
	<circle opacity="0.5" fill="#733BF3" cx="154.8" cy="120.3" r="50.2"/>
	
		<polyline fill="none" stroke="#5C6D89" stroke-width="14" stroke-linecap="round" stroke-linejoin="round" stroke-miterlimit="10" points="
		774.7,400.2 730,400 730,400 730,252 730,252 710,252 710,252 710,175 710,175 686,175 686,175 686,252 686,252 667,252 667,252 
		667,400 667,400 603,400 603,400 603,219 603,219 568,219 568,219 568,178 568,178 485,179 485,179 484.8,270 	"/>
	<g>
		<ellipse fill="#7C8EAB" cx="757.5" cy="400.2" rx="5.7" ry="15.3"/>
		<ellipse fill="#7C8EAB" cx="762.5" cy="400.2" rx="5.7" ry="15.3"/>
		<ellipse fill="#647386" cx="767.5" cy="400.2" rx="5.7" ry="15.3"/>
		<path opacity="0.5" fill="#F7F6D6" d="M819.8,429.8c16.4,0,29.7-13.3,29.7-29.7c0-16.4-13.3-29.7-29.7-29.7
			c-8.1,0-14.2,3.3-25.4,8.6c-9.4,4.5-22.2,3.4-26.3,13.4c-0.8,2.1-0.8,13.8,0,15.9c4.2,10.5,17.4,8.8,27.1,13.3
			C806.2,426.7,811.9,429.8,819.8,429.8z"/>
		<path fill="#7C8EAB" d="M767.5,415.5c-3.1,0-5.7-6.9-5.7-15.3c0-8.5,2.5-15.3,5.7-15.3c1.1,0,2.1,0.8,3,2.3
			c-1.6,2.7-2.7,7.5-2.7,13s1.1,10.3,2.7,13C769.6,414.7,768.6,415.5,767.5,415.5z"/>
		<g>
			<g>
				<g>
					<path fill="#EFD75E" d="M808.5,389.9c-1.9,2.6-1.7,7.3,2.2,7.4c0.2,0,0.9-0.1,0.9-0.4c0.6-5-7.7-0.7-3.8,3.5
						c0.9,0.9,2.8,1.2,3.8,0.4c1.5-1.3-1.5-2.4-2.6-2c-4.7,1.5-1.1,9.5,1.3,5.8c1-1.6,0-1.9-1.5-1.5c-2.8,0.8-2.5,4-1.2,5.9
						c0.2,0.4,1.5-0.1,1.2-0.5c-2-3,0.2-1.1,0.6-4.6c-0.4-0.1-0.8-0.2-1.2-0.2c-0.3-0.8-0.4-1.6-0.1-2.4c0.2-0.4,0.4-0.8,0.6-1.3
						c1.7-0.5,1.8-0.5,0.3-0.1c-0.5-0.4-0.8-1-0.9-1.6c-0.2-2.2,0.5-2.6,2.2-1.2c0.3-0.1,0.6-0.3,0.9-0.4c-3.7-0.1-2.8-4.9-1.5-6.7
						C810,389.4,808.7,389.5,808.5,389.9L808.5,389.9z"/>
				</g>
			</g>
			<path fill="#E2E083" d="M793.2,405.1c3.8,0.6,18.3,0.8,17.4,4.3c-1.2,4.8-26.4-3-33.5-4.3c-5.2-0.9-6.3-2.3-6.3-5
				c0-2.8,1.1-4,6.3-5c7.1-1.4,32-9.7,33.8-4.9c1.3,3.5-13.9,4.1-17.7,4.9c-5.2,1-6.3,2.3-6.3,5C787,402.9,788,404.2,793.2,405.1z"
				/>
		</g>
		<g opacity="0.8">
			<path fill="#FFFFFF" d="M834.3,412.1c-1.7-2.4-1.5-5.5-0.5-7.2c4.9-7.6-1-18.3-10-18.3c-2-0.1-4.7-1.6-5.8-4.3l0,0
				c-1.1-2.7,1.8-6.3,6.1-6.3c17,0,27.9,20,18.8,34.4C840.6,414,836,414.5,834.3,412.1L834.3,412.1z"/>
		</g>
	</g>
	
		<line fill="none" stroke="#5C6D89" stroke-width="14" stroke-linecap="round" stroke-linejoin="round" stroke-miterlimit="10" x1="277" y1="400" x2="201" y2="400"/>
	
		<line fill="none" stroke="#5C6D89" stroke-width="14" stroke-linecap="round" stroke-linejoin="round" stroke-miterlimit="10" x1="304" y1="127" x2="161" y2="126"/>
	
		<line fill="none" stroke="#5C6D89" stroke-width="14" stroke-linecap="round" stroke-linejoin="round" stroke-miterlimit="10" x1="304" y1="127" x2="304" y2="203"/>
	
		<line fill="none" stroke="#5C6D89" stroke-width="14" stroke-linecap="round" stroke-linejoin="round" stroke-miterlimit="10" x1="201" y1="400" x2="201" y2="193"/>
	
		<line fill="none" stroke="#5C6D89" stroke-width="14" stroke-linecap="round" stroke-linejoin="round" stroke-miterlimit="10" x1="201" y1="193" x2="304" y2="193"/>
	
		<line fill="none" stroke="#5C6D89" stroke-width="14" stroke-linecap="round" stroke-linejoin="round" stroke-miterlimit="10" x1="304" y1="193" x2="304" y2="350"/>
	
		<line fill="none" stroke="#5C6D89" stroke-width="14" stroke-linecap="round" stroke-linejoin="round" stroke-miterlimit="10" x1="304" y1="350" x2="201" y2="350"/>
	<polygon fill="#A7A731" points="548,146 548,203 501,203 501,187 521,187 521,160 501,160 501,146 	"/>
	<line fill="none" x1="524" y1="196" x2="524" y2="192"/>
	
		<line fill="none" stroke="#5C6D89" stroke-width="8" stroke-linecap="round" stroke-linejoin="round" stroke-miterlimit="10" x1="455" y1="283" x2="455" y2="396"/>
	
		<line fill="none" stroke="#5C6D89" stroke-width="8" stroke-linecap="round" stroke-linejoin="round" stroke-miterlimit="10" x1="493" y1="283" x2="493" y2="396"/>
	
		<line fill="none" stroke="#5C6D89" stroke-width="8" stroke-linecap="round" stroke-linejoin="round" stroke-miterlimit="10" x1="530" y1="278" x2="530" y2="391"/>
	<path fill="#8C1C1C" d="M161.7,82c0.5,0.6,1.1,1.2,1.8,1.9c-2.1,0-4.1,0.2-5.7,1.7c-2.4,2.3-2.7,5.9-3,8.9
		c-0.6,5.6-0.1,11.3-0.4,17c-0.6,12.9-6.7,25.9-18.5,31.5c-8.3-6.3-11.8-12.5-3.5-15.9C159.9,115.6,139,56.3,161.7,82z"/>
	<path fill="#8C1C1C" d="M186.3,111h-1.7c0,0,0.1,0,0.1,0C185.3,111,185.8,111,186.3,111z"/>
	<path fill="#487650" d="M216.7,249.3c-0.1,0-0.1-0.1-0.2-0.1c0.7-0.3,1.4-0.3,2.2-0.3L216.7,249.3z"/>
	<path fill="#9F6B2F" d="M277.7,366.7l0.6,0.3c-0.4-0.2-0.8-0.4-1.2-0.5C277.3,366.5,277.5,366.6,277.7,366.7z"/>
	<line fill="#774D1F" x1="444.1" y1="404.6" x2="443.6" y2="404.7"/>
	<polygon fill="#A7A731" points="509,207 501,203 506,196.4 513,201.3 	"/>
	<polygon fill="#A7A731" points="551,157 543,153 548,146 556,150 	"/>
	<polygon fill="#A7A731" points="509,164 501,160 506,153.4 513,158.3 	"/>
	<line fill="#7A7626" x1="509" y1="150.1" x2="501" y2="146"/>
	<line fill="#7A7626" x1="509" y1="191.1" x2="501" y2="187"/>
	<line fill="#7A7626" x1="529" y1="191.1" x2="521" y2="187"/>
	<path fill="#BC7326" d="M317,396c0-13.1-12.1-24-27-24h-41c-14.9,0-27,10.9-27,24l0,0c0,13.1,12.1,24,27,24h41
		C304.9,420,317,409.1,317,396L317,396z"/>
	<g>
		<path fill="#A9234E" d="M182.3,121c-29.8-1.1,8.2,40-6,40c-8.8,0-35-10.8-48.5-21.1c-8.3-6.3-11.8-12.5-3.5-15.9
			c27.6-11.4,6.7-70.7,29.3-45c0.5,0.6,1.1,1.2,1.8,1.9C167.6,92.9,207,122,182.3,121z"/>
		<path fill="#A9234E" d="M182.4,121c-29.8-1.1,8.2,40-6,40c-8.8,0-35-10.8-48.5-21.1c-8.3-6.3-11.8-12.5-3.5-15.9
			c27.6-11.4,6.7-70.7,29.3-45c0.5,0.6,1.1,1.2,1.8,1.9C167.7,93,207,122,182.4,121z"/>
		<path fill="#A9234E" d="M182.5,121.1c-29.8-1.1,8.2,40-6,40c-8.8,0-35-10.8-48.5-21.1c-8.3-6.3-11.8-12.5-3.5-15.9
			c27.6-11.4,6.7-70.7,29.3-45c0.5,0.6,1.1,1.2,1.8,1.9C167.7,93,207.1,122,182.5,121.1z"/>
		<path fill="#A9234E" d="M182.6,121.1c-29.8-1.1,8.2,40-6,40c-8.8,0-35-10.8-48.5-21.1c-8.3-6.3-11.8-12.5-3.5-15.9
			c27.6-11.4,6.7-70.7,29.3-45c0.5,0.6,1.1,1.2,1.8,1.9C167.8,93,207.2,122,182.6,121.1z"/>
		<path fill="#A9234E" d="M182.6,121.1c-29.8-1.1,8.2,40-6,40c-8.8,0-35-10.8-48.5-21.1c-8.3-6.3-11.8-12.5-3.5-15.9
			c27.6-11.4,6.7-70.7,29.3-45c0.5,0.6,1.1,1.2,1.8,1.9C167.9,93.1,207.3,122.1,182.6,121.1z"/>
		<path fill="#A9234E" d="M182.7,121.1c-29.8-1.1,8.2,40-6,40c-8.8,0-35-10.8-48.5-21.1c-8.3-6.3-11.8-12.5-3.5-15.9
			c27.6-11.4,6.7-70.7,29.3-45c0.5,0.6,1.1,1.2,1.8,1.9C168,93.1,207.4,122.1,182.7,121.1z"/>
		<path fill="#A9234E" d="M182.8,121.2c-29.8-1.1,8.2,40-6,40c-8.8,0-35-10.8-48.5-21.1c-8.3-6.3-11.8-12.5-3.5-15.9
			c27.6-11.4,6.7-70.7,29.3-45c0.5,0.6,1.1,1.2,1.8,1.9C168.1,93.1,207.4,122.1,182.8,121.2z"/>
		<path fill="#A9234E" d="M182.9,121.2c-29.8-1.1,8.2,40-6,40c-8.8,0-35-10.8-48.5-21.1c-8.3-6.3-11.8-12.5-3.5-15.9
			c27.6-11.4,6.7-70.7,29.3-45c0.5,0.6,1.1,1.2,1.8,1.9C168.1,93.2,207.5,122.2,182.9,121.2z"/>
		<path fill="#A9234E" d="M183,121.2c-29.8-1.1,8.2,40-6,40c-8.8,0-35-10.8-48.5-21.1c-8.3-6.3-11.8-12.5-3.5-15.9
			c27.6-11.4,6.7-70.7,29.3-45c0.5,0.6,1.1,1.2,1.8,1.9C168.2,93.2,207.6,122.2,183,121.2z"/>
		<path fill="#A9234E" d="M183,121.3c-29.8-1.1,8.2,40-6,40c-8.8,0-35-10.8-48.5-21.1c-8.3-6.3-11.8-12.5-3.5-15.9
			c27.6-11.4,6.7-70.7,29.3-45c0.5,0.6,1.1,1.2,1.8,1.9C168.3,93.2,207.7,122.2,183,121.3z"/>
		<path fill="#A9234E" d="M183.1,121.3c-29.8-1.1,8.2,40-6,40c-8.8,0-35-10.8-48.5-21.1c-8.3-6.3-11.8-12.5-3.5-15.9
			c27.6-11.4,6.7-70.7,29.3-45c0.5,0.6,1.1,1.2,1.8,1.9C168.4,93.2,207.8,122.2,183.1,121.3z"/>
		<path fill="#A9234E" d="M183.2,121.3c-29.8-1.1,8.2,40-6,40c-8.8,0-35-10.8-48.5-21.1c-8.3-6.3-11.8-12.5-3.5-15.9
			c27.6-11.4,6.7-70.7,29.3-45c0.5,0.6,1.1,1.2,1.8,1.9C168.4,93.3,207.8,122.3,183.2,121.3z"/>
		<path fill="#A9234E" d="M183.3,121.4c-29.8-1.1,8.2,40-6,40c-8.8,0-35-10.8-48.5-21.1c-8.3-6.3-11.8-12.5-3.5-15.9
			c27.6-11.4,6.7-70.7,29.3-45c0.5,0.6,1.1,1.2,1.8,1.9C168.5,93.3,207.9,122.3,183.3,121.4z"/>
		<path fill="#A9234E" d="M183.4,121.4c-29.8-1.1,8.2,40-6,40c-8.8,0-35-10.8-48.5-21.1c-8.3-6.3-11.8-12.5-3.5-15.9
			c27.6-11.4,6.7-70.7,29.3-45c0.5,0.6,1.1,1.2,1.8,1.9C168.6,93.3,208,122.3,183.4,121.4z"/>
		<path fill="#A9234E" d="M183.4,121.4c-29.8-1.1,8.2,40-6,40c-8.8,0-35-10.8-48.5-21.1c-8.3-6.3-11.8-12.5-3.5-15.9
			c27.6-11.4,6.7-70.7,29.3-45c0.5,0.6,1.1,1.2,1.8,1.9C168.7,93.4,208.1,122.4,183.4,121.4z"/>
		<path fill="#A9234E" d="M183.5,121.4c-29.8-1.1,8.2,40-6,40c-8.8,0-35-10.8-48.5-21.1c-8.3-6.3-11.8-12.5-3.5-15.9
			c27.6-11.4,6.7-70.7,29.3-45c0.5,0.6,1.1,1.2,1.8,1.9C168.8,93.4,208.2,122.4,183.5,121.4z"/>
		<path fill="#A9234E" d="M183.6,121.5c-29.8-1.1,8.2,40-6,40c-8.8,0-35-10.8-48.5-21.1c-8.3-6.3-11.8-12.5-3.5-15.9
			c27.6-11.4,6.7-70.7,29.3-45c0.5,0.6,1.1,1.2,1.8,1.9C168.8,93.4,208.2,122.4,183.6,121.5z"/>
		<path fill="#A9234E" d="M183.7,121.5c-29.8-1.1,8.2,40-6,40c-8.8,0-35-10.8-48.5-21.1c-8.3-6.3-11.8-12.5-3.5-15.9
			c27.6-11.4,6.7-70.7,29.3-45c0.5,0.6,1.1,1.2,1.8,1.9C168.9,93.4,208.3,122.5,183.7,121.5z"/>
		<path fill="#A9234E" d="M183.8,121.5c-29.8-1.1,8.2,40-6,40c-8.8,0-35-10.8-48.5-21.1c-8.3-6.3-11.8-12.5-3.5-15.9
			c27.6-11.4,6.7-70.7,29.3-45c0.5,0.6,1.1,1.2,1.8,1.9C169,93.5,208.4,122.5,183.8,121.5z"/>
		<path fill="#A9234E" d="M183.8,121.6c-29.8-1.1,8.2,40-6,40c-8.8,0-35-10.8-48.5-21.1c-8.3-6.3-11.8-12.5-3.5-15.9
			c27.6-11.4,6.7-70.7,29.3-45c0.5,0.6,1.1,1.2,1.8,1.9C169.1,93.5,208.5,122.5,183.8,121.6z"/>
		<path fill="#A9234E" d="M183.9,121.6c-29.8-1.1,8.2,40-6,40c-8.8,0-35-10.8-48.5-21.1c-8.3-6.3-11.8-12.5-3.5-15.9
			c27.6-11.4,6.7-70.7,29.3-45c0.5,0.6,1.1,1.2,1.8,1.9C169.2,93.5,208.6,122.5,183.9,121.6z"/>
		<path fill="#A9234E" d="M184,121.6c-29.8-1.1,8.2,40-6,40c-8.8,0-35-10.8-48.5-21.1c-8.3-6.3-11.8-12.5-3.5-15.9
			c27.6-11.4,6.7-70.7,29.3-45c0.5,0.6,1.1,1.2,1.8,1.9C169.2,93.6,208.6,122.6,184,121.6z"/>
		<path fill="#A9234E" d="M184.1,121.7c-29.8-1.1,8.2,40-6,40c-8.8,0-35-10.8-48.5-21.1c-8.3-6.3-11.8-12.5-3.5-15.9
			c27.6-11.4,6.7-70.7,29.3-45c0.5,0.6,1.1,1.2,1.8,1.9C169.3,93.6,208.7,122.6,184.1,121.7z"/>
		<path fill="#A9234E" d="M184.2,121.7c-29.8-1.1,8.2,40-6,40c-8.8,0-35-10.8-48.5-21.1c-8.3-6.3-11.8-12.5-3.5-15.9
			c27.6-11.4,6.7-70.7,29.3-45c0.5,0.6,1.1,1.2,1.8,1.9C169.4,93.6,208.8,122.6,184.2,121.7z"/>
		<path fill="#A9234E" d="M184.2,121.7c-29.8-1.1,8.2,40-6,40c-8.8,0-35-10.8-48.5-21.1c-8.3-6.3-11.8-12.5-3.5-15.9
			c27.6-11.4,6.7-70.7,29.3-45c0.5,0.6,1.1,1.2,1.8,1.9C169.5,93.7,208.9,122.7,184.2,121.7z"/>
		<path fill="#A9234E" d="M184.3,121.7c-29.8-1.1,8.2,40-6,40c-8.8,0-35-10.8-48.5-21.1c-8.3-6.3-11.8-12.5-3.5-15.9
			c27.6-11.4,6.7-70.7,29.3-45c0.5,0.6,1.1,1.2,1.8,1.9C169.6,93.7,209,122.7,184.3,121.7z"/>
		<path fill="#A9234E" d="M184.4,121.8c-29.8-1.1,8.2,40-6,40c-8.8,0-35-10.8-48.5-21.1c-8.3-6.3-11.8-12.5-3.5-15.9
			c27.6-11.4,6.7-70.7,29.3-45c0.5,0.6,1.1,1.2,1.8,1.9C169.6,93.7,209,122.7,184.4,121.8z"/>
		<path fill="#A9234E" d="M184.5,121.8c-29.8-1.1,8.2,40-6,40c-8.8,0-35-10.8-48.5-21.1c-8.3-6.3-11.8-12.5-3.5-15.9
			c27.6-11.4,6.7-70.7,29.3-45c0.5,0.6,1.1,1.2,1.8,1.9C169.7,93.7,209.1,122.8,184.5,121.8z"/>
		<path fill="#A9234E" d="M184.5,121.8c-29.8-1.1,8.2,40-6,40c-8.8,0-35-10.8-48.5-21.1c-8.3-6.3-11.8-12.5-3.5-15.9
			c27.6-11.4,6.7-70.7,29.3-45c0.5,0.6,1.1,1.2,1.8,1.9C169.8,93.8,209.2,122.8,184.5,121.8z"/>
		<path fill="#A9234E" d="M184.6,121.9c-29.8-1.1,8.2,40-6,40c-8.8,0-35-10.8-48.5-21.1c-8.3-6.3-11.8-12.5-3.5-15.9
			c27.6-11.4,6.7-70.7,29.3-45c0.5,0.6,1.1,1.2,1.8,1.9C169.9,93.8,209.3,122.8,184.6,121.9z"/>
		<path fill="#A9234E" d="M184.7,121.9c-29.8-1.1,8.2,40-6,40c-8.8,0-35-10.8-48.5-21.1c-8.3-6.3-11.8-12.5-3.5-15.9
			c27.6-11.4,6.7-70.7,29.3-45c0.5,0.6,1.1,1.2,1.8,1.9C170,93.8,209.3,122.8,184.7,121.9z"/>
		<path fill="#A9234E" d="M184.8,121.9c-29.8-1.1,8.2,40-6,40c-8.8,0-35-10.8-48.5-21.1c-8.3-6.3-11.8-12.5-3.5-15.9
			c27.6-11.4,6.7-70.7,29.3-45c0.5,0.6,1.1,1.2,1.8,1.9C170,93.9,209.4,122.9,184.8,121.9z"/>
		<path fill="#A9234E" d="M184.9,122c-29.8-1.1,8.2,40-6,40c-8.8,0-35-10.8-48.5-21.1c-8.3-6.3-11.8-12.5-3.5-15.9
			c27.6-11.4,6.7-70.7,29.3-45c0.5,0.6,1.1,1.2,1.8,1.9C170.1,93.9,209.5,122.9,184.9,122z"/>
		<path fill="#A9234E" d="M184.9,122c-29.8-1.1,8.2,40-6,40c-8.8,0-35-10.8-48.5-21.1c-8.3-6.3-11.8-12.5-3.5-15.9
			c27.6-11.4,6.7-70.7,29.3-45c0.5,0.6,1.1,1.2,1.8,1.9C170.2,93.9,209.6,122.9,184.9,122z"/>
		<path fill="#A9234E" d="M185,122c-29.8-1.1,8.2,40-6,40c-8.8,0-35-10.8-48.5-21.1c-8.3-6.3-11.8-12.5-3.5-15.9
			c27.6-11.4,6.7-70.7,29.3-45c0.5,0.6,1.1,1.2,1.8,1.9C170.3,94,209.7,123,185,122z"/>
		<path fill="#A9234E" d="M185.1,122c-29.8-1.1,8.2,40-6,40c-8.8,0-35-10.8-48.5-21.1c-8.3-6.3-11.8-12.5-3.5-15.9
			c27.6-11.4,6.7-70.7,29.3-45c0.5,0.6,1.1,1.2,1.8,1.9C170.3,94,209.7,123,185.1,122z"/>
		<path fill="#A9234E" d="M185.2,122.1c-29.8-1.1,8.2,40-6,40c-8.8,0-35-10.8-48.5-21.1c-8.3-6.3-11.8-12.5-3.5-15.9
			c27.6-11.4,6.7-70.7,29.3-45c0.5,0.6,1.1,1.2,1.8,1.9C170.4,94,209.8,123,185.2,122.1z"/>
		<path fill="#A9234E" d="M185.3,122.1c-29.8-1.1,8.2,40-6,40c-8.8,0-35-10.8-48.5-21.1c-8.3-6.3-11.8-12.5-3.5-15.9
			c27.6-11.4,6.7-70.7,29.3-45c0.5,0.6,1.1,1.2,1.8,1.9C170.5,94,209.9,123,185.3,122.1z"/>
		<path fill="#A9234E" d="M185.3,122.1c-29.8-1.1,8.2,40-6,40c-8.8,0-35-10.8-48.5-21.1c-8.3-6.3-11.8-12.5-3.5-15.9
			c27.6-11.4,6.7-70.7,29.3-45c0.5,0.6,1.1,1.2,1.8,1.9C170.6,94.1,210,123.1,185.3,122.1z"/>
		<path fill="#A9234E" d="M185.4,122.2c-29.8-1.1,8.2,40-6,40c-8.8,0-35-10.8-48.5-21.1c-8.3-6.3-11.8-12.5-3.5-15.9
			c27.6-11.4,6.7-70.7,29.3-45c0.5,0.6,1.1,1.2,1.8,1.9C170.7,94.1,210.1,123.1,185.4,122.2z"/>
		<path fill="#A9234E" d="M185.5,122.2c-29.8-1.1,8.2,40-6,40c-8.8,0-35-10.8-48.5-21.1c-8.3-6.3-11.8-12.5-3.5-15.9
			c27.6-11.4,6.7-70.7,29.3-45c0.5,0.6,1.1,1.2,1.8,1.9C170.7,94.1,210.1,123.1,185.5,122.2z"/>
		<path fill="#A9234E" d="M185.6,122.2c-29.8-1.1,8.2,40-6,40c-8.8,0-35-10.8-48.5-21.1c-8.3-6.3-11.8-12.5-3.5-15.9
			c27.6-11.4,6.7-70.7,29.3-45c0.5,0.6,1.1,1.2,1.8,1.9C170.8,94.2,210.2,123.2,185.6,122.2z"/>
		<path fill="#A9234E" d="M185.7,122.2c-29.8-1.1,8.2,40-6,40c-8.8,0-35-10.8-48.5-21.1c-8.3-6.3-11.8-12.5-3.5-15.9
			c27.6-11.4,6.7-70.7,29.3-45c0.5,0.6,1.1,1.2,1.8,1.9C170.9,94.2,210.3,123.2,185.7,122.2z"/>
		<path fill="#A9234E" d="M185.7,122.3c-29.8-1.1,8.2,40-6,40c-8.8,0-35-10.8-48.5-21.1c-8.3-6.3-11.8-12.5-3.5-15.9
			c27.6-11.4,6.7-70.7,29.3-45c0.5,0.6,1.1,1.2,1.8,1.9C171,94.2,210.4,123.2,185.7,122.3z"/>
		<path fill="#A9234E" d="M185.8,122.3c-29.8-1.1,8.2,40-6,40c-8.8,0-35-10.8-48.5-21.1c-8.3-6.3-11.8-12.5-3.5-15.9
			c27.6-11.4,6.7-70.7,29.3-45c0.5,0.6,1.1,1.2,1.8,1.9C171.1,94.3,210.5,123.3,185.8,122.3z"/>
		<path fill="#A9234E" d="M185.9,122.3c-29.8-1.1,8.2,40-6,40c-8.8,0-35-10.8-48.5-21.1c-8.3-6.3-11.8-12.5-3.5-15.9
			c27.6-11.4,6.7-70.7,29.3-45c0.5,0.6,1.1,1.2,1.8,1.9C171.1,94.3,210.5,123.3,185.9,122.3z"/>
		<path fill="#A9234E" d="M186,122.4c-29.8-1.1,8.2,40-6,40c-8.8,0-35-10.8-48.5-21.1c-8.3-6.3-11.8-12.5-3.5-15.9
			c27.6-11.4,6.7-70.7,29.3-45c0.5,0.6,1.1,1.2,1.8,1.9C171.2,94.3,210.6,123.3,186,122.4z"/>
		<path fill="#A9234E" d="M186.1,122.4c-29.8-1.1,8.2,40-6,40c-8.8,0-35-10.8-48.5-21.1c-8.3-6.3-11.8-12.5-3.5-15.9
			c27.6-11.4,6.7-70.7,29.3-45c0.5,0.6,1.1,1.2,1.8,1.9C171.3,94.3,210.7,123.3,186.1,122.4z"/>
		<path fill="#A9234E" d="M186.1,122.4c-29.8-1.1,8.2,40-6,40c-8.8,0-35-10.8-48.5-21.1c-8.3-6.3-11.8-12.5-3.5-15.9
			c27.6-11.4,6.7-70.7,29.3-45c0.5,0.6,1.1,1.2,1.8,1.9C171.4,94.4,210.8,123.4,186.1,122.4z"/>
		<path fill="#A9234E" d="M186.2,122.5c-29.8-1.1,8.2,40-6,40c-8.8,0-35-10.8-48.5-21.1c-8.3-6.3-11.8-12.5-3.5-15.9
			c27.6-11.4,6.7-70.7,29.3-45c0.5,0.6,1.1,1.2,1.8,1.9C171.5,94.4,210.9,123.4,186.2,122.5z"/>
		<path fill="#A9234E" d="M186.3,122.5c-29.8-1.1,8.2,40-6,40c-8.8,0-35-10.8-48.5-21.1c-8.3-6.3-11.8-12.5-3.5-15.9
			c27.6-11.4,6.7-70.7,29.3-45c0.5,0.6,1.1,1.2,1.8,1.9C171.5,94.4,210.9,123.4,186.3,122.5z"/>
		<path fill="#A9234E" d="M186.4,122.5c-29.8-1.1,8.2,40-6,40c-8.8,0-35-10.8-48.5-21.1c-8.3-6.3-11.8-12.5-3.5-15.9
			c27.6-11.4,6.7-70.7,29.3-45c0.5,0.6,1.1,1.2,1.8,1.9C171.6,94.5,211,123.5,186.4,122.5z"/>
		<path fill="#A9234E" d="M186.4,122.5c-29.8-1.1,8.2,40-6,40c-8.8,0-35-10.8-48.5-21.1c-8.3-6.3-11.8-12.5-3.5-15.9
			c27.6-11.4,6.7-70.7,29.3-45c0.5,0.6,1.1,1.2,1.8,1.9C171.7,94.5,211.1,123.5,186.4,122.5z"/>
		<path fill="#A9234E" d="M186.5,122.6c-29.8-1.1,8.2,40-6,40c-8.8,0-35-10.8-48.5-21.1c-8.3-6.3-11.8-12.5-3.5-15.9
			c27.6-11.4,6.7-70.7,29.3-45c0.5,0.6,1.1,1.2,1.8,1.9C171.8,94.5,211.2,123.5,186.5,122.6z"/>
		<path fill="#A9234E" d="M186.6,122.6c-29.8-1.1,8.2,40-6,40c-8.8,0-35-10.8-48.5-21.1c-8.3-6.3-11.8-12.5-3.5-15.9
			c27.6-11.4,6.7-70.7,29.3-45c0.5,0.6,1.1,1.2,1.8,1.9C171.9,94.5,211.2,123.6,186.6,122.6z"/>
		<path fill="#A9234E" d="M186.7,122.6c-29.8-1.1,8.2,40-6,40c-8.8,0-35-10.8-48.5-21.1c-8.3-6.3-11.8-12.5-3.5-15.9
			c27.6-11.4,6.7-70.7,29.3-45c0.5,0.6,1.1,1.2,1.8,1.9C171.9,94.6,211.3,123.6,186.7,122.6z"/>
		<path fill="#A9234E" d="M186.8,122.7c-29.8-1.1,8.2,40-6,40c-8.8,0-35-10.8-48.5-21.1c-8.3-6.3-11.8-12.5-3.5-15.9
			c27.6-11.4,6.7-70.7,29.3-45c0.5,0.6,1.1,1.2,1.8,1.9C172,94.6,211.4,123.6,186.8,122.7z"/>
		<path fill="#A9234E" d="M186.8,122.7c-29.8-1.1,8.2,40-6,40c-8.8,0-35-10.8-48.5-21.1c-8.3-6.3-11.8-12.5-3.5-15.9
			c27.6-11.4,6.7-70.7,29.3-45c0.5,0.6,1.1,1.2,1.8,1.9C172.1,94.6,211.5,123.6,186.8,122.7z"/>
		<path fill="#A9234E" d="M186.9,122.7c-29.8-1.1,8.2,40-6,40c-8.8,0-35-10.8-48.5-21.1c-8.3-6.3-11.8-12.5-3.5-15.9
			c27.6-11.4,6.7-70.7,29.3-45c0.5,0.6,1.1,1.2,1.8,1.9C172.2,94.7,211.6,123.7,186.9,122.7z"/>
		<path fill="#A9234E" d="M187,122.8c-29.8-1.1,8.2,40-6,40c-8.8,0-35-10.8-48.5-21.1c-8.3-6.3-11.8-12.5-3.5-15.9
			c27.6-11.4,6.7-70.7,29.3-45c0.5,0.6,1.1,1.2,1.8,1.9C172.2,94.7,211.6,123.7,187,122.8z"/>
		<path fill="#A9234E" d="M187.1,122.8c-29.8-1.1,8.2,40-6,40c-8.8,0-35-10.8-48.5-21.1c-8.3-6.3-11.8-12.5-3.5-15.9
			c27.6-11.4,6.7-70.7,29.3-45c0.5,0.6,1.1,1.2,1.8,1.9C172.3,94.7,211.7,123.7,187.1,122.8z"/>
		<path fill="#A9234E" d="M187.2,122.8c-29.8-1.1,8.2,40-6,40c-8.8,0-35-10.8-48.5-21.1c-8.3-6.3-11.8-12.5-3.5-15.9
			c27.6-11.4,6.7-70.7,29.3-45c0.5,0.6,1.1,1.2,1.8,1.9C172.4,94.8,211.8,123.8,187.2,122.8z"/>
		<path fill="#A9234E" d="M187.2,122.8c-29.8-1.1,8.2,40-6,40c-8.8,0-35-10.8-48.5-21.1c-8.3-6.3-11.8-12.5-3.5-15.9
			c27.6-11.4,6.7-70.7,29.3-45c0.5,0.6,1.1,1.2,1.8,1.9C172.5,94.8,211.9,123.8,187.2,122.8z"/>
		<path fill="#A9234E" d="M187.3,122.9c-29.8-1.1,8.2,40-6,40c-8.8,0-35-10.8-48.5-21.1c-8.3-6.3-11.8-12.5-3.5-15.9
			c27.6-11.4,6.7-70.7,29.3-45c0.5,0.6,1.1,1.2,1.8,1.9C172.6,94.8,212,123.8,187.3,122.9z"/>
		<path fill="#A9234E" d="M187.4,122.9c-29.8-1.1,8.2,40-6,40c-8.8,0-35-10.8-48.5-21.1c-8.3-6.3-11.8-12.5-3.5-15.9
			c27.6-11.4,6.7-70.7,29.3-45c0.5,0.6,1.1,1.2,1.8,1.9C172.6,94.8,212,123.9,187.4,122.9z"/>
		<path fill="#A9234E" d="M187.5,122.9c-29.8-1.1,8.2,40-6,40c-8.8,0-35-10.8-48.5-21.1c-8.3-6.3-11.8-12.5-3.5-15.9
			c27.6-11.4,6.7-70.7,29.3-45c0.5,0.6,1.1,1.2,1.8,1.9C172.7,94.9,212.1,123.9,187.5,122.9z"/>
		<path fill="#A9234E" d="M187.6,123c-29.8-1.1,8.2,40-6,40c-8.8,0-35-10.8-48.5-21.1c-8.3-6.3-11.8-12.5-3.5-15.9
			c27.6-11.4,6.7-70.7,29.3-45c0.5,0.6,1.1,1.2,1.8,1.9C172.8,94.9,212.2,123.9,187.6,123z"/>
		<path fill="#A9234E" d="M187.6,123c-29.8-1.1,8.2,40-6,40c-8.8,0-35-10.8-48.5-21.1c-8.3-6.3-11.8-12.5-3.5-15.9
			c27.6-11.4,6.7-70.7,29.3-45c0.5,0.6,1.1,1.2,1.8,1.9C172.9,94.9,212.3,123.9,187.6,123z"/>
		<path fill="#A9234E" d="M187.7,123c-29.8-1.1,8.2,40-6,40c-8.8,0-35-10.8-48.5-21.1c-8.3-6.3-11.8-12.5-3.5-15.9
			c27.6-11.4,6.7-70.7,29.3-45c0.5,0.6,1.1,1.2,1.8,1.9C173,95,212.4,124,187.7,123z"/>
		<path fill="#A9234E" d="M187.8,123c-29.8-1.1,8.2,40-6,40c-8.8,0-35-10.8-48.5-21.1c-8.3-6.3-11.8-12.5-3.5-15.9
			c27.6-11.4,6.7-70.7,29.3-45c0.5,0.6,1.1,1.2,1.8,1.9C173,95,212.4,124,187.8,123z"/>
		<path fill="#A9234E" d="M187.9,123.1c-29.8-1.1,8.2,40-6,40c-8.8,0-35-10.8-48.5-21.1c-8.3-6.3-11.8-12.5-3.5-15.9
			c27.6-11.4,6.7-70.7,29.3-45c0.5,0.6,1.1,1.2,1.8,1.9C173.1,95,212.5,124,187.9,123.1z"/>
		<path fill="#A9234E" d="M188,123.1c-29.8-1.1,8.2,40-6,40c-8.8,0-35-10.8-48.5-21.1c-8.3-6.3-11.8-12.5-3.5-15.9
			c27.6-11.4,6.7-70.7,29.3-45c0.5,0.6,1.1,1.2,1.8,1.9C173.2,95.1,212.6,124.1,188,123.1z"/>
		<path fill="#A9234E" d="M188,123.1c-29.8-1.1,8.2,40-6,40c-8.8,0-35-10.8-48.5-21.1c-8.3-6.3-11.8-12.5-3.5-15.9
			c27.6-11.4,6.7-70.7,29.3-45c0.5,0.6,1.1,1.2,1.8,1.9C173.3,95.1,212.7,124.1,188,123.1z"/>
		<path fill="#A9234E" d="M188.1,123.2c-29.8-1.1,8.2,40-6,40c-8.8,0-35-10.8-48.5-21.1c-8.3-6.3-11.8-12.5-3.5-15.9
			c27.6-11.4,6.7-70.7,29.3-45c0.5,0.6,1.1,1.2,1.8,1.9C173.4,95.1,212.8,124.1,188.1,123.2z"/>
		<path fill="#A9234E" d="M188.2,123.2c-29.8-1.1,8.2,40-6,40c-8.8,0-35-10.8-48.5-21.1c-8.3-6.3-11.8-12.5-3.5-15.9
			c27.6-11.4,6.7-70.7,29.3-45c0.5,0.6,1.1,1.2,1.8,1.9C173.4,95.1,212.8,124.1,188.2,123.2z"/>
		<path fill="#A9234E" d="M188.3,123.2c-29.8-1.1,8.2,40-6,40c-8.8,0-35-10.8-48.5-21.1c-8.3-6.3-11.8-12.5-3.5-15.9
			c27.6-11.4,6.7-70.7,29.3-45c0.5,0.6,1.1,1.2,1.8,1.9C173.5,95.2,212.9,124.2,188.3,123.2z"/>
		<path fill="#A9234E" d="M188.3,123.3c-29.8-1.1,8.2,40-6,40c-8.8,0-35-10.8-48.5-21.1c-8.3-6.3-11.8-12.5-3.5-15.9
			c27.6-11.4,6.7-70.7,29.3-45c0.5,0.6,1.1,1.2,1.8,1.9C173.6,95.2,213,124.2,188.3,123.3z"/>
		<path fill="#A9234E" d="M188.4,123.3c-29.8-1.1,8.2,40-6,40c-8.8,0-35-10.8-48.5-21.1c-8.3-6.3-11.8-12.5-3.5-15.9
			c27.6-11.4,6.7-70.7,29.3-45c0.5,0.6,1.1,1.2,1.8,1.9C173.7,95.2,213.1,124.2,188.4,123.3z"/>
		<path fill="#A9234E" d="M188.5,123.3c-29.8-1.1,8.2,40-6,40c-8.8,0-35-10.8-48.5-21.1c-8.3-6.3-11.8-12.5-3.5-15.9
			c27.6-11.4,6.7-70.7,29.3-45c0.5,0.6,1.1,1.2,1.8,1.9C173.8,95.3,213.1,124.3,188.5,123.3z"/>
		<path fill="#A9234E" d="M188.6,123.3c-29.8-1.1,8.2,40-6,40c-8.8,0-35-10.8-48.5-21.1c-8.3-6.3-11.8-12.5-3.5-15.9
			c27.6-11.4,6.7-70.7,29.3-45c0.5,0.6,1.1,1.2,1.8,1.9C173.8,95.3,213.2,124.3,188.6,123.3z"/>
		<path fill="#A9234E" d="M188.7,123.4c-29.8-1.1,8.2,40-6,40c-8.8,0-35-10.8-48.5-21.1c-8.3-6.3-11.8-12.5-3.5-15.9
			c27.6-11.4,6.7-70.7,29.3-45c0.5,0.6,1.1,1.2,1.8,1.9C173.9,95.3,213.3,124.3,188.7,123.4z"/>
		<path fill="#A9234E" d="M188.7,123.4c-29.8-1.1,8.2,40-6,40c-8.8,0-35-10.8-48.5-21.1c-8.3-6.3-11.8-12.5-3.5-15.9
			c27.6-11.4,6.7-70.7,29.3-45c0.5,0.6,1.1,1.2,1.8,1.9C174,95.4,213.4,124.4,188.7,123.4z"/>
		<path fill="#A9234E" d="M188.8,123.4c-29.8-1.1,8.2,40-6,40c-8.8,0-35-10.8-48.5-21.1c-8.3-6.3-11.8-12.5-3.5-15.9
			c27.6-11.4,6.7-70.7,29.3-45c0.5,0.6,1.1,1.2,1.8,1.9C174.1,95.4,213.5,124.4,188.8,123.4z"/>
		<path fill="#A9234E" d="M188.9,123.5c-29.8-1.1,8.2,40-6,40c-8.8,0-35-10.8-48.5-21.1c-8.3-6.3-11.8-12.5-3.5-15.9
			c27.6-11.4,6.7-70.7,29.3-45c0.5,0.6,1.1,1.2,1.8,1.9C174.1,95.4,213.5,124.4,188.9,123.5z"/>
		<path fill="#A9234E" d="M189,123.5c-29.8-1.1,8.2,40-6,40c-8.8,0-35-10.8-48.5-21.1c-8.3-6.3-11.8-12.5-3.5-15.9
			c27.6-11.4,6.7-70.7,29.3-45c0.5,0.6,1.1,1.2,1.8,1.9C174.2,95.4,213.6,124.4,189,123.5z"/>
		<path fill="#A9234E" d="M189.1,123.5c-29.8-1.1,8.2,40-6,40c-8.8,0-35-10.8-48.5-21.1c-8.3-6.3-11.8-12.5-3.5-15.9
			c27.6-11.4,6.7-70.7,29.3-45c0.5,0.6,1.1,1.2,1.8,1.9C174.3,95.5,213.7,124.5,189.1,123.5z"/>
		<path fill="#A9234E" d="M189.1,123.6c-29.8-1.1,8.2,40-6,40c-8.8,0-35-10.8-48.5-21.1c-8.3-6.3-11.8-12.5-3.5-15.9
			c27.6-11.4,6.7-70.7,29.3-45c0.5,0.6,1.1,1.2,1.8,1.9C174.4,95.5,213.8,124.5,189.1,123.6z"/>
		<path fill="#A9234E" d="M189.2,123.6c-29.8-1.1,8.2,40-6,40c-8.8,0-35-10.8-48.5-21.1c-8.3-6.3-11.8-12.5-3.5-15.9
			c27.6-11.4,6.7-70.7,29.3-45c0.5,0.6,1.1,1.2,1.8,1.9C174.5,95.5,213.9,124.5,189.2,123.6z"/>
		<path fill="#A9234E" d="M189.3,123.6c-29.8-1.1,8.2,40-6,40c-8.8,0-35-10.8-48.5-21.1c-8.3-6.3-11.8-12.5-3.5-15.9
			c27.6-11.4,6.7-70.7,29.3-45c0.5,0.6,1.1,1.2,1.8,1.9C174.5,95.6,213.9,124.6,189.3,123.6z"/>
		<path fill="#A9234E" d="M189.4,123.6c-29.8-1.1,8.2,40-6,40c-8.8,0-35-10.8-48.5-21.1c-8.3-6.3-11.8-12.5-3.5-15.9
			c27.6-11.4,6.7-70.7,29.3-45c0.5,0.6,1.1,1.2,1.8,1.9C174.6,95.6,214,124.6,189.4,123.6z"/>
		<path fill="#A9234E" d="M189.5,123.7c-29.8-1.1,8.2,40-6,40c-8.8,0-35-10.8-48.5-21.1c-8.3-6.3-11.8-12.5-3.5-15.9
			c27.6-11.4,6.7-70.7,29.3-45c0.5,0.6,1.1,1.2,1.8,1.9C174.7,95.6,214.1,124.6,189.5,123.7z"/>
		<path fill="#A9234E" d="M189.5,123.7c-29.8-1.1,8.2,40-6,40c-8.8,0-35-10.8-48.5-21.1c-8.3-6.3-11.8-12.5-3.5-15.9
			c27.6-11.4,6.7-70.7,29.3-45c0.5,0.6,1.1,1.2,1.8,1.9C174.8,95.6,214.2,124.7,189.5,123.7z"/>
		<path fill="#A9234E" d="M189.6,123.7c-29.8-1.1,8.2,40-6,40c-8.8,0-35-10.8-48.5-21.1c-8.3-6.3-11.8-12.5-3.5-15.9
			c27.6-11.4,6.7-70.7,29.3-45c0.5,0.6,1.1,1.2,1.8,1.9C174.9,95.7,214.3,124.7,189.6,123.7z"/>
		<path fill="#A9234E" d="M189.7,123.8c-29.8-1.1,8.2,40-6,40c-8.8,0-35-10.8-48.5-21.1c-8.3-6.3-11.8-12.5-3.5-15.9
			c27.6-11.4,6.7-70.7,29.3-45c0.5,0.6,1.1,1.2,1.8,1.9C174.9,95.7,214.3,124.7,189.7,123.8z"/>
		<path fill="#A9234E" d="M189.8,123.8c-29.8-1.1,8.2,40-6,40c-8.8,0-35-10.8-48.5-21.1c-8.3-6.3-11.8-12.5-3.5-15.9
			c27.6-11.4,6.7-70.7,29.3-45c0.5,0.6,1.1,1.2,1.8,1.9C175,95.7,214.4,124.7,189.8,123.8z"/>
		<path fill="#A9234E" d="M189.9,123.8c-29.8-1.1,8.2,40-6,40c-8.8,0-35-10.8-48.5-21.1c-8.3-6.3-11.8-12.5-3.5-15.9
			c27.6-11.4,6.7-70.7,29.3-45c0.5,0.6,1.1,1.2,1.8,1.9C175.1,95.8,214.5,124.8,189.9,123.8z"/>
		<path fill="#A9234E" d="M189.9,123.9c-29.8-1.1,8.2,40-6,40c-8.8,0-35-10.8-48.5-21.1c-8.3-6.3-11.8-12.5-3.5-15.9
			c27.6-11.4,6.7-70.7,29.3-45c0.5,0.6,1.1,1.2,1.8,1.9C175.2,95.8,214.6,124.8,189.9,123.9z"/>
		<path fill="#A9234E" d="M190,123.9c-29.8-1.1,8.2,40-6,40c-8.8,0-35-10.8-48.5-21.1c-8.3-6.3-11.8-12.5-3.5-15.9
			c27.6-11.4,6.7-70.7,29.3-45c0.5,0.6,1.1,1.2,1.8,1.9C175.3,95.8,214.7,124.8,190,123.9z"/>
		<path fill="#A9234E" d="M190.1,123.9c-29.8-1.1,8.2,40-6,40c-8.8,0-35-10.8-48.5-21.1c-8.3-6.3-11.8-12.5-3.5-15.9
			c27.6-11.4,6.7-70.7,29.3-45c0.5,0.6,1.1,1.2,1.8,1.9C175.3,95.9,214.7,124.9,190.1,123.9z"/>
		<path fill="#A9234E" d="M190.2,123.9c-29.8-1.1,8.2,40-6,40c-8.8,0-35-10.8-48.5-21.1c-8.3-6.3-11.8-12.5-3.5-15.9
			c27.6-11.4,6.7-70.7,29.3-45c0.5,0.6,1.1,1.2,1.8,1.9C175.4,95.9,214.8,124.9,190.2,123.9z"/>
		<path fill="#A9234E" d="M190.3,124c-29.8-1.1,8.2,40-6,40c-8.8,0-35-10.8-48.5-21.1c-8.3-6.3-11.8-12.5-3.5-15.9
			c27.6-11.4,6.7-70.7,29.3-45c0.5,0.6,1.1,1.2,1.8,1.9C175.5,95.9,214.9,124.9,190.3,124z"/>
		<path fill="#A9234E" d="M190.3,124c-29.8-1.1,8.2,40-6,40c-8.8,0-35-10.8-48.5-21.1c-8.3-6.3-11.8-12.5-3.5-15.9
			c27.6-11.4,6.7-70.7,29.3-45c0.5,0.6,1.1,1.2,1.8,1.9C175.6,95.9,215,125,190.3,124z"/>
	</g>
	<path fill="#9D805D" d="M587,341.5v-7.2c-0.6,1.1-1,2.3-1,3.6C586,339.2,586.4,340.4,587,341.5z M587,341.5v-7.2
		c-0.6,1.1-1,2.3-1,3.6C586,339.2,586.4,340.4,587,341.5z M618,360h-39v-75h39V360z M568,263v120h62V263H568z M587,341.5v-7.2
		c-0.6,1.1-1,2.3-1,3.6C586,339.2,586.4,340.4,587,341.5z"/>
	<path fill="#9D805D" d="M626,363h-39v-75h39V363z M576,266v120h62V266H576z"/>
	<path fill="#D5B58D" d="M576,266l-8-3h62l8,3H576z"/>
	<path fill="#9D805D" d="M576,266v120l-8-3V263L576,266z"/>
	<g>
		<path fill="#5D916A" d="M533,267c0,10.5-19,27-48.5,27c-12.7,0-23.3-3.2-31.2-7.7c-10.5-6-16.3-14.2-16.3-20.2
			c0-10.5,17.9-10.2,47.5-10.2c9.3,0,17.6,0,24.5,0.4C524.1,257.3,533,259.8,533,267z"/>
		<path fill="#5D916A" d="M533.1,267c0,10.5-19,27-48.5,27c-12.7,0-23.3-3.2-31.2-7.7c-10.5-6-16.3-14.2-16.3-20.2
			c0-10.5,17.9-10.2,47.5-10.2c9.3,0,17.6,0,24.5,0.4C524.2,257.3,533.1,259.8,533.1,267z"/>
		<path fill="#5D916A" d="M533.2,267c0,10.5-19,27-48.5,27c-12.7,0-23.3-3.2-31.2-7.7c-10.5-6-16.3-14.2-16.3-20.2
			c0-10.5,17.9-10.2,47.5-10.2c9.3,0,17.6,0,24.5,0.4C524.2,257.3,533.2,259.8,533.2,267z"/>
		<path fill="#5D916A" d="M533.2,267c0,10.5-19,27-48.5,27c-12.7,0-23.3-3.2-31.2-7.7c-10.5-6-16.3-14.2-16.3-20.2
			c0-10.5,17.9-10.2,47.5-10.2c9.3,0,17.6,0,24.5,0.4C524.3,257.3,533.2,259.8,533.2,267z"/>
		<path fill="#5D916A" d="M533.3,267.1c0,10.5-19,27-48.5,27c-12.7,0-23.3-3.2-31.2-7.7c-10.5-6-16.3-14.2-16.3-20.2
			c0-10.5,17.9-10.2,47.5-10.2c9.3,0,17.6,0,24.5,0.4C524.4,257.4,533.3,259.9,533.3,267.1z"/>
		<path fill="#5D916A" d="M533.4,267.1c0,10.5-19,27-48.5,27c-12.7,0-23.3-3.2-31.2-7.7c-10.5-6-16.3-14.2-16.3-20.2
			c0-10.5,17.9-10.2,47.5-10.2c9.3,0,17.6,0,24.5,0.4C524.5,257.4,533.4,259.9,533.4,267.1z"/>
		<path fill="#5D916A" d="M533.5,267.1c0,10.5-19,27-48.5,27c-12.7,0-23.3-3.2-31.2-7.7c-10.5-6-16.3-14.2-16.3-20.2
			c0-10.5,17.9-10.2,47.5-10.2c9.3,0,17.6,0,24.5,0.4C524.6,257.4,533.5,259.9,533.5,267.1z"/>
		<path fill="#5D916A" d="M533.6,267.2c0,10.5-19,27-48.5,27c-12.7,0-23.3-3.2-31.2-7.7c-10.5-6-16.3-14.2-16.3-20.2
			c0-10.5,17.9-10.2,47.5-10.2c9.3,0,17.6,0,24.5,0.4C524.6,257.5,533.6,260,533.6,267.2z"/>
		<path fill="#5D916A" d="M533.6,267.2c0,10.5-19,27-48.5,27c-12.7,0-23.3-3.2-31.2-7.7c-10.5-6-16.3-14.2-16.3-20.2
			c0-10.5,17.9-10.2,47.5-10.2c9.3,0,17.6,0,24.5,0.4C524.7,257.5,533.6,260,533.6,267.2z"/>
		<path fill="#5D916A" d="M533.7,267.2c0,10.5-19,27-48.5,27c-12.7,0-23.3-3.2-31.2-7.7c-10.5-6-16.3-14.2-16.3-20.2
			c0-10.5,17.9-10.2,47.5-10.2c9.3,0,17.6,0,24.5,0.4C524.8,257.5,533.7,260,533.7,267.2z"/>
		<path fill="#5D916A" d="M533.8,267.2c0,10.5-19,27-48.5,27c-12.7,0-23.3-3.2-31.2-7.7c-10.5-6-16.3-14.2-16.3-20.2
			c0-10.5,17.9-10.2,47.5-10.2c9.3,0,17.6,0,24.5,0.4C524.9,257.6,533.8,260,533.8,267.2z"/>
		<path fill="#5D916A" d="M533.9,267.3c0,10.5-19,27-48.5,27c-12.7,0-23.3-3.2-31.2-7.7c-10.5-6-16.3-14.2-16.3-20.2
			c0-10.5,17.9-10.2,47.5-10.2c9.3,0,17.6,0,24.5,0.4C525,257.6,533.9,260.1,533.9,267.3z"/>
		<path fill="#5D916A" d="M534,267.3c0,10.5-19,27-48.5,27c-12.7,0-23.3-3.2-31.2-7.7c-10.5-6-16.3-14.2-16.3-20.2
			c0-10.5,17.9-10.2,47.5-10.2c9.3,0,17.6,0,24.5,0.4C525,257.6,534,260.1,534,267.3z"/>
		<path fill="#5D916A" d="M534,267.3c0,10.5-19,27-48.5,27c-12.7,0-23.3-3.2-31.2-7.7c-10.5-6-16.3-14.2-16.3-20.2
			c0-10.5,17.9-10.2,47.5-10.2c9.3,0,17.6,0,24.5,0.4C525.1,257.6,534,260.1,534,267.3z"/>
		<path fill="#5D916A" d="M534.1,267.4c0,10.5-19,27-48.5,27c-12.7,0-23.3-3.2-31.2-7.7c-10.5-6-16.3-14.2-16.3-20.2
			c0-10.5,17.9-10.2,47.5-10.2c9.3,0,17.6,0,24.5,0.4C525.2,257.7,534.1,260.2,534.1,267.4z"/>
		<path fill="#5D916A" d="M534.2,267.4c0,10.5-19,27-48.5,27c-12.7,0-23.3-3.2-31.2-7.7c-10.5-6-16.3-14.2-16.3-20.2
			c0-10.5,17.9-10.2,47.5-10.2c9.3,0,17.6,0,24.5,0.4C525.3,257.7,534.2,260.2,534.2,267.4z"/>
		<path fill="#5D916A" d="M534.3,267.4c0,10.5-19,27-48.5,27c-12.7,0-23.3-3.2-31.2-7.7c-10.5-6-16.3-14.2-16.3-20.2
			c0-10.5,17.9-10.2,47.5-10.2c9.3,0,17.6,0,24.5,0.4C525.4,257.7,534.3,260.2,534.3,267.4z"/>
		<path fill="#5D916A" d="M534.3,267.5c0,10.5-19,27-48.5,27c-12.7,0-23.3-3.2-31.2-7.7c-10.5-6-16.3-14.2-16.3-20.2
			c0-10.5,17.9-10.2,47.5-10.2c9.3,0,17.6,0,24.5,0.4C525.4,257.8,534.3,260.3,534.3,267.5z"/>
		<path fill="#5D916A" d="M534.4,267.5c0,10.5-19,27-48.5,27c-12.7,0-23.2-3.2-31.2-7.7c-10.5-6-16.3-14.2-16.3-20.2
			c0-10.5,17.9-10.2,47.5-10.2c9.3,0,17.6,0,24.5,0.4C525.5,257.8,534.4,260.3,534.4,267.5z"/>
		<path fill="#5D916A" d="M534.5,267.5c0,10.5-19,27-48.5,27c-12.7,0-23.3-3.2-31.2-7.7c-10.5-6-16.3-14.2-16.3-20.2
			c0-10.5,17.9-10.2,47.5-10.2c9.3,0,17.6,0,24.5,0.4C525.6,257.8,534.5,260.3,534.5,267.5z"/>
		<path fill="#5D916A" d="M534.6,267.5c0,10.5-19,27-48.5,27c-12.7,0-23.3-3.2-31.2-7.7c-10.5-6-16.3-14.2-16.3-20.2
			c0-10.5,17.9-10.2,47.5-10.2c9.3,0,17.6,0,24.5,0.4C525.7,257.9,534.6,260.3,534.6,267.5z"/>
		<path fill="#5D916A" d="M534.7,267.6c0,10.5-19,27-48.5,27c-12.7,0-23.3-3.2-31.2-7.7c-10.5-6-16.3-14.2-16.3-20.2
			c0-10.5,17.9-10.2,47.5-10.2c9.3,0,17.6,0,24.5,0.4C525.8,257.9,534.7,260.4,534.7,267.6z"/>
		<path fill="#5D916A" d="M534.7,267.6c0,10.5-19,27-48.5,27c-12.7,0-23.3-3.2-31.2-7.7c-10.5-6-16.3-14.2-16.3-20.2
			c0-10.5,17.9-10.2,47.5-10.2c9.3,0,17.6,0,24.5,0.4C525.8,257.9,534.7,260.4,534.7,267.6z"/>
		<path fill="#5D916A" d="M534.8,267.6c0,10.5-19,27-48.5,27c-12.7,0-23.3-3.2-31.2-7.7c-10.5-6-16.3-14.2-16.3-20.2
			c0-10.5,17.9-10.2,47.5-10.2c9.3,0,17.6,0,24.5,0.4C525.9,257.9,534.8,260.4,534.8,267.6z"/>
		<path fill="#5D916A" d="M534.9,267.7c0,10.5-19,27-48.5,27c-12.7,0-23.3-3.2-31.2-7.7c-10.5-6-16.3-14.2-16.3-20.2
			c0-10.5,17.9-10.2,47.5-10.2c9.3,0,17.6,0,24.5,0.4C526,258,534.9,260.5,534.9,267.7z"/>
		<path fill="#5D916A" d="M535,267.7c0,10.5-19,27-48.5,27c-12.7,0-23.3-3.2-31.2-7.7c-10.5-6-16.3-14.2-16.3-20.2
			c0-10.5,17.9-10.2,47.5-10.2c9.3,0,17.6,0,24.5,0.4C526.1,258,535,260.5,535,267.7z"/>
		<path fill="#5D916A" d="M535.1,267.7c0,10.5-19,27-48.5,27c-12.7,0-23.3-3.2-31.2-7.7c-10.5-6-16.3-14.2-16.3-20.2
			c0-10.5,17.9-10.2,47.5-10.2c9.3,0,17.6,0,24.5,0.4C526.1,258,535.1,260.5,535.1,267.7z"/>
		<path fill="#5D916A" d="M535.1,267.8c0,10.5-19,27-48.5,27c-12.7,0-23.3-3.2-31.2-7.7c-10.5-6-16.3-14.2-16.3-20.2
			c0-10.5,17.9-10.2,47.5-10.2c9.3,0,17.6,0,24.5,0.4C526.2,258.1,535.1,260.6,535.1,267.8z"/>
		<path fill="#5D916A" d="M535.2,267.8c0,10.5-19,27-48.5,27c-12.7,0-23.3-3.2-31.2-7.7c-10.5-6-16.3-14.2-16.3-20.2
			c0-10.5,17.9-10.2,47.5-10.2c9.3,0,17.6,0,24.5,0.4C526.3,258.1,535.2,260.6,535.2,267.8z"/>
		<path fill="#5D916A" d="M535.3,267.8c0,10.5-19,27-48.5,27c-12.7,0-23.3-3.2-31.2-7.7c-10.5-6-16.3-14.2-16.3-20.2
			c0-10.5,17.9-10.2,47.5-10.2c9.3,0,17.6,0,24.5,0.4C526.4,258.1,535.3,260.6,535.3,267.8z"/>
		<path fill="#5D916A" d="M535.4,267.8c0,10.5-19,27-48.5,27c-12.7,0-23.3-3.2-31.2-7.7c-10.5-6-16.3-14.2-16.3-20.2
			c0-10.5,17.9-10.2,47.5-10.2c9.3,0,17.6,0,24.5,0.4C526.5,258.2,535.4,260.6,535.4,267.8z"/>
		<path fill="#5D916A" d="M535.5,267.9c0,10.5-19,27-48.5,27c-12.7,0-23.3-3.2-31.2-7.7c-10.5-6-16.3-14.2-16.3-20.2
			c0-10.5,17.9-10.2,47.5-10.2c9.3,0,17.6,0,24.5,0.4C526.5,258.2,535.5,260.7,535.5,267.9z"/>
		<path fill="#5D916A" d="M535.5,267.9c0,10.5-19,27-48.5,27c-12.7,0-23.3-3.2-31.2-7.7c-10.5-6-16.3-14.2-16.3-20.2
			c0-10.5,17.9-10.2,47.5-10.2c9.3,0,17.6,0,24.5,0.4C526.6,258.2,535.5,260.7,535.5,267.9z"/>
		<path fill="#5D916A" d="M535.6,267.9c0,10.5-19,27-48.5,27c-12.7,0-23.3-3.2-31.2-7.7c-10.5-6-16.3-14.2-16.3-20.2
			c0-10.5,17.9-10.2,47.5-10.2c9.3,0,17.6,0,24.5,0.4C526.7,258.2,535.6,260.7,535.6,267.9z"/>
		<path fill="#5D916A" d="M535.7,268c0,10.5-19,27-48.5,27c-12.7,0-23.3-3.2-31.2-7.7c-10.5-6-16.3-14.2-16.3-20.2
			c0-10.5,17.9-10.2,47.5-10.2c9.3,0,17.6,0,24.5,0.4C526.8,258.3,535.7,260.8,535.7,268z"/>
		<path fill="#5D916A" d="M535.8,268c0,10.5-19,27-48.5,27c-12.7,0-23.3-3.2-31.2-7.7c-10.5-6-16.3-14.2-16.3-20.2
			c0-10.5,17.9-10.2,47.5-10.2c9.3,0,17.6,0,24.5,0.4C526.9,258.3,535.8,260.8,535.8,268z"/>
		<path fill="#5D916A" d="M535.9,268c0,10.5-19,27-48.5,27c-12.7,0-23.3-3.2-31.2-7.7c-10.5-6-16.3-14.2-16.3-20.2
			c0-10.5,17.9-10.2,47.5-10.2c9.3,0,17.6,0,24.5,0.4C526.9,258.3,535.9,260.8,535.9,268z"/>
		<path fill="#5D916A" d="M535.9,268c0,10.5-19,27-48.5,27c-12.7,0-23.3-3.2-31.2-7.7c-10.5-6-16.3-14.2-16.3-20.2
			c0-10.5,17.9-10.2,47.5-10.2c9.3,0,17.6,0,24.5,0.4C527,258.4,535.9,260.8,535.9,268z"/>
		<path fill="#5D916A" d="M536,268.1c0,10.5-19,27-48.5,27c-12.7,0-23.3-3.2-31.2-7.7c-10.5-6-16.3-14.2-16.3-20.2
			c0-10.5,17.9-10.2,47.5-10.2c9.3,0,17.6,0,24.5,0.4C527.1,258.4,536,260.9,536,268.1z"/>
		<path fill="#5D916A" d="M536.1,268.1c0,10.5-19,27-48.5,27c-12.7,0-23.3-3.2-31.2-7.7c-10.5-6-16.3-14.2-16.3-20.2
			c0-10.5,17.9-10.2,47.5-10.2c9.3,0,17.6,0,24.5,0.4C527.2,258.4,536.1,260.9,536.1,268.1z"/>
		<path fill="#5D916A" d="M536.2,268.1c0,10.5-19,27-48.5,27c-12.7,0-23.3-3.2-31.2-7.7c-10.5-6-16.3-14.2-16.3-20.2
			c0-10.5,17.9-10.2,47.5-10.2c9.3,0,17.6,0,24.5,0.4C527.3,258.4,536.2,260.9,536.2,268.1z"/>
		<path fill="#5D916A" d="M536.2,268.2c0,10.5-19,27-48.5,27c-12.7,0-23.3-3.2-31.2-7.7c-10.5-6-16.3-14.2-16.3-20.2
			c0-10.5,17.9-10.2,47.5-10.2c9.3,0,17.6,0,24.5,0.4C527.3,258.5,536.2,261,536.2,268.2z"/>
		<path fill="#5D916A" d="M536.3,268.2c0,10.5-19,27-48.5,27c-12.7,0-23.3-3.2-31.2-7.7c-10.5-6-16.3-14.2-16.3-20.2
			c0-10.5,17.9-10.2,47.5-10.2c9.3,0,17.6,0,24.5,0.4C527.4,258.5,536.3,261,536.3,268.2z"/>
		<path fill="#5D916A" d="M536.4,268.2c0,10.5-19,27-48.5,27c-12.7,0-23.3-3.2-31.2-7.7c-10.5-6-16.3-14.2-16.3-20.2
			c0-10.5,17.9-10.2,47.5-10.2c9.3,0,17.6,0,24.5,0.4C527.5,258.5,536.4,261,536.4,268.2z"/>
		<path fill="#5D916A" d="M536.5,268.3c0,10.5-19,27-48.5,27c-12.7,0-23.3-3.2-31.2-7.7c-10.5-6-16.3-14.2-16.3-20.2
			c0-10.5,17.9-10.2,47.5-10.2c9.3,0,17.6,0,24.5,0.4C527.6,258.6,536.5,261.1,536.5,268.3z"/>
		<path fill="#5D916A" d="M536.6,268.3c0,10.5-19,27-48.5,27c-12.7,0-23.3-3.2-31.2-7.7c-10.5-6-16.3-14.2-16.3-20.2
			c0-10.5,17.9-10.2,47.5-10.2c9.3,0,17.6,0,24.5,0.4C527.7,258.6,536.6,261.1,536.6,268.3z"/>
		<path fill="#5D916A" d="M536.6,268.3c0,10.5-19,27-48.5,27c-12.7,0-23.3-3.2-31.2-7.7c-10.5-6-16.3-14.2-16.3-20.2
			c0-10.5,17.9-10.2,47.5-10.2c9.3,0,17.6,0,24.5,0.4C527.7,258.6,536.6,261.1,536.6,268.3z"/>
		<path fill="#5D916A" d="M536.7,268.3c0,10.5-19,27-48.5,27c-12.7,0-23.3-3.2-31.2-7.7c-10.5-6-16.3-14.2-16.3-20.2
			c0-10.5,17.9-10.2,47.5-10.2c9.3,0,17.6,0,24.5,0.4C527.8,258.7,536.7,261.1,536.7,268.3z"/>
		<path fill="#5D916A" d="M536.8,268.4c0,10.5-19,27-48.5,27c-12.7,0-23.3-3.2-31.2-7.7c-10.5-6-16.3-14.2-16.3-20.2
			c0-10.5,17.9-10.2,47.5-10.2c9.3,0,17.6,0,24.5,0.4C527.9,258.7,536.8,261.2,536.8,268.4z"/>
		<path fill="#5D916A" d="M536.9,268.4c0,10.5-19,27-48.5,27c-12.7,0-23.3-3.2-31.2-7.7c-10.5-6-16.3-14.2-16.3-20.2
			c0-10.5,17.9-10.2,47.5-10.2c9.3,0,17.6,0,24.5,0.4C528,258.7,536.9,261.2,536.9,268.4z"/>
		<path fill="#5D916A" d="M537,268.4c0,10.5-19,27-48.5,27c-12.7,0-23.3-3.2-31.2-7.7c-10.5-6-16.3-14.2-16.3-20.2
			c0-10.5,17.9-10.2,47.5-10.2c9.3,0,17.6,0,24.5,0.4C528.1,258.7,537,261.2,537,268.4z"/>
		<path fill="#5D916A" d="M537,268.5c0,10.5-19,27-48.5,27c-12.7,0-23.2-3.2-31.2-7.7c-10.5-6-16.3-14.2-16.3-20.2
			c0-10.5,17.9-10.2,47.5-10.2c9.3,0,17.6,0,24.5,0.4C528.1,258.8,537,261.3,537,268.5z"/>
		<path fill="#5D916A" d="M537.1,268.5c0,10.5-19,27-48.5,27c-12.7,0-23.3-3.2-31.2-7.7c-10.5-6-16.3-14.2-16.3-20.2
			c0-10.5,17.9-10.2,47.5-10.2c9.3,0,17.6,0,24.5,0.4C528.2,258.8,537.1,261.3,537.1,268.5z"/>
		<path fill="#5D916A" d="M537.2,268.5c0,10.5-19,27-48.5,27c-12.7,0-23.3-3.2-31.2-7.7c-10.5-6-16.3-14.2-16.3-20.2
			c0-10.5,17.9-10.2,47.5-10.2c9.3,0,17.6,0,24.5,0.4C528.3,258.8,537.2,261.3,537.2,268.5z"/>
		<path fill="#5D916A" d="M537.3,268.6c0,10.5-19,27-48.5,27c-12.7,0-23.3-3.2-31.2-7.7c-10.5-6-16.3-14.2-16.3-20.2
			c0-10.5,17.9-10.2,47.5-10.2c9.3,0,17.6,0,24.5,0.4C528.4,258.9,537.3,261.4,537.3,268.6z"/>
		<path fill="#5D916A" d="M537.4,268.6c0,10.5-19,27-48.5,27c-12.7,0-23.3-3.2-31.2-7.7c-10.5-6-16.3-14.2-16.3-20.2
			c0-10.5,17.9-10.2,47.5-10.2c9.3,0,17.6,0,24.5,0.4C528.4,258.9,537.4,261.4,537.4,268.6z"/>
		<path fill="#5D916A" d="M537.4,268.6c0,10.5-19,27-48.5,27c-12.7,0-23.3-3.2-31.2-7.7c-10.5-6-16.3-14.2-16.3-20.2
			c0-10.5,17.9-10.2,47.5-10.2c9.3,0,17.6,0,24.5,0.4C528.5,258.9,537.4,261.4,537.4,268.6z"/>
		<path fill="#5D916A" d="M537.5,268.6c0,10.5-19,27-48.5,27c-12.7,0-23.3-3.2-31.2-7.7c-10.5-6-16.3-14.2-16.3-20.2
			c0-10.5,17.9-10.2,47.5-10.2c9.3,0,17.6,0,24.5,0.4C528.6,259,537.5,261.4,537.5,268.6z"/>
		<path fill="#5D916A" d="M537.6,268.7c0,10.5-19,27-48.5,27c-12.7,0-23.3-3.2-31.2-7.7c-10.5-6-16.3-14.2-16.3-20.2
			c0-10.5,17.9-10.2,47.5-10.2c9.3,0,17.6,0,24.5,0.4C528.7,259,537.6,261.5,537.6,268.7z"/>
		<path fill="#5D916A" d="M537.7,268.7c0,10.5-19,27-48.5,27c-12.7,0-23.3-3.2-31.2-7.7c-10.5-6-16.3-14.2-16.3-20.2
			c0-10.5,17.9-10.2,47.5-10.2c9.3,0,17.6,0,24.5,0.4C528.8,259,537.7,261.5,537.7,268.7z"/>
		<path fill="#5D916A" d="M537.8,268.7c0,10.5-19,27-48.5,27c-12.7,0-23.3-3.2-31.2-7.7c-10.5-6-16.3-14.2-16.3-20.2
			c0-10.5,17.9-10.2,47.5-10.2c9.3,0,17.6,0,24.5,0.4C528.8,259,537.8,261.5,537.8,268.7z"/>
		<path fill="#5D916A" d="M537.8,268.8c0,10.5-19,27-48.5,27c-12.7,0-23.3-3.2-31.2-7.7c-10.5-6-16.3-14.2-16.3-20.2
			c0-10.5,17.9-10.2,47.5-10.2c9.3,0,17.6,0,24.5,0.4C528.9,259.1,537.8,261.6,537.8,268.8z"/>
		<path fill="#5D916A" d="M537.9,268.8c0,10.5-19,27-48.5,27c-12.7,0-23.3-3.2-31.2-7.7c-10.5-6-16.3-14.2-16.3-20.2
			c0-10.5,17.9-10.2,47.5-10.2c9.3,0,17.6,0,24.5,0.4C529,259.1,537.9,261.6,537.9,268.8z"/>
		<path fill="#5D916A" d="M538,268.8c0,10.5-19,27-48.5,27c-12.7,0-23.3-3.2-31.2-7.7c-10.5-6-16.3-14.2-16.3-20.2
			c0-10.5,17.9-10.2,47.5-10.2c9.3,0,17.6,0,24.5,0.4C529.1,259.1,538,261.6,538,268.8z"/>
		<path fill="#5D916A" d="M538.1,268.9c0,10.5-19,27-48.5,27c-12.7,0-23.3-3.2-31.2-7.7c-10.5-6-16.3-14.2-16.3-20.2
			c0-10.5,17.9-10.2,47.5-10.2c9.3,0,17.6,0,24.5,0.4C529.2,259.2,538.1,261.7,538.1,268.9z"/>
		<path fill="#5D916A" d="M538.1,268.9c0,10.5-19,27-48.5,27c-12.7,0-23.3-3.2-31.2-7.7c-10.5-6-16.3-14.2-16.3-20.2
			c0-10.5,17.9-10.2,47.5-10.2c9.3,0,17.6,0,24.5,0.4C529.2,259.2,538.1,261.7,538.1,268.9z"/>
		<path fill="#5D916A" d="M538.2,268.9c0,10.5-19,27-48.5,27c-12.7,0-23.3-3.2-31.2-7.7c-10.5-6-16.3-14.2-16.3-20.2
			c0-10.5,17.9-10.2,47.5-10.2c9.3,0,17.6,0,24.5,0.4C529.3,259.2,538.2,261.7,538.2,268.9z"/>
		<path fill="#5D916A" d="M538.3,268.9c0,10.5-19,27-48.5,27c-12.7,0-23.3-3.2-31.2-7.7c-10.5-6-16.3-14.2-16.3-20.2
			c0-10.5,17.9-10.2,47.5-10.2c9.3,0,17.6,0,24.5,0.4C529.4,259.2,538.3,261.7,538.3,268.9z"/>
		<path fill="#5D916A" d="M538.4,269c0,10.5-19,27-48.5,27c-12.7,0-23.3-3.2-31.2-7.7c-10.5-6-16.3-14.2-16.3-20.2
			c0-10.5,17.9-10.2,47.5-10.2c9.3,0,17.6,0,24.5,0.4C529.5,259.3,538.4,261.8,538.4,269z"/>
		<path fill="#5D916A" d="M538.5,269c0,10.5-19,27-48.5,27c-12.7,0-23.3-3.2-31.2-7.7c-10.5-6-16.3-14.2-16.3-20.2
			c0-10.5,17.9-10.2,47.5-10.2c9.3,0,17.6,0,24.5,0.4C529.6,259.3,538.5,261.8,538.5,269z"/>
		<path fill="#5D916A" d="M538.5,269c0,10.5-19,27-48.5,27c-12.7,0-23.3-3.2-31.2-7.7c-10.5-6-16.3-14.2-16.3-20.2
			c0-10.5,17.9-10.2,47.5-10.2c9.3,0,17.6,0,24.5,0.4C529.6,259.3,538.5,261.8,538.5,269z"/>
		<path fill="#5D916A" d="M538.6,269.1c0,10.5-19,27-48.5,27c-12.7,0-23.3-3.2-31.2-7.7c-10.5-6-16.3-14.2-16.3-20.2
			c0-10.5,17.9-10.2,47.5-10.2c9.3,0,17.6,0,24.5,0.4C529.7,259.4,538.6,261.9,538.6,269.1z"/>
		<path fill="#5D916A" d="M538.7,269.1c0,10.5-19,27-48.5,27c-12.7,0-23.3-3.2-31.2-7.7c-10.5-6-16.3-14.2-16.3-20.2
			c0-10.5,17.9-10.2,47.5-10.2c9.3,0,17.6,0,24.5,0.4C529.8,259.4,538.7,261.9,538.7,269.1z"/>
		<path fill="#5D916A" d="M538.8,269.1c0,10.5-19,27-48.5,27c-12.7,0-23.3-3.2-31.2-7.7c-10.5-6-16.3-14.2-16.3-20.2
			c0-10.5,17.9-10.2,47.5-10.2c9.3,0,17.6,0,24.5,0.4C529.9,259.4,538.8,261.9,538.8,269.1z"/>
		<path fill="#5D916A" d="M538.9,269.1c0,10.5-19,27-48.5,27c-12.7,0-23.3-3.2-31.2-7.7c-10.5-6-16.3-14.2-16.3-20.2
			c0-10.5,17.9-10.2,47.5-10.2c9.3,0,17.6,0,24.5,0.4C530,259.5,538.9,261.9,538.9,269.1z"/>
		<path fill="#5D916A" d="M538.9,269.2c0,10.5-19,27-48.5,27c-12.7,0-23.3-3.2-31.2-7.7c-10.5-6-16.3-14.2-16.3-20.2
			c0-10.5,17.9-10.2,47.5-10.2c9.3,0,17.6,0,24.5,0.4C530,259.5,538.9,262,538.9,269.2z"/>
		<path fill="#5D916A" d="M539,269.2c0,10.5-19,27-48.5,27c-12.7,0-23.3-3.2-31.2-7.7c-10.5-6-16.3-14.2-16.3-20.2
			c0-10.5,17.9-10.2,47.5-10.2c9.3,0,17.6,0,24.5,0.4C530.1,259.5,539,262,539,269.2z"/>
		<path fill="#5D916A" d="M539.1,269.2c0,10.5-19,27-48.5,27c-12.7,0-23.3-3.2-31.2-7.7c-10.5-6-16.3-14.2-16.3-20.2
			c0-10.5,17.9-10.2,47.5-10.2c9.3,0,17.6,0,24.5,0.4C530.2,259.5,539.1,262,539.1,269.2z"/>
		<path fill="#5D916A" d="M539.2,269.3c0,10.5-19,27-48.5,27c-12.7,0-23.3-3.2-31.2-7.7c-10.5-6-16.3-14.2-16.3-20.2
			c0-10.5,17.9-10.2,47.5-10.2c9.3,0,17.6,0,24.5,0.4C530.3,259.6,539.2,262.1,539.2,269.3z"/>
		<path fill="#5D916A" d="M539.3,269.3c0,10.5-19,27-48.5,27c-12.7,0-23.3-3.2-31.2-7.7c-10.5-6-16.3-14.2-16.3-20.2
			c0-10.5,17.9-10.2,47.5-10.2c9.3,0,17.6,0,24.5,0.4C530.3,259.6,539.3,262.1,539.3,269.3z"/>
		<path fill="#5D916A" d="M539.3,269.3c0,10.5-19,27-48.5,27c-12.7,0-23.3-3.2-31.2-7.7c-10.5-6-16.3-14.2-16.3-20.2
			c0-10.5,17.9-10.2,47.5-10.2c9.3,0,17.6,0,24.5,0.4C530.4,259.6,539.3,262.1,539.3,269.3z"/>
		<path fill="#5D916A" d="M539.4,269.4c0,10.5-19,27-48.5,27c-12.7,0-23.3-3.2-31.2-7.7c-10.5-6-16.3-14.2-16.3-20.2
			c0-10.5,17.9-10.2,47.5-10.2c9.3,0,17.6,0,24.5,0.4C530.5,259.7,539.4,262.2,539.4,269.4z"/>
		<path fill="#5D916A" d="M539.5,269.4c0,10.5-19,27-48.5,27c-12.7,0-23.3-3.2-31.2-7.7c-10.5-6-16.3-14.2-16.3-20.2
			c0-10.5,17.9-10.2,47.5-10.2c9.3,0,17.6,0,24.5,0.4C530.6,259.7,539.5,262.2,539.5,269.4z"/>
		<path fill="#5D916A" d="M539.6,269.4c0,10.5-19,27-48.5,27c-12.7,0-23.3-3.2-31.2-7.7c-10.5-6-16.3-14.2-16.3-20.2
			c0-10.5,17.9-10.2,47.5-10.2c9.3,0,17.6,0,24.5,0.4C530.7,259.7,539.6,262.2,539.6,269.4z"/>
		<path fill="#5D916A" d="M539.7,269.4c0,10.5-19,27-48.5,27c-12.7,0-23.2-3.2-31.2-7.7c-10.5-6-16.3-14.2-16.3-20.2
			c0-10.5,17.9-10.2,47.5-10.2c9.3,0,17.6,0,24.5,0.4C530.7,259.8,539.7,262.2,539.7,269.4z"/>
		<path fill="#5D916A" d="M539.7,269.5c0,10.5-19,27-48.5,27c-12.7,0-23.3-3.2-31.2-7.7c-10.5-6-16.3-14.2-16.3-20.2
			c0-10.5,17.9-10.2,47.5-10.2c9.3,0,17.6,0,24.5,0.4C530.8,259.8,539.7,262.3,539.7,269.5z"/>
		<path fill="#5D916A" d="M539.8,269.5c0,10.5-19,27-48.5,27c-12.7,0-23.3-3.2-31.2-7.7c-10.5-6-16.3-14.2-16.3-20.2
			c0-10.5,17.9-10.2,47.5-10.2c9.3,0,17.6,0,24.5,0.4C530.9,259.8,539.8,262.3,539.8,269.5z"/>
		<path fill="#5D916A" d="M539.9,269.5c0,10.5-19,27-48.5,27c-12.7,0-23.3-3.2-31.2-7.7c-10.5-6-16.3-14.2-16.3-20.2
			c0-10.5,17.9-10.2,47.5-10.2c9.3,0,17.6,0,24.5,0.4C531,259.8,539.9,262.3,539.9,269.5z"/>
		<path fill="#5D916A" d="M540,269.6c0,10.5-19,27-48.5,27c-12.7,0-23.3-3.2-31.2-7.7c-10.5-6-16.3-14.2-16.3-20.2
			c0-10.5,17.9-10.2,47.5-10.2c9.3,0,17.6,0,24.5,0.4C531.1,259.9,540,262.4,540,269.6z"/>
		<path fill="#5D916A" d="M540,269.6c0,10.5-19,27-48.5,27c-12.7,0-23.3-3.2-31.2-7.7c-10.5-6-16.3-14.2-16.3-20.2
			c0-10.5,17.9-10.2,47.5-10.2c9.3,0,17.6,0,24.5,0.4C531.1,259.9,540,262.4,540,269.6z"/>
		<path fill="#5D916A" d="M540.1,269.6c0,10.5-19,27-48.5,27c-12.7,0-23.3-3.2-31.2-7.7c-10.5-6-16.3-14.2-16.3-20.2
			c0-10.5,17.9-10.2,47.5-10.2c9.3,0,17.6,0,24.5,0.4C531.2,259.9,540.1,262.4,540.1,269.6z"/>
		<path fill="#5D916A" d="M540.2,269.7c0,10.5-19,27-48.5,27c-12.7,0-23.3-3.2-31.2-7.7c-10.5-6-16.3-14.2-16.3-20.2
			c0-10.5,17.9-10.2,47.5-10.2c9.3,0,17.6,0,24.5,0.4C531.3,260,540.2,262.5,540.2,269.7z"/>
		<path fill="#5D916A" d="M540.3,269.7c0,10.5-19,27-48.5,27c-12.7,0-23.3-3.2-31.2-7.7c-10.5-6-16.3-14.2-16.3-20.2
			c0-10.5,17.9-10.2,47.5-10.2c9.3,0,17.6,0,24.5,0.4C531.4,260,540.3,262.5,540.3,269.7z"/>
		<path fill="#5D916A" d="M540.4,269.7c0,10.5-19,27-48.5,27c-12.7,0-23.3-3.2-31.2-7.7c-10.5-6-16.3-14.2-16.3-20.2
			c0-10.5,17.9-10.2,47.5-10.2c9.3,0,17.6,0,24.5,0.4C531.5,260,540.4,262.5,540.4,269.7z"/>
		<path fill="#5D916A" d="M540.4,269.7c0,10.5-19,27-48.5,27c-12.7,0-23.3-3.2-31.2-7.7c-10.5-6-16.3-14.2-16.3-20.2
			c0-10.5,17.9-10.2,47.5-10.2c9.3,0,17.6,0,24.5,0.4C531.5,260.1,540.4,262.5,540.4,269.7z"/>
		<path fill="#5D916A" d="M540.5,269.8c0,10.5-19,27-48.5,27c-12.7,0-23.3-3.2-31.2-7.7c-10.5-6-16.3-14.2-16.3-20.2
			c0-10.5,17.9-10.2,47.5-10.2c9.3,0,17.6,0,24.5,0.4C531.6,260.1,540.5,262.6,540.5,269.8z"/>
		<path fill="#5D916A" d="M540.6,269.8c0,10.5-19,27-48.5,27c-12.7,0-23.3-3.2-31.2-7.7c-10.5-6-16.3-14.2-16.3-20.2
			c0-10.5,17.9-10.2,47.5-10.2c9.3,0,17.6,0,24.5,0.4C531.7,260.1,540.6,262.6,540.6,269.8z"/>
		<path fill="#5D916A" d="M540.7,269.8c0,10.5-19,27-48.5,27c-12.7,0-23.3-3.2-31.2-7.7c-10.5-6-16.3-14.2-16.3-20.2
			c0-10.5,17.9-10.2,47.5-10.2c9.3,0,17.6,0,24.5,0.4C531.8,260.1,540.7,262.6,540.7,269.8z"/>
		<path fill="#5D916A" d="M540.8,269.9c0,10.5-19,27-48.5,27c-12.7,0-23.3-3.2-31.2-7.7c-10.5-6-16.3-14.2-16.3-20.2
			c0-10.5,17.9-10.2,47.5-10.2c9.3,0,17.6,0,24.5,0.4C531.9,260.2,540.8,262.7,540.8,269.9z"/>
		<path fill="#5D916A" d="M540.8,269.9c0,10.5-19,27-48.5,27c-12.7,0-23.3-3.2-31.2-7.7c-10.5-6-16.3-14.2-16.3-20.2
			c0-10.5,17.9-10.2,47.5-10.2c9.3,0,17.6,0,24.5,0.4C531.9,260.2,540.8,262.7,540.8,269.9z"/>
		<path fill="#5D916A" d="M540.9,269.9c0,10.5-19,27-48.5,27c-12.7,0-23.3-3.2-31.2-7.7c-10.5-6-16.3-14.2-16.3-20.2
			c0-10.5,17.9-10.2,47.5-10.2c9.3,0,17.6,0,24.5,0.4C532,260.2,540.9,262.7,540.9,269.9z"/>
		<path fill="#5D916A" d="M541,270c0,10.5-19,27-48.5,27c-12.7,0-23.3-3.2-31.2-7.7c-10.5-6-16.3-14.2-16.3-20.2
			c0-10.5,17.9-10.2,47.5-10.2c9.3,0,17.6,0,24.5,0.4C532.1,260.3,541,262.8,541,270z"/>
	</g>
	<polygon fill="#B5B535" points="556,150 556,207 509,207 509,191 529,191 529,164 509,164 509,150 	"/>
	<path fill="#BC7326" d="M325,399c0-13.1-12.1-24-27-24h-41c-14.9,0-27,10.9-27,24l0,0c0,13.1,12.1,24,27,24h41
		C312.9,423,325,412.1,325,399L325,399z"/>
	<path fill="#CB265B" d="M190.3,124c-29.8-1.1,8.2,40-6,40c-8.8,0-35-10.8-48.5-21.1c-8.3-6.3-11.8-12.5-3.5-15.9
		c27.6-11.4,6.7-70.7,29.3-45c0.5,0.6,1.1,1.2,1.8,1.9C175.6,95.9,215,125,190.3,124z"/>
	<path fill="#B99A6F" d="M576,266v120h62V266H576z M626,363h-39v-75h39V363z"/>
	<path fill="#6EAF80" d="M541,270c0,10.5-19,27-48.5,27c-12.7,0-23.3-3.2-31.2-7.7c-10.5-6-16.3-14.2-16.3-20.2
		c0-10.5,17.9-10.2,47.5-10.2c9.3,0,17.6,0,24.5,0.4C532.1,260.3,541,262.8,541,270z"/>
	<polygon fill="#D9DE3E" points="556,150 556,207 509,207 509,191 529,191 529,164 509,164 509,150 	"/>
	<path fill="#DE912F" d="M325,399c0-13.1-12.1-24-27-24h-41c-14.9,0-27,10.9-27,24l0,0c0,13.1,12.1,24,27,24h41
		C312.9,423,325,412.1,325,399L325,399z"/>
	<polygon fill="#BC7326" points="509.2,408 531,370.3 552.8,408 	"/>
	<polygon fill="#DE912F" points="519.4,408 531,370.3 552.8,408 	"/>
	<polygon fill="#BC7326" points="471.2,408 493,370.3 514.8,408 	"/>
	<polygon fill="#DE912F" points="481.4,408 493,370.3 514.8,408 	"/>
	<polygon fill="#BC7326" points="434.2,408 456,370.3 477.8,408 	"/>
	<polygon fill="#DE912F" points="444.4,408 456,370.3 477.8,408 	"/>
	<polygon fill="#E1D33D" points="174,316.5 180,320.4 180,228.5 174,224.6 	"/>
	<rect x="180" y="228" fill="#F7EC41" width="47" height="92"/>
	<polygon fill="#F7EF9F" points="221.2,225 173.1,225 179.8,228 227.9,228 	"/>
	<g>
		<g>
			<g>
				<path fill="#AD59C7" d="M329,325.4c0,2.4-11.1,4.3-24.8,4.3c-5.4,0-10.4-0.3-14.5-0.8c-6.2-0.8-10.2-2-10.2-3.5
					c0-0.5,0.4-0.9,1.2-1.3c0.9-0.5,2.4-0.9,4.2-1.3c1.3-0.3,2.8-0.5,4.5-0.8c2.8-0.4,6.1-0.6,9.6-0.8c1.7-0.1,3.4-0.1,5.2-0.1
					c1.8,0,3.5,0,5.2,0.1c5.7,0.2,10.7,0.8,14.2,1.5c1.8,0.4,3.2,0.8,4.2,1.3C328.6,324.5,329,324.9,329,325.4z"/>
				<path fill="#AD59C7" d="M329,324.4c0,2.4-11.1,4.3-24.8,4.3c-5.4,0-10.4-0.3-14.5-0.8c-6.2-0.8-10.2-2-10.2-3.5
					c0-0.5,0.4-0.9,1.2-1.3c0.9-0.5,2.4-0.9,4.2-1.3c1.3-0.3,2.8-0.5,4.5-0.8c2.8-0.4,6.1-0.6,9.6-0.8c1.7-0.1,3.4-0.1,5.2-0.1
					c1.8,0,3.5,0,5.2,0.1c5.7,0.2,10.7,0.8,14.2,1.5c1.8,0.4,3.2,0.8,4.2,1.3C328.6,323.5,329,323.9,329,324.4z"/>
				<path fill="#AD59C7" d="M329,323.4c0,2.4-11.1,4.3-24.8,4.3c-5.4,0-10.4-0.3-14.5-0.8c-6.2-0.8-10.2-2-10.2-3.5
					c0-0.5,0.4-0.9,1.2-1.3c0.9-0.5,2.4-0.9,4.2-1.3c1.3-0.3,2.8-0.5,4.5-0.8c2.8-0.4,6.1-0.6,9.6-0.8c1.7-0.1,3.4-0.1,5.2-0.1
					c1.8,0,3.5,0,5.2,0.1c5.7,0.2,10.7,0.8,14.2,1.5c1.8,0.4,3.2,0.8,4.2,1.3C328.6,322.5,329,322.9,329,323.4z"/>
				<path fill="#AD59C7" d="M329,322.4c0,2.4-11.1,4.3-24.8,4.3c-5.4,0-10.4-0.3-14.5-0.8c-6.2-0.8-10.2-2-10.2-3.5
					c0-0.5,0.4-0.9,1.2-1.3c0.9-0.5,2.4-0.9,4.2-1.3c1.3-0.3,2.8-0.5,4.5-0.8c2.8-0.4,6.1-0.6,9.6-0.8c1.7-0.1,3.4-0.1,5.2-0.1
					c1.8,0,3.5,0,5.2,0.1c5.7,0.2,10.7,0.8,14.2,1.5c1.8,0.4,3.2,0.8,4.2,1.3C328.6,321.5,329,321.9,329,322.4z"/>
				<path fill="#AD59C7" d="M329,321.4c0,2.4-11.1,4.3-24.8,4.3c-5.4,0-10.4-0.3-14.5-0.8c-6.2-0.8-10.2-2-10.2-3.5
					c0-0.5,0.4-0.9,1.2-1.3c0.9-0.5,2.4-0.9,4.2-1.3c1.3-0.3,2.8-0.5,4.5-0.8c2.8-0.4,6.1-0.6,9.6-0.8c1.7-0.1,3.4-0.1,5.2-0.1
					c1.8,0,3.5,0,5.2,0.1c5.7,0.2,10.7,0.8,14.2,1.5c1.8,0.4,3.2,0.8,4.2,1.3C328.6,320.5,329,320.9,329,321.4z"/>
				<path fill="#AD59C7" d="M329,320.4c0,2.4-11.1,4.3-24.8,4.3c-5.4,0-10.4-0.3-14.5-0.8c-6.2-0.8-10.2-2-10.2-3.5
					c0-0.5,0.4-0.9,1.2-1.3c0.9-0.5,2.4-0.9,4.2-1.3c1.3-0.3,2.8-0.5,4.5-0.8c2.8-0.4,6.1-0.6,9.6-0.8c1.7-0.1,3.4-0.1,5.2-0.1
					c1.8,0,3.5,0,5.2,0.1c5.7,0.2,10.7,0.8,14.2,1.5c1.8,0.4,3.2,0.8,4.2,1.3C328.6,319.5,329,319.9,329,320.4z"/>
				<path fill="#AD59C7" d="M329,319.4c0,2.4-11.1,4.3-24.8,4.3c-5.4,0-10.4-0.3-14.5-0.8c-6.2-0.8-10.2-2-10.2-3.5
					c0-0.5,0.4-0.9,1.2-1.3c0.9-0.5,2.4-0.9,4.2-1.3c1.3-0.3,2.8-0.5,4.5-0.8c2.8-0.4,6.1-0.6,9.6-0.8c1.7-0.1,3.4-0.1,5.2-0.1
					c1.8,0,3.5,0,5.2,0.1c5.7,0.2,10.7,0.8,14.2,1.5c1.8,0.4,3.2,0.8,4.2,1.3C328.6,318.5,329,318.9,329,319.4z"/>
				<path fill="#AD59C7" d="M329,318.4c0,2.4-11.1,4.3-24.8,4.3c-5.4,0-10.4-0.3-14.5-0.8c-6.2-0.8-10.2-2-10.2-3.5
					c0-0.5,0.4-0.9,1.2-1.3c0.9-0.5,2.4-0.9,4.2-1.3c1.3-0.3,2.8-0.5,4.5-0.8c2.8-0.4,6.1-0.6,9.6-0.8c1.7-0.1,3.4-0.1,5.2-0.1
					c1.8,0,3.5,0,5.2,0.1c5.7,0.2,10.7,0.8,14.2,1.5c1.8,0.4,3.2,0.8,4.2,1.3C328.6,317.4,329,317.9,329,318.4z"/>
				<path fill="#AD59C7" d="M329,317.4c0,2.4-11.1,4.3-24.8,4.3c-5.4,0-10.4-0.3-14.5-0.8c-6.2-0.8-10.2-2-10.2-3.5
					c0-0.5,0.4-0.9,1.2-1.3c0.9-0.5,2.4-0.9,4.2-1.3c1.3-0.3,2.8-0.5,4.5-0.8c2.8-0.4,6.1-0.6,9.6-0.8c1.7-0.1,3.4-0.1,5.2-0.1
					c1.8,0,3.5,0,5.2,0.1c5.7,0.2,10.7,0.8,14.2,1.5c1.8,0.4,3.2,0.8,4.2,1.3C328.6,316.4,329,316.9,329,317.4z"/>
			</g>
			<path fill="#D769F4" d="M329,317.4c0,2.4-11.1,4.3-24.8,4.3c-5.4,0-10.4-0.3-14.5-0.8c-6.2-0.8-10.2-2-10.2-3.5
				c0-0.5,0.4-0.9,1.2-1.3c0.9-0.5,2.4-0.9,4.2-1.3c1.3-0.3,2.8-0.5,4.5-0.8c2.8-0.4,6.1-0.6,9.6-0.8c1.7-0.1,3.4-0.1,5.2-0.1
				c1.8,0,3.5,0,5.2,0.1c5.7,0.2,10.7,0.8,14.2,1.5c1.8,0.4,3.2,0.8,4.2,1.3C328.6,316.4,329,316.9,329,317.4z"/>
		</g>
		<g>
			<g>
				<path fill="#AD59C7" d="M329,313.6c0,2.4-11.1,4.3-24.8,4.3c-5.4,0-10.4-0.3-14.5-0.8c-6.2-0.8-10.2-2-10.2-3.5
					c0-0.5,0.4-0.9,1.2-1.3c0.9-0.5,2.4-0.9,4.2-1.3c1.3-0.3,2.8-0.5,4.5-0.8c2.8-0.4,6.1-0.6,9.6-0.8c1.7-0.1,3.4-0.1,5.2-0.1
					c1.8,0,3.5,0,5.2,0.1c5.7,0.2,10.7,0.8,14.2,1.5c1.8,0.4,3.2,0.8,4.2,1.3C328.6,312.7,329,313.2,329,313.6z"/>
				<path fill="#AD59C7" d="M329,312.6c0,2.4-11.1,4.3-24.8,4.3c-5.4,0-10.4-0.3-14.5-0.8c-6.2-0.8-10.2-2-10.2-3.5
					c0-0.5,0.4-0.9,1.2-1.3c0.9-0.5,2.4-0.9,4.2-1.3c1.3-0.3,2.8-0.5,4.5-0.8c2.8-0.4,6.1-0.6,9.6-0.8c1.7-0.1,3.4-0.1,5.2-0.1
					c1.8,0,3.5,0,5.2,0.1c5.7,0.2,10.7,0.8,14.2,1.5c1.8,0.4,3.2,0.8,4.2,1.3C328.6,311.7,329,312.1,329,312.6z"/>
				<path fill="#AD59C7" d="M329,311.6c0,2.4-11.1,4.3-24.8,4.3c-5.4,0-10.4-0.3-14.5-0.8c-6.2-0.8-10.2-2-10.2-3.5
					c0-0.5,0.4-0.9,1.2-1.3c0.9-0.5,2.4-0.9,4.2-1.3c1.3-0.3,2.8-0.5,4.5-0.8c2.8-0.4,6.1-0.6,9.6-0.8c1.7-0.1,3.4-0.1,5.2-0.1
					c1.8,0,3.5,0,5.2,0.1c5.7,0.2,10.7,0.8,14.2,1.5c1.8,0.4,3.2,0.8,4.2,1.3C328.6,310.7,329,311.1,329,311.6z"/>
				<path fill="#AD59C7" d="M329,310.6c0,2.4-11.1,4.3-24.8,4.3c-5.4,0-10.4-0.3-14.5-0.8c-6.2-0.8-10.2-2-10.2-3.5
					c0-0.5,0.4-0.9,1.2-1.3c0.9-0.5,2.4-0.9,4.2-1.3c1.3-0.3,2.8-0.5,4.5-0.8c2.8-0.4,6.1-0.6,9.6-0.8c1.7-0.1,3.4-0.1,5.2-0.1
					c1.8,0,3.5,0,5.2,0.1c5.7,0.2,10.7,0.8,14.2,1.5c1.8,0.4,3.2,0.8,4.2,1.3C328.6,309.7,329,310.1,329,310.6z"/>
				<path fill="#AD59C7" d="M329,309.6c0,2.4-11.1,4.3-24.8,4.3c-5.4,0-10.4-0.3-14.5-0.8c-6.2-0.8-10.2-2-10.2-3.5
					c0-0.5,0.4-0.9,1.2-1.3c0.9-0.5,2.4-0.9,4.2-1.3c1.3-0.3,2.8-0.5,4.5-0.8c2.8-0.4,6.1-0.6,9.6-0.8c1.7-0.1,3.4-0.1,5.2-0.1
					c1.8,0,3.5,0,5.2,0.1c5.7,0.2,10.7,0.8,14.2,1.5c1.8,0.4,3.2,0.8,4.2,1.3C328.6,308.7,329,309.1,329,309.6z"/>
				<path fill="#AD59C7" d="M329,308.6c0,2.4-11.1,4.3-24.8,4.3c-5.4,0-10.4-0.3-14.5-0.8c-6.2-0.8-10.2-2-10.2-3.5
					c0-0.5,0.4-0.9,1.2-1.3c0.9-0.5,2.4-0.9,4.2-1.3c1.3-0.3,2.8-0.5,4.5-0.8c2.8-0.4,6.1-0.6,9.6-0.8c1.7-0.1,3.4-0.1,5.2-0.1
					c1.8,0,3.5,0,5.2,0.1c5.7,0.2,10.7,0.8,14.2,1.5c1.8,0.4,3.2,0.8,4.2,1.3C328.6,307.7,329,308.1,329,308.6z"/>
				<path fill="#AD59C7" d="M329,307.6c0,2.4-11.1,4.3-24.8,4.3c-5.4,0-10.4-0.3-14.5-0.8c-6.2-0.8-10.2-2-10.2-3.5
					c0-0.5,0.4-0.9,1.2-1.3c0.9-0.5,2.4-0.9,4.2-1.3c1.3-0.3,2.8-0.5,4.5-0.8c2.8-0.4,6.1-0.6,9.6-0.8c1.7-0.1,3.4-0.1,5.2-0.1
					c1.8,0,3.5,0,5.2,0.1c5.7,0.2,10.7,0.8,14.2,1.5c1.8,0.4,3.2,0.8,4.2,1.3C328.6,306.7,329,307.1,329,307.6z"/>
				<path fill="#AD59C7" d="M329,306.6c0,2.4-11.1,4.3-24.8,4.3c-5.4,0-10.4-0.3-14.5-0.8c-6.2-0.8-10.2-2-10.2-3.5
					c0-0.5,0.4-0.9,1.2-1.3c0.9-0.5,2.4-0.9,4.2-1.3c1.3-0.3,2.8-0.5,4.5-0.8c2.8-0.4,6.1-0.6,9.6-0.8c1.7-0.1,3.4-0.1,5.2-0.1
					c1.8,0,3.5,0,5.2,0.1c5.7,0.2,10.7,0.8,14.2,1.5c1.8,0.4,3.2,0.8,4.2,1.3C328.6,305.7,329,306.1,329,306.6z"/>
				<path fill="#AD59C7" d="M329,305.6c0,2.4-11.1,4.3-24.8,4.3c-5.4,0-10.4-0.3-14.5-0.8c-6.2-0.8-10.2-2-10.2-3.5
					c0-0.5,0.4-0.9,1.2-1.3c0.9-0.5,2.4-0.9,4.2-1.3c1.3-0.3,2.8-0.5,4.5-0.8c2.8-0.4,6.1-0.6,9.6-0.8c1.7-0.1,3.4-0.1,5.2-0.1
					c1.8,0,3.5,0,5.2,0.1c5.7,0.2,10.7,0.8,14.2,1.5c1.8,0.4,3.2,0.8,4.2,1.3C328.6,304.7,329,305.1,329,305.6z"/>
			</g>
			<path fill="#D769F4" d="M329,305.6c0,2.4-11.1,4.3-24.8,4.3c-5.4,0-10.4-0.3-14.5-0.8c-6.2-0.8-10.2-2-10.2-3.5
				c0-0.5,0.4-0.9,1.2-1.3c0.9-0.5,2.4-0.9,4.2-1.3c1.3-0.3,2.8-0.5,4.5-0.8c2.8-0.4,6.1-0.6,9.6-0.8c1.7-0.1,3.4-0.1,5.2-0.1
				c1.8,0,3.5,0,5.2,0.1c5.7,0.2,10.7,0.8,14.2,1.5c1.8,0.4,3.2,0.8,4.2,1.3C328.6,304.7,329,305.1,329,305.6z"/>
		</g>
		<g>
			<g>
				<path fill="#AD59C7" d="M329,301.8c0,2.4-11.1,4.3-24.8,4.3c-5.4,0-10.4-0.3-14.5-0.8c-6.2-0.8-10.2-2-10.2-3.5
					c0-0.5,0.4-0.9,1.2-1.3c0.9-0.5,2.4-0.9,4.2-1.3c1.3-0.3,2.8-0.5,4.5-0.8c2.8-0.4,6.1-0.6,9.6-0.8c1.7-0.1,3.4-0.1,5.2-0.1
					c1.8,0,3.5,0,5.2,0.1c5.7,0.2,10.7,0.8,14.2,1.5c1.8,0.4,3.2,0.8,4.2,1.3C328.6,300.9,329,301.4,329,301.8z"/>
				<path fill="#AD59C7" d="M329,300.8c0,2.4-11.1,4.3-24.8,4.3c-5.4,0-10.4-0.3-14.5-0.8c-6.2-0.8-10.2-2-10.2-3.5
					c0-0.5,0.4-0.9,1.2-1.3c0.9-0.5,2.4-0.9,4.2-1.3c1.3-0.3,2.8-0.5,4.5-0.8c2.8-0.4,6.1-0.6,9.6-0.8c1.7-0.1,3.4-0.1,5.2-0.1
					c1.8,0,3.5,0,5.2,0.1c5.7,0.2,10.7,0.8,14.2,1.5c1.8,0.4,3.2,0.8,4.2,1.3C328.6,299.9,329,300.4,329,300.8z"/>
				<path fill="#AD59C7" d="M329,299.8c0,2.4-11.1,4.3-24.8,4.3c-5.4,0-10.4-0.3-14.5-0.8c-6.2-0.8-10.2-2-10.2-3.5
					c0-0.5,0.4-0.9,1.2-1.3c0.9-0.5,2.4-0.9,4.2-1.3c1.3-0.3,2.8-0.5,4.5-0.8c2.8-0.4,6.1-0.6,9.6-0.8c1.7-0.1,3.4-0.1,5.2-0.1
					c1.8,0,3.5,0,5.2,0.1c5.7,0.2,10.7,0.8,14.2,1.5c1.8,0.4,3.2,0.8,4.2,1.3C328.6,298.9,329,299.4,329,299.8z"/>
				<path fill="#AD59C7" d="M329,298.8c0,2.4-11.1,4.3-24.8,4.3c-5.4,0-10.4-0.3-14.5-0.8c-6.2-0.8-10.2-2-10.2-3.5
					c0-0.5,0.4-0.9,1.2-1.3c0.9-0.5,2.4-0.9,4.2-1.3c1.3-0.3,2.8-0.5,4.5-0.8c2.8-0.4,6.1-0.6,9.6-0.8c1.7-0.1,3.4-0.1,5.2-0.1
					c1.8,0,3.5,0,5.2,0.1c5.7,0.2,10.7,0.8,14.2,1.5c1.8,0.4,3.2,0.8,4.2,1.3C328.6,297.9,329,298.4,329,298.8z"/>
				<path fill="#AD59C7" d="M329,297.8c0,2.4-11.1,4.3-24.8,4.3c-5.4,0-10.4-0.3-14.5-0.8c-6.2-0.8-10.2-2-10.2-3.5
					c0-0.5,0.4-0.9,1.2-1.3c0.9-0.5,2.4-0.9,4.2-1.3c1.3-0.3,2.8-0.5,4.5-0.8c2.8-0.4,6.1-0.6,9.6-0.8c1.7-0.1,3.4-0.1,5.2-0.1
					c1.8,0,3.5,0,5.2,0.1c5.7,0.2,10.7,0.8,14.2,1.5c1.8,0.4,3.2,0.8,4.2,1.3C328.6,296.9,329,297.3,329,297.8z"/>
				<path fill="#AD59C7" d="M329,296.8c0,2.4-11.1,4.3-24.8,4.3c-5.4,0-10.4-0.3-14.5-0.8c-6.2-0.8-10.2-2-10.2-3.5
					c0-0.5,0.4-0.9,1.2-1.3c0.9-0.5,2.4-0.9,4.2-1.3c1.3-0.3,2.8-0.5,4.5-0.8c2.8-0.4,6.1-0.6,9.6-0.8c1.7-0.1,3.4-0.1,5.2-0.1
					c1.8,0,3.5,0,5.2,0.1c5.7,0.2,10.7,0.8,14.2,1.5c1.8,0.4,3.2,0.8,4.2,1.3C328.6,295.9,329,296.3,329,296.8z"/>
				<path fill="#AD59C7" d="M329,295.8c0,2.4-11.1,4.3-24.8,4.3c-5.4,0-10.4-0.3-14.5-0.8c-6.2-0.8-10.2-2-10.2-3.5
					c0-0.5,0.4-0.9,1.2-1.3c0.9-0.5,2.4-0.9,4.2-1.3c1.3-0.3,2.8-0.5,4.5-0.8c2.8-0.4,6.1-0.6,9.6-0.8c1.7-0.1,3.4-0.1,5.2-0.1
					c1.8,0,3.5,0,5.2,0.1c5.7,0.2,10.7,0.8,14.2,1.5c1.8,0.4,3.2,0.8,4.2,1.3C328.6,294.9,329,295.3,329,295.8z"/>
				<path fill="#AD59C7" d="M329,294.8c0,2.4-11.1,4.3-24.8,4.3c-5.4,0-10.4-0.3-14.5-0.8c-6.2-0.8-10.2-2-10.2-3.5
					c0-0.5,0.4-0.9,1.2-1.3c0.9-0.5,2.4-0.9,4.2-1.3c1.3-0.3,2.8-0.5,4.5-0.8c2.8-0.4,6.1-0.6,9.6-0.8c1.7-0.1,3.4-0.1,5.2-0.1
					c1.8,0,3.5,0,5.2,0.1c5.7,0.2,10.7,0.8,14.2,1.5c1.8,0.4,3.2,0.8,4.2,1.3C328.6,293.9,329,294.3,329,294.8z"/>
				<path fill="#AD59C7" d="M329,293.8c0,2.4-11.1,4.3-24.8,4.3c-5.4,0-10.4-0.3-14.5-0.8c-6.2-0.8-10.2-2-10.2-3.5
					c0-0.5,0.4-0.9,1.2-1.3c0.9-0.5,2.4-0.9,4.2-1.3c1.3-0.3,2.8-0.5,4.5-0.8c2.8-0.4,6.1-0.6,9.6-0.8c1.7-0.1,3.4-0.1,5.2-0.1
					c1.8,0,3.5,0,5.2,0.1c5.7,0.2,10.7,0.8,14.2,1.5c1.8,0.4,3.2,0.8,4.2,1.3C328.6,292.9,329,293.3,329,293.8z"/>
			</g>
			<path fill="#D769F4" d="M329,293.8c0,2.4-11.1,4.3-24.8,4.3c-5.4,0-10.4-0.3-14.5-0.8c-6.2-0.8-10.2-2-10.2-3.5
				c0-0.5,0.4-0.9,1.2-1.3c0.9-0.5,2.4-0.9,4.2-1.3c1.3-0.3,2.8-0.5,4.5-0.8c2.8-0.4,6.1-0.6,9.6-0.8c1.7-0.1,3.4-0.1,5.2-0.1
				c1.8,0,3.5,0,5.2,0.1c5.7,0.2,10.7,0.8,14.2,1.5c1.8,0.4,3.2,0.8,4.2,1.3C328.6,292.9,329,293.3,329,293.8z"/>
		</g>
		<g>
			<g>
				<path fill="#AD59C7" d="M329,290.1c0,2.4-11.1,4.3-24.8,4.3c-5.4,0-10.4-0.3-14.5-0.8c-6.2-0.8-10.2-2-10.2-3.5
					c0-0.5,0.4-0.9,1.2-1.3c0.9-0.5,2.4-0.9,4.2-1.3c1.3-0.3,2.8-0.5,4.5-0.8c2.8-0.4,6.1-0.6,9.6-0.8c1.7-0.1,3.4-0.1,5.2-0.1
					c1.8,0,3.5,0,5.2,0.1c5.7,0.2,10.7,0.8,14.2,1.5c1.8,0.4,3.2,0.8,4.2,1.3C328.6,289.1,329,289.6,329,290.1z"/>
				<path fill="#AD59C7" d="M329,289.1c0,2.4-11.1,4.3-24.8,4.3c-5.4,0-10.4-0.3-14.5-0.8c-6.2-0.8-10.2-2-10.2-3.5
					c0-0.5,0.4-0.9,1.2-1.3c0.9-0.5,2.4-0.9,4.2-1.3c1.3-0.3,2.8-0.5,4.5-0.8c2.8-0.4,6.1-0.6,9.6-0.8c1.7-0.1,3.4-0.1,5.2-0.1
					c1.8,0,3.5,0,5.2,0.1c5.7,0.2,10.7,0.8,14.2,1.5c1.8,0.4,3.2,0.8,4.2,1.3C328.6,288.1,329,288.6,329,289.1z"/>
				<path fill="#AD59C7" d="M329,288c0,2.4-11.1,4.3-24.8,4.3c-5.4,0-10.4-0.3-14.5-0.8c-6.2-0.8-10.2-2-10.2-3.5
					c0-0.5,0.4-0.9,1.2-1.3c0.9-0.5,2.4-0.9,4.2-1.3c1.3-0.3,2.8-0.5,4.5-0.8c2.8-0.4,6.1-0.6,9.6-0.8c1.7-0.1,3.4-0.1,5.2-0.1
					c1.8,0,3.5,0,5.2,0.1c5.7,0.2,10.7,0.8,14.2,1.5c1.8,0.4,3.2,0.8,4.2,1.3C328.6,287.1,329,287.6,329,288z"/>
				<path fill="#AD59C7" d="M329,287c0,2.4-11.1,4.3-24.8,4.3c-5.4,0-10.4-0.3-14.5-0.8c-6.2-0.8-10.2-2-10.2-3.5
					c0-0.5,0.4-0.9,1.2-1.3c0.9-0.5,2.4-0.9,4.2-1.3c1.3-0.3,2.8-0.5,4.5-0.8c2.8-0.4,6.1-0.6,9.6-0.8c1.7-0.1,3.4-0.1,5.2-0.1
					c1.8,0,3.5,0,5.2,0.1c5.7,0.2,10.7,0.8,14.2,1.5c1.8,0.4,3.2,0.8,4.2,1.3C328.6,286.1,329,286.6,329,287z"/>
				<path fill="#AD59C7" d="M329,286c0,2.4-11.1,4.3-24.8,4.3c-5.4,0-10.4-0.3-14.5-0.8c-6.2-0.8-10.2-2-10.2-3.5
					c0-0.5,0.4-0.9,1.2-1.3c0.9-0.5,2.4-0.9,4.2-1.3c1.3-0.3,2.8-0.5,4.5-0.8c2.8-0.4,6.1-0.6,9.6-0.8c1.7-0.1,3.4-0.1,5.2-0.1
					c1.8,0,3.5,0,5.2,0.1c5.7,0.2,10.7,0.8,14.2,1.5c1.8,0.4,3.2,0.8,4.2,1.3C328.6,285.1,329,285.6,329,286z"/>
				<path fill="#AD59C7" d="M329,285c0,2.4-11.1,4.3-24.8,4.3c-5.4,0-10.4-0.3-14.5-0.8c-6.2-0.8-10.2-2-10.2-3.5
					c0-0.5,0.4-0.9,1.2-1.3c0.9-0.5,2.4-0.9,4.2-1.3c1.3-0.3,2.8-0.5,4.5-0.8c2.8-0.4,6.1-0.6,9.6-0.8c1.7-0.1,3.4-0.1,5.2-0.1
					c1.8,0,3.5,0,5.2,0.1c5.7,0.2,10.7,0.8,14.2,1.5c1.8,0.4,3.2,0.8,4.2,1.3C328.6,284.1,329,284.6,329,285z"/>
				<path fill="#AD59C7" d="M329,284c0,2.4-11.1,4.3-24.8,4.3c-5.4,0-10.4-0.3-14.5-0.8c-6.2-0.8-10.2-2-10.2-3.5
					c0-0.5,0.4-0.9,1.2-1.3c0.9-0.5,2.4-0.9,4.2-1.3c1.3-0.3,2.8-0.5,4.5-0.8c2.8-0.4,6.1-0.6,9.6-0.8c1.7-0.1,3.4-0.1,5.2-0.1
					c1.8,0,3.5,0,5.2,0.1c5.7,0.2,10.7,0.8,14.2,1.5c1.8,0.4,3.2,0.8,4.2,1.3C328.6,283.1,329,283.6,329,284z"/>
				<path fill="#AD59C7" d="M329,283c0,2.4-11.1,4.3-24.8,4.3c-5.4,0-10.4-0.3-14.5-0.8c-6.2-0.8-10.2-2-10.2-3.5
					c0-0.5,0.4-0.9,1.2-1.3c0.9-0.5,2.4-0.9,4.2-1.3c1.3-0.3,2.8-0.5,4.5-0.8c2.8-0.4,6.1-0.6,9.6-0.8c1.7-0.1,3.4-0.1,5.2-0.1
					c1.8,0,3.5,0,5.2,0.1c5.7,0.2,10.7,0.8,14.2,1.5c1.8,0.4,3.2,0.8,4.2,1.3C328.6,282.1,329,282.5,329,283z"/>
				<path fill="#AD59C7" d="M329,282c0,2.4-11.1,4.3-24.8,4.3c-5.4,0-10.4-0.3-14.5-0.8c-6.2-0.8-10.2-2-10.2-3.5
					c0-0.5,0.4-0.9,1.2-1.3c0.9-0.5,2.4-0.9,4.2-1.3c1.3-0.3,2.8-0.5,4.5-0.8c2.8-0.4,6.1-0.6,9.6-0.8c1.7-0.1,3.4-0.1,5.2-0.1
					c1.8,0,3.5,0,5.2,0.1c5.7,0.2,10.7,0.8,14.2,1.5c1.8,0.4,3.2,0.8,4.2,1.3C328.6,281.1,329,281.5,329,282z"/>
			</g>
			<path fill="#D769F4" d="M329,282c0,2.4-11.1,4.3-24.8,4.3c-5.4,0-10.4-0.3-14.5-0.8c-6.2-0.8-10.2-2-10.2-3.5
				c0-0.5,0.4-0.9,1.2-1.3c0.9-0.5,2.4-0.9,4.2-1.3c1.3-0.3,2.8-0.5,4.5-0.8c2.8-0.4,6.1-0.6,9.6-0.8c1.7-0.1,3.4-0.1,5.2-0.1
				c1.8,0,3.5,0,5.2,0.1c5.7,0.2,10.7,0.8,14.2,1.5c1.8,0.4,3.2,0.8,4.2,1.3C328.6,281.1,329,281.5,329,282z"/>
		</g>
		<g>
			<g>
				<path fill="#AD59C7" d="M329,278.3c0,2.4-11.1,4.3-24.8,4.3c-5.4,0-10.4-0.3-14.5-0.8c-6.2-0.8-10.2-2-10.2-3.5
					c0-0.5,0.4-0.9,1.2-1.3c0.9-0.5,2.4-0.9,4.2-1.3c1.3-0.3,2.8-0.5,4.5-0.8c2.8-0.4,6.1-0.6,9.6-0.8c1.7-0.1,3.4-0.1,5.2-0.1
					c1.8,0,3.5,0,5.2,0.1c5.7,0.2,10.7,0.8,14.2,1.5c1.8,0.4,3.2,0.8,4.2,1.3C328.6,277.4,329,277.8,329,278.3z"/>
				<path fill="#AD59C7" d="M329,277.3c0,2.4-11.1,4.3-24.8,4.3c-5.4,0-10.4-0.3-14.5-0.8c-6.2-0.8-10.2-2-10.2-3.5
					c0-0.5,0.4-0.9,1.2-1.3c0.9-0.5,2.4-0.9,4.2-1.3c1.3-0.3,2.8-0.5,4.5-0.8c2.8-0.4,6.1-0.6,9.6-0.8c1.7-0.1,3.4-0.1,5.2-0.1
					c1.8,0,3.5,0,5.2,0.1c5.7,0.2,10.7,0.8,14.2,1.5c1.8,0.4,3.2,0.8,4.2,1.3C328.6,276.3,329,276.8,329,277.3z"/>
				<path fill="#AD59C7" d="M329,276.3c0,2.4-11.1,4.3-24.8,4.3c-5.4,0-10.4-0.3-14.5-0.8c-6.2-0.8-10.2-2-10.2-3.5
					c0-0.5,0.4-0.9,1.2-1.3c0.9-0.5,2.4-0.9,4.2-1.3c1.3-0.3,2.8-0.5,4.5-0.8c2.8-0.4,6.1-0.6,9.6-0.8c1.7-0.1,3.4-0.1,5.2-0.1
					c1.8,0,3.5,0,5.2,0.1c5.7,0.2,10.7,0.8,14.2,1.5c1.8,0.4,3.2,0.8,4.2,1.3C328.6,275.3,329,275.8,329,276.3z"/>
				<path fill="#AD59C7" d="M329,275.3c0,2.4-11.1,4.3-24.8,4.3c-5.4,0-10.4-0.3-14.5-0.8c-6.2-0.8-10.2-2-10.2-3.5
					c0-0.5,0.4-0.9,1.2-1.3c0.9-0.5,2.4-0.9,4.2-1.3c1.3-0.3,2.8-0.5,4.5-0.8c2.8-0.4,6.1-0.6,9.6-0.8c1.7-0.1,3.4-0.1,5.2-0.1
					c1.8,0,3.5,0,5.2,0.1c5.7,0.2,10.7,0.8,14.2,1.5c1.8,0.4,3.2,0.8,4.2,1.3C328.6,274.3,329,274.8,329,275.3z"/>
				<path fill="#AD59C7" d="M329,274.3c0,2.4-11.1,4.3-24.8,4.3c-5.4,0-10.4-0.3-14.5-0.8c-6.2-0.8-10.2-2-10.2-3.5
					c0-0.5,0.4-0.9,1.2-1.3c0.9-0.5,2.4-0.9,4.2-1.3c1.3-0.3,2.8-0.5,4.5-0.8c2.8-0.4,6.1-0.6,9.6-0.8c1.7-0.1,3.4-0.1,5.2-0.1
					c1.8,0,3.5,0,5.2,0.1c5.7,0.2,10.7,0.8,14.2,1.5c1.8,0.4,3.2,0.8,4.2,1.3C328.6,273.3,329,273.8,329,274.3z"/>
				<path fill="#AD59C7" d="M329,273.2c0,2.4-11.1,4.3-24.8,4.3c-5.4,0-10.4-0.3-14.5-0.8c-6.2-0.8-10.2-2-10.2-3.5
					c0-0.5,0.4-0.9,1.2-1.3c0.9-0.5,2.4-0.9,4.2-1.3c1.3-0.3,2.8-0.5,4.5-0.8c2.8-0.4,6.1-0.6,9.6-0.8c1.7-0.1,3.4-0.1,5.2-0.1
					c1.8,0,3.5,0,5.2,0.1c5.7,0.2,10.7,0.8,14.2,1.5c1.8,0.4,3.2,0.8,4.2,1.3C328.6,272.3,329,272.8,329,273.2z"/>
				<path fill="#AD59C7" d="M329,272.2c0,2.4-11.1,4.3-24.8,4.3c-5.4,0-10.4-0.3-14.5-0.8c-6.2-0.8-10.2-2-10.2-3.5
					c0-0.5,0.4-0.9,1.2-1.3c0.9-0.5,2.4-0.9,4.2-1.3c1.3-0.3,2.8-0.5,4.5-0.8c2.8-0.4,6.1-0.6,9.6-0.8c1.7-0.1,3.4-0.1,5.2-0.1
					c1.8,0,3.5,0,5.2,0.1c5.7,0.2,10.7,0.8,14.2,1.5c1.8,0.4,3.2,0.8,4.2,1.3C328.6,271.3,329,271.8,329,272.2z"/>
				<path fill="#AD59C7" d="M329,271.2c0,2.4-11.1,4.3-24.8,4.3c-5.4,0-10.4-0.3-14.5-0.8c-6.2-0.8-10.2-2-10.2-3.5
					c0-0.5,0.4-0.9,1.2-1.3c0.9-0.5,2.4-0.9,4.2-1.3c1.3-0.3,2.8-0.5,4.5-0.8c2.8-0.4,6.1-0.6,9.6-0.8c1.7-0.1,3.4-0.1,5.2-0.1
					c1.8,0,3.5,0,5.2,0.1c5.7,0.2,10.7,0.8,14.2,1.5c1.8,0.4,3.2,0.8,4.2,1.3C328.6,270.3,329,270.8,329,271.2z"/>
				<path fill="#AD59C7" d="M329,270.2c0,2.4-11.1,4.3-24.8,4.3c-5.4,0-10.4-0.3-14.5-0.8c-6.2-0.8-10.2-2-10.2-3.5
					c0-0.5,0.4-0.9,1.2-1.3c0.9-0.5,2.4-0.9,4.2-1.3c1.3-0.3,2.8-0.5,4.5-0.8c2.8-0.4,6.1-0.6,9.6-0.8c1.7-0.1,3.4-0.1,5.2-0.1
					c1.8,0,3.5,0,5.2,0.1c5.7,0.2,10.7,0.8,14.2,1.5c1.8,0.4,3.2,0.8,4.2,1.3C328.6,269.3,329,269.8,329,270.2z"/>
			</g>
			<path fill="#D769F4" d="M329,270.2c0,2.4-11.1,4.3-24.8,4.3c-5.4,0-10.4-0.3-14.5-0.8c-6.2-0.8-10.2-2-10.2-3.5
				c0-0.5,0.4-0.9,1.2-1.3c0.9-0.5,2.4-0.9,4.2-1.3c1.3-0.3,2.8-0.5,4.5-0.8c2.8-0.4,6.1-0.6,9.6-0.8c1.7-0.1,3.4-0.1,5.2-0.1
				c1.8,0,3.5,0,5.2,0.1c5.7,0.2,10.7,0.8,14.2,1.5c1.8,0.4,3.2,0.8,4.2,1.3C328.6,269.3,329,269.8,329,270.2z"/>
		</g>
		<g>
			<g>
				<path fill="#AD59C7" d="M329,266.5c0,2.4-11.1,4.3-24.8,4.3c-5.4,0-10.4-0.3-14.5-0.8c-6.2-0.8-10.2-2-10.2-3.5
					c0-0.5,0.4-0.9,1.2-1.3c0.9-0.5,2.4-0.9,4.2-1.3c1.3-0.3,2.8-0.5,4.5-0.8c2.8-0.4,6.1-0.6,9.6-0.8c1.7-0.1,3.4-0.1,5.2-0.1
					c1.8,0,3.5,0,5.2,0.1c5.7,0.2,10.7,0.8,14.2,1.5c1.8,0.4,3.2,0.8,4.2,1.3C328.6,265.6,329,266,329,266.5z"/>
				<path fill="#AD59C7" d="M329,265.5c0,2.4-11.1,4.3-24.8,4.3c-5.4,0-10.4-0.3-14.5-0.8c-6.2-0.8-10.2-2-10.2-3.5
					c0-0.5,0.4-0.9,1.2-1.3c0.9-0.5,2.4-0.9,4.2-1.3c1.3-0.3,2.8-0.5,4.5-0.8c2.8-0.4,6.1-0.6,9.6-0.8c1.7-0.1,3.4-0.1,5.2-0.1
					c1.8,0,3.5,0,5.2,0.1c5.7,0.2,10.7,0.8,14.2,1.5c1.8,0.4,3.2,0.8,4.2,1.3C328.6,264.6,329,265,329,265.5z"/>
				<path fill="#AD59C7" d="M329,264.5c0,2.4-11.1,4.3-24.8,4.3c-5.4,0-10.4-0.3-14.5-0.8c-6.2-0.8-10.2-2-10.2-3.5
					c0-0.5,0.4-0.9,1.2-1.3c0.9-0.5,2.4-0.9,4.2-1.3c1.3-0.3,2.8-0.5,4.5-0.8c2.8-0.4,6.1-0.6,9.6-0.8c1.7-0.1,3.4-0.1,5.2-0.1
					c1.8,0,3.5,0,5.2,0.1c5.7,0.2,10.7,0.8,14.2,1.5c1.8,0.4,3.2,0.8,4.2,1.3C328.6,263.6,329,264,329,264.5z"/>
				<path fill="#AD59C7" d="M329,263.5c0,2.4-11.1,4.3-24.8,4.3c-5.4,0-10.4-0.3-14.5-0.8c-6.2-0.8-10.2-2-10.2-3.5
					c0-0.5,0.4-0.9,1.2-1.3c0.9-0.5,2.4-0.9,4.2-1.3c1.3-0.3,2.8-0.5,4.5-0.8c2.8-0.4,6.1-0.6,9.6-0.8c1.7-0.1,3.4-0.1,5.2-0.1
					c1.8,0,3.5,0,5.2,0.1c5.7,0.2,10.7,0.8,14.2,1.5c1.8,0.4,3.2,0.8,4.2,1.3C328.6,262.6,329,263,329,263.5z"/>
				<path fill="#AD59C7" d="M329,262.5c0,2.4-11.1,4.3-24.8,4.3c-5.4,0-10.4-0.3-14.5-0.8c-6.2-0.8-10.2-2-10.2-3.5
					c0-0.5,0.4-0.9,1.2-1.3c0.9-0.5,2.4-0.9,4.2-1.3c1.3-0.3,2.8-0.5,4.5-0.8c2.8-0.4,6.1-0.6,9.6-0.8c1.7-0.1,3.4-0.1,5.2-0.1
					c1.8,0,3.5,0,5.2,0.1c5.7,0.2,10.7,0.8,14.2,1.5c1.8,0.4,3.2,0.8,4.2,1.3C328.6,261.5,329,262,329,262.5z"/>
				<path fill="#AD59C7" d="M329,261.5c0,2.4-11.1,4.3-24.8,4.3c-5.4,0-10.4-0.3-14.5-0.8c-6.2-0.8-10.2-2-10.2-3.5
					c0-0.5,0.4-0.9,1.2-1.3c0.9-0.5,2.4-0.9,4.2-1.3c1.3-0.3,2.8-0.5,4.5-0.8c2.8-0.4,6.1-0.6,9.6-0.8c1.7-0.1,3.4-0.1,5.2-0.1
					c1.8,0,3.5,0,5.2,0.1c5.7,0.2,10.7,0.8,14.2,1.5c1.8,0.4,3.2,0.8,4.2,1.3C328.6,260.5,329,261,329,261.5z"/>
				<path fill="#AD59C7" d="M329,260.5c0,2.4-11.1,4.3-24.8,4.3c-5.4,0-10.4-0.3-14.5-0.8c-6.2-0.8-10.2-2-10.2-3.5
					c0-0.5,0.4-0.9,1.2-1.3c0.9-0.5,2.4-0.9,4.2-1.3c1.3-0.3,2.8-0.5,4.5-0.8c2.8-0.4,6.1-0.6,9.6-0.8c1.7-0.1,3.4-0.1,5.2-0.1
					c1.8,0,3.5,0,5.2,0.1c5.7,0.2,10.7,0.8,14.2,1.5c1.8,0.4,3.2,0.8,4.2,1.3C328.6,259.5,329,260,329,260.5z"/>
				<path fill="#AD59C7" d="M329,259.4c0,2.4-11.1,4.3-24.8,4.3c-5.4,0-10.4-0.3-14.5-0.8c-6.2-0.8-10.2-2-10.2-3.5
					c0-0.5,0.4-0.9,1.2-1.3c0.9-0.5,2.4-0.9,4.2-1.3c1.3-0.3,2.8-0.5,4.5-0.8c2.8-0.4,6.1-0.6,9.6-0.8c1.7-0.1,3.4-0.1,5.2-0.1
					c1.8,0,3.5,0,5.2,0.1c5.7,0.2,10.7,0.8,14.2,1.5c1.8,0.4,3.2,0.8,4.2,1.3C328.6,258.5,329,259,329,259.4z"/>
				<path fill="#AD59C7" d="M329,258.4c0,2.4-11.1,4.3-24.8,4.3c-5.4,0-10.4-0.3-14.5-0.8c-6.2-0.8-10.2-2-10.2-3.5
					c0-0.5,0.4-0.9,1.2-1.3c0.9-0.5,2.4-0.9,4.2-1.3c1.3-0.3,2.8-0.5,4.5-0.8c2.8-0.4,6.1-0.6,9.6-0.8c1.7-0.1,3.4-0.1,5.2-0.1
					c1.8,0,3.5,0,5.2,0.1c5.7,0.2,10.7,0.8,14.2,1.5c1.8,0.4,3.2,0.8,4.2,1.3C328.6,257.5,329,258,329,258.4z"/>
			</g>
			<path fill="#D769F4" d="M329,258.4c0,2.4-11.1,4.3-24.8,4.3c-5.4,0-10.4-0.3-14.5-0.8c-6.2-0.8-10.2-2-10.2-3.5
				c0-0.5,0.4-0.9,1.2-1.3c0.9-0.5,2.4-0.9,4.2-1.3c1.3-0.3,2.8-0.5,4.5-0.8c2.8-0.4,6.1-0.6,9.6-0.8c1.7-0.1,3.4-0.1,5.2-0.1
				c1.8,0,3.5,0,5.2,0.1c5.7,0.2,10.7,0.8,14.2,1.5c1.8,0.4,3.2,0.8,4.2,1.3C328.6,257.5,329,258,329,258.4z"/>
		</g>
		<g>
			<g>
				<path fill="#AD59C7" d="M329,254.7c0,2.4-11.1,4.3-24.8,4.3c-5.4,0-10.4-0.3-14.5-0.8c-6.2-0.8-10.2-2-10.2-3.5
					c0-0.5,0.4-0.9,1.2-1.3c0.9-0.5,2.4-0.9,4.2-1.3c1.3-0.3,2.8-0.5,4.5-0.8c2.8-0.4,6.1-0.6,9.6-0.8c1.7-0.1,3.4-0.1,5.2-0.1
					c1.8,0,3.5,0,5.2,0.1c5.7,0.2,10.7,0.8,14.2,1.5c1.8,0.4,3.2,0.8,4.2,1.3C328.6,253.8,329,254.2,329,254.7z"/>
				<path fill="#AD59C7" d="M329,253.7c0,2.4-11.1,4.3-24.8,4.3c-5.4,0-10.4-0.3-14.5-0.8c-6.2-0.8-10.2-2-10.2-3.5
					c0-0.5,0.4-0.9,1.2-1.3c0.9-0.5,2.4-0.9,4.2-1.3c1.3-0.3,2.8-0.5,4.5-0.8c2.8-0.4,6.1-0.6,9.6-0.8c1.7-0.1,3.4-0.1,5.2-0.1
					c1.8,0,3.5,0,5.2,0.1c5.7,0.2,10.7,0.8,14.2,1.5c1.8,0.4,3.2,0.8,4.2,1.3C328.6,252.8,329,253.2,329,253.7z"/>
				<path fill="#AD59C7" d="M329,252.7c0,2.4-11.1,4.3-24.8,4.3c-5.4,0-10.4-0.3-14.5-0.8c-6.2-0.8-10.2-2-10.2-3.5
					c0-0.5,0.4-0.9,1.2-1.3c0.9-0.5,2.4-0.9,4.2-1.3c1.3-0.3,2.8-0.5,4.5-0.8c2.8-0.4,6.1-0.6,9.6-0.8c1.7-0.1,3.4-0.1,5.2-0.1
					c1.8,0,3.5,0,5.2,0.1c5.7,0.2,10.7,0.8,14.2,1.5c1.8,0.4,3.2,0.8,4.2,1.3C328.6,251.8,329,252.2,329,252.7z"/>
				<path fill="#AD59C7" d="M329,251.7c0,2.4-11.1,4.3-24.8,4.3c-5.4,0-10.4-0.3-14.5-0.8c-6.2-0.8-10.2-2-10.2-3.5
					c0-0.5,0.4-0.9,1.2-1.3c0.9-0.5,2.4-0.9,4.2-1.3c1.3-0.3,2.8-0.5,4.5-0.8c2.8-0.4,6.1-0.6,9.6-0.8c1.7-0.1,3.4-0.1,5.2-0.1
					c1.8,0,3.5,0,5.2,0.1c5.7,0.2,10.7,0.8,14.2,1.5c1.8,0.4,3.2,0.8,4.2,1.3C328.6,250.8,329,251.2,329,251.7z"/>
				<path fill="#AD59C7" d="M329,250.7c0,2.4-11.1,4.3-24.8,4.3c-5.4,0-10.4-0.3-14.5-0.8c-6.2-0.8-10.2-2-10.2-3.5
					c0-0.5,0.4-0.9,1.2-1.3c0.9-0.5,2.4-0.9,4.2-1.3c1.3-0.3,2.8-0.5,4.5-0.8c2.8-0.4,6.1-0.6,9.6-0.8c1.7-0.1,3.4-0.1,5.2-0.1
					c1.8,0,3.5,0,5.2,0.1c5.7,0.2,10.7,0.8,14.2,1.5c1.8,0.4,3.2,0.8,4.2,1.3C328.6,249.8,329,250.2,329,250.7z"/>
				<path fill="#AD59C7" d="M329,249.7c0,2.4-11.1,4.3-24.8,4.3c-5.4,0-10.4-0.3-14.5-0.8c-6.2-0.8-10.2-2-10.2-3.5
					c0-0.5,0.4-0.9,1.2-1.3c0.9-0.5,2.4-0.9,4.2-1.3c1.3-0.3,2.8-0.5,4.5-0.8c2.8-0.4,6.1-0.6,9.6-0.8c1.7-0.1,3.4-0.1,5.2-0.1
					c1.8,0,3.5,0,5.2,0.1c5.7,0.2,10.7,0.8,14.2,1.5c1.8,0.4,3.2,0.8,4.2,1.3C328.6,248.8,329,249.2,329,249.7z"/>
				<path fill="#AD59C7" d="M329,248.7c0,2.4-11.1,4.3-24.8,4.3c-5.4,0-10.4-0.3-14.5-0.8c-6.2-0.8-10.2-2-10.2-3.5
					c0-0.5,0.4-0.9,1.2-1.3c0.9-0.5,2.4-0.9,4.2-1.3c1.3-0.3,2.8-0.5,4.5-0.8c2.8-0.4,6.1-0.6,9.6-0.8c1.7-0.1,3.4-0.1,5.2-0.1
					c1.8,0,3.5,0,5.2,0.1c5.7,0.2,10.7,0.8,14.2,1.5c1.8,0.4,3.2,0.8,4.2,1.3C328.6,247.8,329,248.2,329,248.7z"/>
				<path fill="#AD59C7" d="M329,247.7c0,2.4-11.1,4.3-24.8,4.3c-5.4,0-10.4-0.3-14.5-0.8c-6.2-0.8-10.2-2-10.2-3.5
					c0-0.5,0.4-0.9,1.2-1.3c0.9-0.5,2.4-0.9,4.2-1.3c1.3-0.3,2.8-0.5,4.5-0.8c2.8-0.4,6.1-0.6,9.6-0.8c1.7-0.1,3.4-0.1,5.2-0.1
					c1.8,0,3.5,0,5.2,0.1c5.7,0.2,10.7,0.8,14.2,1.5c1.8,0.4,3.2,0.8,4.2,1.3C328.6,246.7,329,247.2,329,247.7z"/>
				<path fill="#AD59C7" d="M329,246.7c0,2.4-11.1,4.3-24.8,4.3c-5.4,0-10.4-0.3-14.5-0.8c-6.2-0.8-10.2-2-10.2-3.5
					c0-0.5,0.4-0.9,1.2-1.3c0.9-0.5,2.4-0.9,4.2-1.3c1.3-0.3,2.8-0.5,4.5-0.8c2.8-0.4,6.1-0.6,9.6-0.8c1.7-0.1,3.4-0.1,5.2-0.1
					c1.8,0,3.5,0,5.2,0.1c5.7,0.2,10.7,0.8,14.2,1.5c1.8,0.4,3.2,0.8,4.2,1.3C328.6,245.7,329,246.2,329,246.7z"/>
			</g>
			<path fill="#D769F4" d="M329,246.7c0,2.4-11.1,4.3-24.8,4.3c-5.4,0-10.4-0.3-14.5-0.8c-6.2-0.8-10.2-2-10.2-3.5
				c0-0.5,0.4-0.9,1.2-1.3c0.9-0.5,2.4-0.9,4.2-1.3c1.3-0.3,2.8-0.5,4.5-0.8c2.8-0.4,6.1-0.6,9.6-0.8c1.7-0.1,3.4-0.1,5.2-0.1
				c1.8,0,3.5,0,5.2,0.1c5.7,0.2,10.7,0.8,14.2,1.5c1.8,0.4,3.2,0.8,4.2,1.3C328.6,245.7,329,246.2,329,246.7z"/>
		</g>
		<g>
			<g>
				<path fill="#AD59C7" d="M329,242.9c0,2.4-11.1,4.3-24.8,4.3c-5.4,0-10.4-0.3-14.5-0.8c-6.2-0.8-10.2-2-10.2-3.5
					c0-0.5,0.4-0.9,1.2-1.3c0.9-0.5,2.4-0.9,4.2-1.3c1.3-0.3,2.8-0.5,4.5-0.8c2.8-0.4,6.1-0.6,9.6-0.8c1.7-0.1,3.4-0.1,5.2-0.1
					c1.8,0,3.5,0,5.2,0.1c5.7,0.2,10.7,0.8,14.2,1.5c1.8,0.4,3.2,0.8,4.2,1.3C328.6,242,329,242.5,329,242.9z"/>
				<path fill="#AD59C7" d="M329,241.9c0,2.4-11.1,4.3-24.8,4.3c-5.4,0-10.4-0.3-14.5-0.8c-6.2-0.8-10.2-2-10.2-3.5
					c0-0.5,0.4-0.9,1.2-1.3c0.9-0.5,2.4-0.9,4.2-1.3c1.3-0.3,2.8-0.5,4.5-0.8c2.8-0.4,6.1-0.6,9.6-0.8c1.7-0.1,3.4-0.1,5.2-0.1
					c1.8,0,3.5,0,5.2,0.1c5.7,0.2,10.7,0.8,14.2,1.5c1.8,0.4,3.2,0.8,4.2,1.3C328.6,241,329,241.5,329,241.9z"/>
				<path fill="#AD59C7" d="M329,240.9c0,2.4-11.1,4.3-24.8,4.3c-5.4,0-10.4-0.3-14.5-0.8c-6.2-0.8-10.2-2-10.2-3.5
					c0-0.5,0.4-0.9,1.2-1.3c0.9-0.5,2.4-0.9,4.2-1.3c1.3-0.3,2.8-0.5,4.5-0.8c2.8-0.4,6.1-0.6,9.6-0.8c1.7-0.1,3.4-0.1,5.2-0.1
					c1.8,0,3.5,0,5.2,0.1c5.7,0.2,10.7,0.8,14.2,1.5c1.8,0.4,3.2,0.8,4.2,1.3C328.6,240,329,240.4,329,240.9z"/>
				<path fill="#AD59C7" d="M329,239.9c0,2.4-11.1,4.3-24.8,4.3c-5.4,0-10.4-0.3-14.5-0.8c-6.2-0.8-10.2-2-10.2-3.5
					c0-0.5,0.4-0.9,1.2-1.3c0.9-0.5,2.4-0.9,4.2-1.3c1.3-0.3,2.8-0.5,4.5-0.8c2.8-0.4,6.1-0.6,9.6-0.8c1.7-0.1,3.4-0.1,5.2-0.1
					c1.8,0,3.5,0,5.2,0.1c5.7,0.2,10.7,0.8,14.2,1.5c1.8,0.4,3.2,0.8,4.2,1.3C328.6,239,329,239.4,329,239.9z"/>
				<path fill="#AD59C7" d="M329,238.9c0,2.4-11.1,4.3-24.8,4.3c-5.4,0-10.4-0.3-14.5-0.8c-6.2-0.8-10.2-2-10.2-3.5
					c0-0.5,0.4-0.9,1.2-1.3c0.9-0.5,2.4-0.9,4.2-1.3c1.3-0.3,2.8-0.5,4.5-0.8c2.8-0.4,6.1-0.6,9.6-0.8c1.7-0.1,3.4-0.1,5.2-0.1
					c1.8,0,3.5,0,5.2,0.1c5.7,0.2,10.7,0.8,14.2,1.5c1.8,0.4,3.2,0.8,4.2,1.3C328.6,238,329,238.4,329,238.9z"/>
				<path fill="#AD59C7" d="M329,237.9c0,2.4-11.1,4.3-24.8,4.3c-5.4,0-10.4-0.3-14.5-0.8c-6.2-0.8-10.2-2-10.2-3.5
					c0-0.5,0.4-0.9,1.2-1.3c0.9-0.5,2.4-0.9,4.2-1.3c1.3-0.3,2.8-0.5,4.5-0.8c2.8-0.4,6.1-0.6,9.6-0.8c1.7-0.1,3.4-0.1,5.2-0.1
					c1.8,0,3.5,0,5.2,0.1c5.7,0.2,10.7,0.8,14.2,1.5c1.8,0.4,3.2,0.8,4.2,1.3C328.6,237,329,237.4,329,237.9z"/>
				<path fill="#AD59C7" d="M329,236.9c0,2.4-11.1,4.3-24.8,4.3c-5.4,0-10.4-0.3-14.5-0.8c-6.2-0.8-10.2-2-10.2-3.5
					c0-0.5,0.4-0.9,1.2-1.3c0.9-0.5,2.4-0.9,4.2-1.3c1.3-0.3,2.8-0.5,4.5-0.8c2.8-0.4,6.1-0.6,9.6-0.8c1.7-0.1,3.4-0.1,5.2-0.1
					c1.8,0,3.5,0,5.2,0.1c5.7,0.2,10.7,0.8,14.2,1.5c1.8,0.4,3.2,0.8,4.2,1.3C328.6,236,329,236.4,329,236.9z"/>
				<path fill="#AD59C7" d="M329,235.9c0,2.4-11.1,4.3-24.8,4.3c-5.4,0-10.4-0.3-14.5-0.8c-6.2-0.8-10.2-2-10.2-3.5
					c0-0.5,0.4-0.9,1.2-1.3c0.9-0.5,2.4-0.9,4.2-1.3c1.3-0.3,2.8-0.5,4.5-0.8c2.8-0.4,6.1-0.6,9.6-0.8c1.7-0.1,3.4-0.1,5.2-0.1
					c1.8,0,3.5,0,5.2,0.1c5.7,0.2,10.7,0.8,14.2,1.5c1.8,0.4,3.2,0.8,4.2,1.3C328.6,235,329,235.4,329,235.9z"/>
				<path fill="#AD59C7" d="M329,234.9c0,2.4-11.1,4.3-24.8,4.3c-5.4,0-10.4-0.3-14.5-0.8c-6.2-0.8-10.2-2-10.2-3.5
					c0-0.5,0.4-0.9,1.2-1.3c0.9-0.5,2.4-0.9,4.2-1.3c1.3-0.3,2.8-0.5,4.5-0.8c2.8-0.4,6.1-0.6,9.6-0.8c1.7-0.1,3.4-0.1,5.2-0.1
					c1.8,0,3.5,0,5.2,0.1c5.7,0.2,10.7,0.8,14.2,1.5c1.8,0.4,3.2,0.8,4.2,1.3C328.6,234,329,234.4,329,234.9z"/>
			</g>
			<path fill="#D769F4" d="M329,234.9c0,2.4-11.1,4.3-24.8,4.3c-5.4,0-10.4-0.3-14.5-0.8c-6.2-0.8-10.2-2-10.2-3.5
				c0-0.5,0.4-0.9,1.2-1.3c0.9-0.5,2.4-0.9,4.2-1.3c1.3-0.3,2.8-0.5,4.5-0.8c2.8-0.4,6.1-0.6,9.6-0.8c1.7-0.1,3.4-0.1,5.2-0.1
				c1.8,0,3.5,0,5.2,0.1c5.7,0.2,10.7,0.8,14.2,1.5c1.8,0.4,3.2,0.8,4.2,1.3C328.6,234,329,234.4,329,234.9z"/>
		</g>
		<g>
			<g>
				<path fill="#AD59C7" d="M329,231.1c0,2.4-11.1,4.3-24.8,4.3c-5.4,0-10.4-0.3-14.5-0.8c-6.2-0.8-10.2-2-10.2-3.5
					c0-0.5,0.4-0.9,1.2-1.3c0.9-0.5,2.4-0.9,4.2-1.3c1.3-0.3,2.8-0.5,4.5-0.8c2.8-0.4,6.1-0.6,9.6-0.8c1.7-0.1,3.4-0.1,5.2-0.1
					c1.8,0,3.5,0,5.2,0.1c5.7,0.2,10.7,0.8,14.2,1.5c1.8,0.4,3.2,0.8,4.2,1.3C328.6,230.2,329,230.7,329,231.1z"/>
				<path fill="#AD59C7" d="M329,230.1c0,2.4-11.1,4.3-24.8,4.3c-5.4,0-10.4-0.3-14.5-0.8c-6.2-0.8-10.2-2-10.2-3.5
					c0-0.5,0.4-0.9,1.2-1.3c0.9-0.5,2.4-0.9,4.2-1.3c1.3-0.3,2.8-0.5,4.5-0.8c2.8-0.4,6.1-0.6,9.6-0.8c1.7-0.1,3.4-0.1,5.2-0.1
					c1.8,0,3.5,0,5.2,0.1c5.7,0.2,10.7,0.8,14.2,1.5c1.8,0.4,3.2,0.8,4.2,1.3C328.6,229.2,329,229.7,329,230.1z"/>
				<path fill="#AD59C7" d="M329,229.1c0,2.4-11.1,4.3-24.8,4.3c-5.4,0-10.4-0.3-14.5-0.8c-6.2-0.8-10.2-2-10.2-3.5
					c0-0.5,0.4-0.9,1.2-1.3c0.9-0.5,2.4-0.9,4.2-1.3c1.3-0.3,2.8-0.5,4.5-0.8c2.8-0.4,6.1-0.6,9.6-0.8c1.7-0.1,3.4-0.1,5.2-0.1
					c1.8,0,3.5,0,5.2,0.1c5.7,0.2,10.7,0.8,14.2,1.5c1.8,0.4,3.2,0.8,4.2,1.3C328.6,228.2,329,228.7,329,229.1z"/>
				<path fill="#AD59C7" d="M329,228.1c0,2.4-11.1,4.3-24.8,4.3c-5.4,0-10.4-0.3-14.5-0.8c-6.2-0.8-10.2-2-10.2-3.5
					c0-0.5,0.4-0.9,1.2-1.3c0.9-0.5,2.4-0.9,4.2-1.3c1.3-0.3,2.8-0.5,4.5-0.8c2.8-0.4,6.1-0.6,9.6-0.8c1.7-0.1,3.4-0.1,5.2-0.1
					c1.8,0,3.5,0,5.2,0.1c5.7,0.2,10.7,0.8,14.2,1.5c1.8,0.4,3.2,0.8,4.2,1.3C328.6,227.2,329,227.7,329,228.1z"/>
				<path fill="#AD59C7" d="M329,227.1c0,2.4-11.1,4.3-24.8,4.3c-5.4,0-10.4-0.3-14.5-0.8c-6.2-0.8-10.2-2-10.2-3.5
					c0-0.5,0.4-0.9,1.2-1.3c0.9-0.5,2.4-0.9,4.2-1.3c1.3-0.3,2.8-0.5,4.5-0.8c2.8-0.4,6.1-0.6,9.6-0.8c1.7-0.1,3.4-0.1,5.2-0.1
					c1.8,0,3.5,0,5.2,0.1c5.7,0.2,10.7,0.8,14.2,1.5c1.8,0.4,3.2,0.8,4.2,1.3C328.6,226.2,329,226.7,329,227.1z"/>
				<path fill="#AD59C7" d="M329,226.1c0,2.4-11.1,4.3-24.8,4.3c-5.4,0-10.4-0.3-14.5-0.8c-6.2-0.8-10.2-2-10.2-3.5
					c0-0.5,0.4-0.9,1.2-1.3c0.9-0.5,2.4-0.9,4.2-1.3c1.3-0.3,2.8-0.5,4.5-0.8c2.8-0.4,6.1-0.6,9.6-0.8c1.7-0.1,3.4-0.1,5.2-0.1
					c1.8,0,3.5,0,5.2,0.1c5.7,0.2,10.7,0.8,14.2,1.5c1.8,0.4,3.2,0.8,4.2,1.3C328.6,225.2,329,225.6,329,226.1z"/>
				<path fill="#AD59C7" d="M329,225.1c0,2.4-11.1,4.3-24.8,4.3c-5.4,0-10.4-0.3-14.5-0.8c-6.2-0.8-10.2-2-10.2-3.5
					c0-0.5,0.4-0.9,1.2-1.3c0.9-0.5,2.4-0.9,4.2-1.3c1.3-0.3,2.8-0.5,4.5-0.8c2.8-0.4,6.1-0.6,9.6-0.8c1.7-0.1,3.4-0.1,5.2-0.1
					c1.8,0,3.5,0,5.2,0.1c5.7,0.2,10.7,0.8,14.2,1.5c1.8,0.4,3.2,0.8,4.2,1.3C328.6,224.2,329,224.6,329,225.1z"/>
				<path fill="#AD59C7" d="M329,224.1c0,2.4-11.1,4.3-24.8,4.3c-5.4,0-10.4-0.3-14.5-0.8c-6.2-0.8-10.2-2-10.2-3.5
					c0-0.5,0.4-0.9,1.2-1.3c0.9-0.5,2.4-0.9,4.2-1.3c1.3-0.3,2.8-0.5,4.5-0.8c2.8-0.4,6.1-0.6,9.6-0.8c1.7-0.1,3.4-0.1,5.2-0.1
					c1.8,0,3.5,0,5.2,0.1c5.7,0.2,10.7,0.8,14.2,1.5c1.8,0.4,3.2,0.8,4.2,1.3C328.6,223.2,329,223.6,329,224.1z"/>
				<path fill="#AD59C7" d="M329,223.1c0,2.4-11.1,4.3-24.8,4.3c-5.4,0-10.4-0.3-14.5-0.8c-6.2-0.8-10.2-2-10.2-3.5
					c0-0.5,0.4-0.9,1.2-1.3c0.9-0.5,2.4-0.9,4.2-1.3c1.3-0.3,2.8-0.5,4.5-0.8c2.8-0.4,6.1-0.6,9.6-0.8c1.7-0.1,3.4-0.1,5.2-0.1
					c1.8,0,3.5,0,5.2,0.1c5.7,0.2,10.7,0.8,14.2,1.5c1.8,0.4,3.2,0.8,4.2,1.3C328.6,222.2,329,222.6,329,223.1z"/>
			</g>
			<path fill="#D769F4" d="M329,223.1c0,2.4-11.1,4.3-24.8,4.3c-5.4,0-10.4-0.3-14.5-0.8c-6.2-0.8-10.2-2-10.2-3.5
				c0-0.5,0.4-0.9,1.2-1.3c0.9-0.5,2.4-0.9,4.2-1.3c1.3-0.3,2.8-0.5,4.5-0.8c2.8-0.4,6.1-0.6,9.6-0.8c1.7-0.1,3.4-0.1,5.2-0.1
				c1.8,0,3.5,0,5.2,0.1c5.7,0.2,10.7,0.8,14.2,1.5c1.8,0.4,3.2,0.8,4.2,1.3C328.6,222.2,329,222.6,329,223.1z"/>
		</g>
	</g>
	<circle fill="#666666" cx="314.6" cy="400" r="6"/>
	
		<line fill="none" stroke="#5C6D89" stroke-width="14" stroke-linecap="round" stroke-linejoin="round" stroke-miterlimit="10" x1="506" y1="179" x2="519" y2="179"/>
	
		<line fill="none" stroke="#5C6D89" stroke-width="14" stroke-linecap="round" stroke-linejoin="round" stroke-miterlimit="10" x1="304" y1="205" x2="304" y2="218"/>
</g>
</svg>
