<?xml version="1.0" encoding="utf-8"?>
<!-- Generator: Adobe Illustrator 17.1.0, SVG Export Plug-In . SVG Version: 6.00 Build 0)  -->
<!DOCTYPE svg PUBLIC "-//W3C//DTD SVG 1.1//EN" "http://www.w3.org/Graphics/SVG/1.1/DTD/svg11.dtd">
<svg version="1.1" xmlns="http://www.w3.org/2000/svg" xmlns:xlink="http://www.w3.org/1999/xlink" x="0px" y="0px"
	 viewBox="0 0 806.8 422.8" enable-background="new 0 0 806.8 422.8" xml:space="preserve">
<g id="Capa_2" display="none">
	
		<path display="inline" opacity="0.7" fill="#31A7DB" stroke="#5C6D89" stroke-width="14" stroke-linecap="round" stroke-linejoin="round" stroke-miterlimit="10" d="
		M302,224.3c4.7,4.7,4.7,12.3,0,17L176.8,366.5c-4.7,4.7-12.3,4.7-17,0L34.7,241.3c-4.7-4.7-4.7-12.3,0-17L159.8,99.2
		c4.7-4.7,12.3-4.7,17,0L302,224.3z"/>
	
		<path display="inline" opacity="0.7" fill="#F9C85D" stroke="#5C6D89" stroke-width="14" stroke-linecap="round" stroke-linejoin="round" stroke-miterlimit="10" d="
		M666.8,107.3c0-8.8-7.2-15.9-15.5-15.9H374.9c-8.3,0-15.1,7.1-15.1,15.9v203.1c0,8.8,6.8,15.9,15.1,15.9h276.4
		c8.3,0,15.5-7.1,15.5-15.9V107.3z"/>
</g>
<g id="Capa_2_copia">
	<path opacity="0.5" fill="#7AB8F4" d="M302,224.3c4.7,4.7,4.7,12.3,0,17L176.8,366.5c-4.7,4.7-12.3,4.7-17,0L34.7,241.3
		c-4.7-4.7-4.7-12.3,0-17L159.8,99.2c4.7-4.7,12.3-4.7,17,0L302,224.3z"/>
	<path opacity="0.5" fill="#7AB8F4" d="M264.2,226.7c3.4,3.4,3.4,8.8,0,12.2l-89.8,89.8c-3.4,3.4-8.8,3.4-12.2,0l-89.8-89.8
		c-3.4-3.4-3.4-8.8,0-12.2l89.8-89.8c3.4-3.4,8.8-3.4,12.2,0L264.2,226.7z"/>
	<path opacity="0.5" fill="#BFF47A" d="M633.8,129c0-6.9-5.5-12.7-12.1-12.7H404.6c-6.5,0-11.7,5.8-11.7,12.7v159.6
		c0,6.9,5.2,12.7,11.7,12.7h217.2c6.5,0,12.1-5.8,12.1-12.7V129z"/>
	<path opacity="0.5" fill="#BFF47A" d="M666.8,107.3c0-8.8-7.2-15.9-15.5-15.9H374.9c-8.3,0-15.1,7.1-15.1,15.9v203.1
		c0,8.8,6.8,15.9,15.1,15.9h276.4c8.3,0,15.5-7.1,15.5-15.9V107.3z"/>
</g>
<g id="Capa_1">
	
		<polyline fill="none" stroke="#5C6D89" stroke-width="14" stroke-linecap="round" stroke-linejoin="round" stroke-miterlimit="10" points="
		440.8,352.3 331.8,352.3 331.8,352.3 331.8,215.3 331.8,215.3 277.8,216.3 277.8,216.3 278,353.3 278,353.3 195.8,353.3 
		195.8,353.3 	"/>
	
		<line fill="none" stroke="#5C6D89" stroke-width="14" stroke-linecap="round" stroke-linejoin="round" stroke-miterlimit="10" x1="197.8" y1="353.3" x2="197.8" y2="353.3"/>
	<circle opacity="0.5" fill="#F6E278" cx="736.6" cy="352.6" r="70.2"/>
	<circle opacity="0.5" fill="#F6E278" cx="736.6" cy="352.6" r="50.2"/>
	<circle opacity="0.5" fill="#733BF3" cx="73.6" cy="73.6" r="70.2"/>
	<circle opacity="0.5" fill="#733BF3" cx="73.6" cy="73.6" r="50.2"/>
	
		<polyline fill="none" stroke="#5C6D89" stroke-width="14" stroke-linecap="round" stroke-linejoin="round" stroke-miterlimit="10" points="
		693.5,353.5 648.8,353.3 648.8,353.3 648.8,205.3 648.8,205.3 628.8,205.3 628.8,205.3 628.8,128.3 628.8,128.3 604.8,128.3 
		604.8,128.3 604.8,205.3 604.8,205.3 585.8,205.3 585.8,205.3 585.8,353.3 585.8,353.3 521.8,353.3 521.8,353.3 521.8,172.3 
		521.8,172.3 486.8,172.3 486.8,172.3 486.8,131.3 486.8,131.3 403.8,132.3 403.8,132.3 403.7,223.3 	"/>
	<g>
		<ellipse fill="#7C8EAB" cx="676.3" cy="353.5" rx="5.7" ry="15.3"/>
		<ellipse fill="#7C8EAB" cx="681.3" cy="353.5" rx="5.7" ry="15.3"/>
		<ellipse fill="#647386" cx="686.3" cy="353.5" rx="5.7" ry="15.3"/>
		<path opacity="0.5" fill="#F7F6D6" d="M738.7,383.2c16.4,0,29.7-13.3,29.7-29.7c0-16.4-13.3-29.7-29.7-29.7
			c-8.1,0-14.2,3.3-25.4,8.6c-9.4,4.5-22.2,3.4-26.3,13.4c-0.8,2.1-0.8,13.8,0,15.9c4.2,10.5,17.4,8.8,27.1,13.3
			C725.1,380.1,730.7,383.2,738.7,383.2z"/>
		<path fill="#7C8EAB" d="M686.3,368.8c-3.1,0-5.7-6.9-5.7-15.3c0-8.5,2.5-15.3,5.7-15.3c1.1,0,2.1,0.8,3,2.3
			c-1.6,2.7-2.7,7.5-2.7,13s1.1,10.3,2.7,13C688.5,368,687.4,368.8,686.3,368.8z"/>
		<g>
			<g>
				<g>
					<path fill="#EFD75E" d="M727.3,343.2c-1.9,2.6-1.7,7.3,2.2,7.4c0.2,0,0.9-0.1,0.9-0.4c0.6-5-7.7-0.7-3.8,3.5
						c0.9,0.9,2.8,1.2,3.8,0.4c1.5-1.3-1.5-2.4-2.6-2c-4.7,1.5-1.1,9.5,1.3,5.8c1-1.6,0-1.9-1.5-1.5c-2.8,0.8-2.5,4-1.2,5.9
						c0.2,0.4,1.5-0.1,1.2-0.5c-2-3,0.2-1.1,0.6-4.6c-0.4-0.1-0.8-0.2-1.2-0.2c-0.3-0.8-0.4-1.6-0.1-2.4c0.2-0.4,0.4-0.8,0.6-1.3
						c1.7-0.5,1.8-0.5,0.3-0.1c-0.5-0.4-0.8-1-0.9-1.6c-0.2-2.2,0.5-2.6,2.2-1.2c0.3-0.1,0.6-0.3,0.9-0.4c-3.7-0.1-2.8-4.9-1.5-6.7
						C728.9,342.7,727.6,342.9,727.3,343.2L727.3,343.2z"/>
				</g>
			</g>
			<path fill="#E2E083" d="M712.1,358.4c3.8,0.6,18.3,0.8,17.4,4.3c-1.2,4.8-26.4-3-33.5-4.3c-5.2-0.9-6.3-2.3-6.3-5
				c0-2.8,1.1-4,6.3-5c7.1-1.4,32-9.7,33.8-4.9c1.3,3.5-13.9,4.1-17.7,4.9c-5.2,1-6.3,2.3-6.3,5
				C705.8,356.2,706.8,357.6,712.1,358.4z"/>
		</g>
		<g opacity="0.8">
			<path fill="#FFFFFF" d="M753.2,365.4c-1.7-2.4-1.5-5.5-0.5-7.2c4.9-7.6-1-18.3-10-18.3c-2-0.1-4.7-1.6-5.8-4.3l0,0
				c-1.1-2.7,1.8-6.3,6.1-6.3c17,0,27.9,20,18.8,34.4C759.4,367.3,754.8,367.8,753.2,365.4L753.2,365.4z"/>
		</g>
	</g>
	
		<line fill="none" stroke="#5C6D89" stroke-width="14" stroke-linecap="round" stroke-linejoin="round" stroke-miterlimit="10" x1="195.8" y1="353.3" x2="119.8" y2="353.3"/>
	
		<line fill="none" stroke="#5C6D89" stroke-width="14" stroke-linecap="round" stroke-linejoin="round" stroke-miterlimit="10" x1="222.8" y1="80.3" x2="79.8" y2="79.3"/>
	
		<line fill="none" stroke="#5C6D89" stroke-width="14" stroke-linecap="round" stroke-linejoin="round" stroke-miterlimit="10" x1="222.8" y1="80.3" x2="222.8" y2="156.3"/>
	
		<line fill="none" stroke="#5C6D89" stroke-width="14" stroke-linecap="round" stroke-linejoin="round" stroke-miterlimit="10" x1="119.8" y1="353.3" x2="119.8" y2="146.3"/>
	
		<line fill="none" stroke="#5C6D89" stroke-width="14" stroke-linecap="round" stroke-linejoin="round" stroke-miterlimit="10" x1="119.8" y1="146.3" x2="222.8" y2="146.3"/>
	
		<line fill="none" stroke="#5C6D89" stroke-width="14" stroke-linecap="round" stroke-linejoin="round" stroke-miterlimit="10" x1="222.8" y1="146.3" x2="222.8" y2="303.3"/>
	
		<line fill="none" stroke="#5C6D89" stroke-width="14" stroke-linecap="round" stroke-linejoin="round" stroke-miterlimit="10" x1="222.8" y1="303.3" x2="119.8" y2="303.3"/>
	<polygon fill="#A7A731" points="466.8,99.3 466.8,156.3 419.8,156.3 419.8,140.3 439.8,140.3 439.8,113.3 419.8,113.3 419.8,99.3 	
		"/>
	<line fill="none" x1="442.8" y1="149.3" x2="442.8" y2="145.3"/>
	
		<line fill="none" stroke="#5C6D89" stroke-width="8" stroke-linecap="round" stroke-linejoin="round" stroke-miterlimit="10" x1="373.8" y1="236.3" x2="373.8" y2="349.3"/>
	
		<line fill="none" stroke="#5C6D89" stroke-width="8" stroke-linecap="round" stroke-linejoin="round" stroke-miterlimit="10" x1="411.8" y1="236.3" x2="411.8" y2="349.3"/>
	
		<line fill="none" stroke="#5C6D89" stroke-width="8" stroke-linecap="round" stroke-linejoin="round" stroke-miterlimit="10" x1="448.8" y1="231.3" x2="448.8" y2="344.3"/>
	<path fill="#8C1C1C" d="M80.5,35.3c0.5,0.6,1.1,1.2,1.8,1.9c-2.1,0-4.1,0.2-5.7,1.7c-2.4,2.3-2.7,5.9-3,8.9
		c-0.6,5.6-0.1,11.3-0.4,17c-0.6,12.9-6.7,25.9-18.5,31.5c-8.3-6.3-11.8-12.5-3.5-15.9C78.7,69,57.8,9.7,80.5,35.3z"/>
	<path fill="#8C1C1C" d="M105.2,64.3h-1.7c0,0,0.1,0,0.1,0C104.1,64.3,104.7,64.3,105.2,64.3z"/>
	<path fill="#487650" d="M135.5,202.7c-0.1,0-0.1-0.1-0.2-0.1c0.7-0.3,1.4-0.3,2.2-0.3L135.5,202.7z"/>
	<path fill="#9F6B2F" d="M196.5,320l0.6,0.3c-0.4-0.2-0.8-0.4-1.2-0.5C196.1,319.9,196.3,319.9,196.5,320z"/>
	<line fill="#774D1F" x1="363" y1="358" x2="362.5" y2="358"/>
	<polygon fill="#A7A731" points="427.8,160.3 419.8,156.3 424.9,149.8 431.8,154.7 	"/>
	<polygon fill="#A7A731" points="469.8,110.3 461.8,106.3 466.8,99.3 474.8,103.3 	"/>
	<polygon fill="#A7A731" points="427.8,117.3 419.8,113.3 424.9,106.8 431.8,111.7 	"/>
	<line fill="#7A7626" x1="427.8" y1="103.4" x2="419.9" y2="99.3"/>
	<line fill="#7A7626" x1="427.8" y1="144.4" x2="419.9" y2="140.3"/>
	<line fill="#7A7626" x1="447.8" y1="144.4" x2="439.9" y2="140.3"/>
	<path fill="#BC7326" d="M235.8,349.3c0-13.1-12.1-24-27-24h-41c-14.9,0-27,10.9-27,24l0,0c0,13.1,12.1,24,27,24h41
		C223.7,373.3,235.8,362.4,235.8,349.3L235.8,349.3z"/>
	<g>
		<path fill="#A9234E" d="M101.2,74.3c-29.8-1.1,8.2,40-6,40c-8.8,0-35-10.8-48.5-21.1c-8.3-6.3-11.8-12.5-3.5-15.9
			c27.6-11.4,6.7-70.7,29.3-45c0.5,0.6,1.1,1.2,1.8,1.9C86.4,46.3,125.8,75.3,101.2,74.3z"/>
		<path fill="#A9234E" d="M101.2,74.4c-29.8-1.1,8.2,40-6,40c-8.8,0-35-10.8-48.5-21.1c-8.3-6.3-11.8-12.5-3.5-15.9
			C70.8,66,50,6.6,72.6,32.4c0.5,0.6,1.1,1.2,1.8,1.9C86.5,46.3,125.9,75.3,101.2,74.4z"/>
		<path fill="#A9234E" d="M101.3,74.4c-29.8-1.1,8.2,40-6,40c-8.8,0-35-10.8-48.5-21.1C38.5,87,35,80.8,43.3,77.4
			C70.9,66,50,6.7,72.7,32.4c0.5,0.6,1.1,1.2,1.8,1.9C86.6,46.3,126,75.3,101.3,74.4z"/>
		<path fill="#A9234E" d="M101.4,74.4c-29.8-1.1,8.2,40-6,40c-8.8,0-35-10.8-48.5-21.1c-8.3-6.3-11.8-12.5-3.5-15.9
			c27.6-11.4,6.7-70.7,29.3-45c0.5,0.6,1.1,1.2,1.8,1.9C86.6,46.4,126,75.4,101.4,74.4z"/>
		<path fill="#A9234E" d="M101.5,74.5c-29.8-1.1,8.2,40-6,40c-8.8,0-35-10.8-48.5-21.1c-8.3-6.3-11.8-12.5-3.5-15.9
			c27.6-11.4,6.7-70.7,29.3-45c0.5,0.6,1.1,1.2,1.8,1.9C86.7,46.4,126.1,75.4,101.5,74.5z"/>
		<path fill="#A9234E" d="M101.6,74.5c-29.8-1.1,8.2,40-6,40c-8.8,0-35-10.8-48.5-21.1c-8.3-6.3-11.8-12.5-3.5-15.9
			c27.6-11.4,6.7-70.7,29.3-45c0.5,0.6,1.1,1.2,1.8,1.9C86.8,46.4,126.2,75.4,101.6,74.5z"/>
		<path fill="#A9234E" d="M101.6,74.5c-29.8-1.1,8.2,40-6,40c-8.8,0-35-10.8-48.5-21.1c-8.3-6.3-11.8-12.5-3.5-15.9
			c27.6-11.4,6.7-70.7,29.3-45c0.5,0.6,1.1,1.2,1.8,1.9C86.9,46.5,126.3,75.5,101.6,74.5z"/>
		<path fill="#A9234E" d="M101.7,74.5c-29.8-1.1,8.2,40-6,40c-8.8,0-35-10.8-48.5-21.1c-8.3-6.3-11.8-12.5-3.5-15.9
			c27.6-11.4,6.7-70.7,29.3-45c0.5,0.6,1.1,1.2,1.8,1.9C87,46.5,126.4,75.5,101.7,74.5z"/>
		<path fill="#A9234E" d="M101.8,74.6c-29.8-1.1,8.2,40-6,40c-8.8,0-35-10.8-48.5-21.1C39,87.2,35.5,81,43.8,77.6
			c27.6-11.4,6.7-70.7,29.3-45c0.5,0.6,1.1,1.2,1.8,1.9C87,46.5,126.4,75.5,101.8,74.6z"/>
		<path fill="#A9234E" d="M101.9,74.6c-29.8-1.1,8.2,40-6,40c-8.8,0-35-10.8-48.5-21.1c-8.3-6.3-11.8-12.5-3.5-15.9
			c27.6-11.4,6.7-70.7,29.3-45c0.5,0.6,1.1,1.2,1.8,1.9C87.1,46.5,126.5,75.6,101.9,74.6z"/>
		<path fill="#A9234E" d="M102,74.6c-29.8-1.1,8.2,40-6,40c-8.8,0-35-10.8-48.5-21.1c-8.3-6.3-11.8-12.5-3.5-15.9
			c27.6-11.4,6.7-70.7,29.3-45c0.5,0.6,1.1,1.2,1.8,1.9C87.2,46.6,126.6,75.6,102,74.6z"/>
		<path fill="#A9234E" d="M102,74.7c-29.8-1.1,8.2,40-6,40c-8.8,0-35-10.8-48.5-21.1c-8.3-6.3-11.8-12.5-3.5-15.9
			c27.6-11.4,6.7-70.7,29.3-45c0.5,0.6,1.1,1.2,1.8,1.9C87.3,46.6,126.7,75.6,102,74.7z"/>
		<path fill="#A9234E" d="M102.1,74.7c-29.8-1.1,8.2,40-6,40c-8.8,0-35-10.8-48.5-21.1c-8.3-6.3-11.8-12.5-3.5-15.9
			c27.6-11.4,6.7-70.7,29.3-45c0.5,0.6,1.1,1.2,1.8,1.9C87.4,46.6,126.8,75.6,102.1,74.7z"/>
		<path fill="#A9234E" d="M102.2,74.7c-29.8-1.1,8.2,40-6,40c-8.8,0-35-10.8-48.5-21.1c-8.3-6.3-11.8-12.5-3.5-15.9
			c27.6-11.4,6.7-70.7,29.3-45c0.5,0.6,1.1,1.2,1.8,1.9C87.4,46.7,126.8,75.7,102.2,74.7z"/>
		<path fill="#A9234E" d="M102.3,74.7c-29.8-1.1,8.2,40-6,40c-8.8,0-35-10.8-48.5-21.1c-8.3-6.3-11.8-12.5-3.5-15.9
			C71.9,66.4,51,7,73.6,32.7c0.5,0.6,1.1,1.2,1.8,1.9C87.5,46.7,126.9,75.7,102.3,74.7z"/>
		<path fill="#A9234E" d="M102.4,74.8c-29.8-1.1,8.2,40-6,40c-8.8,0-35-10.8-48.5-21.1c-8.3-6.3-11.8-12.5-3.5-15.9
			c27.6-11.4,6.7-70.7,29.3-45c0.5,0.6,1.1,1.2,1.8,1.9C87.6,46.7,127,75.7,102.4,74.8z"/>
		<path fill="#A9234E" d="M102.4,74.8c-29.8-1.1,8.2,40-6,40c-8.8,0-35-10.8-48.5-21.1c-8.3-6.3-11.8-12.5-3.5-15.9
			c27.6-11.4,6.7-70.7,29.3-45c0.5,0.6,1.1,1.2,1.8,1.9C87.7,46.8,127.1,75.8,102.4,74.8z"/>
		<path fill="#A9234E" d="M102.5,74.8c-29.8-1.1,8.2,40-6,40c-8.8,0-35-10.8-48.5-21.1c-8.3-6.3-11.8-12.5-3.5-15.9
			c27.6-11.4,6.7-70.7,29.3-45c0.5,0.6,1.1,1.2,1.8,1.9C87.8,46.8,127.2,75.8,102.5,74.8z"/>
		<path fill="#A9234E" d="M102.6,74.9c-29.8-1.1,8.2,40-6,40c-8.8,0-35-10.8-48.5-21.1c-8.3-6.3-11.8-12.5-3.5-15.9
			c27.6-11.4,6.7-70.7,29.3-45c0.5,0.6,1.1,1.2,1.8,1.9C87.8,46.8,127.2,75.8,102.6,74.9z"/>
		<path fill="#A9234E" d="M102.7,74.9c-29.8-1.1,8.2,40-6,40c-8.8,0-35-10.8-48.5-21.1c-8.3-6.3-11.8-12.5-3.5-15.9
			c27.6-11.4,6.7-70.7,29.3-45c0.5,0.6,1.1,1.2,1.8,1.9C87.9,46.8,127.3,75.8,102.7,74.9z"/>
		<path fill="#A9234E" d="M102.7,74.9c-29.8-1.1,8.2,40-6,40c-8.8,0-35-10.8-48.5-21.1c-8.3-6.3-11.8-12.5-3.5-15.9
			c27.6-11.4,6.7-70.7,29.3-45c0.5,0.6,1.1,1.2,1.8,1.9C88,46.9,127.4,75.9,102.7,74.9z"/>
		<path fill="#A9234E" d="M102.8,75c-29.8-1.1,8.2,40-6,40c-8.8,0-35-10.8-48.5-21.1C40,87.5,36.5,81.4,44.8,78
			c27.6-11.4,6.7-70.7,29.3-45c0.5,0.6,1.1,1.2,1.8,1.9C88.1,46.9,127.5,75.9,102.8,75z"/>
		<path fill="#A9234E" d="M102.9,75c-29.8-1.1,8.2,40-6,40c-8.8,0-35-10.8-48.5-21.1c-8.3-6.3-11.8-12.5-3.5-15.9
			c27.6-11.4,6.7-70.7,29.3-45c0.5,0.6,1.1,1.2,1.8,1.9C88.2,46.9,127.5,75.9,102.9,75z"/>
		<path fill="#A9234E" d="M103,75c-29.8-1.1,8.2,40-6,40c-8.8,0-35-10.8-48.5-21.1C40.2,87.6,36.7,81.4,45,78
			c27.6-11.4,6.7-70.7,29.3-45c0.5,0.6,1.1,1.2,1.8,1.9C88.2,47,127.6,76,103,75z"/>
		<path fill="#A9234E" d="M103.1,75c-29.8-1.1,8.2,40-6,40c-8.8,0-35-10.8-48.5-21.1c-8.3-6.3-11.8-12.5-3.5-15.9
			c27.6-11.4,6.7-70.7,29.3-45c0.5,0.6,1.1,1.2,1.8,1.9C88.3,47,127.7,76,103.1,75z"/>
		<path fill="#A9234E" d="M103.1,75.1c-29.8-1.1,8.2,40-6,40c-8.8,0-35-10.8-48.5-21.1c-8.3-6.3-11.8-12.5-3.5-15.9
			c27.6-11.4,6.7-70.7,29.3-45c0.5,0.6,1.1,1.2,1.8,1.9C88.4,47,127.8,76,103.1,75.1z"/>
		<path fill="#A9234E" d="M103.2,75.1c-29.8-1.1,8.2,40-6,40c-8.8,0-35-10.8-48.5-21.1c-8.3-6.3-11.8-12.5-3.5-15.9
			c27.6-11.4,6.7-70.7,29.3-45c0.5,0.6,1.1,1.2,1.8,1.9C88.5,47.1,127.9,76.1,103.2,75.1z"/>
		<path fill="#A9234E" d="M103.3,75.1c-29.8-1.1,8.2,40-6,40c-8.8,0-35-10.8-48.5-21.1c-8.3-6.3-11.8-12.5-3.5-15.9
			c27.6-11.4,6.7-70.7,29.3-45c0.5,0.6,1.1,1.2,1.8,1.9C88.5,47.1,127.9,76.1,103.3,75.1z"/>
		<path fill="#A9234E" d="M103.4,75.2c-29.8-1.1,8.2,40-6,40c-8.8,0-35-10.8-48.5-21.1c-8.3-6.3-11.8-12.5-3.5-15.9
			c27.6-11.4,6.7-70.7,29.3-45c0.5,0.6,1.1,1.2,1.8,1.9C88.6,47.1,128,76.1,103.4,75.2z"/>
		<path fill="#A9234E" d="M103.5,75.2c-29.8-1.1,8.2,40-6,40c-8.8,0-35-10.8-48.5-21.1c-8.3-6.3-11.8-12.5-3.5-15.9
			c27.6-11.4,6.7-70.7,29.3-45c0.5,0.6,1.1,1.2,1.8,1.9C88.7,47.1,128.1,76.1,103.5,75.2z"/>
		<path fill="#A9234E" d="M103.5,75.2c-29.8-1.1,8.2,40-6,40c-8.8,0-35-10.8-48.5-21.1c-8.3-6.3-11.8-12.5-3.5-15.9
			c27.6-11.4,6.7-70.7,29.3-45c0.5,0.6,1.1,1.2,1.8,1.9C88.8,47.2,128.2,76.2,103.5,75.2z"/>
		<path fill="#A9234E" d="M103.6,75.3c-29.8-1.1,8.2,40-6,40c-8.8,0-35-10.8-48.5-21.1c-8.3-6.3-11.8-12.5-3.5-15.9
			c27.6-11.4,6.7-70.7,29.3-45c0.5,0.6,1.1,1.2,1.8,1.9C88.9,47.2,128.3,76.2,103.6,75.3z"/>
		<path fill="#A9234E" d="M103.7,75.3c-29.8-1.1,8.2,40-6,40c-8.8,0-35-10.8-48.5-21.1c-8.3-6.3-11.8-12.5-3.5-15.9
			c27.6-11.4,6.7-70.7,29.3-45c0.5,0.6,1.1,1.2,1.8,1.9C88.9,47.2,128.3,76.2,103.7,75.3z"/>
		<path fill="#A9234E" d="M103.8,75.3c-29.8-1.1,8.2,40-6,40c-8.8,0-35-10.8-48.5-21.1c-8.3-6.3-11.8-12.5-3.5-15.9
			c27.6-11.4,6.7-70.7,29.3-45c0.5,0.6,1.1,1.2,1.8,1.9C89,47.3,128.4,76.3,103.8,75.3z"/>
		<path fill="#A9234E" d="M103.9,75.3c-29.8-1.1,8.2,40-6,40c-8.8,0-35-10.8-48.5-21.1c-8.3-6.3-11.8-12.5-3.5-15.9
			c27.6-11.4,6.7-70.7,29.3-45c0.5,0.6,1.1,1.2,1.8,1.9C89.1,47.3,128.5,76.3,103.9,75.3z"/>
		<path fill="#A9234E" d="M103.9,75.4c-29.8-1.1,8.2,40-6,40c-8.8,0-35-10.8-48.5-21.1c-8.3-6.3-11.8-12.5-3.5-15.9
			c27.6-11.4,6.7-70.7,29.3-45c0.5,0.6,1.1,1.2,1.8,1.9C89.2,47.3,128.6,76.3,103.9,75.4z"/>
		<path fill="#A9234E" d="M104,75.4c-29.8-1.1,8.2,40-6,40c-8.8,0-35-10.8-48.5-21.1C41.2,88,37.7,81.8,46,78.4
			c27.6-11.4,6.7-70.7,29.3-45c0.5,0.6,1.1,1.2,1.8,1.9C89.3,47.3,128.7,76.4,104,75.4z"/>
		<path fill="#A9234E" d="M104.1,75.4c-29.8-1.1,8.2,40-6,40c-8.8,0-35-10.8-48.5-21.1c-8.3-6.3-11.8-12.5-3.5-15.9
			c27.6-11.4,6.7-70.7,29.3-45c0.5,0.6,1.1,1.2,1.8,1.9C89.3,47.4,128.7,76.4,104.1,75.4z"/>
		<path fill="#A9234E" d="M104.2,75.5c-29.8-1.1,8.2,40-6,40c-8.8,0-35-10.8-48.5-21.1c-8.3-6.3-11.8-12.5-3.5-15.9
			c27.6-11.4,6.7-70.7,29.3-45c0.5,0.6,1.1,1.2,1.8,1.9C89.4,47.4,128.8,76.4,104.2,75.5z"/>
		<path fill="#A9234E" d="M104.3,75.5c-29.8-1.1,8.2,40-6,40c-8.8,0-35-10.8-48.5-21.1c-8.3-6.3-11.8-12.5-3.5-15.9
			c27.6-11.4,6.7-70.7,29.3-45c0.5,0.6,1.1,1.2,1.8,1.9C89.5,47.4,128.9,76.4,104.3,75.5z"/>
		<path fill="#A9234E" d="M104.3,75.5c-29.8-1.1,8.2,40-6,40c-8.8,0-35-10.8-48.5-21.1c-8.3-6.3-11.8-12.5-3.5-15.9
			c27.6-11.4,6.7-70.7,29.3-45c0.5,0.6,1.1,1.2,1.8,1.9C89.6,47.5,129,76.5,104.3,75.5z"/>
		<path fill="#A9234E" d="M104.4,75.6c-29.8-1.1,8.2,40-6,40c-8.8,0-35-10.8-48.5-21.1c-8.3-6.3-11.8-12.5-3.5-15.9
			c27.6-11.4,6.7-70.7,29.3-45c0.5,0.6,1.1,1.2,1.8,1.9C89.7,47.5,129.1,76.5,104.4,75.6z"/>
		<path fill="#A9234E" d="M104.5,75.6c-29.8-1.1,8.2,40-6,40c-8.8,0-35-10.8-48.5-21.1c-8.3-6.3-11.8-12.5-3.5-15.9
			c27.6-11.4,6.7-70.7,29.3-45c0.5,0.6,1.1,1.2,1.8,1.9C89.7,47.5,129.1,76.5,104.5,75.6z"/>
		<path fill="#A9234E" d="M104.6,75.6c-29.8-1.1,8.2,40-6,40c-8.8,0-35-10.8-48.5-21.1c-8.3-6.3-11.8-12.5-3.5-15.9
			c27.6-11.4,6.7-70.7,29.3-45c0.5,0.6,1.1,1.2,1.8,1.9C89.8,47.6,129.2,76.6,104.6,75.6z"/>
		<path fill="#A9234E" d="M104.6,75.6c-29.8-1.1,8.2,40-6,40c-8.8,0-35-10.8-48.5-21.1c-8.3-6.3-11.8-12.5-3.5-15.9
			c27.6-11.4,6.7-70.7,29.3-45c0.5,0.6,1.1,1.2,1.8,1.9C89.9,47.6,129.3,76.6,104.6,75.6z"/>
		<path fill="#A9234E" d="M104.7,75.7c-29.8-1.1,8.2,40-6,40c-8.8,0-35-10.8-48.5-21.1c-8.3-6.3-11.8-12.5-3.5-15.9
			c27.6-11.4,6.7-70.7,29.3-45c0.5,0.6,1.1,1.2,1.8,1.9C90,47.6,129.4,76.6,104.7,75.7z"/>
		<path fill="#A9234E" d="M104.8,75.7c-29.8-1.1,8.2,40-6,40c-8.8,0-35-10.8-48.5-21.1c-8.3-6.3-11.8-12.5-3.5-15.9
			c27.6-11.4,6.7-70.7,29.3-45c0.5,0.6,1.1,1.2,1.8,1.9C90.1,47.6,129.4,76.6,104.8,75.7z"/>
		<path fill="#A9234E" d="M104.9,75.7c-29.8-1.1,8.2,40-6,40c-8.8,0-35-10.8-48.5-21.1c-8.3-6.3-11.8-12.5-3.5-15.9
			c27.6-11.4,6.7-70.7,29.3-45c0.5,0.6,1.1,1.2,1.8,1.9C90.1,47.7,129.5,76.7,104.9,75.7z"/>
		<path fill="#A9234E" d="M105,75.8c-29.8-1.1,8.2,40-6,40c-8.8,0-35-10.8-48.5-21.1c-8.3-6.3-11.8-12.5-3.5-15.9
			c27.6-11.4,6.7-70.7,29.3-45c0.5,0.6,1.1,1.2,1.8,1.9C90.2,47.7,129.6,76.7,105,75.8z"/>
		<path fill="#A9234E" d="M105,75.8c-29.8-1.1,8.2,40-6,40c-8.8,0-35-10.8-48.5-21.1c-8.3-6.3-11.8-12.5-3.5-15.9
			c27.6-11.4,6.7-70.7,29.3-45c0.5,0.6,1.1,1.2,1.8,1.9C90.3,47.7,129.7,76.7,105,75.8z"/>
		<path fill="#A9234E" d="M105.1,75.8c-29.8-1.1,8.2,40-6,40c-8.8,0-35-10.8-48.5-21.1c-8.3-6.3-11.8-12.5-3.5-15.9
			c27.6-11.4,6.7-70.7,29.3-45c0.5,0.6,1.1,1.2,1.8,1.9C90.4,47.8,129.8,76.8,105.1,75.8z"/>
		<path fill="#A9234E" d="M105.2,75.8c-29.8-1.1,8.2,40-6,40c-8.8,0-35-10.8-48.5-21.1c-8.3-6.3-11.8-12.5-3.5-15.9
			c27.6-11.4,6.7-70.7,29.3-45c0.5,0.6,1.1,1.2,1.8,1.9C90.4,47.8,129.8,76.8,105.2,75.8z"/>
		<path fill="#A9234E" d="M105.3,75.9c-29.8-1.1,8.2,40-6,40c-8.8,0-35-10.8-48.5-21.1c-8.3-6.3-11.8-12.5-3.5-15.9
			c27.6-11.4,6.7-70.7,29.3-45c0.5,0.6,1.1,1.2,1.8,1.9C90.5,47.8,129.9,76.8,105.3,75.9z"/>
		<path fill="#A9234E" d="M105.4,75.9c-29.8-1.1,8.2,40-6,40c-8.8,0-35-10.8-48.5-21.1c-8.3-6.3-11.8-12.5-3.5-15.9
			c27.6-11.4,6.7-70.7,29.3-45c0.5,0.6,1.1,1.2,1.8,1.9C90.6,47.9,130,76.9,105.4,75.9z"/>
		<path fill="#A9234E" d="M105.4,75.9c-29.8-1.1,8.2,40-6,40c-8.8,0-35-10.8-48.5-21.1c-8.3-6.3-11.8-12.5-3.5-15.9
			c27.6-11.4,6.7-70.7,29.3-45c0.5,0.6,1.1,1.2,1.8,1.9C90.7,47.9,130.1,76.9,105.4,75.9z"/>
		<path fill="#A9234E" d="M105.5,76c-29.8-1.1,8.2,40-6,40c-8.8,0-35-10.8-48.5-21.1c-8.3-6.3-11.8-12.5-3.5-15.9
			c27.6-11.4,6.7-70.7,29.3-45c0.5,0.6,1.1,1.2,1.8,1.9C90.8,47.9,130.2,76.9,105.5,76z"/>
		<path fill="#A9234E" d="M105.6,76c-29.8-1.1,8.2,40-6,40c-8.8,0-35-10.8-48.5-21.1c-8.3-6.3-11.8-12.5-3.5-15.9
			c27.6-11.4,6.7-70.7,29.3-45c0.5,0.6,1.1,1.2,1.8,1.9C90.8,47.9,130.2,76.9,105.6,76z"/>
		<path fill="#A9234E" d="M105.7,76c-29.8-1.1,8.2,40-6,40c-8.8,0-35-10.8-48.5-21.1c-8.3-6.3-11.8-12.5-3.5-15.9
			C75.3,67.7,54.4,8.3,77,34c0.5,0.6,1.1,1.2,1.8,1.9C90.9,48,130.3,77,105.7,76z"/>
		<path fill="#A9234E" d="M105.8,76.1c-29.8-1.1,8.2,40-6,40c-8.8,0-35-10.8-48.5-21.1c-8.3-6.3-11.8-12.5-3.5-15.9
			c27.6-11.4,6.7-70.7,29.3-45c0.5,0.6,1.1,1.2,1.8,1.9C91,48,130.4,77,105.8,76.1z"/>
		<path fill="#A9234E" d="M105.8,76.1c-29.8-1.1,8.2,40-6,40c-8.8,0-35-10.8-48.5-21.1c-8.3-6.3-11.8-12.5-3.5-15.9
			c27.6-11.4,6.7-70.7,29.3-45c0.5,0.6,1.1,1.2,1.8,1.9C91.1,48,130.5,77,105.8,76.1z"/>
		<path fill="#A9234E" d="M105.9,76.1c-29.8-1.1,8.2,40-6,40c-8.8,0-35-10.8-48.5-21.1c-8.3-6.3-11.8-12.5-3.5-15.9
			c27.6-11.4,6.7-70.7,29.3-45c0.5,0.6,1.1,1.2,1.8,1.9C91.2,48.1,130.6,77.1,105.9,76.1z"/>
		<path fill="#A9234E" d="M106,76.1c-29.8-1.1,8.2,40-6,40c-8.8,0-35-10.8-48.5-21.1c-8.3-6.3-11.8-12.5-3.5-15.9
			c27.6-11.4,6.7-70.7,29.3-45c0.5,0.6,1.1,1.2,1.8,1.9C91.2,48.1,130.6,77.1,106,76.1z"/>
		<path fill="#A9234E" d="M106.1,76.2c-29.8-1.1,8.2,40-6,40c-8.8,0-35-10.8-48.5-21.1c-8.3-6.3-11.8-12.5-3.5-15.9
			c27.6-11.4,6.7-70.7,29.3-45c0.5,0.6,1.1,1.2,1.8,1.9C91.3,48.1,130.7,77.1,106.1,76.2z"/>
		<path fill="#A9234E" d="M106.2,76.2c-29.8-1.1,8.2,40-6,40c-8.8,0-35-10.8-48.5-21.1c-8.3-6.3-11.8-12.5-3.5-15.9
			c27.6-11.4,6.7-70.7,29.3-45c0.5,0.6,1.1,1.2,1.8,1.9C91.4,48.1,130.8,77.2,106.2,76.2z"/>
		<path fill="#A9234E" d="M106.2,76.2c-29.8-1.1,8.2,40-6,40c-8.8,0-35-10.8-48.5-21.1c-8.3-6.3-11.8-12.5-3.5-15.9
			c27.6-11.4,6.7-70.7,29.3-45c0.5,0.6,1.1,1.2,1.8,1.9C91.5,48.2,130.9,77.2,106.2,76.2z"/>
		<path fill="#A9234E" d="M106.3,76.3c-29.8-1.1,8.2,40-6,40c-8.8,0-35-10.8-48.5-21.1c-8.3-6.3-11.8-12.5-3.5-15.9
			c27.6-11.4,6.7-70.7,29.3-45c0.5,0.6,1.1,1.2,1.8,1.9C91.6,48.2,131,77.2,106.3,76.3z"/>
		<path fill="#A9234E" d="M106.4,76.3c-29.8-1.1,8.2,40-6,40c-8.8,0-35-10.8-48.5-21.1c-8.3-6.3-11.8-12.5-3.5-15.9
			c27.6-11.4,6.7-70.7,29.3-45c0.5,0.6,1.1,1.2,1.8,1.9C91.6,48.2,131,77.2,106.4,76.3z"/>
		<path fill="#A9234E" d="M106.5,76.3c-29.8-1.1,8.2,40-6,40c-8.8,0-35-10.8-48.5-21.1c-8.3-6.3-11.8-12.5-3.5-15.9
			c27.6-11.4,6.7-70.7,29.3-45c0.5,0.6,1.1,1.2,1.8,1.9C91.7,48.3,131.1,77.3,106.5,76.3z"/>
		<path fill="#A9234E" d="M106.5,76.4c-29.8-1.1,8.2,40-6,40c-8.8,0-35-10.8-48.5-21.1c-8.3-6.3-11.8-12.5-3.5-15.9
			c27.6-11.4,6.7-70.7,29.3-45c0.5,0.6,1.1,1.2,1.8,1.9C91.8,48.3,131.2,77.3,106.5,76.4z"/>
		<path fill="#A9234E" d="M106.6,76.4c-29.8-1.1,8.2,40-6,40c-8.8,0-35-10.8-48.5-21.1c-8.3-6.3-11.8-12.5-3.5-15.9
			C76.2,68,55.4,8.7,78,34.4c0.5,0.6,1.1,1.2,1.8,1.9C91.9,48.3,131.3,77.3,106.6,76.4z"/>
		<path fill="#A9234E" d="M106.7,76.4c-29.8-1.1,8.2,40-6,40c-8.8,0-35-10.8-48.5-21.1c-8.3-6.3-11.8-12.5-3.5-15.9
			C76.3,68,55.4,8.7,78,34.4c0.5,0.6,1.1,1.2,1.8,1.9C92,48.4,131.3,77.4,106.7,76.4z"/>
		<path fill="#A9234E" d="M106.8,76.4c-29.8-1.1,8.2,40-6,40c-8.8,0-35-10.8-48.5-21.1C44,89,40.5,82.9,48.8,79.4
			c27.6-11.4,6.7-70.7,29.3-45c0.5,0.6,1.1,1.2,1.8,1.9C92,48.4,131.4,77.4,106.8,76.4z"/>
		<path fill="#A9234E" d="M106.9,76.5c-29.8-1.1,8.2,40-6,40c-8.8,0-35-10.8-48.5-21.1c-8.3-6.3-11.8-12.5-3.5-15.9
			c27.6-11.4,6.7-70.7,29.3-45c0.5,0.6,1.1,1.2,1.8,1.9C92.1,48.4,131.5,77.4,106.9,76.5z"/>
		<path fill="#A9234E" d="M106.9,76.5c-29.8-1.1,8.2,40-6,40c-8.8,0-35-10.8-48.5-21.1c-8.3-6.3-11.8-12.5-3.5-15.9
			c27.6-11.4,6.7-70.7,29.3-45c0.5,0.6,1.1,1.2,1.8,1.9C92.2,48.4,131.6,77.5,106.9,76.5z"/>
		<path fill="#A9234E" d="M107,76.5c-29.8-1.1,8.2,40-6,40c-8.8,0-35-10.8-48.5-21.1C44.2,89.1,40.7,83,49,79.5
			c27.6-11.4,6.7-70.7,29.3-45c0.5,0.6,1.1,1.2,1.8,1.9C92.3,48.5,131.7,77.5,107,76.5z"/>
		<path fill="#A9234E" d="M107.1,76.6c-29.8-1.1,8.2,40-6,40c-8.8,0-35-10.8-48.5-21.1c-8.3-6.3-11.8-12.5-3.5-15.9
			c27.6-11.4,6.7-70.7,29.3-45c0.5,0.6,1.1,1.2,1.8,1.9C92.3,48.5,131.7,77.5,107.1,76.6z"/>
		<path fill="#A9234E" d="M107.2,76.6c-29.8-1.1,8.2,40-6,40c-8.8,0-35-10.8-48.5-21.1c-8.3-6.3-11.8-12.5-3.5-15.9
			c27.6-11.4,6.7-70.7,29.3-45c0.5,0.6,1.1,1.2,1.8,1.9C92.4,48.5,131.8,77.5,107.2,76.6z"/>
		<path fill="#A9234E" d="M107.3,76.6c-29.8-1.1,8.2,40-6,40c-8.8,0-35-10.8-48.5-21.1C44.4,89.2,41,83,49.3,79.6
			c27.6-11.4,6.7-70.7,29.3-45c0.5,0.6,1.1,1.2,1.8,1.9C92.5,48.6,131.9,77.6,107.3,76.6z"/>
		<path fill="#A9234E" d="M107.3,76.7c-29.8-1.1,8.2,40-6,40c-8.8,0-35-10.8-48.5-21.1c-8.3-6.3-11.8-12.5-3.5-15.9
			c27.6-11.4,6.7-70.7,29.3-45c0.5,0.6,1.1,1.2,1.8,1.9C92.6,48.6,132,77.6,107.3,76.7z"/>
		<path fill="#A9234E" d="M107.4,76.7c-29.8-1.1,8.2,40-6,40c-8.8,0-35-10.8-48.5-21.1c-8.3-6.3-11.8-12.5-3.5-15.9
			C77,68.3,56.1,9,78.8,34.7c0.5,0.6,1.1,1.2,1.8,1.9C92.7,48.6,132.1,77.6,107.4,76.7z"/>
		<path fill="#A9234E" d="M107.5,76.7c-29.8-1.1,8.2,40-6,40c-8.8,0-35-10.8-48.5-21.1c-8.3-6.3-11.8-12.5-3.5-15.9
			c27.6-11.4,6.7-70.7,29.3-45c0.5,0.6,1.1,1.2,1.8,1.9C92.7,48.7,132.1,77.7,107.5,76.7z"/>
		<path fill="#A9234E" d="M107.6,76.7c-29.8-1.1,8.2,40-6,40c-8.8,0-35-10.8-48.5-21.1c-8.3-6.3-11.8-12.5-3.5-15.9
			c27.6-11.4,6.7-70.7,29.3-45c0.5,0.6,1.1,1.2,1.8,1.9C92.8,48.7,132.2,77.7,107.6,76.7z"/>
		<path fill="#A9234E" d="M107.7,76.8c-29.8-1.1,8.2,40-6,40c-8.8,0-35-10.8-48.5-21.1c-8.3-6.3-11.8-12.5-3.5-15.9
			C77.2,68.4,56.4,9,79,34.8c0.5,0.6,1.1,1.2,1.8,1.9C92.9,48.7,132.3,77.7,107.7,76.8z"/>
		<path fill="#A9234E" d="M107.7,76.8c-29.8-1.1,8.2,40-6,40c-8.8,0-35-10.8-48.5-21.1c-8.3-6.3-11.8-12.5-3.5-15.9
			c27.6-11.4,6.7-70.7,29.3-45c0.5,0.6,1.1,1.2,1.8,1.9C93,48.7,132.4,77.7,107.7,76.8z"/>
		<path fill="#A9234E" d="M107.8,76.8c-29.8-1.1,8.2,40-6,40c-8.8,0-35-10.8-48.5-21.1c-8.3-6.3-11.8-12.5-3.5-15.9
			c27.6-11.4,6.7-70.7,29.3-45c0.5,0.6,1.1,1.2,1.8,1.9C93.1,48.8,132.5,77.8,107.8,76.8z"/>
		<path fill="#A9234E" d="M107.9,76.9c-29.8-1.1,8.2,40-6,40c-8.8,0-35-10.8-48.5-21.1c-8.3-6.3-11.8-12.5-3.5-15.9
			c27.6-11.4,6.7-70.7,29.3-45c0.5,0.6,1.1,1.2,1.8,1.9C93.1,48.8,132.5,77.8,107.9,76.9z"/>
		<path fill="#A9234E" d="M108,76.9c-29.8-1.1,8.2,40-6,40c-8.8,0-35-10.8-48.5-21.1c-8.3-6.3-11.8-12.5-3.5-15.9
			c27.6-11.4,6.7-70.7,29.3-45c0.5,0.6,1.1,1.2,1.8,1.9C93.2,48.8,132.6,77.8,108,76.9z"/>
		<path fill="#A9234E" d="M108.1,76.9c-29.8-1.1,8.2,40-6,40c-8.8,0-35-10.8-48.5-21.1c-8.3-6.3-11.8-12.5-3.5-15.9
			c27.6-11.4,6.7-70.7,29.3-45c0.5,0.6,1.1,1.2,1.8,1.9C93.3,48.9,132.7,77.9,108.1,76.9z"/>
		<path fill="#A9234E" d="M108.1,76.9c-29.8-1.1,8.2,40-6,40c-8.8,0-35-10.8-48.5-21.1c-8.3-6.3-11.8-12.5-3.5-15.9
			c27.6-11.4,6.7-70.7,29.3-45c0.5,0.6,1.1,1.2,1.8,1.9C93.4,48.9,132.8,77.9,108.1,76.9z"/>
		<path fill="#A9234E" d="M108.2,77c-29.8-1.1,8.2,40-6,40c-8.8,0-35-10.8-48.5-21.1c-8.3-6.3-11.8-12.5-3.5-15.9
			c27.6-11.4,6.7-70.7,29.3-45c0.5,0.6,1.1,1.2,1.8,1.9C93.5,48.9,132.9,77.9,108.2,77z"/>
		<path fill="#A9234E" d="M108.3,77c-29.8-1.1,8.2,40-6,40c-8.8,0-35-10.8-48.5-21.1C45.5,89.6,42,83.4,50.3,80
			C77.9,68.6,57,9.3,79.6,35c0.5,0.6,1.1,1.2,1.8,1.9C93.5,49,132.9,78,108.3,77z"/>
		<path fill="#A9234E" d="M108.4,77c-29.8-1.1,8.2,40-6,40c-8.8,0-35-10.8-48.5-21.1c-8.3-6.3-11.8-12.5-3.5-15.9
			C78,68.7,57.1,9.3,79.7,35c0.5,0.6,1.1,1.2,1.8,1.9C93.6,49,133,78,108.4,77z"/>
		<path fill="#A9234E" d="M108.5,77.1c-29.8-1.1,8.2,40-6,40c-8.8,0-35-10.8-48.5-21.1c-8.3-6.3-11.8-12.5-3.5-15.9
			c27.6-11.4,6.7-70.7,29.3-45c0.5,0.6,1.1,1.2,1.8,1.9C93.7,49,133.1,78,108.5,77.1z"/>
		<path fill="#A9234E" d="M108.5,77.1c-29.8-1.1,8.2,40-6,40c-8.8,0-35-10.8-48.5-21.1c-8.3-6.3-11.8-12.5-3.5-15.9
			c27.6-11.4,6.7-70.7,29.3-45c0.5,0.6,1.1,1.2,1.8,1.9C93.8,49,133.2,78,108.5,77.1z"/>
		<path fill="#A9234E" d="M108.6,77.1c-29.8-1.1,8.2,40-6,40c-8.8,0-35-10.8-48.5-21.1c-8.3-6.3-11.8-12.5-3.5-15.9
			c27.6-11.4,6.7-70.7,29.3-45c0.5,0.6,1.1,1.2,1.8,1.9C93.9,49.1,133.2,78.1,108.6,77.1z"/>
		<path fill="#A9234E" d="M108.7,77.2c-29.8-1.1,8.2,40-6,40c-8.8,0-35-10.8-48.5-21.1c-8.3-6.3-11.8-12.5-3.5-15.9
			c27.6-11.4,6.7-70.7,29.3-45c0.5,0.6,1.1,1.2,1.8,1.9C93.9,49.1,133.3,78.1,108.7,77.2z"/>
		<path fill="#A9234E" d="M108.8,77.2c-29.8-1.1,8.2,40-6,40c-8.8,0-35-10.8-48.5-21.1c-8.3-6.3-11.8-12.5-3.5-15.9
			c27.6-11.4,6.7-70.7,29.3-45c0.5,0.6,1.1,1.2,1.8,1.9C94,49.1,133.4,78.1,108.8,77.2z"/>
		<path fill="#A9234E" d="M108.8,77.2c-29.8-1.1,8.2,40-6,40c-8.8,0-35-10.8-48.5-21.1c-8.3-6.3-11.8-12.5-3.5-15.9
			c27.6-11.4,6.7-70.7,29.3-45c0.5,0.6,1.1,1.2,1.8,1.9C94.1,49.2,133.5,78.2,108.8,77.2z"/>
		<path fill="#A9234E" d="M108.9,77.2c-29.8-1.1,8.2,40-6,40c-8.8,0-35-10.8-48.5-21.1c-8.3-6.3-11.8-12.5-3.5-15.9
			c27.6-11.4,6.7-70.7,29.3-45c0.5,0.6,1.1,1.2,1.8,1.9C94.2,49.2,133.6,78.2,108.9,77.2z"/>
		<path fill="#A9234E" d="M109,77.3c-29.8-1.1,8.2,40-6,40c-8.8,0-35-10.8-48.5-21.1c-8.3-6.3-11.8-12.5-3.5-15.9
			c27.6-11.4,6.7-70.7,29.3-45c0.5,0.6,1.1,1.2,1.8,1.9C94.3,49.2,133.6,78.2,109,77.3z"/>
		<path fill="#A9234E" d="M109.1,77.3c-29.8-1.1,8.2,40-6,40c-8.8,0-35-10.8-48.5-21.1c-8.3-6.3-11.8-12.5-3.5-15.9
			c27.6-11.4,6.7-70.7,29.3-45c0.5,0.6,1.1,1.2,1.8,1.9C94.3,49.2,133.7,78.3,109.1,77.3z"/>
		<path fill="#A9234E" d="M109.2,77.3c-29.8-1.1,8.2,40-6,40c-8.8,0-35-10.8-48.5-21.1c-8.3-6.3-11.8-12.5-3.5-15.9
			c27.6-11.4,6.7-70.7,29.3-45c0.5,0.6,1.1,1.2,1.8,1.9C94.4,49.3,133.8,78.3,109.2,77.3z"/>
	</g>
	<path fill="#9D805D" d="M505.8,294.8v-7.2c-0.6,1.1-1,2.3-1,3.6C504.8,292.5,505.2,293.8,505.8,294.8z M505.8,294.8v-7.2
		c-0.6,1.1-1,2.3-1,3.6C504.8,292.5,505.2,293.8,505.8,294.8z M536.8,313.3h-39v-75h39V313.3z M486.8,216.3v120h62v-120H486.8z
		 M505.8,294.8v-7.2c-0.6,1.1-1,2.3-1,3.6C504.8,292.5,505.2,293.8,505.8,294.8z"/>
	<path fill="#9D805D" d="M544.8,316.3h-39v-75h39V316.3z M494.8,219.3v120h62v-120H494.8z"/>
	<path fill="#D5B58D" d="M494.8,219.3l-8-3h62l8,3H494.8z"/>
	<path fill="#9D805D" d="M494.8,219.3v120l-8-3v-120L494.8,219.3z"/>
	<g>
		<path fill="#5D916A" d="M451.8,220.3c0,10.5-19,27-48.5,27c-12.7,0-23.3-3.2-31.2-7.7c-10.5-6-16.3-14.2-16.3-20.2
			c0-10.5,17.9-10.2,47.5-10.2c9.3,0,17.6,0,24.5,0.4C442.9,210.6,451.8,213.1,451.8,220.3z"/>
		<path fill="#5D916A" d="M451.9,220.3c0,10.5-19,27-48.5,27c-12.7,0-23.3-3.2-31.2-7.7c-10.5-6-16.3-14.2-16.3-20.2
			c0-10.5,17.9-10.2,47.5-10.2c9.3,0,17.6,0,24.5,0.4C443,210.6,451.9,213.1,451.9,220.3z"/>
		<path fill="#5D916A" d="M452,220.3c0,10.5-19,27-48.5,27c-12.7,0-23.3-3.2-31.2-7.7c-10.5-6-16.3-14.2-16.3-20.2
			c0-10.5,17.9-10.2,47.5-10.2c9.3,0,17.6,0,24.5,0.4C443.1,210.7,452,213.1,452,220.3z"/>
		<path fill="#5D916A" d="M452.1,220.4c0,10.5-19,27-48.5,27c-12.7,0-23.3-3.2-31.2-7.7c-10.5-6-16.3-14.2-16.3-20.2
			c0-10.5,17.9-10.2,47.5-10.2c9.3,0,17.6,0,24.5,0.4C443.2,210.7,452.1,213.2,452.1,220.4z"/>
		<path fill="#5D916A" d="M452.2,220.4c0,10.5-19,27-48.5,27c-12.7,0-23.3-3.2-31.2-7.7c-10.5-6-16.3-14.2-16.3-20.2
			c0-10.5,17.9-10.2,47.5-10.2c9.3,0,17.6,0,24.5,0.4C443.2,210.7,452.2,213.2,452.2,220.4z"/>
		<path fill="#5D916A" d="M452.2,220.4c0,10.5-19,27-48.5,27c-12.7,0-23.3-3.2-31.2-7.7c-10.5-6-16.3-14.2-16.3-20.2
			c0-10.5,17.9-10.2,47.5-10.2c9.3,0,17.6,0,24.5,0.4C443.3,210.7,452.2,213.2,452.2,220.4z"/>
		<path fill="#5D916A" d="M452.3,220.5c0,10.5-19,27-48.5,27c-12.7,0-23.3-3.2-31.2-7.7c-10.5-6-16.3-14.2-16.3-20.2
			c0-10.5,17.9-10.2,47.5-10.2c9.3,0,17.6,0,24.5,0.4C443.4,210.8,452.3,213.3,452.3,220.5z"/>
		<path fill="#5D916A" d="M452.4,220.5c0,10.5-19,27-48.5,27c-12.7,0-23.3-3.2-31.2-7.7c-10.5-6-16.3-14.2-16.3-20.2
			c0-10.5,17.9-10.2,47.5-10.2c9.3,0,17.6,0,24.5,0.4C443.5,210.8,452.4,213.3,452.4,220.5z"/>
		<path fill="#5D916A" d="M452.5,220.5c0,10.5-19,27-48.5,27c-12.7,0-23.3-3.2-31.2-7.7c-10.5-6-16.3-14.2-16.3-20.2
			c0-10.5,17.9-10.2,47.5-10.2c9.3,0,17.6,0,24.5,0.4C443.6,210.8,452.5,213.3,452.5,220.5z"/>
		<path fill="#5D916A" d="M452.5,220.6c0,10.5-19,27-48.5,27c-12.7,0-23.3-3.2-31.2-7.7c-10.5-6-16.3-14.2-16.3-20.2
			c0-10.5,17.9-10.2,47.5-10.2c9.3,0,17.6,0,24.5,0.4C443.6,210.9,452.5,213.4,452.5,220.6z"/>
		<path fill="#5D916A" d="M452.6,220.6c0,10.5-19,27-48.5,27c-12.7,0-23.3-3.2-31.2-7.7c-10.5-6-16.3-14.2-16.3-20.2
			c0-10.5,17.9-10.2,47.5-10.2c9.3,0,17.6,0,24.5,0.4C443.7,210.9,452.6,213.4,452.6,220.6z"/>
		<path fill="#5D916A" d="M452.7,220.6c0,10.5-19,27-48.5,27c-12.7,0-23.3-3.2-31.2-7.7c-10.5-6-16.3-14.2-16.3-20.2
			c0-10.5,17.9-10.2,47.5-10.2c9.3,0,17.6,0,24.5,0.4C443.8,210.9,452.7,213.4,452.7,220.6z"/>
		<path fill="#5D916A" d="M452.8,220.6c0,10.5-19,27-48.5,27c-12.7,0-23.3-3.2-31.2-7.7c-10.5-6-16.3-14.2-16.3-20.2
			c0-10.5,17.9-10.2,47.5-10.2c9.3,0,17.6,0,24.5,0.4C443.9,210.9,452.8,213.4,452.8,220.6z"/>
		<path fill="#5D916A" d="M452.9,220.7c0,10.5-19,27-48.5,27c-12.7,0-23.3-3.2-31.2-7.7c-10.5-6-16.3-14.2-16.3-20.2
			c0-10.5,17.9-10.2,47.5-10.2c9.3,0,17.6,0,24.5,0.4C444,211,452.9,213.5,452.9,220.7z"/>
		<path fill="#5D916A" d="M452.9,220.7c0,10.5-19,27-48.5,27c-12.7,0-23.3-3.2-31.2-7.7c-10.5-6-16.3-14.2-16.3-20.2
			c0-10.5,17.9-10.2,47.5-10.2c9.3,0,17.6,0,24.5,0.4C444,211,452.9,213.5,452.9,220.7z"/>
		<path fill="#5D916A" d="M453,220.7c0,10.5-19,27-48.5,27c-12.7,0-23.3-3.2-31.2-7.7c-10.5-6-16.3-14.2-16.3-20.2
			c0-10.5,17.9-10.2,47.5-10.2c9.3,0,17.6,0,24.5,0.4C444.1,211,453,213.5,453,220.7z"/>
		<path fill="#5D916A" d="M453.1,220.8c0,10.5-19,27-48.5,27c-12.7,0-23.3-3.2-31.2-7.7c-10.5-6-16.3-14.2-16.3-20.2
			c0-10.5,17.9-10.2,47.5-10.2c9.3,0,17.6,0,24.5,0.4C444.2,211.1,453.1,213.6,453.1,220.8z"/>
		<path fill="#5D916A" d="M453.2,220.8c0,10.5-19,27-48.5,27c-12.7,0-23.3-3.2-31.2-7.7c-10.5-6-16.3-14.2-16.3-20.2
			c0-10.5,17.9-10.2,47.5-10.2c9.3,0,17.6,0,24.5,0.4C444.3,211.1,453.2,213.6,453.2,220.8z"/>
		<path fill="#5D916A" d="M453.3,220.8c0,10.5-19,27-48.5,27c-12.7,0-23.3-3.2-31.2-7.7c-10.5-6-16.3-14.2-16.3-20.2
			c0-10.5,17.9-10.2,47.5-10.2c9.3,0,17.6,0,24.5,0.4C444.3,211.1,453.3,213.6,453.3,220.8z"/>
		<path fill="#5D916A" d="M453.3,220.8c0,10.5-19,27-48.5,27c-12.7,0-23.3-3.2-31.2-7.7c-10.5-6-16.3-14.2-16.3-20.2
			c0-10.5,17.9-10.2,47.5-10.2c9.3,0,17.6,0,24.5,0.4C444.4,211.2,453.3,213.6,453.3,220.8z"/>
		<path fill="#5D916A" d="M453.4,220.9c0,10.5-19,27-48.5,27c-12.7,0-23.3-3.2-31.2-7.7c-10.5-6-16.3-14.2-16.3-20.2
			c0-10.5,17.9-10.2,47.5-10.2c9.3,0,17.6,0,24.5,0.4C444.5,211.2,453.4,213.7,453.4,220.9z"/>
		<path fill="#5D916A" d="M453.5,220.9c0,10.5-19,27-48.5,27c-12.7,0-23.3-3.2-31.2-7.7c-10.5-6-16.3-14.2-16.3-20.2
			c0-10.5,17.9-10.2,47.5-10.2c9.3,0,17.6,0,24.5,0.4C444.6,211.2,453.5,213.7,453.5,220.9z"/>
		<path fill="#5D916A" d="M453.6,220.9c0,10.5-19,27-48.5,27c-12.7,0-23.3-3.2-31.2-7.7c-10.5-6-16.3-14.2-16.3-20.2
			c0-10.5,17.9-10.2,47.5-10.2c9.3,0,17.6,0,24.5,0.4C444.7,211.2,453.6,213.7,453.6,220.9z"/>
		<path fill="#5D916A" d="M453.7,221c0,10.5-19,27-48.5,27c-12.7,0-23.3-3.2-31.2-7.7c-10.5-6-16.3-14.2-16.3-20.2
			c0-10.5,17.9-10.2,47.5-10.2c9.3,0,17.6,0,24.5,0.4C444.7,211.3,453.7,213.8,453.7,221z"/>
		<path fill="#5D916A" d="M453.7,221c0,10.5-19,27-48.5,27c-12.7,0-23.3-3.2-31.2-7.7c-10.5-6-16.3-14.2-16.3-20.2
			c0-10.5,17.9-10.2,47.5-10.2c9.3,0,17.6,0,24.5,0.4C444.8,211.3,453.7,213.8,453.7,221z"/>
		<path fill="#5D916A" d="M453.8,221c0,10.5-19,27-48.5,27c-12.7,0-23.3-3.2-31.2-7.7c-10.5-6-16.3-14.2-16.3-20.2
			c0-10.5,17.9-10.2,47.5-10.2c9.3,0,17.6,0,24.5,0.4C444.9,211.3,453.8,213.8,453.8,221z"/>
		<path fill="#5D916A" d="M453.9,221.1c0,10.5-19,27-48.5,27c-12.7,0-23.3-3.2-31.2-7.7c-10.5-6-16.3-14.2-16.3-20.2
			c0-10.5,17.9-10.2,47.5-10.2c9.3,0,17.6,0,24.5,0.4C445,211.4,453.9,213.9,453.9,221.1z"/>
		<path fill="#5D916A" d="M454,221.1c0,10.5-19,27-48.5,27c-12.7,0-23.3-3.2-31.2-7.7c-10.5-6-16.3-14.2-16.3-20.2
			c0-10.5,17.9-10.2,47.5-10.2c9.3,0,17.6,0,24.5,0.4C445.1,211.4,454,213.9,454,221.1z"/>
		<path fill="#5D916A" d="M454.1,221.1c0,10.5-19,27-48.5,27c-12.7,0-23.3-3.2-31.2-7.7c-10.5-6-16.3-14.2-16.3-20.2
			c0-10.5,17.9-10.2,47.5-10.2c9.3,0,17.6,0,24.5,0.4C445.1,211.4,454.1,213.9,454.1,221.1z"/>
		<path fill="#5D916A" d="M454.1,221.1c0,10.5-19,27-48.5,27c-12.7,0-23.2-3.2-31.2-7.7c-10.5-6-16.3-14.2-16.3-20.2
			c0-10.5,17.9-10.2,47.5-10.2c9.3,0,17.6,0,24.5,0.4C445.2,211.5,454.1,213.9,454.1,221.1z"/>
		<path fill="#5D916A" d="M454.2,221.2c0,10.5-19,27-48.5,27c-12.7,0-23.3-3.2-31.2-7.7c-10.5-6-16.3-14.2-16.3-20.2
			c0-10.5,17.9-10.2,47.5-10.2c9.3,0,17.6,0,24.5,0.4C445.3,211.5,454.2,214,454.2,221.2z"/>
		<path fill="#5D916A" d="M454.3,221.2c0,10.5-19,27-48.5,27c-12.7,0-23.3-3.2-31.2-7.7c-10.5-6-16.3-14.2-16.3-20.2
			c0-10.5,17.9-10.2,47.5-10.2c9.3,0,17.6,0,24.5,0.4C445.4,211.5,454.3,214,454.3,221.2z"/>
		<path fill="#5D916A" d="M454.4,221.2c0,10.5-19,27-48.5,27c-12.7,0-23.3-3.2-31.2-7.7c-10.5-6-16.3-14.2-16.3-20.2
			c0-10.5,17.9-10.2,47.5-10.2c9.3,0,17.6,0,24.5,0.4C445.5,211.5,454.4,214,454.4,221.2z"/>
		<path fill="#5D916A" d="M454.4,221.3c0,10.5-19,27-48.5,27c-12.7,0-23.3-3.2-31.2-7.7c-10.5-6-16.3-14.2-16.3-20.2
			c0-10.5,17.9-10.2,47.5-10.2c9.3,0,17.6,0,24.5,0.4C445.5,211.6,454.4,214.1,454.4,221.3z"/>
		<path fill="#5D916A" d="M454.5,221.3c0,10.5-19,27-48.5,27c-12.7,0-23.3-3.2-31.2-7.7c-10.5-6-16.3-14.2-16.3-20.2
			c0-10.5,17.9-10.2,47.5-10.2c9.3,0,17.6,0,24.5,0.4C445.6,211.6,454.5,214.1,454.5,221.3z"/>
		<path fill="#5D916A" d="M454.6,221.3c0,10.5-19,27-48.5,27c-12.7,0-23.3-3.2-31.2-7.7c-10.5-6-16.3-14.2-16.3-20.2
			c0-10.5,17.9-10.2,47.5-10.2c9.3,0,17.6,0,24.5,0.4C445.7,211.6,454.6,214.1,454.6,221.3z"/>
		<path fill="#5D916A" d="M454.7,221.4c0,10.5-19,27-48.5,27c-12.7,0-23.3-3.2-31.2-7.7c-10.5-6-16.3-14.2-16.3-20.2
			c0-10.5,17.9-10.2,47.5-10.2c9.3,0,17.6,0,24.5,0.4C445.8,211.7,454.7,214.2,454.7,221.4z"/>
		<path fill="#5D916A" d="M454.8,221.4c0,10.5-19,27-48.5,27c-12.7,0-23.3-3.2-31.2-7.7c-10.5-6-16.3-14.2-16.3-20.2
			c0-10.5,17.9-10.2,47.5-10.2c9.3,0,17.6,0,24.5,0.4C445.9,211.7,454.8,214.2,454.8,221.4z"/>
		<path fill="#5D916A" d="M454.8,221.4c0,10.5-19,27-48.5,27c-12.7,0-23.3-3.2-31.2-7.7c-10.5-6-16.3-14.2-16.3-20.2
			c0-10.5,17.9-10.2,47.5-10.2c9.3,0,17.6,0,24.5,0.4C445.9,211.7,454.8,214.2,454.8,221.4z"/>
		<path fill="#5D916A" d="M454.9,221.4c0,10.5-19,27-48.5,27c-12.7,0-23.3-3.2-31.2-7.7c-10.5-6-16.3-14.2-16.3-20.2
			c0-10.5,17.9-10.2,47.5-10.2c9.3,0,17.6,0,24.5,0.4C446,211.8,454.9,214.2,454.9,221.4z"/>
		<path fill="#5D916A" d="M455,221.5c0,10.5-19,27-48.5,27c-12.7,0-23.3-3.2-31.2-7.7c-10.5-6-16.3-14.2-16.3-20.2
			c0-10.5,17.9-10.2,47.5-10.2c9.3,0,17.6,0,24.5,0.4C446.1,211.8,455,214.3,455,221.5z"/>
		<path fill="#5D916A" d="M455.1,221.5c0,10.5-19,27-48.5,27c-12.7,0-23.3-3.2-31.2-7.7c-10.5-6-16.3-14.2-16.3-20.2
			c0-10.5,17.9-10.2,47.5-10.2c9.3,0,17.6,0,24.5,0.4C446.2,211.8,455.1,214.3,455.1,221.5z"/>
		<path fill="#5D916A" d="M455.2,221.5c0,10.5-19,27-48.5,27c-12.7,0-23.3-3.2-31.2-7.7c-10.5-6-16.3-14.2-16.3-20.2
			c0-10.5,17.9-10.2,47.5-10.2c9.3,0,17.6,0,24.5,0.4C446.2,211.8,455.2,214.3,455.2,221.5z"/>
		<path fill="#5D916A" d="M455.2,221.6c0,10.5-19,27-48.5,27c-12.7,0-23.3-3.2-31.2-7.7c-10.5-6-16.3-14.2-16.3-20.2
			c0-10.5,17.9-10.2,47.5-10.2c9.3,0,17.6,0,24.5,0.4C446.3,211.9,455.2,214.4,455.2,221.6z"/>
		<path fill="#5D916A" d="M455.3,221.6c0,10.5-19,27-48.5,27c-12.7,0-23.3-3.2-31.2-7.7c-10.5-6-16.3-14.2-16.3-20.2
			c0-10.5,17.9-10.2,47.5-10.2c9.3,0,17.6,0,24.5,0.4C446.4,211.9,455.3,214.4,455.3,221.6z"/>
		<path fill="#5D916A" d="M455.4,221.6c0,10.5-19,27-48.5,27c-12.7,0-23.3-3.2-31.2-7.7c-10.5-6-16.3-14.2-16.3-20.2
			c0-10.5,17.9-10.2,47.5-10.2c9.3,0,17.6,0,24.5,0.4C446.5,211.9,455.4,214.4,455.4,221.6z"/>
		<path fill="#5D916A" d="M455.5,221.6c0,10.5-19,27-48.5,27c-12.7,0-23.3-3.2-31.2-7.7c-10.5-6-16.3-14.2-16.3-20.2
			c0-10.5,17.9-10.2,47.5-10.2c9.3,0,17.6,0,24.5,0.4C446.6,212,455.5,214.4,455.5,221.6z"/>
		<path fill="#5D916A" d="M455.6,221.7c0,10.5-19,27-48.5,27c-12.7,0-23.3-3.2-31.2-7.7c-10.5-6-16.3-14.2-16.3-20.2
			c0-10.5,17.9-10.2,47.5-10.2c9.3,0,17.6,0,24.5,0.4C446.6,212,455.6,214.5,455.6,221.7z"/>
		<path fill="#5D916A" d="M455.6,221.7c0,10.5-19,27-48.5,27c-12.7,0-23.3-3.2-31.2-7.7c-10.5-6-16.3-14.2-16.3-20.2
			c0-10.5,17.9-10.2,47.5-10.2c9.3,0,17.6,0,24.5,0.4C446.7,212,455.6,214.5,455.6,221.7z"/>
		<path fill="#5D916A" d="M455.7,221.7c0,10.5-19,27-48.5,27c-12.7,0-23.3-3.2-31.2-7.7c-10.5-6-16.3-14.2-16.3-20.2
			c0-10.5,17.9-10.2,47.5-10.2c9.3,0,17.6,0,24.5,0.4C446.8,212,455.7,214.5,455.7,221.7z"/>
		<path fill="#5D916A" d="M455.8,221.8c0,10.5-19,27-48.5,27c-12.7,0-23.3-3.2-31.2-7.7c-10.5-6-16.3-14.2-16.3-20.2
			c0-10.5,17.9-10.2,47.5-10.2c9.3,0,17.6,0,24.5,0.4C446.9,212.1,455.8,214.6,455.8,221.8z"/>
		<path fill="#5D916A" d="M455.9,221.8c0,10.5-19,27-48.5,27c-12.7,0-23.3-3.2-31.2-7.7c-10.5-6-16.3-14.2-16.3-20.2
			c0-10.5,17.9-10.2,47.5-10.2c9.3,0,17.6,0,24.5,0.4C447,212.1,455.9,214.6,455.9,221.8z"/>
		<path fill="#5D916A" d="M456,221.8c0,10.5-19,27-48.5,27c-12.7,0-23.3-3.2-31.2-7.7c-10.5-6-16.3-14.2-16.3-20.2
			c0-10.5,17.9-10.2,47.5-10.2c9.3,0,17.6,0,24.5,0.4C447,212.1,456,214.6,456,221.8z"/>
		<path fill="#5D916A" d="M456,221.9c0,10.5-19,27-48.5,27c-12.7,0-23.3-3.2-31.2-7.7c-10.5-6-16.3-14.2-16.3-20.2
			c0-10.5,17.9-10.2,47.5-10.2c9.3,0,17.6,0,24.5,0.4C447.1,212.2,456,214.7,456,221.9z"/>
		<path fill="#5D916A" d="M456.1,221.9c0,10.5-19,27-48.5,27c-12.7,0-23.3-3.2-31.2-7.7c-10.5-6-16.3-14.2-16.3-20.2
			c0-10.5,17.9-10.2,47.5-10.2c9.3,0,17.6,0,24.5,0.4C447.2,212.2,456.1,214.7,456.1,221.9z"/>
		<path fill="#5D916A" d="M456.2,221.9c0,10.5-19,27-48.5,27c-12.7,0-23.3-3.2-31.2-7.7c-10.5-6-16.3-14.2-16.3-20.2
			c0-10.5,17.9-10.2,47.5-10.2c9.3,0,17.6,0,24.5,0.4C447.3,212.2,456.2,214.7,456.2,221.9z"/>
		<path fill="#5D916A" d="M456.3,221.9c0,10.5-19,27-48.5,27c-12.7,0-23.3-3.2-31.2-7.7c-10.5-6-16.3-14.2-16.3-20.2
			c0-10.5,17.9-10.2,47.5-10.2c9.3,0,17.6,0,24.5,0.4C447.4,212.3,456.3,214.7,456.3,221.9z"/>
		<path fill="#5D916A" d="M456.3,222c0,10.5-19,27-48.5,27c-12.7,0-23.3-3.2-31.2-7.7c-10.5-6-16.3-14.2-16.3-20.2
			c0-10.5,17.9-10.2,47.5-10.2c9.3,0,17.6,0,24.5,0.4C447.4,212.3,456.3,214.8,456.3,222z"/>
		<path fill="#5D916A" d="M456.4,222c0,10.5-19,27-48.5,27c-12.7,0-23.3-3.2-31.2-7.7c-10.5-6-16.3-14.2-16.3-20.2
			c0-10.5,17.9-10.2,47.5-10.2c9.3,0,17.6,0,24.5,0.4C447.5,212.3,456.4,214.8,456.4,222z"/>
		<path fill="#5D916A" d="M456.5,222c0,10.5-19,27-48.5,27c-12.7,0-23.3-3.2-31.2-7.7c-10.5-6-16.3-14.2-16.3-20.2
			c0-10.5,17.9-10.2,47.5-10.2c9.3,0,17.6,0,24.5,0.4C447.6,212.3,456.5,214.8,456.5,222z"/>
		<path fill="#5D916A" d="M456.6,222.1c0,10.5-19,27-48.5,27c-12.7,0-23.3-3.2-31.2-7.7c-10.5-6-16.3-14.2-16.3-20.2
			c0-10.5,17.9-10.2,47.5-10.2c9.3,0,17.6,0,24.5,0.4C447.7,212.4,456.6,214.9,456.6,222.1z"/>
		<path fill="#5D916A" d="M456.7,222.1c0,10.5-19,27-48.5,27c-12.7,0-23.3-3.2-31.2-7.7c-10.5-6-16.3-14.2-16.3-20.2
			c0-10.5,17.9-10.2,47.5-10.2c9.3,0,17.6,0,24.5,0.4C447.8,212.4,456.7,214.9,456.7,222.1z"/>
		<path fill="#5D916A" d="M456.7,222.1c0,10.5-19,27-48.5,27c-12.7,0-23.2-3.2-31.2-7.7c-10.5-6-16.3-14.2-16.3-20.2
			c0-10.5,17.9-10.2,47.5-10.2c9.3,0,17.6,0,24.5,0.4C447.8,212.4,456.7,214.9,456.7,222.1z"/>
		<path fill="#5D916A" d="M456.8,222.2c0,10.5-19,27-48.5,27c-12.7,0-23.3-3.2-31.2-7.7c-10.5-6-16.3-14.2-16.3-20.2
			c0-10.5,17.9-10.2,47.5-10.2c9.3,0,17.6,0,24.5,0.4C447.9,212.5,456.8,215,456.8,222.2z"/>
		<path fill="#5D916A" d="M456.9,222.2c0,10.5-19,27-48.5,27c-12.7,0-23.3-3.2-31.2-7.7c-10.5-6-16.3-14.2-16.3-20.2
			c0-10.5,17.9-10.2,47.5-10.2c9.3,0,17.6,0,24.5,0.4C448,212.5,456.9,215,456.9,222.2z"/>
		<path fill="#5D916A" d="M457,222.2c0,10.5-19,27-48.5,27c-12.7,0-23.3-3.2-31.2-7.7c-10.5-6-16.3-14.2-16.3-20.2
			c0-10.5,17.9-10.2,47.5-10.2c9.3,0,17.6,0,24.5,0.4C448.1,212.5,457,215,457,222.2z"/>
		<path fill="#5D916A" d="M457.1,222.2c0,10.5-19,27-48.5,27c-12.7,0-23.3-3.2-31.2-7.7c-10.5-6-16.3-14.2-16.3-20.2
			c0-10.5,17.9-10.2,47.5-10.2c9.3,0,17.6,0,24.5,0.4C448.2,212.6,457.1,215,457.1,222.2z"/>
		<path fill="#5D916A" d="M457.1,222.3c0,10.5-19,27-48.5,27c-12.7,0-23.3-3.2-31.2-7.7c-10.5-6-16.3-14.2-16.3-20.2
			c0-10.5,17.9-10.2,47.5-10.2c9.3,0,17.6,0,24.5,0.4C448.2,212.6,457.1,215.1,457.1,222.3z"/>
		<path fill="#5D916A" d="M457.2,222.3c0,10.5-19,27-48.5,27c-12.7,0-23.3-3.2-31.2-7.7c-10.5-6-16.3-14.2-16.3-20.2
			c0-10.5,17.9-10.2,47.5-10.2c9.3,0,17.6,0,24.5,0.4C448.3,212.6,457.2,215.1,457.2,222.3z"/>
		<path fill="#5D916A" d="M457.3,222.3c0,10.5-19,27-48.5,27c-12.7,0-23.3-3.2-31.2-7.7c-10.5-6-16.3-14.2-16.3-20.2
			c0-10.5,17.9-10.2,47.5-10.2c9.3,0,17.6,0,24.5,0.4C448.4,212.6,457.3,215.1,457.3,222.3z"/>
		<path fill="#5D916A" d="M457.4,222.4c0,10.5-19,27-48.5,27c-12.7,0-23.3-3.2-31.2-7.7c-10.5-6-16.3-14.2-16.3-20.2
			c0-10.5,17.9-10.2,47.5-10.2c9.3,0,17.6,0,24.5,0.4C448.5,212.7,457.4,215.2,457.4,222.4z"/>
		<path fill="#5D916A" d="M457.5,222.4c0,10.5-19,27-48.5,27c-12.7,0-23.3-3.2-31.2-7.7c-10.5-6-16.3-14.2-16.3-20.2
			c0-10.5,17.9-10.2,47.5-10.2c9.3,0,17.6,0,24.5,0.4C448.5,212.7,457.5,215.2,457.5,222.4z"/>
		<path fill="#5D916A" d="M457.5,222.4c0,10.5-19,27-48.5,27c-12.7,0-23.3-3.2-31.2-7.7c-10.5-6-16.3-14.2-16.3-20.2
			c0-10.5,17.9-10.2,47.5-10.2c9.3,0,17.6,0,24.5,0.4C448.6,212.7,457.5,215.2,457.5,222.4z"/>
		<path fill="#5D916A" d="M457.6,222.5c0,10.5-19,27-48.5,27c-12.7,0-23.3-3.2-31.2-7.7c-10.5-6-16.3-14.2-16.3-20.2
			c0-10.5,17.9-10.2,47.5-10.2c9.3,0,17.6,0,24.5,0.4C448.7,212.8,457.6,215.3,457.6,222.5z"/>
		<path fill="#5D916A" d="M457.7,222.5c0,10.5-19,27-48.5,27c-12.7,0-23.3-3.2-31.2-7.7c-10.5-6-16.3-14.2-16.3-20.2
			c0-10.5,17.9-10.2,47.5-10.2c9.3,0,17.6,0,24.5,0.4C448.8,212.8,457.7,215.3,457.7,222.5z"/>
		<path fill="#5D916A" d="M457.8,222.5c0,10.5-19,27-48.5,27c-12.7,0-23.3-3.2-31.2-7.7c-10.5-6-16.3-14.2-16.3-20.2
			c0-10.5,17.9-10.2,47.5-10.2c9.3,0,17.6,0,24.5,0.4C448.9,212.8,457.8,215.3,457.8,222.5z"/>
		<path fill="#5D916A" d="M457.9,222.5c0,10.5-19,27-48.5,27c-12.7,0-23.3-3.2-31.2-7.7c-10.5-6-16.3-14.2-16.3-20.2
			c0-10.5,17.9-10.2,47.5-10.2c9.3,0,17.6,0,24.5,0.4C448.9,212.9,457.9,215.3,457.9,222.5z"/>
		<path fill="#5D916A" d="M457.9,222.6c0,10.5-19,27-48.5,27c-12.7,0-23.3-3.2-31.2-7.7c-10.5-6-16.3-14.2-16.3-20.2
			c0-10.5,17.9-10.2,47.5-10.2c9.3,0,17.6,0,24.5,0.4C449,212.9,457.9,215.4,457.9,222.6z"/>
		<path fill="#5D916A" d="M458,222.6c0,10.5-19,27-48.5,27c-12.7,0-23.3-3.2-31.2-7.7c-10.5-6-16.3-14.2-16.3-20.2
			c0-10.5,17.9-10.2,47.5-10.2c9.3,0,17.6,0,24.5,0.4C449.1,212.9,458,215.4,458,222.6z"/>
		<path fill="#5D916A" d="M458.1,222.6c0,10.5-19,27-48.5,27c-12.7,0-23.3-3.2-31.2-7.7c-10.5-6-16.3-14.2-16.3-20.2
			c0-10.5,17.9-10.2,47.5-10.2c9.3,0,17.6,0,24.5,0.4C449.2,212.9,458.1,215.4,458.1,222.6z"/>
		<path fill="#5D916A" d="M458.2,222.7c0,10.5-19,27-48.5,27c-12.7,0-23.3-3.2-31.2-7.7c-10.5-6-16.3-14.2-16.3-20.2
			c0-10.5,17.9-10.2,47.5-10.2c9.3,0,17.6,0,24.5,0.4C449.3,213,458.2,215.5,458.2,222.7z"/>
		<path fill="#5D916A" d="M458.2,222.7c0,10.5-19,27-48.5,27c-12.7,0-23.3-3.2-31.2-7.7c-10.5-6-16.3-14.2-16.3-20.2
			c0-10.5,17.9-10.2,47.5-10.2c9.3,0,17.6,0,24.5,0.4C449.3,213,458.2,215.5,458.2,222.7z"/>
		<path fill="#5D916A" d="M458.3,222.7c0,10.5-19,27-48.5,27c-12.7,0-23.3-3.2-31.2-7.7c-10.5-6-16.3-14.2-16.3-20.2
			c0-10.5,17.9-10.2,47.5-10.2c9.3,0,17.6,0,24.5,0.4C449.4,213,458.3,215.5,458.3,222.7z"/>
		<path fill="#5D916A" d="M458.4,222.7c0,10.5-19,27-48.5,27c-12.7,0-23.3-3.2-31.2-7.7c-10.5-6-16.3-14.2-16.3-20.2
			c0-10.5,17.9-10.2,47.5-10.2c9.3,0,17.6,0,24.5,0.4C449.5,213.1,458.4,215.5,458.4,222.7z"/>
		<path fill="#5D916A" d="M458.5,222.8c0,10.5-19,27-48.5,27c-12.7,0-23.3-3.2-31.2-7.7c-10.5-6-16.3-14.2-16.3-20.2
			c0-10.5,17.9-10.2,47.5-10.2c9.3,0,17.6,0,24.5,0.4C449.6,213.1,458.5,215.6,458.5,222.8z"/>
		<path fill="#5D916A" d="M458.6,222.8c0,10.5-19,27-48.5,27c-12.7,0-23.3-3.2-31.2-7.7c-10.5-6-16.3-14.2-16.3-20.2
			c0-10.5,17.9-10.2,47.5-10.2c9.3,0,17.6,0,24.5,0.4C449.7,213.1,458.6,215.6,458.6,222.8z"/>
		<path fill="#5D916A" d="M458.6,222.8c0,10.5-19,27-48.5,27c-12.7,0-23.3-3.2-31.2-7.7c-10.5-6-16.3-14.2-16.3-20.2
			c0-10.5,17.9-10.2,47.5-10.2c9.3,0,17.6,0,24.5,0.4C449.7,213.1,458.6,215.6,458.6,222.8z"/>
		<path fill="#5D916A" d="M458.7,222.9c0,10.5-19,27-48.5,27c-12.7,0-23.3-3.2-31.2-7.7c-10.5-6-16.3-14.2-16.3-20.2
			c0-10.5,17.9-10.2,47.5-10.2c9.3,0,17.6,0,24.5,0.4C449.8,213.2,458.7,215.7,458.7,222.9z"/>
		<path fill="#5D916A" d="M458.8,222.9c0,10.5-19,27-48.5,27c-12.7,0-23.3-3.2-31.2-7.7c-10.5-6-16.3-14.2-16.3-20.2
			c0-10.5,17.9-10.2,47.5-10.2c9.3,0,17.6,0,24.5,0.4C449.9,213.2,458.8,215.7,458.8,222.9z"/>
		<path fill="#5D916A" d="M458.9,222.9c0,10.5-19,27-48.5,27c-12.7,0-23.3-3.2-31.2-7.7c-10.5-6-16.3-14.2-16.3-20.2
			c0-10.5,17.9-10.2,47.5-10.2c9.3,0,17.6,0,24.5,0.4C450,213.2,458.9,215.7,458.9,222.9z"/>
		<path fill="#5D916A" d="M459,223c0,10.5-19,27-48.5,27c-12.7,0-23.3-3.2-31.2-7.7c-10.5-6-16.3-14.2-16.3-20.2
			c0-10.5,17.9-10.2,47.5-10.2c9.3,0,17.6,0,24.5,0.4C450.1,213.3,459,215.8,459,223z"/>
		<path fill="#5D916A" d="M459,223c0,10.5-19,27-48.5,27c-12.7,0-23.3-3.2-31.2-7.7c-10.5-6-16.3-14.2-16.3-20.2
			c0-10.5,17.9-10.2,47.5-10.2c9.3,0,17.6,0,24.5,0.4C450.1,213.3,459,215.8,459,223z"/>
		<path fill="#5D916A" d="M459.1,223c0,10.5-19,27-48.5,27c-12.7,0-23.3-3.2-31.2-7.7c-10.5-6-16.3-14.2-16.3-20.2
			c0-10.5,17.9-10.2,47.5-10.2c9.3,0,17.6,0,24.5,0.4C450.2,213.3,459.1,215.8,459.1,223z"/>
		<path fill="#5D916A" d="M459.2,223c0,10.5-19,27-48.5,27c-12.7,0-23.3-3.2-31.2-7.7c-10.5-6-16.3-14.2-16.3-20.2
			c0-10.5,17.9-10.2,47.5-10.2c9.3,0,17.6,0,24.5,0.4C450.3,213.4,459.2,215.8,459.2,223z"/>
		<path fill="#5D916A" d="M459.3,223.1c0,10.5-19,27-48.5,27c-12.7,0-23.3-3.2-31.2-7.7c-10.5-6-16.3-14.2-16.3-20.2
			c0-10.5,17.9-10.2,47.5-10.2c9.3,0,17.6,0,24.5,0.4C450.4,213.4,459.3,215.9,459.3,223.1z"/>
		<path fill="#5D916A" d="M459.4,223.1c0,10.5-19,27-48.5,27c-12.7,0-23.3-3.2-31.2-7.7c-10.5-6-16.3-14.2-16.3-20.2
			c0-10.5,17.9-10.2,47.5-10.2c9.3,0,17.6,0,24.5,0.4C450.4,213.4,459.4,215.9,459.4,223.1z"/>
		<path fill="#5D916A" d="M459.4,223.1c0,10.5-19,27-48.5,27c-12.7,0-23.3-3.2-31.2-7.7c-10.5-6-16.3-14.2-16.3-20.2
			c0-10.5,17.9-10.2,47.5-10.2c9.3,0,17.6,0,24.5,0.4C450.5,213.4,459.4,215.9,459.4,223.1z"/>
		<path fill="#5D916A" d="M459.5,223.2c0,10.5-19,27-48.5,27c-12.7,0-23.3-3.2-31.2-7.7c-10.5-6-16.3-14.2-16.3-20.2
			c0-10.5,17.9-10.2,47.5-10.2c9.3,0,17.6,0,24.5,0.4C450.6,213.5,459.5,216,459.5,223.2z"/>
		<path fill="#5D916A" d="M459.6,223.2c0,10.5-19,27-48.5,27c-12.7,0-23.3-3.2-31.2-7.7c-10.5-6-16.3-14.2-16.3-20.2
			c0-10.5,17.9-10.2,47.5-10.2c9.3,0,17.6,0,24.5,0.4C450.7,213.5,459.6,216,459.6,223.2z"/>
		<path fill="#5D916A" d="M459.7,223.2c0,10.5-19,27-48.5,27c-12.7,0-23.3-3.2-31.2-7.7c-10.5-6-16.3-14.2-16.3-20.2
			c0-10.5,17.9-10.2,47.5-10.2c9.3,0,17.6,0,24.5,0.4C450.8,213.5,459.7,216,459.7,223.2z"/>
		<path fill="#5D916A" d="M459.8,223.3c0,10.5-19,27-48.5,27c-12.7,0-23.3-3.2-31.2-7.7c-10.5-6-16.3-14.2-16.3-20.2
			c0-10.5,17.9-10.2,47.5-10.2c9.3,0,17.6,0,24.5,0.4C450.8,213.6,459.8,216.1,459.8,223.3z"/>
		<path fill="#5D916A" d="M459.8,223.3c0,10.5-19,27-48.5,27c-12.7,0-23.3-3.2-31.2-7.7c-10.5-6-16.3-14.2-16.3-20.2
			c0-10.5,17.9-10.2,47.5-10.2c9.3,0,17.6,0,24.5,0.4C450.9,213.6,459.8,216.1,459.8,223.3z"/>
	</g>
	<polygon fill="#B5B535" points="474.8,103.3 474.8,160.3 427.8,160.3 427.8,144.3 447.8,144.3 447.8,117.3 427.8,117.3 
		427.8,103.3 	"/>
	<path fill="#BC7326" d="M243.8,352.3c0-13.1-12.1-24-27-24h-41c-14.9,0-27,10.9-27,24l0,0c0,13.1,12.1,24,27,24h41
		C231.7,376.3,243.8,365.4,243.8,352.3L243.8,352.3z"/>
	<path fill="#CB265B" d="M109.2,77.3c-29.8-1.1,8.2,40-6,40c-8.8,0-35-10.8-48.5-21.1c-8.3-6.3-11.8-12.5-3.5-15.9
		c27.6-11.4,6.7-70.7,29.3-45c0.5,0.6,1.1,1.2,1.8,1.9C94.4,49.3,133.8,78.3,109.2,77.3z"/>
	<path fill="#B99A6F" d="M494.8,219.3v120h62v-120H494.8z M544.8,316.3h-39v-75h39V316.3z"/>
	<path fill="#6EAF80" d="M459.8,223.3c0,10.5-19,27-48.5,27c-12.7,0-23.3-3.2-31.2-7.7c-10.5-6-16.3-14.2-16.3-20.2
		c0-10.5,17.9-10.2,47.5-10.2c9.3,0,17.6,0,24.5,0.4C450.9,213.6,459.8,216.1,459.8,223.3z"/>
	<polygon fill="#D9DE3E" points="474.8,103.3 474.8,160.3 427.8,160.3 427.8,144.3 447.8,144.3 447.8,117.3 427.8,117.3 
		427.8,103.3 	"/>
	<path fill="#DE912F" d="M243.8,352.3c0-13.1-12.1-24-27-24h-41c-14.9,0-27,10.9-27,24l0,0c0,13.1,12.1,24,27,24h41
		C231.7,376.3,243.8,365.4,243.8,352.3L243.8,352.3z"/>
	<polygon fill="#BC7326" points="428.1,361.3 449.8,323.6 471.6,361.3 	"/>
	<polygon fill="#DE912F" points="438.3,361.3 449.8,323.6 471.6,361.3 	"/>
	<polygon fill="#BC7326" points="390.1,361.3 411.8,323.6 433.6,361.3 	"/>
	<polygon fill="#DE912F" points="400.3,361.3 411.8,323.6 433.6,361.3 	"/>
	<polygon fill="#BC7326" points="353.1,361.3 374.8,323.6 396.6,361.3 	"/>
	<polygon fill="#DE912F" points="363.3,361.3 374.8,323.6 396.6,361.3 	"/>
	<polygon fill="#E1D33D" points="92.8,269.9 98.8,273.7 98.8,181.8 92.8,178 	"/>
	<rect x="98.8" y="181.3" fill="#F7EC41" width="47" height="92"/>
	<polygon fill="#F7EF9F" points="140,178.3 91.9,178.3 98.7,181.3 146.7,181.3 	"/>
	<g>
		<g>
			<g>
				<path fill="#AD59C7" d="M247.8,278.7c0,2.4-11.1,4.3-24.8,4.3c-5.4,0-10.4-0.3-14.5-0.8c-6.2-0.8-10.2-2-10.2-3.5
					c0-0.5,0.4-0.9,1.2-1.3c0.9-0.5,2.4-0.9,4.2-1.3c1.3-0.3,2.8-0.5,4.5-0.8c2.8-0.4,6.1-0.6,9.6-0.8c1.7-0.1,3.4-0.1,5.2-0.1
					s3.5,0,5.2,0.1c5.7,0.2,10.7,0.8,14.2,1.5c1.8,0.4,3.2,0.8,4.2,1.3C247.4,277.8,247.8,278.3,247.8,278.7z"/>
				<path fill="#AD59C7" d="M247.8,277.7c0,2.4-11.1,4.3-24.8,4.3c-5.4,0-10.4-0.3-14.5-0.8c-6.2-0.8-10.2-2-10.2-3.5
					c0-0.5,0.4-0.9,1.2-1.3c0.9-0.5,2.4-0.9,4.2-1.3c1.3-0.3,2.8-0.5,4.5-0.8c2.8-0.4,6.1-0.6,9.6-0.8c1.7-0.1,3.4-0.1,5.2-0.1
					s3.5,0,5.2,0.1c5.7,0.2,10.7,0.8,14.2,1.5c1.8,0.4,3.2,0.8,4.2,1.3C247.4,276.8,247.8,277.3,247.8,277.7z"/>
				<path fill="#AD59C7" d="M247.8,276.7c0,2.4-11.1,4.3-24.8,4.3c-5.4,0-10.4-0.3-14.5-0.8c-6.2-0.8-10.2-2-10.2-3.5
					c0-0.5,0.4-0.9,1.2-1.3c0.9-0.5,2.4-0.9,4.2-1.3c1.3-0.3,2.8-0.5,4.5-0.8c2.8-0.4,6.1-0.6,9.6-0.8c1.7-0.1,3.4-0.1,5.2-0.1
					s3.5,0,5.2,0.1c5.7,0.2,10.7,0.8,14.2,1.5c1.8,0.4,3.2,0.8,4.2,1.3C247.4,275.8,247.8,276.3,247.8,276.7z"/>
				<path fill="#AD59C7" d="M247.8,275.7c0,2.4-11.1,4.3-24.8,4.3c-5.4,0-10.4-0.3-14.5-0.8c-6.2-0.8-10.2-2-10.2-3.5
					c0-0.5,0.4-0.9,1.2-1.3c0.9-0.5,2.4-0.9,4.2-1.3c1.3-0.3,2.8-0.5,4.5-0.8c2.8-0.4,6.1-0.6,9.6-0.8c1.7-0.1,3.4-0.1,5.2-0.1
					s3.5,0,5.2,0.1c5.7,0.2,10.7,0.8,14.2,1.5c1.8,0.4,3.2,0.8,4.2,1.3C247.4,274.8,247.8,275.3,247.8,275.7z"/>
				<path fill="#AD59C7" d="M247.8,274.7c0,2.4-11.1,4.3-24.8,4.3c-5.4,0-10.4-0.3-14.5-0.8c-6.2-0.8-10.2-2-10.2-3.5
					c0-0.5,0.4-0.9,1.2-1.3c0.9-0.5,2.4-0.9,4.2-1.3c1.3-0.3,2.8-0.5,4.5-0.8c2.8-0.4,6.1-0.6,9.6-0.8c1.7-0.1,3.4-0.1,5.2-0.1
					s3.5,0,5.2,0.1c5.7,0.2,10.7,0.8,14.2,1.5c1.8,0.4,3.2,0.8,4.2,1.3C247.4,273.8,247.8,274.2,247.8,274.7z"/>
				<path fill="#AD59C7" d="M247.8,273.7c0,2.4-11.1,4.3-24.8,4.3c-5.4,0-10.4-0.3-14.5-0.8c-6.2-0.8-10.2-2-10.2-3.5
					c0-0.5,0.4-0.9,1.2-1.3c0.9-0.5,2.4-0.9,4.2-1.3c1.3-0.3,2.8-0.5,4.5-0.8c2.8-0.4,6.1-0.6,9.6-0.8c1.7-0.1,3.4-0.1,5.2-0.1
					s3.5,0,5.2,0.1c5.7,0.2,10.7,0.8,14.2,1.5c1.8,0.4,3.2,0.8,4.2,1.3C247.4,272.8,247.8,273.2,247.8,273.7z"/>
				<path fill="#AD59C7" d="M247.8,272.7c0,2.4-11.1,4.3-24.8,4.3c-5.4,0-10.4-0.3-14.5-0.8c-6.2-0.8-10.2-2-10.2-3.5
					c0-0.5,0.4-0.9,1.2-1.3c0.9-0.5,2.4-0.9,4.2-1.3c1.3-0.3,2.8-0.5,4.5-0.8c2.8-0.4,6.1-0.6,9.6-0.8c1.7-0.1,3.4-0.1,5.2-0.1
					s3.5,0,5.2,0.1c5.7,0.2,10.7,0.8,14.2,1.5c1.8,0.4,3.2,0.8,4.2,1.3C247.4,271.8,247.8,272.2,247.8,272.7z"/>
				<path fill="#AD59C7" d="M247.8,271.7c0,2.4-11.1,4.3-24.8,4.3c-5.4,0-10.4-0.3-14.5-0.8c-6.2-0.8-10.2-2-10.2-3.5
					c0-0.5,0.4-0.9,1.2-1.3c0.9-0.5,2.4-0.9,4.2-1.3c1.3-0.3,2.8-0.5,4.5-0.8c2.8-0.4,6.1-0.6,9.6-0.8c1.7-0.1,3.4-0.1,5.2-0.1
					s3.5,0,5.2,0.1c5.7,0.2,10.7,0.8,14.2,1.5c1.8,0.4,3.2,0.8,4.2,1.3C247.4,270.8,247.8,271.2,247.8,271.7z"/>
				<path fill="#AD59C7" d="M247.8,270.7c0,2.4-11.1,4.3-24.8,4.3c-5.4,0-10.4-0.3-14.5-0.8c-6.2-0.8-10.2-2-10.2-3.5
					c0-0.5,0.4-0.9,1.2-1.3c0.9-0.5,2.4-0.9,4.2-1.3c1.3-0.3,2.8-0.5,4.5-0.8c2.8-0.4,6.1-0.6,9.6-0.8c1.7-0.1,3.4-0.1,5.2-0.1
					s3.5,0,5.2,0.1c5.7,0.2,10.7,0.8,14.2,1.5c1.8,0.4,3.2,0.8,4.2,1.3C247.4,269.8,247.8,270.2,247.8,270.7z"/>
			</g>
			<path fill="#D769F4" d="M247.8,270.7c0,2.4-11.1,4.3-24.8,4.3c-5.4,0-10.4-0.3-14.5-0.8c-6.2-0.8-10.2-2-10.2-3.5
				c0-0.5,0.4-0.9,1.2-1.3c0.9-0.5,2.4-0.9,4.2-1.3c1.3-0.3,2.8-0.5,4.5-0.8c2.8-0.4,6.1-0.6,9.6-0.8c1.7-0.1,3.4-0.1,5.2-0.1
				s3.5,0,5.2,0.1c5.7,0.2,10.7,0.8,14.2,1.5c1.8,0.4,3.2,0.8,4.2,1.3C247.4,269.8,247.8,270.2,247.8,270.7z"/>
		</g>
		<g>
			<g>
				<path fill="#AD59C7" d="M247.8,267c0,2.4-11.1,4.3-24.8,4.3c-5.4,0-10.4-0.3-14.5-0.8c-6.2-0.8-10.2-2-10.2-3.5
					c0-0.5,0.4-0.9,1.2-1.3c0.9-0.5,2.4-0.9,4.2-1.3c1.3-0.3,2.8-0.5,4.5-0.8c2.8-0.4,6.1-0.6,9.6-0.8c1.7-0.1,3.4-0.1,5.2-0.1
					s3.5,0,5.2,0.1c5.7,0.2,10.7,0.8,14.2,1.5c1.8,0.4,3.2,0.8,4.2,1.3C247.4,266,247.8,266.5,247.8,267z"/>
				<path fill="#AD59C7" d="M247.8,265.9c0,2.4-11.1,4.3-24.8,4.3c-5.4,0-10.4-0.3-14.5-0.8c-6.2-0.8-10.2-2-10.2-3.5
					c0-0.5,0.4-0.9,1.2-1.3c0.9-0.5,2.4-0.9,4.2-1.3c1.3-0.3,2.8-0.5,4.5-0.8c2.8-0.4,6.1-0.6,9.6-0.8c1.7-0.1,3.4-0.1,5.2-0.1
					s3.5,0,5.2,0.1c5.7,0.2,10.7,0.8,14.2,1.5c1.8,0.4,3.2,0.8,4.2,1.3C247.4,265,247.8,265.5,247.8,265.9z"/>
				<path fill="#AD59C7" d="M247.8,264.9c0,2.4-11.1,4.3-24.8,4.3c-5.4,0-10.4-0.3-14.5-0.8c-6.2-0.8-10.2-2-10.2-3.5
					c0-0.5,0.4-0.9,1.2-1.3c0.9-0.5,2.4-0.9,4.2-1.3c1.3-0.3,2.8-0.5,4.5-0.8c2.8-0.4,6.1-0.6,9.6-0.8c1.7-0.1,3.4-0.1,5.2-0.1
					s3.5,0,5.2,0.1c5.7,0.2,10.7,0.8,14.2,1.5c1.8,0.4,3.2,0.8,4.2,1.3C247.4,264,247.8,264.5,247.8,264.9z"/>
				<path fill="#AD59C7" d="M247.8,263.9c0,2.4-11.1,4.3-24.8,4.3c-5.4,0-10.4-0.3-14.5-0.8c-6.2-0.8-10.2-2-10.2-3.5
					c0-0.5,0.4-0.9,1.2-1.3c0.9-0.5,2.4-0.9,4.2-1.3c1.3-0.3,2.8-0.5,4.5-0.8c2.8-0.4,6.1-0.6,9.6-0.8c1.7-0.1,3.4-0.1,5.2-0.1
					s3.5,0,5.2,0.1c5.7,0.2,10.7,0.8,14.2,1.5c1.8,0.4,3.2,0.8,4.2,1.3C247.4,263,247.8,263.5,247.8,263.9z"/>
				<path fill="#AD59C7" d="M247.8,262.9c0,2.4-11.1,4.3-24.8,4.3c-5.4,0-10.4-0.3-14.5-0.8c-6.2-0.8-10.2-2-10.2-3.5
					c0-0.5,0.4-0.9,1.2-1.3c0.9-0.5,2.4-0.9,4.2-1.3c1.3-0.3,2.8-0.5,4.5-0.8c2.8-0.4,6.1-0.6,9.6-0.8c1.7-0.1,3.4-0.1,5.2-0.1
					s3.5,0,5.2,0.1c5.7,0.2,10.7,0.8,14.2,1.5c1.8,0.4,3.2,0.8,4.2,1.3C247.4,262,247.8,262.5,247.8,262.9z"/>
				<path fill="#AD59C7" d="M247.8,261.9c0,2.4-11.1,4.3-24.8,4.3c-5.4,0-10.4-0.3-14.5-0.8c-6.2-0.8-10.2-2-10.2-3.5
					c0-0.5,0.4-0.9,1.2-1.3c0.9-0.5,2.4-0.9,4.2-1.3c1.3-0.3,2.8-0.5,4.5-0.8c2.8-0.4,6.1-0.6,9.6-0.8c1.7-0.1,3.4-0.1,5.2-0.1
					s3.5,0,5.2,0.1c5.7,0.2,10.7,0.8,14.2,1.5c1.8,0.4,3.2,0.8,4.2,1.3C247.4,261,247.8,261.5,247.8,261.9z"/>
				<path fill="#AD59C7" d="M247.8,260.9c0,2.4-11.1,4.3-24.8,4.3c-5.4,0-10.4-0.3-14.5-0.8c-6.2-0.8-10.2-2-10.2-3.5
					c0-0.5,0.4-0.9,1.2-1.3c0.9-0.5,2.4-0.9,4.2-1.3c1.3-0.3,2.8-0.5,4.5-0.8c2.8-0.4,6.1-0.6,9.6-0.8c1.7-0.1,3.4-0.1,5.2-0.1
					s3.5,0,5.2,0.1c5.7,0.2,10.7,0.8,14.2,1.5c1.8,0.4,3.2,0.8,4.2,1.3C247.4,260,247.8,260.5,247.8,260.9z"/>
				<path fill="#AD59C7" d="M247.8,259.9c0,2.4-11.1,4.3-24.8,4.3c-5.4,0-10.4-0.3-14.5-0.8c-6.2-0.8-10.2-2-10.2-3.5
					c0-0.5,0.4-0.9,1.2-1.3c0.9-0.5,2.4-0.9,4.2-1.3c1.3-0.3,2.8-0.5,4.5-0.8c2.8-0.4,6.1-0.6,9.6-0.8c1.7-0.1,3.4-0.1,5.2-0.1
					s3.5,0,5.2,0.1c5.7,0.2,10.7,0.8,14.2,1.5c1.8,0.4,3.2,0.8,4.2,1.3C247.4,259,247.8,259.4,247.8,259.9z"/>
				<path fill="#AD59C7" d="M247.8,258.9c0,2.4-11.1,4.3-24.8,4.3c-5.4,0-10.4-0.3-14.5-0.8c-6.2-0.8-10.2-2-10.2-3.5
					c0-0.5,0.4-0.9,1.2-1.3c0.9-0.5,2.4-0.9,4.2-1.3c1.3-0.3,2.8-0.5,4.5-0.8c2.8-0.4,6.1-0.6,9.6-0.8c1.7-0.1,3.4-0.1,5.2-0.1
					s3.5,0,5.2,0.1c5.7,0.2,10.7,0.8,14.2,1.5c1.8,0.4,3.2,0.8,4.2,1.3C247.4,258,247.8,258.4,247.8,258.9z"/>
			</g>
			<path fill="#D769F4" d="M247.8,258.9c0,2.4-11.1,4.3-24.8,4.3c-5.4,0-10.4-0.3-14.5-0.8c-6.2-0.8-10.2-2-10.2-3.5
				c0-0.5,0.4-0.9,1.2-1.3c0.9-0.5,2.4-0.9,4.2-1.3c1.3-0.3,2.8-0.5,4.5-0.8c2.8-0.4,6.1-0.6,9.6-0.8c1.7-0.1,3.4-0.1,5.2-0.1
				s3.5,0,5.2,0.1c5.7,0.2,10.7,0.8,14.2,1.5c1.8,0.4,3.2,0.8,4.2,1.3C247.4,258,247.8,258.4,247.8,258.9z"/>
		</g>
		<g>
			<g>
				<path fill="#AD59C7" d="M247.8,255.2c0,2.4-11.1,4.3-24.8,4.3c-5.4,0-10.4-0.3-14.5-0.8c-6.2-0.8-10.2-2-10.2-3.5
					c0-0.5,0.4-0.9,1.2-1.3c0.9-0.5,2.4-0.9,4.2-1.3c1.3-0.3,2.8-0.5,4.5-0.8c2.8-0.4,6.1-0.6,9.6-0.8c1.7-0.1,3.4-0.1,5.2-0.1
					s3.5,0,5.2,0.1c5.7,0.2,10.7,0.8,14.2,1.5c1.8,0.4,3.2,0.8,4.2,1.3C247.4,254.3,247.8,254.7,247.8,255.2z"/>
				<path fill="#AD59C7" d="M247.8,254.2c0,2.4-11.1,4.3-24.8,4.3c-5.4,0-10.4-0.3-14.5-0.8c-6.2-0.8-10.2-2-10.2-3.5
					c0-0.5,0.4-0.9,1.2-1.3c0.9-0.5,2.4-0.9,4.2-1.3c1.3-0.3,2.8-0.5,4.5-0.8c2.8-0.4,6.1-0.6,9.6-0.8c1.7-0.1,3.4-0.1,5.2-0.1
					s3.5,0,5.2,0.1c5.7,0.2,10.7,0.8,14.2,1.5c1.8,0.4,3.2,0.8,4.2,1.3C247.4,253.2,247.8,253.7,247.8,254.2z"/>
				<path fill="#AD59C7" d="M247.8,253.2c0,2.4-11.1,4.3-24.8,4.3c-5.4,0-10.4-0.3-14.5-0.8c-6.2-0.8-10.2-2-10.2-3.5
					c0-0.5,0.4-0.9,1.2-1.3c0.9-0.5,2.4-0.9,4.2-1.3c1.3-0.3,2.8-0.5,4.5-0.8c2.8-0.4,6.1-0.6,9.6-0.8c1.7-0.1,3.4-0.1,5.2-0.1
					s3.5,0,5.2,0.1c5.7,0.2,10.7,0.8,14.2,1.5c1.8,0.4,3.2,0.8,4.2,1.3C247.4,252.2,247.8,252.7,247.8,253.2z"/>
				<path fill="#AD59C7" d="M247.8,252.2c0,2.4-11.1,4.3-24.8,4.3c-5.4,0-10.4-0.3-14.5-0.8c-6.2-0.8-10.2-2-10.2-3.5
					c0-0.5,0.4-0.9,1.2-1.3c0.9-0.5,2.4-0.9,4.2-1.3c1.3-0.3,2.8-0.5,4.5-0.8c2.8-0.4,6.1-0.6,9.6-0.8c1.7-0.1,3.4-0.1,5.2-0.1
					s3.5,0,5.2,0.1c5.7,0.2,10.7,0.8,14.2,1.5c1.8,0.4,3.2,0.8,4.2,1.3C247.4,251.2,247.8,251.7,247.8,252.2z"/>
				<path fill="#AD59C7" d="M247.8,251.1c0,2.4-11.1,4.3-24.8,4.3c-5.4,0-10.4-0.3-14.5-0.8c-6.2-0.8-10.2-2-10.2-3.5
					c0-0.5,0.4-0.9,1.2-1.3c0.9-0.5,2.4-0.9,4.2-1.3c1.3-0.3,2.8-0.5,4.5-0.8c2.8-0.4,6.1-0.6,9.6-0.8c1.7-0.1,3.4-0.1,5.2-0.1
					s3.5,0,5.2,0.1c5.7,0.2,10.7,0.8,14.2,1.5c1.8,0.4,3.2,0.8,4.2,1.3C247.4,250.2,247.8,250.7,247.8,251.1z"/>
				<path fill="#AD59C7" d="M247.8,250.1c0,2.4-11.1,4.3-24.8,4.3c-5.4,0-10.4-0.3-14.5-0.8c-6.2-0.8-10.2-2-10.2-3.5
					c0-0.5,0.4-0.9,1.2-1.3c0.9-0.5,2.4-0.9,4.2-1.3c1.3-0.3,2.8-0.5,4.5-0.8c2.8-0.4,6.1-0.6,9.6-0.8c1.7-0.1,3.4-0.1,5.2-0.1
					s3.5,0,5.2,0.1c5.7,0.2,10.7,0.8,14.2,1.5c1.8,0.4,3.2,0.8,4.2,1.3C247.4,249.2,247.8,249.7,247.8,250.1z"/>
				<path fill="#AD59C7" d="M247.8,249.1c0,2.4-11.1,4.3-24.8,4.3c-5.4,0-10.4-0.3-14.5-0.8c-6.2-0.8-10.2-2-10.2-3.5
					c0-0.5,0.4-0.9,1.2-1.3c0.9-0.5,2.4-0.9,4.2-1.3c1.3-0.3,2.8-0.5,4.5-0.8c2.8-0.4,6.1-0.6,9.6-0.8c1.7-0.1,3.4-0.1,5.2-0.1
					s3.5,0,5.2,0.1c5.7,0.2,10.7,0.8,14.2,1.5c1.8,0.4,3.2,0.8,4.2,1.3C247.4,248.2,247.8,248.7,247.8,249.1z"/>
				<path fill="#AD59C7" d="M247.8,248.1c0,2.4-11.1,4.3-24.8,4.3c-5.4,0-10.4-0.3-14.5-0.8c-6.2-0.8-10.2-2-10.2-3.5
					c0-0.5,0.4-0.9,1.2-1.3c0.9-0.5,2.4-0.9,4.2-1.3c1.3-0.3,2.8-0.5,4.5-0.8c2.8-0.4,6.1-0.6,9.6-0.8c1.7-0.1,3.4-0.1,5.2-0.1
					s3.5,0,5.2,0.1c5.7,0.2,10.7,0.8,14.2,1.5c1.8,0.4,3.2,0.8,4.2,1.3C247.4,247.2,247.8,247.7,247.8,248.1z"/>
				<path fill="#AD59C7" d="M247.8,247.1c0,2.4-11.1,4.3-24.8,4.3c-5.4,0-10.4-0.3-14.5-0.8c-6.2-0.8-10.2-2-10.2-3.5
					c0-0.5,0.4-0.9,1.2-1.3c0.9-0.5,2.4-0.9,4.2-1.3c1.3-0.3,2.8-0.5,4.5-0.8c2.8-0.4,6.1-0.6,9.6-0.8c1.7-0.1,3.4-0.1,5.2-0.1
					s3.5,0,5.2,0.1c5.7,0.2,10.7,0.8,14.2,1.5c1.8,0.4,3.2,0.8,4.2,1.3C247.4,246.2,247.8,246.7,247.8,247.1z"/>
			</g>
			<path fill="#D769F4" d="M247.8,247.1c0,2.4-11.1,4.3-24.8,4.3c-5.4,0-10.4-0.3-14.5-0.8c-6.2-0.8-10.2-2-10.2-3.5
				c0-0.5,0.4-0.9,1.2-1.3c0.9-0.5,2.4-0.9,4.2-1.3c1.3-0.3,2.8-0.5,4.5-0.8c2.8-0.4,6.1-0.6,9.6-0.8c1.7-0.1,3.4-0.1,5.2-0.1
				s3.5,0,5.2,0.1c5.7,0.2,10.7,0.8,14.2,1.5c1.8,0.4,3.2,0.8,4.2,1.3C247.4,246.2,247.8,246.7,247.8,247.1z"/>
		</g>
		<g>
			<g>
				<path fill="#AD59C7" d="M247.8,243.4c0,2.4-11.1,4.3-24.8,4.3c-5.4,0-10.4-0.3-14.5-0.8c-6.2-0.8-10.2-2-10.2-3.5
					c0-0.5,0.4-0.9,1.2-1.3c0.9-0.5,2.4-0.9,4.2-1.3c1.3-0.3,2.8-0.5,4.5-0.8c2.8-0.4,6.1-0.6,9.6-0.8c1.7-0.1,3.4-0.1,5.2-0.1
					s3.5,0,5.2,0.1c5.7,0.2,10.7,0.8,14.2,1.5c1.8,0.4,3.2,0.8,4.2,1.3C247.4,242.5,247.8,242.9,247.8,243.4z"/>
				<path fill="#AD59C7" d="M247.8,242.4c0,2.4-11.1,4.3-24.8,4.3c-5.4,0-10.4-0.3-14.5-0.8c-6.2-0.8-10.2-2-10.2-3.5
					c0-0.5,0.4-0.9,1.2-1.3c0.9-0.5,2.4-0.9,4.2-1.3c1.3-0.3,2.8-0.5,4.5-0.8c2.8-0.4,6.1-0.6,9.6-0.8c1.7-0.1,3.4-0.1,5.2-0.1
					s3.5,0,5.2,0.1c5.7,0.2,10.7,0.8,14.2,1.5c1.8,0.4,3.2,0.8,4.2,1.3C247.4,241.5,247.8,241.9,247.8,242.4z"/>
				<path fill="#AD59C7" d="M247.8,241.4c0,2.4-11.1,4.3-24.8,4.3c-5.4,0-10.4-0.3-14.5-0.8c-6.2-0.8-10.2-2-10.2-3.5
					c0-0.5,0.4-0.9,1.2-1.3c0.9-0.5,2.4-0.9,4.2-1.3c1.3-0.3,2.8-0.5,4.5-0.8c2.8-0.4,6.1-0.6,9.6-0.8c1.7-0.1,3.4-0.1,5.2-0.1
					s3.5,0,5.2,0.1c5.7,0.2,10.7,0.8,14.2,1.5c1.8,0.4,3.2,0.8,4.2,1.3C247.4,240.5,247.8,240.9,247.8,241.4z"/>
				<path fill="#AD59C7" d="M247.8,240.4c0,2.4-11.1,4.3-24.8,4.3c-5.4,0-10.4-0.3-14.5-0.8c-6.2-0.8-10.2-2-10.2-3.5
					c0-0.5,0.4-0.9,1.2-1.3c0.9-0.5,2.4-0.9,4.2-1.3c1.3-0.3,2.8-0.5,4.5-0.8c2.8-0.4,6.1-0.6,9.6-0.8c1.7-0.1,3.4-0.1,5.2-0.1
					s3.5,0,5.2,0.1c5.7,0.2,10.7,0.8,14.2,1.5c1.8,0.4,3.2,0.8,4.2,1.3C247.4,239.5,247.8,239.9,247.8,240.4z"/>
				<path fill="#AD59C7" d="M247.8,239.4c0,2.4-11.1,4.3-24.8,4.3c-5.4,0-10.4-0.3-14.5-0.8c-6.2-0.8-10.2-2-10.2-3.5
					c0-0.5,0.4-0.9,1.2-1.3c0.9-0.5,2.4-0.9,4.2-1.3c1.3-0.3,2.8-0.5,4.5-0.8c2.8-0.4,6.1-0.6,9.6-0.8c1.7-0.1,3.4-0.1,5.2-0.1
					s3.5,0,5.2,0.1c5.7,0.2,10.7,0.8,14.2,1.5c1.8,0.4,3.2,0.8,4.2,1.3C247.4,238.4,247.8,238.9,247.8,239.4z"/>
				<path fill="#AD59C7" d="M247.8,238.4c0,2.4-11.1,4.3-24.8,4.3c-5.4,0-10.4-0.3-14.5-0.8c-6.2-0.8-10.2-2-10.2-3.5
					c0-0.5,0.4-0.9,1.2-1.3c0.9-0.5,2.4-0.9,4.2-1.3c1.3-0.3,2.8-0.5,4.5-0.8c2.8-0.4,6.1-0.6,9.6-0.8c1.7-0.1,3.4-0.1,5.2-0.1
					s3.5,0,5.2,0.1c5.7,0.2,10.7,0.8,14.2,1.5c1.8,0.4,3.2,0.8,4.2,1.3C247.4,237.4,247.8,237.9,247.8,238.4z"/>
				<path fill="#AD59C7" d="M247.8,237.4c0,2.4-11.1,4.3-24.8,4.3c-5.4,0-10.4-0.3-14.5-0.8c-6.2-0.8-10.2-2-10.2-3.5
					c0-0.5,0.4-0.9,1.2-1.3c0.9-0.5,2.4-0.9,4.2-1.3c1.3-0.3,2.8-0.5,4.5-0.8c2.8-0.4,6.1-0.6,9.6-0.8c1.7-0.1,3.4-0.1,5.2-0.1
					s3.5,0,5.2,0.1c5.7,0.2,10.7,0.8,14.2,1.5c1.8,0.4,3.2,0.8,4.2,1.3C247.4,236.4,247.8,236.9,247.8,237.4z"/>
				<path fill="#AD59C7" d="M247.8,236.3c0,2.4-11.1,4.3-24.8,4.3c-5.4,0-10.4-0.3-14.5-0.8c-6.2-0.8-10.2-2-10.2-3.5
					c0-0.5,0.4-0.9,1.2-1.3c0.9-0.5,2.4-0.9,4.2-1.3c1.3-0.3,2.8-0.5,4.5-0.8c2.8-0.4,6.1-0.6,9.6-0.8c1.7-0.1,3.4-0.1,5.2-0.1
					s3.5,0,5.2,0.1c5.7,0.2,10.7,0.8,14.2,1.5c1.8,0.4,3.2,0.8,4.2,1.3C247.4,235.4,247.8,235.9,247.8,236.3z"/>
				<path fill="#AD59C7" d="M247.8,235.3c0,2.4-11.1,4.3-24.8,4.3c-5.4,0-10.4-0.3-14.5-0.8c-6.2-0.8-10.2-2-10.2-3.5
					c0-0.5,0.4-0.9,1.2-1.3c0.9-0.5,2.4-0.9,4.2-1.3c1.3-0.3,2.8-0.5,4.5-0.8c2.8-0.4,6.1-0.6,9.6-0.8c1.7-0.1,3.4-0.1,5.2-0.1
					s3.5,0,5.2,0.1c5.7,0.2,10.7,0.8,14.2,1.5c1.8,0.4,3.2,0.8,4.2,1.3C247.4,234.4,247.8,234.9,247.8,235.3z"/>
			</g>
			<path fill="#D769F4" d="M247.8,235.3c0,2.4-11.1,4.3-24.8,4.3c-5.4,0-10.4-0.3-14.5-0.8c-6.2-0.8-10.2-2-10.2-3.5
				c0-0.5,0.4-0.9,1.2-1.3c0.9-0.5,2.4-0.9,4.2-1.3c1.3-0.3,2.8-0.5,4.5-0.8c2.8-0.4,6.1-0.6,9.6-0.8c1.7-0.1,3.4-0.1,5.2-0.1
				s3.5,0,5.2,0.1c5.7,0.2,10.7,0.8,14.2,1.5c1.8,0.4,3.2,0.8,4.2,1.3C247.4,234.4,247.8,234.9,247.8,235.3z"/>
		</g>
		<g>
			<g>
				<path fill="#AD59C7" d="M247.8,231.6c0,2.4-11.1,4.3-24.8,4.3c-5.4,0-10.4-0.3-14.5-0.8c-6.2-0.8-10.2-2-10.2-3.5
					c0-0.5,0.4-0.9,1.2-1.3c0.9-0.5,2.4-0.9,4.2-1.3c1.3-0.3,2.8-0.5,4.5-0.8c2.8-0.4,6.1-0.6,9.6-0.8c1.7-0.1,3.4-0.1,5.2-0.1
					s3.5,0,5.2,0.1c5.7,0.2,10.7,0.8,14.2,1.5c1.8,0.4,3.2,0.8,4.2,1.3C247.4,230.7,247.8,231.1,247.8,231.6z"/>
				<path fill="#AD59C7" d="M247.8,230.6c0,2.4-11.1,4.3-24.8,4.3c-5.4,0-10.4-0.3-14.5-0.8c-6.2-0.8-10.2-2-10.2-3.5
					c0-0.5,0.4-0.9,1.2-1.3c0.9-0.5,2.4-0.9,4.2-1.3c1.3-0.3,2.8-0.5,4.5-0.8c2.8-0.4,6.1-0.6,9.6-0.8c1.7-0.1,3.4-0.1,5.2-0.1
					s3.5,0,5.2,0.1c5.7,0.2,10.7,0.8,14.2,1.5c1.8,0.4,3.2,0.8,4.2,1.3C247.4,229.7,247.8,230.1,247.8,230.6z"/>
				<path fill="#AD59C7" d="M247.8,229.6c0,2.4-11.1,4.3-24.8,4.3c-5.4,0-10.4-0.3-14.5-0.8c-6.2-0.8-10.2-2-10.2-3.5
					c0-0.5,0.4-0.9,1.2-1.3c0.9-0.5,2.4-0.9,4.2-1.3c1.3-0.3,2.8-0.5,4.5-0.8c2.8-0.4,6.1-0.6,9.6-0.8c1.7-0.1,3.4-0.1,5.2-0.1
					s3.5,0,5.2,0.1c5.7,0.2,10.7,0.8,14.2,1.5c1.8,0.4,3.2,0.8,4.2,1.3C247.4,228.7,247.8,229.1,247.8,229.6z"/>
				<path fill="#AD59C7" d="M247.8,228.6c0,2.4-11.1,4.3-24.8,4.3c-5.4,0-10.4-0.3-14.5-0.8c-6.2-0.8-10.2-2-10.2-3.5
					c0-0.5,0.4-0.9,1.2-1.3c0.9-0.5,2.4-0.9,4.2-1.3c1.3-0.3,2.8-0.5,4.5-0.8c2.8-0.4,6.1-0.6,9.6-0.8c1.7-0.1,3.4-0.1,5.2-0.1
					s3.5,0,5.2,0.1c5.7,0.2,10.7,0.8,14.2,1.5c1.8,0.4,3.2,0.8,4.2,1.3C247.4,227.7,247.8,228.1,247.8,228.6z"/>
				<path fill="#AD59C7" d="M247.8,227.6c0,2.4-11.1,4.3-24.8,4.3c-5.4,0-10.4-0.3-14.5-0.8c-6.2-0.8-10.2-2-10.2-3.5
					c0-0.5,0.4-0.9,1.2-1.3c0.9-0.5,2.4-0.9,4.2-1.3c1.3-0.3,2.8-0.5,4.5-0.8c2.8-0.4,6.1-0.6,9.6-0.8c1.7-0.1,3.4-0.1,5.2-0.1
					s3.5,0,5.2,0.1c5.7,0.2,10.7,0.8,14.2,1.5c1.8,0.4,3.2,0.8,4.2,1.3C247.4,226.7,247.8,227.1,247.8,227.6z"/>
				<path fill="#AD59C7" d="M247.8,226.6c0,2.4-11.1,4.3-24.8,4.3c-5.4,0-10.4-0.3-14.5-0.8c-6.2-0.8-10.2-2-10.2-3.5
					c0-0.5,0.4-0.9,1.2-1.3c0.9-0.5,2.4-0.9,4.2-1.3c1.3-0.3,2.8-0.5,4.5-0.8c2.8-0.4,6.1-0.6,9.6-0.8c1.7-0.1,3.4-0.1,5.2-0.1
					s3.5,0,5.2,0.1c5.7,0.2,10.7,0.8,14.2,1.5c1.8,0.4,3.2,0.8,4.2,1.3C247.4,225.7,247.8,226.1,247.8,226.6z"/>
				<path fill="#AD59C7" d="M247.8,225.6c0,2.4-11.1,4.3-24.8,4.3c-5.4,0-10.4-0.3-14.5-0.8c-6.2-0.8-10.2-2-10.2-3.5
					c0-0.5,0.4-0.9,1.2-1.3c0.9-0.5,2.4-0.9,4.2-1.3c1.3-0.3,2.8-0.5,4.5-0.8c2.8-0.4,6.1-0.6,9.6-0.8c1.7-0.1,3.4-0.1,5.2-0.1
					s3.5,0,5.2,0.1c5.7,0.2,10.7,0.8,14.2,1.5c1.8,0.4,3.2,0.8,4.2,1.3C247.4,224.7,247.8,225.1,247.8,225.6z"/>
				<path fill="#AD59C7" d="M247.8,224.6c0,2.4-11.1,4.3-24.8,4.3c-5.4,0-10.4-0.3-14.5-0.8c-6.2-0.8-10.2-2-10.2-3.5
					c0-0.5,0.4-0.9,1.2-1.3c0.9-0.5,2.4-0.9,4.2-1.3c1.3-0.3,2.8-0.5,4.5-0.8c2.8-0.4,6.1-0.6,9.6-0.8c1.7-0.1,3.4-0.1,5.2-0.1
					s3.5,0,5.2,0.1c5.7,0.2,10.7,0.8,14.2,1.5c1.8,0.4,3.2,0.8,4.2,1.3C247.4,223.6,247.8,224.1,247.8,224.6z"/>
				<path fill="#AD59C7" d="M247.8,223.6c0,2.4-11.1,4.3-24.8,4.3c-5.4,0-10.4-0.3-14.5-0.8c-6.2-0.8-10.2-2-10.2-3.5
					c0-0.5,0.4-0.9,1.2-1.3c0.9-0.5,2.4-0.9,4.2-1.3c1.3-0.3,2.8-0.5,4.5-0.8c2.8-0.4,6.1-0.6,9.6-0.8c1.7-0.1,3.4-0.1,5.2-0.1
					s3.5,0,5.2,0.1c5.7,0.2,10.7,0.8,14.2,1.5c1.8,0.4,3.2,0.8,4.2,1.3C247.4,222.6,247.8,223.1,247.8,223.6z"/>
			</g>
			<path fill="#D769F4" d="M247.8,223.6c0,2.4-11.1,4.3-24.8,4.3c-5.4,0-10.4-0.3-14.5-0.8c-6.2-0.8-10.2-2-10.2-3.5
				c0-0.5,0.4-0.9,1.2-1.3c0.9-0.5,2.4-0.9,4.2-1.3c1.3-0.3,2.8-0.5,4.5-0.8c2.8-0.4,6.1-0.6,9.6-0.8c1.7-0.1,3.4-0.1,5.2-0.1
				s3.5,0,5.2,0.1c5.7,0.2,10.7,0.8,14.2,1.5c1.8,0.4,3.2,0.8,4.2,1.3C247.4,222.6,247.8,223.1,247.8,223.6z"/>
		</g>
		<g>
			<g>
				<path fill="#AD59C7" d="M247.8,219.8c0,2.4-11.1,4.3-24.8,4.3c-5.4,0-10.4-0.3-14.5-0.8c-6.2-0.8-10.2-2-10.2-3.5
					c0-0.5,0.4-0.9,1.2-1.3c0.9-0.5,2.4-0.9,4.2-1.3c1.3-0.3,2.8-0.5,4.5-0.8c2.8-0.4,6.1-0.6,9.6-0.8c1.7-0.1,3.4-0.1,5.2-0.1
					s3.5,0,5.2,0.1c5.7,0.2,10.7,0.8,14.2,1.5c1.8,0.4,3.2,0.8,4.2,1.3C247.4,218.9,247.8,219.4,247.8,219.8z"/>
				<path fill="#AD59C7" d="M247.8,218.8c0,2.4-11.1,4.3-24.8,4.3c-5.4,0-10.4-0.3-14.5-0.8c-6.2-0.8-10.2-2-10.2-3.5
					c0-0.5,0.4-0.9,1.2-1.3c0.9-0.5,2.4-0.9,4.2-1.3c1.3-0.3,2.8-0.5,4.5-0.8c2.8-0.4,6.1-0.6,9.6-0.8c1.7-0.1,3.4-0.1,5.2-0.1
					s3.5,0,5.2,0.1c5.7,0.2,10.7,0.8,14.2,1.5c1.8,0.4,3.2,0.8,4.2,1.3C247.4,217.9,247.8,218.4,247.8,218.8z"/>
				<path fill="#AD59C7" d="M247.8,217.8c0,2.4-11.1,4.3-24.8,4.3c-5.4,0-10.4-0.3-14.5-0.8c-6.2-0.8-10.2-2-10.2-3.5
					c0-0.5,0.4-0.9,1.2-1.3c0.9-0.5,2.4-0.9,4.2-1.3c1.3-0.3,2.8-0.5,4.5-0.8c2.8-0.4,6.1-0.6,9.6-0.8c1.7-0.1,3.4-0.1,5.2-0.1
					s3.5,0,5.2,0.1c5.7,0.2,10.7,0.8,14.2,1.5c1.8,0.4,3.2,0.8,4.2,1.3C247.4,216.9,247.8,217.3,247.8,217.8z"/>
				<path fill="#AD59C7" d="M247.8,216.8c0,2.4-11.1,4.3-24.8,4.3c-5.4,0-10.4-0.3-14.5-0.8c-6.2-0.8-10.2-2-10.2-3.5
					c0-0.5,0.4-0.9,1.2-1.3c0.9-0.5,2.4-0.9,4.2-1.3c1.3-0.3,2.8-0.5,4.5-0.8c2.8-0.4,6.1-0.6,9.6-0.8c1.7-0.1,3.4-0.1,5.2-0.1
					s3.5,0,5.2,0.1c5.7,0.2,10.7,0.8,14.2,1.5c1.8,0.4,3.2,0.8,4.2,1.3C247.4,215.9,247.8,216.3,247.8,216.8z"/>
				<path fill="#AD59C7" d="M247.8,215.8c0,2.4-11.1,4.3-24.8,4.3c-5.4,0-10.4-0.3-14.5-0.8c-6.2-0.8-10.2-2-10.2-3.5
					c0-0.5,0.4-0.9,1.2-1.3c0.9-0.5,2.4-0.9,4.2-1.3c1.3-0.3,2.8-0.5,4.5-0.8c2.8-0.4,6.1-0.6,9.6-0.8c1.7-0.1,3.4-0.1,5.2-0.1
					s3.5,0,5.2,0.1c5.7,0.2,10.7,0.8,14.2,1.5c1.8,0.4,3.2,0.8,4.2,1.3C247.4,214.9,247.8,215.3,247.8,215.8z"/>
				<path fill="#AD59C7" d="M247.8,214.8c0,2.4-11.1,4.3-24.8,4.3c-5.4,0-10.4-0.3-14.5-0.8c-6.2-0.8-10.2-2-10.2-3.5
					c0-0.5,0.4-0.9,1.2-1.3c0.9-0.5,2.4-0.9,4.2-1.3c1.3-0.3,2.8-0.5,4.5-0.8c2.8-0.4,6.1-0.6,9.6-0.8c1.7-0.1,3.4-0.1,5.2-0.1
					s3.5,0,5.2,0.1c5.7,0.2,10.7,0.8,14.2,1.5c1.8,0.4,3.2,0.8,4.2,1.3C247.4,213.9,247.8,214.3,247.8,214.8z"/>
				<path fill="#AD59C7" d="M247.8,213.8c0,2.4-11.1,4.3-24.8,4.3c-5.4,0-10.4-0.3-14.5-0.8c-6.2-0.8-10.2-2-10.2-3.5
					c0-0.5,0.4-0.9,1.2-1.3c0.9-0.5,2.4-0.9,4.2-1.3c1.3-0.3,2.8-0.5,4.5-0.8c2.8-0.4,6.1-0.6,9.6-0.8c1.7-0.1,3.4-0.1,5.2-0.1
					s3.5,0,5.2,0.1c5.7,0.2,10.7,0.8,14.2,1.5c1.8,0.4,3.2,0.8,4.2,1.3C247.4,212.9,247.8,213.3,247.8,213.8z"/>
				<path fill="#AD59C7" d="M247.8,212.8c0,2.4-11.1,4.3-24.8,4.3c-5.4,0-10.4-0.3-14.5-0.8c-6.2-0.8-10.2-2-10.2-3.5
					c0-0.5,0.4-0.9,1.2-1.3c0.9-0.5,2.4-0.9,4.2-1.3c1.3-0.3,2.8-0.5,4.5-0.8c2.8-0.4,6.1-0.6,9.6-0.8c1.7-0.1,3.4-0.1,5.2-0.1
					s3.5,0,5.2,0.1c5.7,0.2,10.7,0.8,14.2,1.5c1.8,0.4,3.2,0.8,4.2,1.3C247.4,211.9,247.8,212.3,247.8,212.8z"/>
				<path fill="#AD59C7" d="M247.8,211.8c0,2.4-11.1,4.3-24.8,4.3c-5.4,0-10.4-0.3-14.5-0.8c-6.2-0.8-10.2-2-10.2-3.5
					c0-0.5,0.4-0.9,1.2-1.3c0.9-0.5,2.4-0.9,4.2-1.3c1.3-0.3,2.8-0.5,4.5-0.8c2.8-0.4,6.1-0.6,9.6-0.8c1.7-0.1,3.4-0.1,5.2-0.1
					s3.5,0,5.2,0.1c5.7,0.2,10.7,0.8,14.2,1.5c1.8,0.4,3.2,0.8,4.2,1.3C247.4,210.9,247.8,211.3,247.8,211.8z"/>
			</g>
			<path fill="#D769F4" d="M247.8,211.8c0,2.4-11.1,4.3-24.8,4.3c-5.4,0-10.4-0.3-14.5-0.8c-6.2-0.8-10.2-2-10.2-3.5
				c0-0.5,0.4-0.9,1.2-1.3c0.9-0.5,2.4-0.9,4.2-1.3c1.3-0.3,2.8-0.5,4.5-0.8c2.8-0.4,6.1-0.6,9.6-0.8c1.7-0.1,3.4-0.1,5.2-0.1
				s3.5,0,5.2,0.1c5.7,0.2,10.7,0.8,14.2,1.5c1.8,0.4,3.2,0.8,4.2,1.3C247.4,210.9,247.8,211.3,247.8,211.8z"/>
		</g>
		<g>
			<g>
				<path fill="#AD59C7" d="M247.8,208c0,2.4-11.1,4.3-24.8,4.3c-5.4,0-10.4-0.3-14.5-0.8c-6.2-0.8-10.2-2-10.2-3.5
					c0-0.5,0.4-0.9,1.2-1.3c0.9-0.5,2.4-0.9,4.2-1.3c1.3-0.3,2.8-0.5,4.5-0.8c2.8-0.4,6.1-0.6,9.6-0.8c1.7-0.1,3.4-0.1,5.2-0.1
					s3.5,0,5.2,0.1c5.7,0.2,10.7,0.8,14.2,1.5c1.8,0.4,3.2,0.8,4.2,1.3C247.4,207.1,247.8,207.6,247.8,208z"/>
				<path fill="#AD59C7" d="M247.8,207c0,2.4-11.1,4.3-24.8,4.3c-5.4,0-10.4-0.3-14.5-0.8c-6.2-0.8-10.2-2-10.2-3.5
					c0-0.5,0.4-0.9,1.2-1.3c0.9-0.5,2.4-0.9,4.2-1.3c1.3-0.3,2.8-0.5,4.5-0.8c2.8-0.4,6.1-0.6,9.6-0.8c1.7-0.1,3.4-0.1,5.2-0.1
					s3.5,0,5.2,0.1c5.7,0.2,10.7,0.8,14.2,1.5c1.8,0.4,3.2,0.8,4.2,1.3C247.4,206.1,247.8,206.6,247.8,207z"/>
				<path fill="#AD59C7" d="M247.8,206c0,2.4-11.1,4.3-24.8,4.3c-5.4,0-10.4-0.3-14.5-0.8c-6.2-0.8-10.2-2-10.2-3.5
					c0-0.5,0.4-0.9,1.2-1.3c0.9-0.5,2.4-0.9,4.2-1.3c1.3-0.3,2.8-0.5,4.5-0.8c2.8-0.4,6.1-0.6,9.6-0.8c1.7-0.1,3.4-0.1,5.2-0.1
					s3.5,0,5.2,0.1c5.7,0.2,10.7,0.8,14.2,1.5c1.8,0.4,3.2,0.8,4.2,1.3C247.4,205.1,247.8,205.6,247.8,206z"/>
				<path fill="#AD59C7" d="M247.8,205c0,2.4-11.1,4.3-24.8,4.3c-5.4,0-10.4-0.3-14.5-0.8c-6.2-0.8-10.2-2-10.2-3.5
					c0-0.5,0.4-0.9,1.2-1.3c0.9-0.5,2.4-0.9,4.2-1.3c1.3-0.3,2.8-0.5,4.5-0.8c2.8-0.4,6.1-0.6,9.6-0.8c1.7-0.1,3.4-0.1,5.2-0.1
					s3.5,0,5.2,0.1c5.7,0.2,10.7,0.8,14.2,1.5c1.8,0.4,3.2,0.8,4.2,1.3C247.4,204.1,247.8,204.6,247.8,205z"/>
				<path fill="#AD59C7" d="M247.8,204c0,2.4-11.1,4.3-24.8,4.3c-5.4,0-10.4-0.3-14.5-0.8c-6.2-0.8-10.2-2-10.2-3.5
					c0-0.5,0.4-0.9,1.2-1.3c0.9-0.5,2.4-0.9,4.2-1.3c1.3-0.3,2.8-0.5,4.5-0.8c2.8-0.4,6.1-0.6,9.6-0.8c1.7-0.1,3.4-0.1,5.2-0.1
					s3.5,0,5.2,0.1c5.7,0.2,10.7,0.8,14.2,1.5c1.8,0.4,3.2,0.8,4.2,1.3C247.4,203.1,247.8,203.6,247.8,204z"/>
				<path fill="#AD59C7" d="M247.8,203c0,2.4-11.1,4.3-24.8,4.3c-5.4,0-10.4-0.3-14.5-0.8c-6.2-0.8-10.2-2-10.2-3.5
					c0-0.5,0.4-0.9,1.2-1.3c0.9-0.5,2.4-0.9,4.2-1.3c1.3-0.3,2.8-0.5,4.5-0.8c2.8-0.4,6.1-0.6,9.6-0.8c1.7-0.1,3.4-0.1,5.2-0.1
					s3.5,0,5.2,0.1c5.7,0.2,10.7,0.8,14.2,1.5c1.8,0.4,3.2,0.8,4.2,1.3C247.4,202.1,247.8,202.5,247.8,203z"/>
				<path fill="#AD59C7" d="M247.8,202c0,2.4-11.1,4.3-24.8,4.3c-5.4,0-10.4-0.3-14.5-0.8c-6.2-0.8-10.2-2-10.2-3.5
					c0-0.5,0.4-0.9,1.2-1.3c0.9-0.5,2.4-0.9,4.2-1.3c1.3-0.3,2.8-0.5,4.5-0.8c2.8-0.4,6.1-0.6,9.6-0.8c1.7-0.1,3.4-0.1,5.2-0.1
					s3.5,0,5.2,0.1c5.7,0.2,10.7,0.8,14.2,1.5c1.8,0.4,3.2,0.8,4.2,1.3C247.4,201.1,247.8,201.5,247.8,202z"/>
				<path fill="#AD59C7" d="M247.8,201c0,2.4-11.1,4.3-24.8,4.3c-5.4,0-10.4-0.3-14.5-0.8c-6.2-0.8-10.2-2-10.2-3.5
					c0-0.5,0.4-0.9,1.2-1.3c0.9-0.5,2.4-0.9,4.2-1.3c1.3-0.3,2.8-0.5,4.5-0.8c2.8-0.4,6.1-0.6,9.6-0.8c1.7-0.1,3.4-0.1,5.2-0.1
					s3.5,0,5.2,0.1c5.7,0.2,10.7,0.8,14.2,1.5c1.8,0.4,3.2,0.8,4.2,1.3C247.4,200.1,247.8,200.5,247.8,201z"/>
				<path fill="#AD59C7" d="M247.8,200c0,2.4-11.1,4.3-24.8,4.3c-5.4,0-10.4-0.3-14.5-0.8c-6.2-0.8-10.2-2-10.2-3.5
					c0-0.5,0.4-0.9,1.2-1.3c0.9-0.5,2.4-0.9,4.2-1.3c1.3-0.3,2.8-0.5,4.5-0.8c2.8-0.4,6.1-0.6,9.6-0.8c1.7-0.1,3.4-0.1,5.2-0.1
					s3.5,0,5.2,0.1c5.7,0.2,10.7,0.8,14.2,1.5c1.8,0.4,3.2,0.8,4.2,1.3C247.4,199.1,247.8,199.5,247.8,200z"/>
			</g>
			<path fill="#D769F4" d="M247.8,200c0,2.4-11.1,4.3-24.8,4.3c-5.4,0-10.4-0.3-14.5-0.8c-6.2-0.8-10.2-2-10.2-3.5
				c0-0.5,0.4-0.9,1.2-1.3c0.9-0.5,2.4-0.9,4.2-1.3c1.3-0.3,2.8-0.5,4.5-0.8c2.8-0.4,6.1-0.6,9.6-0.8c1.7-0.1,3.4-0.1,5.2-0.1
				s3.5,0,5.2,0.1c5.7,0.2,10.7,0.8,14.2,1.5c1.8,0.4,3.2,0.8,4.2,1.3C247.4,199.1,247.8,199.5,247.8,200z"/>
		</g>
		<g>
			<g>
				<path fill="#AD59C7" d="M247.8,196.3c0,2.4-11.1,4.3-24.8,4.3c-5.4,0-10.4-0.3-14.5-0.8c-6.2-0.8-10.2-2-10.2-3.5
					c0-0.5,0.4-0.9,1.2-1.3c0.9-0.5,2.4-0.9,4.2-1.3c1.3-0.3,2.8-0.5,4.5-0.8c2.8-0.4,6.1-0.6,9.6-0.8c1.7-0.1,3.4-0.1,5.2-0.1
					s3.5,0,5.2,0.1c5.7,0.2,10.7,0.8,14.2,1.5c1.8,0.4,3.2,0.8,4.2,1.3C247.4,195.3,247.8,195.8,247.8,196.3z"/>
				<path fill="#AD59C7" d="M247.8,195.3c0,2.4-11.1,4.3-24.8,4.3c-5.4,0-10.4-0.3-14.5-0.8c-6.2-0.8-10.2-2-10.2-3.5
					c0-0.5,0.4-0.9,1.2-1.3c0.9-0.5,2.4-0.9,4.2-1.3c1.3-0.3,2.8-0.5,4.5-0.8c2.8-0.4,6.1-0.6,9.6-0.8c1.7-0.1,3.4-0.1,5.2-0.1
					s3.5,0,5.2,0.1c5.7,0.2,10.7,0.8,14.2,1.5c1.8,0.4,3.2,0.8,4.2,1.3C247.4,194.3,247.8,194.8,247.8,195.3z"/>
				<path fill="#AD59C7" d="M247.8,194.2c0,2.4-11.1,4.3-24.8,4.3c-5.4,0-10.4-0.3-14.5-0.8c-6.2-0.8-10.2-2-10.2-3.5
					c0-0.5,0.4-0.9,1.2-1.3c0.9-0.5,2.4-0.9,4.2-1.3c1.3-0.3,2.8-0.5,4.5-0.8c2.8-0.4,6.1-0.6,9.6-0.8c1.7-0.1,3.4-0.1,5.2-0.1
					s3.5,0,5.2,0.1c5.7,0.2,10.7,0.8,14.2,1.5c1.8,0.4,3.2,0.8,4.2,1.3C247.4,193.3,247.8,193.8,247.8,194.2z"/>
				<path fill="#AD59C7" d="M247.8,193.2c0,2.4-11.1,4.3-24.8,4.3c-5.4,0-10.4-0.3-14.5-0.8c-6.2-0.8-10.2-2-10.2-3.5
					c0-0.5,0.4-0.9,1.2-1.3c0.9-0.5,2.4-0.9,4.2-1.3c1.3-0.3,2.8-0.5,4.5-0.8c2.8-0.4,6.1-0.6,9.6-0.8c1.7-0.1,3.4-0.1,5.2-0.1
					s3.5,0,5.2,0.1c5.7,0.2,10.7,0.8,14.2,1.5c1.8,0.4,3.2,0.8,4.2,1.3C247.4,192.3,247.8,192.8,247.8,193.2z"/>
				<path fill="#AD59C7" d="M247.8,192.2c0,2.4-11.1,4.3-24.8,4.3c-5.4,0-10.4-0.3-14.5-0.8c-6.2-0.8-10.2-2-10.2-3.5
					c0-0.5,0.4-0.9,1.2-1.3c0.9-0.5,2.4-0.9,4.2-1.3c1.3-0.3,2.8-0.5,4.5-0.8c2.8-0.4,6.1-0.6,9.6-0.8c1.7-0.1,3.4-0.1,5.2-0.1
					s3.5,0,5.2,0.1c5.7,0.2,10.7,0.8,14.2,1.5c1.8,0.4,3.2,0.8,4.2,1.3C247.4,191.3,247.8,191.8,247.8,192.2z"/>
				<path fill="#AD59C7" d="M247.8,191.2c0,2.4-11.1,4.3-24.8,4.3c-5.4,0-10.4-0.3-14.5-0.8c-6.2-0.8-10.2-2-10.2-3.5
					c0-0.5,0.4-0.9,1.2-1.3c0.9-0.5,2.4-0.9,4.2-1.3c1.3-0.3,2.8-0.5,4.5-0.8c2.8-0.4,6.1-0.6,9.6-0.8c1.7-0.1,3.4-0.1,5.2-0.1
					s3.5,0,5.2,0.1c5.7,0.2,10.7,0.8,14.2,1.5c1.8,0.4,3.2,0.8,4.2,1.3C247.4,190.3,247.8,190.8,247.8,191.2z"/>
				<path fill="#AD59C7" d="M247.8,190.2c0,2.4-11.1,4.3-24.8,4.3c-5.4,0-10.4-0.3-14.5-0.8c-6.2-0.8-10.2-2-10.2-3.5
					c0-0.5,0.4-0.9,1.2-1.3c0.9-0.5,2.4-0.9,4.2-1.3c1.3-0.3,2.8-0.5,4.5-0.8c2.8-0.4,6.1-0.6,9.6-0.8c1.7-0.1,3.4-0.1,5.2-0.1
					s3.5,0,5.2,0.1c5.7,0.2,10.7,0.8,14.2,1.5c1.8,0.4,3.2,0.8,4.2,1.3C247.4,189.3,247.8,189.8,247.8,190.2z"/>
				<path fill="#AD59C7" d="M247.8,189.2c0,2.4-11.1,4.3-24.8,4.3c-5.4,0-10.4-0.3-14.5-0.8c-6.2-0.8-10.2-2-10.2-3.5
					c0-0.5,0.4-0.9,1.2-1.3c0.9-0.5,2.4-0.9,4.2-1.3c1.3-0.3,2.8-0.5,4.5-0.8c2.8-0.4,6.1-0.6,9.6-0.8c1.7-0.1,3.4-0.1,5.2-0.1
					s3.5,0,5.2,0.1c5.7,0.2,10.7,0.8,14.2,1.5c1.8,0.4,3.2,0.8,4.2,1.3C247.4,188.3,247.8,188.8,247.8,189.2z"/>
				<path fill="#AD59C7" d="M247.8,188.2c0,2.4-11.1,4.3-24.8,4.3c-5.4,0-10.4-0.3-14.5-0.8c-6.2-0.8-10.2-2-10.2-3.5
					c0-0.5,0.4-0.9,1.2-1.3c0.9-0.5,2.4-0.9,4.2-1.3c1.3-0.3,2.8-0.5,4.5-0.8c2.8-0.4,6.1-0.6,9.6-0.8c1.7-0.1,3.4-0.1,5.2-0.1
					s3.5,0,5.2,0.1c5.7,0.2,10.7,0.8,14.2,1.5c1.8,0.4,3.2,0.8,4.2,1.3C247.4,187.3,247.8,187.7,247.8,188.2z"/>
			</g>
			<path fill="#D769F4" d="M247.8,188.2c0,2.4-11.1,4.3-24.8,4.3c-5.4,0-10.4-0.3-14.5-0.8c-6.2-0.8-10.2-2-10.2-3.5
				c0-0.5,0.4-0.9,1.2-1.3c0.9-0.5,2.4-0.9,4.2-1.3c1.3-0.3,2.8-0.5,4.5-0.8c2.8-0.4,6.1-0.6,9.6-0.8c1.7-0.1,3.4-0.1,5.2-0.1
				s3.5,0,5.2,0.1c5.7,0.2,10.7,0.8,14.2,1.5c1.8,0.4,3.2,0.8,4.2,1.3C247.4,187.3,247.8,187.7,247.8,188.2z"/>
		</g>
		<g>
			<g>
				<path fill="#AD59C7" d="M247.8,184.5c0,2.4-11.1,4.3-24.8,4.3c-5.4,0-10.4-0.3-14.5-0.8c-6.2-0.8-10.2-2-10.2-3.5
					c0-0.5,0.4-0.9,1.2-1.3c0.9-0.5,2.4-0.9,4.2-1.3c1.3-0.3,2.8-0.5,4.5-0.8c2.8-0.4,6.1-0.6,9.6-0.8c1.7-0.1,3.4-0.1,5.2-0.1
					s3.5,0,5.2,0.1c5.7,0.2,10.7,0.8,14.2,1.5c1.8,0.4,3.2,0.8,4.2,1.3C247.4,183.6,247.8,184,247.8,184.5z"/>
				<path fill="#AD59C7" d="M247.8,183.5c0,2.4-11.1,4.3-24.8,4.3c-5.4,0-10.4-0.3-14.5-0.8c-6.2-0.8-10.2-2-10.2-3.5
					c0-0.5,0.4-0.9,1.2-1.3c0.9-0.5,2.4-0.9,4.2-1.3c1.3-0.3,2.8-0.5,4.5-0.8c2.8-0.4,6.1-0.6,9.6-0.8c1.7-0.1,3.4-0.1,5.2-0.1
					s3.5,0,5.2,0.1c5.7,0.2,10.7,0.8,14.2,1.5c1.8,0.4,3.2,0.8,4.2,1.3C247.4,182.6,247.8,183,247.8,183.5z"/>
				<path fill="#AD59C7" d="M247.8,182.5c0,2.4-11.1,4.3-24.8,4.3c-5.4,0-10.4-0.3-14.5-0.8c-6.2-0.8-10.2-2-10.2-3.5
					c0-0.5,0.4-0.9,1.2-1.3c0.9-0.5,2.4-0.9,4.2-1.3c1.3-0.3,2.8-0.5,4.5-0.8c2.8-0.4,6.1-0.6,9.6-0.8c1.7-0.1,3.4-0.1,5.2-0.1
					s3.5,0,5.2,0.1c5.7,0.2,10.7,0.8,14.2,1.5c1.8,0.4,3.2,0.8,4.2,1.3C247.4,181.5,247.8,182,247.8,182.5z"/>
				<path fill="#AD59C7" d="M247.8,181.5c0,2.4-11.1,4.3-24.8,4.3c-5.4,0-10.4-0.3-14.5-0.8c-6.2-0.8-10.2-2-10.2-3.5
					c0-0.5,0.4-0.9,1.2-1.3c0.9-0.5,2.4-0.9,4.2-1.3c1.3-0.3,2.8-0.5,4.5-0.8c2.8-0.4,6.1-0.6,9.6-0.8c1.7-0.1,3.4-0.1,5.2-0.1
					s3.5,0,5.2,0.1c5.7,0.2,10.7,0.8,14.2,1.5c1.8,0.4,3.2,0.8,4.2,1.3C247.4,180.5,247.8,181,247.8,181.5z"/>
				<path fill="#AD59C7" d="M247.8,180.5c0,2.4-11.1,4.3-24.8,4.3c-5.4,0-10.4-0.3-14.5-0.8c-6.2-0.8-10.2-2-10.2-3.5
					c0-0.5,0.4-0.9,1.2-1.3c0.9-0.5,2.4-0.9,4.2-1.3c1.3-0.3,2.8-0.5,4.5-0.8c2.8-0.4,6.1-0.6,9.6-0.8c1.7-0.1,3.4-0.1,5.2-0.1
					s3.5,0,5.2,0.1c5.7,0.2,10.7,0.8,14.2,1.5c1.8,0.4,3.2,0.8,4.2,1.3C247.4,179.5,247.8,180,247.8,180.5z"/>
				<path fill="#AD59C7" d="M247.8,179.4c0,2.4-11.1,4.3-24.8,4.3c-5.4,0-10.4-0.3-14.5-0.8c-6.2-0.8-10.2-2-10.2-3.5
					c0-0.5,0.4-0.9,1.2-1.3c0.9-0.5,2.4-0.9,4.2-1.3c1.3-0.3,2.8-0.5,4.5-0.8c2.8-0.4,6.1-0.6,9.6-0.8c1.7-0.1,3.4-0.1,5.2-0.1
					s3.5,0,5.2,0.1c5.7,0.2,10.7,0.8,14.2,1.5c1.8,0.4,3.2,0.8,4.2,1.3C247.4,178.5,247.8,179,247.8,179.4z"/>
				<path fill="#AD59C7" d="M247.8,178.4c0,2.4-11.1,4.3-24.8,4.3c-5.4,0-10.4-0.3-14.5-0.8c-6.2-0.8-10.2-2-10.2-3.5
					c0-0.5,0.4-0.9,1.2-1.3c0.9-0.5,2.4-0.9,4.2-1.3c1.3-0.3,2.8-0.5,4.5-0.8c2.8-0.4,6.1-0.6,9.6-0.8c1.7-0.1,3.4-0.1,5.2-0.1
					s3.5,0,5.2,0.1c5.7,0.2,10.7,0.8,14.2,1.5c1.8,0.4,3.2,0.8,4.2,1.3C247.4,177.5,247.8,178,247.8,178.4z"/>
				<path fill="#AD59C7" d="M247.8,177.4c0,2.4-11.1,4.3-24.8,4.3c-5.4,0-10.4-0.3-14.5-0.8c-6.2-0.8-10.2-2-10.2-3.5
					c0-0.5,0.4-0.9,1.2-1.3c0.9-0.5,2.4-0.9,4.2-1.3c1.3-0.3,2.8-0.5,4.5-0.8c2.8-0.4,6.1-0.6,9.6-0.8c1.7-0.1,3.4-0.1,5.2-0.1
					s3.5,0,5.2,0.1c5.7,0.2,10.7,0.8,14.2,1.5c1.8,0.4,3.2,0.8,4.2,1.3C247.4,176.5,247.8,177,247.8,177.4z"/>
				<path fill="#AD59C7" d="M247.8,176.4c0,2.4-11.1,4.3-24.8,4.3c-5.4,0-10.4-0.3-14.5-0.8c-6.2-0.8-10.2-2-10.2-3.5
					c0-0.5,0.4-0.9,1.2-1.3c0.9-0.5,2.4-0.9,4.2-1.3c1.3-0.3,2.8-0.5,4.5-0.8c2.8-0.4,6.1-0.6,9.6-0.8c1.7-0.1,3.4-0.1,5.2-0.1
					s3.5,0,5.2,0.1c5.7,0.2,10.7,0.8,14.2,1.5c1.8,0.4,3.2,0.8,4.2,1.3C247.4,175.5,247.8,176,247.8,176.4z"/>
			</g>
			<path fill="#D769F4" d="M247.8,176.4c0,2.4-11.1,4.3-24.8,4.3c-5.4,0-10.4-0.3-14.5-0.8c-6.2-0.8-10.2-2-10.2-3.5
				c0-0.5,0.4-0.9,1.2-1.3c0.9-0.5,2.4-0.9,4.2-1.3c1.3-0.3,2.8-0.5,4.5-0.8c2.8-0.4,6.1-0.6,9.6-0.8c1.7-0.1,3.4-0.1,5.2-0.1
				s3.5,0,5.2,0.1c5.7,0.2,10.7,0.8,14.2,1.5c1.8,0.4,3.2,0.8,4.2,1.3C247.4,175.5,247.8,176,247.8,176.4z"/>
		</g>
	</g>
	<circle fill="#666666" cx="233.4" cy="353.3" r="6"/>
	
		<line fill="none" stroke="#5C6D89" stroke-width="14" stroke-linecap="round" stroke-linejoin="round" stroke-miterlimit="10" x1="424.8" y1="132.3" x2="437.8" y2="132.3"/>
	
		<line fill="none" stroke="#5C6D89" stroke-width="14" stroke-linecap="round" stroke-linejoin="round" stroke-miterlimit="10" x1="222.8" y1="158.3" x2="222.8" y2="171.3"/>
</g>
</svg>
